<?xml version="1.0" standalone="no"?>
<!DOCTYPE svg PUBLIC "-//W3C//DTD SVG 20010904//EN"
 "http://www.w3.org/TR/2001/REC-SVG-20010904/DTD/svg10.dtd">
<svg version="1.0" xmlns="http://www.w3.org/2000/svg"
 width="111.000000pt" height="111.000000pt" viewBox="0 0 111.000000 111.000000"
 preserveAspectRatio="xMidYMid meet">
<metadata>
Created by potrace 1.14, written by Peter Selinger 2001-2017
</metadata>
<g transform="translate(0.000000,111.000000) scale(0.100000,-0.100000)"
fill="#000000" stroke="none">
<path d="M809 1092 c-47 -37 -117 -73 -123 -63 -3 5 -21 6 -41 1 -31 -7 -35
-6 -30 10 5 15 0 16 -44 9 -65 -10 -82 -20 -115 -68 -39 -55 -58 -59 -117 -22
l-49 30 0 -33 c0 -37 14 -53 57 -65 l28 -8 -26 -11 c-22 -9 -139 -141 -139
-157 0 -4 9 -3 20 0 29 9 25 -5 -20 -59 -22 -26 -40 -52 -40 -56 0 -4 12 -5
26 -2 32 6 29 0 -28 -69 -21 -25 -38 -48 -38 -51 0 -3 18 -2 40 2 22 4 40 5
40 3 0 -3 -17 -26 -38 -52 -75 -93 -75 -85 -8 -77 l59 8 -40 -49 c-62 -75 -62
-74 4 -67 l58 7 -25 -29 c-14 -16 -28 -30 -32 -32 -22 -10 -3 -17 35 -14 l42
4 12 -45 c15 -54 55 -89 123 -108 109 -29 314 -11 417 37 86 41 77 61 -105
238 -109 105 -112 121 -27 131 28 3 73 10 100 15 28 5 70 12 94 15 65 9 77 22
100 99 30 101 28 110 -24 146 -25 17 -45 33 -45 37 0 3 11 18 25 35 25 30 31
47 18 49 -5 0 -43 1 -85 2 -72 2 -80 4 -108 32 l-31 31 57 103 c31 56 54 104
52 107 -3 2 -16 -4 -29 -14z"/>
</g>
</svg>
