<svg width="168" height="84" viewBox="0 0 168 84" fill="none" xmlns="http://www.w3.org/2000/svg">
<g clip-path="url(#clip0_62_579)">
<path opacity="0.938" fill-rule="evenodd" clip-rule="evenodd" d="M166.38 1.8623H167.714C167.307 2.58382 167.307 3.30645 167.714 4.0302C167.387 4.38186 166.997 4.54862 166.547 4.53048C165.858 6.63574 166.359 8.41452 168.048 9.86684V13.5356C167.001 14.8597 165.778 16.0271 164.379 17.0376C165.597 17.2039 166.82 17.2595 168.048 17.2043V17.8714C167.443 19.3396 166.331 19.8399 164.712 19.3722C163.791 19.1889 162.901 18.9109 162.044 18.5384C160.997 18.5732 160.664 19.0179 161.044 19.8725C160.915 20.2794 160.637 20.5017 160.21 20.5396C158.487 20.1251 156.764 20.1251 155.04 20.5396C155.12 21.8996 154.453 22.6222 153.039 22.7075C154.667 23.5768 156.334 24.3551 158.042 25.0421C159.819 26.2058 160.652 27.8179 160.543 29.8782C159.965 30.4561 159.388 31.034 158.81 31.6119L158.701 31.7203C158.327 32.095 157.952 32.4697 157.577 32.8444C157.343 33.0786 157.109 33.3127 156.875 33.5469C156.682 34.682 156.293 35.7382 155.707 36.7154C155.238 36.8205 154.793 36.7094 154.373 36.3819C153.446 35.7775 152.612 35.0548 151.872 34.214C151.605 36.4693 151.772 38.6928 152.372 40.8844C151.763 42.2812 152.208 43.1707 153.706 43.5526C154.546 44.172 154.546 44.7833 153.706 45.387C152.02 45.9366 150.297 46.3258 148.537 46.5543C147.321 46.2848 146.71 45.5067 146.702 44.2196C146.776 38.913 145.664 33.9103 143.367 29.2111C139.864 32.6423 135.639 34.5322 130.693 34.881C130.394 38.876 131.506 42.4336 134.028 45.5537C132.444 46.0644 130.777 46.2868 129.026 46.2208C128.415 43.6106 127.415 41.1649 126.024 38.8833C124.953 41.0368 124.786 43.2604 125.524 45.5537C125.649 46.0347 125.927 46.3682 126.357 46.5543C127.442 48.2236 126.997 49.2795 125.023 49.7228C123.689 49.9452 122.355 49.9452 121.021 49.7228C120.781 48.892 120.558 48.0582 120.354 47.2213C120.208 46.679 120.096 46.1231 120.02 45.5537C120.97 41.9193 120.859 38.3617 119.687 34.881C119.782 32.2973 119.282 29.8515 118.186 27.5435C118.327 30.0834 118.827 32.5293 119.687 34.881C119.541 37.818 118.929 37.9294 117.853 35.2145C116.642 31.0674 116.087 26.8428 116.185 22.5407C117.578 19.0354 119.635 15.9781 122.355 13.3688C123.454 12.557 124.677 12.0012 126.024 11.7012C128.415 11.5686 130.805 11.6241 133.195 11.868C135.509 11.8333 137.788 11.5553 140.032 11.0342C142.696 7.62407 146.087 6.6791 150.204 8.19923C152.976 7.04217 155.589 7.3201 158.042 9.03304C159.47 9.9053 160.805 10.9059 162.044 12.0347C162.711 12.2571 163.378 12.2571 164.045 12.0347C164.516 10.7998 164.35 9.63248 163.545 8.53275C163.125 5.70748 164.069 3.48399 166.38 1.8623ZM151.372 28.5441C151.974 28.7899 152.529 29.1235 153.039 29.5447C151.911 30.4927 151.355 30.1591 151.372 28.5441Z" fill="#B5B5B5"/>
<path opacity="0.921" fill-rule="evenodd" clip-rule="evenodd" d="M105.012 72.9028C100.443 73.393 95.8847 73.9487 91.3378 74.5704C63.3706 77.542 35.4658 80.6548 7.62368 83.909C5.8449 83.909 4.0661 83.909 2.28732 83.909C1.81014 83.3457 1.5322 82.6786 1.45351 81.9079C0.947984 76.7319 0.336527 71.6177 -0.380859 66.5658C-0.380859 64.7872 -0.380859 63.0081 -0.380859 61.2295C0.0136146 60.8946 0.45831 60.6165 0.95323 60.3957C40.7558 55.9918 80.556 51.6003 120.354 47.2215C120.559 48.0583 120.781 48.8921 121.021 49.7229C122.355 49.9454 123.689 49.9454 125.024 49.7229C126.997 49.2797 127.442 48.2238 126.358 46.5545C127.26 46.5295 128.15 46.4184 129.026 46.221C130.777 46.287 132.444 46.0645 134.029 45.5539C138.291 45.3271 142.516 44.8825 146.703 44.2198C146.71 45.5069 147.321 46.285 148.537 46.5545C150.297 46.326 152.021 45.9368 153.706 45.3872C154.546 44.7835 154.546 44.1721 153.706 43.5528C156.364 43.1522 159.032 42.9855 161.711 43.0525C161.989 43.3303 162.267 43.6085 162.545 43.8863C163.391 50.7789 164.225 57.6715 165.046 64.5647C164.93 65.2974 164.597 65.9088 164.046 66.3991C144.388 68.7501 124.71 70.918 105.012 72.9028ZM152.706 48.5556C153.818 48.5556 154.93 48.5556 156.041 48.5556C156.131 49.4291 156.019 50.2629 155.708 51.057C153.828 51.3585 151.938 51.5253 150.038 51.5573C149.945 52.5405 150.056 53.4854 150.371 54.3923C151.989 54.3979 153.601 54.2312 155.207 53.892C155.974 54.4937 156.196 55.2718 155.874 56.2266C154.095 56.7896 152.261 57.1231 150.371 57.2272C150.591 58.2128 150.702 59.2133 150.705 60.2289C152.667 60.1405 154.612 59.9184 156.541 59.5619C157.206 59.805 157.484 60.3053 157.375 61.0627C157.317 61.6157 157.094 62.0603 156.708 62.3968C153.933 62.792 151.153 63.0145 148.37 63.0638C148.092 62.786 147.814 62.5079 147.536 62.23C146.932 58.2418 146.599 54.2395 146.536 50.2232C146.703 49.834 146.98 49.5562 147.37 49.3894C149.206 49.169 150.984 48.8911 152.706 48.5556ZM130.36 50.8903C131.644 50.7138 132.812 50.9363 133.862 51.5573C134.337 54.9963 134.726 58.4426 135.029 61.8965C136.897 61.8311 138.731 61.609 140.532 61.2295C141.122 62.136 141.177 63.0809 140.699 64.0644C138.426 64.3909 136.147 64.6691 133.862 64.8982C133.077 64.9633 132.41 64.7408 131.861 64.2312C131.177 59.804 130.677 55.3571 130.36 50.8903ZM116.018 52.2244C117.69 52.169 119.357 52.2247 121.021 52.3911C123.092 53.0502 123.926 54.4396 123.523 56.5602C123.086 57.386 122.475 58.053 121.688 58.5613C124.631 59.6679 125.465 61.6691 124.19 64.5647C123.675 65.1911 123.064 65.6913 122.355 66.0655C119.396 67.0474 116.45 67.1031 113.517 66.2323C112.827 62.0229 112.382 57.7985 112.183 53.5585C113.46 53.0035 114.738 52.5589 116.018 52.2244ZM99.0088 54.2255C100.215 54.1274 101.271 54.461 102.177 55.2261C104.079 59.3894 105.691 63.5585 107.013 67.7332C104.596 68.9258 103.15 68.2031 102.678 65.5653C102.4 65.4542 102.122 65.3428 101.844 65.2317C100.572 65.4472 99.2936 65.614 98.0083 65.732C97.7808 66.8727 97.4473 67.9846 97.0077 69.0672C96.0308 69.3264 95.0856 69.2707 94.1727 68.9005C94.006 68.567 93.8392 68.2334 93.6725 67.8999C94.4409 63.5568 95.4415 59.2767 96.6742 55.0593C97.5093 54.8265 98.2874 54.5487 99.0088 54.2255ZM79.331 56.2266C83.5274 55.3802 86.0845 56.9924 87.002 61.0627C86.6908 62.6306 85.9127 63.909 84.6674 64.8982C85.8457 66.1312 86.9573 67.4096 88.0026 68.7337C87.4583 70.1098 86.4577 70.5544 85.0009 70.0678C83.7025 68.9372 82.5905 67.6588 81.6657 66.2323C81.1407 65.8551 80.5847 65.7994 79.998 66.0655C79.8906 67.6408 79.8906 69.2527 79.998 70.9016C79.3006 70.8409 78.6336 70.9523 77.9969 71.2351C77.2495 71.0577 76.7492 70.6131 76.4961 69.9011C76.0948 66.3447 75.7056 62.7874 75.3287 59.2283C75.3421 58.585 75.4531 57.9736 75.6622 57.394C76.907 56.9464 78.13 56.5572 79.331 56.2266ZM67.6577 57.8942C68.7707 58.7297 68.8817 59.6746 67.9912 60.7292C66.1072 60.9817 64.2171 61.1484 62.3214 61.2295C62.229 62.2127 62.34 63.1576 62.6549 64.0644C64.4279 63.9293 66.2066 63.8183 67.9912 63.7309C68.3031 64.525 68.4141 65.3588 68.3248 66.2323C66.5417 66.4304 64.7627 66.6529 62.9884 66.8994C62.896 67.8826 63.0071 68.8274 63.3219 69.7343C65.1646 69.7556 66.999 69.5889 68.825 69.234C69.8573 69.742 70.1351 70.5201 69.6588 71.5687C67.1007 72.2184 64.4879 72.6633 61.8211 72.9028C60.6788 72.8907 60.0117 72.3348 59.8199 71.2351C59.309 67.4603 58.9755 63.6805 58.8194 59.8954C59.0972 59.6176 59.3754 59.3394 59.6532 59.0616C62.3744 58.7054 65.0426 58.3162 67.6577 57.8942ZM49.6475 59.8954C51.4242 59.4535 52.3137 60.1205 52.3157 61.8965C51.8964 66.1689 50.7848 70.2266 48.9805 74.0701C46.494 75.2067 44.6597 74.5954 43.4773 72.2357C41.726 68.9005 40.1141 65.5096 38.6413 62.0633C39.7832 60.7672 41.0616 60.6004 42.4768 61.563C43.6658 64.9102 45.1109 68.1341 46.8126 71.2351C47.6133 68.0817 48.169 64.8575 48.4802 61.563C48.5659 60.7602 48.9551 60.2046 49.6475 59.8954ZM31.3038 61.8965C31.8597 61.8965 32.4155 61.8965 32.9714 61.8965C33.2782 62.6906 33.2782 63.4687 32.9714 64.2312C31.0186 64.8068 29.0175 65.1404 26.968 65.2317C26.8785 66.1052 26.9897 66.939 27.3015 67.7332C29.1915 67.8139 31.0814 67.7582 32.9714 67.5664C33.3573 68.5163 33.2462 69.3501 32.6379 70.0678C30.9875 70.418 29.3199 70.5848 27.635 70.5681C27.5801 71.5747 27.6357 72.5752 27.8018 73.5698C27.9399 73.7222 28.1066 73.8336 28.3021 73.9033C30.2794 73.5108 32.2805 73.2883 34.3055 73.2363C34.7971 74.1791 34.6857 75.0129 33.9719 75.7377C31.1076 76.3527 28.2171 76.5748 25.3004 76.4047C24.8997 76.1036 24.6217 75.7147 24.4666 75.2374C24.1018 71.8435 23.7127 68.4529 23.2992 65.065C23.3132 64.4089 23.48 63.7973 23.7995 63.2306C26.3134 62.6753 28.8149 62.2307 31.3038 61.8965ZM8.29072 64.2312C9.24613 64.0828 10.0799 64.3052 10.7921 64.8982C11.3098 68.3338 11.7545 71.7801 12.1262 75.2374C12.2643 75.3898 12.4311 75.5012 12.6265 75.5709C14.3858 75.2271 16.1646 75.0049 17.9629 74.9039C18.5928 76.0679 18.3705 77.0127 17.2958 77.7388C15.0631 77.956 12.8396 78.2338 10.6254 78.5726C9.89273 78.4566 9.28128 78.123 8.79101 77.5721C8.22949 73.2409 7.7292 68.9052 7.29016 64.5647C7.72073 64.6437 8.05426 64.5327 8.29072 64.2312Z" fill="#B5B5B5"/>
<path fill-rule="evenodd" clip-rule="evenodd" d="M116.018 54.8926C117.135 54.8376 118.247 54.8933 119.353 55.0593C120.001 55.7774 120.168 56.6112 119.853 57.5608C118.744 58.0621 117.577 58.3956 116.351 58.5613C115.751 57.3547 115.64 56.1316 116.018 54.8926Z" fill="#B5B5B5"/>
<path fill-rule="evenodd" clip-rule="evenodd" d="M99.0084 57.561C99.3406 57.5324 99.6184 57.6438 99.8422 57.8946C100.454 59.3397 101.065 60.7852 101.677 62.2304C100.531 62.9501 99.3082 63.0615 98.0078 62.5639C98.4697 60.9216 98.8033 59.254 99.0084 57.561Z" fill="#B5B5B5"/>
<path fill-rule="evenodd" clip-rule="evenodd" d="M80.3306 58.8955C82.3891 58.8962 83.3343 59.8967 83.1656 61.8972C82.9988 62.5086 82.6096 62.8978 81.9982 63.0645C81.2431 63.1432 80.5204 63.31 79.8303 63.5648C79.1986 62.2081 78.9208 60.7626 78.9965 59.229C79.5298 59.3184 79.9744 59.207 80.3306 58.8955Z" fill="#B5B5B5"/>
<path fill-rule="evenodd" clip-rule="evenodd" d="M117.019 60.5625C118.136 60.5075 119.248 60.5632 120.354 60.7293C121.385 62.1027 121.163 63.2143 119.687 64.0645C118.692 64.2306 117.692 64.2863 116.685 64.2313C116.559 63.5155 116.448 62.7928 116.352 62.0634C116.438 61.4674 116.66 60.9671 117.019 60.5625Z" fill="#B5B5B5"/>
<path opacity="0.93" fill-rule="evenodd" clip-rule="evenodd" d="M105.012 72.9023C109.215 75.3351 111.327 79.0038 111.349 83.9086C103.455 83.9086 95.5622 83.9086 87.6688 83.9086C87.56 80.3349 88.7831 77.2221 91.3375 74.57C95.8844 73.9483 100.443 73.3926 105.012 72.9023Z" fill="#B5B5B5"/>
</g>
<defs>
<clipPath id="clip0_62_579">
<rect width="168" height="84" fill="white"/>
</clipPath>
</defs>
</svg>
