<svg width="137" height="53" viewBox="0 0 137 53" fill="none" xmlns="http://www.w3.org/2000/svg">
<g clip-path="url(#clip0_43_5013)">
<path opacity="0.938" fill-rule="evenodd" clip-rule="evenodd" d="M103.984 0.688965H104.816C104.562 1.13764 104.562 1.58701 104.816 2.03708C104.612 2.25576 104.369 2.35946 104.088 2.34818C103.658 3.65735 103.97 4.76348 105.024 5.66662V7.94804C104.371 8.77147 103.608 9.49738 102.735 10.1258C103.495 10.2292 104.258 10.2637 105.024 10.2295V10.6443C104.647 11.5573 103.953 11.8684 102.943 11.5776C102.368 11.4636 101.812 11.2907 101.277 11.0591C100.624 11.0807 100.416 11.3573 100.653 11.8887C100.572 12.1417 100.399 12.2799 100.132 12.3035C99.0572 12.0457 97.9817 12.0457 96.9057 12.3035C96.9557 13.1492 96.5393 13.5986 95.6566 13.6516C96.6725 14.1922 97.7134 14.6762 98.7793 15.1034C99.8882 15.8271 100.409 16.8295 100.341 18.1107C99.9798 18.4701 99.6191 18.8295 99.2584 19.1889L99.1908 19.2563C98.9569 19.4893 98.7231 19.7223 98.4892 19.9553C98.343 20.1009 98.1968 20.2465 98.0507 20.3922C97.9303 21.098 97.6874 21.7548 97.322 22.3625C97.0289 22.4278 96.7514 22.3588 96.4893 22.1551C95.9106 21.7793 95.3902 21.3298 94.928 20.807C94.7615 22.2094 94.8656 23.5922 95.2403 24.955C94.8602 25.8236 95.1379 26.3768 96.073 26.6142C96.5972 26.9994 96.5972 27.3795 96.073 27.7549C95.0207 28.0967 93.945 28.3388 92.8463 28.4809C92.0875 28.3133 91.7059 27.8294 91.7013 27.029C91.7471 23.7291 91.0533 20.6181 89.6196 17.6959C87.4331 19.8296 84.7962 21.0049 81.709 21.2218C81.5225 23.706 82.2163 25.9184 83.7907 27.8586C82.8019 28.1762 81.761 28.3145 80.6681 28.2735C80.2872 26.6503 79.6626 25.1294 78.7945 23.7106C78.1259 25.0498 78.0218 26.4325 78.4823 27.8586C78.5608 28.1577 78.7342 28.3651 79.0027 28.4809C79.6795 29.5189 79.402 30.1755 78.17 30.4512C77.3373 30.5895 76.5046 30.5895 75.6719 30.4512C75.5221 29.9345 75.3832 29.416 75.2556 28.8957C75.1644 28.5584 75.0949 28.2127 75.0474 27.8586C75.6401 25.5986 75.5708 23.3862 74.8392 21.2218C74.8986 19.6151 74.5863 18.0942 73.9025 16.6589C73.9905 18.2384 74.3028 19.7593 74.8392 21.2218C74.7481 23.0482 74.3665 23.1174 73.6943 21.4292C72.9388 18.8503 72.592 16.2232 72.6534 13.5479C73.5232 11.3681 74.807 9.46691 76.5046 7.84434C77.1906 7.33952 77.9539 6.99385 78.7945 6.80733C80.2872 6.72484 81.7789 6.7594 83.2703 6.91103C84.7146 6.88944 86.1371 6.71661 87.5379 6.39252C89.2005 4.27194 91.3171 3.68431 93.8872 4.62961C95.6175 3.91009 97.2481 4.08291 98.7793 5.14811C99.6709 5.69053 100.504 6.31274 101.277 7.01473C101.694 7.15301 102.11 7.15301 102.526 7.01473C102.82 6.24678 102.716 5.52088 102.214 4.83701C101.952 3.0801 102.541 1.69742 103.984 0.688965ZM94.6158 17.2811C94.9915 17.434 95.3383 17.6414 95.6566 17.9033C94.9524 18.4929 94.6054 18.2855 94.6158 17.2811Z" fill="#828282"/>
<path opacity="0.921" fill-rule="evenodd" clip-rule="evenodd" d="M65.679 44.8654C62.827 45.1703 59.9819 45.5158 57.1439 45.9024C39.6876 47.7504 22.2703 49.6861 4.89217 51.7097C3.78192 51.7097 2.67164 51.7097 1.56139 51.7097C1.26355 51.3594 1.09007 50.9446 1.04095 50.4653C0.725418 47.2466 0.343766 44.0663 -0.104004 40.9248C-0.104004 39.8187 -0.104004 38.7124 -0.104004 37.6063C0.142214 37.3981 0.419779 37.2251 0.728693 37.0878C25.5722 34.3493 50.4142 31.6184 75.255 28.8954C75.3826 29.4158 75.5215 29.9343 75.6714 30.451C76.5041 30.5893 77.3368 30.5893 78.1695 30.451C79.4014 30.1753 79.6789 29.5187 79.0022 28.4806C79.5655 28.4651 80.1207 28.396 80.6676 28.2732C81.7605 28.3143 82.8013 28.176 83.7902 27.8584C86.4506 27.7174 89.0876 27.4409 91.7008 27.0288C91.7054 27.8292 92.0869 28.3131 92.8457 28.4806C93.9445 28.3386 95.0201 28.0965 96.0724 27.7547C96.5966 27.3793 96.5966 26.9992 96.0724 26.614C97.7312 26.3649 99.3966 26.2612 101.069 26.3029C101.242 26.4757 101.416 26.6486 101.589 26.8214C102.117 31.1076 102.638 35.3938 103.15 39.6803C103.078 40.136 102.87 40.5162 102.526 40.8211C90.2558 42.283 77.9736 43.6312 65.679 44.8654ZM95.4479 29.725C96.1418 29.725 96.8358 29.725 97.5297 29.725C97.5854 30.2682 97.5161 30.7867 97.3215 31.2806C96.1484 31.4681 94.9687 31.5718 93.7825 31.5917C93.7249 32.2031 93.7942 32.7907 93.9907 33.3546C95.0005 33.3581 96.0067 33.2544 97.0092 33.0435C97.4876 33.4176 97.6265 33.9015 97.4256 34.4953C96.3152 34.8454 95.1702 35.0528 93.9907 35.1175C94.1279 35.7304 94.1972 36.3526 94.1989 36.9841C95.4236 36.9292 96.6378 36.791 97.8419 36.5693C98.2566 36.7205 98.4302 37.0316 98.3623 37.5026C98.3259 37.8465 98.1871 38.123 97.946 38.3322C96.2136 38.578 94.4789 38.7163 92.7416 38.747C92.5682 38.5743 92.3946 38.4013 92.2212 38.2285C91.8442 35.7484 91.636 33.2596 91.5967 30.7621C91.7008 30.52 91.8742 30.3473 92.1171 30.2436C93.2631 30.1065 94.3733 29.9337 95.4479 29.725ZM81.5002 31.1769C82.3019 31.0671 83.0305 31.2055 83.6861 31.5917C83.9823 33.7302 84.2252 35.8733 84.4147 38.0211C85.5803 37.9805 86.7252 37.8424 87.8496 37.6063C88.2176 38.17 88.2522 38.7576 87.9536 39.3692C86.5349 39.5723 85.1125 39.7453 83.6861 39.8878C83.1964 39.9282 82.7801 39.7899 82.437 39.4729C82.0105 36.7199 81.6982 33.9546 81.5002 31.1769ZM72.5488 32.0065C73.5919 31.972 74.6328 32.0067 75.6714 32.1102C76.9639 32.52 77.4844 33.384 77.2327 34.7027C76.9602 35.2162 76.5786 35.631 76.0877 35.9471C77.9244 36.6353 78.4449 37.8797 77.649 39.6803C77.3278 40.0699 76.9462 40.381 76.5041 40.6137C74.6569 41.2243 72.8179 41.2589 70.9875 40.7174C70.5567 38.0997 70.2792 35.4728 70.1548 32.8361C70.9519 32.491 71.7498 32.2145 72.5488 32.0065ZM61.9319 33.2509C62.6844 33.1899 63.3437 33.3973 63.9095 33.8731C65.0965 36.4621 66.1026 39.0546 66.9281 41.6507C65.419 42.3923 64.517 41.9429 64.2218 40.3026C64.0484 40.2335 63.8748 40.1642 63.7014 40.0952C62.9078 40.2291 62.1097 40.3328 61.3074 40.4063C61.1654 41.1156 60.9572 41.8071 60.6828 42.4803C60.0731 42.6414 59.4831 42.6068 58.9134 42.3766C58.8093 42.1692 58.7052 41.9618 58.6011 41.7544C59.0807 39.0536 59.7053 36.392 60.4747 33.7694C60.9959 33.6246 61.4816 33.4519 61.9319 33.2509ZM49.6496 34.4953C52.2689 33.9689 53.8649 34.9715 54.4376 37.5026C54.2434 38.4776 53.7577 39.2726 52.9804 39.8878C53.7159 40.6545 54.4097 41.4495 55.0621 42.2729C54.7224 43.1286 54.0979 43.4051 53.1886 43.1025C52.3781 42.3994 51.6841 41.6044 51.1068 40.7174C50.7792 40.4828 50.4321 40.4482 50.066 40.6137C49.9989 41.5932 49.9989 42.5956 50.066 43.621C49.6307 43.5832 49.2143 43.6525 48.8169 43.8284C48.3504 43.7181 48.0381 43.4416 47.8801 42.9988C47.6297 40.7873 47.3868 38.5751 47.1515 36.3619C47.1598 35.9618 47.2292 35.5817 47.3597 35.2212C48.1366 34.9429 48.9 34.7008 49.6496 34.4953ZM42.3635 35.5323C43.0582 36.0518 43.1275 36.6394 42.5717 37.2952C41.3957 37.4522 40.216 37.5559 39.0327 37.6063C38.9751 38.2177 39.0444 38.8053 39.2409 39.3692C40.3476 39.2852 41.4577 39.2162 42.5717 39.1618C42.7663 39.6557 42.8357 40.1742 42.7799 40.7174C41.667 40.8406 40.5566 40.9789 39.4491 41.1322C39.3914 41.7436 39.4607 42.3312 39.6573 42.8951C40.8074 42.9084 41.9524 42.8047 43.0921 42.584C43.7364 42.8999 43.9098 43.3837 43.6126 44.0358C42.0159 44.4398 40.385 44.7165 38.7205 44.8654C38.0075 44.8579 37.5911 44.5122 37.4714 43.8284C37.1525 41.481 36.9443 39.1305 36.8469 36.7767C37.0203 36.604 37.1939 36.431 37.3673 36.2582C39.0658 36.0367 40.7312 35.7947 42.3635 35.5323ZM31.1221 36.7767C32.2311 36.5019 32.7863 36.9167 32.7875 38.0211C32.5258 40.678 31.832 43.2012 30.7058 45.5913C29.1538 46.2981 28.0089 45.918 27.2709 44.4506C26.1778 42.3766 25.1717 40.2679 24.2524 38.1248C24.9652 37.3189 25.7631 37.2152 26.6464 37.8137C27.3885 39.8952 28.2905 41.9 29.3526 43.8284C29.8525 41.8674 30.1993 39.8624 30.3935 37.8137C30.447 37.3145 30.6899 36.969 31.1221 36.7767ZM19.6725 38.0211C20.0195 38.0211 20.3664 38.0211 20.7134 38.0211C20.9049 38.515 20.9049 38.9988 20.7134 39.4729C19.4946 39.8309 18.2455 40.0383 16.9663 40.0952C16.9104 40.6383 16.9798 41.1568 17.1744 41.6507C18.3541 41.7009 19.5337 41.6662 20.7134 41.547C20.9543 42.1377 20.8849 42.6562 20.5052 43.1025C19.4751 43.3203 18.4343 43.424 17.3826 43.4136C17.3484 44.0395 17.383 44.6617 17.4867 45.2802C17.5729 45.375 17.677 45.4443 17.799 45.4876C19.0331 45.2435 20.2822 45.1052 21.5461 45.0728C21.853 45.6591 21.7834 46.1776 21.3379 46.6283C19.5501 47.0108 17.7459 47.1489 15.9254 47.0431C15.6753 46.8558 15.5018 46.614 15.405 46.3172C15.1773 44.2067 14.9345 42.0982 14.6764 39.9915C14.6851 39.5835 14.7892 39.2031 14.9886 38.8507C16.5577 38.5054 18.119 38.2289 19.6725 38.0211ZM5.30852 39.4729C5.90486 39.3807 6.42529 39.519 6.86983 39.8878C7.19291 42.0242 7.47049 44.1673 7.70253 46.3172C7.78871 46.412 7.8928 46.4813 8.01479 46.5246C9.11288 46.3108 10.2231 46.1727 11.3456 46.1098C11.7388 46.8337 11.6 47.4212 10.9292 47.8727C9.53562 48.0078 8.14779 48.1805 6.76574 48.3912C6.30845 48.3191 5.9268 48.1117 5.62078 47.769C5.2703 45.0757 4.95804 42.3795 4.684 39.6803C4.95275 39.7295 5.16093 39.6604 5.30852 39.4729Z" fill="#828282"/>
<path fill-rule="evenodd" clip-rule="evenodd" d="M72.5482 33.6651C73.2456 33.6309 73.9394 33.6655 74.6299 33.7688C75.0346 34.2153 75.1387 34.7338 74.9422 35.3243C74.25 35.636 73.5214 35.8434 72.7563 35.9465C72.3818 35.1961 72.3125 34.4356 72.5482 33.6651Z" fill="#828282"/>
<path fill-rule="evenodd" clip-rule="evenodd" d="M61.9312 35.325C62.1385 35.3072 62.3119 35.3764 62.4516 35.5324C62.8332 36.4311 63.215 37.33 63.5966 38.2286C62.8815 38.6762 62.1183 38.7455 61.3066 38.436C61.595 37.4148 61.8031 36.3778 61.9312 35.325Z" fill="#828282"/>
<path fill-rule="evenodd" clip-rule="evenodd" d="M50.2749 36.1543C51.5597 36.1547 52.1497 36.7769 52.0443 38.0209C51.9402 38.4011 51.6973 38.6431 51.3157 38.7468C50.8444 38.7958 50.3933 38.8995 49.9626 39.0579C49.5683 38.2142 49.3949 37.3153 49.4422 36.3617C49.775 36.4173 50.0525 36.348 50.2749 36.1543Z" fill="#828282"/>
<path fill-rule="evenodd" clip-rule="evenodd" d="M73.1742 37.1915C73.8715 37.1572 74.5654 37.1919 75.2559 37.2952C75.8996 38.1493 75.7607 38.8405 74.8396 39.3692C74.2188 39.4725 73.5943 39.5071 72.966 39.4729C72.8873 39.0278 72.8178 38.5784 72.7578 38.1248C72.8117 37.7542 72.9504 37.443 73.1742 37.1915Z" fill="#828282"/>
<path opacity="0.93" fill-rule="evenodd" clip-rule="evenodd" d="M65.6791 44.8652C68.3023 46.378 69.6206 48.6594 69.6344 51.7095C64.7075 51.7095 59.7809 51.7095 54.854 51.7095C54.7861 49.4872 55.5495 47.5515 57.1439 45.9022C59.982 45.5156 62.8271 45.1701 65.6791 44.8652Z" fill="#828282"/>
</g>
<defs>
<clipPath id="clip0_43_5013">
<rect width="137" height="53" fill="white"/>
</clipPath>
</defs>
</svg>
