<svg width="53" height="45" viewBox="0 0 53 45" fill="none" xmlns="http://www.w3.org/2000/svg">
<path fill-rule="evenodd" clip-rule="evenodd" d="M46.178 0.579796L46.1571 1.92839L39.6484 7.0539L39.6501 7.05606L13.2567 27.8509L12.7968 28.2132L12.3437 27.8425L1.64959 19.0928L2.57303 17.9641L12.814 26.3431L43.7565 1.96419L41.8912 1.93529L40.4917 0.491699L46.178 0.579796ZM44.7582 4.89249L46.1279 3.81384L46.0899 6.26615L44.7582 4.89249ZM33.3556 17.9698H32.6265V18.6989V19.4299H34.0848V19.4281H38.8242C45.3344 19.4281 50.612 24.7057 50.612 31.2159C50.612 37.7261 45.3344 43.0037 38.8242 43.0037H34.0848V25.4821H32.6265V43.7329V44.462H33.3556H38.8242C46.1398 44.462 52.0703 38.5315 52.0703 31.2159C52.0703 23.9003 46.1398 17.9698 38.8242 17.9698H33.3556ZM25.0921 26.9083V28.4205V44.4617H23.6338V29.9327L12.9076 38.4699L12.4548 38.8303L12.001 38.4711L1.51639 30.1708V44.4617H0.0581055V28.6635V27.1563L1.23983 28.0919L12.4523 36.9684L23.9088 27.85L25.0921 26.9083Z" fill="white"/>
</svg>
