<svg width="227" height="53" viewBox="0 0 227 53" fill="none" xmlns="http://www.w3.org/2000/svg">
<path d="M220.684 26.2576V38.814H222.845H225.007V26.2576V13.7013H222.845H220.684V26.2576Z" fill="#828282"/>
<path d="M38.4869 13.8256C36.6449 13.9559 35.2708 14.5423 34.1454 15.6795C33.3873 16.4435 32.9668 17.2016 32.6944 18.3092C32.5759 18.7889 32.4574 19.861 32.4574 20.4947V20.8679H30.8879H29.3184V22.7632V24.6584H30.8879H32.4574V31.7362V38.814H34.6193H36.7811V31.7362V24.6584H38.7652H40.7494V22.7632V20.8679H38.7593H36.7693L36.7929 20.1393C36.8285 19.2687 36.9529 18.8837 37.3497 18.4454C37.6518 18.1078 37.9657 17.9124 38.4987 17.7228C38.8422 17.5985 38.9903 17.5866 39.9083 17.5807H40.9271V15.7683V13.95L40.779 13.9145C40.6368 13.8789 39.2154 13.7546 39.1502 13.7723C39.1325 13.7723 38.8363 13.796 38.4869 13.8256Z" fill="#828282"/>
<path d="M50.4506 13.8256C48.6738 13.95 47.3115 14.5127 46.1981 15.5729C44.9957 16.7219 44.4212 18.2737 44.4212 20.3644V20.8679H42.8221H41.2229V22.7632V24.6584H42.8221H44.4212V31.7362V38.814H46.583H48.7449V31.7362V24.6584H50.729H52.7132V22.7632V20.8679H50.7231H48.733L48.7567 20.1393C48.7923 19.1858 48.9166 18.8482 49.4201 18.3447C50.036 17.7347 50.8415 17.5037 52.1683 17.5748L52.8908 17.6103V15.7802V13.95L52.7428 13.9145C52.6006 13.8789 51.1791 13.7546 51.114 13.7723C51.0962 13.7723 50.8001 13.796 50.4506 13.8256Z" fill="#828282"/>
<path d="M134.282 26.4473L134.3 38.7846L138.091 38.8023C143.267 38.826 144.606 38.749 146.3 38.3107C148.781 37.6711 151.032 36.2674 152.536 34.4076C153.97 32.6367 154.829 30.5637 155.125 28.1827C155.219 27.4246 155.219 25.4464 155.131 24.7179C154.87 22.6567 154.248 20.9391 153.2 19.3577C151.322 16.5444 148.325 14.7735 144.547 14.2582C143.948 14.1753 143.06 14.1516 139.05 14.1338L134.271 14.1101L134.282 26.4473ZM144.28 18.2265C146.827 18.7181 148.746 20.1514 149.824 22.3665C150.363 23.4741 150.612 24.5757 150.659 26.0742C150.718 27.9103 150.434 29.3554 149.729 30.771C149.397 31.4343 149.066 31.8963 148.521 32.4649C147.905 33.1046 147.419 33.4659 146.643 33.8686C145.08 34.6682 143.83 34.8637 140.489 34.834L138.801 34.8163L138.784 26.4473L138.772 18.0725L141.271 18.1021C143.273 18.1258 143.877 18.1495 144.28 18.2265Z" fill="#828282"/>
<path d="M156.955 16.4259V18.7358H159.117H161.279V16.4259V14.116H159.117H156.955V16.4259Z" fill="#828282"/>
<path d="M183.903 16.4259V18.7358H186.065H188.227V16.4259V14.116H186.065H183.903V16.4259Z" fill="#828282"/>
<path d="M0.888672 26.4949V38.8203L5.70392 38.7966C10.3178 38.7789 10.5488 38.7729 11.3306 38.6426C15.6424 37.9556 18.8348 35.6871 20.5583 32.092C21.4349 30.2559 21.7843 28.4139 21.7192 26.0034C21.6777 24.4457 21.5237 23.5039 21.1091 22.2246C19.8594 18.3511 16.5545 15.4252 12.4085 14.5309C10.9278 14.211 10.9693 14.217 5.76314 14.1933L0.888672 14.1696V26.4949ZM10.7798 18.2504C12.0117 18.4695 12.8942 18.8249 13.907 19.506C15.5713 20.6136 16.6374 22.3194 17.0994 24.5878C17.2534 25.34 17.2534 27.5847 17.0935 28.4199C16.59 31.1266 15.0146 33.1877 12.7047 34.1768C12.1242 34.4256 11.5971 34.5796 10.7798 34.7336C10.2467 34.8402 9.82619 34.858 7.74728 34.8876L5.33078 34.9231V26.4949V18.0727L7.71767 18.1023C9.77881 18.126 10.1934 18.1438 10.7798 18.2504Z" fill="#828282"/>
<path d="M23.5137 16.485V18.7949H25.6755H27.8373V16.485V14.1751H25.6755H23.5137V16.485Z" fill="#828282"/>
<path d="M192.61 17.4743C192.61 18.4397 192.539 18.9491 192.344 19.3696C191.935 20.2698 191.248 20.6726 189.933 20.7851L189.471 20.8207V22.7397V24.6586H191.04H192.61V28.9408C192.61 31.5173 192.634 33.4185 192.669 33.7205C193.042 36.7649 194.961 38.6246 198.041 38.9385C198.545 38.9918 198.977 38.9918 199.788 38.9385C200.387 38.903 200.932 38.8556 201.009 38.8378L201.139 38.8023V36.9366V35.0769L200.92 35.1242C200.553 35.1953 199.303 35.1716 198.918 35.0887C197.869 34.8577 197.188 34.1529 196.999 33.1046C196.957 32.8736 196.934 31.3573 196.934 28.7039V24.6586H199.007H201.08V22.7337V20.8088H199.007H196.934V18.7358V16.6629H194.772H192.61V17.4743Z" fill="#828282"/>
<path d="M122.72 17.723C122.72 18.5403 122.697 18.795 122.608 19.0852C122.264 20.1928 121.489 20.7436 120.132 20.8502L119.641 20.8858V22.7692V24.6586H121.175H122.709L122.738 29.1422C122.762 32.9742 122.78 33.7027 122.863 34.1351C123.36 36.7234 124.841 38.287 127.328 38.8496C127.903 38.974 129.709 39.0273 130.556 38.9326L131.249 38.8615V36.9958V35.1301L131.119 35.1597C130.764 35.2486 129.929 35.2663 129.449 35.2071C128.252 35.0472 127.607 34.5852 127.228 33.6139L127.074 33.2171L127.056 28.9349L127.038 24.6586H129.117H131.19V22.7633V20.868H129.117H127.044V18.795V16.722H124.882H122.72V17.723Z" fill="#828282"/>
<path d="M170.695 20.4356C166.929 20.8324 164.02 23.5095 163.25 27.2942C163.085 28.1175 163.096 30.3918 163.28 31.1914C164.062 34.6918 166.49 37.1438 169.896 37.8664C170.725 38.0441 172.295 38.0915 173.065 37.9612C174.569 37.7184 175.682 37.1972 176.707 36.2554L177.045 35.9474L177.015 37.3689C176.985 38.8733 176.95 39.1161 176.642 39.8091C176.198 40.8101 175.155 41.6274 173.888 41.9591C173.296 42.1131 171.91 42.1486 171.317 42.0183C169.949 41.7222 168.842 40.9108 168.309 39.8269L168.054 39.3057L166.099 40.0401C165.027 40.4429 164.127 40.7982 164.103 40.8219C164.074 40.8515 164.163 41.1062 164.293 41.3905C165.383 43.7419 167.805 45.4654 170.666 45.9214C172.401 46.1998 174.297 46.0636 175.819 45.5602C176.98 45.1752 178.022 44.5533 178.887 43.7359C180.065 42.6106 180.818 41.2839 181.191 39.6551L181.321 39.0806L181.339 29.9417L181.362 20.8087H179.313H177.27V21.8215V22.8343L176.737 22.325C176.441 22.0466 176.044 21.7149 175.86 21.5846C175.025 21.022 173.959 20.6192 172.946 20.483C172.378 20.406 171.211 20.3823 170.695 20.4356ZM173.686 24.5046C173.882 24.5579 174.267 24.7119 174.545 24.8481C174.954 25.0495 175.155 25.2035 175.611 25.6654C176.091 26.1393 176.221 26.317 176.458 26.7908C176.891 27.6614 176.991 28.1234 176.991 29.2191C176.991 29.9772 176.974 30.2201 176.861 30.611C176.334 32.5418 174.93 33.7738 172.964 34.0166C170.885 34.2772 168.996 33.2999 168.095 31.4935C167.805 30.919 167.687 30.4866 167.616 29.764C167.45 28.0109 168.042 26.4709 169.286 25.4226C169.902 24.9073 170.411 24.6645 171.347 24.4453C171.785 24.3387 173.213 24.3743 173.686 24.5046Z" fill="#828282"/>
<path d="M209.371 20.4592C207.162 20.7435 205.03 21.8925 203.863 23.4265C203.52 23.8826 202.975 24.848 202.975 25.0079C202.975 25.0671 204.592 25.9023 205.859 26.5005L206.469 26.7848L206.677 26.3879C207.239 25.31 208.228 24.5341 209.431 24.2083C209.976 24.0662 211.113 24.0603 211.622 24.2024C212.664 24.4867 213.464 25.2034 213.719 26.074C213.837 26.4709 213.849 27.377 213.742 27.4126C213.701 27.4244 212.398 27.6376 210.852 27.8864C207.796 28.3721 207.275 28.4787 206.38 28.7867C204.266 29.5211 202.993 30.7116 202.465 32.447C202.311 32.9386 202.3 33.0629 202.3 33.9869C202.294 34.8635 202.311 35.053 202.43 35.4558C202.856 36.9365 203.857 38.0203 205.368 38.6363C206.209 38.9798 206.925 39.116 208.068 39.1516C210.443 39.2286 212.179 38.6363 213.689 37.2444L214.05 36.9068V37.8604V38.814H216.094H218.143L218.119 32.2219L218.102 25.6357L217.971 25.1619C217.657 24.0603 216.899 22.8757 216.035 22.1531C215.259 21.5016 214.033 20.8797 213.085 20.6606C212.025 20.4177 210.402 20.3289 209.371 20.4592ZM213.796 31.5408C213.754 32.7194 213.529 33.3709 212.89 34.1942C212.108 35.1892 211.136 35.7045 209.768 35.8467C208.412 35.9829 207.393 35.5801 206.961 34.7332C206.783 34.4015 206.765 34.3126 206.765 33.8684C206.765 33.1992 206.913 32.8142 207.322 32.3937C207.932 31.7718 208.418 31.6178 211.385 31.1084C212.67 30.8893 213.748 30.7116 213.778 30.7057C213.808 30.6997 213.814 31.0729 213.796 31.5408Z" fill="#828282"/>
<path d="M61.1829 20.5365C60.1998 20.6786 59.4535 20.9096 58.6065 21.3242C56.4743 22.3785 54.8751 24.2027 54.117 26.4356C53.7617 27.478 53.6491 28.1532 53.6195 29.4562C53.5958 30.3328 53.6136 30.777 53.6847 31.3042C54.1111 34.3426 55.882 36.9131 58.4762 38.2338C60.5907 39.3177 63.7475 39.5072 66.0811 38.6899C67.6743 38.1332 69.1373 37.0552 69.9369 35.8529C70.2685 35.3613 70.5232 34.8638 70.4758 34.8223C70.464 34.8105 69.6881 34.4314 68.7523 33.9694L67.0524 33.1402L66.8392 33.4304C65.8146 34.8578 64.3872 35.5212 62.5274 35.4205C62.1602 35.4027 61.7041 35.3435 61.5087 35.2902C60.9875 35.1599 60.1109 34.7098 59.7022 34.3662C58.8375 33.6496 58.2393 32.5361 58.0675 31.3338L58.032 31.0554H64.5175H71.003L71.0681 30.8599C71.2458 30.3328 71.2991 29.1483 71.1866 28.1651C71.0622 27.016 70.8193 26.1335 70.3514 25.1385C69.9369 24.2442 69.4749 23.5927 68.7641 22.8819C67.5381 21.65 66.1996 20.9452 64.4701 20.6253C63.6291 20.4654 61.9884 20.424 61.1829 20.5365ZM63.6409 24.1079C63.8364 24.1553 64.2213 24.3034 64.4938 24.4337C65.1453 24.7417 65.8442 25.4228 66.1759 26.0625C66.4009 26.4948 66.6319 27.2589 66.6319 27.5728V27.7386H62.3971C59.0448 27.7386 58.1623 27.7209 58.1623 27.6616C58.1623 27.4721 58.4229 26.7199 58.6421 26.2757C59.5068 24.5285 61.6153 23.6104 63.6409 24.1079Z" fill="#828282"/>
<path d="M90.9746 20.5188C87.5038 20.963 84.5661 23.5276 83.6362 26.9273C83.2098 28.4969 83.1624 30.5817 83.5178 32.1216C83.9383 33.9399 84.6964 35.3259 85.9639 36.5993C87.338 37.9674 88.795 38.7315 90.6784 39.0572C91.8215 39.2586 93.5865 39.2231 94.7356 38.9862C95.6773 38.7907 96.8441 38.2991 97.7266 37.7187C98.3959 37.2863 99.462 36.1847 99.8469 35.5332C100.013 35.2429 100.155 34.9586 100.155 34.9053C100.155 34.8343 99.6515 34.5618 98.4373 33.9695L96.7197 33.1344L96.5302 33.4128C95.5648 34.8283 94.0663 35.5213 92.2006 35.4206C89.8256 35.2962 88.1198 33.7149 87.7466 31.3102L87.7052 31.0555L94.2084 31.0437L100.712 31.0259L100.789 30.7298C100.907 30.2915 100.955 28.8108 100.872 28.1178C100.54 25.417 99.2724 23.2315 97.2468 21.8811C96.0682 21.0874 95.1265 20.7439 93.5806 20.5366C92.9054 20.4478 91.5965 20.4359 90.9746 20.5188ZM92.6981 24.0015C94.5934 24.2028 96.009 25.5414 96.2933 27.3952L96.3466 27.7387H92.0881C88.4929 27.7387 87.8355 27.7269 87.8355 27.6558C87.8355 27.4604 88.102 26.7259 88.3449 26.258C89.0023 24.9787 90.2046 24.1614 91.6498 24.0074C91.8808 23.9837 92.0999 23.96 92.1295 23.96C92.1651 23.9541 92.4197 23.9718 92.6981 24.0015Z" fill="#828282"/>
<path d="M110.786 20.5362C109.074 20.8264 107.766 21.5964 107.049 22.7276C106.954 22.8757 106.859 23.0001 106.836 23.0001C106.806 23.0001 106.788 22.5203 106.788 21.934V20.8679H104.774H102.761V29.8409V38.814H104.923H107.084V33.211C107.084 26.992 107.073 27.1816 107.481 26.3287C107.754 25.7482 108.364 25.1027 108.909 24.8184C109.566 24.4748 109.915 24.3919 110.757 24.3978C111.384 24.4038 111.568 24.4275 111.959 24.5518C113.149 24.9487 113.967 25.843 114.287 27.1164C114.381 27.4955 114.393 28.0167 114.411 33.1695L114.435 38.814H116.567H118.693V32.8142C118.693 29.1361 118.669 26.613 118.634 26.2872C118.545 25.5054 118.314 24.7118 117.982 24.0306C117.094 22.1946 115.595 21.0633 113.451 20.5954C112.877 20.4651 111.384 20.4355 110.786 20.5362Z" fill="#828282"/>
<path d="M81.1133 20.702C80.1005 20.7968 78.9811 21.2055 78.377 21.6911C78.0216 21.9754 77.5951 22.5203 77.3286 23.0297L77.145 23.385L77.1272 22.1235L77.1154 20.8679H75.1016H73.0879V29.8409V38.814H75.2142H77.3464L77.3701 33.3768C77.3879 28.0048 77.3879 27.9397 77.5182 27.4481C77.8261 26.2872 78.531 25.3692 79.4904 24.9072C80.2663 24.5222 80.5388 24.4689 81.8714 24.4393L83.0382 24.4097V22.5203V20.6309L82.3452 20.6369C81.9603 20.6428 81.4094 20.6724 81.1133 20.702Z" fill="#828282"/>
<path d="M156.955 29.8113V38.814H159.117H161.279V29.8113V20.8086H159.117H156.955V29.8113Z" fill="#828282"/>
<path d="M183.915 29.7935L183.933 38.7844L186.083 38.8021L188.227 38.814V29.8113V20.8086H186.065H183.903L183.915 29.7935Z" fill="#828282"/>
<path d="M23.5137 29.8409V38.814H25.6755H27.8373V29.8409V20.8679H25.6755H23.5137V29.8409Z" fill="#828282"/>
</svg>
