<svg width="211" height="22" viewBox="0 0 211 22" fill="none" xmlns="http://www.w3.org/2000/svg">
<path d="M11.0859 21H0.619324V20.1639H3.09662V3.25636H0.619324V2.42027H16.1024L16.2263 8.52062H15.3283L14.647 6.22912C14.647 6.20847 14.6367 6.18783 14.6161 6.16718C14.0174 4.22663 12.789 3.25636 10.9311 3.25636H7.43189V10.9669H13.3774V11.8959H7.43189V20.1639H11.0859V21ZM25.0207 20.1949C25.1446 20.1949 25.2581 20.2052 25.3613 20.2258C25.6297 20.2671 25.7639 20.5252 25.7639 21H17.0005V20.1949C17.2688 20.1949 17.5062 20.1742 17.7127 20.1329C18.4352 20.0091 18.7965 19.493 18.7965 18.5846V8.48965H17.0005V7.68453H22.4195L22.6363 10.5644C22.8634 9.98635 23.1937 9.4496 23.6272 8.95414C24.5975 7.94258 25.7226 7.4368 27.0025 7.4368C27.2709 7.4368 27.529 7.46776 27.7767 7.5297C28.7883 7.79807 29.294 8.44836 29.294 9.48057C29.294 9.76959 29.2321 10.0483 29.1082 10.3167C28.7573 11.1011 28.1689 11.4934 27.3432 11.4934C27.0954 11.4934 26.8684 11.4624 26.6619 11.4005C26.2284 11.2353 25.8258 10.8224 25.4542 10.1618C25.1859 9.68701 24.9381 9.4496 24.711 9.4496C24.5872 9.4496 24.453 9.48057 24.3085 9.5425C23.4001 10.0173 22.8737 11.3385 22.7292 13.5062V20.1949H25.0207ZM37.3143 8.02516C35.6628 8.08709 34.7647 9.83152 34.6202 13.2584L36.6021 13.3513C37.4278 13.3926 38.0472 13.341 38.46 13.1965C39.0381 12.9694 39.3271 12.3707 39.3271 11.4005C39.3064 9.19155 38.6355 8.06645 37.3143 8.02516ZM43.105 17.8105C42.9811 18.1408 42.8159 18.4608 42.6095 18.7704C41.5567 20.4633 39.8225 21.3097 37.4072 21.3097C36.0447 21.3097 34.8267 21.031 33.7532 20.4736C31.503 19.2969 30.3779 17.2118 30.3779 14.2184C30.3779 12.3811 30.8733 10.8431 31.8642 9.60443C33.1648 8.01483 34.9815 7.22004 37.3143 7.22004C38.5942 7.22004 39.74 7.4368 40.7515 7.87033C42.5476 8.67545 43.4456 9.95538 43.4456 11.7101C43.4456 12.0611 43.3837 12.3811 43.2598 12.6701C42.7231 13.8262 40.7928 14.3526 37.4691 14.2494L34.6202 14.1565C34.6409 15.3538 34.7441 16.386 34.9299 17.2531C35.4047 19.3588 36.4679 20.4116 38.1194 20.4116C38.6355 20.4116 39.1413 20.3187 39.6368 20.1329C40.8754 19.6788 41.7837 18.822 42.3618 17.5628L43.105 17.8105ZM52.0542 8.02516C50.4027 8.08709 49.5047 9.83152 49.3601 13.2584L51.342 13.3513C52.1677 13.3926 52.7871 13.341 53.2 13.1965C53.778 12.9694 54.067 12.3707 54.067 11.4005C54.0464 9.19155 53.3754 8.06645 52.0542 8.02516ZM57.8449 17.8105C57.721 18.1408 57.5559 18.4608 57.3494 18.7704C56.2966 20.4633 54.5625 21.3097 52.1471 21.3097C50.7846 21.3097 49.5666 21.031 48.4931 20.4736C46.2429 19.2969 45.1178 17.2118 45.1178 14.2184C45.1178 12.3811 45.6132 10.8431 46.6042 9.60443C47.9047 8.01483 49.7214 7.22004 52.0542 7.22004C53.3341 7.22004 54.4799 7.4368 55.4915 7.87033C57.2875 8.67545 58.1855 9.95538 58.1855 11.7101C58.1855 12.0611 58.1236 12.3811 57.9997 12.6701C57.463 13.8262 55.5327 14.3526 52.209 14.2494L49.3601 14.1565C49.3808 15.3538 49.484 16.386 49.6698 17.2531C50.1446 19.3588 51.2078 20.4116 52.8593 20.4116C53.3754 20.4116 53.8812 20.3187 54.3767 20.1329C55.6153 19.6788 56.5237 18.822 57.1017 17.5628L57.8449 17.8105ZM67.2896 20.1949C67.4134 20.1949 67.527 20.2052 67.6302 20.2258C67.8986 20.2671 68.0328 20.5252 68.0328 21H59.3932V20.1949C59.9712 20.1949 60.4357 20.1536 60.7867 20.071C61.4679 19.8852 61.8086 19.3691 61.8086 18.5227V1.67708H59.3932V0.871962H65.7413V20.1949H67.2896ZM80.6051 21.3097C78.9535 21.2064 77.911 20.2671 77.4775 18.4917C77.3742 18.7808 77.2401 19.0595 77.0749 19.3278C76.2491 20.649 74.9589 21.3097 73.2041 21.3097C72.6261 21.3097 72.0997 21.2374 71.6249 21.0929C70.0146 20.5768 69.2095 19.4001 69.2095 17.5628C69.2301 14.8584 71.8932 13.4546 77.1988 13.3513V11.3385C77.1988 10.7399 77.1575 10.2238 77.0749 9.79023C76.8685 8.61351 76.2801 8.02516 75.3098 8.02516C75.0208 8.02516 74.7628 8.07677 74.5357 8.17999C74.1847 8.38643 73.8957 8.90253 73.6686 9.7283C73.586 10.0173 73.5241 10.2238 73.4828 10.3476C73.1732 11.2147 72.5745 11.6482 71.6868 11.6482C71.4803 11.6482 71.2842 11.6172 71.0984 11.5553C70.3346 11.3489 69.9527 10.8431 69.9527 10.038C69.9527 9.68701 70.0456 9.3567 70.2314 9.04704C70.9539 7.82904 72.719 7.22004 75.5266 7.22004C76.2491 7.22004 76.9201 7.29229 77.5394 7.4368C79.9341 8.03548 81.1315 9.62508 81.1315 12.2056V18.6775C81.1315 19.6685 81.3586 20.1846 81.8127 20.2258C82.4114 20.2052 82.7727 19.4827 82.8966 18.0582L83.7017 18.0892C83.6397 18.7291 83.5468 19.2556 83.423 19.6685C83.0514 20.7626 82.1121 21.3097 80.6051 21.3097ZM74.8144 19.9781C74.9589 19.9781 75.124 19.9471 75.3098 19.8852C76.1769 19.5549 76.8065 18.6672 77.1988 17.2221V14.2184C76.2698 14.2597 75.506 14.3732 74.9073 14.559C73.7925 14.9719 73.2351 15.8596 73.2351 17.2221C73.2557 19.0182 73.7822 19.9368 74.8144 19.9781ZM90.9787 20.1949C91.1026 20.1949 91.2161 20.2052 91.3194 20.2258C91.5877 20.2671 91.7219 20.5252 91.7219 21H84.4758V20.1949C84.641 20.1949 84.7958 20.1846 84.9403 20.1639C85.828 20.0607 86.2719 19.5343 86.2719 18.5846V8.48965H84.4758V7.68453H89.9878L90.1426 10.0999C90.3284 9.7283 90.5762 9.36703 90.8858 9.01608C91.9387 7.81872 93.2186 7.22004 94.7256 7.22004C95.2624 7.22004 95.7785 7.30261 96.274 7.46776C98.0906 8.10773 98.999 9.70765 98.999 12.2675V20.1949H100.021C100.145 20.1949 100.269 20.2052 100.392 20.2258C100.661 20.2671 100.795 20.5252 100.795 21H93.6418V20.1949C93.9308 20.1949 94.1786 20.1639 94.385 20.102C94.8392 19.9575 95.0663 19.4517 95.0663 18.5846V11.7411C95.0663 11.4521 95.0456 11.1734 95.0043 10.905C94.7979 9.52186 94.1063 8.83028 92.9296 8.83028C92.6199 8.83028 92.3206 8.90253 92.0316 9.04704C90.9787 9.56315 90.3801 10.6366 90.2355 12.2675L90.2046 20.1949H90.9787ZM102.189 14.3113C102.189 12.2882 102.798 10.6366 104.016 9.3567C105.378 7.93226 107.153 7.22004 109.342 7.22004C110.952 7.22004 112.294 7.54002 113.367 8.17999C114.461 8.86124 115.009 9.65604 115.009 10.5644C115.009 10.7295 114.988 10.8947 114.947 11.0598C114.699 11.8443 114.049 12.2366 112.996 12.2366C112.5 12.2366 112.108 12.1333 111.819 11.9269C111.447 11.6585 111.2 11.0495 111.076 10.0999C111.014 9.70765 110.962 9.42896 110.921 9.26381C110.715 8.4174 110.157 7.99419 109.249 7.99419C108.795 7.99419 108.402 8.08709 108.072 8.27289C106.978 8.9335 106.431 10.9979 106.431 14.4661C106.431 16.2002 106.606 17.5421 106.957 18.4917C107.432 19.7717 108.382 20.4116 109.806 20.4116C110.343 20.4116 110.88 20.3291 111.416 20.1639C112.8 19.7304 113.78 18.8943 114.358 17.6556L115.163 17.8724C114.957 18.4092 114.658 18.9046 114.265 19.3588C113.109 20.6594 111.458 21.3097 109.311 21.3097C107.928 21.3097 106.699 21.0516 105.626 20.5355C103.334 19.4001 102.189 17.3253 102.189 14.3113ZM123.184 8.02516C121.532 8.08709 120.634 9.83152 120.49 13.2584L122.471 13.3513C123.297 13.3926 123.916 13.341 124.329 13.1965C124.907 12.9694 125.196 12.3707 125.196 11.4005C125.176 9.19155 124.505 8.06645 123.184 8.02516ZM128.974 17.8105C128.85 18.1408 128.685 18.4608 128.479 18.7704C127.426 20.4633 125.692 21.3097 123.276 21.3097C121.914 21.3097 120.696 21.031 119.622 20.4736C117.372 19.2969 116.247 17.2118 116.247 14.2184C116.247 12.3811 116.743 10.8431 117.734 9.60443C119.034 8.01483 120.851 7.22004 123.184 7.22004C124.464 7.22004 125.609 7.4368 126.621 7.87033C128.417 8.67545 129.315 9.95538 129.315 11.7101C129.315 12.0611 129.253 12.3811 129.129 12.6701C128.592 13.8262 126.662 14.3526 123.338 14.2494L120.49 14.1565C120.51 15.3538 120.613 16.386 120.799 17.2531C121.274 19.3588 122.337 20.4116 123.989 20.4116C124.505 20.4116 125.011 20.3187 125.506 20.1329C126.745 19.6788 127.653 18.822 128.231 17.5628L128.974 17.8105ZM146.006 21H136.716V20.1639H139.193V3.25636H136.716V2.42027H147.059C148.71 2.42027 150.114 2.81251 151.27 3.59699C152.632 4.52597 153.314 5.7543 153.314 7.28197C153.314 7.73614 153.252 8.17999 153.128 8.61351C152.632 10.3683 151.301 11.545 149.133 12.1437L153.902 20.1949H154.305C154.408 20.1949 154.511 20.2052 154.614 20.2258C154.945 20.2878 155.11 20.5458 155.11 21L149.66 21.031L145.046 12.5153H143.528V20.1639H146.006V21ZM145.201 3.25636H143.528V11.5863H145.448C146.068 11.5863 146.615 11.4314 147.09 11.1218C148.163 10.4405 148.7 9.21219 148.7 7.4368C148.7 6.85876 148.628 6.30137 148.483 5.76462C147.988 4.09245 146.893 3.25636 145.201 3.25636ZM162.975 8.02516C161.324 8.08709 160.426 9.83152 160.281 13.2584L162.263 13.3513C163.089 13.3926 163.708 13.341 164.121 13.1965C164.699 12.9694 164.988 12.3707 164.988 11.4005C164.967 9.19155 164.296 8.06645 162.975 8.02516ZM168.766 17.8105C168.642 18.1408 168.477 18.4608 168.27 18.7704C167.218 20.4633 165.483 21.3097 163.068 21.3097C161.706 21.3097 160.488 21.031 159.414 20.4736C157.164 19.2969 156.039 17.2118 156.039 14.2184C156.039 12.3811 156.534 10.8431 157.525 9.60443C158.826 8.01483 160.642 7.22004 162.975 7.22004C164.255 7.22004 165.401 7.4368 166.412 7.87033C168.208 8.67545 169.106 9.95538 169.106 11.7101C169.106 12.0611 169.045 12.3811 168.921 12.6701C168.384 13.8262 166.454 14.3526 163.13 14.2494L160.281 14.1565C160.302 15.3538 160.405 16.386 160.591 17.2531C161.066 19.3588 162.129 20.4116 163.78 20.4116C164.296 20.4116 164.802 20.3187 165.298 20.1329C166.536 19.6788 167.445 18.822 168.023 17.5628L168.766 17.8105ZM179.728 21.3097C177.87 21.289 176.394 20.4633 175.3 18.8324L175.052 21H170.314V20.1639C170.583 20.1639 170.83 20.1433 171.057 20.102C171.739 19.9575 172.079 19.4414 172.079 18.5537V1.70805H170.314V0.871962H176.012V10.3786C177.085 8.29353 178.685 7.24068 180.812 7.22004C181.865 7.22004 182.825 7.51938 183.692 8.11806C185.364 9.29477 186.2 11.225 186.2 13.9087C186.2 15.9732 185.663 17.6763 184.59 19.0182C183.372 20.5458 181.751 21.3097 179.728 21.3097ZM179.294 8.70641C178.758 8.70641 178.262 8.88189 177.808 9.23284C176.611 10.2031 176.012 12.1024 176.012 14.9306C176.012 16.0248 176.126 16.9847 176.353 17.8105C176.827 19.5859 177.736 20.4736 179.078 20.4736C180.977 20.4529 181.937 18.4092 181.957 14.3423C181.957 10.6263 181.07 8.7477 179.294 8.70641ZM194.932 8.02516C193.281 8.08709 192.383 9.83152 192.238 13.2584L194.22 13.3513C195.046 13.3926 195.665 13.341 196.078 13.1965C196.656 12.9694 196.945 12.3707 196.945 11.4005C196.924 9.19155 196.254 8.06645 194.932 8.02516ZM200.723 17.8105C200.599 18.1408 200.434 18.4608 200.228 18.7704C199.175 20.4633 197.441 21.3097 195.025 21.3097C193.663 21.3097 192.445 21.031 191.371 20.4736C189.121 19.2969 187.996 17.2118 187.996 14.2184C187.996 12.3811 188.491 10.8431 189.482 9.60443C190.783 8.01483 192.6 7.22004 194.932 7.22004C196.212 7.22004 197.358 7.4368 198.37 7.87033C200.166 8.67545 201.064 9.95538 201.064 11.7101C201.064 12.0611 201.002 12.3811 200.878 12.6701C200.341 13.8262 198.411 14.3526 195.087 14.2494L192.238 14.1565C192.259 15.3538 192.362 16.386 192.548 17.2531C193.023 19.3588 194.086 20.4116 195.737 20.4116C196.254 20.4116 196.759 20.3187 197.255 20.1329C198.493 19.6788 199.402 18.822 199.98 17.5628L200.723 17.8105ZM210.168 20.1949C210.292 20.1949 210.405 20.2052 210.508 20.2258C210.777 20.2671 210.911 20.5252 210.911 21H202.271V20.1949C202.849 20.1949 203.314 20.1536 203.665 20.071C204.346 19.8852 204.687 19.3691 204.687 18.5227V1.67708H202.271V0.871962H208.619V20.1949H210.168Z" fill="#828282"/>
</svg>
