<svg width="56" height="56" viewBox="0 0 56 56" fill="none" xmlns="http://www.w3.org/2000/svg">
<g clip-path="url(#clip0_43_5144)">
<path d="M50.4321 38.2008V38.6513H50.8827H52.0091C52.3078 38.6513 52.5944 38.77 52.8056 38.9813C53.0169 39.1925 53.1355 39.479 53.1355 39.7778C53.1355 40.0765 53.0169 40.363 52.8056 40.5743C52.5944 40.7855 52.3078 40.9042 52.0091 40.9042H29.2551H26.1011H3.34703C3.04828 40.9042 2.76177 40.7855 2.55052 40.5743C2.33927 40.363 2.22059 40.0765 2.22059 39.7778C2.22059 39.479 2.33927 39.1925 2.55052 38.9813C2.76177 38.77 3.04828 38.6513 3.34703 38.6513H4.47347H4.92404V38.2008V6.66054H50.4321V38.2008Z" fill="#393839" stroke="#646462" stroke-width="0.901149"/>
<path d="M3.1218 2.38002H52.2344C52.9514 2.38002 53.6391 2.66484 54.1461 3.17184C54.6531 3.67884 54.9379 4.36647 54.9379 5.08347C54.9379 5.80046 54.6531 6.4881 54.1461 6.99509C53.6391 7.50209 52.9514 7.78691 52.2344 7.78691H3.1218C2.4048 7.78691 1.71716 7.50209 1.21017 6.99509C0.703175 6.4881 0.418348 5.80047 0.418348 5.08347C0.418348 4.36647 0.703175 3.67883 1.21017 3.17184C1.71716 2.66484 2.4048 2.38002 3.1218 2.38002Z" fill="white"/>
<path d="M3.1218 2.38002H52.2344C52.9514 2.38002 53.6391 2.66484 54.1461 3.17184C54.6531 3.67884 54.9379 4.36647 54.9379 5.08347C54.9379 5.80046 54.6531 6.4881 54.1461 6.99509C53.6391 7.50209 52.9514 7.78691 52.2344 7.78691H3.1218C2.4048 7.78691 1.71716 7.50209 1.21017 6.99509C0.703175 6.4881 0.418348 5.80047 0.418348 5.08347C0.418348 4.36647 0.703175 3.67883 1.21017 3.17184C1.71716 2.66484 2.4048 2.38002 3.1218 2.38002Z" fill="url(#paint0_linear_43_5144)"/>
<path d="M3.1218 2.38002H52.2344C52.9514 2.38002 53.6391 2.66484 54.1461 3.17184C54.6531 3.67884 54.9379 4.36647 54.9379 5.08347C54.9379 5.80046 54.6531 6.4881 54.1461 6.99509C53.6391 7.50209 52.9514 7.78691 52.2344 7.78691H3.1218C2.4048 7.78691 1.71716 7.50209 1.21017 6.99509C0.703175 6.4881 0.418348 5.80047 0.418348 5.08347C0.418348 4.36647 0.703175 3.67883 1.21017 3.17184C1.71716 2.66484 2.4048 2.38002 3.1218 2.38002Z" stroke="#646462" stroke-width="0.901149"/>
<rect x="2.22059" y="38.2006" width="51.3655" height="2.70345" rx="1.35172" fill="#D9D9D9"/>
<rect x="2.22059" y="38.2006" width="51.3655" height="2.70345" rx="1.35172" fill="url(#paint1_linear_43_5144)"/>
<rect x="2.22059" y="38.2006" width="51.3655" height="2.70345" rx="1.35172" stroke="#646462" stroke-width="0.901149"/>
<g clip-path="url(#clip1_43_5144)">
<path d="M26.2505 44.7532L26.5508 44.647V44.3284V41.3546H28.8037V44.3284V44.647L29.1041 44.7532C30.0561 45.0898 30.8585 45.7521 31.3694 46.623C31.8803 47.494 32.0669 48.5175 31.8961 49.5127C31.7254 50.5079 31.2083 51.4107 30.4363 52.0615C29.6643 52.7123 28.687 53.0693 27.6773 53.0693C26.6675 53.0693 25.6903 52.7123 24.9183 52.0615C24.1463 51.4107 23.6292 50.5079 23.4585 49.5127C23.2877 48.5175 23.4743 47.494 23.9852 46.623C24.4961 45.7521 25.2985 45.0898 26.2505 44.7532ZM27.6773 50.8167L27.6778 50.8167C28.2152 50.816 28.7305 50.6023 29.1105 50.2223C29.4905 49.8423 29.7043 49.327 29.7049 48.7896V48.7891C29.7049 48.3881 29.586 47.996 29.3632 47.6626C29.1404 47.3292 28.8237 47.0693 28.4532 46.9158C28.0827 46.7624 27.675 46.7222 27.2817 46.8004C26.8884 46.8787 26.5271 47.0718 26.2436 47.3554C25.96 47.6389 25.7669 48.0002 25.6887 48.3935C25.6104 48.7868 25.6506 49.1945 25.804 49.565C25.9575 49.9355 26.2174 50.2522 26.5508 50.4749C26.8843 50.6977 27.2763 50.8167 27.6773 50.8167Z" fill="black"/>
<path d="M26.2505 44.7532L26.5508 44.647V44.3284V41.3546H28.8037V44.3284V44.647L29.1041 44.7532C30.0561 45.0898 30.8585 45.7521 31.3694 46.623C31.8803 47.494 32.0669 48.5175 31.8961 49.5127C31.7254 50.5079 31.2083 51.4107 30.4363 52.0615C29.6643 52.7123 28.687 53.0693 27.6773 53.0693C26.6675 53.0693 25.6903 52.7123 24.9183 52.0615C24.1463 51.4107 23.6292 50.5079 23.4585 49.5127C23.2877 48.5175 23.4743 47.494 23.9852 46.623C24.4961 45.7521 25.2985 45.0898 26.2505 44.7532ZM27.6773 50.8167L27.6778 50.8167C28.2152 50.816 28.7305 50.6023 29.1105 50.2223C29.4905 49.8423 29.7043 49.327 29.7049 48.7896V48.7891C29.7049 48.3881 29.586 47.996 29.3632 47.6626C29.1404 47.3292 28.8237 47.0693 28.4532 46.9158C28.0827 46.7624 27.675 46.7222 27.2817 46.8004C26.8884 46.8787 26.5271 47.0718 26.2436 47.3554C25.96 47.6389 25.7669 48.0002 25.6887 48.3935C25.6104 48.7868 25.6506 49.1945 25.804 49.565C25.9575 49.9355 26.2174 50.2522 26.5508 50.4749C26.8843 50.6977 27.2763 50.8167 27.6773 50.8167Z" fill="url(#paint2_linear_43_5144)"/>
<path d="M26.2505 44.7532L26.5508 44.647V44.3284V41.3546H28.8037V44.3284V44.647L29.1041 44.7532C30.0561 45.0898 30.8585 45.7521 31.3694 46.623C31.8803 47.494 32.0669 48.5175 31.8961 49.5127C31.7254 50.5079 31.2083 51.4107 30.4363 52.0615C29.6643 52.7123 28.687 53.0693 27.6773 53.0693C26.6675 53.0693 25.6903 52.7123 24.9183 52.0615C24.1463 51.4107 23.6292 50.5079 23.4585 49.5127C23.2877 48.5175 23.4743 47.494 23.9852 46.623C24.4961 45.7521 25.2985 45.0898 26.2505 44.7532ZM27.6773 50.8167L27.6778 50.8167C28.2152 50.816 28.7305 50.6023 29.1105 50.2223C29.4905 49.8423 29.7043 49.327 29.7049 48.7896V48.7891C29.7049 48.3881 29.586 47.996 29.3632 47.6626C29.1404 47.3292 28.8237 47.0693 28.4532 46.9158C28.0827 46.7624 27.675 46.7222 27.2817 46.8004C26.8884 46.8787 26.5271 47.0718 26.2436 47.3554C25.96 47.6389 25.7669 48.0002 25.6887 48.3935C25.6104 48.7868 25.6506 49.1945 25.804 49.565C25.9575 49.9355 26.2174 50.2522 26.5508 50.4749C26.8843 50.6977 27.2763 50.8167 27.6773 50.8167Z" stroke="#646462" stroke-width="0.901149"/>
</g>
<g clip-path="url(#clip2_43_5144)">
<g filter="url(#filter0_f_43_5144)">
<ellipse cx="22.5" cy="16.5" rx="22.5" ry="16.5" transform="matrix(-1 0 0 1 50 18)" fill="#595959"/>
</g>
<path d="M7.81671 13.8696H24.4061C24.8338 13.8696 25.244 13.7034 25.5465 13.4077C25.849 13.112 26.0189 12.7108 26.0189 12.2926C26.0189 11.8743 25.849 11.4732 25.5465 11.1775C25.244 10.8817 24.8338 10.7156 24.4061 10.7156H7.81671C7.38896 10.7156 6.97872 10.8817 6.67625 11.1775C6.37378 11.4732 6.20386 11.8743 6.20386 12.2926C6.20386 12.7108 6.37378 13.112 6.67625 13.4077C6.97872 13.7034 7.38896 13.8696 7.81671 13.8696Z" fill="white"/>
<path d="M7.81671 20.1777H24.4061C24.8338 20.1777 25.244 20.0116 25.5465 19.7158C25.849 19.4201 26.0189 19.0189 26.0189 18.6007C26.0189 18.1824 25.849 17.7813 25.5465 17.4856C25.244 17.1898 24.8338 17.0237 24.4061 17.0237H7.81671C7.38896 17.0237 6.97872 17.1898 6.67625 17.4856C6.37378 17.7813 6.20386 18.1824 6.20386 18.6007C6.20386 19.0189 6.37378 19.4201 6.67625 19.7158C6.97872 20.0116 7.38896 20.1777 7.81671 20.1777Z" fill="white"/>
<path d="M18.6459 24.9086C18.6456 24.4904 18.4756 24.0894 18.1732 23.7937C17.8708 23.498 17.4607 23.3318 17.033 23.3315H7.81671C7.38896 23.3315 6.97872 23.4977 6.67625 23.7934C6.37378 24.0892 6.20386 24.4903 6.20386 24.9086C6.20386 25.3268 6.37378 25.7279 6.67625 26.0237C6.97872 26.3194 7.38896 26.4856 7.81671 26.4856H17.033C17.4607 26.4853 17.8708 26.3191 18.1732 26.0234C18.4756 25.7277 18.6456 25.3267 18.6459 24.9086Z" fill="white"/>
<path d="M45.6038 20.6282H40.0741C39.6463 20.6282 39.2361 20.7943 38.9336 21.0901C38.6311 21.3858 38.4612 21.7869 38.4612 22.2052C38.4612 22.6234 38.6311 23.0246 38.9336 23.3203C39.2361 23.616 39.6463 23.7822 40.0741 23.7822H41.71L34.653 30.6832L31.1748 26.6028C31.038 26.4423 30.87 26.3099 30.6805 26.2134C30.491 26.1169 30.2838 26.0582 30.0709 26.0407C29.858 26.0232 29.6436 26.0472 29.4403 26.1114C29.2369 26.1755 29.0487 26.2786 28.8864 26.4145L22.435 31.8214C22.1101 32.0936 21.9092 32.4808 21.8763 32.8979C21.8435 33.315 21.9815 33.7278 22.2599 34.0454C22.5383 34.363 22.9343 34.5595 23.3609 34.5916C23.7875 34.6237 24.2096 34.4888 24.5345 34.2166L29.7444 29.8496L33.3056 34.0283C33.4489 34.1967 33.6266 34.3341 33.8273 34.4316C34.028 34.5291 34.2473 34.5846 34.4712 34.5945C34.695 34.6044 34.9186 34.5686 35.1275 34.4892C35.3364 34.4099 35.526 34.2888 35.6843 34.1337L43.991 26.0125V27.6121C43.991 28.0303 44.1609 28.4315 44.4634 28.7272C44.7658 29.0229 45.1761 29.1891 45.6038 29.1891C46.0316 29.1891 46.4418 29.0229 46.7443 28.7272C47.0468 28.4315 47.2167 28.0303 47.2167 27.6121V22.2052C47.2164 21.787 47.0464 21.386 46.744 21.0903C46.4416 20.7946 46.0315 20.6284 45.6038 20.6282Z" fill="black"/>
<path d="M45.6038 20.6282H40.0741C39.6463 20.6282 39.2361 20.7943 38.9336 21.0901C38.6311 21.3858 38.4612 21.7869 38.4612 22.2052C38.4612 22.6234 38.6311 23.0246 38.9336 23.3203C39.2361 23.616 39.6463 23.7822 40.0741 23.7822H41.71L34.653 30.6832L31.1748 26.6028C31.038 26.4423 30.87 26.3099 30.6805 26.2134C30.491 26.1169 30.2838 26.0582 30.0709 26.0407C29.858 26.0232 29.6436 26.0472 29.4403 26.1114C29.2369 26.1755 29.0487 26.2786 28.8864 26.4145L22.435 31.8214C22.1101 32.0936 21.9092 32.4808 21.8763 32.8979C21.8435 33.315 21.9815 33.7278 22.2599 34.0454C22.5383 34.363 22.9343 34.5595 23.3609 34.5916C23.7875 34.6237 24.2096 34.4888 24.5345 34.2166L29.7444 29.8496L33.3056 34.0283C33.4489 34.1967 33.6266 34.3341 33.8273 34.4316C34.028 34.5291 34.2473 34.5846 34.4712 34.5945C34.695 34.6044 34.9186 34.5686 35.1275 34.4892C35.3364 34.4099 35.526 34.2888 35.6843 34.1337L43.991 26.0125V27.6121C43.991 28.0303 44.1609 28.4315 44.4634 28.7272C44.7658 29.0229 45.1761 29.1891 45.6038 29.1891C46.0316 29.1891 46.4418 29.0229 46.7443 28.7272C47.0468 28.4315 47.2167 28.0303 47.2167 27.6121V22.2052C47.2164 21.787 47.0464 21.386 46.744 21.0903C46.4416 20.7946 46.0315 20.6284 45.6038 20.6282Z" fill="white"/>
</g>
</g>
<defs>
<filter id="filter0_f_43_5144" x="-20" y="-7" width="95" height="83" filterUnits="userSpaceOnUse" color-interpolation-filters="sRGB">
<feFlood flood-opacity="0" result="BackgroundImageFix"/>
<feBlend mode="normal" in="SourceGraphic" in2="BackgroundImageFix" result="shape"/>
<feGaussianBlur stdDeviation="12.5" result="effect1_foregroundBlur_43_5144"/>
</filter>
<linearGradient id="paint0_linear_43_5144" x1="0.643637" y1="4.4076" x2="2.61175" y2="16.6807" gradientUnits="userSpaceOnUse">
<stop stop-color="#BD8804"/>
<stop offset="1" stop-color="#F7C28B"/>
</linearGradient>
<linearGradient id="paint1_linear_43_5144" x1="2.40742" y1="39.1661" x2="3.09984" y2="46.2924" gradientUnits="userSpaceOnUse">
<stop stop-color="#BD8804"/>
<stop offset="1" stop-color="#F7C28B"/>
</linearGradient>
<linearGradient id="paint2_linear_43_5144" x1="0.643627" y1="18.7775" x2="53.9536" y2="55.4238" gradientUnits="userSpaceOnUse">
<stop stop-color="#BD8804"/>
<stop offset="1" stop-color="#F7C28B"/>
</linearGradient>
<clipPath id="clip0_43_5144">
<rect width="56" height="56" fill="white"/>
</clipPath>
<clipPath id="clip1_43_5144">
<rect width="12.6161" height="13.5172" fill="white" transform="translate(21.5955 40.4536)"/>
</clipPath>
<clipPath id="clip2_43_5144">
<rect width="45" height="29" fill="white" transform="translate(5 9)"/>
</clipPath>
</defs>
</svg>
