<svg width="56" height="56" viewBox="0 0 56 56" fill="none" xmlns="http://www.w3.org/2000/svg">
<path d="M8.90356 12.1293L8.87257 12.135C8.84083 12.006 8.838 11.8711 8.86483 11.7401C8.89879 11.5743 8.97887 11.4215 9.09585 11.2993C9.21284 11.177 9.36198 11.0902 9.52609 11.049C9.68746 11.0085 9.85686 11.0135 10.0154 11.0636L16.8632 13.5511L16.8665 13.5523C17.5885 13.8096 18.2461 14.2204 18.794 14.7564C18.7942 14.7566 18.7945 14.7568 18.7947 14.757L41.6538 37.2657L45.3973 42.2719C45.4767 42.6712 45.5035 43.0165 45.4553 43.3429C45.4037 43.6923 45.2609 44.0547 44.944 44.4571C44.3129 45.2587 43.0116 46.1967 40.4609 47.4026L35.5505 43.484L12.6813 20.9118C12.6811 20.9116 12.6809 20.9114 12.6807 20.9112C12.128 20.3623 11.7073 19.6951 11.4504 18.9598L11.4505 18.9597L11.4463 18.9484L8.90356 12.1293Z" fill="url(#paint0_linear_43_5260)"/>
<path d="M8.90356 12.1293L8.87257 12.135C8.84083 12.006 8.838 11.8711 8.86483 11.7401C8.89879 11.5743 8.97887 11.4215 9.09585 11.2993C9.21284 11.177 9.36198 11.0902 9.52609 11.049C9.68746 11.0085 9.85686 11.0135 10.0154 11.0636L16.8632 13.5511L16.8665 13.5523C17.5885 13.8096 18.2461 14.2204 18.794 14.7564C18.7942 14.7566 18.7945 14.7568 18.7947 14.757L41.6538 37.2657L45.3973 42.2719C45.4767 42.6712 45.5035 43.0165 45.4553 43.3429C45.4037 43.6923 45.2609 44.0547 44.944 44.4571C44.3129 45.2587 43.0116 46.1967 40.4609 47.4026L35.5505 43.484L12.6813 20.9118C12.6811 20.9116 12.6809 20.9114 12.6807 20.9112C12.128 20.3623 11.7073 19.6951 11.4504 18.9598L11.4505 18.9597L11.4463 18.9484L8.90356 12.1293Z" fill="url(#paint1_linear_43_5260)"/>
<path d="M8.90356 12.1293L8.87257 12.135C8.84083 12.006 8.838 11.8711 8.86483 11.7401C8.89879 11.5743 8.97887 11.4215 9.09585 11.2993C9.21284 11.177 9.36198 11.0902 9.52609 11.049C9.68746 11.0085 9.85686 11.0135 10.0154 11.0636L16.8632 13.5511L16.8665 13.5523C17.5885 13.8096 18.2461 14.2204 18.794 14.7564C18.7942 14.7566 18.7945 14.7568 18.7947 14.757L41.6538 37.2657L45.3973 42.2719C45.4767 42.6712 45.5035 43.0165 45.4553 43.3429C45.4037 43.6923 45.2609 44.0547 44.944 44.4571C44.3129 45.2587 43.0116 46.1967 40.4609 47.4026L35.5505 43.484L12.6813 20.9118C12.6811 20.9116 12.6809 20.9114 12.6807 20.9112C12.128 20.3623 11.7073 19.6951 11.4504 18.9598L11.4505 18.9597L11.4463 18.9484L8.90356 12.1293Z" stroke="#646462" stroke-width="1.16216"/>
<g filter="url(#filter0_b_43_5260)">
<path d="M49.1484 15.3095C49.0746 15.107 48.9508 14.9263 48.7886 14.7842C48.6264 14.6422 48.4311 14.5433 48.2206 14.4968C48.01 14.4502 47.7912 14.4575 47.5843 14.518C47.3773 14.5785 47.189 14.6902 47.0366 14.8427L39.3202 22.5602L34.4208 21.5753L33.4399 16.6753L41.1525 8.95778C41.305 8.80514 41.4165 8.6165 41.4767 8.40932C41.5369 8.20214 41.5438 7.98312 41.4969 7.77253C41.45 7.56195 41.3507 7.3666 41.2082 7.20459C41.0658 7.04257 40.8848 6.91912 40.6819 6.84566C38.1486 5.92577 35.4047 5.75215 32.7757 6.34541C30.1467 6.93866 27.7431 8.27388 25.8502 10.1926C23.9573 12.1113 22.6545 14.5329 22.0966 17.1699C21.5387 19.807 21.749 22.5488 22.7026 25.0699L8.70328 39.0712C7.61269 40.1619 7 41.6413 7 43.1838C7 43.9476 7.15042 44.7039 7.44267 45.4096C7.73492 46.1152 8.16328 46.7564 8.70328 47.2965C9.24329 47.8366 9.88437 48.265 10.5899 48.5573C11.2955 48.8496 12.0517 49 12.8154 49C14.3577 49 15.8369 48.3872 16.9275 47.2965L30.9268 33.2952C32.5136 33.8993 34.1975 34.2083 35.8954 34.207C38.1612 34.212 40.3947 33.6697 42.4061 32.6264C44.4174 31.583 46.1472 30.0694 47.4483 28.2142C48.7494 26.3589 49.5834 24.2169 49.8794 21.9702C50.1754 19.7235 49.9246 17.4385 49.1484 15.3095Z" fill="url(#paint2_linear_43_5260)"/>
<path d="M47.2708 15.0769L47.271 15.0768C47.384 14.9636 47.5237 14.8808 47.6772 14.8359C47.8306 14.7911 47.9929 14.7857 48.1491 14.8202C48.3052 14.8547 48.4501 14.928 48.5704 15.0334C48.6907 15.1387 48.7825 15.2727 48.8373 15.423C49.5952 17.5019 49.84 19.7331 49.551 21.9269C49.262 24.1208 48.4476 26.2124 47.1771 28.024C45.9066 29.8356 44.2176 31.3136 42.2535 32.3324C40.2895 33.3512 38.1086 33.8807 35.8961 33.8758H35.8951C34.2376 33.877 32.5937 33.5754 31.0446 32.9857L30.8442 32.9094L30.6926 33.061L16.6932 47.0623C15.6648 48.0909 14.2698 48.6688 12.8154 48.6688C12.0952 48.6688 11.3821 48.5269 10.7167 48.2513C10.0513 47.9756 9.44676 47.5716 8.9375 47.0623C8.42825 46.553 8.02429 45.9483 7.74868 45.2828C7.47307 44.6174 7.33122 43.9041 7.33122 43.1838C7.33122 41.7291 7.90902 40.334 8.9375 39.3053L22.9368 25.3041L23.0881 25.1528L23.0124 24.9527C22.0812 22.4909 21.8758 19.8136 22.4206 17.2385C22.9655 14.6634 24.2376 12.2988 26.0859 10.4252C27.9343 8.55161 30.2814 7.2478 32.8486 6.6685C35.4157 6.0892 38.0952 6.25874 40.5689 7.15699L40.5691 7.15708C40.7196 7.21156 40.8538 7.30312 40.9595 7.42329C41.0652 7.54347 41.1388 7.68836 41.1736 7.84456C41.2084 8.00076 41.2032 8.16323 41.1586 8.3169C41.1139 8.47055 41.0313 8.61045 40.9182 8.72365C40.9182 8.72367 40.9182 8.72369 40.9182 8.72371L33.2056 16.4411L33.0804 16.5665L33.1152 16.7403L34.0961 21.6404L34.1393 21.8566L34.3556 21.9001L39.2549 22.8849L39.4289 22.9199L39.5544 22.7944L47.2708 15.0769Z" stroke="#646462" stroke-width="0.662432"/>
</g>
<defs>
<filter id="filter0_b_43_5260" x="0.0270271" y="-0.972973" width="56.9459" height="56.9459" filterUnits="userSpaceOnUse" color-interpolation-filters="sRGB">
<feFlood flood-opacity="0" result="BackgroundImageFix"/>
<feGaussianBlur in="BackgroundImageFix" stdDeviation="3.48649"/>
<feComposite in2="SourceAlpha" operator="in" result="effect1_backgroundBlur_43_5260"/>
<feBlend mode="normal" in="SourceGraphic" in2="effect1_backgroundBlur_43_5260" result="shape"/>
</filter>
<linearGradient id="paint0_linear_43_5260" x1="27.183" y1="10.3061" x2="27.4757" y2="48.2145" gradientUnits="userSpaceOnUse">
<stop stop-color="#77C3ED"/>
<stop offset="1" stop-color="#0060FF"/>
</linearGradient>
<linearGradient id="paint1_linear_43_5260" x1="42.446" y1="42.027" x2="13.8762" y2="6.20219" gradientUnits="userSpaceOnUse">
<stop stop-color="#BD8804"/>
<stop offset="1" stop-color="#F7C28B"/>
</linearGradient>
<linearGradient id="paint2_linear_43_5260" x1="33.5" y1="9" x2="14" y2="44" gradientUnits="userSpaceOnUse">
<stop stop-color="#393839"/>
<stop offset="1" stop-color="#5A5A5A"/>
</linearGradient>
</defs>
</svg>
