<svg width="171" height="37" viewBox="0 0 171 37" fill="none" xmlns="http://www.w3.org/2000/svg">
<path d="M25.7865 10.9855C25.7865 12.2059 25.5068 13.3628 24.9474 14.4561C24.4135 15.524 23.6634 16.4902 22.6972 17.3547C21.7311 18.1937 20.5996 18.9056 19.3029 19.4904C18.0062 20.0752 16.595 20.4693 15.0695 20.6727C15.4508 21.8169 15.9085 22.9992 16.4425 24.2197C17.0018 25.4147 17.5993 26.5716 18.235 27.6903C18.8706 28.809 19.5317 29.8388 20.2182 30.7796C20.9047 31.7203 21.5785 32.4958 22.2396 33.106C22.1124 33.3603 21.9217 33.6145 21.6675 33.8688C21.4387 34.1231 21.159 34.3519 20.8284 34.5553C20.5233 34.7841 20.1928 34.9621 19.8368 35.0893C19.5063 35.2418 19.1885 35.3181 18.8833 35.3181C18.324 35.3181 17.79 35.0511 17.2815 34.5172C16.773 33.9832 16.2518 33.1442 15.7178 32C15.2093 30.8304 14.6626 29.3303 14.0778 27.4996C13.5185 25.6435 12.8955 23.4187 12.209 20.8253C11.9294 20.8253 11.6497 20.8253 11.37 20.8253C11.0903 20.8253 10.8742 20.7999 10.7216 20.749C10.5436 20.6473 10.3529 20.4693 10.1495 20.2151C9.46304 21.6898 8.85281 23.0755 8.31887 24.3722C7.78492 25.6689 7.30183 26.9275 6.86959 28.148C6.46277 29.343 6.0941 30.5126 5.76356 31.6567C5.45845 32.7755 5.19148 33.9197 4.96264 35.0893C4.09816 34.8858 3.3481 34.5172 2.71245 33.9832C2.0768 33.4493 1.47929 32.6992 0.919919 31.733C1.02162 31.5042 1.12333 31.2881 1.22503 31.0847C1.35216 30.8558 1.50472 30.5507 1.6827 30.1693C1.86068 29.7625 2.0768 29.254 2.33106 28.6438C2.61074 28.0336 2.96671 27.2199 3.39895 26.2029C3.85662 25.1858 4.39056 23.94 5.00078 22.4653C5.63643 20.9906 6.39921 19.198 7.28912 17.0877C7.69593 16.1469 8.03918 15.3206 8.31887 14.6087C8.62398 13.8967 8.89095 13.2229 9.11978 12.5873C9.34862 11.9262 9.55203 11.2779 9.73001 10.6422C9.93342 9.98114 10.1368 9.23107 10.3402 8.39202C9.17064 8.79883 8.07732 9.2565 7.06028 9.76502C6.06867 10.2481 5.24233 10.7693 4.58125 11.3287C4.35242 11.1762 4.11087 10.9473 3.85662 10.6422C3.62778 10.3371 3.41166 10.0066 3.20825 9.6506C3.00485 9.26921 2.82686 8.88782 2.67431 8.50643C2.52175 8.12504 2.43276 7.78179 2.40734 7.47668C3.17012 6.96816 4.09816 6.49778 5.19148 6.06554C6.31022 5.6333 7.49253 5.26462 8.7384 4.95951C9.98427 4.62897 11.2556 4.37472 12.5523 4.19673C13.849 4.01875 15.0567 3.92976 16.1755 3.92976C19.2266 3.92976 21.5912 4.56541 23.2693 5.83671C24.9474 7.08258 25.7865 8.79883 25.7865 10.9855ZM16.4806 7.78179C16.3026 8.01062 16.0229 8.46829 15.6415 9.15479C15.2601 9.84129 14.8152 10.6676 14.3067 11.6338C13.8236 12.5746 13.3024 13.6043 12.743 14.7231C12.209 15.8418 11.6878 16.9478 11.1793 18.0412C13.0862 18.0412 14.8406 17.8632 16.4425 17.5072C18.0443 17.1513 19.43 16.6554 20.5996 16.0198C21.7692 15.3587 22.6718 14.5959 23.3075 13.7315C23.9685 12.8416 24.2991 11.8627 24.2991 10.7948C24.2991 9.52347 23.8414 8.55728 22.9261 7.89621C22.0107 7.20971 20.5996 6.86646 18.6927 6.86646C18.2604 6.86646 17.8282 6.89188 17.3959 6.94274C16.9637 6.96816 16.506 7.0063 16.0229 7.05715L16.4806 7.78179ZM38.083 16.2105C37.9813 17.7869 37.7016 19.1472 37.244 20.2914C36.7863 21.4101 36.1252 22.4017 35.2607 23.2662C34.4217 24.1052 33.3919 24.868 32.1715 25.5545C30.951 26.241 29.5272 26.9021 27.8999 27.5377C27.8999 27.6903 27.8872 27.8556 27.8618 28.0336C27.8618 28.1861 27.8618 28.3514 27.8618 28.5294C27.8618 28.8599 27.8872 29.2031 27.9381 29.5591C27.9889 29.9151 28.0779 30.2456 28.205 30.5507C28.3322 30.8558 28.5101 31.1101 28.739 31.3135C28.9678 31.4915 29.2602 31.5805 29.6162 31.5805C30.3027 31.5805 30.9765 31.4279 31.6375 31.1228C32.2986 30.8177 32.9215 30.449 33.5063 30.0168C34.1166 29.5591 34.6759 29.076 35.1845 28.5675C35.7184 28.0336 36.1888 27.5505 36.5956 27.1182C36.8499 27.3471 37.066 27.5632 37.244 27.7666C36.0998 29.2921 34.8412 30.5634 33.4682 31.5805C32.1206 32.5721 30.8366 33.2077 29.6162 33.4874C27.8618 33.284 26.4888 32.6484 25.4972 31.5805C24.531 30.4872 24.0479 29.1777 24.0479 27.6522C24.0479 26.6097 24.1877 25.5545 24.4674 24.4866C24.7725 23.3933 25.1793 22.3509 25.6879 21.3592C26.2218 20.3422 26.832 19.3887 27.5185 18.4988C28.2305 17.6089 28.9805 16.8334 29.7687 16.1724C30.5824 15.5113 31.4087 14.99 32.2478 14.6087C33.1122 14.2273 33.964 14.0366 34.8031 14.0366C35.9727 14.1891 37.066 14.9138 38.083 16.2105ZM35.4514 17.4691C34.7649 17.5708 34.053 17.8505 33.3156 18.3081C32.5783 18.7658 31.8791 19.376 31.218 20.1388C30.5824 20.9016 29.9976 21.7915 29.4636 22.8085C28.9297 23.8256 28.5101 24.9189 28.205 26.0885C30.2391 25.0714 31.9299 23.8256 33.2775 22.3509C34.6251 20.8507 35.3497 19.2235 35.4514 17.4691ZM48.1249 14.1891C48.6334 14.1891 49.2182 14.3417 49.8793 14.6468C50.5403 14.9519 51.1251 15.346 51.6336 15.8291C51.5065 14.8121 51.3412 13.8586 51.1378 12.9687C50.9599 12.0534 50.6802 11.1126 50.2988 10.1464C49.9428 9.18022 49.4597 8.12504 48.8495 6.98088C48.2393 5.83671 47.4765 4.52727 46.5612 3.05257C46.6374 2.82373 46.8027 2.55676 47.057 2.25165C47.3367 1.94654 47.6418 1.66685 47.9723 1.41259C48.3283 1.13291 48.6842 0.891363 49.0402 0.687955C49.4216 0.484547 49.7775 0.357417 50.1081 0.306566C50.82 1.09477 51.4938 2.08638 52.1294 3.2814C52.7651 4.45099 53.3245 5.72229 53.8076 7.09529C54.2907 8.44287 54.6593 9.84129 54.9136 11.2906C55.1933 12.7398 55.3331 14.1256 55.3331 15.4477C55.3331 16.7699 55.1806 18.1301 54.8755 19.5286C54.5958 20.927 54.189 22.3 53.655 23.6476C53.1465 24.9697 52.549 26.2283 51.8625 27.4233C51.176 28.6183 50.4259 29.6862 49.6123 30.627C48.8241 31.5678 47.9977 32.3305 47.1333 32.9153C46.2688 33.5256 45.4043 33.9069 44.5398 34.0595C42.7854 33.8561 41.4378 33.284 40.4971 32.3433C39.5817 31.4279 39.1241 30.1566 39.1241 28.5294C39.1241 27.6649 39.2512 26.7241 39.5055 25.7071C39.7852 24.69 40.1411 23.6857 40.5734 22.6941C41.031 21.6771 41.5523 20.6982 42.1371 19.7574C42.7473 18.7912 43.3829 17.9267 44.044 17.164C44.7305 16.4012 45.417 15.7528 46.1035 15.2189C46.79 14.6849 47.4638 14.3417 48.1249 14.1891ZM44.2347 32.5339C45.1246 32.2288 46.0145 31.555 46.9044 30.5126C47.7943 29.4701 48.5952 28.2497 49.3072 26.8512C50.0191 25.4274 50.5912 23.9146 51.0234 22.3127C51.4811 20.6855 51.7099 19.1218 51.7099 17.6216C51.7099 17.1894 51.7099 16.9224 51.7099 16.8207C51.7099 16.719 51.6972 16.6173 51.6718 16.5156C51.0616 16.7699 50.4132 17.2021 49.7267 17.8123C49.0402 18.4225 48.3537 19.1345 47.6672 19.9481C46.9807 20.7363 46.3323 21.6008 45.7221 22.5416C45.1119 23.4823 44.5652 24.4231 44.0821 25.3638C43.599 26.3046 43.2177 27.2072 42.938 28.0717C42.6583 28.9362 42.5184 29.699 42.5184 30.36C42.5184 31.6313 43.0905 32.356 44.2347 32.5339ZM91.4087 10.9855C91.4087 12.2059 91.129 13.3628 90.5696 14.4561C90.0357 15.524 89.2856 16.4902 88.3194 17.3547C87.3532 18.1937 86.2218 18.9056 84.925 19.4904C83.6283 20.0752 82.2172 20.4693 80.6916 20.6727C81.073 21.8169 81.5307 22.9992 82.0646 24.2197C82.624 25.4147 83.2215 26.5716 83.8571 27.6903C84.4928 28.809 85.1539 29.8388 85.8404 30.7796C86.5269 31.7203 87.2007 32.4958 87.8617 33.106C87.7346 33.3603 87.5439 33.6145 87.2896 33.8688C87.0608 34.1231 86.7811 34.3519 86.4506 34.5553C86.1455 34.7841 85.8149 34.9621 85.459 35.0893C85.1284 35.2418 84.8106 35.3181 84.5055 35.3181C83.9461 35.3181 83.4122 35.0511 82.9037 34.5172C82.3952 33.9832 81.8739 33.1442 81.34 32C80.8315 30.8304 80.2848 29.3303 79.7 27.4996C79.1406 25.6435 78.5177 23.4187 77.8312 20.8253C77.5515 20.8253 77.2718 20.8253 76.9921 20.8253C76.7125 20.8253 76.4963 20.7999 76.3438 20.749C76.1658 20.6473 75.9751 20.4693 75.7717 20.2151C75.0852 21.6898 74.475 23.0755 73.941 24.3722C73.4071 25.6689 72.924 26.9275 72.4918 28.148C72.0849 29.343 71.7163 30.5126 71.3857 31.6567C71.0806 32.7755 70.8136 33.9197 70.5848 35.0893C69.7203 34.8858 68.9703 34.5172 68.3346 33.9832C67.699 33.4493 67.1015 32.6992 66.5421 31.733C66.6438 31.5042 66.7455 31.2881 66.8472 31.0847C66.9743 30.8558 67.1269 30.5507 67.3049 30.1693C67.4828 29.7625 67.699 29.254 67.9532 28.6438C68.2329 28.0336 68.5889 27.2199 69.0211 26.2029C69.4788 25.1858 70.0127 23.94 70.6229 22.4653C71.2586 20.9906 72.0214 19.198 72.9113 17.0877C73.3181 16.1469 73.6613 15.3206 73.941 14.6087C74.2461 13.8967 74.5131 13.2229 74.7419 12.5873C74.9708 11.9262 75.1742 11.2779 75.3522 10.6422C75.5556 9.98114 75.759 9.23107 75.9624 8.39202C74.7928 8.79883 73.6995 9.2565 72.6824 9.76502C71.6908 10.2481 70.8645 10.7693 70.2034 11.3287C69.9746 11.1762 69.733 10.9473 69.4788 10.6422C69.2499 10.3371 69.0338 10.0066 68.8304 9.6506C68.627 9.26921 68.449 8.88782 68.2965 8.50643C68.1439 8.12504 68.0549 7.78179 68.0295 7.47668C68.7923 6.96816 69.7203 6.49778 70.8136 6.06554C71.9324 5.6333 73.1147 5.26462 74.3606 4.95951C75.6064 4.62897 76.8777 4.37472 78.1744 4.19673C79.4712 4.01875 80.6789 3.92976 81.7976 3.92976C84.8488 3.92976 87.2134 4.56541 88.8915 5.83671C90.5696 7.08258 91.4087 8.79883 91.4087 10.9855ZM82.1028 7.78179C81.9248 8.01062 81.6451 8.46829 81.2637 9.15479C80.8823 9.84129 80.4374 10.6676 79.9288 11.6338C79.4457 12.5746 78.9245 13.6043 78.3651 14.7231C77.8312 15.8418 77.31 16.9478 76.8014 18.0412C78.7084 18.0412 80.4628 17.8632 82.0646 17.5072C83.6665 17.1513 85.0522 16.6554 86.2218 16.0198C87.3914 15.3587 88.294 14.5959 88.9296 13.7315C89.5907 12.8416 89.9212 11.8627 89.9212 10.7948C89.9212 9.52347 89.4636 8.55728 88.5482 7.89621C87.6329 7.20971 86.2218 6.86646 84.3148 6.86646C83.8826 6.86646 83.4503 6.89188 83.0181 6.94274C82.5858 6.96816 82.1282 7.0063 81.6451 7.05715L82.1028 7.78179ZM94.5146 33.3349C93.0653 33.1823 91.9084 32.5467 91.0439 31.4279C90.1795 30.3092 89.7472 28.8853 89.7472 27.1564C89.7472 26.1393 89.8998 25.0841 90.2049 23.9908C90.51 22.8975 90.9422 21.8423 91.5016 20.8253C92.061 19.7828 92.7221 18.8039 93.4848 17.8886C94.2476 16.9733 95.074 16.1851 95.9639 15.524C97.3623 14.4815 98.6717 13.9603 99.8922 13.9603C100.706 14.3925 101.507 15.2952 102.295 16.6682C102.422 16.6682 102.536 16.6682 102.638 16.6682C102.74 16.6427 102.854 16.63 102.981 16.63C104.329 16.63 105.003 17.825 105.003 20.2151C105.003 21.8169 104.736 23.3425 104.202 24.7917C103.693 26.2156 102.969 27.5123 102.028 28.6819C101.113 29.8515 100.007 30.8431 98.7099 31.6567C97.4386 32.445 96.0401 33.0043 94.5146 33.3349ZM96.4597 21.3211C96.0274 21.9059 95.6206 22.5416 95.2392 23.2281C94.8578 23.9146 94.5273 24.6138 94.2476 25.3257C93.9679 26.0122 93.7518 26.686 93.5993 27.3471C93.4467 27.9827 93.3704 28.5548 93.3704 29.0633C93.3704 29.6735 93.4721 30.2583 93.6755 30.8177C93.8789 31.3771 94.1078 31.6949 94.362 31.7712C95.5062 31.5169 96.5487 31.0465 97.4894 30.36C98.4556 29.6481 99.2819 28.7709 99.9684 27.7284C100.68 26.686 101.227 25.5037 101.608 24.1815C102.015 22.8594 102.219 21.4482 102.219 19.9481C102.219 19.287 102.181 18.7658 102.104 18.3844C102.028 18.003 101.901 17.6725 101.723 17.3928C100.604 17.7233 99.5998 18.2573 98.7099 18.9946C97.8454 19.732 97.0953 20.5075 96.4597 21.3211ZM107.04 25.2876C107.04 23.8383 107.332 22.4398 107.917 21.0923C108.527 19.7193 109.315 18.5115 110.281 17.4691C111.273 16.4012 112.392 15.5494 113.638 14.9138C114.909 14.2527 116.218 13.9222 117.566 13.9222C118.888 13.9222 119.905 14.2527 120.617 14.9138C121.329 15.5748 121.685 16.5156 121.685 17.736C121.685 18.3208 121.596 18.8929 121.418 19.4523C121.265 19.9862 121.049 20.4693 120.77 20.9016C120.515 21.3338 120.21 21.6898 119.854 21.9695C119.498 22.2237 119.142 22.3509 118.786 22.3509C118.481 22.3509 118.163 22.2619 117.833 22.0839C117.528 21.8805 117.274 21.6262 117.07 21.3211C118.774 19.7701 119.625 18.359 119.625 17.0877C119.625 16.3503 119.333 15.9817 118.748 15.9817C118.24 15.9817 117.604 16.2232 116.841 16.7063C116.079 17.1894 115.341 17.825 114.629 18.6132C113.536 19.8337 112.697 21.194 112.112 22.6941C111.553 24.1688 111.273 25.7198 111.273 27.3471C111.273 29.4066 111.731 30.6397 112.646 31.0465C113.027 30.9957 113.472 30.8813 113.981 30.7033C114.489 30.5253 115.036 30.2965 115.621 30.0168C116.206 29.7117 116.803 29.3684 117.413 28.987C118.049 28.6056 118.659 28.1988 119.244 27.7666C119.346 27.8429 119.435 27.9573 119.511 28.1098C119.587 28.2624 119.625 28.4022 119.625 28.5294C119.193 29.0633 118.697 29.5845 118.138 30.0931C117.579 30.6016 116.994 31.072 116.384 31.5042C115.773 31.911 115.176 32.2543 114.591 32.5339C114.032 32.8391 113.536 33.0298 113.104 33.106C112.265 33.0298 111.476 32.7628 110.739 32.3051C110.002 31.8729 109.353 31.3008 108.794 30.5889C108.26 29.8769 107.828 29.0633 107.497 28.148C107.192 27.2326 107.04 26.2792 107.04 25.2876ZM122.864 28.4149C122.864 27.4996 123.093 26.2283 123.551 24.6011C124.034 22.9738 124.657 21.194 125.42 19.2616C126.182 17.3292 127.047 15.3333 128.013 13.2738C128.979 11.2143 129.945 9.29464 130.912 7.51482C131.903 5.735 132.844 4.19674 133.734 2.90001C134.649 1.60329 135.425 0.726095 136.06 0.268428C136.416 0.293853 136.798 0.446408 137.205 0.726093C137.637 1.00578 138.031 1.34903 138.387 1.75584C138.743 2.13723 139.035 2.54405 139.264 2.97629C139.518 3.40853 139.645 3.80263 139.645 4.1586C138.501 5.07393 137.332 6.25624 136.137 7.70551C134.967 9.12937 133.848 10.7058 132.78 12.4347C131.713 14.1383 130.721 15.9562 129.806 17.8886C128.916 19.7955 128.166 21.6771 127.555 23.5332C128.369 22.1347 129.221 20.8634 130.111 19.7193C131.001 18.5751 131.891 17.5962 132.78 16.7826C133.67 15.9689 134.535 15.346 135.374 14.9138C136.238 14.4561 137.052 14.2146 137.815 14.1891C138.934 15.0028 139.493 16.0834 139.493 17.4309C139.493 18.2446 139.328 19.0709 138.997 19.91C138.667 20.7236 138.222 21.4864 137.662 22.1983C137.128 22.8848 136.505 23.4823 135.793 23.9908C135.107 24.4739 134.382 24.7917 133.619 24.9443C133.874 25.8342 134.192 26.7368 134.573 27.6522C134.98 28.5675 135.45 29.4574 135.984 30.3219C136.543 31.1864 137.166 31.9873 137.853 32.7246C138.565 33.462 139.366 34.0849 140.256 34.5934C140.129 34.8477 139.938 35.102 139.684 35.3562C139.429 35.6105 139.124 35.8266 138.768 36.0046C138.412 36.208 138.018 36.3605 137.586 36.4623C137.179 36.5894 136.772 36.6529 136.365 36.6529C135.679 36.6529 135.031 36.3097 134.42 35.6232C133.836 34.9367 133.302 33.9451 132.819 32.6484C132.437 31.6059 132.069 30.36 131.713 28.9107C131.357 27.4615 131.039 25.9486 130.759 24.3722C131.115 24.1434 131.56 23.8128 132.094 23.3806C132.628 22.9229 133.187 22.4017 133.772 21.8169C136.01 19.6557 137.128 17.7869 137.128 16.2105C137.128 16.0071 136.988 15.9054 136.709 15.9054C136.2 15.9308 135.603 16.1724 134.916 16.63C134.23 17.0877 133.492 17.7233 132.704 18.537C131.941 19.3506 131.153 20.3041 130.34 21.3974C129.551 22.4907 128.789 23.673 128.051 24.9443C127.746 25.4528 127.466 26.0376 127.212 26.6987C126.958 27.3598 126.729 28.0463 126.526 28.7582C126.348 29.4447 126.208 30.1312 126.106 30.8177C126.004 31.5042 125.954 32.1398 125.954 32.7246C125.954 33.0806 125.992 33.373 126.068 33.6018C125.28 33.5256 124.797 33.3221 124.619 32.9916C124.415 32.6865 124.237 32.4322 124.085 32.2288C123.958 32.0509 123.818 31.8983 123.665 31.7712C123.436 31.5932 123.246 31.2118 123.093 30.627C122.941 30.0422 122.864 29.3049 122.864 28.4149ZM155.138 16.2105C155.036 17.7869 154.756 19.1472 154.299 20.2914C153.841 21.4101 153.18 22.4017 152.316 23.2662C151.477 24.1052 150.447 24.868 149.226 25.5545C148.006 26.241 146.582 26.9021 144.955 27.5377C144.955 27.6903 144.942 27.8556 144.917 28.0336C144.917 28.1861 144.917 28.3514 144.917 28.5294C144.917 28.8599 144.942 29.2031 144.993 29.5591C145.044 29.9151 145.133 30.2456 145.26 30.5507C145.387 30.8558 145.565 31.1101 145.794 31.3135C146.023 31.4915 146.315 31.5805 146.671 31.5805C147.358 31.5805 148.031 31.4279 148.692 31.1228C149.353 30.8177 149.976 30.449 150.561 30.0168C151.171 29.5591 151.731 29.076 152.239 28.5675C152.773 28.0336 153.244 27.5505 153.65 27.1182C153.905 27.3471 154.121 27.5632 154.299 27.7666C153.155 29.2921 151.896 30.5634 150.523 31.5805C149.175 32.5721 147.891 33.2077 146.671 33.4874C144.917 33.284 143.544 32.6484 142.552 31.5805C141.586 30.4872 141.103 29.1777 141.103 27.6522C141.103 26.6097 141.243 25.5545 141.522 24.4866C141.827 23.3933 142.234 22.3509 142.743 21.3592C143.277 20.3422 143.887 19.3887 144.573 18.4988C145.285 17.6089 146.035 16.8334 146.824 16.1724C147.637 15.5113 148.464 14.99 149.303 14.6087C150.167 14.2273 151.019 14.0366 151.858 14.0366C153.028 14.1891 154.121 14.9138 155.138 16.2105ZM152.506 17.4691C151.82 17.5708 151.108 17.8505 150.371 18.3081C149.633 18.7658 148.934 19.376 148.273 20.1388C147.637 20.9016 147.052 21.7915 146.518 22.8085C145.985 23.8256 145.565 24.9189 145.26 26.0885C147.294 25.0714 148.985 23.8256 150.332 22.3509C151.68 20.8507 152.405 19.2235 152.506 17.4691ZM158.855 17.3928C158.728 17.2402 158.613 16.9224 158.512 16.4393C158.41 15.9308 158.359 15.4986 158.359 15.1426C159.02 15.1935 159.656 15.2443 160.266 15.2952C160.876 15.3206 161.436 15.346 161.944 15.3714C162.326 14.6087 162.732 13.8586 163.165 13.1212C163.622 12.3585 164.055 11.672 164.461 11.0617C164.894 10.4261 165.288 9.89215 165.644 9.4599C166.025 9.02766 166.317 8.74798 166.521 8.62085C166.775 8.62085 167.093 8.6717 167.474 8.7734C167.881 8.84968 168.288 8.9641 168.695 9.11665C169.102 9.24378 169.47 9.38363 169.801 9.53618C170.131 9.68874 170.36 9.84129 170.487 9.99385C169.725 10.96 169.063 11.8627 168.504 12.7017C167.97 13.5153 167.385 14.4561 166.75 15.524C167.258 15.524 167.767 15.5113 168.275 15.4859C168.809 15.4604 169.343 15.4223 169.877 15.3714C170.004 15.4986 170.106 15.6638 170.182 15.8672C170.258 16.0452 170.297 16.2359 170.297 16.4393C169.051 16.897 167.538 17.1513 165.758 17.2021C165.122 18.4225 164.55 19.643 164.042 20.8634C163.559 22.0585 163.139 23.2153 162.783 24.3341C162.453 25.4528 162.186 26.508 161.982 27.4996C161.804 28.4912 161.715 29.3811 161.715 30.1693C161.715 31.2881 162.135 31.911 162.974 32.0381C163.737 31.9364 164.461 31.7457 165.148 31.4661C165.834 31.1864 166.445 30.8304 166.979 30.3982C167.131 30.627 167.22 30.8177 167.245 30.9702C167.093 31.1991 166.826 31.4661 166.445 31.7712C166.089 32.0763 165.695 32.3687 165.262 32.6484C164.83 32.9535 164.41 33.2077 164.004 33.4111C163.597 33.6145 163.292 33.729 163.088 33.7544C162.453 33.729 161.817 33.5891 161.181 33.3349C160.546 33.0806 159.961 32.7628 159.427 32.3814C158.918 32 158.499 31.5805 158.168 31.1228C157.838 30.6397 157.673 30.1693 157.673 29.7117C157.673 29.1014 157.749 28.3387 157.901 27.4233C158.079 26.4826 158.321 25.4655 158.626 24.3722C158.931 23.2789 159.287 22.1347 159.694 20.9397C160.101 19.7447 160.546 18.5624 161.029 17.3928H158.855Z" fill="#CA143B"/>
</svg>
