<svg width="56" height="56" viewBox="0 0 56 56" fill="none" xmlns="http://www.w3.org/2000/svg">
<rect x="8.3999" y="11.2" width="30.8" height="39.2" rx="5.6" fill="url(#paint0_linear_43_5269)"/>
<rect x="8.3999" y="11.2" width="30.8" height="39.2" rx="5.6" fill="url(#paint1_linear_43_5269)"/>
<g clip-path="url(#clip0_43_5269)">
<g filter="url(#filter0_b_43_5269)">
<path d="M32.8021 5.59998H19.4283C16.4292 5.59998 14 8.01549 14 10.9976V40.6768C14 43.6589 16.4292 46.0745 19.4283 46.0745H39.7772C42.7763 46.0745 45.2055 43.6589 45.2055 40.6768V17.9333C45.2055 16.5022 44.6324 15.1293 43.6164 14.1158L36.6413 7.1801C35.6221 6.16662 34.2414 5.59998 32.8021 5.59998Z" fill="#393839"/>
<path d="M19.4283 6.09998H32.8021C34.1101 6.09998 35.3638 6.61489 36.2888 7.53465L43.2633 14.4698C43.2634 14.4699 43.2636 14.4701 43.2637 14.4702C44.1861 15.3905 44.7055 16.6362 44.7055 17.9333V40.6768C44.7055 43.3801 42.5028 45.5745 39.7772 45.5745H19.4283C16.7027 45.5745 14.5 43.3801 14.5 40.6768V10.9976C14.5 8.2943 16.7027 6.09998 19.4283 6.09998Z" stroke="#646462"/>
</g>
<g filter="url(#filter1_f_43_5269)">
<circle cx="16.5" cy="16.5" r="16.5" transform="matrix(-1 0 0 1 47 22)" fill="#787777"/>
</g>
</g>
<path d="M49.0829 5.50457C47.5892 4.01092 45.1675 4.01096 43.6739 5.50467L32.4985 16.6809C32.4287 16.7509 32.3783 16.8393 32.3543 16.9344L30.8158 23.1093C30.7698 23.2952 30.8244 23.4929 30.9601 23.6286C31.0627 23.7312 31.2026 23.788 31.3457 23.788C31.3895 23.788 31.4343 23.7826 31.4779 23.7716L37.6529 22.233C37.7491 22.209 37.8366 22.1587 37.9064 22.0889L49.0827 10.9135C50.5765 9.41994 50.5765 6.99823 49.0829 5.50457V5.50457Z" fill="white"/>
<defs>
<filter id="filter0_b_43_5269" x="0" y="-8.40002" width="59.2056" height="68.4745" filterUnits="userSpaceOnUse" color-interpolation-filters="sRGB">
<feFlood flood-opacity="0" result="BackgroundImageFix"/>
<feGaussianBlur in="BackgroundImageFix" stdDeviation="7"/>
<feComposite in2="SourceAlpha" operator="in" result="effect1_backgroundBlur_43_5269"/>
<feBlend mode="normal" in="SourceGraphic" in2="effect1_backgroundBlur_43_5269" result="shape"/>
</filter>
<filter id="filter1_f_43_5269" x="-11" y="-3" width="83" height="83" filterUnits="userSpaceOnUse" color-interpolation-filters="sRGB">
<feFlood flood-opacity="0" result="BackgroundImageFix"/>
<feBlend mode="normal" in="SourceGraphic" in2="BackgroundImageFix" result="shape"/>
<feGaussianBlur stdDeviation="12.5" result="effect1_foregroundBlur_43_5269"/>
</filter>
<linearGradient id="paint0_linear_43_5269" x1="8.3999" y1="30.8" x2="39.1999" y2="30.8" gradientUnits="userSpaceOnUse">
<stop stop-color="#77C3ED"/>
<stop offset="1" stop-color="#0060FF"/>
</linearGradient>
<linearGradient id="paint1_linear_43_5269" x1="8.31927" y1="14.2812" x2="45.7347" y2="40.8881" gradientUnits="userSpaceOnUse">
<stop stop-color="#BD8804"/>
<stop offset="1" stop-color="#F7C28B"/>
</linearGradient>
<clipPath id="clip0_43_5269">
<rect x="14" y="5.59998" width="31.2055" height="40.4745" rx="5" fill="white"/>
</clipPath>
</defs>
</svg>
