<svg width="84" height="84" viewBox="0 0 84 84" fill="none" xmlns="http://www.w3.org/2000/svg">
<g clip-path="url(#clip0_6_593)">
<path d="M45.481 83.3627C68.4197 81.4486 85.457 61.3784 83.5349 38.5347C81.6129 15.691 61.4592 -1.27587 38.5205 0.638228C15.5818 2.55232 -1.45552 22.6225 0.466556 45.4662C2.38863 68.31 22.5423 85.2768 45.481 83.3627Z" fill="#691222"/>
<path d="M13.2006 67.063C27.0427 82.9685 51.1579 84.6413 67.0634 70.7992C82.9689 56.9571 84.6417 32.842 70.7996 16.9364C56.9575 1.03093 32.8424 -0.641832 16.9368 13.2002C1.03133 27.0423 -0.641436 51.1575 13.2006 67.063Z" fill="#E7004F"/>
<path fill-rule="evenodd" clip-rule="evenodd" d="M47.8467 22.8081H52.2467C52.1287 24.8011 52.1317 26.7981 52.1247 28.7941C52.0387 31.0571 52.0938 33.3241 52.0748 35.5871C52.0568 36.6111 52.1418 37.6351 52.0908 38.6581C52.0568 42.5581 52.0557 46.4611 52.2487 50.3581C50.7807 50.3581 49.3118 50.3631 47.8418 50.3581C48.0958 47.5241 47.9767 44.6781 48.0027 41.8411C47.8957 38.4631 47.9677 35.0851 47.9477 31.7071C47.9377 28.7391 47.9977 25.7721 47.8467 22.8081ZM56.9218 31.2231C58.0818 30.4091 59.5318 30.0771 60.9398 30.0871C62.2638 30.0841 63.6347 30.2871 64.7937 30.9531C66.0437 31.6391 66.9287 32.8411 67.4317 34.1311C68.1477 35.9211 68.3487 37.8601 68.4147 39.7671C68.4307 42.0811 68.2217 44.3991 68.4147 46.7121C68.4497 46.9761 68.4917 47.2461 68.6087 47.4891C68.7467 47.7091 68.9767 47.9231 69.2567 47.9251C69.6867 47.8901 70.0778 47.6981 70.4128 47.4431V50.3491C69.5308 50.9181 68.4567 51.2741 67.3937 51.0531C66.2217 50.8531 65.2897 50.0631 64.4688 49.2751C63.1638 50.4651 61.4748 51.4671 59.6208 51.3321C57.6928 51.3171 55.8378 50.2121 54.8958 48.5681C54.2078 47.4081 53.9538 46.0281 54.0468 44.6981C54.1128 43.4241 54.4558 42.1341 55.2138 41.0841C55.791 40.2573 56.5695 39.5914 57.4757 39.1491C58.5157 38.6121 59.7268 38.4791 60.8848 38.5661C61.9058 38.6001 62.8917 38.9501 63.7497 39.4781C63.7597 38.0081 63.7997 36.3761 62.9207 35.1051C62.6287 34.6131 62.1067 34.2911 61.5697 34.1111C60.6757 33.9111 59.6197 33.9851 58.9197 34.6331C58.1927 35.3131 57.9347 36.3071 57.8227 37.2541C56.5477 37.2651 55.2737 37.2671 53.9987 37.2571C54.0487 36.2971 54.1297 35.3271 54.4717 34.4201C54.9177 33.1401 55.7617 31.9681 56.9287 31.2261L56.9218 31.2231ZM58.9577 42.2171C59.4677 41.7871 60.1738 41.6721 60.8278 41.6911C61.8358 41.7431 62.8198 42.0021 63.7428 42.3971C63.7428 43.6501 63.7658 44.9031 63.7458 46.1591C63.7408 46.3491 63.5518 46.4691 63.4358 46.6041C62.5388 47.3951 61.3497 47.9361 60.1217 47.8701C59.3947 47.7731 58.6907 47.3481 58.3597 46.6921C57.9577 46.0161 57.9098 45.1991 57.9228 44.4351C57.9768 43.6121 58.2757 42.7451 58.9577 42.2191V42.2171ZM42.2708 31.1711C43.286 31.7363 44.1395 32.5523 44.7498 33.5411C45.7718 35.1691 46.1778 37.0891 46.3128 38.9741C46.4018 40.7581 46.4048 42.5721 45.9638 44.3181C45.5798 46.0561 44.7657 47.7701 43.3837 48.9611C41.8337 50.3121 39.6867 50.7931 37.6567 50.7311C35.4347 50.6861 33.2347 49.6661 31.8757 47.9321C30.6057 46.3721 29.9927 44.4011 29.7657 42.4421C29.6277 41.3201 29.6557 40.1901 29.6997 39.0661C29.8917 36.8471 30.5898 34.5981 32.0828 32.8781C33.4128 31.2731 35.4608 30.2801 37.5678 30.1661C39.1878 30.0741 40.8598 30.3761 42.2758 31.1711H42.2708ZM37.3417 34.3181C38.0527 34.2511 38.8157 34.2371 39.4687 34.5611C40.0487 34.7991 40.4927 35.2611 40.8347 35.7611C41.4497 36.7751 41.6487 37.9651 41.7507 39.1211C41.8487 40.8571 41.8487 42.6531 41.2157 44.3021C40.9117 45.0461 40.4727 45.7891 39.7657 46.2281C38.7657 46.8981 37.3658 46.8681 36.3458 46.2491C35.5618 45.8071 35.0557 45.0211 34.7257 44.2191C34.3107 43.1911 34.2127 42.0691 34.1497 40.9751C34.0927 39.6241 34.1958 38.2511 34.5948 36.9521C34.8408 36.1301 35.3048 35.3581 36.0048 34.8321C36.4115 34.5697 36.8686 34.3953 37.3468 34.3201L37.3417 34.3181ZM13.5938 30.7871C15.1528 30.7901 16.7107 30.7821 18.2677 30.7901C18.0257 32.5681 18.1607 34.3671 18.0747 36.1521C18.0027 38.4091 18.0897 40.6661 18.1157 42.9201C18.1317 43.9641 18.3768 45.0471 19.0338 45.8951C19.5228 46.4451 20.2657 46.8151 21.0227 46.7361C22.1427 46.7081 23.0407 45.9221 23.7747 45.1731C23.7957 43.1091 23.7557 41.0451 23.7897 38.9811C23.8867 36.2531 23.9968 33.5111 23.7288 30.7891C25.3228 30.7851 26.9147 30.7851 28.5087 30.7891C28.2547 33.0621 28.1287 35.3491 28.0737 37.6351C28.0897 40.3831 28.0277 43.1351 28.1197 45.8841C28.1257 48.6081 28.2547 51.3341 28.1507 54.0561C27.9877 56.2291 27.1478 58.4961 25.3188 59.8491C24.2948 60.6541 22.9977 61.0261 21.7157 61.1961H19.9508C18.7838 61.0381 17.5907 60.7511 16.6237 60.0601C15.6037 59.4121 14.8898 58.3931 14.4288 57.3081C13.6988 55.5731 13.6667 53.6601 13.7037 51.8151H17.9937C18.0097 53.0611 17.9138 54.3751 18.4268 55.5461C18.6568 56.0681 19.0537 56.5501 19.6017 56.7681C20.1147 56.9831 20.6797 57.0141 21.2297 56.9761C21.7667 56.9031 22.3477 56.7531 22.7157 56.3311C23.2137 55.7591 23.3918 54.9991 23.4748 54.2731C23.6748 52.6151 23.6927 50.9361 23.6617 49.2671C22.9477 49.7431 22.1988 50.1921 21.3538 50.4041C20.0148 50.7571 18.5337 50.8491 17.2307 50.3111C16.5007 50.0241 15.8517 49.5591 15.2887 49.0291C15.0247 48.7931 14.8337 48.4921 14.6687 48.1821C14.1057 46.9991 13.9247 45.6941 13.7867 44.4091C13.4547 41.2591 13.8127 38.0961 13.7617 34.9391C13.7547 33.6711 13.7667 32.3951 13.5938 31.1341V30.7871Z" fill="white"/>
</g>
<defs>
<clipPath id="clip0_6_593">
<rect width="84" height="84" fill="white"/>
</clipPath>
</defs>
</svg>
