<svg width="84" height="57" viewBox="0 0 84 57" fill="none" xmlns="http://www.w3.org/2000/svg">
<path fill-rule="evenodd" clip-rule="evenodd" d="M50.6389 0.124023H57.1438C56.9693 3.07043 56.9738 6.02275 56.9634 8.9736C56.8363 12.3192 56.9176 15.6707 56.8895 19.0162C56.8629 20.5301 56.9885 22.0439 56.9131 23.5563C56.8629 29.322 56.8614 35.0921 57.1467 40.8534C54.9765 40.8534 52.8047 40.8607 50.6315 40.8534C51.007 36.6636 50.8311 32.4562 50.8695 28.262C50.7113 23.268 50.8178 18.2741 50.7882 13.2801C50.7734 8.89229 50.8621 4.50594 50.6389 0.124023ZM64.0552 12.5646C65.7701 11.3612 67.9138 10.8704 69.9953 10.8851C71.9527 10.8807 73.9795 11.1808 75.693 12.1654C77.541 13.1796 78.8493 14.9566 79.5929 16.8637C80.6515 19.51 80.9486 22.3766 81.0462 25.1958C81.0698 28.6168 80.7609 32.0437 81.0462 35.4632C81.0979 35.8535 81.16 36.2526 81.333 36.6119C81.537 36.9371 81.877 37.2535 82.291 37.2565C82.9267 37.2047 83.5047 36.9209 84 36.5439V40.84C82.6961 41.6812 81.1083 42.2076 79.5368 41.8808C77.8041 41.5852 76.4263 40.4172 75.2125 39.2523C73.2832 41.0115 70.7862 42.4929 68.0453 42.2933C65.195 42.2711 62.4526 40.6375 61.06 38.2071C60.0429 36.4921 59.6674 34.452 59.8049 32.4857C59.9024 30.6023 60.4095 28.6952 61.5301 27.1429C62.3836 25.9206 63.5345 24.936 64.8742 24.2822C66.4117 23.4883 68.202 23.2917 69.914 23.4203C71.4234 23.4706 72.8811 23.988 74.1496 24.7686C74.1643 22.5954 74.2235 20.1827 72.924 18.3036C72.4923 17.5763 71.7206 17.1002 70.9267 16.8341C69.605 16.5385 68.0439 16.6479 67.009 17.6058C65.9342 18.6111 65.5528 20.0807 65.3872 21.4807C63.5023 21.4969 61.6188 21.4999 59.7339 21.4851C59.8078 20.0659 59.9276 18.6318 60.4332 17.291C61.0925 15.3986 62.3403 13.666 64.0655 12.569L64.0552 12.5646ZM67.0652 28.8179C67.8191 28.1822 68.8629 28.0122 69.8297 28.0402C71.3199 28.1171 72.7747 28.5 74.1392 29.084C74.1392 30.9364 74.1732 32.7888 74.1436 34.6456C74.1363 34.9265 73.8568 35.1039 73.6854 35.3035C72.3592 36.4729 70.6015 37.2727 68.786 37.1751C67.7112 37.0317 66.6704 36.4034 66.1811 35.4336C65.5868 34.4342 65.5158 33.2264 65.5351 32.0969C65.6149 30.8802 66.0569 29.5985 67.0652 28.8208V28.8179ZM42.3955 12.4877C43.8964 13.3233 45.1582 14.5296 46.0604 15.9915C47.5713 18.3983 48.1715 21.2367 48.3711 24.0235C48.5026 26.6609 48.5071 29.3427 47.8551 31.9239C47.2874 34.4934 46.084 37.0273 44.0409 38.7881C41.7494 40.7853 38.5753 41.4964 35.5742 41.4048C32.2893 41.3383 29.0368 39.8303 27.0277 37.2668C25.1502 34.9605 24.2439 32.0467 23.9083 29.1505C23.7043 27.4918 23.7457 25.8212 23.8108 24.1595C24.0946 20.879 25.1265 17.5541 27.3337 15.0113C29.3 12.6385 32.3277 11.1705 35.4427 11.0019C37.8376 10.8659 40.3095 11.3124 42.4029 12.4877H42.3955ZM35.1085 17.1402C36.1597 17.0411 37.2877 17.0204 38.253 17.4994C39.1105 17.8513 39.7669 18.5343 40.2725 19.2735C41.1817 20.7725 41.4759 22.5318 41.6267 24.2408C41.7716 26.8073 41.7716 29.4624 40.8358 31.9003C40.3863 33.0002 39.7373 34.0986 38.6921 34.7477C37.2137 35.7382 35.144 35.6938 33.6361 34.7787C32.477 34.1253 31.729 32.9633 31.2411 31.7776C30.6276 30.2578 30.4827 28.5991 30.3895 26.9817C30.3053 24.9844 30.4576 22.9546 31.0474 21.0342C31.4111 19.819 32.0971 18.6777 33.1319 17.9C33.7333 17.5122 34.4091 17.2543 35.1159 17.1431L35.1085 17.1402ZM0 11.92C2.30479 11.9244 4.60811 11.9126 6.90994 11.9244C6.55217 14.553 6.75175 17.2126 6.62461 19.8515C6.51817 23.1882 6.64679 26.5249 6.68523 29.8572C6.70888 31.4006 7.07109 33.0017 8.04238 34.2554C8.76531 35.0685 9.86374 35.6155 10.9829 35.4987C12.6387 35.4573 13.9662 34.2953 15.0514 33.188C15.0824 30.1366 15.0233 27.0852 15.0735 24.0338C15.217 20.0008 15.3796 15.9471 14.9834 11.923C17.3399 11.917 19.6935 11.917 22.05 11.923C21.6745 15.2833 21.4882 18.6644 21.4069 22.0439C21.4306 26.1065 21.3389 30.175 21.4749 34.2391C21.4838 38.2662 21.6745 42.2963 21.5208 46.3204C21.2798 49.5329 20.0379 52.8844 17.334 54.8846C15.8201 56.0747 13.9027 56.6247 12.0074 56.876H9.39805C7.67279 56.6424 5.90908 56.2181 4.47949 55.1966C2.97154 54.2386 1.91598 52.7321 1.23445 51.1281C0.15523 48.5631 0.107921 45.735 0.162621 43.0074H6.50487C6.52852 44.8494 6.3866 46.792 7.145 48.5232C7.48503 49.2949 8.07195 50.0075 8.8821 50.3298C9.64051 50.6476 10.4758 50.6934 11.2889 50.6373C12.0828 50.5293 12.9417 50.3076 13.4858 49.6837C14.222 48.8381 14.4852 47.7145 14.6079 46.6412C14.9035 44.1901 14.9301 41.7079 14.8843 39.2404C13.8288 39.9441 12.7214 40.6079 11.4722 40.9214C9.49267 41.4432 7.30319 41.5792 5.37686 40.7839C4.29765 40.3596 3.33818 39.6721 2.50585 38.8886C2.11556 38.5397 1.83319 38.0947 1.58926 37.6364C0.75693 35.8875 0.489343 33.9582 0.285327 32.0585C-0.205495 27.4016 0.323764 22.7255 0.248367 18.0582C0.238018 16.1836 0.255759 14.2972 0 12.433V11.92Z" fill="white"/>
</svg>
