<svg width="168" height="31" viewBox="0 0 168 31" fill="none" xmlns="http://www.w3.org/2000/svg">
<g clip-path="url(#clip0_66_783)">
<path d="M49.6065 0.377441C48.697 0.377526 47.804 0.620888 47.0202 1.0823C46.2363 1.54371 45.5902 2.20638 45.1487 3.0016L45.045 3.21542L41.0732 11.0944L36.0192 21.0532L39.3302 27.578L39.5116 27.9343C40.0221 28.8373 40.7918 29.5663 41.7211 30.0272C42.6493 29.5647 43.4185 28.8361 43.9306 27.9343L44.112 27.578L54.032 8.00369L54.2717 7.5307C54.6091 6.75648 54.7486 5.91052 54.6778 5.06896C54.607 4.2274 54.3279 3.41667 53.8659 2.70975C53.4038 2.00283 52.7732 1.42192 52.0308 1.01931C51.2884 0.616697 50.4576 0.405029 49.613 0.403359L49.6065 0.377441ZM18.946 9.8568L15.6415 3.3774L15.4601 3.02104C14.9538 2.11867 14.1857 1.39116 13.2571 0.93467C12.3302 1.39045 11.5624 2.11535 11.0541 3.01456L10.8662 3.3774L0.933297 22.9322L0.693559 23.3987C0.157903 24.5983 0.106504 25.9584 0.550102 27.195C0.9937 28.4315 1.89798 29.4488 3.074 30.0343C4.25002 30.6198 5.6068 30.7282 6.86087 30.3369C8.11494 29.9456 9.16928 29.0848 9.80359 27.9343L9.91374 27.727L13.9115 19.848L18.959 9.89568L18.946 9.8568Z" fill="#FF5100"/>
<path d="M49.5938 0.377441C48.6852 0.378002 47.7933 0.621626 47.0106 1.08305C46.2279 1.54447 45.5829 2.20689 45.1425 3.0016L45.0323 3.21542L41.0345 11.0944L35.9741 21.0532L39.2916 27.578L39.473 27.9343C39.9816 28.8388 40.7518 29.5683 41.6825 30.0272C42.6132 29.5683 43.3834 28.8388 43.8919 27.9343L44.0799 27.578L54.0322 8.00369L54.2655 7.5307C54.6029 6.75648 54.7424 5.91051 54.6716 5.06896C54.6007 4.2274 54.3217 3.41667 53.8596 2.70975C53.3976 2.00283 52.767 1.42192 52.0246 1.01931C51.2822 0.616697 50.4513 0.405029 49.6068 0.403359L49.5938 0.377441Z" fill="url(#paint0_linear_66_783)"/>
<path d="M5.34547 30.5589C6.25084 30.5616 7.14055 30.3228 7.92296 29.8673C8.70537 29.4117 9.3522 28.7558 9.79681 27.9671L9.90696 27.7533L13.9112 19.8744L18.9652 9.91554L15.6542 3.35839L15.4728 3.00203C14.9606 2.0981 14.1885 1.36895 13.2568 0.90918C12.3275 1.37001 11.5578 2.09905 11.0473 3.00203L10.8659 3.35839L0.900602 22.9327L0.660864 23.4057C0.323478 24.1799 0.183925 25.0258 0.254767 25.8674C0.325609 26.709 0.604623 27.5197 1.06669 28.2266C1.52876 28.9335 2.15937 29.5144 2.90176 29.917C3.64416 30.3197 4.47502 30.5313 5.31955 30.533L5.34547 30.5589Z" fill="#909090"/>
<path d="M5.34547 30.5589C6.25084 30.5616 7.14055 30.3228 7.92296 29.8673C8.70537 29.4117 9.3522 28.7558 9.79681 27.9671L9.90696 27.7533L13.9112 19.8744L18.9652 9.91554L15.6542 3.35839L15.4728 3.00203C14.9606 2.0981 14.1885 1.36895 13.2568 0.90918C12.3275 1.37001 11.5578 2.09905 11.0473 3.00203L10.8659 3.35839L0.900602 22.9327L0.660864 23.4057C0.323478 24.1799 0.183925 25.0258 0.254767 25.8674C0.325609 26.709 0.604623 27.5197 1.06669 28.2266C1.52876 28.9335 2.15937 29.5144 2.90176 29.917C3.64416 30.3197 4.47502 30.5313 5.31955 30.533L5.34547 30.5589Z" fill="url(#paint1_linear_66_783)"/>
<path d="M18.9459 9.85725L15.6414 3.37785L15.46 3.02149C14.9514 2.11701 14.1812 1.38747 13.2505 0.92864C13.5599 0.777078 13.8832 0.655572 14.2159 0.565794C14.6395 0.458453 15.0748 0.404043 15.5118 0.403809H22.4318C23.3353 0.406304 24.222 0.647276 25.0025 1.10236C25.783 1.55745 26.4295 2.21053 26.8767 2.99557L27.0581 3.35194L36.0061 21.0796L39.3041 27.559L39.4856 27.9153C39.9999 28.8294 40.7793 29.5659 41.721 30.0276C41.0201 30.3683 40.2519 30.5477 39.4726 30.5524H32.5137C31.6112 30.5495 30.7255 30.3082 29.9462 29.8531C29.1668 29.398 28.5215 28.7452 28.0754 27.9607L27.8875 27.6043L18.9459 9.85725Z" fill="#FF8B42"/>
<path d="M63.1032 15.8114C63.0949 15.7379 63.1033 15.6635 63.1278 15.5937C63.1522 15.5239 63.192 15.4606 63.2443 15.4083C63.2966 15.356 63.36 15.3162 63.4298 15.2917C63.4996 15.2673 63.574 15.2589 63.6474 15.2671H64.0362C64.1079 15.2618 64.1799 15.2724 64.247 15.2983C64.3141 15.3241 64.3746 15.3645 64.4242 15.4166C64.4738 15.4687 64.5112 15.5311 64.5337 15.5993C64.5563 15.6676 64.5634 15.74 64.5546 15.8114V17.0684C64.5546 17.3321 64.526 17.5945 64.4703 17.8524H64.5157C64.8965 17.0031 65.5154 16.2824 66.2973 15.7776C67.0793 15.2727 67.9909 15.0054 68.9217 15.0079C71.6365 15.0079 72.589 16.55 72.589 19.239V25.6471C72.5973 25.7206 72.5888 25.795 72.5644 25.8648C72.54 25.9346 72.5001 25.9979 72.4478 26.0502C72.3956 26.1025 72.3322 26.1423 72.2624 26.1668C72.1926 26.1912 72.1182 26.1996 72.0447 26.1914H71.6365C71.564 26.199 71.4908 26.19 71.4223 26.165C71.3538 26.1401 71.2919 26.0998 71.2413 26.0474C71.1907 25.9949 71.1527 25.9316 71.1302 25.8622C71.1078 25.7929 71.1015 25.7193 71.1117 25.6471V19.6342C71.1117 17.9172 70.8331 16.3945 68.7273 16.3945C66.4012 16.3945 64.5805 18.306 64.5805 20.8524V25.6471C64.5907 25.7193 64.5844 25.7929 64.5619 25.8622C64.5395 25.9316 64.5015 25.9949 64.4509 26.0474C64.4003 26.0998 64.3384 26.1401 64.2699 26.165C64.2014 26.19 64.1281 26.199 64.0556 26.1914H63.6474C63.574 26.1996 63.4996 26.1912 63.4298 26.1668C63.36 26.1423 63.2966 26.1025 63.2443 26.0502C63.192 25.9979 63.1522 25.9346 63.1278 25.8648C63.1033 25.795 63.0949 25.7206 63.1032 25.6471V15.8114ZM80.5263 19.5046H81.1742V19.1548C81.1742 17.049 80.0209 16.3297 78.4788 16.3297C77.5426 16.3406 76.6268 16.6048 75.8287 17.0943C75.77 17.1338 75.7037 17.1606 75.6341 17.1732C75.5645 17.1857 75.4931 17.1837 75.4243 17.1673C75.3555 17.1508 75.2908 17.1203 75.2344 17.0777C75.178 17.035 75.1311 16.9811 75.0965 16.9194L74.9605 16.6991C74.916 16.6425 74.8845 16.5768 74.8682 16.5068C74.8518 16.4367 74.851 16.3639 74.8659 16.2935C74.8807 16.223 74.9108 16.1567 74.954 16.0992C74.9972 16.0417 75.0525 15.9943 75.116 15.9604C76.165 15.3319 77.366 15.0025 78.5889 15.0079C81.1807 15.0079 82.6515 16.4593 82.6515 19.2001V25.6795C82.6618 25.7517 82.6554 25.8252 82.633 25.8946C82.6105 25.964 82.5725 26.0273 82.5219 26.0798C82.4713 26.1322 82.4094 26.1725 82.341 26.1974C82.2725 26.2224 82.1992 26.2314 82.1267 26.2238H81.7833C81.7095 26.2333 81.6346 26.2258 81.5642 26.2018C81.4938 26.1778 81.4299 26.138 81.3773 26.0855C81.3247 26.0329 81.2849 25.9689 81.261 25.8986C81.237 25.8282 81.2295 25.7533 81.239 25.6795V24.7789C81.236 24.5032 81.2577 24.2278 81.3038 23.956H81.2455C80.9463 24.6935 80.4365 25.3265 79.7796 25.776C79.1228 26.2254 78.348 26.4713 77.5522 26.483C75.7056 26.483 73.859 25.4009 73.859 23.2951C73.859 19.699 78.4205 19.5046 80.5263 19.5046ZM77.8114 25.1871C79.9172 25.1871 81.1548 23.0165 81.1548 21.1051V20.5867H80.5457C78.8287 20.5867 75.3622 20.6515 75.3622 23.1007C75.3751 24.1504 76.1851 25.1871 77.8114 25.1871ZM84.7379 15.8114C84.7296 15.7379 84.738 15.6635 84.7625 15.5937C84.7869 15.5239 84.8268 15.4606 84.879 15.4083C84.9313 15.356 84.9947 15.3162 85.0645 15.2917C85.1343 15.2673 85.2087 15.2589 85.2821 15.2671H85.6709C85.7426 15.2618 85.8146 15.2724 85.8817 15.2983C85.9488 15.3241 86.0093 15.3645 86.0589 15.4166C86.1085 15.4687 86.1459 15.5311 86.1684 15.5993C86.191 15.6676 86.1981 15.74 86.1893 15.8114V17.0684C86.1893 17.3321 86.1608 17.5945 86.105 17.8524H86.1504C86.4851 17.0487 87.0395 16.3556 87.75 15.8525C88.4605 15.3494 89.2984 15.0567 90.1676 15.0079C92.1827 15.0079 93.2259 15.941 93.5304 17.7422H93.5563C93.9077 16.9596 94.4691 16.2897 95.1783 15.807C95.8875 15.3243 96.7166 15.0477 97.5736 15.0079C100.224 15.0079 101.196 16.55 101.196 19.239V25.6471C101.204 25.72 101.195 25.7938 101.171 25.863C101.147 25.9323 101.108 25.9953 101.056 26.0474C101.005 26.0996 100.942 26.1396 100.873 26.1645C100.804 26.1894 100.731 26.1986 100.658 26.1914H100.263C100.189 26.1996 100.115 26.1912 100.045 26.1668C99.9751 26.1423 99.9117 26.1025 99.8594 26.0502C99.8071 25.9979 99.7673 25.9346 99.7428 25.8648C99.7184 25.795 99.71 25.7206 99.7182 25.6471V19.6083C99.7182 17.833 99.3554 16.3686 97.3792 16.3686C95.1827 16.3686 93.7054 18.6688 93.7054 20.9042V25.6342C93.7167 25.706 93.7114 25.7794 93.6898 25.8488C93.6682 25.9183 93.6309 25.9818 93.5807 26.0344C93.5306 26.0871 93.469 26.1274 93.4007 26.1524C93.3324 26.1774 93.2593 26.1863 93.187 26.1784H92.7723C92.6988 26.1867 92.6245 26.1783 92.5547 26.1538C92.4849 26.1294 92.4215 26.0895 92.3692 26.0373C92.3169 25.985 92.2771 25.9216 92.2527 25.8518C92.2282 25.782 92.2198 25.7076 92.2281 25.6342V19.6083C92.2281 17.9625 91.9883 16.3686 89.9279 16.3686C87.7119 16.3686 86.1957 18.7142 86.1957 20.9042V25.6342C86.206 25.7063 86.1997 25.7799 86.1772 25.8492C86.1548 25.9186 86.1168 25.9819 86.0662 26.0344C86.0156 26.0869 85.9537 26.1271 85.8852 26.1521C85.8167 26.177 85.7434 26.186 85.6709 26.1784H85.2627C85.1892 26.1867 85.1148 26.1783 85.0451 26.1538C84.9753 26.1294 84.9119 26.0895 84.8596 26.0373C84.8073 25.985 84.7675 25.9216 84.743 25.8518C84.7186 25.782 84.7102 25.7076 84.7184 25.6342L84.7379 15.8114ZM107.992 15.0079C110.902 15.0079 112.528 17.1137 112.528 20.1915C112.528 20.2652 112.513 20.3381 112.484 20.4059C112.455 20.4737 112.413 20.5349 112.36 20.5858C112.306 20.6367 112.243 20.6762 112.174 20.702C112.105 20.7278 112.031 20.7392 111.958 20.7357H104.124C104.189 23.5154 106.1 25.1028 108.362 25.1028C109.402 25.0981 110.41 24.7445 111.226 24.0985C111.277 24.0496 111.34 24.0135 111.408 23.9932C111.476 23.9728 111.548 23.9688 111.618 23.9814C111.688 23.994 111.754 24.0229 111.811 24.0658C111.868 24.1086 111.914 24.1643 111.945 24.2281L112.12 24.4938C112.158 24.5504 112.184 24.614 112.197 24.681C112.209 24.7479 112.209 24.8167 112.194 24.8833C112.18 24.9499 112.152 25.0128 112.112 25.0684C112.073 25.1239 112.022 25.1709 111.964 25.2065C110.917 26.0122 109.638 26.4597 108.316 26.483C107.558 26.5077 106.803 26.3757 106.098 26.0953C105.393 25.8148 104.754 25.392 104.22 24.8532C103.686 24.3143 103.269 23.6711 102.995 22.9638C102.721 22.2564 102.596 21.5001 102.627 20.7422C102.627 17.1591 105.038 15.0079 107.992 15.0079ZM111.051 19.6537C110.96 17.3535 109.573 16.2196 107.941 16.2196C106.998 16.2191 106.09 16.5712 105.395 17.2068C104.699 17.8424 104.267 18.7153 104.183 19.6537H111.051ZM119.584 15.0079C120.9 14.9914 122.181 15.4285 123.213 16.2455C123.273 16.2839 123.324 16.3358 123.361 16.397C123.399 16.4583 123.421 16.5274 123.428 16.5988C123.434 16.6703 123.424 16.7422 123.397 16.809C123.371 16.8759 123.33 16.9358 123.277 16.9842L123.128 17.2239C122.934 17.5284 122.694 17.5284 122.39 17.334C121.606 16.7024 120.635 16.3491 119.629 16.3297C119.055 16.3229 118.486 16.4336 117.956 16.6549C117.426 16.8763 116.947 17.2036 116.548 17.6169C116.15 18.0301 115.84 18.5206 115.637 19.058C115.435 19.5955 115.345 20.1686 115.372 20.7422C115.349 21.3153 115.442 21.8873 115.647 22.423C115.852 22.9587 116.164 23.4469 116.565 23.8577C116.965 24.2684 117.445 24.593 117.976 24.8116C118.506 25.0302 119.075 25.1381 119.649 25.1288C120.775 25.1187 121.86 24.71 122.714 23.9754C122.763 23.9221 122.825 23.8821 122.894 23.8591C122.963 23.8361 123.037 23.8308 123.109 23.8437C123.18 23.8566 123.247 23.8873 123.304 23.9329C123.361 23.9786 123.405 24.0378 123.433 24.105L123.582 24.3253C123.622 24.3816 123.651 24.4454 123.667 24.5129C123.682 24.5805 123.684 24.6505 123.672 24.7188C123.66 24.7871 123.634 24.8522 123.596 24.9104C123.559 24.9686 123.51 25.0186 123.452 25.0575C122.36 25.9643 120.984 26.4575 119.565 26.4506C118.807 26.4786 118.051 26.3502 117.345 26.0735C116.638 25.7968 115.996 25.3776 115.459 24.8422C114.922 24.3067 114.501 23.6663 114.221 22.961C113.942 22.2556 113.811 21.5004 113.837 20.7422C113.813 19.9817 113.946 19.2245 114.227 18.5173C114.508 17.8102 114.93 17.168 115.469 16.6306C116.007 16.0933 116.651 15.672 117.358 15.3929C118.066 15.1138 118.824 14.9828 119.584 15.0079ZM125.079 11.4702C125.067 11.3984 125.073 11.3249 125.094 11.2555C125.116 11.1861 125.153 11.1226 125.203 11.0699C125.253 11.0173 125.315 10.9769 125.383 10.9519C125.452 10.927 125.525 10.9181 125.597 10.9259H126.012C126.085 10.9177 126.16 10.9261 126.229 10.9505C126.299 10.975 126.362 11.0148 126.415 11.0671C126.467 11.1194 126.507 11.1828 126.531 11.2525C126.556 11.3223 126.564 11.3967 126.556 11.4702V16.9194C126.556 17.2174 126.528 17.5148 126.472 17.807H126.511C126.895 16.9722 127.511 16.265 128.285 15.769C129.059 15.273 129.958 15.0089 130.878 15.0079C133.593 15.0079 134.545 16.55 134.545 19.239V25.6471C134.545 25.997 134.377 26.1914 134.027 26.1914H133.612C133.539 26.1996 133.464 26.1912 133.394 26.1668C133.325 26.1423 133.261 26.1025 133.209 26.0502C133.157 25.9979 133.117 25.9346 133.092 25.8648C133.068 25.795 133.059 25.7206 133.068 25.6471V19.6342C133.068 17.9172 132.809 16.3945 130.683 16.3945C128.383 16.3945 126.556 18.2865 126.556 20.9301V25.6601C126.564 25.7336 126.556 25.8079 126.531 25.8777C126.507 25.9475 126.467 26.0109 126.415 26.0632C126.362 26.1155 126.299 26.1553 126.229 26.1797C126.16 26.2042 126.085 26.2126 126.012 26.2043H125.597C125.525 26.2122 125.452 26.2033 125.383 26.1783C125.315 26.1534 125.253 26.113 125.203 26.0603C125.153 26.0077 125.116 25.9442 125.094 25.8748C125.073 25.8054 125.067 25.7319 125.079 25.6601V11.4702ZM141.342 15.0079C144.251 15.0079 145.877 17.1137 145.877 20.1915C145.878 20.2646 145.863 20.337 145.834 20.4043C145.806 20.4717 145.764 20.5326 145.711 20.5834C145.659 20.6342 145.596 20.6738 145.528 20.7C145.46 20.7262 145.387 20.7383 145.314 20.7357H137.48C137.545 23.5154 139.456 25.1028 141.711 25.1028C142.753 25.0981 143.764 24.7445 144.582 24.0985C144.633 24.0496 144.695 24.0135 144.762 23.9931C144.83 23.9727 144.901 23.9687 144.971 23.9813C145.041 23.994 145.106 24.0229 145.162 24.0658C145.219 24.1087 145.264 24.1644 145.294 24.2281L145.469 24.4938C145.508 24.55 145.534 24.6133 145.547 24.68C145.561 24.7466 145.56 24.8153 145.546 24.8818C145.532 24.9484 145.505 25.0114 145.466 25.0672C145.428 25.123 145.378 25.1704 145.32 25.2065C144.271 26.0097 142.993 26.457 141.672 26.483C140.915 26.5101 140.16 26.3811 139.455 26.1039C138.75 25.8267 138.109 25.4073 137.573 24.8718C137.037 24.3363 136.617 23.6962 136.339 22.9913C136.061 22.2864 135.931 21.5319 135.958 20.7746C135.958 17.1591 138.387 15.0079 141.342 15.0079ZM144.407 19.6537C144.322 17.3535 142.929 16.2196 141.297 16.2196C140.355 16.2177 139.446 16.5696 138.752 17.2056C138.057 17.8416 137.626 18.7153 137.545 19.6537H144.407ZM153.245 19.5046H153.892V19.1548C153.892 17.049 152.739 16.3297 151.197 16.3297C150.262 16.3368 149.348 16.6014 148.553 17.0943C148.494 17.1339 148.428 17.1608 148.357 17.1734C148.287 17.1861 148.215 17.1841 148.146 17.1677C148.077 17.1513 148.012 17.1208 147.955 17.078C147.898 17.0353 147.85 16.9813 147.815 16.9194L147.685 16.6991C147.641 16.6429 147.609 16.5776 147.592 16.5078C147.575 16.4381 147.574 16.3654 147.588 16.2951C147.602 16.2247 147.631 16.1583 147.674 16.1005C147.717 16.0427 147.771 15.9949 147.834 15.9604C148.883 15.3319 150.084 15.0025 151.307 15.0079C153.899 15.0079 155.37 16.4593 155.37 19.2001V25.6795C155.38 25.7517 155.374 25.8252 155.351 25.8946C155.329 25.964 155.291 26.0273 155.24 26.0798C155.19 26.1322 155.128 26.1725 155.059 26.1974C154.991 26.2224 154.917 26.2314 154.845 26.2238H154.463C154.389 26.2333 154.314 26.2258 154.244 26.2018C154.173 26.1778 154.109 26.138 154.057 26.0855C154.004 26.0329 153.964 25.9689 153.94 25.8986C153.916 25.8282 153.909 25.7533 153.918 25.6795V24.7789C153.915 24.5032 153.937 24.2278 153.983 23.956H153.938C153.64 24.6895 153.135 25.3198 152.483 25.7689C151.831 26.218 151.062 26.4663 150.271 26.483C148.424 26.483 146.577 25.4009 146.577 23.2951C146.577 19.699 151.139 19.5046 153.245 19.5046ZM150.53 25.1871C152.635 25.1871 153.873 23.0165 153.873 21.1051V20.5867H153.264C151.547 20.5867 148.08 20.6515 148.08 23.1007C148.093 24.1504 148.897 25.1871 150.53 25.1871ZM157.476 15.8114C157.465 15.7392 157.472 15.6657 157.494 15.5963C157.517 15.5269 157.555 15.4636 157.605 15.4111C157.656 15.3587 157.718 15.3184 157.786 15.2935C157.855 15.2685 157.928 15.2595 158 15.2671H158.35C158.419 15.2582 158.489 15.2648 158.555 15.2864C158.621 15.3079 158.681 15.3439 158.731 15.3917C158.782 15.4395 158.821 15.4979 158.846 15.5626C158.87 15.6274 158.881 15.6969 158.875 15.766V16.55C158.877 16.7978 158.855 17.0451 158.81 17.2887H158.849C159.196 16.5783 159.742 15.9842 160.421 15.5792C161.1 15.1742 161.882 14.9757 162.672 15.0079C165.607 15.0079 167.428 17.3535 167.428 20.7422C167.428 24.1309 165.361 26.483 162.517 26.483C161.767 26.4917 161.031 26.2882 160.392 25.8961C159.753 25.504 159.239 24.9392 158.908 24.267H158.869C158.927 24.5832 158.955 24.9046 158.953 25.226V30.0207C158.961 30.0942 158.953 30.1686 158.928 30.2384C158.904 30.3081 158.864 30.3715 158.812 30.4238C158.759 30.4761 158.696 30.5159 158.626 30.5404C158.557 30.5648 158.482 30.5732 158.409 30.565H158C157.928 30.5726 157.855 30.5636 157.786 30.5386C157.718 30.5137 157.656 30.4734 157.605 30.421C157.555 30.3685 157.517 30.3052 157.494 30.2358C157.472 30.1664 157.465 30.0929 157.476 30.0207V15.8114ZM162.361 25.1288C164.305 25.1288 165.905 23.5219 165.905 20.7422C165.905 18.0662 164.467 16.3557 162.452 16.3557C160.625 16.3557 158.908 17.6515 158.908 20.7616C158.908 22.9517 160.126 25.1288 162.361 25.1288Z" fill="white"/>
</g>
<defs>
<linearGradient id="paint0_linear_66_783" x1="51.0588" y1="1.92049" x2="40.0784" y2="28.2734" gradientUnits="userSpaceOnUse">
<stop stop-color="#FD5200"/>
<stop offset="0.484375" stop-color="#FA5A08"/>
<stop offset="1" stop-color="#E54622"/>
</linearGradient>
<linearGradient id="paint1_linear_66_783" x1="1.09788" y1="29.3713" x2="16.4599" y2="7.95204" gradientUnits="userSpaceOnUse">
<stop stop-color="#FD5200"/>
<stop offset="0.484375" stop-color="#FA5A08"/>
<stop offset="1" stop-color="#E54622"/>
</linearGradient>
<clipPath id="clip0_66_783">
<rect width="168" height="30.4532" fill="white" transform="translate(0 0.273438)"/>
</clipPath>
</defs>
</svg>
