<svg width="166" height="49" viewBox="0 0 166 49" fill="none" xmlns="http://www.w3.org/2000/svg">
<g clip-path="url(#clip0_66_767)">
<path d="M19.6334 8.04492V21.2937H7.46175V8.04492H1.68701V39.6715H7.46331V26.8527H19.6318V39.6715H25.4097V8.04492H19.6334ZM43.8986 29.4493C43.8986 30.717 43.395 31.9327 42.4986 32.8291C41.6023 33.7254 40.3865 34.229 39.1189 34.229C37.8512 34.229 36.6355 33.7254 35.7391 32.8291C34.8427 31.9327 34.3391 30.717 34.3391 29.4493V15.9019H28.8599V29.4493C28.8599 32.1675 29.9396 34.7743 31.8617 36.6963C33.7837 38.6183 36.3905 39.6981 39.1087 39.6981C41.8269 39.6981 44.4337 38.6183 46.3557 36.6963C48.2777 34.7743 49.3575 32.1675 49.3575 29.4493V15.9019H43.8986V29.4493ZM84.4984 17.2979C84.4984 14.52 86.3352 13.6399 88.3472 13.6399C89.9699 13.6399 92.1115 14.8749 93.5138 16.3725L97.1015 12.1423C95.31 9.71919 91.677 8.04492 88.702 8.04492C82.7569 8.04492 78.4579 11.5263 78.4579 17.2979C78.4579 28.0064 91.5456 24.6078 91.5456 30.6014C91.5456 32.4492 89.751 34.0813 87.6969 34.0813C84.4562 34.0813 83.4057 32.4977 81.9174 30.8218L77.9342 34.963C80.4823 38.0895 83.6245 39.6778 87.3873 39.6778C93.0354 39.6778 97.5783 36.1542 97.5783 30.6452C97.5783 18.758 84.489 22.4521 84.489 17.2979M165.467 34.619C162.229 34.619 161.308 33.2183 161.308 31.0735V21.5766H166.342V16.7649H161.308V10.4164L155.752 12.9098V32.2538C155.752 37.2016 159.167 39.695 163.847 39.695C164.582 39.7075 165.317 39.6481 166.039 39.5199L167.394 34.5299C166.783 34.5721 166.081 34.6144 165.467 34.6144M64.7558 16.0598C62.0419 16.0598 60.1473 16.8477 58.3151 18.6439V8.23408H52.828V27.5296C52.828 34.7519 58.0493 39.7013 63.9179 39.7013C70.4274 39.7013 76.1536 34.6644 76.1536 27.8829C76.1536 21.1858 70.8838 16.0645 64.7558 16.0645M64.7214 34.1782C63.9036 34.1782 63.0938 34.0171 62.3383 33.7042C61.5828 33.3912 60.8963 32.9325 60.318 32.3543C59.7398 31.776 59.2811 31.0895 58.9681 30.334C58.6552 29.5784 58.4941 28.7687 58.4941 27.9509C58.4941 27.1331 58.6552 26.3233 58.9681 25.5678C59.2811 24.8123 59.7398 24.1258 60.318 23.5475C60.8963 22.9693 61.5828 22.5106 62.3383 22.1976C63.0938 21.8847 63.9036 21.7236 64.7214 21.7236C66.373 21.7236 67.9569 22.3797 69.1248 23.5475C70.2926 24.7154 70.9487 26.2993 70.9487 27.9509C70.9487 29.6025 70.2926 31.1864 69.1248 32.3543C67.9569 33.5221 66.373 34.1782 64.7214 34.1782ZM124.348 27.5952C124.348 20.8012 118.634 15.7769 112.112 15.7769C106.245 15.7769 101.022 20.7246 101.022 27.9485V47.255H106.509V36.8311C108.338 38.6242 110.236 39.4152 112.947 39.4152C119.075 39.4152 124.348 34.2939 124.348 27.5952ZM119.152 27.5265C119.152 29.178 118.495 30.762 117.328 31.9298C116.16 33.0977 114.576 33.7538 112.924 33.7538C111.273 33.7538 109.689 33.0977 108.521 31.9298C107.353 30.762 106.697 29.178 106.697 27.5265C106.697 25.8749 107.353 24.2909 108.521 23.1231C109.689 21.9552 111.273 21.2992 112.924 21.2992C114.576 21.2992 116.16 21.9552 117.328 23.1231C118.495 24.2909 119.152 25.8749 119.152 27.5265Z" fill="#33475B"/>
<path d="M142.08 15.5112V9.9975C142.808 9.65697 143.425 9.1165 143.858 8.43901C144.292 7.76151 144.524 6.97485 144.528 6.1706V6.04398C144.528 3.69906 142.627 1.79812 140.282 1.79812H140.155C139.029 1.79812 137.949 2.24545 137.153 3.0417C136.357 3.83796 135.909 4.91791 135.909 6.04398V6.1706C135.913 6.97485 136.145 7.76151 136.578 8.43901C137.012 9.1165 137.629 9.65697 138.357 9.9975V15.5112C136.263 15.8318 134.291 16.7001 132.64 18.028L117.519 6.25033C117.627 5.86107 117.683 5.46088 117.689 5.05911C117.691 4.11287 117.412 3.18734 116.888 2.39958C116.364 1.61182 115.618 0.997227 114.744 0.633544C113.871 0.269862 112.909 0.173427 111.981 0.356437C111.052 0.539447 110.199 0.993681 109.529 1.66168C108.859 2.32968 108.401 3.18144 108.215 4.10921C108.029 5.03699 108.123 5.9991 108.484 6.87384C108.844 7.74859 109.456 8.49668 110.243 9.02348C111.029 9.55027 111.953 9.83212 112.899 9.83336C113.727 9.82946 114.54 9.60845 115.255 9.19241L130.145 20.7794C128.808 22.8002 128.11 25.1771 128.143 27.6003C128.176 30.0235 128.938 32.3805 130.33 34.3643L125.801 38.8946C125.435 38.7776 125.054 38.7154 124.669 38.7102C123.893 38.7108 123.134 38.9416 122.488 39.3736C121.842 39.8055 121.339 40.419 121.042 41.1368C120.745 41.8545 120.668 42.6441 120.82 43.4059C120.971 44.1676 121.345 44.8673 121.895 45.4166C122.444 45.9658 123.144 46.3399 123.905 46.4916C124.667 46.6432 125.457 46.5657 126.174 46.2688C126.892 45.9718 127.506 45.4688 127.938 44.8232C128.37 44.1776 128.6 43.4185 128.601 42.6418C128.596 42.2575 128.534 41.876 128.417 41.51L132.897 37.0281C134.358 38.1529 136.057 38.9283 137.864 39.295C139.671 39.6617 141.538 39.6099 143.322 39.1437C145.106 38.6774 146.759 37.8089 148.156 36.6049C149.552 35.4009 150.654 33.8932 151.378 32.1973C152.102 30.5015 152.428 28.6625 152.331 26.8212C152.234 24.9799 151.717 23.1852 150.82 21.5746C149.922 19.964 148.668 18.5801 147.153 17.5291C145.638 16.4782 143.902 15.7879 142.08 15.5112ZM140.222 33.6452C139.394 33.6679 138.57 33.5245 137.799 33.2234C137.027 32.9223 136.323 32.4695 135.73 31.8919C135.136 31.3143 134.664 30.6236 134.342 29.8605C134.02 29.0974 133.853 28.2775 133.853 27.4491C133.853 26.6208 134.02 25.8009 134.342 25.0378C134.664 24.2747 135.136 23.5839 135.73 23.0063C136.323 22.4287 137.027 21.976 137.799 21.6748C138.57 21.3737 139.394 21.2303 140.222 21.2531C141.827 21.3093 143.348 21.9861 144.463 23.141C145.579 24.2959 146.203 25.8387 146.204 27.4445C146.205 29.0504 145.582 30.5938 144.468 31.7498C143.353 32.9059 141.833 33.5842 140.229 33.642" fill="#FF7A59"/>
</g>
<defs>
<clipPath id="clip0_66_767">
<rect width="165.707" height="48.4615" fill="white" transform="translate(0 0.5)"/>
</clipPath>
</defs>
</svg>
