<svg width="66" height="69" viewBox="0 0 66 69" fill="none" xmlns="http://www.w3.org/2000/svg">
<path d="M46.2654 48.6026C48.7009 52.8289 51.1092 57.0072 53.5157 61.181C42.8593 69.3394 26.28 70.3254 14.0067 60.9302C-0.117283 50.11 -2.43868 31.6475 5.12306 18.3574C13.8202 3.07094 30.0953 -0.309757 40.5742 2.16918C40.2908 2.78484 34.0147 15.8051 34.0147 15.8051C34.0147 15.8051 33.5185 15.8377 33.2379 15.8431C30.1405 15.9744 27.8336 16.6951 25.361 17.9735C22.6483 19.3891 20.3235 21.4475 18.5899 23.969C16.8563 26.4904 15.7667 29.3981 15.4163 32.4379C15.0507 35.5206 15.477 38.6457 16.6549 41.5179C17.6508 43.9462 19.0596 46.1028 20.9482 47.9235C23.8454 50.7193 27.2931 52.4504 31.2895 53.0235C35.074 53.5668 38.7136 53.029 42.1242 51.3151C43.4035 50.6732 44.4917 49.9642 45.7638 48.9919C45.9259 48.8868 46.0698 48.7538 46.2654 48.6026Z" fill="#EF492D"/>
<path d="M46.2895 11.5367C45.6711 10.9283 45.098 10.367 44.5276 9.80202C44.1872 9.46522 43.8594 9.11484 43.5109 8.78618C43.3859 8.66758 43.2393 8.50551 43.2393 8.50551C43.2393 8.50551 43.3579 8.25382 43.4086 8.1506C44.0758 6.81155 45.1215 5.83283 46.3619 5.0542C47.7335 4.18666 49.3316 3.74524 50.954 3.78576C53.03 3.8265 54.9603 4.34348 56.5891 5.73595C57.7914 6.76356 58.408 8.06731 58.5167 9.62366C58.6977 12.2493 57.6113 14.2601 55.4538 15.6635C54.1862 16.4892 52.8191 17.1275 51.4483 17.8835C50.6924 18.3008 50.0459 18.6675 49.3071 19.4226C48.6571 20.1804 48.6254 20.8947 48.6254 20.8947L58.446 20.8821V25.256H43.2872C43.2872 25.256 43.2872 24.9572 43.2872 24.8332C43.2293 22.6838 43.4801 20.6612 44.4642 18.7092C45.3696 16.9183 46.7766 15.6073 48.4669 14.5978C49.7689 13.8201 51.1396 13.1583 52.4443 12.3842C53.2492 11.907 53.8177 11.2072 53.8132 10.1922C53.8132 9.32126 53.1794 8.54716 52.2741 8.30542C50.1392 7.7296 47.9663 8.64856 46.8363 10.6024C46.6716 10.8876 46.5032 11.171 46.2895 11.5367Z" fill="#EF492D"/>
<path d="M65.2848 43.9525L57.0087 29.6602H40.6313L32.3018 44.1001H48.7996L56.9408 58.3245L65.2848 43.9525Z" fill="#EF492D"/>
</svg>
