<svg width="168" height="41" viewBox="0 0 168 41" fill="none" xmlns="http://www.w3.org/2000/svg">
<path d="M19.916 8.42994C19.1478 8.00121 16.9454 8.2663 14.3003 9.08951C9.67104 12.2709 5.76402 16.9579 5.49138 24.4845C5.44174 24.6644 4.98514 24.46 4.89483 24.4043C3.64474 21.9954 3.14948 19.4588 4.19327 15.7995C4.38783 15.4738 3.75176 15.0729 3.63739 15.1874C3.40828 15.4181 2.45317 16.4411 1.81882 17.5473C-1.32555 23.0314 0.730729 30.0582 6.23198 33.1333C11.7321 36.2133 18.6775 34.2265 21.74 28.6951C25.2829 22.3108 21.993 9.59608 19.916 8.42994Z" fill="#82B541"/>
<path d="M39.6032 11.4946C33.0818 11.4946 28.3481 16.369 28.3481 23.085C28.3481 29.8561 33.0695 34.5852 39.8304 34.5852C43.2455 34.5852 45.9492 33.5116 48.0994 31.3015C48.7416 30.6043 48.8107 29.9324 48.8107 29.6756C48.8107 28.5807 48.0009 27.7855 46.8851 27.7855C46.3227 27.7855 45.8523 27.999 45.3127 28.5006C44.0952 29.6412 42.4918 30.8064 39.8304 30.8064C36.1297 30.8064 33.1201 28.0129 32.9305 24.4256H47.6595C49.2612 24.4256 50.0392 23.6728 50.0392 22.1246C50.0392 21.6688 50.0392 21.3399 49.948 20.691C49.1545 14.9329 45.2878 11.4954 39.6036 11.4954L39.6032 11.4946ZM39.6032 15.0901C43.1395 15.0901 45.4086 17.3559 45.5486 21.0127H32.9351C33.2662 17.6283 36.1125 15.0901 39.6032 15.0901Z" fill="white"/>
<path d="M64.1047 11.4946C61.1422 11.4946 58.209 13.2073 57.0631 15.5859V14.1159C57.0631 11.8386 55.3076 11.7233 54.956 11.7233C53.9159 11.7233 52.8042 12.3517 52.8042 14.1159V31.871C52.8042 34.2358 54.6728 34.3553 55.0472 34.3553C55.4216 34.3553 57.2911 34.2358 57.2911 31.871V22.353C57.2911 18.2117 59.6252 15.3192 62.967 15.3192C66.2038 15.3192 67.7778 17.4548 67.7778 21.8489V31.871C67.7778 34.2358 69.6472 34.3553 70.0216 34.3553C70.396 34.3553 72.2646 34.2358 72.2646 31.871V20.4323C72.2646 16.1118 70.1209 11.496 64.1047 11.496V11.4946Z" fill="white"/>
<path d="M92.5656 11.7241C91.5288 11.7241 90.7768 12.3321 90.3291 13.5284L84.1905 29.0482L78.0987 13.5284C77.6217 12.3142 76.8754 11.7241 75.8165 11.7241C74.5795 11.7241 73.5728 12.6946 73.5728 13.8877C73.5728 14.183 73.6061 14.566 73.8544 15.1641L80.909 31.9114C81.7497 33.9318 83.1324 34.3557 84.1448 34.3557C85.1565 34.3557 86.5401 33.9318 87.3825 31.9124L94.483 15.072C94.7256 14.4812 94.7631 14.0475 94.7631 13.8422C94.7631 12.6352 93.8173 11.7241 92.5656 11.7241Z" fill="white"/>
<path d="M105.608 11.4953C102.738 11.4953 100.065 12.2988 98.0826 13.7562C97.4102 14.2225 97.0831 14.8043 97.0831 15.5359C97.0831 16.5432 97.8481 17.3328 98.8264 17.3328C99.2496 17.3328 99.7233 17.1634 100.158 16.8573C101.862 15.7151 103.464 15.1824 105.197 15.1824C108.515 15.1824 110.419 16.8786 110.419 19.8367V20.3269C102.972 20.335 95.3979 21.2392 95.3979 27.7526C95.3979 32.4404 99.3826 34.5393 103.331 34.5393C106.476 34.5393 108.988 33.2865 110.599 30.9143V32.055C110.599 33.7537 111.734 34.3561 112.707 34.3561C112.912 34.3561 114.722 34.2914 114.722 32.055V20.1104C114.722 14.7148 111.314 11.4941 105.607 11.4941L105.608 11.4953ZM109.475 23.6481H110.419V24.6873C110.419 28.4881 108.012 30.9437 104.288 30.9437C103.277 30.9437 99.9773 30.7072 99.9773 27.6609C99.9772 24.0638 105.398 23.6481 109.475 23.6481Z" fill="white"/>
<path d="M126.409 15.8225C128.372 15.8225 128.471 14.2867 128.471 13.9789C128.471 13.0657 127.929 12.0895 126.409 12.0895H122.372V7.98431C122.372 6.15054 121.189 5.5 120.175 5.5C119.8 5.5 117.932 5.61949 117.932 7.98431V27.4785C117.932 31.9773 120.139 34.3552 124.316 34.3552C125.396 34.3552 126.45 34.1629 127.138 33.8405C127.928 33.4445 128.38 32.7932 128.38 32.0542C128.38 31.0118 127.628 30.2558 126.591 30.2558C126.391 30.2558 126.106 30.3057 125.792 30.3965C125.408 30.4931 125.147 30.5307 124.863 30.5307C123.163 30.5307 122.372 29.4154 122.372 27.0203V15.8206H126.409V15.8225Z" fill="white"/>
<path d="M141.245 11.4946C134.459 11.4946 129.535 16.3306 129.535 22.9929C129.535 26.2366 130.728 29.1929 132.893 31.317C135.042 33.424 138.008 34.5844 141.245 34.5844C147.946 34.5844 153 29.6012 153 22.9931C153 16.3307 148.055 11.4948 141.245 11.4948L141.245 11.4946ZM141.245 30.7595C136.591 30.7595 134.157 26.8522 134.157 22.9924C134.157 17.6884 137.831 15.2729 141.245 15.2729C144.658 15.2729 148.332 17.6884 148.332 22.9924C148.332 28.3292 144.658 30.7595 141.245 30.7595Z" fill="white"/>
</svg>
