<svg width="108" height="13" viewBox="0 0 108 13" fill="none" xmlns="http://www.w3.org/2000/svg">
<path d="M4.66445 0.742584C3.58754 0.988196 2.70586 1.46053 1.95013 2.21626C0.822829 3.34985 0.293818 4.80463 0.369391 6.59949C0.470155 9.11859 1.60375 10.8253 3.6883 11.6314C4.50701 11.9463 5.11789 12.047 6.2074 12.0407C7.0513 12.0344 7.27172 12.0093 7.80703 11.8707C8.15341 11.7762 8.66352 11.5873 8.94692 11.4488C9.45074 11.1968 10.175 10.63 10.175 10.4852C10.1687 10.4411 9.94826 10.1703 9.68376 9.88061L9.19253 9.3516L8.81467 9.60351C7.8889 10.2333 7.14577 10.4663 6.08145 10.4663C4.8282 10.4663 3.92132 10.1199 3.153 9.34531C2.36578 8.55809 2.0257 7.66381 2.0257 6.41056C2.0257 5.54776 2.13276 5.08803 2.50433 4.3323C2.98296 3.34985 3.87094 2.6445 5.01083 2.34221C5.57133 2.19736 6.66714 2.19107 7.21504 2.33591C7.73146 2.47446 8.32974 2.75156 8.78948 3.06645L9.15475 3.31206L9.61448 2.78305C9.87269 2.48706 10.0868 2.22255 10.0994 2.19107C10.1246 2.11549 9.43185 1.5487 9.03509 1.32198C8.58795 1.07636 7.86371 0.818157 7.29061 0.704797C6.63565 0.578842 5.30053 0.597736 4.66445 0.742584Z" fill="#2F39BF"/>
<path d="M11.6885 6.33176V11.8423H15.4545H19.2143V11.1936C19.2143 10.7339 19.1891 10.5072 19.1261 10.4379C19.0505 10.3434 18.786 10.3308 16.4748 10.3308C15.0641 10.3308 13.7793 10.3119 13.6156 10.293L13.3259 10.249V5.53824V0.821229H12.5072H11.6885V6.33176Z" fill="#2F39BF"/>
<path d="M25.5905 0.641522C24.3436 0.811561 23.2667 1.30908 22.4102 2.11519C20.7728 3.65184 20.2564 6.48583 21.1884 8.8097C21.8371 10.4408 23.1848 11.5429 25.0175 11.946C25.6283 12.0782 27.102 12.0971 27.6625 11.9775C29.8982 11.5114 31.3341 10.1826 31.8946 8.07286C32.0331 7.55015 32.0583 7.32973 32.0646 6.46064C32.0709 5.32705 31.9765 4.73506 31.6553 3.91635C30.9877 2.24745 29.6148 1.10756 27.8199 0.735988C27.2028 0.610033 26.1385 0.565949 25.5905 0.641522ZM27.5303 2.27264C28.2482 2.45527 28.7268 2.73237 29.2684 3.28028C29.7911 3.79669 30.1186 4.36979 30.3139 5.10662C30.4713 5.67972 30.4776 7.1219 30.3202 7.6887C29.936 9.13088 28.9095 10.1385 27.524 10.4282C26.8942 10.5605 25.9243 10.5479 25.3386 10.3967C24.0728 10.0755 23.147 9.21276 22.6936 7.94061C22.5047 7.4242 22.4984 7.36752 22.4984 6.33469C22.4984 5.30185 22.5047 5.24517 22.6936 4.72876C23.147 3.45661 24.0602 2.60012 25.326 2.27264C25.9432 2.1089 26.8942 2.1089 27.5303 2.27264Z" fill="#2F39BF"/>
<path d="M33.7421 0.734542C33.6854 0.747137 33.6162 0.82271 33.5973 0.898283C33.5784 0.973856 33.5721 2.69314 33.5847 4.72102C33.6162 8.80825 33.6036 8.69489 34.057 9.62696C34.353 10.2504 35.1717 11.0754 35.7763 11.3651C36.7084 11.8186 37.5837 11.9886 38.7047 11.9382C39.5423 11.8941 40.0273 11.7871 40.5941 11.5037C41.4443 11.088 41.9859 10.5275 42.3952 9.65845C42.7794 8.83344 42.8298 8.55634 42.899 6.85595C42.9683 5.19964 42.9557 0.847901 42.8802 0.778626C42.855 0.753435 42.5212 0.728244 42.137 0.721946C41.5324 0.715649 41.4254 0.728244 41.3561 0.829008C41.2931 0.910879 41.2679 1.73588 41.2427 4.51319C41.2112 7.86359 41.1987 8.1092 41.079 8.47447C40.6822 9.72143 39.662 10.4457 38.3269 10.4457C37.0925 10.4394 36.0912 9.87887 35.6189 8.91531C35.4992 8.6634 35.3669 8.31703 35.3292 8.14699C35.2851 7.94546 35.2473 6.53477 35.2284 4.27388L35.1969 0.715649H34.523C34.1515 0.715649 33.7988 0.721946 33.7421 0.734542Z" fill="#2F39BF"/>
<path d="M44.458 6.298V11.8211L45.8939 11.8652C47.5754 11.9219 49.704 11.8274 50.3149 11.6763C51.0266 11.4936 51.8327 11.0528 52.368 10.5616C53.7787 9.23905 54.3644 7.49457 54.0684 5.49189C53.659 2.70829 52.0468 1.11496 49.4206 0.875643C49.0302 0.844155 47.7517 0.806368 46.5803 0.800071L44.458 0.781177V6.298ZM49.5907 2.48157C51.3981 2.85314 52.4876 4.26383 52.475 6.22873C52.4624 8.08656 51.5241 9.51615 50 10.0011C49.4395 10.1774 48.646 10.2593 47.3991 10.2593C46.3599 10.2593 46.341 10.2593 46.1899 10.1018L46.0324 9.9507V6.32319C46.0324 2.69569 46.045 2.51936 46.2466 2.36821C46.3662 2.28004 49.0365 2.36821 49.5907 2.48157Z" fill="#2F39BF"/>
<path d="M55.6616 0.817714C55.6428 0.849203 55.6742 1.04443 55.7435 1.25226C56.0269 2.15284 59.4277 11.3979 59.5411 11.5806C59.6796 11.8136 59.8874 11.8766 60.555 11.8829C61.1029 11.8829 61.1218 11.864 61.4997 10.7682C62.4191 8.1357 63.6787 4.55228 63.748 4.38854L63.8235 4.1996L63.8865 4.35705C63.9243 4.44522 64.4848 6.01965 65.1335 7.86489C65.7884 9.70384 66.3804 11.3224 66.4497 11.4672C66.6134 11.7821 66.6953 11.8262 67.2558 11.8766C67.8226 11.9332 68.1186 11.8262 68.2445 11.5239C68.339 11.3035 71.9602 1.1389 72.0232 0.924776C72.061 0.805119 72.0295 0.798821 71.1793 0.805119C70.4802 0.805119 70.2724 0.824012 70.1968 0.899585C70.1465 0.949967 69.8568 1.77497 69.5482 2.72593C69.2459 3.67689 68.6287 5.56622 68.1879 6.92653C67.451 9.17482 67.3692 9.38895 67.2936 9.2504C67.2054 9.07406 65.6877 4.69083 65.0075 2.62517C64.7556 1.86314 64.51 1.16409 64.4659 1.06962C64.3085 0.761035 63.5905 0.672866 63.3071 0.924776C63.2378 0.987753 63.1371 1.17669 63.0804 1.35932C62.6081 2.8078 60.5613 8.79696 60.4605 9.03627C60.385 9.20002 60.3094 9.31337 60.2842 9.28818C60.259 9.26299 59.6355 7.41146 58.905 5.17575C57.9225 2.20322 57.5258 1.07592 57.4187 0.962562C57.2802 0.824012 57.2109 0.811417 56.4867 0.779928C55.9828 0.761035 55.6931 0.77363 55.6616 0.817714Z" fill="#2F39BF"/>
<path d="M78.666 0.851372C78.5589 0.895456 78.4455 0.971029 78.4078 1.02141C78.37 1.07179 77.9543 1.97237 77.482 3.03039C77.0097 4.08841 75.9327 6.49415 75.0825 8.38348L73.5459 11.8157L73.7096 11.8535C73.9615 11.9165 74.5976 11.9102 74.9125 11.8535C75.0637 11.822 75.2526 11.7339 75.3345 11.652C75.4163 11.5701 75.6619 11.0915 75.8824 10.5877C76.1784 9.92013 76.3232 9.65562 76.4366 9.59894C76.657 9.48558 82.1864 9.48558 82.4068 9.59894C82.5202 9.65562 82.6776 9.93902 82.9925 10.6192C83.5782 11.8976 83.5404 11.8661 84.4851 11.8661C84.907 11.8661 85.266 11.8535 85.2849 11.8283C85.3038 11.8095 85.0204 11.1167 84.6488 10.2917C82.9169 6.45637 81.9408 4.27105 81.3803 2.95482C80.5364 1.00252 80.316 0.763203 79.3461 0.763203C79.0753 0.769501 78.7667 0.807288 78.666 0.851372ZM80.6498 5.28499C81.2795 6.72087 81.7834 7.90485 81.7645 7.91744C81.7519 7.93004 80.6749 7.93634 79.3713 7.93004L77.0034 7.91115L78.1055 5.42354C78.7101 4.05692 79.2517 2.83516 79.302 2.7155C79.3776 2.54547 79.4091 2.51398 79.4469 2.58955C79.4784 2.63993 80.0137 3.8554 80.6498 5.28499Z" fill="#2F39BF"/>
<path d="M86.7983 0.827287C86.7983 0.852478 87.7115 2.24428 88.8262 3.93208C89.9787 5.67025 90.9045 7.13133 90.9674 7.30767C91.0619 7.57847 91.0745 7.88076 91.0808 9.53077C91.0808 11.0485 91.0997 11.4831 91.169 11.6531L91.2634 11.8735H91.9814H92.6993L92.7371 9.71341C92.756 8.22714 92.7938 7.4903 92.8505 7.33916C92.8883 7.2195 93.5558 6.19297 94.3178 5.05308C95.0862 3.91948 96.0371 2.50249 96.4402 1.9042L97.177 0.82099L96.2261 0.802097C95.3948 0.789501 95.2499 0.802097 95.124 0.896563C95.0421 0.95954 94.3871 1.9168 93.6692 3.0252C92.9512 4.1336 92.2648 5.19163 92.1388 5.37426L91.9121 5.70804L91.7862 5.5317C91.7169 5.43724 91.0745 4.40441 90.3629 3.24562C89.6449 2.08684 88.9711 1.0603 88.8703 0.95954C88.6877 0.789501 88.6877 0.789501 87.743 0.789501C87.2203 0.789501 86.7983 0.808394 86.7983 0.827287Z" fill="#2F39BF"/>
<path d="M102.962 0.506884C102.874 0.51948 102.597 0.563564 102.345 0.60135C101.463 0.733603 100.456 1.16185 99.9582 1.61529C98.6924 2.78667 98.9002 5.13573 100.349 5.98592C100.783 6.23783 102.036 6.6157 103.479 6.92429C105.022 7.25177 105.469 7.38402 105.784 7.62334C106.054 7.83746 106.3 8.34758 106.3 8.71915C106.3 9.56934 105.828 10.1361 104.833 10.4573C104.386 10.6022 104.209 10.6274 103.529 10.6337C102.603 10.6337 102.169 10.5392 101.419 10.1676C100.915 9.92202 100.456 9.53785 100.09 9.07182L99.8953 8.82621L99.3033 9.22297C98.9758 9.44339 98.6987 9.62602 98.6924 9.63862C98.6798 9.64491 98.7491 9.80866 98.8498 9.99129C99.0892 10.451 99.8827 11.2256 100.349 11.465C101.514 12.0758 103.082 12.3089 104.442 12.0884C106.76 11.7169 107.994 10.5644 108 8.78212C108 7.92563 107.761 7.28956 107.238 6.73536C106.659 6.11818 106.162 5.93554 103.674 5.38134C102.71 5.16722 101.797 4.9405 101.64 4.87122C100.657 4.43668 100.468 3.36606 101.249 2.66071C101.778 2.18208 102.427 1.98056 103.435 1.98056C104.417 1.98056 105.179 2.25136 105.847 2.83705C106.017 2.9882 106.187 3.11415 106.218 3.11415C106.243 3.11415 106.546 2.93152 106.886 2.71739L107.497 2.32064L107.32 2.06873C106.646 1.14296 105.33 0.557266 103.812 0.500586C103.435 0.487991 103.05 0.487991 102.962 0.506884Z" fill="#2F39BF"/>
</svg>
