<svg width="1440" height="856" viewBox="0 0 1440 856" fill="none" xmlns="http://www.w3.org/2000/svg">
<path d="M0 0V856M110.29 0V856M220.563 0V856M330.854 0V856M441.147 0V856M551.437 0V856M661.711 0V856M778.289 0V856M888.579 0V856M998.869 0V856M1109.15 0V856M1219.44 0V856M1329.73 0V856M1440 856V0M0 46.7567H1440M0 152.896H1440M0 259.037H1440M0 365.176H1440M0 471.316H1440M0 577.456H1440M0 683.596H1440M0 789.719H1440" stroke="url(#paint0_radial_43_6898)" stroke-width="0.970644" stroke-miterlimit="10"/>
<defs>
<radialGradient id="paint0_radial_43_6898" cx="0" cy="0" r="1" gradientUnits="userSpaceOnUse" gradientTransform="translate(720.215 353.723) rotate(89.4564) scale(1031.3 1659.3)">
<stop stop-color="#262729"/>
<stop offset="1" stop-color="#17181D" stop-opacity="0"/>
</radialGradient>
</defs>
</svg>
