<svg height="512" viewBox="0 0 128 128" width="512" xmlns="http://www.w3.org/2000/svg"><g><path d="m93.266 64.291 13.553-13.554a14.432 14.432 0 0 0 0-20.386l-8.879-8.88a14.432 14.432 0 0 0 -20.386 0l-13.554 13.554-13.554-13.554a14.432 14.432 0 0 0 -20.386 0l-8.879 8.88a14.43 14.43 0 0 0 0 20.386l13.553 13.554-13.553 13.553a14.43 14.43 0 0 0 0 20.386l8.879 8.879a14.43 14.43 0 0 0 20.386 0l13.554-13.553 13.554 13.553a14.43 14.43 0 0 0 20.386 0l8.879-8.879a14.432 14.432 0 0 0 0-20.386zm-13.238-40.345a10.929 10.929 0 0 1 15.438 0l8.879 8.879a10.93 10.93 0 0 1 0 15.437l-13.554 13.553-24.316-24.315zm-32.056 80.689a10.931 10.931 0 0 1 -15.438 0l-8.879-8.879a10.93 10.93 0 0 1 0-15.437l13.554-13.553 24.316 24.315zm56.373-8.879-8.879 8.879a10.931 10.931 0 0 1 -15.438 0l-56.373-56.373a10.93 10.93 0 0 1 0-15.437l8.879-8.879a10.93 10.93 0 0 1 15.438 0l56.373 56.373a10.93 10.93 0 0 1 0 15.437z"/><path d="m62.393 43.646a8.711 8.711 0 0 0 -12.3 0l-6.733 6.733a8.7 8.7 0 0 0 0 12.3l22.247 22.255a8.7 8.7 0 0 0 12.3 0l6.737-6.734a8.7 8.7 0 0 0 0-12.3zm19.776 32.081-6.733 6.732a5.2 5.2 0 0 1 -7.354 0l-22.251-22.251a5.2 5.2 0 0 1 0-7.354l6.732-6.733a5.208 5.208 0 0 1 7.355 0l22.251 22.252a5.2 5.2 0 0 1 0 7.354z"/><circle cx="57.711" cy="52.125" r="1.966"/><circle cx="63.862" cy="58.277" r="1.966"/><path d="m71.4 65.818a1.966 1.966 0 1 0 -2.78 0 1.965 1.965 0 0 0 2.78 0z"/><circle cx="76.165" cy="70.579" r="1.966"/><circle cx="51.835" cy="58.001" r="1.966"/><circle cx="57.986" cy="64.153" r="1.966"/><circle cx="64.138" cy="70.304" r="1.966"/><circle cx="70.289" cy="76.456" r="1.966"/></g></svg>