<svg height="511pt" viewBox="-29 1 511 511.99999" width="511pt" xmlns="http://www.w3.org/2000/svg"><path d="m.5 0h391v62h-391zm0 0"/><path d="m.5 452h391v60h-391zm0 0"/><path d="m61.5 92h270v30h-270zm0 0"/><path d="m61.5 152h270v30h-270zm0 0"/><path d="m61.5 212h270v30h-270zm0 0"/><path d="m61.5 272h270v30h-270zm0 0"/><path d="m61.5 392h270v30h-270zm0 0"/><path d="m436.5 152c-41.398438 0-75 33.597656-75 75v90c0 9.160156-7.214844 15-15 15-97.484375 0-177.207031 0-285 0v30h285c23.785156 0 45-19.386719 45-45v-90c0-24.902344 20.101562-45 45-45h16v-30zm0 0"/></svg>