<?xml version="1.0"?>
<svg xmlns="http://www.w3.org/2000/svg" width="512" height="512" viewBox="0 0 128 128"><g><path d="M103.4,56.342h-3.079V43.652a1.749,1.749,0,0,0-1.75-1.75h-6.6A10.366,10.366,0,0,0,86.21,28.418a10.31,10.31,0,0,0,.381-2.79,10.416,10.416,0,0,0-10-10.4C73.046,3.936,62.412.793,61.944.66a1.75,1.75,0,0,0-2.123,2.282c.883,2.427-.587,6.875-4.04,12.282H53.344a10.4,10.4,0,0,0-10.137,12.74A10.366,10.366,0,0,0,36.031,41.9h-6.6a1.75,1.75,0,0,0-1.75,1.75v12.69H24.6a9.41,9.41,0,0,0-9.4,9.4v47.332a15.536,15.536,0,0,0,15.519,15.52H97.276a15.538,15.538,0,0,0,15.521-15.52V65.742A9.411,9.411,0,0,0,103.4,56.342ZM38.784,38.061a6.928,6.928,0,0,1,6.811-6.9,1.751,1.751,0,0,0,1.549-2.517,6.825,6.825,0,0,1-.7-3.018,6.912,6.912,0,0,1,6.9-6.9h3.385a1.749,1.749,0,0,0,1.459-.784c3.4-5.133,5.2-9.436,5.372-12.847A18.867,18.867,0,0,1,73.568,17.4a1.75,1.75,0,0,0,1.7,1.326h.921a6.912,6.912,0,0,1,6.9,6.9,6.811,6.811,0,0,1-.365,2.18H64a1.75,1.75,0,0,0,0,3.5H83.678A6.885,6.885,0,0,1,88.044,41.9H39.956A6.892,6.892,0,0,1,38.784,38.061Zm-7.6,7.341H96.817v10.94H31.182ZM109.3,113.074a12.034,12.034,0,0,1-12.021,12.02H30.723A12.033,12.033,0,0,1,18.7,113.074V65.742a5.906,5.906,0,0,1,5.9-5.9H103.4a5.907,5.907,0,0,1,5.9,5.9Z"/><path d="M101.047,66.342H26.954a1.749,1.749,0,0,0-1.75,1.75v44.982a5.526,5.526,0,0,0,5.519,5.52H97.276a5.527,5.527,0,0,0,5.521-5.52V68.092A1.749,1.749,0,0,0,101.047,66.342ZM99.3,113.074a2.022,2.022,0,0,1-2.021,2.02H30.723a2.021,2.021,0,0,1-2.019-2.02V69.842H99.3Z"/><path d="M78.805,84.7a5.6,5.6,0,0,0-4.3-.338,38.227,38.227,0,0,0-5.317,2.185,38.2,38.2,0,0,0,.435-5.731,5.629,5.629,0,0,0-11.258,0,38.186,38.186,0,0,0,.435,5.731,38.171,38.171,0,0,0-5.317-2.184A5.629,5.629,0,1,0,50.01,95.071,38.238,38.238,0,0,0,55.6,96.428a38.176,38.176,0,0,0-3.721,4.382,5.629,5.629,0,0,0,9.108,6.617A38.274,38.274,0,0,0,64,102.534a38.168,38.168,0,0,0,3.018,4.893,5.629,5.629,0,0,0,9.108-6.617h0A38.251,38.251,0,0,0,72.4,96.428a38.251,38.251,0,0,0,5.586-1.357,5.63,5.63,0,0,0,.816-10.37Zm-16.019,5.54a3.245,3.245,0,0,1,.862-.187A3.669,3.669,0,1,1,60.32,93.7a3.649,3.649,0,0,1,.087-.777,3.791,3.791,0,0,1,1.144-1.949,3.692,3.692,0,0,1,.952-.628C62.6,90.3,62.691,90.273,62.786,90.241ZM64,78.688a2.131,2.131,0,0,1,2.129,2.129,34.712,34.712,0,0,1-.5,5.889,7.309,7.309,0,0,0-3.25,0,34.814,34.814,0,0,1-.5-5.889A2.131,2.131,0,0,1,64,78.688ZM49.724,89.059a2.123,2.123,0,0,1,2.683-1.366,34.713,34.713,0,0,1,5.443,2.3,7.214,7.214,0,0,0-1,3.092,34.754,34.754,0,0,1-5.755-1.34A2.132,2.132,0,0,1,49.724,89.059Zm8.426,16.31a2.129,2.129,0,0,1-3.445-2.5,34.865,34.865,0,0,1,3.874-4.473A6.774,6.774,0,0,0,61.2,100.31,34.78,34.78,0,0,1,58.15,105.369Zm14.671.472a2.128,2.128,0,0,1-2.973-.472,34.78,34.78,0,0,1-3.054-5.059,8,8,0,0,0,2.625-1.916,34.787,34.787,0,0,1,3.874,4.473A2.133,2.133,0,0,1,72.821,105.841Zm4.086-14.1a34.831,34.831,0,0,1-5.755,1.34,7.688,7.688,0,0,0-1-3.092,34.783,34.783,0,0,1,5.444-2.3,2.129,2.129,0,0,1,1.315,4.05Z"/></g></svg>
