<?xml version="1.0" encoding="iso-8859-1"?>
<!-- Generator: Adobe Illustrator 19.0.0, SVG Export Plug-In . SVG Version: 6.00 Build 0)  -->
<svg version="1.1" id="Capa_1" xmlns="http://www.w3.org/2000/svg" xmlns:xlink="http://www.w3.org/1999/xlink" x="0px" y="0px"
	 viewBox="0 0 374.8 374.8" style="enable-background:new 0 0 374.8 374.8;" xml:space="preserve">
<g>
	<g>
		<path d="M310.98,2.4c-1.2-1.6-3.2-2.4-5.2-2.4H68.58c-2,0-3.6,0.8-4.8,2.4c-1.2,1.6-2,3.2-1.6,5.2l36.8,281.6v33.6
			c0,28.4,21.6,52,48,52h67.2c26.4,0,48-23.2,48-52v-33.6l50.4-281.6C312.98,5.6,312.58,3.6,310.98,2.4z M248.98,316h-26.8
			c-3.6,0-6.4,2.8-6.4,6.4c0,3.6,2.8,6.4,6.4,6.4h26c-2.4,18.8-16.8,32.8-34,32.8h-67.2c-19.2,0-34.8-17.6-34.8-39.2v-27.6h136.8
			V316z M249.78,281.6h-138.4l-11.2-84h164.8L249.78,281.6z M267.38,184.4H98.58l-10-74.8h192L267.38,184.4z M87.38,96.8l-10.8-83.6
			h221.529L283.38,96.8H87.38z"/>
	</g>
</g>
<g>
</g>
<g>
</g>
<g>
</g>
<g>
</g>
<g>
</g>
<g>
</g>
<g>
</g>
<g>
</g>
<g>
</g>
<g>
</g>
<g>
</g>
<g>
</g>
<g>
</g>
<g>
</g>
<g>
</g>
</svg>
