<?xml version="1.0"?>
<svg xmlns="http://www.w3.org/2000/svg" width="512" height="512" viewBox="0 0 128 128"><g><path d="M25.852,33.1a1.754,1.754,0,0,0,1.632-1.114c.031-.079,3.165-7.892,10.55-9.772a1.75,1.75,0,0,0-.864-3.392c-9.163,2.332-12.8,11.51-12.95,11.9A1.75,1.75,0,0,0,25.852,33.1Z"/><path d="M84.405,112.012l-3.535.4a25.281,25.281,0,0,0-13.9,6.13,1.75,1.75,0,1,0,2.3,2.634,21.791,21.791,0,0,1,11.987-5.285l3.535-.4a1.75,1.75,0,1,0-.389-3.479Z"/><path d="M47.13,112.408l-3.535-.4a1.75,1.75,0,0,0-.389,3.479l3.535.4a21.785,21.785,0,0,1,11.986,5.285,1.75,1.75,0,0,0,2.306-2.634A25.287,25.287,0,0,0,47.13,112.408Z"/><path d="M127.647,117.43a29.28,29.28,0,0,0-15.577-10.6,55.762,55.762,0,0,0-10.3-1.487c-3.152-.274-4.319-.332-9.691-.806a32.929,32.929,0,0,1-4.378-.773l-.318-.145a7.617,7.617,0,0,1-2.52-1.573,7.347,7.347,0,0,1-1.172-1.58,6.46,6.46,0,0,1-.744-2.239l-1.2-9.427a28.47,28.47,0,0,0,8.669-11.584,56.63,56.63,0,0,0,2.734-10.353c.086-.438.178-.868.266-1.3a9.972,9.972,0,0,0,2.271.264A10.073,10.073,0,0,0,105.74,55.766a10.212,10.212,0,0,0-.075-1.18A32.778,32.778,0,0,0,81.421,0a.283.283,0,0,1-.029,0c-.01,0-.02,0-.031,0L46.824,0A32.783,32.783,0,0,0,22.336,54.587a9.963,9.963,0,0,0-.076,1.179A10.074,10.074,0,0,0,32.323,65.829a9.908,9.908,0,0,0,2.27-.265c.088.436.18.865.266,1.3A56.692,56.692,0,0,0,37.6,77.225a28.447,28.447,0,0,0,8.668,11.581l-1.2,9.407a6.629,6.629,0,0,1-1.443,3.256c-2.035,2.407-4.862,2.938-10.3,3.256-1.1.085-2.21.157-3.316.229a70.5,70.5,0,0,0-14.074,1.881A29.281,29.281,0,0,0,.352,117.43,1.748,1.748,0,0,0,0,118.483v7.769A1.751,1.751,0,0,0,1.75,128h124.5a1.75,1.75,0,0,0,1.75-1.75v-7.769A1.747,1.747,0,0,0,127.647,117.43Zm-31.969-55.1a6.445,6.445,0,0,1-1.549-.194l1.515-6.923a28.913,28.913,0,0,0,.648-5.977,6.574,6.574,0,0,1,5.808,5.186l.005.016a6.567,6.567,0,0,1-6.427,7.892Zm14.791-29.537A29.182,29.182,0,0,1,104.357,50.7,10.058,10.058,0,0,0,96.3,45.735v-.589A18.751,18.751,0,0,0,84.451,27.653l-16-6.4a29.482,29.482,0,0,0,14.288-17.7A29.372,29.372,0,0,1,110.469,32.792Zm-92.937,0A29.326,29.326,0,0,1,46.824,3.5L79.1,3.5A25.979,25.979,0,0,1,64.107,19.431l-.755.3h0l-19.8,7.92A18.752,18.752,0,0,0,31.705,45.146v.589A10.06,10.06,0,0,0,23.643,50.7,29.175,29.175,0,0,1,17.532,32.792ZM25.76,55.766a6.531,6.531,0,0,1,.136-1.328l0-.018a6.575,6.575,0,0,1,5.808-5.185,28.948,28.948,0,0,0,.648,5.984l1.515,6.916a6.443,6.443,0,0,1-1.548.194A6.57,6.57,0,0,1,25.76,55.766ZM40.837,75.907a54.112,54.112,0,0,1-2.544-9.717c-.219-1.112-.438-2.219-.675-3.309l-1.841-8.405a25.383,25.383,0,0,1-.572-5.338V45.146A15.267,15.267,0,0,1,44.848,30.9L64,23.243,83.151,30.9A15.266,15.266,0,0,1,92.8,45.146v3.992a25.43,25.43,0,0,1-.571,5.332l-1.842,8.413c-.238,1.089-.456,2.2-.675,3.308A53.98,53.98,0,0,1,87.164,75.9a24.93,24.93,0,0,1-8.1,10.533,1.715,1.715,0,0,0-.416.3,25.058,25.058,0,0,1-29.294,0,1.745,1.745,0,0,0-.42-.3A24.934,24.934,0,0,1,40.837,75.907ZM124.5,124.5H3.5v-5.423a25.766,25.766,0,0,1,13.354-8.868,67.949,67.949,0,0,1,13.379-1.764c1.119-.074,2.24-.147,3.387-.235a43.222,43.222,0,0,0,7.648-1.044,11.257,11.257,0,0,0,4.167-2.528,10.424,10.424,0,0,0,.9-.966,10.135,10.135,0,0,0,2.194-5l.979-7.65a28.616,28.616,0,0,0,28.984,0l.978,7.649a9.975,9.975,0,0,0,1.149,3.482,10.055,10.055,0,0,0,5.315,4.654,21.545,21.545,0,0,0,5.739,1.207c5.856.52,5.017.41,9.81.818a53.084,53.084,0,0,1,9.663,1.375,25.764,25.764,0,0,1,13.354,8.868Z"/><path d="M87.455,21.185C90.885,22.57,99.7,27.314,99.317,32.56a1.751,1.751,0,0,0,1.618,1.873c.043,0,.086.005.129.005a1.751,1.751,0,0,0,1.744-1.623c.648-8.86-13.445-14.634-14.045-14.876a1.75,1.75,0,0,0-1.308,3.246Z"/><path d="M56.884,73.317a9,9,0,0,0,6.963,2.913,9,9,0,0,0,6.962-2.912,1.75,1.75,0,0,0-2.7-2.225,6.363,6.363,0,0,1-8.522,0,1.75,1.75,0,0,0-2.7,2.225Z"/><path d="M80.1,48.89a1.75,1.75,0,1,0-1.246-3.271,6.364,6.364,0,0,1-4.472.024l-.079-.03L73.7,47.254l-.527,1.671A9.859,9.859,0,0,0,80.1,48.89Z"/><path d="M47.9,48.89a9.863,9.863,0,0,0,6.931.036l.079-.03-.6-1.642-.686-1.612a6.364,6.364,0,0,1-4.474-.023A1.75,1.75,0,0,0,47.9,48.89Z"/><path d="M64.305,64.416h2.388a1.75,1.75,0,0,0,0-3.5H64.305a.3.3,0,0,1-.3-.348l.867-5.722a1.75,1.75,0,1,0-3.46-.524l-.868,5.722a3.8,3.8,0,0,0,3.76,4.372Z"/><path d="M76.986,66.48c4.679,0,9.062-2.931,11.725-7.838l.366-.675a4.757,4.757,0,0,0-.272-4.932,3.29,3.29,0,0,0-3.254-1.441L76.24,53.129c-2.746.453-4.74,3.248-4.74,6.645C71.5,63.534,73.91,66.48,76.986,66.48Zm-.176-9.9,9.153-1.509A1.308,1.308,0,0,1,86,56.3l-.366.675c-2.041,3.761-5.275,6.007-8.649,6.007-.939,0-1.986-1.317-1.986-3.206C75,57.987,75.939,56.726,76.81,56.582Z"/><path d="M56.5,59.774c0-3.4-1.994-6.192-4.741-6.645L42.45,51.594a3.294,3.294,0,0,0-3.255,1.44,4.761,4.761,0,0,0-.272,4.933l.366.675c2.663,4.907,7.045,7.838,11.724,7.838C54.09,66.48,56.5,63.534,56.5,59.774Zm-14.135-2.8L42,56.3a1.308,1.308,0,0,1,.038-1.225l9.152,1.509C52.06,56.726,53,57.987,53,59.774c0,1.889-1.047,3.206-1.987,3.206C47.639,62.98,44.406,60.734,42.365,56.973Z"/></g></svg>
