<?xml version="1.0" encoding="iso-8859-1"?>
<!-- Generator: Adobe Illustrator 19.0.0, SVG Export Plug-In . SVG Version: 6.00 Build 0)  -->
<svg version="1.1" id="Capa_1" xmlns="http://www.w3.org/2000/svg" xmlns:xlink="http://www.w3.org/1999/xlink" x="0px" y="0px"
	 viewBox="0 0 433.114 433.114" style="enable-background:new 0 0 433.114 433.114;" xml:space="preserve">
<g>
	<g>
		<g>
			<path d="M265.373,228.714c10.8,0,19.6-8.8,19.6-19.6c0-2.8-2.4-5.2-5.6-5.6c-3.6-0.4-6.4,2-6.8,5.6c0,1.6-0.8,3.6-2,4.8
				c-2.8,2.8-7.2,2.8-10,0c-1.2-1.6-2-3.2-2-5.2c0,0,0-0.4,0-0.8c-0.4-3.2-3.2-6-6.8-5.6c-3.2,0.4-6,3.2-5.6,6.8
				c0,5.2,2,10.4,5.2,14C255.373,226.714,260.173,228.714,265.373,228.714z"/>
			<path d="M325.773,366.714h-58.8v-24.4c36.8-16.4,63.6-50,71.6-90c30.8-25.6,48.4-63.2,48.4-103.2c0-73.6-60-133.6-134-133.6h-0.4
				c-58-29.6-129.2-16-172,33.6c-51.2,59.2-44.4,148.8,14.4,199.6c6.8,41.6,33.6,76.8,72,93.6v24.4h-58.8c-33.2,0-60,26.8-60,60
				c0,3.6,2.8,6.4,6.4,6.4h324.8c3.6,0,6.4-2.8,6.4-6.4C385.773,393.514,358.973,366.714,325.773,366.714z M337.373,62.314
				c48.4,46.4,49.6,123.2,3.2,171.6c0-0.4,1.2-32-13.2-64.4c1.2-6.4,2-23.6,2-28c0-43.2-23.6-85.6-57.6-112.4
				C294.973,33.514,320.173,45.914,337.373,62.314z M93.773,229.514v0.8c-22-22.8-33.6-52.8-34.8-84.4c-3.2-71.2,50.8-130,122-133.6
				c84.4-4.4,130,72.4,134.8,122.8c0.8,8,0,20.8,0,20.8c-21.2-28-53.2-46.8-88-50h-0.4h-1.2h-7.6h-1.2
				C148.973,105.914,93.773,161.514,93.773,229.514z M105.773,230.714c0-0.4,0-0.8,0-1.2c0-61.2,49.6-110.8,110.8-110.8h6h1.2
				c57.6,4.4,103.6,54.4,103.6,110c0,0.4,0.4,12.4,0,16.4c-3.6,54.4-54.4,94.4-109.2,95.2h-2.8c-13.6-0.4-26.8-2.8-39.6-8h-0.4
				C134.173,315.514,106.573,275.514,105.773,230.714z M61.373,420.714c3.2-23.6,23.2-41.2,46.8-41.2h64.8c3.6,0,6.4-2.8,6.4-6.4
				v-26c10.4,3.2,20.8,5.2,31.6,5.6h12c10.8-0.4,21.2-2.4,31.6-5.6v26c0,3.2,2.8,6,6,6.4h64.8c24,0,44,17.6,47.2,41.2H61.373z"/>
			<path d="M265.373,254.314c20.8,0,37.6-16.8,37.6-37.6s-16.8-37.6-37.6-37.6c-10,0-19.6,4-26.8,11.2c-6.8,6.8-10.8,16.4-10.8,26.4
				C227.773,237.514,244.573,254.314,265.373,254.314z M247.773,198.714c9.6-9.6,25.6-9.6,35.2,0c4.8,4.8,7.6,11.2,7.2,17.6
				c0,6.4-2.4,12.8-7.2,17.6c-9.6,9.6-25.6,9.6-35.2,0C238.173,224.314,238.173,208.314,247.773,198.714z"/>
			<path d="M206.173,216.714c0-20.8-16.8-37.6-37.6-37.6c-10,0-19.6,4-26.8,11.2c-6.8,6.8-10.8,16.4-10.8,26.4
				c0,20.8,16.8,37.6,37.6,37.6C189.373,254.314,206.173,237.514,206.173,216.714z M186.173,233.914c-9.6,9.6-25.6,9.6-35.2,0
				c-9.6-9.6-9.6-25.6,0-35.2c9.6-9.6,25.6-9.6,35.2,0c4.8,4.8,7.2,11.2,7.2,17.6C193.373,222.714,190.973,229.114,186.173,233.914z
				"/>
			<path d="M184.573,318.714c18.4,14,44,14,62.4,0c2.8-2,5.2-4.4,7.2-7.2c10.8-14.8,7.6-36-7.2-46.8c-8.8-6.8-20-10.4-31.2-10.4
				c-11.6-0.4-22.4,3.6-31.2,10.4c-2.8,2-5.2,4.4-7.2,7.2C166.573,286.714,169.773,307.914,184.573,318.714z M192.173,274.314
				c14-10.4,32.8-10.4,46.8,0c2,1.6,3.6,3.2,5.2,5.2c6.8,9.2,4.4,22.4-5.2,29.2c-14,10.4-32.8,10.4-46.8,0c-2-1.6-3.6-3.2-5.2-5.2
				C180.173,294.314,182.573,281.114,192.173,274.314z"/>
			<path d="M182.173,203.514c-3.6-0.4-6.4,2-6.8,5.6c0,1.6-0.8,3.6-2,4.8c-2.8,2.8-7.2,2.8-10,0c-1.2-1.6-2-3.2-2-5.2
				c0,0,0-0.4,0-0.8c-0.4-3.2-3.2-6-6.8-5.6c-3.2,0.4-6,3.2-5.6,6.8c0,5.2,2,10.4,5.2,14c4,3.6,8.8,5.6,14,5.6
				c10.8,0,19.6-8.8,19.6-19.6C187.773,206.314,185.373,203.914,182.173,203.514z"/>
			<path d="M197.373,297.914h36.4c0,0,0.4,0,0.8,0c3.2-0.4,6-3.6,5.6-6.8c-0.4-3.2-3.2-6-6.8-5.6h-36.4c0,0-0.4,0-0.8,0
				c-3.2,0.4-6,3.2-5.6,6.8C190.973,295.514,193.773,298.314,197.373,297.914z"/>
		</g>
	</g>
</g>
<g>
</g>
<g>
</g>
<g>
</g>
<g>
</g>
<g>
</g>
<g>
</g>
<g>
</g>
<g>
</g>
<g>
</g>
<g>
</g>
<g>
</g>
<g>
</g>
<g>
</g>
<g>
</g>
<g>
</g>
</svg>
