<?xml version="1.0"?>
<svg xmlns="http://www.w3.org/2000/svg" width="512" height="512" viewBox="0 0 128 128"><g><path d="M108.069,59.546l-5.444-1.233a38.845,38.845,0,0,0-7.3-17.591l2.986-4.734a4.568,4.568,0,0,0-6.3-6.3l-4.734,2.987a38.845,38.845,0,0,0-17.591-7.3l-1.233-5.444a4.567,4.567,0,0,0-8.908,0l-1.232,5.444a38.852,38.852,0,0,0-17.593,7.3l-4.734-2.987a4.567,4.567,0,0,0-6.3,6.3l2.986,4.735a38.845,38.845,0,0,0-7.3,17.591L19.93,59.546a4.567,4.567,0,0,0,0,8.908l5.444,1.233a38.845,38.845,0,0,0,7.3,17.591l-2.986,4.734a4.565,4.565,0,0,0,6.3,6.3l4.734-2.987a38.845,38.845,0,0,0,17.591,7.3l1.233,5.444a4.567,4.567,0,0,0,8.908,0l1.232-5.444a38.852,38.852,0,0,0,17.593-7.3l4.734,2.987a4.567,4.567,0,0,0,6.3-6.3l-2.986-4.735a38.845,38.845,0,0,0,7.3-17.591l5.445-1.233a4.567,4.567,0,0,0,0-8.908ZM64,99.544A35.544,35.544,0,1,1,99.544,64,35.584,35.584,0,0,1,64,99.544ZM93.879,32.649A1.067,1.067,0,0,1,95.35,34.12l-2.366,3.751a39.234,39.234,0,0,0-2.855-2.855ZM62.96,20.7a1.067,1.067,0,0,1,2.081,0l.974,4.3q-1-.051-2.015-.052t-2.015.052ZM32.649,34.119a1.067,1.067,0,0,1,1.472-1.47l3.75,2.367a39.234,39.234,0,0,0-2.855,2.855ZM20.705,65.04a1.066,1.066,0,0,1,0-2.08l4.3-.975q-.051,1-.052,2.015t.052,2.015ZM34.121,95.351A1.067,1.067,0,0,1,32.65,93.88l2.366-3.751a39.234,39.234,0,0,0,2.855,2.855ZM65.04,107.3a1.067,1.067,0,0,1-2.081,0l-.974-4.3q1,.051,2.015.052t2.015-.052ZM95.351,93.881a1.067,1.067,0,0,1-1.472,1.47l-3.75-2.367a39.234,39.234,0,0,0,2.855-2.855ZM107.3,65.04l-4.3.975q.051-1,.052-2.015t-.052-2.015l4.3.975a1.066,1.066,0,0,1,0,2.08Z"/><path d="M53.9,45.174a5.125,5.125,0,1,0-5.125-5.125A5.131,5.131,0,0,0,53.9,45.174Zm0-6.75a1.625,1.625,0,1,1-1.625,1.625A1.626,1.626,0,0,1,53.9,38.424Z"/><path d="M64,59.026A5.125,5.125,0,1,0,58.875,53.9,5.13,5.13,0,0,0,64,59.026Zm0-6.75A1.625,1.625,0,1,1,62.375,53.9,1.627,1.627,0,0,1,64,52.276Z"/><path d="M64,68.974A5.125,5.125,0,1,0,69.125,74.1,5.13,5.13,0,0,0,64,68.974Zm0,6.75A1.625,1.625,0,1,1,65.625,74.1,1.627,1.627,0,0,1,64,75.724Z"/><path d="M74.1,34.924a5.125,5.125,0,1,0,5.125,5.125A5.131,5.131,0,0,0,74.1,34.924Zm0,6.75a1.625,1.625,0,1,1,1.625-1.625A1.627,1.627,0,0,1,74.1,41.674Z"/><path d="M53.9,82.826a5.125,5.125,0,1,0,5.126,5.125A5.131,5.131,0,0,0,53.9,82.826Zm0,6.75a1.625,1.625,0,1,1,1.626-1.625A1.626,1.626,0,0,1,53.9,89.576Z"/><path d="M74.1,82.826a5.125,5.125,0,1,0,5.125,5.125A5.131,5.131,0,0,0,74.1,82.826Zm0,6.75a1.625,1.625,0,1,1,1.625-1.625A1.626,1.626,0,0,1,74.1,89.576Z"/><path d="M40.048,68.974A5.125,5.125,0,1,0,45.173,74.1,5.13,5.13,0,0,0,40.048,68.974Zm0,6.75A1.625,1.625,0,1,1,41.673,74.1,1.627,1.627,0,0,1,40.048,75.724Z"/><path d="M40.048,48.776A5.125,5.125,0,1,0,45.173,53.9,5.131,5.131,0,0,0,40.048,48.776Zm0,6.75A1.625,1.625,0,1,1,41.673,53.9,1.626,1.626,0,0,1,40.048,55.526Z"/><path d="M87.952,68.974A5.125,5.125,0,1,0,93.077,74.1,5.129,5.129,0,0,0,87.952,68.974Zm0,6.75A1.625,1.625,0,1,1,89.577,74.1,1.627,1.627,0,0,1,87.952,75.724Z"/><path d="M87.952,59.026A5.125,5.125,0,1,0,82.827,53.9,5.13,5.13,0,0,0,87.952,59.026Zm0-6.75A1.625,1.625,0,1,1,86.327,53.9,1.627,1.627,0,0,1,87.952,52.276Z"/></g></svg>
