<?xml version="1.0" encoding="iso-8859-1"?>
<!-- Generator: Adobe Illustrator 19.0.0, SVG Export Plug-In . SVG Version: 6.00 Build 0)  -->
<svg version="1.1" id="Capa_1" xmlns="http://www.w3.org/2000/svg" xmlns:xlink="http://www.w3.org/1999/xlink" x="0px" y="0px"
	 viewBox="0 0 512 512" style="enable-background:new 0 0 512 512;" xml:space="preserve">
<g>
	<g>
		<g>
			<polygon points="0,42.667 21.333,42.667 21.333,234.667 149.333,234.667 149.333,42.667 170.667,42.667 170.667,0 0,0 			"/>
			<path d="M469.333,42.667V64h-42.667c-82.475,0-149.333,66.859-149.333,149.333v21.333h128v-21.333
				c0-11.782,9.551-21.333,21.333-21.333h42.667v21.333H512V42.667H469.333z"/>
			<path d="M256,298.667h21.333v42.667c0,11.782-9.551,21.333-21.333,21.333v128c82.475,0,149.333-66.859,149.333-149.333v-42.667
				h21.333V256H256V298.667z"/>
			<rect x="192" y="341.333" width="42.667" height="170.667"/>
			<path d="M0,298.667h21.333v42.667c0,82.475,66.859,149.333,149.333,149.333v-128c-11.782,0-21.333-9.551-21.333-21.333v-42.667
				h21.333V256H0V298.667z"/>
		</g>
	</g>
</g>
<g>
</g>
<g>
</g>
<g>
</g>
<g>
</g>
<g>
</g>
<g>
</g>
<g>
</g>
<g>
</g>
<g>
</g>
<g>
</g>
<g>
</g>
<g>
</g>
<g>
</g>
<g>
</g>
<g>
</g>
</svg>
