<svg id="Capa_1" enable-background="new 0 0 512.18 512.18" height="512" viewBox="0 0 512.18 512.18" width="512" xmlns="http://www.w3.org/2000/svg"><g><g><path d="m347.363 223.477c-11.234-14.074-27.093-24.022-44.653-28.014-.54-.122-.917-.595-.917-1.147v-17.408h6.751c8.262 0 14.984-6.722 14.984-14.984v-31.82c0-8.263-6.722-14.984-14.984-14.984h-15.859v-25.405c0-4.143-3.358-7.5-7.5-7.5s-7.5 3.357-7.5 7.5v25.403h-43.191v-78.522c0-11.908 9.688-21.596 21.596-21.596s21.596 9.688 21.596 21.596v18.38c0 4.143 3.358 7.5 7.5 7.5s7.5-3.357 7.5-7.5v-18.38c-.001-20.179-16.418-36.596-36.596-36.596s-36.596 16.417-36.596 36.596v78.522h-15.859c-8.262 0-14.984 6.722-14.984 14.984v31.82c0 8.263 6.722 14.984 14.984 14.984h6.751v17.408c0 .553-.377 1.025-.916 1.147-17.561 3.991-33.419 13.939-44.654 28.014s-17.422 31.743-17.422 49.752v160.998c0 4.143 3.358 7.5 7.5 7.5s7.5-3.357 7.5-7.5v-9.553h187.39v62.551c0 5.489-4.466 9.955-9.955 9.955h-167.479c-5.489 0-9.955-4.466-9.955-9.955v-18.472c0-4.143-3.358-7.5-7.5-7.5s-7.5 3.357-7.5 7.5v18.472c0 13.761 11.195 24.955 24.955 24.955h167.48c13.76 0 24.955-11.194 24.955-24.955v-213.994c0-18.009-6.188-35.678-17.422-49.752zm-143.712-61.554-.016-31.805 104.894-.016.023 31.805zm146.134 247.751h-187.39v-118.681h187.39zm0-133.681h-187.39v-2.765c0-30.432 20.726-56.395 50.401-63.139 7.413-1.687 12.59-8.173 12.59-15.774v-17.408h61.407v17.408c0 7.602 5.177 14.088 12.591 15.774 29.675 6.744 50.4 32.707 50.4 63.139v2.765z"/><path d="m306.541 365.792c15.91 0 28.854-12.943 28.854-28.854s-12.944-28.854-28.854-28.854-28.854 12.944-28.854 28.854 12.944 28.854 28.854 28.854zm0-42.708c7.639 0 13.854 6.215 13.854 13.854s-6.215 13.854-13.854 13.854-13.854-6.215-13.854-13.854 6.215-13.854 13.854-13.854z"/></g></g></svg>