<svg height="512pt" viewBox="0 0 512 512" width="512pt" xmlns="http://www.w3.org/2000/svg"><path d="m128.25 391.382812h57.617188v40h-52.824219zm-4.796875-40h62.414063v-40h-67.207032zm102.414063 80h60v-40h-60zm0-80h60v-40h-60zm286.132812-107h-30.253906l-24.011719 213.699219c-3.414063 30.386719-29.046875 53.300781-59.625 53.300781h-282.75c-30.351563 0-55.960937-22.722656-59.574219-52.859374l-25.664062-214.140626h-30.121094v-40h199.308594c2.332031-6.578124 5.773437-12.632812 10.113281-17.933593l-100.648437-165.679688 34.1875-20.769531 100.628906 165.652344c3.964844-.828125 8.070312-1.269532 12.277344-1.269532 26.070312 0 48.300781 16.722657 56.558593 40h199.574219zm-256.132812-40c-11.027344 0-20 8.972657-20 20 0 11.027344 8.972656 20 20 20 11.027343 0 20-8.972656 20-20 0-11.027343-8.972657-20-20-20zm185.625 40h-129.066407c-8.253906 23.277344-30.488281 40-56.558593 40-26.074219 0-48.304688-16.722656-56.5625-40h-128.898438l25.09375 209.382813c1.203125 10.042969 9.742188 17.617187 19.859375 17.617187h282.75c10.191406 0 18.734375-7.636718 19.875-17.765624zm-60.011719 187 4.386719-39.019531v-.980469h-60v40zm13.484375-120h-69.097656v40h64.605468zm0 0"/></svg>