<?xml version="1.0"?>
<svg xmlns="http://www.w3.org/2000/svg" xmlns:xlink="http://www.w3.org/1999/xlink" xmlns:svgjs="http://svgjs.com/svgjs" version="1.1" width="512" height="512" x="0" y="0" viewBox="0 0 24 24" style="enable-background:new 0 0 512 512" xml:space="preserve" class=""><g><path xmlns="http://www.w3.org/2000/svg" d="m12 0h-.01c-.196 0-.385.077-.525.214l-11.23 11c-.122.119-.199.276-.22.445-.013.11-.015.219-.015.341 0 6.617 5.383 12 12 12s12-5.383 12-12-5.383-12-12-12z" fill="#e0ceb7" data-original="#2196f3" style="" class=""/><path xmlns="http://www.w3.org/2000/svg" d="m12.285.065c-.28-.126-.61-.066-.83.148l-11.23 11c-.22.216-.286.544-.166.827.117.279.39.46.691.46h.017c6.431-.148 11.686-5.295 11.962-11.718.014-.307-.163-.592-.444-.717z" fill="#c9bdad" data-original="#64b5f6" style="" class=""/><path xmlns="http://www.w3.org/2000/svg" d="m9.024 9.025c-2.149 2.09-5.057 3.401-8.257 3.475h-.017c-.301 0-.574-.181-.691-.459-.031-.073-.049-.148-.056-.224-.002.059-.003.119-.003.183 0 6.617 5.383 12 12 12 3.308 0 6.308-1.345 8.481-3.518z" fill="#c1ac91" data-original="#1d83d4" style="" class=""/><path xmlns="http://www.w3.org/2000/svg" d="m5.776 5.777-5.551 5.437c-.163.161-.241.383-.222.603.007.076.025.151.056.224.117.278.39.459.691.459h.018c3.199-.074 6.108-1.385 8.257-3.475z" fill="#e0ceb7" data-original="#579ed6" style="" class=""/><g xmlns="http://www.w3.org/2000/svg" fill="#fafafa"><path d="m9.671 19.968c-.192 0-.384-.073-.53-.22l-3.535-3.536c-.238-.238-.289-.606-.123-.899.166-.294.507-.445.835-.358l3.029.758-1.621-1.621c-.293-.293-.293-.768 0-1.061s.768-.293 1.061 0l3.536 3.536c.238.238.289.606.123.899-.167.293-.509.44-.835.358l-3.03-.758 1.621 1.621c.293.293.293.768 0 1.061-.147.147-.339.22-.531.22z" fill="#fafafa" data-original="#fafafa" style=""/><path d="m13.207 16.432c-.192 0-.384-.073-.53-.22l-3.536-3.535c-.141-.141-.22-.331-.22-.53s.079-.39.22-.53l2.122-2.121c.293-.293.768-.293 1.061 0s.293.768 0 1.061l-1.591 1.591 2.475 2.475 1.591-1.591c.293-.293.768-.293 1.061 0s.293.768 0 1.061l-2.122 2.121c-.147.144-.339.218-.531.218z" fill="#fafafa" data-original="#fafafa" style=""/><path d="m11.439 14.664c-.192 0-.384-.073-.53-.22-.293-.293-.293-.768 0-1.061l2.121-2.121c.293-.293.768-.293 1.061 0s.293.768 0 1.061l-2.121 2.121c-.147.147-.339.22-.531.22z" fill="#fafafa" data-original="#fafafa" style=""/><path d="m17.45 12.189c-.145 0-.29-.042-.416-.126l-4.243-2.828c-.345-.229-.438-.695-.208-1.04s.695-.437 1.04-.208l2.144 1.429-.067-.155c-.121-.282-.058-.609.159-.826s.544-.281.826-.159l.156.067-1.429-2.145c-.23-.345-.137-.811.208-1.04.344-.23.81-.138 1.04.208l2.828 4.243c.184.276.165.641-.047.896-.212.257-.566.341-.872.21l-.751-.322.322.751c.131.306.045.66-.21.872-.139.115-.309.173-.48.173z" fill="#fafafa" data-original="#fafafa" style=""/></g><path xmlns="http://www.w3.org/2000/svg" d="m10.577 14.82-3.182 3.182 1.746 1.746c.146.147.338.22.53.22s.384-.073.53-.22c.293-.293.293-.768 0-1.061l-1.621-1.621 3.03.758c.06.015.121.022.181.022.265 0 .518-.142.654-.381.166-.293.116-.661-.123-.899z" fill="#ffffff" data-original="#dadada" style="" class=""/><path xmlns="http://www.w3.org/2000/svg" d="m15.329 12.811c-.192 0-.384.073-.53.22l-1.591 1.591-.708-.708-.53.53c-.147.146-.338.22-.53.22-.182 0-.365-.066-.508-.198l-.001.001 1.746 1.746c.146.146.338.22.53.22s.384-.073.53-.22l2.122-2.121c.293-.293.293-.768 0-1.061-.147-.147-.339-.22-.53-.22z" fill="#ffffff" data-original="#dadada" style="" class=""/><path xmlns="http://www.w3.org/2000/svg" d="m14.112 11.285-3.181 3.181c.143.132.326.198.508.198.192 0 .384-.073.53-.22l.53-.53 1.591-1.591c.287-.285.294-.744.022-1.038z" fill="#ffffff" data-original="#dadada" style="" class=""/><path xmlns="http://www.w3.org/2000/svg" d="m18.008 7.389-3.194 3.195 2.22 1.48c.126.084.271.126.416.126.171 0 .341-.059.479-.174.255-.212.341-.566.21-.872l-.322-.751.751.322c.096.041.197.061.297.061.218 0 .43-.095.575-.271.212-.255.231-.619.047-.896z" fill="#ffffff" data-original="#dadada" style="" class=""/></g></svg>
