<svg id="Layer_1" height="512" viewBox="0 0 128 128" width="512" xmlns="http://www.w3.org/2000/svg" data-name="Layer 1"><path d="m49.8 55.643h2.488a11.781 11.781 0 0 0 2.2 5.292l-1.767 1.765a1.75 1.75 0 1 0 2.479 2.472l1.762-1.762a11.78 11.78 0 0 0 5.293 2.2v2.488a1.75 1.75 0 0 0 3.5 0v-2.492a11.78 11.78 0 0 0 5.292-2.2l1.753 1.766a1.75 1.75 0 0 0 2.479-2.472l-1.762-1.762a11.781 11.781 0 0 0 2.2-5.292h2.483a1.75 1.75 0 0 0 0-3.5h-2.487a11.781 11.781 0 0 0 -2.2-5.293l1.762-1.762a1.75 1.75 0 0 0 -2.475-2.478l-1.762 1.762a11.778 11.778 0 0 0 -5.292-2.2v-2.484a1.75 1.75 0 0 0 -3.5 0v2.488a11.778 11.778 0 0 0 -5.293 2.2l-1.753-1.766a1.75 1.75 0 0 0 -2.475 2.475l1.762 1.762a11.781 11.781 0 0 0 -2.2 5.293h-2.487a1.75 1.75 0 0 0 0 3.5zm14.2-10.108a8.357 8.357 0 1 1 -8.357 8.357 8.367 8.367 0 0 1 8.357-8.357z"/><path d="m93.133 8.332a1.75 1.75 0 0 0 -1.3-.582h-56.663a1.75 1.75 0 0 0 -1.737 1.961l9.984 82.277v20.8a7.468 7.468 0 0 0 7.46 7.46h26.246a7.468 7.468 0 0 0 7.46-7.46v-20.813l8.987-82.285a1.75 1.75 0 0 0 -.437-1.358zm-11.872 81.828h-34.541l-1.536-12.66h37.459zm1.765-16.16h-38.266l-3.473-28.618-1.412-11.632h47.547zm-43.575-43.75-1.436-11.83h51.085l-1.3 11.83zm50.429-19-.4 3.67h-51.89l-.445-3.67zm-8.8 101.541a3.964 3.964 0 0 1 -3.96 3.96h-26.244a3.964 3.964 0 0 1 -3.96-3.96v-19.131h34.167z"/><path d="m56.25 112.25h15.5a1.75 1.75 0 0 0 1.75-1.75 9.5 9.5 0 0 0 -19 0 1.75 1.75 0 0 0 1.75 1.75zm7.75-7.75a6.01 6.01 0 0 1 5.74 4.25h-11.48a6.01 6.01 0 0 1 5.74-4.25z"/></svg>