<svg width="54" height="62" viewBox="0 0 54 62" fill="none" xmlns="http://www.w3.org/2000/svg">
<g clip-path="url(#clip0_206_2133)">
<path fill-rule="evenodd" clip-rule="evenodd" d="M41.5385 21.6835C41.5364 22.3225 41.3357 22.9452 40.9638 23.4662C40.592 23.9872 40.0672 24.3809 39.4615 24.5933V28.9168C39.4615 35.7544 33.8715 41.3168 27 41.3168C20.1285 41.3168 14.5385 35.7544 14.5385 28.9168V24.5933C13.9327 24.3813 13.4078 23.9879 13.0359 23.467C12.664 22.9461 12.4634 22.3234 12.4615 21.6845C12.4615 19.9754 13.8593 18.5845 15.5769 18.5845C17.2945 18.5845 18.6923 19.9754 18.6923 21.6845C18.6903 22.3235 18.4895 22.9462 18.1177 23.4672C17.7458 23.9882 17.221 24.3819 16.6154 24.5944V28.9178C16.6154 34.6156 21.2739 39.2512 27 39.2512C32.7261 39.2512 37.3846 34.6156 37.3846 28.9178V24.5933C36.7789 24.3813 36.254 23.9879 35.8821 23.467C35.5102 22.9461 35.3095 22.3234 35.3077 21.6845C35.3077 19.9754 36.7055 18.5845 38.4231 18.5845C40.1407 18.5845 41.5385 19.9754 41.5385 21.6845V21.6835ZM45.9945 7.94633L50.4246 12.3845H3.54531L8.00342 7.9484C8.10028 7.85257 8.17713 7.73862 8.22953 7.61311C8.28194 7.4876 8.30887 7.35301 8.30877 7.2171C8.30867 7.08119 8.28155 6.94664 8.22897 6.8212C8.17638 6.69577 8.09938 6.58192 8.00239 6.48623L3.54946 2.06667H50.4505L45.9976 6.4852C45.8028 6.67853 45.6931 6.94086 45.6925 7.21461C45.6919 7.48836 45.8005 7.75115 45.9945 7.9453V7.94633ZM48.8077 59.9333H5.19231C3.47469 59.9333 2.07692 58.5352 2.07692 56.8168V14.4501H51.9231V56.8168C51.9242 57.6408 51.5968 58.4317 51.0128 59.0159C50.4288 59.6001 49.6358 59.93 48.8077 59.9333ZM52.9615 9.28347C53.237 9.28347 53.5011 9.1746 53.6958 8.98081C53.8906 8.78702 54 8.52419 54 8.25013V1.03333C54.0002 0.828945 53.9394 0.6291 53.8253 0.459123C53.7113 0.289146 53.5491 0.156688 53.3593 0.0785333C53.2344 0.0296913 53.1009 0.00615358 52.9667 0.0093C52.9501 0.0093 52.9356 0 52.919 0H1.03846C1.02392 0 1.0125 0.00723333 0.997962 0.00723333C0.875552 0.0103886 0.754645 0.0348702 0.640731 0.0795667H0.637615L0.617885 0.093C0.514208 0.13966 0.419092 0.203223 0.336462 0.281067C0.3105 0.304833 0.289731 0.3317 0.265846 0.357533C0.208145 0.423515 0.158956 0.496413 0.119423 0.574533C0.103846 0.6076 0.0861923 0.637567 0.0726923 0.671667C0.0301154 0.786367 0 0.906233 0 1.03333V8.25013C0 8.52419 0.109409 8.78702 0.304158 8.98081C0.498908 9.1746 0.763044 9.28347 1.03846 9.28347C1.31388 9.28347 1.57802 9.1746 1.77276 8.98081C1.96751 8.78702 2.07692 8.52419 2.07692 8.25013V3.52367L5.79981 7.21887L0.304269 12.6862C0.110211 12.8809 0.000913916 13.1437 0 13.4178L0 56.8178C0 59.675 2.32927 62 5.19231 62H48.8077C51.6707 62 54 59.675 54 56.8168V13.4602C54.0003 13.325 53.9737 13.191 53.9218 13.066C53.87 12.941 53.7939 12.8274 53.6978 12.7317L53.6542 12.6873L53.6521 12.6852L48.1981 7.2199L51.9231 3.52367V8.25117C51.9231 8.52522 52.0325 8.78806 52.2272 8.98184C52.422 9.17563 52.6861 9.2845 52.9615 9.2845" fill="#CEB290"/>
</g>
<defs>
<clipPath id="clip0_206_2133">
<rect width="54" height="62" fill="white"/>
</clipPath>
</defs>
</svg>
