<svg width="77" height="67" viewBox="0 0 77 67" fill="none" xmlns="http://www.w3.org/2000/svg">
<g clip-path="url(#clip0_206_2118)">
<path fill-rule="evenodd" clip-rule="evenodd" d="M2.56667 39.9423C2.56667 39.6006 2.70187 39.2729 2.94255 39.0312C3.18322 38.7896 3.50964 38.6538 3.85 38.6538H7.49467L6.95182 34.9779C6.90178 34.6397 6.98759 34.2955 7.19035 34.0209C7.39312 33.7463 7.69624 33.5638 8.03302 33.5135C8.36981 33.4633 8.71268 33.5494 8.9862 33.753C9.25973 33.9566 9.4415 34.2609 9.49153 34.5991L10.0908 38.6538H19.25C19.5904 38.6538 19.9168 38.7896 20.1575 39.0312C20.3981 39.2729 20.5333 39.6006 20.5333 39.9423C20.5333 40.284 20.3981 40.6118 20.1575 40.8534C19.9168 41.095 19.5904 41.2308 19.25 41.2308H3.85C3.50964 41.2308 3.18322 41.095 2.94255 40.8534C2.70187 40.6118 2.56667 40.284 2.56667 39.9423ZM3.85 28.3462H5.85072L5.30787 24.6702C5.26384 24.335 5.35278 23.9959 5.55549 23.726C5.7582 23.4561 6.05846 23.277 6.39151 23.2272C6.72456 23.1775 7.06372 23.2613 7.33587 23.4603C7.60801 23.6594 7.79133 23.9578 7.8463 24.2914L8.4469 28.3462H19.25C19.5904 28.3462 19.9168 28.4819 20.1575 28.7235C20.3981 28.9652 20.5333 29.2929 20.5333 29.6346C20.5333 29.9763 20.3981 30.3041 20.1575 30.5457C19.9168 30.7873 19.5904 30.9231 19.25 30.9231H3.85C3.50964 30.9231 3.18322 30.7873 2.94255 30.5457C2.70187 30.3041 2.56667 29.9763 2.56667 29.6346C2.56667 29.2929 2.70187 28.9652 2.94255 28.7235C3.18322 28.4819 3.50964 28.3462 3.85 28.3462ZM19.25 54.1154C18.5429 54.1154 17.9667 53.5369 17.9667 52.8269C17.9667 52.117 18.5429 51.5385 19.25 51.5385C19.9571 51.5385 20.5333 52.117 20.5333 52.8269C20.5333 53.5369 19.9571 54.1154 19.25 54.1154ZM19.25 48.9615C17.1274 48.9615 15.4 50.6958 15.4 52.8269C15.4 54.958 17.1274 56.6923 19.25 56.6923C21.3726 56.6923 23.1 54.958 23.1 52.8269C23.1 50.6958 21.3726 48.9615 19.25 48.9615ZM62.8833 54.1154C62.1762 54.1154 61.6 53.5369 61.6 52.8269C61.6 52.117 62.1762 51.5385 62.8833 51.5385C63.5905 51.5385 64.1667 52.117 64.1667 52.8269C64.1667 53.5369 63.5905 54.1154 62.8833 54.1154ZM62.8833 48.9615C60.7607 48.9615 59.0333 50.6958 59.0333 52.8269C59.0333 54.958 60.7607 56.6923 62.8833 56.6923C65.006 56.6923 66.7333 54.958 66.7333 52.8269C66.7333 50.6958 65.006 48.9615 62.8833 48.9615ZM62.8833 59.2692C59.3452 59.2692 56.4667 56.3792 56.4667 52.8269C56.4667 49.2746 59.3452 46.3846 62.8833 46.3846C66.4215 46.3846 69.3 49.2746 69.3 52.8269C69.3 56.3792 66.4215 59.2692 62.8833 59.2692ZM75.3407 32.5891L71.823 29.0574L70.5833 14.1731C70.5833 10.6208 67.7048 7.73077 64.1667 7.73077H55.1833C54.843 7.73077 54.5165 7.86652 54.2759 8.10815C54.0352 8.34978 53.9 8.67751 53.9 9.01923C53.9 9.36095 54.0352 9.68868 54.2759 9.93031C54.5165 10.1719 54.843 10.3077 55.1833 10.3077H64.1667C66.2534 10.3077 68.0167 12.078 68.0205 14.28L69.1883 28.3462H64.9598L66.5986 25.0567C66.7372 24.7526 66.7527 24.4063 66.6418 24.0909C66.5309 23.7755 66.3024 23.5157 66.0044 23.3663C65.7064 23.2169 65.3622 23.1895 65.0445 23.29C64.7268 23.3904 64.4603 23.6109 64.3014 23.9048L62.0902 28.3462H55.1833C54.843 28.3462 54.5165 28.4819 54.2759 28.7235C54.0352 28.9652 53.9 29.2929 53.9 29.6346C53.9 29.9763 54.0352 30.3041 54.2759 30.5457C54.5165 30.7873 54.843 30.9231 55.1833 30.9231H70.052L73.526 34.4109C74.2575 35.1454 74.4308 36.8345 74.4333 37.3654V51.5385H71.764C71.139 47.1744 67.4007 43.8077 62.8833 43.8077C57.9297 43.8077 53.9 47.8535 53.9 52.8269C53.9 57.8004 57.9297 61.8462 62.8833 61.8462C67.4007 61.8462 71.139 58.4794 71.764 54.1154H75.7167C76.057 54.1154 76.3834 53.9796 76.6241 53.738C76.8648 53.4964 77 53.1686 77 52.8269V37.3654C77 37.0471 76.9538 34.2074 75.3407 32.5891ZM19.25 59.2692C15.7118 59.2692 12.8333 56.3792 12.8333 52.8269C12.8333 49.2746 15.7118 46.3846 19.25 46.3846C22.7881 46.3846 25.6667 49.2746 25.6667 52.8269C25.6667 56.3792 22.7881 59.2692 19.25 59.2692ZM50.05 0H8.98333C5.44518 0 2.56667 2.89002 2.56667 6.44231C2.56667 6.50673 2.5718 6.56987 2.58078 6.633L4.28505 18.0385H1.28333C0.942972 18.0385 0.616551 18.1742 0.37588 18.4158C0.135208 18.6575 0 18.9852 0 19.3269C0 19.6686 0.135208 19.9964 0.37588 20.238C0.616551 20.4796 0.942972 20.6154 1.28333 20.6154H19.25C19.5904 20.6154 19.9168 20.4796 20.1575 20.238C20.3981 19.9964 20.5333 19.6686 20.5333 19.3269C20.5333 18.9852 20.3981 18.6575 20.1575 18.4158C19.9168 18.1742 19.5904 18.0385 19.25 18.0385H6.87995L5.13462 6.3534C5.15905 5.34438 5.57509 4.38484 6.29406 3.67937C7.01302 2.9739 7.97803 2.57831 8.98333 2.57692H48.7667V51.5385H28.1307C27.5057 47.1744 23.7673 43.8077 19.25 43.8077C14.2963 43.8077 10.2667 47.8535 10.2667 52.8269C10.2667 57.8004 14.2963 61.8462 19.25 61.8462C23.7673 61.8462 27.5057 58.4794 28.1307 54.1154H50.05C50.3904 54.1154 50.7168 53.9796 50.9575 53.738C51.1981 53.4964 51.3333 53.1686 51.3333 52.8269V1.28846C51.3333 0.94674 51.1981 0.619015 50.9575 0.377382C50.7168 0.135748 50.3904 0 50.05 0Z" fill="#CEB290"/>
</g>
<defs>
<clipPath id="clip0_206_2118">
<rect width="77" height="67" fill="white"/>
</clipPath>
</defs>
</svg>
