<svg width="66" height="66" viewBox="0 0 66 66" fill="none" xmlns="http://www.w3.org/2000/svg">
<path d="M64.8393 31.6076L64.6846 29.2357C64.633 28.6943 64.5299 28.1529 64.4268 27.6115L64.3236 26.9412C64.2205 26.1677 64.0143 25.4459 63.8338 24.7498L63.6533 24.0537C63.4729 23.4349 63.3182 22.7904 63.0604 22.2232C62.0807 19.3357 60.5338 16.5256 58.4713 13.8185C56.4346 11.1888 54.1143 8.97165 51.5877 7.2443C48.8549 5.38805 45.9932 3.99587 43.0541 3.09352C41.1463 2.52634 39.1354 2.13962 37.0986 1.93337C35.9127 1.83024 34.7268 2.21696 33.8244 3.01618C32.9479 3.8154 32.458 4.94977 32.458 6.13571C32.458 8.22399 34.0307 10.0287 36.1447 10.3123C37.6143 10.5185 39.0838 10.8537 40.4502 11.292C42.4869 11.9881 44.4979 13.0709 46.4572 14.4888C48.1846 15.7521 49.783 17.3506 51.1494 19.2842C52.5416 21.2693 53.5729 23.2545 54.1401 25.2396C54.1401 25.2912 54.1658 25.317 54.1916 25.3427C54.3205 25.6521 54.3979 26.0388 54.501 26.4256L54.6815 27.1474C54.7846 27.5857 54.8877 28.024 54.9393 28.4623C54.9651 28.6943 54.9908 28.9263 55.0424 29.1842C55.094 29.5193 55.1455 29.8545 55.1713 30.1123L55.2229 31.8138C55.1713 34.2373 54.8362 36.4287 54.2174 38.3365C53.5213 40.4506 52.5158 42.4099 51.2526 44.2146C50.0666 45.8904 48.5197 47.4631 46.6893 48.8295L45.8127 49.4482C45.6838 49.5256 45.5807 49.6287 45.3744 49.7318L43.9307 50.5826L43.4151 50.8404C42.5901 51.2271 41.8166 51.5881 40.9658 51.8459C38.7744 52.5935 36.6604 52.9287 34.6237 52.9287C30.4471 53.0318 26.1674 51.7427 22.6096 49.3193C20.8822 48.0818 19.3354 46.6123 18.0463 44.9881L17.1182 43.699L16.6541 42.9256C16.5252 42.7193 16.3963 42.4873 16.2416 42.2295C16.0869 41.9974 15.958 41.7138 15.8291 41.4045C15.7518 41.224 15.6744 41.0435 15.5971 40.8888L15.2619 40.1927C15.2104 40.0638 15.1588 39.9349 15.133 39.806L14.6947 38.5685C14.6432 38.4138 14.5916 38.2849 14.5401 38.0529L14.1791 36.506C14.1276 36.1967 14.076 35.9131 14.0502 35.6037C14.0244 35.3717 13.9987 35.1396 13.9729 34.9592C13.9729 34.8302 13.9471 34.7013 13.9213 34.5724C13.8955 34.4693 13.8955 34.392 13.8955 34.2115L13.8697 33.3865C13.8697 33.1802 13.8697 32.974 13.844 32.7677C13.8182 32.4584 13.8182 32.149 13.844 31.7881C13.8697 31.2724 13.8955 30.7568 13.9729 30.2412C14.1018 29.2357 14.308 28.2045 14.5916 27.2248C14.6947 26.8896 14.6432 26.5287 14.4627 26.2193L11.1112 20.4701C10.776 19.9029 10.0541 19.6709 9.43537 19.9545L2.78381 23.1256C2.44865 23.2802 2.19084 23.6154 2.08772 23.9763C1.67522 25.6263 1.4174 27.3021 1.26272 28.9779C1.18537 29.7771 1.15959 30.6279 1.13381 31.4787C1.10803 32.1232 1.15959 32.742 1.21115 33.3607L1.34006 35.1912C1.34006 35.5263 1.39162 35.8357 1.46897 36.1451C1.49475 36.274 1.52053 36.3771 1.54631 36.5576L1.67522 37.2795C1.77834 37.8467 1.85569 38.4396 2.01037 39.0584L2.62912 41.3529C2.73225 41.7654 2.88694 42.1521 3.01584 42.4873L3.66037 44.1373C3.7635 44.4209 3.86662 44.6787 4.02131 44.9881L4.56272 46.0967C4.66584 46.2771 4.76897 46.4834 4.84631 46.6638C5.1299 47.2052 5.38772 47.7724 5.74865 48.3138L6.10959 48.881C6.41897 49.3709 6.72834 49.8865 7.11506 50.4279L8.61037 52.3873C10.7502 54.9396 13.251 57.1568 16.0354 58.9873C21.1916 62.2615 27.1987 64.0404 33.1541 64.0404C33.7471 64.0404 34.3401 64.0146 34.933 63.9888L36.4541 63.8857C36.7635 63.8599 37.0987 63.8342 37.408 63.7826L39.7026 63.3959C40.0635 63.3443 40.3987 63.267 40.6822 63.1638L42.5385 62.6482C42.8221 62.5709 43.1057 62.4935 43.4151 62.3904L44.4721 61.9779C45.9674 61.4623 47.3338 60.7404 48.6744 60.0443L50.969 58.6263C51.3041 58.4201 51.6135 58.1881 51.8713 58.0076L53.0315 57.131C55.6869 54.9912 57.9041 52.5935 59.6315 49.9896C61.4104 47.2826 62.7768 44.3177 63.7049 41.1982C64.5557 38.2849 64.9424 35.0623 64.8651 31.6334C64.8393 31.6334 64.8393 31.6334 64.8393 31.6076ZM61.2041 40.5021C60.3533 43.3896 59.0901 46.0967 57.4658 48.5974C55.8932 50.9951 53.8565 53.1865 51.433 55.1459L50.2987 56.0224C50.0924 56.1771 49.8862 56.3318 49.6283 56.4865L47.7205 57.6982L47.4627 57.8271C46.1737 58.4974 44.9362 59.142 43.5955 59.606L42.4869 60.0185C42.2807 60.0959 42.0744 60.1474 41.8682 60.199C41.7393 60.2248 41.5846 60.2763 41.4815 60.3021L39.9862 60.7146C39.7799 60.7662 39.5737 60.8435 39.3158 60.8693L36.944 61.2818C36.7377 61.3334 36.5057 61.3334 36.2994 61.3592L34.7783 61.4623C28.7971 61.8232 22.6354 60.1732 17.4276 56.8732C14.8494 55.1974 12.5549 53.1349 10.5955 50.8146L9.17756 48.9584C8.86818 48.4943 8.55881 48.0302 8.27522 47.5662L7.8885 46.9474C7.6049 46.5349 7.37287 46.0709 7.14084 45.581C7.03772 45.3748 6.93459 45.1685 6.83147 44.9881L6.31584 43.9568C6.21272 43.7248 6.13537 43.5185 6.03225 43.2865L5.38772 41.6365C5.28459 41.3529 5.18147 41.0951 5.10412 40.7599L4.48537 38.4912C4.35647 37.9756 4.27912 37.4342 4.20178 36.8927L4.07287 36.1966L3.99553 35.7326C3.96975 35.5263 3.91819 35.3201 3.91819 35.0881L3.78928 33.2318C3.7635 32.6646 3.71194 32.1232 3.73772 31.5818C3.73772 30.7826 3.78928 29.9834 3.84084 29.2615C3.94397 27.9209 4.176 26.5545 4.45959 25.2396L9.38381 22.8677L11.8588 27.1217C11.6268 28.0756 11.4205 29.0295 11.3174 30.0092C11.2401 30.5763 11.1885 31.1693 11.1627 31.7365C11.1369 32.149 11.1369 32.5615 11.1627 32.974C11.1627 33.1545 11.1885 33.3349 11.1885 33.5154L11.2143 34.2888C11.2143 34.5982 11.2401 34.856 11.2916 35.0623C11.2916 35.1396 11.3174 35.217 11.3432 35.3459L11.4205 35.9646C11.4721 36.3256 11.4979 36.6607 11.5752 37.0732L11.9362 38.6201C11.9877 38.9552 12.0908 39.2388 12.194 39.4967L12.6065 40.6826C12.658 40.8888 12.7354 41.0693 12.8385 41.3013L13.1994 42.0748C13.2768 42.2295 13.3283 42.3584 13.4057 42.5131C13.5604 42.874 13.7666 43.3123 13.9987 43.6732C14.1276 43.8795 14.2307 44.0599 14.3338 44.2662C14.4885 44.5498 14.669 44.8334 14.8752 45.1943L15.8807 46.6123C17.3502 48.4685 19.0518 50.1185 21.0112 51.5107C25.033 54.2435 29.8541 55.7131 34.5205 55.5842C36.7893 55.5842 39.2127 55.1974 41.6104 54.3724C42.6158 54.0888 43.5182 53.6506 44.3947 53.2381L44.9619 52.9802C44.9877 52.9545 45.0393 52.9545 45.0651 52.9287L46.483 52.1037C46.7666 51.949 46.9987 51.7943 47.2049 51.6396L48.0815 50.9951C50.144 49.4482 51.8713 47.6951 53.2377 45.7873C54.6557 43.7763 55.7643 41.5849 56.5377 39.2388C57.2338 37.0732 57.6205 34.624 57.6721 31.8912L57.6205 30.0607C57.5947 29.674 57.5432 29.2873 57.4916 28.9263C57.4658 28.7201 57.4401 28.4881 57.4143 28.3076C57.3627 27.7146 57.2338 27.1732 57.1049 26.6576L56.9502 25.9873C56.8471 25.549 56.744 25.0592 56.5377 24.5693C55.8674 22.3521 54.733 20.1091 53.1861 17.9177C51.6393 15.7521 49.8604 13.9474 47.901 12.5295C45.7612 10.9568 43.5182 9.77087 41.1979 8.99743C39.6768 8.48181 38.0526 8.12087 36.4283 7.91462C35.5776 7.81149 34.9846 7.1154 34.9846 6.2904C34.9846 5.82634 35.1651 5.38805 35.526 5.07868C35.8869 4.7693 36.351 4.61462 36.8151 4.66618C38.6971 4.84665 40.5276 5.20759 42.2807 5.72321C44.9619 6.52243 47.5916 7.81149 50.0924 9.53884C52.4127 11.1115 54.5268 13.1224 56.383 15.5459C58.2908 18.0209 59.683 20.599 60.6111 23.306C60.8174 23.7959 60.9721 24.3115 61.101 24.8787L61.2815 25.5748C61.4619 26.2193 61.6166 26.8123 61.7197 27.4568L61.8486 28.2045C61.926 28.6943 62.0291 29.1842 62.0807 29.6224L62.2354 31.8912C62.3385 34.9076 61.9776 37.8467 61.2041 40.5021Z" fill="#CEB290"/>
<path d="M33.7211 37.8982C36.8406 37.8982 39.393 35.3459 39.393 32.2264C39.393 29.9318 38.0266 27.8951 35.9125 26.9928C35.6289 26.8639 35.3195 26.7865 35.0102 26.7092V16.1904C35.0102 15.4943 34.443 14.9014 33.7211 14.9014C32.9992 14.9014 32.432 15.4686 32.432 16.1904V26.735C32.1227 26.8123 31.8133 26.8896 31.5039 27.0186C29.3898 27.8951 28.0234 29.9576 28.0234 32.2521C28.0492 35.3459 30.6016 37.8982 33.7211 37.8982ZM32.5352 29.3646C32.9219 29.21 33.3086 29.1326 33.7211 29.1068C34.1336 29.1068 34.5461 29.1842 34.907 29.3389C36.0672 29.8287 36.8148 30.9631 36.8148 32.2006C36.8148 33.9021 35.4227 35.3201 33.6953 35.3201C31.9938 35.3201 30.5758 33.9279 30.5758 32.2006C30.6273 30.9889 31.375 29.8545 32.5352 29.3646Z" fill="#CEB290"/>
</svg>
