<svg width="79" height="79" viewBox="0 0 79 79" fill="none" xmlns="http://www.w3.org/2000/svg">
<path d="M64.836 37.9198H14.2106C13.3565 37.919 12.5375 37.5794 11.9334 36.9756C11.3293 36.3717 10.9894 35.5529 10.9883 34.6987V25.0484C10.9894 24.1942 11.3293 23.3753 11.9334 22.7713C12.5375 22.1674 13.3564 21.8276 14.2106 21.8267H64.8354C65.6895 21.8276 66.5083 22.1674 67.1122 22.7714C67.7161 23.3754 68.0557 24.1943 68.0565 25.0484V34.6993C68.0557 35.5532 67.7161 36.3719 67.1124 36.9757C66.5086 37.5794 65.6899 37.919 64.836 37.9198V37.9198ZM14.2106 24.2954C13.802 24.2954 13.457 24.6404 13.457 25.0484V34.6993C13.457 35.1141 13.7952 35.4517 14.2106 35.4517H64.8354C65.0349 35.4515 65.2262 35.3722 65.3672 35.2312C65.5083 35.0901 65.5876 34.8988 65.5878 34.6993V25.0484C65.5878 24.6398 65.2428 24.2954 64.8354 24.2954H14.2106Z" fill="#CEB290"/>
<path d="M57.7757 70.9802H21.2678C17.8474 70.9802 15.0645 68.1979 15.0645 64.7768V36.6855C15.0645 36.3582 15.1945 36.0442 15.426 35.8127C15.6575 35.5812 15.9715 35.4512 16.2988 35.4512C16.6262 35.4512 16.9402 35.5812 17.1717 35.8127C17.4032 36.0442 17.5332 36.3582 17.5332 36.6855V64.7768C17.5343 65.767 17.9282 66.7162 18.6283 67.4163C19.3284 68.1165 20.2777 68.5103 21.2678 68.5114H57.7757C58.7656 68.5101 59.7147 68.1162 60.4146 67.4161C61.1145 66.716 61.5081 65.7668 61.509 64.7768V36.6855C61.509 36.3582 61.6391 36.0442 61.8706 35.8127C62.1021 35.5812 62.416 35.4512 62.7434 35.4512C63.0708 35.4512 63.3848 35.5812 63.6163 35.8127C63.8477 36.0442 63.9778 36.3582 63.9778 36.6855V64.7768C63.9778 68.1979 61.1955 70.9802 57.7757 70.9802Z" fill="#CEB290"/>
<path d="M39.523 70.9801C39.1956 70.9801 38.8816 70.85 38.6501 70.6186C38.4186 70.3871 38.2886 70.0731 38.2886 69.7457V36.6855C38.2886 36.3581 38.4186 36.0441 38.6501 35.8126C38.8816 35.5811 39.1956 35.4511 39.523 35.4511C39.8504 35.4511 40.1643 35.5811 40.3958 35.8126C40.6273 36.0441 40.7573 36.3581 40.7573 36.6855V69.7451C40.7574 69.9073 40.7256 70.0678 40.6636 70.2177C40.6016 70.3675 40.5107 70.5036 40.396 70.6183C40.2814 70.733 40.1453 70.824 39.9955 70.8861C39.8457 70.9481 39.6851 70.9801 39.523 70.9801ZM24.1167 24.2911C20.2531 22.1976 18.8114 17.3514 20.903 13.4872C22.9935 9.62487 27.839 8.1825 31.7044 10.2723C37.593 13.4619 40.7728 22.3605 40.9049 22.7376L38.5762 23.5566C38.5466 23.4727 35.5761 15.1771 30.5299 12.4436C27.8606 11.0006 24.5167 11.9967 23.0743 14.6624C21.6307 17.3305 22.6256 20.6756 25.2937 22.1204L24.1167 24.2911Z" fill="#CEB290"/>
<path d="M54.9261 24.2912L53.751 22.12C54.3876 21.7774 54.95 21.3122 55.4057 20.751C55.8614 20.1899 56.2014 19.544 56.4061 18.8507C56.6142 18.1586 56.6827 17.432 56.6078 16.7132C56.5329 15.9943 56.316 15.2975 55.9698 14.6631C55.628 14.0265 55.1633 13.4642 54.6025 13.0086C54.0417 12.553 53.3961 12.2133 52.703 12.0092C52.011 11.8012 51.2847 11.7325 50.566 11.8071C49.8473 11.8816 49.1505 12.098 48.516 12.4437C43.4699 15.1766 40.4994 23.4722 40.4697 23.5562L38.1411 22.7372C38.2732 22.3601 41.4523 13.4614 47.3409 10.2724C48.2602 9.77152 49.2697 9.45796 50.311 9.34989C51.3523 9.24183 52.4047 9.34143 53.4072 9.64291C54.4115 9.93855 55.3471 10.4306 56.1598 11.0905C56.9725 11.7505 57.6462 12.5652 58.1417 13.4874C58.643 14.4066 58.9569 15.4162 59.0651 16.4576C59.1734 17.4991 59.0739 18.5516 58.7724 19.5543C58.476 20.5588 57.9835 21.4946 57.3233 22.3077C56.6631 23.1207 55.8484 23.7949 54.9261 24.2912ZM62.7434 54.4507H16.2988C15.9715 54.4507 15.6575 54.3207 15.426 54.0892C15.1945 53.8577 15.0645 53.5437 15.0645 53.2163C15.0645 52.889 15.1945 52.575 15.426 52.3435C15.6575 52.112 15.9715 51.982 16.2988 51.982H62.7434C63.0708 51.982 63.3848 52.112 63.6163 52.3435C63.8477 52.575 63.9778 52.889 63.9778 53.2163C63.9778 53.5437 63.8477 53.8577 63.6163 54.0892C63.3848 54.3207 63.0708 54.4507 62.7434 54.4507Z" fill="#CEB290"/>
</svg>
