<svg width="196" height="54" viewBox="0 0 196 54" fill="none" xmlns="http://www.w3.org/2000/svg">
<path d="M117.787 44.0902C117.787 43.1002 117.72 42.1761 117.453 41.3841C117.253 40.592 116.986 39.932 116.585 39.338C116.185 38.744 115.718 38.2819 115.184 37.8859C114.65 37.4899 114.05 37.1599 113.382 36.9619C112.715 36.6979 111.981 36.5659 111.18 36.4338C110.379 36.3678 109.512 36.3018 108.644 36.3018H100.636V51.9446H108.644C109.979 51.9446 111.247 51.8126 112.381 51.5486C113.516 51.2846 114.45 50.8885 115.251 50.2945C116.052 49.7005 116.652 48.9084 117.119 47.8524C117.52 46.9284 117.787 45.6743 117.787 44.0902ZM119.522 44.0902C119.522 45.2783 119.388 46.3343 119.121 47.3244C118.854 48.2484 118.521 49.1065 118.054 49.7665C117.586 50.4925 117.053 51.0206 116.385 51.5486C115.718 52.0106 114.984 52.4066 114.183 52.7366C113.382 53.0006 112.515 53.2647 111.58 53.3967C110.646 53.5287 109.645 53.5947 108.577 53.5947H98.7673V34.7838H108.511C110.045 34.7838 111.514 34.9158 112.848 35.2458C114.183 35.5758 115.317 36.0378 116.319 36.7639C117.32 37.4899 118.054 38.48 118.654 39.668C119.255 40.7901 119.522 42.3081 119.522 44.0902ZM77.4121 53.5287V34.7178H93.2283V36.3018H79.2807V42.8362H92.5609V44.4202H79.2807V52.0106H93.4285V53.5947H77.4121V53.5287Z" fill="black"/>
<path d="M69.338 53.5287V37.5559L58.8607 53.5287H57.3258L46.9151 37.4899V53.5287H45.1133V34.7178H47.0486L58.1933 51.7466L69.2045 34.7178H71.0064V53.5287H69.338Z" fill="black"/>
<path d="M124.527 53.5287V34.7178H126.329V53.5287H124.527Z" fill="black"/>
<path d="M180.385 53.5287V34.7178H182.187V51.9446H196.001V53.5287H180.385Z" fill="black"/>
<path d="M152.222 52.0765C151.554 52.3405 150.887 52.6046 150.22 52.8026C149.552 53.0006 148.885 53.1986 148.218 53.3966C147.55 53.5286 146.749 53.6606 146.015 53.7926C145.215 53.8586 144.414 53.9246 143.479 53.9246C142.345 53.9246 141.277 53.8586 140.209 53.6606C139.142 53.4626 138.207 53.1986 137.34 52.8686C136.472 52.4726 135.605 52.0765 134.871 51.4825C134.137 50.9545 133.536 50.2945 133.002 49.5684C132.468 48.8424 132.068 48.0503 131.801 47.1263C131.534 46.2023 131.4 45.2122 131.4 44.1562C131.4 43.1001 131.534 42.1101 131.801 41.186C132.068 40.262 132.468 39.4699 133.002 38.7439C133.536 38.0179 134.137 37.4238 134.871 36.8298C135.605 36.3018 136.406 35.8398 137.34 35.4437C138.207 35.0477 139.208 34.7837 140.209 34.6517C141.21 34.4537 142.345 34.3877 143.479 34.3877C144.414 34.3877 145.215 34.4537 146.015 34.5197C146.816 34.5857 147.55 34.7177 148.218 34.9157C148.952 35.1137 149.619 35.2457 150.22 35.5097C150.887 35.7078 151.554 35.9718 152.222 36.2358V38.2819C151.688 37.9519 151.154 37.6219 150.553 37.3578C149.953 37.0938 149.285 36.8298 148.618 36.5658C147.951 36.3678 147.15 36.1698 146.416 36.0378C145.615 35.9058 144.747 35.8398 143.88 35.8398C142.078 35.8398 140.476 36.0378 139.142 36.4338C137.807 36.8298 136.672 37.3578 135.805 38.0839C134.937 38.8099 134.27 39.6679 133.87 40.658C133.469 41.648 133.269 42.8361 133.269 44.0902C133.269 45.3442 133.469 46.4663 133.87 47.4563C134.27 48.4464 134.937 49.3044 135.805 50.0304C136.672 50.7565 137.807 51.2845 139.142 51.6805C140.476 52.0765 142.078 52.2745 143.88 52.2745C144.814 52.2745 145.615 52.2085 146.416 52.0765C147.217 51.9445 147.951 51.8125 148.685 51.5485C149.419 51.3505 150.019 51.0865 150.62 50.8225C151.221 50.5585 151.755 50.2284 152.222 49.9644V52.0765Z" fill="black"/>
<path d="M28.1621 28.2494V9.43848H43.9783V11.0225H30.0307C30.0307 13.2007 30.0307 15.3788 30.0307 17.5569H43.3109V19.1409H30.0307V26.7313H44.1785V28.3154H28.1621V28.2494Z" fill="black"/>
<path d="M21.4881 23.0352C21.4881 22.3092 21.3546 21.7152 21.0877 21.1871C20.8207 20.6591 20.4871 20.2631 19.9532 19.9331C19.4193 19.603 18.752 19.405 17.9511 19.207C17.1503 19.075 16.1493 19.009 15.0815 19.009H6.20581V26.5994H15.3485C16.483 26.5994 17.484 26.5334 18.2848 26.4014C19.0856 26.2694 19.6862 26.0714 20.2201 25.7413C20.6873 25.4773 21.0209 25.0813 21.2879 24.6193C21.4213 24.2233 21.4881 23.6952 21.4881 23.0352ZM20.2869 14.2568C20.2869 13.9928 20.2869 13.7288 20.2201 13.4648C20.2201 13.2007 20.0867 12.9367 19.9532 12.7387C19.8197 12.4747 19.6195 12.2767 19.4193 12.0787C19.1524 11.8807 18.8187 11.6827 18.4183 11.5507C18.0179 11.4187 17.484 11.2867 16.8834 11.2206C16.2828 11.1546 15.5487 11.0886 14.6144 11.0886H6.20581V17.623H14.6144C15.8824 17.623 16.8166 17.557 17.6175 17.3589C18.3515 17.1609 18.9522 16.9629 19.3526 16.6329C19.753 16.3029 20.0199 15.9729 20.1534 15.5769C20.2201 15.1148 20.2869 14.6528 20.2869 14.2568ZM23.2899 23.0352C23.2899 23.7612 23.2232 24.4213 23.023 24.9493C22.8228 25.4773 22.5558 25.9394 22.2222 26.3354C21.8885 26.7314 21.4881 27.0614 20.9542 27.2594C20.4871 27.5234 19.9532 27.7214 19.3526 27.8534C18.752 27.9855 18.1513 28.1175 17.484 28.1175C16.8166 28.1835 16.1493 28.1835 15.4152 28.1835H4.4707V9.37256H15.215C15.7489 9.37256 16.2828 9.37256 16.8166 9.43857C17.3505 9.50457 17.8844 9.57057 18.4183 9.70257C18.9522 9.83458 19.4193 9.96659 19.8197 10.2306C20.2201 10.4286 20.6205 10.7586 20.9542 11.0886C21.2879 11.4187 21.4881 11.8807 21.6883 12.4087C21.8885 12.9367 21.9552 13.5308 21.9552 14.1908C21.9552 14.7848 21.8885 15.3128 21.755 15.7749C21.6215 16.2369 21.3546 16.6329 21.0877 16.8969C20.754 17.2269 20.4203 17.491 19.8864 17.689C19.4193 17.887 18.8854 18.085 18.2181 18.151C19.1524 18.217 19.9532 18.349 20.5538 18.613C21.2211 18.877 21.755 19.207 22.1554 19.603C22.5558 19.9991 22.8895 20.5271 23.0897 21.0551C23.2232 21.7151 23.2899 22.3092 23.2899 23.0352Z" fill="black"/>
<path d="M91.2938 22.3091C91.2938 23.2331 91.0936 24.0912 90.6932 24.8832C90.2928 25.6753 89.6922 26.3353 88.8914 26.8633C88.0906 27.3913 87.0896 27.8534 85.8883 28.1174C84.6871 28.4474 83.2857 28.5794 81.684 28.5794C80.0824 28.5794 78.681 28.4474 77.4797 28.1174C76.2785 27.7874 75.2775 27.3913 74.4767 26.8633C73.6759 26.3353 73.0752 25.6753 72.6748 24.8832C72.2744 24.0912 72.0742 23.2331 72.0742 22.3091V9.43848H73.8761V22.4411C73.8761 23.0351 74.0095 23.6292 74.4099 24.2232C74.7436 24.7512 75.2108 25.2792 75.8781 25.6752C76.5454 26.0713 77.3463 26.4013 78.3473 26.6653C79.3483 26.9293 80.4161 27.0613 81.7508 27.0613C83.0187 27.0613 84.1532 26.9293 85.0875 26.6653C86.0885 26.4013 86.8893 26.0713 87.5567 25.6752C88.224 25.2792 88.6912 24.7512 89.0249 24.2232C89.3585 23.6952 89.5587 23.1011 89.5587 22.4411V9.43848H91.3606V22.3091H91.2938Z" fill="black"/>
<path d="M105.24 11.0225V28.2494H103.572V11.0225H94.8965V9.43848H113.916V11.0225H105.24Z" fill="black"/>
<path d="M126.195 20.263V28.2494H124.394V20.263L115.451 9.43848H117.52L125.328 18.8769L133.002 9.43848H135.138L126.195 20.263Z" fill="black"/>
<path d="M36.6377 52.2083V53.6604H36.3041V52.2083L34.7024 50.2282H35.1028L36.5043 51.9443L37.9057 50.2282H38.3061L36.6377 52.2083ZM32.7671 50.4922V53.6604H32.4334V50.4922H30.8318V50.2282H34.302V50.4922H32.7671ZM30.2312 52.5383C30.2312 52.7363 30.1644 52.8683 30.0977 53.0003C30.031 53.1323 29.8975 53.2643 29.764 53.3304C29.6306 53.4624 29.4304 53.5284 29.2302 53.5944C29.03 53.6604 28.763 53.6604 28.4961 53.6604C28.2291 53.6604 27.9622 53.6604 27.762 53.5944C27.5618 53.5284 27.3616 53.4624 27.2281 53.3304C27.0946 53.1983 26.9612 53.1323 26.8944 53.0003C26.8277 52.8683 26.761 52.7363 26.761 52.5383V50.1622H27.0946V52.5383C27.0946 52.6703 27.0946 52.7363 27.1614 52.8683C27.2281 53.0003 27.2948 53.0663 27.4283 53.1323C27.5618 53.1983 27.6953 53.2643 27.8955 53.3304C28.0957 53.3964 28.2959 53.3964 28.4961 53.3964C28.6963 53.3964 28.9632 53.3964 29.0967 53.3304C29.2969 53.2643 29.4304 53.1983 29.5638 53.1323C29.6973 53.0663 29.764 52.9343 29.8308 52.8683C29.8975 52.7363 29.8975 52.6703 29.8975 52.5383V50.1622H30.2312V52.5383ZM24.1583 50.4922L23.1573 52.4063H25.2261L24.1583 50.4922ZM25.8267 53.6604L25.3595 52.7363H23.0238L22.5567 53.6604H22.223L24.0248 50.2282H24.4253L26.2271 53.6604H25.8267ZM18.7528 53.6604V50.2282H21.6224V50.4922H19.0865V51.6803H21.4889V51.9443H19.0865V53.3304H21.6891V53.5944H18.7528V53.6604ZM17.5516 52.6703C17.5516 52.5383 17.5516 52.4063 17.4848 52.3403C17.4181 52.2743 17.3514 52.1423 17.2846 52.1423C17.2179 52.0763 17.0844 52.0103 16.951 52.0103C16.8175 52.0103 16.6173 51.9443 16.4171 51.9443H14.8154V53.3304H16.4838C16.684 53.3304 16.8842 53.3303 17.0177 53.2643C17.1512 53.2643 17.2846 53.1983 17.3514 53.1323C17.4181 53.0663 17.4848 53.0003 17.5516 52.9343C17.4848 52.9343 17.5516 52.8023 17.5516 52.6703ZM17.2846 51.0862C17.2846 51.0202 17.2846 51.0202 17.2846 50.9542C17.2846 50.8882 17.2846 50.8882 17.2179 50.8222C17.2179 50.7562 17.1512 50.7562 17.0844 50.6902C17.0177 50.6242 16.951 50.6242 16.8842 50.6242C16.8175 50.6242 16.684 50.5582 16.6173 50.5582C16.4838 50.5582 16.3503 50.5582 16.2169 50.5582H14.682V51.7463H16.2169C16.4171 51.7463 16.6173 51.7463 16.7507 51.6803C16.8842 51.6803 17.0177 51.6143 17.0844 51.5483C17.1512 51.4823 17.2179 51.4163 17.2179 51.3503C17.2846 51.2183 17.2846 51.1522 17.2846 51.0862ZM17.8185 52.6703C17.8185 52.8023 17.8185 52.9343 17.7518 53.0003C17.685 53.0663 17.685 53.1983 17.6183 53.2643C17.5516 53.3303 17.4848 53.3964 17.4181 53.4624C17.3514 53.5284 17.2179 53.5284 17.1512 53.5944C17.0177 53.5944 16.951 53.6604 16.8175 53.6604C16.684 53.6604 16.5505 53.6604 16.4171 53.6604H14.415V50.2282H16.3503C16.4171 50.2282 16.5505 50.2282 16.6173 50.2282C16.684 50.2282 16.8175 50.2282 16.8842 50.2942C16.951 50.2942 17.0844 50.3602 17.1512 50.3602C17.2179 50.4262 17.2846 50.4262 17.3514 50.4922C17.4181 50.5582 17.4848 50.6242 17.4848 50.7562C17.4848 50.8222 17.5516 50.9542 17.5516 51.0862C17.5516 51.2182 17.5516 51.2843 17.4848 51.3503C17.4848 51.4163 17.4181 51.4823 17.3514 51.5483C17.2846 51.6143 17.2179 51.6803 17.1512 51.6803C17.0844 51.7463 16.951 51.7463 16.8175 51.7463C17.0177 51.7463 17.1512 51.8123 17.2179 51.8123C17.3514 51.8783 17.4181 51.9443 17.4848 52.0103C17.5516 52.0763 17.6183 52.1423 17.6183 52.2743C17.8185 52.4723 17.8185 52.5383 17.8185 52.6703ZM8.34216 50.8882C8.34216 51.0202 8.34216 51.0862 8.4089 51.2183C8.47563 51.3503 8.6091 51.4823 8.74257 51.6143C8.87604 51.5483 9.00951 51.4823 9.14298 51.4163C9.27645 51.3503 9.40992 51.2843 9.54339 51.2183C9.67686 51.1523 9.74359 51.0862 9.81033 51.0202C9.87706 50.9542 9.87706 50.8882 9.87706 50.8222C9.87706 50.7562 9.87706 50.7562 9.87706 50.6902C9.87706 50.6242 9.81033 50.6242 9.74359 50.5582C9.67686 50.4922 9.61012 50.4922 9.54339 50.4922C9.47665 50.4922 9.34318 50.4922 9.20971 50.4922C9.07625 50.4922 8.94278 50.4922 8.87604 50.4922C8.74257 50.4922 8.67584 50.5582 8.6091 50.5582C8.54237 50.6242 8.47563 50.6242 8.4089 50.6902C8.34216 50.7562 8.34216 50.8222 8.34216 50.8882ZM9.07625 53.4624C9.34318 53.4624 9.54339 53.4624 9.74359 53.3964C9.9438 53.3303 10.144 53.2644 10.2775 53.1983C9.9438 52.9343 9.61012 52.7363 9.34318 52.5383C9.07625 52.3403 8.80931 52.1423 8.67584 51.9443C8.6091 51.9443 8.54237 52.0103 8.47563 52.0103C8.4089 52.0103 8.34216 52.0763 8.27543 52.1423C8.20869 52.2083 8.14196 52.2083 8.07522 52.2743C8.00849 52.3403 7.94175 52.3403 7.94175 52.4063C7.87502 52.4723 7.87502 52.5383 7.80828 52.6043C7.80828 52.6703 7.74155 52.7363 7.74155 52.8023C7.74155 52.8683 7.74155 53.0003 7.80828 53.0663C7.87502 53.1323 7.94175 53.1983 8.00849 53.2643C8.14196 53.3303 8.27543 53.3964 8.4089 53.3964C8.67584 53.3964 8.87604 53.4624 9.07625 53.4624ZM11.3452 52.0103C11.3452 52.2083 11.2785 52.4063 11.145 52.6043C11.0783 52.8023 10.9448 53.0003 10.7446 53.1323C10.8114 53.1983 10.8781 53.1983 10.8781 53.2643C10.9448 53.3303 11.0116 53.3303 11.0783 53.3964C11.145 53.4624 11.2118 53.4624 11.2785 53.5284C11.3452 53.5944 11.412 53.6604 11.5454 53.6604H11.0783C11.0116 53.5944 10.8781 53.5284 10.8114 53.4624C10.7446 53.3964 10.6111 53.3303 10.5444 53.2643C10.3442 53.3964 10.144 53.4624 9.87706 53.5944C9.61012 53.6604 9.34318 53.7264 9.00951 53.7264C8.80931 53.7264 8.6091 53.7264 8.4089 53.6604C8.20869 53.5944 8.07522 53.5944 7.94175 53.4624C7.80828 53.3964 7.67481 53.2644 7.60808 53.1983C7.54134 53.0663 7.47461 52.9343 7.47461 52.8023C7.47461 52.6703 7.47461 52.6043 7.54134 52.4723C7.60808 52.4063 7.67481 52.2743 7.74155 52.2083C7.80828 52.1423 7.94175 52.0763 8.07522 51.9443C8.20869 51.8783 8.34216 51.8123 8.47563 51.7463C8.34216 51.6143 8.20869 51.4163 8.14196 51.2843C8.07522 51.1522 8.00849 51.0202 8.00849 50.8882C8.00849 50.7562 8.00849 50.6242 8.07522 50.5582C8.14196 50.4922 8.20869 50.3602 8.34216 50.2942C8.47563 50.2282 8.54237 50.1622 8.74257 50.1622C8.87604 50.1622 9.00951 50.0962 9.20971 50.0962C9.34318 50.0962 9.47665 50.0962 9.61012 50.1622C9.74359 50.1622 9.81033 50.2282 9.9438 50.2942C10.0105 50.3602 10.0773 50.4262 10.144 50.4922C10.2107 50.5582 10.2107 50.6242 10.2107 50.7562C10.2107 50.8882 10.144 50.9542 10.0773 51.0862C10.0105 51.1522 9.87706 51.2843 9.81033 51.3503C9.67686 51.4163 9.54339 51.4823 9.40992 51.6143C9.27645 51.6803 9.07624 51.7463 8.94278 51.8123C9.14298 51.9443 9.34318 52.1423 9.61012 52.3403C9.87706 52.5383 10.2107 52.7363 10.5444 53.0003C10.6779 52.8683 10.8113 52.7363 10.8781 52.5383C10.9448 52.3403 11.0116 52.2083 11.0116 52.0103H11.3452Z" fill="black"/>
<path d="M37.9054 45.9381V44.288H34.8356V45.9381H34.5019V42.5059H34.8356V43.958H37.9054V42.5059H38.239V45.9381H37.9054ZM32.2329 42.77V45.9381H31.8992V42.77H30.2976V42.5059H33.7678V42.77H32.2329ZM27.8952 45.9381V42.5059H28.2288V45.6741H30.7647V45.9381H27.8952ZM25.2258 42.77L24.2247 44.684H26.2935L25.2258 42.77ZM26.8274 45.9381L26.3603 45.0141H24.0245L23.5574 45.9381H23.2237L25.0256 42.5059H25.3592L27.1611 45.9381H26.8274ZM19.7535 45.9381V42.5059H22.6898V42.77H20.1539V43.958H22.5564V44.222H20.1539V45.6081H22.6898V45.8721H19.7535V45.9381ZM18.2853 45.9381V44.288H15.2155V45.9381H14.8819V42.5059H15.2155V43.958H18.2853V42.5059H18.619V45.9381H18.2853ZM11.5451 43.496C11.5451 43.364 11.5451 43.232 11.4784 43.166C11.4117 43.1 11.3449 43.034 11.2114 42.968C11.078 42.902 10.9445 42.902 10.7443 42.836C10.5441 42.836 10.3439 42.836 10.077 42.836H9.0092V44.222H10.0102C10.2772 44.222 10.5441 44.222 10.7443 44.222C10.9445 44.222 11.078 44.156 11.2114 44.156C11.3449 44.09 11.4117 44.024 11.4784 43.958C11.4784 43.76 11.5451 43.628 11.5451 43.496ZM8.94246 44.486V45.9381H8.60879V42.5059H10.3439C10.6108 42.5059 10.811 42.5059 11.0112 42.5719C11.2114 42.6379 11.3449 42.704 11.4784 42.77C11.6119 42.836 11.6786 42.968 11.7453 43.1C11.8121 43.232 11.8121 43.364 11.8121 43.562C11.8121 43.826 11.7453 44.024 11.6119 44.156C11.4784 44.288 11.2782 44.42 10.9445 44.486L12.1457 46.0041H11.7453L10.6108 44.552C10.5441 44.552 10.5441 44.552 10.4774 44.552C10.4106 44.552 10.4106 44.552 10.3439 44.552H8.94246V44.486ZM7.40756 44.222C7.40756 43.958 7.34083 43.76 7.27409 43.562C7.20736 43.364 7.07389 43.232 6.94042 43.1C6.80695 42.968 6.60675 42.902 6.33981 42.836C6.1396 42.77 5.80593 42.77 5.53899 42.77C5.20532 42.77 4.93838 42.836 4.73817 42.836C4.47123 42.902 4.33776 42.968 4.13756 43.1C4.00409 43.232 3.87062 43.364 3.80388 43.562C3.73715 43.76 3.67041 43.958 3.67041 44.222C3.67041 44.486 3.73715 44.684 3.80388 44.8821C3.87062 45.0801 4.00409 45.2121 4.13756 45.3441C4.27103 45.4761 4.47123 45.5421 4.73817 45.6081C5.00511 45.6741 5.27205 45.6741 5.53899 45.6741C5.87266 45.6741 6.1396 45.6741 6.33981 45.6081C6.54001 45.5421 6.74022 45.4761 6.94042 45.3441C7.07389 45.2121 7.20736 45.0801 7.27409 44.8821C7.34083 44.684 7.40756 44.486 7.40756 44.222ZM7.74124 44.222C7.74124 44.552 7.6745 44.8161 7.54103 45.0141C7.40756 45.2121 7.2741 45.4101 7.07389 45.5421C6.87369 45.6741 6.67348 45.8061 6.40654 45.8721C6.1396 45.9381 5.87266 46.0041 5.53899 46.0041C5.20532 46.0041 4.93838 45.9381 4.67144 45.8721C4.4045 45.8061 4.13756 45.6741 3.93735 45.5421C3.73715 45.4101 3.60368 45.2121 3.47021 45.0141C3.33674 44.8161 3.33674 44.552 3.33674 44.222C3.33674 44.024 3.33674 43.826 3.40348 43.694C3.47021 43.496 3.53695 43.364 3.60368 43.232C3.67041 43.1 3.80388 42.968 3.93735 42.902C4.07082 42.836 4.20429 42.704 4.4045 42.638C4.53797 42.5719 4.73817 42.5059 4.93838 42.5059C5.13858 42.5059 5.33879 42.4399 5.53899 42.4399C5.87266 42.4399 6.1396 42.5059 6.40654 42.5719C6.67348 42.6379 6.87369 42.77 7.07389 42.902C7.2741 43.034 7.40756 43.232 7.54103 43.43C7.6745 43.628 7.74124 43.892 7.74124 44.222ZM0.333674 42.77V43.958H2.60266V44.222H0.333674V45.8721H0V42.4399H2.73613V42.704H0.333674V42.77Z" fill="black"/>
<path d="M37.5708 35.9716C37.5708 35.8396 37.5708 35.7076 37.504 35.6416C37.4373 35.5756 37.3705 35.5096 37.2371 35.4436C37.1036 35.3776 36.9701 35.3776 36.7699 35.3116C36.5697 35.3116 36.3695 35.3116 36.1026 35.3116H35.0348V36.6976H36.1026C36.3695 36.6976 36.6365 36.6976 36.8367 36.6976C37.0369 36.6976 37.1703 36.6316 37.3038 36.6316C37.4373 36.5656 37.504 36.4996 37.5708 36.4336C37.5708 36.2356 37.5708 36.1036 37.5708 35.9716ZM35.0348 36.9616V38.4137H34.7012V34.9815H36.4363C36.7032 34.9815 36.9034 34.9815 37.1036 35.0475C37.3038 35.1135 37.4373 35.1795 37.5708 35.2455C37.7042 35.3115 37.771 35.4436 37.8377 35.5756C37.9044 35.7076 37.9044 35.8396 37.9044 36.0376C37.9044 36.3016 37.8377 36.4996 37.7042 36.6316C37.5708 36.7636 37.3705 36.8956 37.0369 36.9616L38.2381 38.4797H37.8377L36.7032 37.0276C36.6365 37.0276 36.6365 37.0276 36.5697 37.0276C36.503 37.0276 36.503 37.0276 36.4363 37.0276H35.0348V36.9616ZM30.8305 38.4137V34.9815H33.7001V35.2455H31.1642V36.4336H33.5667V36.6976H31.1642V38.0837H33.7669V38.3477H30.8305V38.4137ZM28.5616 35.2455V38.4137H28.2279V35.2455H26.6262V34.9815H30.0965V35.2455H28.5616ZM25.6252 38.4137L22.6222 35.3776V38.4137H22.2885V34.9815H22.6889L25.692 38.0177V34.9815H26.0256V38.4137H25.6252ZM18.4179 38.4137V34.9815H21.2875V35.2455H18.7515V36.4336H21.154V36.6976H18.7515V38.0837H21.3542V38.3477H18.4179V38.4137ZM17.4836 38.1497C17.3501 38.2157 17.2166 38.2157 17.1499 38.2817C17.0164 38.3477 16.883 38.3477 16.7495 38.4137C16.616 38.4137 16.4825 38.4797 16.3491 38.4797C16.2156 38.4797 16.0821 38.4797 15.8819 38.4797C15.6817 38.4797 15.4815 38.4797 15.2813 38.4137C15.0811 38.3477 14.9476 38.3477 14.7474 38.2817C14.614 38.2157 14.4138 38.1497 14.2803 38.0177C14.1468 37.9517 14.0134 37.8197 13.9466 37.6877C13.8799 37.5557 13.7464 37.4236 13.7464 37.2256C13.6797 37.0936 13.6797 36.8956 13.6797 36.6976C13.6797 36.4996 13.6797 36.3016 13.7464 36.1696C13.8132 35.9716 13.8799 35.8396 13.9466 35.7076C14.0134 35.5756 14.1468 35.4436 14.2803 35.3776C14.4138 35.2456 14.5472 35.1795 14.7474 35.1135C14.8809 35.0475 15.0811 34.9815 15.2813 34.9815C15.4815 34.9155 15.6817 34.9155 15.8819 34.9155C16.0821 34.9155 16.2156 34.9155 16.3491 34.9155C16.4825 34.9155 16.616 34.9815 16.7495 34.9815C16.883 34.9815 17.0164 35.0475 17.1499 35.1135C17.2834 35.1795 17.4168 35.1795 17.4836 35.2455V35.6416C17.4168 35.5756 17.2834 35.5096 17.1499 35.4436C17.0164 35.3776 16.9497 35.3116 16.8162 35.3116C16.6828 35.2455 16.5493 35.2455 16.4158 35.2455C16.2823 35.2455 16.1489 35.1795 15.9487 35.1795C15.615 35.1795 15.3481 35.2455 15.0811 35.3116C14.8142 35.3776 14.614 35.5096 14.4805 35.6416C14.347 35.7736 14.2136 35.9056 14.1468 36.1036C14.0801 36.3016 14.0134 36.4996 14.0134 36.6976C14.0134 36.8956 14.0801 37.1596 14.1468 37.2916C14.2136 37.4897 14.347 37.6217 14.4805 37.7537C14.614 37.8857 14.8142 38.0177 15.0811 38.0837C15.3481 38.1497 15.615 38.2157 15.9487 38.2157C16.0821 38.2157 16.2823 38.2157 16.4158 38.1497C16.5493 38.1497 16.6828 38.0837 16.8162 38.0837C16.9497 38.0177 17.0832 38.0177 17.1499 37.9517C17.2834 37.8857 17.3501 37.8197 17.4168 37.8197V38.1497H17.4836Z" fill="black"/>
<path d="M78.748 8.71241L85.0211 2.50812V0L78.748 6.2043V8.71241Z" fill="black"/>
<path d="M66.1333 28.2494V27.1933C61.7288 29.5034 47.7812 30.2295 47.7812 22.8371C47.7812 14.8507 61.0615 15.9068 66.2001 16.7648L66.1333 15.3128C66.1333 14.7187 65.9999 14.2567 65.7997 13.7947C65.5994 13.3327 65.2658 13.0026 64.8654 12.6726C64.465 12.3426 63.9978 12.0786 63.4639 11.8806C62.9301 11.6826 62.3962 11.4846 61.7288 11.3526C61.1282 11.2206 60.4609 11.1546 59.7935 11.0886C59.1262 11.0226 58.4588 11.0225 57.7915 11.0225C56.8572 11.0225 56.0564 11.0886 55.2556 11.1546C54.5215 11.2206 53.7874 11.3526 53.12 11.4846C52.4527 11.6166 51.8521 11.8146 51.2515 12.0126C50.6509 12.2106 50.0502 12.4086 49.4496 12.6726V10.6925C50.7176 10.3625 52.0523 10.0985 53.4537 9.83449C54.8551 9.57048 56.39 9.43848 57.9917 9.43848C59.3264 9.43848 60.5943 9.57048 61.7956 9.76849C62.9968 9.9665 63.9978 10.3625 64.8654 10.8905C65.7329 11.4186 66.4003 12.0126 66.9341 12.8046C67.4013 13.5967 67.6682 14.5867 67.6682 15.7088V28.2494H66.1333ZM66.2668 18.8769C58.8592 16.8968 49.3829 17.9529 49.5831 22.8371C49.85 28.7114 63.0635 27.8534 66.2001 25.5432L66.2668 18.8769Z" fill="black"/>
<path d="M174.245 53.4623V52.4062C169.84 54.7163 155.893 55.4424 155.893 48.05C155.893 40.0636 169.173 41.1197 174.311 41.9777L174.245 40.5256C174.245 39.9316 174.111 39.4696 173.911 39.0076C173.711 38.5456 173.377 38.2155 172.977 37.8855C172.576 37.5555 172.109 37.2915 171.575 37.0935C171.041 36.8955 170.507 36.6975 169.84 36.5655C169.24 36.4334 168.572 36.3674 167.905 36.3014C167.237 36.2354 166.57 36.2354 165.903 36.2354C164.969 36.2354 164.168 36.3015 163.367 36.3675C162.633 36.4335 161.899 36.5655 161.231 36.6975C160.564 36.8295 159.963 37.0275 159.363 37.2255C158.762 37.4235 158.162 37.6215 157.561 37.8855V35.9054C158.829 35.5754 160.164 35.3114 161.565 35.0474C162.966 34.7834 164.501 34.6514 166.103 34.6514C167.438 34.6514 168.706 34.7834 169.907 34.9814C171.108 35.1794 172.109 35.5754 172.977 36.1034C173.844 36.6315 174.512 37.2255 175.045 38.0175C175.513 38.8096 175.78 39.7996 175.78 40.9217V53.4623H174.245ZM174.311 44.0898C166.904 42.1097 157.427 43.1658 157.628 48.05C157.895 53.9243 171.108 53.0662 174.245 50.7561L174.311 44.0898Z" fill="black"/>
</svg>
