<svg width="33" height="33" viewBox="0 0 33 33" fill="none" xmlns="http://www.w3.org/2000/svg">
<path d="M19.3192 8.25C20.6622 8.51203 21.8965 9.16885 22.864 10.1364C23.8316 11.104 24.4884 12.3382 24.7505 13.6812M19.3192 2.75C22.1095 3.05997 24.7114 4.30949 26.6978 6.29339C28.6842 8.27728 29.937 10.8776 30.2505 13.6675M28.8755 24.64V28.765C28.877 29.1479 28.7986 29.527 28.6452 29.8779C28.4917 30.2287 28.2667 30.5437 27.9846 30.8026C27.7024 31.0614 27.3692 31.2585 27.0065 31.3812C26.6437 31.5039 26.2593 31.5495 25.878 31.515C21.6469 31.0553 17.5826 29.6094 14.0117 27.2938C10.6895 25.1827 7.87279 22.366 5.76171 19.0438C3.43793 15.4567 1.99179 11.3726 1.54046 7.1225C1.5061 6.74227 1.55129 6.35905 1.67315 5.99723C1.79501 5.63542 1.99087 5.30295 2.24826 5.02098C2.50565 4.73901 2.81894 4.51373 3.16817 4.35947C3.5174 4.20521 3.89493 4.12536 4.27671 4.125H8.40171C9.069 4.11843 9.71592 4.35473 10.2219 4.78986C10.7278 5.22498 11.0583 5.82924 11.1517 6.49C11.3258 7.81009 11.6487 9.10625 12.1142 10.3538C12.2992 10.8459 12.3392 11.3808 12.2296 11.895C12.1199 12.4092 11.8651 12.8812 11.4955 13.255L9.74921 15.0012C11.7066 18.4436 14.5568 21.2939 17.9992 23.2512L19.7455 21.505C20.1193 21.1353 20.5913 20.8805 21.1055 20.7709C21.6197 20.6612 22.1546 20.7013 22.6467 20.8862C23.8942 21.3518 25.1904 21.6746 26.5105 21.8488C27.1784 21.943 27.7884 22.2794 28.2244 22.7941C28.6605 23.3087 28.8922 23.9657 28.8755 24.64Z" stroke="#CEB290" stroke-linecap="round" stroke-linejoin="round"/>
</svg>
