<svg width="24" height="24" viewBox="0 0 24 24" fill="none" xmlns="http://www.w3.org/2000/svg">
<path d="M14.0514 6C15.0281 6.19057 15.9258 6.66826 16.6295 7.37194C17.3331 8.07561 17.8108 8.97326 18.0014 9.95M14.0514 2C16.0807 2.22544 17.973 3.13417 19.4176 4.57701C20.8623 6.01984 21.7734 7.91101 22.0014 9.94M21.0014 17.92V20.92C21.0025 21.1985 20.9455 21.4742 20.8339 21.7293C20.7223 21.9845 20.5587 22.2136 20.3535 22.4019C20.1483 22.5901 19.906 22.7335 19.6421 22.8227C19.3783 22.9119 19.0988 22.9451 18.8214 22.92C15.7442 22.5856 12.7884 21.5341 10.1914 19.85C7.77523 18.3147 5.72673 16.2662 4.1914 13.85C2.50138 11.2412 1.44964 8.27099 1.1214 5.18C1.09641 4.90347 1.12927 4.62476 1.2179 4.36162C1.30652 4.09849 1.44897 3.85669 1.63616 3.65162C1.82336 3.44655 2.0512 3.28271 2.30519 3.17052C2.55917 3.05833 2.83374 3.00026 3.1114 3H6.1114C6.5967 2.99522 7.06719 3.16708 7.43516 3.48353C7.80313 3.79999 8.04348 4.23945 8.1114 4.72C8.23802 5.68007 8.47285 6.62273 8.8114 7.53C8.94594 7.88792 8.97506 8.27691 8.8953 8.65088C8.81555 9.02485 8.63026 9.36811 8.3614 9.64L7.0914 10.91C8.51495 13.4135 10.5879 15.4864 13.0914 16.91L14.3614 15.64C14.6333 15.3711 14.9766 15.1858 15.3505 15.1061C15.7245 15.0263 16.1135 15.0555 16.4714 15.19C17.3787 15.5286 18.3213 15.7634 19.2814 15.89C19.7672 15.9585 20.2108 16.2032 20.5279 16.5775C20.8451 16.9518 21.0136 17.4296 21.0014 17.92Z" stroke="black" stroke-linecap="round" stroke-linejoin="round"/>
</svg>
