<svg width="57" height="36" viewBox="0 0 57 36" fill="none" xmlns="http://www.w3.org/2000/svg">
<path d="M24.9719 13.8408C24.9902 13.5687 24.9996 13.2942 24.9996 13.0174C24.9996 6.38039 19.6271 1 12.9998 1C6.37249 1 1 6.38039 1 13.0174C1 19.5883 6.26584 24.9274 12.8018 25.0333C10.5429 29.5499 6.70869 32.8219 4.20037 34.6488C17.0001 34.0079 25 20.5 25 13.8186L24.9719 13.8408Z" stroke="#CEB290" stroke-width="2"/>
<path d="M55.9719 13.8408C55.9902 13.5687 55.9996 13.2942 55.9996 13.0174C55.9996 6.38039 50.6271 1 43.9998 1C37.3725 1 32 6.38039 32 13.0174C32 19.5883 37.2658 24.9274 43.8018 25.0333C41.5429 29.5499 37.7087 32.8219 35.2004 34.6488C48.0001 34.0079 56 20.5 56 13.8186L55.9719 13.8408Z" stroke="#CEB290" stroke-width="2"/>
</svg>
