<svg width="24" height="24" viewBox="0 0 24 24" fill="none" xmlns="http://www.w3.org/2000/svg">
<path d="M3.64702 17.5L4.10646 17.6973L4.2128 17.4496L4.06437 17.2246L3.64702 17.5ZM6.72958 20.5L6.99347 20.0753C6.86069 19.9928 6.69698 19.9771 6.55097 20.033L6.72958 20.5ZM1.5 22.5L1.04057 22.3027L0.573898 23.3895L1.6786 22.967L1.5 22.5ZM21.5 12C21.5 17.2467 17.2467 21.5 12 21.5V22.5C17.799 22.5 22.5 17.799 22.5 12H21.5ZM2.5 12C2.5 6.75329 6.7533 2.5 12 2.5V1.5C6.20101 1.5 1.5 6.20101 1.5 12H2.5ZM12 2.5C17.2467 2.5 21.5 6.75329 21.5 12H22.5C22.5 6.20101 17.799 1.5 12 1.5V2.5ZM4.06437 17.2246C3.07556 15.7259 2.5 13.9309 2.5 12H1.5C1.5 14.1327 2.13636 16.1183 3.22968 17.7754L4.06437 17.2246ZM12 21.5C10.1617 21.5 8.44683 20.9784 6.99347 20.0753L6.46569 20.9247C8.07289 21.9234 9.96987 22.5 12 22.5V21.5ZM3.18759 17.3027L1.04057 22.3027L1.95943 22.6973L4.10646 17.6973L3.18759 17.3027ZM1.6786 22.967L6.90818 20.967L6.55097 20.033L1.3214 22.033L1.6786 22.967Z" fill="black"/>
<path d="M15.9997 14.7382V16.0931C16.0002 16.2189 15.9744 16.3434 15.9239 16.4586C15.8734 16.5739 15.7994 16.6773 15.7065 16.7623C15.6137 16.8474 15.504 16.9121 15.3846 16.9524C15.2653 16.9927 15.1387 17.0077 15.0132 16.9963C13.6208 16.8453 12.2832 16.3705 11.108 15.6099C10.0146 14.9165 9.08767 13.9913 8.3929 12.9001C7.62814 11.7219 7.15221 10.3805 7.00367 8.98458C6.99236 8.85969 7.00724 8.73382 7.04734 8.61498C7.08745 8.49614 7.1519 8.38694 7.23661 8.29433C7.32132 8.20172 7.42443 8.12772 7.53936 8.07706C7.65429 8.02639 7.77854 8.00016 7.90418 8.00004H9.26174C9.48135 7.99789 9.69425 8.0755 9.86076 8.21842C10.0273 8.36133 10.136 8.5598 10.1668 8.77683C10.2241 9.21042 10.3303 9.63614 10.4835 10.0459C10.5444 10.2075 10.5576 10.3832 10.5215 10.5521C10.4854 10.721 10.4016 10.876 10.2799 10.9988L9.7052 11.5724C10.3494 12.703 11.2874 13.6392 12.4203 14.2821L12.995 13.7085C13.118 13.5871 13.2734 13.5034 13.4426 13.4674C13.6118 13.4314 13.7879 13.4445 13.9498 13.5053C14.3604 13.6582 14.7869 13.7643 15.2214 13.8214C15.4412 13.8524 15.642 13.9629 15.7855 14.1319C15.929 14.301 16.0052 14.5167 15.9997 14.7382Z" stroke="black" stroke-linecap="round" stroke-linejoin="round"/>
</svg>
