<svg width="160" height="50" viewBox="0 0 160 50" fill="none" xmlns="http://www.w3.org/2000/svg">
<rect x="0.394089" y="0.394089" width="159.212" height="49.2118" rx="7.48768" stroke="white" stroke-width="0.788177"/>
<g clip-path="url(#clip0_35_1003)">
<path d="M28.6209 10.9039C28.6906 10.9039 28.7603 10.9039 28.8339 10.9039C29.0049 13.0161 28.1987 14.5943 27.2189 15.7372C26.2575 16.8722 24.941 17.9731 22.8117 17.806C22.6696 15.7241 23.4772 14.2629 24.4557 13.1226C25.3631 12.06 27.0269 11.1144 28.6209 10.9039Z" fill="white"/>
<path d="M35.0667 32.8886C35.0667 32.9096 35.0667 32.928 35.0667 32.9478C34.4683 34.7601 33.6147 36.3133 32.5731 37.7548C31.6222 39.0634 30.4569 40.8244 28.3763 40.8244C26.5785 40.8244 25.3843 39.6684 23.5417 39.6368C21.5926 39.6053 20.5207 40.6035 18.7386 40.8547C18.5348 40.8547 18.3309 40.8547 18.131 40.8547C16.8224 40.6653 15.7663 39.6289 14.9969 38.6951C12.7282 35.9359 10.9751 32.3717 10.6489 27.8107C10.6489 27.3635 10.6489 26.9176 10.6489 26.4705C10.787 23.2062 12.3731 20.5521 14.4814 19.2659C15.594 18.582 17.1236 17.9994 18.8268 18.2598C19.5567 18.3729 20.3024 18.6228 20.956 18.87C21.5755 19.1081 22.3501 19.5302 23.084 19.5079C23.5812 19.4934 24.0757 19.2343 24.5767 19.0515C26.0445 18.5215 27.4833 17.9139 29.3798 18.1993C31.659 18.5439 33.2767 19.5566 34.2762 21.119C32.3482 22.3461 30.8239 24.1952 31.0843 27.353C31.3158 30.2214 32.9834 31.8996 35.0667 32.8886Z" fill="white"/>
</g>
<path d="M46.3764 10.0381H48.9585C49.7971 10.0381 50.5254 10.1926 51.1433 10.5016C51.7613 10.8105 52.2357 11.2519 52.5668 11.8257C52.8978 12.3995 53.0633 13.0763 53.0633 13.856C53.0633 15.136 52.6918 16.1071 51.9488 16.7692C51.2058 17.4239 50.1686 17.7512 48.8371 17.7512H46.3764V10.0381ZM48.8592 16.5926C49.7567 16.5926 50.4445 16.3535 50.9226 15.8754C51.4081 15.3898 51.6509 14.7167 51.6509 13.856C51.6509 13.3337 51.5442 12.874 51.3309 12.4767C51.1176 12.0721 50.8123 11.7595 50.415 11.5388C50.0178 11.3108 49.547 11.1967 49.0026 11.1967H47.7778V16.5926H48.8592ZM56.7133 17.9167C56.0954 17.9167 55.551 17.8064 55.0802 17.5857C54.6168 17.3577 54.2563 17.034 53.9988 16.6147C53.7414 16.188 53.6126 15.6841 53.6126 15.1029C53.6126 14.5365 53.7377 14.0436 53.9878 13.6243C54.2453 13.1977 54.6094 12.8703 55.0802 12.6423C55.551 12.4069 56.0954 12.2892 56.7133 12.2892C57.3313 12.2892 57.8719 12.4069 58.3354 12.6423C58.8062 12.8703 59.1703 13.1977 59.4278 13.6243C59.6853 14.0436 59.814 14.5365 59.814 15.1029C59.814 15.6841 59.6853 16.188 59.4278 16.6147C59.1703 17.034 58.8062 17.3577 58.3354 17.5857C57.8719 17.8064 57.3313 17.9167 56.7133 17.9167ZM56.7133 16.8243C57.2209 16.8243 57.6255 16.6662 57.9271 16.3498C58.2287 16.0262 58.3795 15.6105 58.3795 15.1029C58.3795 14.5659 58.2287 14.1466 57.9271 13.845C57.6329 13.536 57.2283 13.3816 56.7133 13.3816C56.1984 13.3816 55.7901 13.536 55.4885 13.845C55.1942 14.1466 55.0471 14.5659 55.0471 15.1029C55.0471 15.6105 55.1979 16.0262 55.4995 16.3498C55.8011 16.6662 56.2057 16.8243 56.7133 16.8243ZM59.9704 12.4547H61.3607L62.4421 16.0409L63.5014 12.4547H64.7152L65.7745 16.0409L66.8559 12.4547H68.2463L66.5138 17.7512H65.2338L64.1083 14.154L62.9828 17.7512H61.7028L59.9704 12.4547ZM69.0704 12.4547H70.4166V13.1719C70.6667 12.8703 70.9646 12.6496 71.3104 12.5098C71.6561 12.3627 72.0203 12.2892 72.4028 12.2892C73.1164 12.2892 73.6497 12.4841 74.0028 12.874C74.3559 13.2565 74.5325 13.7678 74.5325 14.4078V17.7512H73.1421V14.5402C73.1421 13.7678 72.7817 13.3816 72.0607 13.3816C71.7444 13.3816 71.4465 13.4588 71.1669 13.6133C70.8874 13.7604 70.652 13.9848 70.4607 14.2864V17.7512H69.0704V12.4547ZM75.8053 9.59674H77.1956V17.7512H75.8053V9.59674ZM81.4008 17.9167C80.7829 17.9167 80.2385 17.8064 79.7677 17.5857C79.3043 17.3577 78.9438 17.034 78.6863 16.6147C78.4289 16.188 78.3001 15.6841 78.3001 15.1029C78.3001 14.5365 78.4252 14.0436 78.6753 13.6243C78.9328 13.1977 79.2969 12.8703 79.7677 12.6423C80.2385 12.4069 80.7829 12.2892 81.4008 12.2892C82.0188 12.2892 82.5594 12.4069 83.0229 12.6423C83.4937 12.8703 83.8578 13.1977 84.1153 13.6243C84.3728 14.0436 84.5015 14.5365 84.5015 15.1029C84.5015 15.6841 84.3728 16.188 84.1153 16.6147C83.8578 17.034 83.4937 17.3577 83.0229 17.5857C82.5594 17.8064 82.0188 17.9167 81.4008 17.9167ZM81.4008 16.8243C81.9084 16.8243 82.313 16.6662 82.6146 16.3498C82.9162 16.0262 83.067 15.6105 83.067 15.1029C83.067 14.5659 82.9162 14.1466 82.6146 13.845C82.3204 13.536 81.9158 13.3816 81.4008 13.3816C80.8859 13.3816 80.4776 13.536 80.176 13.845C79.8817 14.1466 79.7346 14.5659 79.7346 15.1029C79.7346 15.6105 79.8854 16.0262 80.187 16.3498C80.4886 16.6662 80.8932 16.8243 81.4008 16.8243ZM87.2625 17.9167C86.6298 17.9167 86.1112 17.7512 85.7066 17.4202C85.302 17.0818 85.0997 16.6294 85.0997 16.0629C85.0997 15.4744 85.291 15.0147 85.6735 14.6836C86.056 14.3526 86.593 14.1871 87.2845 14.1871C87.954 14.1871 88.5314 14.3232 89.0169 14.5954V14.4519C89.0169 14.0767 88.8992 13.8046 88.6638 13.6354C88.4358 13.4662 88.0643 13.3816 87.5494 13.3816C87.2257 13.3816 86.9057 13.4147 86.5894 13.4809C86.273 13.5397 85.9935 13.6243 85.7507 13.7347V12.6423C85.9714 12.5393 86.2657 12.4547 86.6335 12.3885C87.0087 12.3223 87.3691 12.2892 87.7149 12.2892C88.6344 12.2892 89.3149 12.4878 89.7563 12.885C90.1976 13.2749 90.4183 13.8193 90.4183 14.5181V17.7512H89.1052V17.2326C88.8772 17.4533 88.616 17.6225 88.3218 17.7402C88.0349 17.8579 87.6818 17.9167 87.2625 17.9167ZM87.6045 16.9016C87.9135 16.9016 88.193 16.8427 88.4431 16.725C88.6933 16.6 88.8845 16.4308 89.0169 16.2174V15.6326C88.6123 15.3457 88.1489 15.2023 87.6266 15.2023C86.8836 15.2023 86.5121 15.4892 86.5121 16.0629C86.5121 16.3425 86.6041 16.5521 86.788 16.6919C86.9792 16.8317 87.2514 16.9016 87.6045 16.9016ZM94.26 17.9167C93.7229 17.9167 93.2411 17.8027 92.8144 17.5747C92.3951 17.3393 92.0641 17.0119 91.8213 16.5926C91.5859 16.1659 91.4682 15.6731 91.4682 15.114C91.4682 14.5623 91.5859 14.0731 91.8213 13.6464C92.0641 13.2197 92.3951 12.8887 92.8144 12.6533C93.2411 12.4105 93.7229 12.2892 94.26 12.2892C95.128 12.2892 95.8121 12.5172 96.3124 12.9733V9.59674H97.7027V17.7512H96.3565V17.1333C96.0549 17.4128 95.7423 17.6151 95.4186 17.7402C95.0949 17.8579 94.7087 17.9167 94.26 17.9167ZM94.602 16.8243C94.9993 16.8243 95.3524 16.7177 95.6613 16.5043C95.9703 16.291 96.1873 16.0041 96.3124 15.6436V14.5733C96.1947 14.2128 95.9777 13.9259 95.6613 13.7126C95.3524 13.4919 94.9993 13.3816 94.602 13.3816C94.1018 13.3816 93.6898 13.5434 93.3662 13.8671C93.0425 14.1908 92.8806 14.6064 92.8806 15.114C92.8806 15.6216 93.0425 16.0335 93.3662 16.3498C93.6898 16.6662 94.1018 16.8243 94.602 16.8243ZM105.884 17.9167C105.266 17.9167 104.721 17.8064 104.25 17.5857C103.787 17.3577 103.427 17.034 103.169 16.6147C102.912 16.188 102.783 15.6841 102.783 15.1029C102.783 14.5365 102.908 14.0436 103.158 13.6243C103.416 13.1977 103.78 12.8703 104.25 12.6423C104.721 12.4069 105.266 12.2892 105.884 12.2892C106.502 12.2892 107.042 12.4069 107.506 12.6423C107.976 12.8703 108.341 13.1977 108.598 13.6243C108.856 14.0436 108.984 14.5365 108.984 15.1029C108.984 15.6841 108.856 16.188 108.598 16.6147C108.341 17.034 107.976 17.3577 107.506 17.5857C107.042 17.8064 106.502 17.9167 105.884 17.9167ZM105.884 16.8243C106.391 16.8243 106.796 16.6662 107.097 16.3498C107.399 16.0262 107.55 15.6105 107.55 15.1029C107.55 14.5659 107.399 14.1466 107.097 13.845C106.803 13.536 106.399 13.3816 105.884 13.3816C105.369 13.3816 104.96 13.536 104.659 13.845C104.364 14.1466 104.217 14.5659 104.217 15.1029C104.217 15.6105 104.368 16.0262 104.67 16.3498C104.971 16.6662 105.376 16.8243 105.884 16.8243ZM110.083 12.4547H111.43V13.1719C111.68 12.8703 111.978 12.6496 112.323 12.5098C112.669 12.3627 113.033 12.2892 113.416 12.2892C114.129 12.2892 114.663 12.4841 115.016 12.874C115.369 13.2565 115.545 13.7678 115.545 14.4078V17.7512H114.155V14.5402C114.155 13.7678 113.795 13.3816 113.074 13.3816C112.757 13.3816 112.459 13.4588 112.18 13.6133C111.9 13.7604 111.665 13.9848 111.474 14.2864V17.7512H110.083V12.4547ZM122.924 17.9167C122.343 17.9167 121.902 17.7549 121.6 17.4312C121.298 17.1075 121.148 16.6515 121.148 16.0629V13.514H120.353V12.4547H121.148V10.8657H122.538V12.4547H123.807V13.514H122.538V15.8864C122.538 16.2248 122.601 16.4675 122.726 16.6147C122.851 16.7544 123.079 16.8243 123.41 16.8243C123.638 16.8243 123.862 16.7728 124.083 16.6698V17.7292C123.766 17.8542 123.38 17.9167 122.924 17.9167ZM125.073 9.59674H126.463V13.1278C126.963 12.5687 127.61 12.2892 128.405 12.2892C129.119 12.2892 129.652 12.4841 130.005 12.874C130.358 13.2565 130.535 13.7678 130.535 14.4078V17.7512H129.144V14.5402C129.144 13.7678 128.784 13.3816 128.063 13.3816C127.747 13.3816 127.449 13.4588 127.169 13.6133C126.89 13.7604 126.654 13.9848 126.463 14.2864V17.7512H125.073V9.59674ZM134.787 17.9167C133.801 17.9167 133.021 17.6703 132.447 17.1774C131.874 16.6846 131.587 15.9967 131.587 15.114C131.587 14.2459 131.841 13.5581 132.348 13.0505C132.856 12.5429 133.58 12.2892 134.522 12.2892C135.14 12.2892 135.666 12.4069 136.1 12.6423C136.541 12.8777 136.872 13.2013 137.093 13.6133C137.314 14.0179 137.424 14.4813 137.424 15.0036V15.6436H132.911C133.007 16.4308 133.691 16.8243 134.963 16.8243C135.302 16.8243 135.647 16.7949 136.001 16.736C136.354 16.6772 136.663 16.5963 136.927 16.4933V17.5636C136.677 17.6666 136.354 17.7512 135.956 17.8174C135.567 17.8836 135.177 17.9167 134.787 17.9167ZM136.111 14.6947C136.096 14.2754 135.945 13.9517 135.658 13.7236C135.379 13.4956 134.993 13.3816 134.5 13.3816C134.014 13.3816 133.632 13.4993 133.352 13.7347C133.073 13.9701 132.926 14.2901 132.911 14.6947H136.111Z" fill="white"/>
<path d="M52.5242 23.6986H55.1417L61.0791 38.5739H58.3339L56.9719 35.1477H50.6728L49.3321 38.5739H46.5656L52.5242 23.6986ZM56.2271 32.9132L53.8223 26.5928L51.4176 32.9132H56.2271ZM63.2012 28.3591H65.7974V29.5934C66.3507 29.0685 66.9537 28.6783 67.6063 28.4229C68.2589 28.1676 69.0037 28.0399 69.8408 28.0399C70.8764 28.0399 71.7986 28.2669 72.6073 28.7209C73.4301 29.1607 74.0686 29.792 74.5226 30.6149C74.9907 31.4235 75.2248 32.367 75.2248 33.4452C75.2248 34.5093 74.9907 35.4527 74.5226 36.2756C74.0686 37.0984 73.4301 37.7439 72.6073 38.2121C71.7986 38.6661 70.8764 38.8931 69.8408 38.8931C69.0605 38.8931 68.3228 38.7867 67.6276 38.5739C66.9466 38.3469 66.3649 38.0135 65.8826 37.5737V43.2344H63.2012V28.3591ZM69.1811 36.7863C70.1458 36.7863 70.9403 36.4742 71.5645 35.8499C72.1888 35.2257 72.5009 34.4241 72.5009 33.4452C72.5009 32.4663 72.1888 31.6718 71.5645 31.0618C70.9403 30.4517 70.1458 30.1467 69.1811 30.1467C68.415 30.1467 67.734 30.3524 67.1381 30.7638C66.5423 31.1753 66.1237 31.7286 65.8826 32.4237V34.488C66.1096 35.1831 66.521 35.7435 67.1168 36.1692C67.7269 36.5806 68.415 36.7863 69.1811 36.7863ZM77.3537 28.3591H79.95V29.5934C80.5033 29.0685 81.1062 28.6783 81.7589 28.4229C82.4115 28.1676 83.1563 28.0399 83.9933 28.0399C85.029 28.0399 85.9512 28.2669 86.7598 28.7209C87.5827 29.1607 88.2211 29.792 88.6751 30.6149C89.1433 31.4235 89.3774 32.367 89.3774 33.4452C89.3774 34.5093 89.1433 35.4527 88.6751 36.2756C88.2211 37.0984 87.5827 37.7439 86.7598 38.2121C85.9512 38.6661 85.029 38.8931 83.9933 38.8931C83.213 38.8931 82.4753 38.7867 81.7801 38.5739C81.0992 38.3469 80.5175 38.0135 80.0351 37.5737V43.2344H77.3537V28.3591ZM83.3336 36.7863C84.2984 36.7863 85.0928 36.4742 85.7171 35.8499C86.3413 35.2257 86.6534 34.4241 86.6534 33.4452C86.6534 32.4663 86.3413 31.6718 85.7171 31.0618C85.0928 30.4517 84.2984 30.1467 83.3336 30.1467C82.5675 30.1467 81.8865 30.3524 81.2907 30.7638C80.6948 31.1753 80.2763 31.7286 80.0351 32.4237V34.488C80.2621 35.1831 80.6735 35.7435 81.2694 36.1692C81.8794 36.5806 82.5675 36.7863 83.3336 36.7863ZM103.474 38.8931C102.594 38.8931 101.721 38.808 100.856 38.6377C100.005 38.4817 99.3025 38.2689 98.7492 37.9993V35.6797C99.4586 36.0202 100.203 36.2756 100.984 36.4458C101.764 36.6161 102.53 36.7012 103.282 36.7012C104.233 36.7012 104.956 36.5238 105.453 36.1692C105.949 35.8145 106.198 35.325 106.198 34.7008C106.198 34.261 106.084 33.8992 105.857 33.6155C105.63 33.3175 105.297 33.0622 104.857 32.8494C104.417 32.6224 103.743 32.3315 102.835 31.9768C101.445 31.4094 100.438 30.778 99.8133 30.0828C99.189 29.3877 98.8769 28.5223 98.8769 27.4866C98.8769 26.6779 99.0968 25.9615 99.5366 25.3372C99.9764 24.713 100.594 24.2306 101.388 23.8901C102.183 23.5496 103.098 23.3794 104.133 23.3794C104.985 23.3794 105.736 23.4503 106.389 23.5922C107.056 23.7199 107.708 23.9256 108.347 24.2094V26.4651C107.113 25.8693 105.864 25.5713 104.601 25.5713C103.693 25.5713 102.991 25.7416 102.495 26.0821C101.998 26.4084 101.75 26.8765 101.75 27.4866C101.75 27.9264 101.863 28.2882 102.09 28.5719C102.317 28.8415 102.615 29.0756 102.984 29.2742C103.367 29.4586 104.048 29.7565 105.027 30.168C106.02 30.5794 106.8 30.9837 107.368 31.381C107.95 31.7782 108.382 32.2464 108.666 32.7855C108.964 33.3104 109.113 33.956 109.113 34.7221C109.113 36.0415 108.638 37.07 107.687 37.8078C106.737 38.5313 105.332 38.8931 103.474 38.8931ZM114.608 38.8931C113.487 38.8931 112.636 38.581 112.055 37.9567C111.473 37.3325 111.182 36.4529 111.182 35.3179V30.4021H109.65V28.3591H111.182V25.2947H113.863V28.3591H116.311V30.4021H113.863V34.9774C113.863 35.63 113.984 36.0982 114.225 36.382C114.466 36.6515 114.906 36.7863 115.545 36.7863C115.984 36.7863 116.417 36.687 116.843 36.4884V38.5313C116.233 38.7725 115.488 38.8931 114.608 38.8931ZM124.202 38.8931C123.01 38.8931 121.96 38.6803 121.052 38.2547C120.159 37.8149 119.463 37.1906 118.967 36.382C118.47 35.5591 118.222 34.5873 118.222 33.4665C118.222 32.3741 118.463 31.4235 118.946 30.6149C119.442 29.792 120.144 29.1607 121.052 28.7209C121.96 28.2669 123.01 28.0399 124.202 28.0399C125.394 28.0399 126.436 28.2669 127.33 28.7209C128.238 29.1607 128.94 29.792 129.437 30.6149C129.934 31.4235 130.182 32.3741 130.182 33.4665C130.182 34.5873 129.934 35.5591 129.437 36.382C128.94 37.1906 128.238 37.8149 127.33 38.2547C126.436 38.6803 125.394 38.8931 124.202 38.8931ZM124.202 36.7863C125.181 36.7863 125.961 36.4813 126.543 35.8712C127.124 35.247 127.415 34.4454 127.415 33.4665C127.415 32.4308 127.124 31.6222 126.543 31.0405C125.975 30.4446 125.195 30.1467 124.202 30.1467C123.209 30.1467 122.421 30.4446 121.84 31.0405C121.272 31.6222 120.988 32.4308 120.988 33.4665C120.988 34.4454 121.279 35.247 121.861 35.8712C122.443 36.4813 123.223 36.7863 124.202 36.7863ZM132.301 28.3591H134.898V29.9977C135.309 29.4444 135.891 29.033 136.643 28.7634C137.409 28.4939 138.281 28.3591 139.26 28.3591V30.4021C138.225 30.4021 137.324 30.5652 136.558 30.8915C135.806 31.2036 135.281 31.7002 134.983 32.3812V38.5739H132.301V28.3591ZM146.069 38.8931C144.168 38.8931 142.664 38.4178 141.558 37.4673C140.451 36.5167 139.898 35.1902 139.898 33.4878C139.898 31.8137 140.387 30.4872 141.366 29.5083C142.345 28.5294 143.742 28.0399 145.558 28.0399C146.75 28.0399 147.764 28.2669 148.601 28.7209C149.453 29.1749 150.091 29.7991 150.517 30.5936C150.942 31.3739 151.155 32.2677 151.155 33.275V34.5093H142.451C142.636 36.0273 143.955 36.7863 146.41 36.7863C147.062 36.7863 147.729 36.7295 148.41 36.6161C149.091 36.5026 149.687 36.3465 150.198 36.1479V38.2121C149.715 38.4107 149.091 38.5739 148.325 38.7016C147.573 38.8293 146.821 38.8931 146.069 38.8931ZM148.623 32.6791C148.594 31.8704 148.304 31.2462 147.75 30.8064C147.211 30.3666 146.466 30.1467 145.516 30.1467C144.579 30.1467 143.842 30.3737 143.303 30.8277C142.763 31.2817 142.48 31.8988 142.451 32.6791H148.623Z" fill="white"/>
<defs>
<clipPath id="clip0_35_1003">
<rect width="29.9507" height="29.9507" fill="white" transform="translate(7.88184 10.9039)"/>
</clipPath>
</defs>
</svg>
