<svg width="189" height="54" viewBox="0 0 189 54" fill="none" xmlns="http://www.w3.org/2000/svg">
<rect y="0.123901" width="189" height="53.7523" rx="13.8716" fill="white"/>
<path d="M18.1556 25.5734H14.5489V17.4286H18.0936C19.6232 17.4286 20.5827 18.2132 20.5827 19.4606C20.5827 20.3524 19.9167 21.0975 19.0531 21.2273V21.2724C20.1594 21.3571 20.9722 22.1642 20.9722 23.2423C20.9722 24.676 19.8941 25.5734 18.1556 25.5734ZM16.2535 18.6986V20.8152H17.4783C18.3871 20.8152 18.9063 20.4145 18.9063 19.7259C18.9063 19.0711 18.4492 18.6986 17.6533 18.6986H16.2535ZM16.2535 24.3034H17.721C18.7031 24.3034 19.2337 23.8858 19.2337 23.1068C19.2337 22.3449 18.6862 21.9385 17.6815 21.9385H16.2535V24.3034ZM23.9075 24.4784C24.6243 24.4784 25.217 24.0099 25.217 23.3552V22.9149L23.9413 22.994C23.3261 23.0391 22.9761 23.3157 22.9761 23.7447C22.9761 24.1962 23.3487 24.4784 23.9075 24.4784ZM23.3656 25.6694C22.2142 25.6694 21.3393 24.9243 21.3393 23.835C21.3393 22.7343 22.1859 22.0965 23.693 22.0062L25.217 21.9159V21.5151C25.217 20.9507 24.8219 20.6233 24.201 20.6233C23.5857 20.6233 23.1963 20.9281 23.1173 21.374H21.6102C21.6723 20.2 22.6714 19.3929 24.2743 19.3929C25.8265 19.3929 26.8369 20.1944 26.8369 21.4135V25.5734H25.2452V24.6478H25.2113C24.8727 25.2912 24.122 25.6694 23.3656 25.6694ZM27.6725 25.5734V19.5227H29.2642V20.612H29.298C29.5125 19.8444 30.0262 19.4267 30.7374 19.4267C30.9293 19.4267 31.093 19.4549 31.2058 19.4888V20.9394C31.0704 20.883 30.8446 20.8435 30.6075 20.8435C29.7948 20.8435 29.3206 21.3402 29.3206 22.1925V25.5734H27.6725ZM33.842 24.4784C34.5588 24.4784 35.1515 24.0099 35.1515 23.3552V22.9149L33.8758 22.994C33.2606 23.0391 32.9107 23.3157 32.9107 23.7447C32.9107 24.1962 33.2832 24.4784 33.842 24.4784ZM33.3001 25.6694C32.1487 25.6694 31.2738 24.9243 31.2738 23.835C31.2738 22.7343 32.1204 22.0965 33.6275 22.0062L35.1515 21.9159V21.5151C35.1515 20.9507 34.7564 20.6233 34.1355 20.6233C33.5202 20.6233 33.1308 20.9281 33.0518 21.374H31.5447C31.6068 20.2 32.6059 19.3929 34.2089 19.3929C35.7611 19.3929 36.7714 20.1944 36.7714 21.4135V25.5734H35.1797V24.6478H35.1458C34.8072 25.2912 34.0565 25.6694 33.3001 25.6694ZM43.1046 21.7748H41.575C41.479 21.137 41.0557 20.6854 40.3784 20.6854C39.5656 20.6854 39.0576 21.374 39.0576 22.5424C39.0576 23.7334 39.5656 24.4107 40.384 24.4107C41.0444 24.4107 41.4734 24.0156 41.575 23.3552H43.1102C43.0256 24.7832 41.9588 25.7032 40.3671 25.7032C38.5439 25.7032 37.3869 24.5179 37.3869 22.5424C37.3869 20.6008 38.5439 19.3929 40.3558 19.3929C41.9926 19.3929 43.0312 20.4032 43.1046 21.7748ZM45.3851 21.9498L47.4397 19.5227H49.308L46.9994 22.1191L49.4208 25.5734H47.5243L45.7915 23.1125L45.3626 23.5753V25.5734H43.7144V17.4286H45.3626V21.9498H45.3851ZM55.5398 17.2875C57.9499 17.2875 59.4682 18.9074 59.4682 21.5038C59.4682 24.0946 57.9499 25.7145 55.5398 25.7145C53.124 25.7145 51.6113 24.0946 51.6113 21.5038C51.6113 18.9074 53.124 17.2875 55.5398 17.2875ZM55.5398 18.7099C54.2077 18.7099 53.3498 19.7936 53.3498 21.5038C53.3498 23.2084 54.2021 24.2865 55.5398 24.2865C56.8718 24.2865 57.7241 23.2084 57.7241 21.5038C57.7241 19.7936 56.8718 18.7099 55.5398 18.7099ZM63.792 25.6694C62.9059 25.6694 62.2286 25.2404 61.8955 24.5349H61.8617V25.5734H60.2361V17.4286H61.8842V20.5725H61.9181C62.2511 19.8557 62.9228 19.4267 63.7864 19.4267C65.3104 19.4267 66.2473 20.5951 66.2473 22.5481C66.2473 24.4954 65.316 25.6694 63.792 25.6694ZM63.222 20.7475C62.4261 20.7475 61.8786 21.4643 61.8786 22.5481C61.8786 23.6431 62.4205 24.343 63.222 24.343C64.046 24.343 64.5597 23.6543 64.5597 22.5481C64.5597 21.4474 64.0404 20.7475 63.222 20.7475ZM69.2108 24.4784C69.9277 24.4784 70.5203 24.0099 70.5203 23.3552V22.9149L69.2447 22.994C68.6295 23.0391 68.2795 23.3157 68.2795 23.7447C68.2795 24.1962 68.6521 24.4784 69.2108 24.4784ZM68.669 25.6694C67.5175 25.6694 66.6427 24.9243 66.6427 23.835C66.6427 22.7343 67.4893 22.0965 68.9964 22.0062L70.5203 21.9159V21.5151C70.5203 20.9507 70.1252 20.6233 69.5043 20.6233C68.8891 20.6233 68.4997 20.9281 68.4206 21.374H66.9136C66.9757 20.2 67.9747 19.3929 69.5777 19.3929C71.1299 19.3929 72.1403 20.1944 72.1403 21.4135V25.5734H70.5486V24.6478H70.5147C70.176 25.2912 69.4253 25.6694 68.669 25.6694ZM72.9758 25.5734V19.5227H74.5676V20.6177H74.6014C74.8554 19.8896 75.5045 19.4098 76.3286 19.4098C77.2035 19.4098 77.8131 19.8613 78.0163 20.6516H78.0501C78.3211 19.8896 79.0435 19.4098 79.9297 19.4098C81.115 19.4098 81.9109 20.2226 81.9109 21.4418V25.5734H80.2627V21.8538C80.2627 21.1539 79.9128 20.7701 79.2749 20.7701C78.6484 20.7701 78.2364 21.2273 78.2364 21.899V25.5734H76.6503V21.803C76.6503 21.1539 76.2834 20.7701 75.6739 20.7701C75.0473 20.7701 74.624 21.2442 74.624 21.9215V25.5734H72.9758ZM85.0606 24.4784C85.7775 24.4784 86.3701 24.0099 86.3701 23.3552V22.9149L85.0945 22.994C84.4793 23.0391 84.1293 23.3157 84.1293 23.7447C84.1293 24.1962 84.5018 24.4784 85.0606 24.4784ZM84.5188 25.6694C83.3673 25.6694 82.4925 24.9243 82.4925 23.835C82.4925 22.7343 83.3391 22.0965 84.8462 22.0062L86.3701 21.9159V21.5151C86.3701 20.9507 85.975 20.6233 85.3541 20.6233C84.7389 20.6233 84.3494 20.9281 84.2704 21.374H82.7634C82.8255 20.2 83.8245 19.3929 85.4275 19.3929C86.9797 19.3929 87.9901 20.1944 87.9901 21.4135V25.5734H86.3983V24.6478H86.3645C86.0258 25.2912 85.2751 25.6694 84.5188 25.6694Z" fill="black"/>
<path d="M16.8177 37.7568V36.6562H14.1578V36.0582C14.609 35.2217 15.229 34.2568 16.4801 32.4627H17.456V36.0765H18.2045V36.6562H17.456V37.7568H16.8177ZM14.8108 36.0618V36.0765H16.8177V33.013H16.8066C15.8051 34.4439 15.229 35.3281 14.8108 36.0618ZM21.2094 37.7568V36.6562H18.5495V36.0582C19.0008 35.2217 19.6208 34.2568 20.8719 32.4627H21.8478V36.0765H22.5962V36.6562H21.8478V37.7568H21.2094ZM19.2025 36.0618V36.0765H21.2094V33.013H21.1984C20.1968 34.4439 19.6208 35.3281 19.2025 36.0618ZM23.2751 33.0204H23.9135V33.9413H24.6546V34.4659H23.9135V36.7332C23.9135 37.0818 24.0602 37.2395 24.3867 37.2395C24.4601 37.2395 24.6069 37.2285 24.6509 37.2212V37.7568C24.5738 37.7752 24.3977 37.7862 24.2473 37.7862C23.5466 37.7862 23.2751 37.5 23.2751 36.7663V34.4659H22.7064V33.9413H23.2751V33.0204ZM25.2197 37.7568V32.4627H25.8581V34.5503H25.8728C26.0856 34.1247 26.5038 33.8752 27.0835 33.8752C27.92 33.8752 28.4263 34.4402 28.4263 35.2914V37.7568H27.7879V35.4088C27.7879 34.8034 27.4834 34.4402 26.8854 34.4402C26.2506 34.4402 25.8581 34.8731 25.8581 35.5335V37.7568H25.2197ZM32.3302 33.8752C33.3024 33.8752 33.9628 34.653 33.9628 35.849C33.9628 37.0451 33.3061 37.8229 32.3449 37.8229C31.7982 37.8229 31.358 37.5551 31.1305 37.1368H31.1158V39.0299H30.4774V33.9413H31.0828V34.587H31.0975C31.3323 34.1577 31.7762 33.8752 32.3302 33.8752ZM32.2055 37.2615C32.8842 37.2615 33.3098 36.7149 33.3098 35.849C33.3098 34.9869 32.8842 34.4365 32.2055 34.4365C31.5524 34.4365 31.1121 35.0015 31.1121 35.849C31.1121 36.7002 31.5524 37.2615 32.2055 37.2615ZM34.4583 37.7568V33.9413H35.0599V34.565H35.0746C35.1994 34.143 35.5516 33.8752 35.9992 33.8752C36.1092 33.8752 36.2046 33.8936 36.256 33.9009V34.5209C36.2046 34.5026 36.0689 34.4842 35.9148 34.4842C35.4195 34.4842 35.0966 34.8401 35.0966 35.3794V37.7568H34.4583ZM37.9731 34.4292C37.3751 34.4292 36.9569 34.8878 36.9165 35.5225H38.9894C38.9747 34.8841 38.5748 34.4292 37.9731 34.4292ZM38.9747 36.6635H39.6021C39.492 37.3313 38.8463 37.8229 38.0135 37.8229C36.9202 37.8229 36.2561 37.0634 36.2561 35.8637C36.2561 34.6787 36.9312 33.8752 37.9842 33.8752C39.0151 33.8752 39.6498 34.6237 39.6498 35.7793V36.0215H36.9129V36.0582C36.9129 36.7883 37.3421 37.2689 38.0282 37.2689C38.5125 37.2689 38.8683 37.0231 38.9747 36.6635ZM40.0792 34.9942C40.0792 34.3412 40.6552 33.8752 41.4807 33.8752C42.3172 33.8752 42.8748 34.3668 42.9005 35.0419H42.2915C42.2438 34.642 41.9503 34.3962 41.4807 34.3962C41.0147 34.3962 40.7066 34.6273 40.7066 34.9612C40.7066 35.2253 40.901 35.4051 41.3266 35.5078L41.932 35.6546C42.7024 35.8417 42.9812 36.1426 42.9812 36.6892C42.9812 37.3533 42.3539 37.8229 41.5027 37.8229C40.6075 37.8229 40.0498 37.3716 39.9765 36.6562H40.6148C40.6919 37.0928 40.9854 37.3019 41.5027 37.3019C42.02 37.3019 42.3392 37.0818 42.3392 36.7369C42.3392 36.4617 42.1888 36.304 41.7522 36.1976L41.1468 36.0508C40.4277 35.8784 40.0792 35.5445 40.0792 34.9942ZM43.528 37.7568V33.9413H44.1664V37.7568H43.528ZM43.8472 33.2625C43.6271 33.2625 43.4473 33.0827 43.4473 32.8626C43.4473 32.6388 43.6271 32.4627 43.8472 32.4627C44.071 32.4627 44.2471 32.6388 44.2471 32.8626C44.2471 33.0827 44.071 33.2625 43.8472 33.2625ZM46.3238 37.8229C45.3516 37.8229 44.6912 37.0451 44.6912 35.849C44.6912 34.653 45.3479 33.8752 46.3092 33.8752C46.8558 33.8752 47.2961 34.143 47.5235 34.5613H47.5382V32.4627H48.1766V37.7568H47.5676V37.1111H47.5566C47.3108 37.5514 46.8742 37.8229 46.3238 37.8229ZM46.4449 34.4365C45.7698 34.4365 45.3443 34.9869 45.3443 35.849C45.3443 36.7149 45.7698 37.2615 46.4449 37.2615C47.1016 37.2615 47.5419 36.7039 47.5419 35.849C47.5419 34.9979 47.1016 34.4365 46.4449 34.4365ZM50.4184 34.4292C49.8204 34.4292 49.4021 34.8878 49.3618 35.5225H51.4347C51.42 34.8841 51.0201 34.4292 50.4184 34.4292ZM51.42 36.6635H52.0474C51.9373 37.3313 51.2916 37.8229 50.4588 37.8229C49.3654 37.8229 48.7014 37.0634 48.7014 35.8637C48.7014 34.6787 49.3765 33.8752 50.4294 33.8752C51.4603 33.8752 52.0951 34.6237 52.0951 35.7793V36.0215H49.3581V36.0582C49.3581 36.7883 49.7874 37.2689 50.4734 37.2689C50.9577 37.2689 51.3136 37.0231 51.42 36.6635ZM52.5905 37.7568V33.9413H53.1922V34.5503H53.2069C53.4196 34.1394 53.8269 33.8752 54.4176 33.8752C55.2541 33.8752 55.7383 34.4145 55.7383 35.2804V37.7568H55.1V35.3941C55.1 34.7777 54.8101 34.4402 54.2231 34.4402C53.6214 34.4402 53.2289 34.8658 53.2289 35.5115V37.7568H52.5905ZM56.608 33.0204H57.2464V33.9413H57.9875V34.4659H57.2464V36.7332C57.2464 37.0818 57.3931 37.2395 57.7197 37.2395C57.793 37.2395 57.9398 37.2285 57.9838 37.2212V37.7568C57.9068 37.7752 57.7307 37.7862 57.5802 37.7862C56.8795 37.7862 56.608 37.5 56.608 36.7663V34.4659H56.0393V33.9413H56.608V33.0204ZM61.4915 37.8229C60.4349 37.8229 59.7231 37.0634 59.7231 35.849C59.7231 34.631 60.4349 33.8752 61.4915 33.8752C62.5445 33.8752 63.2562 34.631 63.2562 35.849C63.2562 37.0634 62.5445 37.8229 61.4915 37.8229ZM61.4915 37.2615C62.1666 37.2615 62.6068 36.7479 62.6068 35.849C62.6068 34.9502 62.1666 34.4365 61.4915 34.4365C60.8164 34.4365 60.3725 34.9502 60.3725 35.849C60.3725 36.7479 60.8164 37.2615 61.4915 37.2615ZM63.9571 37.7568V34.4659H63.4251V33.9413H63.9571V33.5157C63.9571 32.7819 64.2983 32.4334 65.0027 32.4334C65.1458 32.4334 65.2999 32.448 65.3916 32.4627V32.98C65.3146 32.969 65.2082 32.958 65.1018 32.958C64.7569 32.958 64.5918 33.1414 64.5918 33.5193V33.9413H65.3733V34.4659H64.5955V37.7568H63.9571ZM67.4795 33.0204H68.1179V33.9413H68.859V34.4659H68.1179V36.7332C68.1179 37.0818 68.2646 37.2395 68.5911 37.2395C68.6645 37.2395 68.8113 37.2285 68.8553 37.2212V37.7568C68.7782 37.7752 68.6021 37.7862 68.4517 37.7862C67.751 37.7862 67.4795 37.5 67.4795 36.7663V34.4659H66.9108V33.9413H67.4795V33.0204ZM69.4241 37.7568V32.4627H70.0625V34.5503H70.0772C70.2899 34.1247 70.7082 33.8752 71.2879 33.8752C72.1244 33.8752 72.6307 34.4402 72.6307 35.2914V37.7568H71.9923V35.4088C71.9923 34.8034 71.6878 34.4402 71.0898 34.4402C70.455 34.4402 70.0625 34.8731 70.0625 35.5335V37.7568H69.4241ZM74.8211 34.4292C74.2231 34.4292 73.8048 34.8878 73.7645 35.5225H75.8374C75.8227 34.8841 75.4228 34.4292 74.8211 34.4292ZM75.8227 36.6635H76.4501C76.34 37.3313 75.6943 37.8229 74.8615 37.8229C73.7681 37.8229 73.1041 37.0634 73.1041 35.8637C73.1041 34.6787 73.7792 33.8752 74.8321 33.8752C75.863 33.8752 76.4978 34.6237 76.4978 35.7793V36.0215H73.7608V36.0582C73.7608 36.7883 74.1901 37.2689 74.8761 37.2689C75.3604 37.2689 75.7163 37.0231 75.8227 36.6635ZM79.1433 32.4627V35.8564C79.1433 36.6562 79.6679 37.2359 80.5851 37.2359C81.5023 37.2359 82.027 36.6562 82.027 35.8564V32.4627H82.6874V35.9004C82.6874 37.0304 81.8986 37.8449 80.5851 37.8449C79.2717 37.8449 78.4829 37.0304 78.4829 35.9004V32.4627H79.1433ZM83.4653 37.7568V33.9413H84.067V34.5503H84.0817C84.2945 34.1394 84.7017 33.8752 85.2924 33.8752C86.1289 33.8752 86.6132 34.4145 86.6132 35.2804V37.7568H85.9748V35.3941C85.9748 34.7777 85.6849 34.4402 85.0979 34.4402C84.4962 34.4402 84.1037 34.8658 84.1037 35.5115V37.7568H83.4653ZM87.3104 37.7568V33.9413H87.9488V37.7568H87.3104ZM87.6296 33.2625C87.4094 33.2625 87.2297 33.0827 87.2297 32.8626C87.2297 32.6388 87.4094 32.4627 87.6296 32.4627C87.8534 32.4627 88.0295 32.6388 88.0295 32.8626C88.0295 33.0827 87.8534 33.2625 87.6296 33.2625ZM88.8661 33.0204H89.5045V33.9413H90.2456V34.4659H89.5045V36.7332C89.5045 37.0818 89.6512 37.2395 89.9778 37.2395C90.0511 37.2395 90.1979 37.2285 90.2419 37.2212V37.7568C90.1649 37.7752 89.9888 37.7862 89.8384 37.7862C89.1376 37.7862 88.8661 37.5 88.8661 36.7663V34.4659H88.2974V33.9413H88.8661V33.0204ZM92.1976 34.4292C91.5995 34.4292 91.1813 34.8878 91.1409 35.5225H93.2138C93.1991 34.8841 92.7992 34.4292 92.1976 34.4292ZM93.1991 36.6635H93.8265C93.7164 37.3313 93.0707 37.8229 92.2379 37.8229C91.1446 37.8229 90.4805 37.0634 90.4805 35.8637C90.4805 34.6787 91.1556 33.8752 92.2086 33.8752C93.2395 33.8752 93.8742 34.6237 93.8742 35.7793V36.0215H91.1373V36.0582C91.1373 36.7883 91.5665 37.2689 92.2526 37.2689C92.7369 37.2689 93.0927 37.0231 93.1991 36.6635ZM95.8152 37.8229C94.8429 37.8229 94.1825 37.0451 94.1825 35.849C94.1825 34.653 94.8393 33.8752 95.8005 33.8752C96.3471 33.8752 96.7874 34.143 97.0149 34.5613H97.0295V32.4627H97.6679V37.7568H97.0589V37.1111H97.0479C96.8021 37.5514 96.3655 37.8229 95.8152 37.8229ZM95.9362 34.4365C95.2612 34.4365 94.8356 34.9869 94.8356 35.849C94.8356 36.7149 95.2612 37.2615 95.9362 37.2615C96.593 37.2615 97.0332 36.7039 97.0332 35.849C97.0332 34.9979 96.593 34.4365 95.9362 34.4365ZM99.6127 36.337H100.273C100.35 36.9057 100.878 37.2505 101.638 37.2505C102.357 37.2505 102.878 36.8726 102.878 36.3517C102.878 35.9077 102.584 35.6142 101.851 35.4528L101.264 35.3244C100.203 35.0933 99.7448 34.6126 99.7448 33.8605C99.7448 32.9874 100.515 32.3747 101.612 32.3747C102.669 32.3747 103.432 33.0057 103.461 33.9046H102.801C102.742 33.3249 102.284 32.969 101.594 32.969C100.933 32.969 100.424 33.2919 100.424 33.8312C100.424 34.2494 100.706 34.5356 101.429 34.6934L102.016 34.8218C103.12 35.0639 103.557 35.5042 103.557 36.2526C103.557 37.2322 102.786 37.8449 101.601 37.8449C100.446 37.8449 99.6751 37.2505 99.6127 36.337ZM104.287 33.0204H104.925V33.9413H105.666V34.4659H104.925V36.7332C104.925 37.0818 105.072 37.2395 105.399 37.2395C105.472 37.2395 105.619 37.2285 105.663 37.2212V37.7568C105.586 37.7752 105.41 37.7862 105.259 37.7862C104.558 37.7862 104.287 37.5 104.287 36.7663V34.4659H103.718V33.9413H104.287V33.0204ZM107.384 37.2799C107.985 37.2799 108.448 36.858 108.448 36.3076V35.9958L107.428 36.0582C106.914 36.0912 106.62 36.3187 106.62 36.6782C106.62 37.0414 106.925 37.2799 107.384 37.2799ZM107.24 37.8229C106.481 37.8229 105.971 37.3643 105.971 36.6782C105.971 36.0251 106.474 35.6142 107.354 35.5629L108.448 35.5005V35.1813C108.448 34.7154 108.139 34.4365 107.611 34.4365C107.119 34.4365 106.811 34.6677 106.731 35.0419H106.114C106.158 34.3815 106.723 33.8752 107.626 33.8752C108.521 33.8752 109.086 34.3595 109.086 35.1189V37.7568H108.481V37.1001H108.466C108.238 37.5367 107.754 37.8229 107.24 37.8229ZM109.952 33.0204H110.59V33.9413H111.331V34.4659H110.59V36.7332C110.59 37.0818 110.737 37.2395 111.064 37.2395C111.137 37.2395 111.284 37.2285 111.328 37.2212V37.7568C111.251 37.7752 111.075 37.7862 110.924 37.7862C110.223 37.7862 109.952 37.5 109.952 36.7663V34.4659H109.383V33.9413H109.952V33.0204ZM113.283 34.4292C112.685 34.4292 112.267 34.8878 112.227 35.5225H114.3C114.285 34.8841 113.885 34.4292 113.283 34.4292ZM114.285 36.6635H114.912C114.802 37.3313 114.157 37.8229 113.324 37.8229C112.23 37.8229 111.566 37.0634 111.566 35.8637C111.566 34.6787 112.241 33.8752 113.294 33.8752C114.325 33.8752 114.96 34.6237 114.96 35.7793V36.0215H112.223V36.0582C112.223 36.7883 112.652 37.2689 113.338 37.2689C113.823 37.2689 114.179 37.0231 114.285 36.6635ZM115.389 34.9942C115.389 34.3412 115.965 33.8752 116.791 33.8752C117.627 33.8752 118.185 34.3668 118.211 35.0419H117.602C117.554 34.642 117.26 34.3962 116.791 34.3962C116.325 34.3962 116.017 34.6273 116.017 34.9612C116.017 35.2253 116.211 35.4051 116.637 35.5078L117.242 35.6546C118.013 35.8417 118.291 36.1426 118.291 36.6892C118.291 37.3533 117.664 37.8229 116.813 37.8229C115.918 37.8229 115.36 37.3716 115.287 36.6562H115.925C116.002 37.0928 116.296 37.3019 116.813 37.3019C117.33 37.3019 117.649 37.0818 117.649 36.7369C117.649 36.4617 117.499 36.304 117.062 36.1976L116.457 36.0508C115.738 35.8784 115.389 35.5445 115.389 34.9942Z" fill="black"/>
<rect x="120.22" y="19.6308" width="54.9083" height="15.0275" rx="7.51376" fill="#3A87FD"/>
<path d="M135.882 29.9427H135.002V26.2188H134.951L133.487 29.7592H132.812L131.348 26.2188H131.296V29.9427H130.416V24.6486H131.524L133.116 28.5302H133.182L134.774 24.6486H135.882V29.9427ZM140.57 29.1245V29.9427H137.143V24.6486H140.57V25.4667H138.09V26.8719H140.434V27.6423H138.09V29.1245H140.57ZM141.457 28.5045H142.381C142.44 28.9778 142.91 29.2823 143.581 29.2823C144.205 29.2823 144.656 28.9631 144.656 28.5192C144.656 28.1376 144.366 27.9138 143.688 27.7561L143.001 27.5983C142.04 27.3818 141.589 26.9049 141.589 26.1161C141.589 25.1549 142.374 24.5165 143.559 24.5165C144.671 24.5165 145.474 25.1549 145.518 26.0647H144.612C144.546 25.5988 144.135 25.3053 143.555 25.3053C142.946 25.3053 142.543 25.5988 142.543 26.0501C142.543 26.4059 142.811 26.6151 143.467 26.7655L144.076 26.9049C145.151 27.147 145.603 27.5946 145.603 28.4018C145.603 29.4327 144.807 30.0748 143.522 30.0748C142.308 30.0748 141.505 29.4657 141.457 28.5045ZM146.379 28.5045H147.304C147.363 28.9778 147.832 29.2823 148.504 29.2823C149.127 29.2823 149.579 28.9631 149.579 28.5192C149.579 28.1376 149.289 27.9138 148.61 27.7561L147.924 27.5983C146.963 27.3818 146.511 26.9049 146.511 26.1161C146.511 25.1549 147.297 24.5165 148.482 24.5165C149.593 24.5165 150.397 25.1549 150.441 26.0647H149.535C149.469 25.5988 149.058 25.3053 148.478 25.3053C147.869 25.3053 147.465 25.5988 147.465 26.0501C147.465 26.4059 147.733 26.6151 148.39 26.7655L148.999 26.9049C150.074 27.147 150.525 27.5946 150.525 28.4018C150.525 29.4327 149.729 30.0748 148.445 30.0748C147.231 30.0748 146.427 29.4657 146.379 28.5045ZM154.96 29.9427L154.512 28.5889H152.564L152.109 29.9427H151.152L153.03 24.6486H154.094L155.976 29.9427H154.96ZM153.511 25.6575L152.784 27.8404H154.292L153.573 25.6575H153.511ZM161.17 27.8221C161.17 29.1979 160.267 30.0748 158.855 30.0748C157.321 30.0748 156.368 29.0108 156.368 27.2938C156.368 25.5988 157.332 24.5165 158.84 24.5165C160.062 24.5165 160.957 25.2136 161.126 26.2959H160.183C159.992 25.6942 159.519 25.3603 158.84 25.3603C157.916 25.3603 157.336 26.0978 157.336 27.2865C157.336 28.4898 157.927 29.2309 158.87 29.2309C159.677 29.2309 160.227 28.7393 160.242 28.0092L160.245 27.8992H158.972V27.158H161.17V27.8221ZM165.652 29.1245V29.9427H162.226V24.6486H165.652V25.4667H163.172V26.8719H165.517V27.6423H163.172V29.1245H165.652Z" fill="white"/>
</svg>
