<svg width="208" height="104" viewBox="0 0 208 104" fill="none" xmlns="http://www.w3.org/2000/svg">
<rect width="208" height="103.823" rx="15.2661" fill="white"/>
<path d="M19.9746 28.0574C17.3657 28.0574 15.732 26.3119 15.732 23.4172C15.732 20.5287 17.3781 18.7832 19.9746 18.7832C22.1301 18.7832 23.77 20.1498 23.9129 22.1562H22.0866C21.9127 21.0567 21.0679 20.3362 19.9746 20.3362C18.5584 20.3362 17.6452 21.5226 17.6452 23.411C17.6452 25.3242 18.5459 26.5045 19.9808 26.5045C21.0928 26.5045 21.8941 25.8522 22.0929 24.79H23.9191C23.7079 26.7902 22.1736 28.0574 19.9746 28.0574ZM24.7145 27.9021V18.9385H26.4972V22.4295H26.5345C26.8886 21.5909 27.6154 21.1188 28.6279 21.1188C30.1063 21.1188 30.9511 22.0755 30.9511 23.616V27.9021H29.1373V24.0011C29.1373 23.1439 28.7149 22.6221 27.8887 22.6221C27.0315 22.6221 26.5283 23.2246 26.5283 24.1005V27.9021H24.7145ZM31.8583 27.9021V21.2431H33.61V22.442H33.6472C33.8833 21.5971 34.4486 21.1375 35.2313 21.1375C35.4425 21.1375 35.6226 21.1685 35.7468 21.2058V22.8022C35.5977 22.7401 35.3493 22.6966 35.0884 22.6966C34.1939 22.6966 33.6721 23.2433 33.6721 24.1812V27.9021H31.8583ZM36.2689 27.9021V21.2431H38.0827V27.9021H36.2689ZM37.1696 20.3424C36.6416 20.3424 36.2254 19.92 36.2254 19.4106C36.2254 18.895 36.6416 18.4788 37.1696 18.4788C37.6976 18.4788 38.1138 18.895 38.1138 19.4106C38.1138 19.92 37.6976 20.3424 37.1696 20.3424ZM38.9278 23.1998C38.9278 21.9326 40.021 21.1002 41.7168 21.1002C43.4251 21.1002 44.4811 21.9761 44.5183 23.2805H42.8474C42.7915 22.7401 42.3877 22.3736 41.7168 22.3736C41.0894 22.3736 40.6733 22.6594 40.6733 23.1004C40.6733 23.442 40.9217 23.6719 41.5926 23.8148L42.7294 24.057C44.1208 24.349 44.6923 24.8956 44.6923 25.8708C44.6923 27.1815 43.4934 28.045 41.779 28.045C39.9403 28.045 38.8781 27.1877 38.76 25.8771H40.5304C40.6422 26.461 41.0584 26.7716 41.779 26.7716C42.4623 26.7716 42.8847 26.492 42.8847 26.0572C42.8847 25.7031 42.6548 25.5044 42.0026 25.3553L40.8658 25.1192C39.58 24.8459 38.9278 24.1999 38.9278 23.1998ZM45.8169 19.7088H47.6307V21.2431H48.8606V22.6097H47.6307V25.7963C47.6307 26.3057 47.8792 26.5479 48.4134 26.5479C48.5749 26.5479 48.7426 26.5355 48.8544 26.5169V27.8524C48.6681 27.8959 48.3575 27.9269 47.991 27.9269C46.4256 27.9269 45.8169 27.4052 45.8169 26.1069V22.6097H44.8789V21.2431H45.8169V19.7088ZM49.6311 27.9021V21.2431H51.445V27.9021H49.6311ZM50.5318 20.3424C50.0038 20.3424 49.5877 19.92 49.5877 19.4106C49.5877 18.895 50.0038 18.4788 50.5318 18.4788C51.0598 18.4788 51.476 18.895 51.476 19.4106C51.476 19.92 51.0598 20.3424 50.5318 20.3424ZM54.9735 26.697C55.7624 26.697 56.4146 26.1814 56.4146 25.4609V24.9764L55.0108 25.0633C54.3337 25.113 53.9486 25.4174 53.9486 25.8895C53.9486 26.3864 54.3585 26.697 54.9735 26.697ZM54.3772 28.0077C53.11 28.0077 52.1472 27.1877 52.1472 25.9889C52.1472 24.7776 53.0789 24.0756 54.7375 23.9763L56.4146 23.8769V23.4358C56.4146 22.8147 55.9798 22.4544 55.2965 22.4544C54.6194 22.4544 54.1908 22.7898 54.1039 23.2805H52.4453C52.5136 21.9885 53.6131 21.1002 55.3773 21.1002C57.0855 21.1002 58.1974 21.9823 58.1974 23.324V27.9021H56.4457V26.8834H56.4084C56.0357 27.5915 55.2096 28.0077 54.3772 28.0077ZM59.117 27.9021V21.2431H60.8687V22.4295H60.906C61.2601 21.6034 61.962 21.1188 62.9869 21.1188C64.4653 21.1188 65.2977 22.0506 65.2977 23.6098V27.9021H63.4839V23.9887C63.4839 23.119 63.0739 22.6221 62.2602 22.6221C61.4464 22.6221 60.9308 23.2184 60.9308 24.0819V27.9021H59.117ZM72.5846 27.9021H68.6153V18.9385H72.5163C74.1997 18.9385 75.2557 19.8019 75.2557 21.1747C75.2557 22.1562 74.5227 22.9762 73.5723 23.119V23.1687C74.7898 23.2619 75.6843 24.1502 75.6843 25.3366C75.6843 26.9144 74.4979 27.9021 72.5846 27.9021ZM70.4913 20.3362V22.6656H71.8392C72.8393 22.6656 73.4108 22.2245 73.4108 21.4667C73.4108 20.7461 72.9076 20.3362 72.0318 20.3362H70.4913ZM70.4913 26.5045H72.1063C73.1872 26.5045 73.7711 26.0448 73.7711 25.1876C73.7711 24.349 73.1685 23.9017 72.0628 23.9017H70.4913V26.5045ZM78.9147 26.697C79.7036 26.697 80.3558 26.1814 80.3558 25.4609V24.9764L78.9519 25.0633C78.2749 25.113 77.8897 25.4174 77.8897 25.8895C77.8897 26.3864 78.2997 26.697 78.9147 26.697ZM78.3183 28.0077C77.0511 28.0077 76.0883 27.1877 76.0883 25.9889C76.0883 24.7776 77.0201 24.0756 78.6786 23.9763L80.3558 23.8769V23.4358C80.3558 22.8147 79.921 22.4544 79.2377 22.4544C78.5606 22.4544 78.132 22.7898 78.045 23.2805H76.3865C76.4548 21.9885 77.5543 21.1002 79.3184 21.1002C81.0267 21.1002 82.1386 21.9823 82.1386 23.324V27.9021H80.3869V26.8834H80.3496C79.9769 27.5915 79.1507 28.0077 78.3183 28.0077ZM83.1017 27.9021V18.9385H84.9155V27.9021H83.1017ZM88.8726 22.442C88.0775 22.442 87.5061 23.0445 87.4439 23.8769H90.2703C90.233 23.0259 89.6802 22.442 88.8726 22.442ZM90.2951 25.8646H91.9599C91.7611 27.1691 90.5685 28.045 88.9223 28.045C86.8725 28.045 85.6425 26.7343 85.6425 24.6036C85.6425 22.4792 86.8849 21.1002 88.854 21.1002C90.7921 21.1002 92.0158 22.4109 92.0158 24.4359V24.9888H87.4253V25.1006C87.4253 26.051 88.0278 26.7032 88.9534 26.7032C89.6181 26.7032 90.1274 26.374 90.2951 25.8646Z" fill="black"/>
<rect opacity="0.15" x="177.468" y="15.2661" width="15.2661" height="15.2661" rx="3.81651" fill="#FF8700"/>
<g clip-path="url(#clip0_206_872)">
<g clip-path="url(#clip1_206_872)">
<path d="M183.283 26.2875C183.456 26.2875 183.568 26.198 183.839 25.9329L185.072 24.7125C185.085 24.6965 185.114 24.6965 185.127 24.7125L186.363 25.9329C186.634 26.198 186.743 26.2875 186.919 26.2875C187.174 26.2875 187.334 26.1118 187.334 25.8243V20.2464C187.334 19.6107 187.002 19.2753 186.372 19.2753H183.826C183.197 19.2753 182.865 19.6107 182.865 20.2464V25.8243C182.865 26.1118 183.024 26.2875 183.283 26.2875ZM183.587 25.2364C183.545 25.278 183.494 25.2652 183.494 25.2045V20.288C183.494 20.0324 183.622 19.9078 183.877 19.9078H186.321C186.577 19.9078 186.705 20.0324 186.705 20.288V25.2045C186.705 25.2652 186.657 25.278 186.612 25.2364L185.312 23.9778C185.178 23.8436 185.024 23.8436 184.887 23.9778L183.587 25.2364Z" fill="#FF8700"/>
</g>
</g>
<path d="M20.7452 39.302C20.7452 40.8767 19.8287 41.8094 18.2742 41.8094C16.647 41.8094 15.6053 40.6224 15.6053 38.7691C15.6053 36.9481 16.643 35.7893 18.2742 35.7893C19.5339 35.7893 20.4908 36.5363 20.7089 37.6951H19.9458C19.7035 36.9077 19.0938 36.4595 18.2742 36.4595C17.075 36.4595 16.3522 37.3236 16.3522 38.765C16.3522 40.2307 17.0871 41.1392 18.2742 41.1392C19.3078 41.1392 20.0184 40.4689 20.0184 39.4918V39.3868H18.3751V38.7489H20.7452V39.302ZM23.1437 41.7852C21.9809 41.7852 21.1976 40.9494 21.1976 39.6129C21.1976 38.2724 21.9809 37.4407 23.1437 37.4407C24.3025 37.4407 25.0858 38.2724 25.0858 39.6129C25.0858 40.9494 24.3025 41.7852 23.1437 41.7852ZM23.1437 41.1674C23.8867 41.1674 24.3712 40.6022 24.3712 39.6129C24.3712 38.6237 23.8867 38.0584 23.1437 38.0584C22.4008 38.0584 21.9123 38.6237 21.9123 39.6129C21.9123 40.6022 22.4008 41.1674 23.1437 41.1674ZM28.9541 37.5134L27.4117 41.7125H26.693L25.1466 37.5134H25.8855L27.0443 40.9656H27.0604L28.2233 37.5134H28.9541ZM30.9044 38.0504C30.2463 38.0504 29.786 38.5551 29.7416 39.2536H32.0229C32.0067 38.551 31.5666 38.0504 30.9044 38.0504ZM32.0067 40.5093H32.6971C32.576 41.2442 31.8654 41.7852 30.9488 41.7852C29.7456 41.7852 29.0148 40.9494 29.0148 39.6291C29.0148 38.3249 29.7577 37.4407 30.9165 37.4407C32.0511 37.4407 32.7496 38.2644 32.7496 39.5362V39.8027H29.7375V39.8431C29.7375 40.6466 30.21 41.1755 30.965 41.1755C31.498 41.1755 31.8896 40.905 32.0067 40.5093ZM33.2949 41.7125V37.5134H33.9571V38.1998H33.9732C34.1105 37.7354 34.4981 37.4407 34.9907 37.4407C35.1118 37.4407 35.2168 37.4609 35.2733 37.469V38.1513C35.2168 38.1311 35.0674 38.1109 34.8978 38.1109C34.3527 38.1109 33.9974 38.5026 33.9974 39.0961V41.7125H33.2949ZM35.6813 41.7125V37.5134H36.3435V38.1836H36.3596C36.5938 37.7314 37.042 37.4407 37.692 37.4407C38.6126 37.4407 39.1456 38.0342 39.1456 38.9871V41.7125H38.443V39.1123C38.443 38.434 38.1241 38.0625 37.4781 38.0625C36.8159 38.0625 36.3838 38.5309 36.3838 39.2415V41.7125H35.6813ZM41.6168 41.7852C40.454 41.7852 39.6707 40.9494 39.6707 39.6129C39.6707 38.2724 40.454 37.4407 41.6168 37.4407C42.7756 37.4407 43.5589 38.2724 43.5589 39.6129C43.5589 40.9494 42.7756 41.7852 41.6168 41.7852ZM41.6168 41.1674C42.3597 41.1674 42.8443 40.6022 42.8443 39.6129C42.8443 38.6237 42.3597 38.0584 41.6168 38.0584C40.8739 38.0584 40.3853 38.6237 40.3853 39.6129C40.3853 40.6022 40.8739 41.1674 41.6168 41.1674ZM44.1042 41.7125V37.5134H44.7663V38.1998H44.7825C44.9198 37.7354 45.3074 37.4407 45.8 37.4407C45.9211 37.4407 46.0261 37.4609 46.0826 37.469V38.1513C46.0261 38.1311 45.8767 38.1109 45.7071 38.1109C45.162 38.1109 44.8067 38.5026 44.8067 39.0961V41.7125H44.1042ZM49.7612 41.7852C48.5984 41.7852 47.8151 40.9494 47.8151 39.6129C47.8151 38.2724 48.5984 37.4407 49.7612 37.4407C50.92 37.4407 51.7033 38.2724 51.7033 39.6129C51.7033 40.9494 50.92 41.7852 49.7612 41.7852ZM49.7612 41.1674C50.5042 41.1674 50.9887 40.6022 50.9887 39.6129C50.9887 38.6237 50.5042 38.0584 49.7612 38.0584C49.0183 38.0584 48.5298 38.6237 48.5298 39.6129C48.5298 40.6022 49.0183 41.1674 49.7612 41.1674ZM52.4747 41.7125V38.0907H51.8892V37.5134H52.4747V37.045C52.4747 36.2375 52.8502 35.8539 53.6254 35.8539C53.7829 35.8539 53.9525 35.87 54.0534 35.8862V36.4555C53.9686 36.4434 53.8515 36.4313 53.7345 36.4313C53.3549 36.4313 53.1732 36.6332 53.1732 37.049V37.5134H54.0332V38.0907H53.1773V41.7125H52.4747ZM58.6324 41.8094C57.0255 41.8094 56.008 40.6425 56.008 38.7973C56.008 36.9683 57.0376 35.7893 58.6324 35.7893C59.9003 35.7893 60.8653 36.5605 61.051 37.7233H60.3161C60.1304 36.9602 59.4642 36.4595 58.6324 36.4595C57.4938 36.4595 56.7549 37.3801 56.7549 38.7973C56.7549 40.2267 57.4858 41.1392 58.6365 41.1392C59.4925 41.1392 60.1062 40.7273 60.3161 40.0167H61.051C60.7845 41.1674 59.9205 41.8094 58.6324 41.8094ZM63.0215 41.1876C63.6837 41.1876 64.1925 40.7233 64.1925 40.1177V39.7745L63.07 39.8431C62.5047 39.8794 62.1817 40.1298 62.1817 40.5255C62.1817 40.9252 62.5168 41.1876 63.0215 41.1876ZM62.8641 41.7852C62.0283 41.7852 61.467 41.2805 61.467 40.5255C61.467 39.8068 62.0202 39.3545 62.9892 39.298L64.1925 39.2294V38.8781C64.1925 38.3653 63.8533 38.0584 63.2719 38.0584C62.7308 38.0584 62.3917 38.3128 62.3028 38.7247H61.6245C61.673 37.9979 62.2948 37.4407 63.288 37.4407C64.2732 37.4407 64.895 37.9737 64.895 38.8095V41.7125H64.2288V40.9898H64.2126C63.9623 41.4703 63.4293 41.7852 62.8641 41.7852ZM65.6583 41.7125V35.8862H66.3608V41.7125H65.6583ZM67.1806 41.7125V37.5134H67.8832V41.7125H67.1806ZM67.5319 36.7664C67.2897 36.7664 67.0918 36.5686 67.0918 36.3263C67.0918 36.08 67.2897 35.8862 67.5319 35.8862C67.7782 35.8862 67.972 36.08 67.972 36.3263C67.972 36.5686 67.7782 36.7664 67.5319 36.7664ZM68.8928 41.7125V38.0907H68.3073V37.5134H68.8928V37.045C68.8928 36.2375 69.2683 35.8539 70.0435 35.8539C70.201 35.8539 70.3705 35.87 70.4715 35.8862V36.4555C70.3867 36.4434 70.2696 36.4313 70.1525 36.4313C69.773 36.4313 69.5913 36.6332 69.5913 37.049V37.5134H70.4513V38.0907H69.5953V41.7125H68.8928ZM72.551 41.7852C71.3882 41.7852 70.6049 40.9494 70.6049 39.6129C70.6049 38.2724 71.3882 37.4407 72.551 37.4407C73.7099 37.4407 74.4932 38.2724 74.4932 39.6129C74.4932 40.9494 73.7099 41.7852 72.551 41.7852ZM72.551 41.1674C73.294 41.1674 73.7785 40.6022 73.7785 39.6129C73.7785 38.6237 73.294 38.0584 72.551 38.0584C71.8081 38.0584 71.3196 38.6237 71.3196 39.6129C71.3196 40.6022 71.8081 41.1674 72.551 41.1674ZM75.0384 41.7125V37.5134H75.7006V38.1998H75.7167C75.854 37.7354 76.2416 37.4407 76.7342 37.4407C76.8553 37.4407 76.9603 37.4609 77.0169 37.469V38.1513C76.9603 38.1311 76.8109 38.1109 76.6413 38.1109C76.0963 38.1109 75.741 38.5026 75.741 39.0961V41.7125H75.0384ZM77.4248 41.7125V37.5134H78.087V38.1836H78.1031C78.3373 37.7314 78.7855 37.4407 79.4356 37.4407C80.3562 37.4407 80.8891 38.0342 80.8891 38.9871V41.7125H80.1866V39.1123C80.1866 38.434 79.8676 38.0625 79.2216 38.0625C78.5594 38.0625 78.1274 38.5309 78.1274 39.2415V41.7125H77.4248ZM81.6564 41.7125V37.5134H82.359V41.7125H81.6564ZM82.0077 36.7664C81.7655 36.7664 81.5676 36.5686 81.5676 36.3263C81.5676 36.08 81.7655 35.8862 82.0077 35.8862C82.254 35.8862 82.4478 36.08 82.4478 36.3263C82.4478 36.5686 82.254 36.7664 82.0077 36.7664ZM84.5274 41.1876C85.1895 41.1876 85.6983 40.7233 85.6983 40.1177V39.7745L84.5758 39.8431C84.0106 39.8794 83.6875 40.1298 83.6875 40.5255C83.6875 40.9252 84.0227 41.1876 84.5274 41.1876ZM84.3699 41.7852C83.5341 41.7852 82.9729 41.2805 82.9729 40.5255C82.9729 39.8068 83.526 39.3545 84.4951 39.298L85.6983 39.2294V38.8781C85.6983 38.3653 85.3591 38.0584 84.7777 38.0584C84.2367 38.0584 83.8975 38.3128 83.8087 38.7247H83.1303C83.1788 37.9979 83.8006 37.4407 84.7939 37.4407C85.779 37.4407 86.4008 37.9737 86.4008 38.8095V41.7125H85.7346V40.9898H85.7185C85.4681 41.4703 84.9352 41.7852 84.3699 41.7852Z" fill="black"/>
<rect x="15.2661" y="51.3456" width="177.468" height="0.318043" fill="#3C3C43" fill-opacity="0.36"/>
<rect x="15.2661" y="59.2966" width="177.468" height="29.2599" rx="3.81651" fill="#3A87FD"/>
<path d="M66.2147 76.132H67.5452C67.6297 76.8131 68.3056 77.2514 69.2718 77.2514C70.1694 77.2514 70.8188 76.792 70.8188 76.1531C70.8188 75.604 70.4017 75.2819 69.4249 75.0549L68.4376 74.8279C67.0542 74.5163 66.4048 73.8299 66.4048 72.6947C66.4048 71.3114 67.5347 70.3927 69.2401 70.3927C70.84 70.3927 71.9963 71.3114 72.0596 72.6208H70.7555C70.6604 71.9503 70.0691 71.5279 69.2348 71.5279C68.3584 71.5279 67.7776 71.9503 67.7776 72.5997C67.7776 73.1119 68.163 73.4128 69.1081 73.6293L69.9846 73.8299C71.5316 74.1784 72.1811 74.8226 72.1811 75.9842C72.1811 77.4679 71.0353 78.3919 69.1873 78.3919C67.4396 78.3919 66.2833 77.5154 66.2147 76.132ZM75.9489 73.3495C75.1675 73.3495 74.6183 73.9091 74.5603 74.7539H77.2795C77.2531 73.8986 76.7356 73.3495 75.9489 73.3495ZM77.29 76.6125H78.5308C78.2932 77.6632 77.327 78.3179 75.9648 78.3179C74.2646 78.3179 73.2403 77.1933 73.2403 75.3347C73.2403 73.4762 74.2804 72.3093 75.9542 72.3093C77.6016 72.3093 78.5889 73.4023 78.5889 75.2239V75.6463H74.555V75.7149C74.5867 76.6759 75.1411 77.2778 76.0017 77.2778C76.6512 77.2778 77.1 77.0402 77.29 76.6125ZM79.854 78.2018V72.4255H81.1159V73.3495H81.2057C81.4803 72.7053 82.0611 72.3093 82.9217 72.3093C84.21 72.3093 84.9123 73.0855 84.9123 74.4635V78.2018H83.6028V74.7751C83.6028 73.8933 83.2332 73.4498 82.4359 73.4498C81.6545 73.4498 81.1635 73.9883 81.1635 74.8384V78.2018H79.854ZM88.5059 78.2968C87.0433 78.2968 86.1299 77.1458 86.1299 75.3083C86.1299 73.4815 87.0486 72.3304 88.5059 72.3304C89.2979 72.3304 89.9526 72.7106 90.2588 73.3442H90.3486V70.192H91.658V78.2018H90.3908V77.2883H90.3011C89.9737 77.9219 89.3084 78.2968 88.5059 78.2968ZM88.9124 73.4445C88.0201 73.4445 87.471 74.152 87.471 75.3136C87.471 76.4805 88.0148 77.1827 88.9124 77.1827C89.8153 77.1827 90.3644 76.4752 90.3644 75.3136C90.3644 74.1626 89.81 73.4445 88.9124 73.4445ZM104.099 78.2018H102.832V72.8426H102.758L100.651 77.9378H99.6794L97.5727 72.8426H97.4988V78.2018H96.2316V70.5827H97.8262L100.118 76.169H100.213L102.504 70.5827H104.099V78.2018ZM108.215 73.3495C107.434 73.3495 106.885 73.9091 106.826 74.7539H109.546C109.519 73.8986 109.002 73.3495 108.215 73.3495ZM109.556 76.6125H110.797C110.559 77.6632 109.593 78.3179 108.231 78.3179C106.531 78.3179 105.506 77.1933 105.506 75.3347C105.506 73.4762 106.547 72.3093 108.22 72.3093C109.868 72.3093 110.855 73.4023 110.855 75.2239V75.6463H106.821V75.7149C106.853 76.6759 107.407 77.2778 108.268 77.2778C108.917 77.2778 109.366 77.0402 109.556 76.6125ZM111.988 74.0781C111.988 73.0327 112.939 72.3093 114.301 72.3093C115.674 72.3093 116.534 72.9165 116.629 73.9672H115.399C115.304 73.5607 114.919 73.3019 114.306 73.3019C113.71 73.3019 113.261 73.5871 113.261 74.0042C113.261 74.3315 113.535 74.5322 114.116 74.6642L115.135 74.8965C116.239 75.1447 116.751 75.6199 116.751 76.4699C116.751 77.5787 115.732 78.3179 114.29 78.3179C112.849 78.3179 111.941 77.6949 111.84 76.6442H113.134C113.261 77.0719 113.667 77.3253 114.322 77.3253C114.982 77.3253 115.441 77.0349 115.441 76.6072C115.441 76.2799 115.193 76.0739 114.644 75.9525L113.62 75.7149C112.511 75.4615 111.988 74.9493 111.988 74.0781ZM117.789 74.0781C117.789 73.0327 118.739 72.3093 120.102 72.3093C121.474 72.3093 122.335 72.9165 122.43 73.9672H121.2C121.105 73.5607 120.719 73.3019 120.107 73.3019C119.51 73.3019 119.061 73.5871 119.061 74.0042C119.061 74.3315 119.336 74.5322 119.917 74.6642L120.936 74.8965C122.039 75.1447 122.551 75.6199 122.551 76.4699C122.551 77.5787 121.532 78.3179 120.091 78.3179C118.65 78.3179 117.741 77.6949 117.641 76.6442H118.935C119.061 77.0719 119.468 77.3253 120.123 77.3253C120.783 77.3253 121.242 77.0349 121.242 76.6072C121.242 76.2799 120.994 76.0739 120.445 75.9525L119.42 75.7149C118.312 75.4615 117.789 74.9493 117.789 74.0781ZM125.802 77.2672C126.594 77.2672 127.185 76.7551 127.185 76.0845V75.6251L125.881 75.7096C125.147 75.7571 124.804 76.0211 124.804 76.4911C124.804 76.9768 125.221 77.2672 125.802 77.2672ZM125.416 78.2968C124.302 78.2968 123.505 77.621 123.505 76.565C123.505 75.5195 124.292 74.9176 125.696 74.8331L127.185 74.7434V74.2576C127.185 73.6927 126.805 73.3759 126.098 73.3759C125.496 73.3759 125.084 73.5871 124.962 73.9778H123.727C123.832 72.9587 124.788 72.3093 126.161 72.3093C127.645 72.3093 128.479 73.0327 128.479 74.2576V78.2018H127.217V77.4098H127.127C126.805 77.9695 126.171 78.2968 125.416 78.2968ZM132.49 77.0507C133.403 77.0507 133.952 76.3538 133.952 75.2503C133.952 74.1467 133.398 73.4445 132.49 73.4445C131.576 73.4445 131.059 74.1467 131.059 75.2503C131.059 76.3538 131.576 77.0507 132.49 77.0507ZM132.49 80.3983C131.006 80.3983 130.034 79.7435 129.929 78.7509H131.243C131.328 79.1469 131.793 79.4003 132.511 79.4003C133.408 79.4003 133.931 78.9779 133.931 78.2546V77.1616H133.841C133.509 77.7794 132.88 78.1173 132.078 78.1173C130.62 78.1173 129.712 76.9874 129.712 75.2503C129.712 73.4815 130.626 72.3304 132.099 72.3304C132.886 72.3304 133.572 72.7211 133.889 73.3495H133.978V72.4255H135.24V78.2229C135.24 79.5587 134.174 80.3983 132.49 80.3983ZM139.225 73.3495C138.443 73.3495 137.894 73.9091 137.836 74.7539H140.555C140.529 73.8986 140.011 73.3495 139.225 73.3495ZM140.566 76.6125H141.807C141.569 77.6632 140.603 78.3179 139.241 78.3179C137.54 78.3179 136.516 77.1933 136.516 75.3347C136.516 73.4762 137.556 72.3093 139.23 72.3093C140.877 72.3093 141.865 73.4023 141.865 75.2239V75.6463H137.831V75.7149C137.862 76.6759 138.417 77.2778 139.277 77.2778C139.927 77.2778 140.376 77.0402 140.566 76.6125Z" fill="white"/>
<defs>
<clipPath id="clip0_206_872">
<rect width="10.1774" height="10.1774" fill="white" transform="translate(180.012 17.8104)"/>
</clipPath>
<clipPath id="clip1_206_872">
<rect width="17.8104" height="17.8104" fill="white" transform="translate(180.012 17.8104)"/>
</clipPath>
</defs>
</svg>
