<svg width="127" height="142" viewBox="0 0 127 142" fill="none" xmlns="http://www.w3.org/2000/svg">
<g clip-path="url(#clip0_206_871)">
<rect width="127" height="274.997" rx="10" fill="#F4F4F4"/>
<g clip-path="url(#clip1_206_871)">
<path d="M26.7466 -0.677246H100.915V-0.677246C100.201 -0.473135 99.7014 0.167811 99.6769 0.909225L99.6671 1.20635V1.20635C99.6671 5.77728 95.9616 9.48275 91.3907 9.48275H36.2705C31.6995 9.48275 27.9941 5.77728 27.9941 1.20635V1.20635L27.9843 0.909228C27.9598 0.167812 27.4598 -0.473136 26.7466 -0.677246V-0.677246Z" fill="black"/>
<path opacity="0.35" d="M114.695 6.03957H120.34C120.745 6.03957 121.073 6.3681 121.073 6.77335V8.80535C121.073 9.2106 120.745 9.53913 120.34 9.53913H114.695C114.29 9.53913 113.961 9.2106 113.961 8.80535V6.77335C113.961 6.3681 114.29 6.03957 114.695 6.03957Z" stroke="black" stroke-width="0.338667"/>
<path opacity="0.4" d="M121.581 7.11206V8.46673C121.854 8.35199 122.031 8.0851 122.031 7.78939C122.031 7.49369 121.854 7.22679 121.581 7.11206" fill="black"/>
<path d="M114.469 6.92014C114.469 6.7144 114.636 6.54761 114.842 6.54761H120.193C120.398 6.54761 120.565 6.7144 120.565 6.92014V8.65863C120.565 8.86437 120.398 9.03116 120.193 9.03116H114.842C114.636 9.03116 114.469 8.86437 114.469 8.65863V6.92014Z" fill="black"/>
<path fill-rule="evenodd" clip-rule="evenodd" d="M109.501 6.64064C110.252 6.64067 110.974 6.92903 111.517 7.4461C111.558 7.48602 111.624 7.48552 111.664 7.44497L112.056 7.04986C112.076 7.0293 112.087 7.00144 112.087 6.97246C112.087 6.94347 112.075 6.91575 112.055 6.89543C110.627 5.52737 108.375 5.52737 106.948 6.89543C106.927 6.91574 106.915 6.94345 106.915 6.97243C106.915 7.00142 106.926 7.02928 106.947 7.04986L107.338 7.44497C107.379 7.48558 107.444 7.48608 107.485 7.4461C108.029 6.92899 108.751 6.64064 109.501 6.64064ZM109.501 7.92611C109.914 7.92608 110.311 8.07934 110.617 8.3561C110.658 8.39538 110.723 8.39453 110.764 8.35418L111.155 7.95907C111.175 7.93834 111.187 7.91023 111.186 7.88101C111.186 7.8518 111.174 7.82392 111.153 7.80362C110.222 6.93786 108.781 6.93786 107.85 7.80362C107.829 7.82392 107.817 7.85181 107.817 7.88104C107.817 7.91026 107.828 7.93837 107.849 7.95907L108.24 8.35418C108.28 8.39453 108.345 8.39538 108.387 8.3561C108.692 8.07952 109.089 7.92628 109.501 7.92611ZM110.285 8.791C110.285 8.8203 110.274 8.84854 110.253 8.86907L109.576 9.55171C109.557 9.57177 109.53 9.58306 109.501 9.58306C109.473 9.58306 109.446 9.57177 109.426 9.55171L108.75 8.86907C108.729 8.84853 108.717 8.82027 108.718 8.79097C108.719 8.76168 108.731 8.73393 108.753 8.7143C109.185 8.34891 109.818 8.34891 110.25 8.7143C110.271 8.73395 110.284 8.7617 110.285 8.791Z" fill="black"/>
<path fill-rule="evenodd" clip-rule="evenodd" d="M104.874 5.98315H104.535C104.348 5.98315 104.196 6.13478 104.196 6.32182V9.25693C104.196 9.44397 104.348 9.5956 104.535 9.5956H104.874C105.061 9.5956 105.212 9.44397 105.212 9.25693V6.32182C105.212 6.13478 105.061 5.98315 104.874 5.98315ZM102.955 6.77338H103.293C103.48 6.77338 103.632 6.925 103.632 7.11204V9.25693C103.632 9.44397 103.48 9.5956 103.293 9.5956H102.955C102.768 9.5956 102.616 9.44397 102.616 9.25693V7.11204C102.616 6.925 102.768 6.77338 102.955 6.77338ZM101.713 7.5636H101.374C101.187 7.5636 101.036 7.71522 101.036 7.90227V9.25693C101.036 9.44397 101.187 9.5956 101.374 9.5956H101.713C101.9 9.5956 102.052 9.44397 102.052 9.25693V7.90227C102.052 7.71522 101.9 7.5636 101.713 7.5636ZM100.132 8.24093H99.7937C99.6067 8.24093 99.4551 8.39256 99.4551 8.5796V9.25693C99.4551 9.44397 99.6067 9.5956 99.7937 9.5956H100.132C100.319 9.5956 100.471 9.44397 100.471 9.25693V8.5796C100.471 8.39256 100.319 8.24093 100.132 8.24093Z" fill="black"/>
<path d="M12.4857 9.56952C13.396 9.56952 13.9368 8.85762 13.9368 7.65211C13.9368 7.19819 13.85 6.8162 13.6838 6.52102C13.4432 6.06213 13.0289 5.81409 12.5056 5.81409C11.7267 5.81409 11.176 6.33747 11.176 7.07168C11.176 7.76125 11.6721 8.26231 12.3542 8.26231C12.7734 8.26231 13.1133 8.06635 13.2819 7.72653H13.2894C13.2894 7.72653 13.2993 7.72653 13.3018 7.72653C13.3067 7.72653 13.3241 7.72653 13.3241 7.72653C13.3241 8.54508 13.0141 9.03374 12.4907 9.03374C12.1831 9.03374 11.945 8.86506 11.8631 8.59469H11.2256C11.3323 9.18256 11.8309 9.56952 12.4857 9.56952ZM12.508 7.75381C12.0963 7.75381 11.8036 7.46112 11.8036 7.05184C11.8036 6.65249 12.1112 6.34739 12.5105 6.34739C12.9099 6.34739 13.2175 6.65745 13.2175 7.06176C13.2175 7.46112 12.9173 7.75381 12.508 7.75381Z" fill="black"/>
<path d="M14.9836 9.53479C15.2193 9.53479 15.3805 9.36612 15.3805 9.14288C15.3805 8.91715 15.2193 8.75096 14.9836 8.75096C14.7505 8.75096 14.5868 8.91715 14.5868 9.14288C14.5868 9.36612 14.7505 9.53479 14.9836 9.53479ZM14.9836 7.67444C15.2193 7.67444 15.3805 7.50825 15.3805 7.285C15.3805 7.05928 15.2193 6.89309 14.9836 6.89309C14.7505 6.89309 14.5868 7.05928 14.5868 7.285C14.5868 7.50825 14.7505 7.67444 14.9836 7.67444Z" fill="black"/>
<path d="M17.7023 9.4827H18.315V8.81545H18.7987V8.27471H18.315V5.90338H17.4121C16.7796 6.85588 16.2761 7.65211 15.9536 8.24495V8.81545H17.7023V9.4827ZM16.5464 8.25239C16.9632 7.51817 17.3352 6.9303 17.6775 6.42428H17.7123V8.28959H16.5464V8.25239Z" fill="black"/>
<path d="M20.1631 9.4827H20.803V5.90338H20.1655L19.2304 6.55823V7.17338L20.1209 6.54831H20.1631V9.4827Z" fill="black"/>
</g>
<path d="M13.13 42.1893H11.7317V35.5079H16.1072V36.6609H13.13V38.4528H15.8479V39.5594H13.13V42.1893ZM18.6461 41.2911C19.2341 41.2911 19.7203 40.9068 19.7203 40.3697V40.0085L18.6739 40.0733C18.1692 40.1104 17.8821 40.3372 17.8821 40.6891C17.8821 41.0596 18.1877 41.2911 18.6461 41.2911ZM18.2016 42.268C17.257 42.268 16.5393 41.6569 16.5393 40.7632C16.5393 39.8603 17.2339 39.3371 18.4701 39.263L19.7203 39.189V38.8602C19.7203 38.3972 19.3962 38.1286 18.8869 38.1286C18.3822 38.1286 18.0627 38.3787 17.9979 38.7445H16.7616C16.8125 37.7814 17.6321 37.1193 18.9471 37.1193C20.2204 37.1193 21.0492 37.7767 21.0492 38.7769V42.1893H19.7434V41.43H19.7157C19.4379 41.9578 18.822 42.268 18.2016 42.268ZM26.556 37.2257L24.8521 42.1893H23.3241L21.6063 37.2257H23.0556L24.0881 40.9947H24.1159L25.1438 37.2257H26.556ZM29.2894 42.2958C27.7892 42.2958 26.8307 41.3327 26.8307 39.7029C26.8307 38.0962 27.8031 37.1193 29.2894 37.1193C30.7757 37.1193 31.748 38.0916 31.748 39.7029C31.748 41.3374 30.7896 42.2958 29.2894 42.2958ZM29.2894 41.2633C29.9515 41.2633 30.3728 40.703 30.3728 39.7075C30.3728 38.7213 29.9469 38.1518 29.2894 38.1518C28.6319 38.1518 28.2013 38.7213 28.2013 39.7075C28.2013 40.703 28.6226 41.2633 29.2894 41.2633ZM32.5691 42.1893V37.2257H33.8748V38.1194H33.9026C34.0785 37.4897 34.4999 37.147 35.0833 37.147C35.2407 37.147 35.375 37.1702 35.4676 37.198V38.3879C35.3565 38.3416 35.1713 38.3092 34.9768 38.3092C34.3101 38.3092 33.9211 38.7167 33.9211 39.4158V42.1893H32.5691ZM36.1683 42.1893V37.2257H37.5203V42.1893H36.1683ZM36.8397 36.5544C36.4461 36.5544 36.1359 36.2395 36.1359 35.8598C36.1359 35.4755 36.4461 35.1653 36.8397 35.1653C37.2333 35.1653 37.5435 35.4755 37.5435 35.8598C37.5435 36.2395 37.2333 36.5544 36.8397 36.5544ZM38.9063 36.0821H40.2583V37.2257H41.1751V38.2444H40.2583V40.6197C40.2583 40.9994 40.4435 41.1799 40.8417 41.1799C40.9621 41.1799 41.0871 41.1707 41.1705 41.1568V42.1523C41.0316 42.1847 40.8 42.2079 40.5269 42.2079C39.3601 42.2079 38.9063 41.8189 38.9063 40.8512V38.2444H38.2071V37.2257H38.9063V36.0821ZM44.1909 38.1194C43.5982 38.1194 43.1722 38.5685 43.1259 39.189H45.2327C45.2049 38.5546 44.7928 38.1194 44.1909 38.1194ZM45.2512 40.6706H46.4921C46.3439 41.643 45.4549 42.2958 44.2279 42.2958C42.7 42.2958 41.7832 41.3189 41.7832 39.7307C41.7832 38.1472 42.7092 37.1193 44.177 37.1193C45.6216 37.1193 46.5338 38.0962 46.5338 39.6057V40.0178H43.1121V40.1011C43.1121 40.8095 43.5612 41.2957 44.2511 41.2957C44.7465 41.2957 45.1262 41.0503 45.2512 40.6706ZM47.2715 38.6843C47.2715 37.7397 48.0864 37.1193 49.3505 37.1193C50.6238 37.1193 51.4109 37.7721 51.4387 38.7445H50.1932C50.1515 38.3416 49.8505 38.0684 49.3505 38.0684C48.8828 38.0684 48.5726 38.2814 48.5726 38.6102C48.5726 38.8648 48.7578 39.0362 49.2579 39.1427L50.1052 39.3232C51.1424 39.5409 51.5683 39.9483 51.5683 40.6753C51.5683 41.6522 50.6747 42.2958 49.3968 42.2958C48.0262 42.2958 47.2345 41.6569 47.1465 40.6799H48.4661C48.5495 41.1151 48.8597 41.3466 49.3968 41.3466C49.9061 41.3466 50.221 41.1383 50.221 40.8142C50.221 40.5502 50.0496 40.4021 49.5635 40.2909L48.7161 40.115C47.7577 39.9113 47.2715 39.4297 47.2715 38.6843Z" fill="black"/>
<rect x="8.12793" y="51.1387" width="110.744" height="12.7413" rx="3.38667" fill="#767680" fill-opacity="0.12"/>
<path d="M12.999 59.1609C13.4684 59.1609 13.9014 59.0091 14.2556 58.7561L15.5881 60.0886C15.6499 60.1504 15.7315 60.1814 15.8186 60.1814C16.0013 60.1814 16.1306 60.0408 16.1306 59.8609C16.1306 59.7766 16.1025 59.695 16.0407 59.636L14.7166 58.3091C14.9949 57.9437 15.1608 57.4911 15.1608 56.9991C15.1608 55.81 14.1881 54.8373 12.999 54.8373C11.8126 54.8373 10.8372 55.8071 10.8372 56.9991C10.8372 58.1882 11.8098 59.1609 12.999 59.1609ZM12.999 58.6942C12.0713 58.6942 11.3038 57.9268 11.3038 56.9991C11.3038 56.0714 12.0713 55.3039 12.999 55.3039C13.9267 55.3039 14.6941 56.0714 14.6941 56.9991C14.6941 57.9268 13.9267 58.6942 12.999 58.6942Z" fill="#3C3C43" fill-opacity="0.6"/>
<path d="M18.4861 58.4495H18.9978C19.0596 58.8739 19.4644 59.1438 20.0407 59.1438C20.5861 59.1438 20.9881 58.8486 20.9881 58.4466C20.9881 58.1009 20.7351 57.8816 20.1757 57.741L19.6556 57.6061C18.9219 57.4206 18.6042 57.0888 18.6042 56.5125C18.6042 55.8238 19.1805 55.3571 20.0379 55.3571C20.8222 55.3571 21.407 55.8238 21.4491 56.4788H20.9403C20.87 56.0627 20.5271 55.8154 20.021 55.8154C19.4813 55.8154 19.1243 56.0852 19.1243 56.4957C19.1243 56.8133 19.3464 56.9961 19.9058 57.1394L20.3303 57.2519C21.1708 57.4627 21.5082 57.7888 21.5082 58.3848C21.5082 59.1298 20.9206 59.6049 19.9929 59.6049C19.1327 59.6049 18.5395 59.1494 18.4861 58.4495ZM23.3603 56.8527C22.8768 56.8527 22.5395 57.2069 22.5029 57.7438H24.1728C24.1615 57.2069 23.841 56.8527 23.3603 56.8527ZM24.1587 58.725H24.6422C24.5017 59.2422 24.0294 59.5627 23.3659 59.5627C22.5254 59.5627 21.9997 58.9555 21.9997 57.9969C21.9997 57.0439 22.5338 56.4254 23.3659 56.4254C24.184 56.4254 24.6816 57.0073 24.6816 57.9491V58.1346H22.5029V58.1571C22.5282 58.7559 22.8627 59.1354 23.3772 59.1354C23.7679 59.1354 24.0322 58.992 24.1587 58.725ZM26.2357 59.1382C26.7333 59.1382 27.1016 58.8121 27.1016 58.3792V58.1009L26.2863 58.1543C25.8253 58.1852 25.6229 58.3454 25.6229 58.6491C25.6229 58.9583 25.8843 59.1382 26.2357 59.1382ZM26.1458 59.5627C25.5582 59.5627 25.1225 59.2141 25.1225 58.6603C25.1225 58.1177 25.5217 57.8057 26.2273 57.7635L27.1016 57.7101V57.4346C27.1016 57.0607 26.8683 56.8555 26.4157 56.8555C26.053 56.8555 25.8 56.9933 25.7325 57.2322H25.2434C25.3081 56.7459 25.786 56.4254 26.4325 56.4254C27.1719 56.4254 27.5851 56.8049 27.5851 57.4346V59.5093H27.1241V59.0623H27.0791C26.8823 59.3856 26.5506 59.5627 26.1458 59.5627ZM28.3409 59.5093V56.4788H28.8019V56.9286H28.8469C28.9369 56.6334 29.2855 56.4254 29.6875 56.4254C29.7662 56.4254 29.8674 56.431 29.9292 56.4394V56.923C29.8899 56.9117 29.7156 56.8949 29.62 56.8949C29.159 56.8949 28.8244 57.2041 28.8244 57.6314V59.5093H28.3409ZM32.8187 57.4065H32.3296C32.2509 57.1057 31.9838 56.8611 31.5481 56.8611C31.0027 56.8611 30.6597 57.2969 30.6597 57.9828C30.6597 58.6828 31.0083 59.127 31.5481 59.127C31.9557 59.127 32.2396 58.9386 32.3296 58.5956H32.8187C32.7316 59.1523 32.279 59.5627 31.5509 59.5627C30.7019 59.5627 30.1593 58.947 30.1593 57.9828C30.1593 57.0382 30.6991 56.4254 31.5481 56.4254C32.2846 56.4254 32.7344 56.8668 32.8187 57.4065ZM33.4227 59.5093V55.2756H33.9062V56.9567H33.9512C34.103 56.6222 34.4207 56.4254 34.8845 56.4254C35.5255 56.4254 35.9303 56.8358 35.9303 57.5471V59.5093H35.4468V57.6651C35.4468 57.1282 35.205 56.8611 34.7468 56.8611C34.2042 56.8611 33.9062 57.2041 33.9062 57.7157V59.5093H33.4227Z" fill="#3C3C43" fill-opacity="0.6"/>
<rect width="127" height="30.6747" fill="#F4F4F4"/>
<g clip-path="url(#clip2_206_871)">
<path d="M26.416 -0.677368H100.584V-0.677368C99.8708 -0.473257 99.3708 0.167689 99.3463 0.909103L99.3365 1.20623V1.20623C99.3365 5.77716 95.6311 9.48263 91.0601 9.48263H35.9399C31.369 9.48263 27.6635 5.77716 27.6635 1.20623V1.20623L27.6537 0.909106C27.6292 0.16769 27.1292 -0.473258 26.416 -0.677368V-0.677368Z" fill="black"/>
<path opacity="0.35" d="M114.695 6.03957H120.34C120.745 6.03957 121.073 6.3681 121.073 6.77335V8.80535C121.073 9.2106 120.745 9.53913 120.34 9.53913H114.695C114.29 9.53913 113.961 9.2106 113.961 8.80535V6.77335C113.961 6.3681 114.29 6.03957 114.695 6.03957Z" stroke="black" stroke-width="0.338667"/>
<path opacity="0.4" d="M121.581 7.11206V8.46673C121.854 8.35199 122.031 8.0851 122.031 7.78939C122.031 7.49369 121.854 7.22679 121.581 7.11206" fill="black"/>
<path d="M114.469 6.92014C114.469 6.7144 114.636 6.54761 114.842 6.54761H120.193C120.398 6.54761 120.565 6.7144 120.565 6.92014V8.65863C120.565 8.86437 120.398 9.03116 120.193 9.03116H114.842C114.636 9.03116 114.469 8.86437 114.469 8.65863V6.92014Z" fill="black"/>
<path fill-rule="evenodd" clip-rule="evenodd" d="M109.501 6.64064C110.252 6.64067 110.974 6.92903 111.517 7.4461C111.558 7.48602 111.624 7.48552 111.664 7.44497L112.056 7.04986C112.076 7.0293 112.087 7.00144 112.087 6.97246C112.087 6.94347 112.075 6.91575 112.055 6.89543C110.627 5.52737 108.375 5.52737 106.948 6.89543C106.927 6.91574 106.915 6.94345 106.915 6.97243C106.915 7.00142 106.926 7.02928 106.947 7.04986L107.338 7.44497C107.379 7.48558 107.444 7.48608 107.485 7.4461C108.029 6.92899 108.751 6.64064 109.501 6.64064ZM109.501 7.92611C109.914 7.92608 110.311 8.07934 110.617 8.3561C110.658 8.39538 110.723 8.39453 110.764 8.35418L111.155 7.95907C111.175 7.93834 111.187 7.91023 111.186 7.88101C111.186 7.8518 111.174 7.82392 111.153 7.80362C110.222 6.93786 108.781 6.93786 107.85 7.80362C107.829 7.82392 107.817 7.85181 107.817 7.88104C107.817 7.91026 107.828 7.93837 107.849 7.95907L108.24 8.35418C108.28 8.39453 108.345 8.39538 108.387 8.3561C108.692 8.07952 109.089 7.92628 109.501 7.92611ZM110.285 8.791C110.285 8.8203 110.274 8.84854 110.253 8.86907L109.576 9.55171C109.557 9.57177 109.53 9.58306 109.501 9.58306C109.473 9.58306 109.446 9.57177 109.426 9.55171L108.75 8.86907C108.729 8.84853 108.717 8.82027 108.718 8.79097C108.719 8.76168 108.731 8.73393 108.753 8.7143C109.185 8.34891 109.818 8.34891 110.25 8.7143C110.271 8.73395 110.284 8.7617 110.285 8.791Z" fill="black"/>
<path fill-rule="evenodd" clip-rule="evenodd" d="M104.874 5.98315H104.535C104.348 5.98315 104.196 6.13478 104.196 6.32182V9.25693C104.196 9.44397 104.348 9.5956 104.535 9.5956H104.874C105.061 9.5956 105.212 9.44397 105.212 9.25693V6.32182C105.212 6.13478 105.061 5.98315 104.874 5.98315ZM102.955 6.77338H103.293C103.48 6.77338 103.632 6.925 103.632 7.11204V9.25693C103.632 9.44397 103.48 9.5956 103.293 9.5956H102.955C102.768 9.5956 102.616 9.44397 102.616 9.25693V7.11204C102.616 6.925 102.768 6.77338 102.955 6.77338ZM101.713 7.5636H101.374C101.187 7.5636 101.036 7.71522 101.036 7.90227V9.25693C101.036 9.44397 101.187 9.5956 101.374 9.5956H101.713C101.9 9.5956 102.052 9.44397 102.052 9.25693V7.90227C102.052 7.71522 101.9 7.5636 101.713 7.5636ZM100.132 8.24093H99.7937C99.6067 8.24093 99.4551 8.39256 99.4551 8.5796V9.25693C99.4551 9.44397 99.6067 9.5956 99.7937 9.5956H100.132C100.319 9.5956 100.471 9.44397 100.471 9.25693V8.5796C100.471 8.39256 100.319 8.24093 100.132 8.24093Z" fill="black"/>
<path d="M12.6393 9.56952C13.5496 9.56952 14.0904 8.85762 14.0904 7.65211C14.0904 7.19819 14.0035 6.8162 13.8373 6.52102C13.5967 6.06213 13.1825 5.81409 12.6591 5.81409C11.8803 5.81409 11.3296 6.33747 11.3296 7.07168C11.3296 7.76125 11.8257 8.26231 12.5078 8.26231C12.927 8.26231 13.2668 8.06635 13.4355 7.72653H13.4429C13.4429 7.72653 13.4529 7.72653 13.4554 7.72653C13.4603 7.72653 13.4777 7.72653 13.4777 7.72653C13.4777 8.54508 13.1676 9.03374 12.6442 9.03374C12.3367 9.03374 12.0985 8.86506 12.0167 8.59469H11.3792C11.4859 9.18256 11.9844 9.56952 12.6393 9.56952ZM12.6616 7.75381C12.2498 7.75381 11.9571 7.46112 11.9571 7.05184C11.9571 6.65249 12.2647 6.34739 12.6641 6.34739C13.0634 6.34739 13.371 6.65745 13.371 7.06176C13.371 7.46112 13.0709 7.75381 12.6616 7.75381Z" fill="black"/>
<path d="M15.1372 9.53479C15.3729 9.53479 15.5341 9.36612 15.5341 9.14288C15.5341 8.91715 15.3729 8.75096 15.1372 8.75096C14.904 8.75096 14.7403 8.91715 14.7403 9.14288C14.7403 9.36612 14.904 9.53479 15.1372 9.53479ZM15.1372 7.67444C15.3729 7.67444 15.5341 7.50825 15.5341 7.285C15.5341 7.05928 15.3729 6.89309 15.1372 6.89309C14.904 6.89309 14.7403 7.05928 14.7403 7.285C14.7403 7.50825 14.904 7.67444 15.1372 7.67444Z" fill="black"/>
<path d="M17.8559 9.4827H18.4686V8.81545H18.9523V8.27471H18.4686V5.90338H17.5657C16.9332 6.85588 16.4296 7.65211 16.1072 8.24495V8.81545H17.8559V9.4827ZM16.7 8.25239C17.1167 7.51817 17.4888 6.9303 17.8311 6.42428H17.8658V8.28959H16.7V8.25239Z" fill="black"/>
<path d="M20.3166 9.4827H20.9566V5.90338H20.3191L19.384 6.55823V7.17338L20.2745 6.54831H20.3166V9.4827Z" fill="black"/>
</g>
<path d="M14.892 25.2222C13.79 25.2222 13.1013 24.4069 13.1013 23.0997C13.1013 21.7897 13.7872 20.9744 14.8892 20.9744C15.7438 20.9744 16.4101 21.5114 16.531 22.2929H16.0165C15.8816 21.77 15.4486 21.4411 14.8892 21.4411C14.1105 21.4411 13.6214 22.0821 13.6214 23.0997C13.6214 24.1174 14.1105 24.7555 14.892 24.7555C15.4571 24.7555 15.8872 24.466 16.0165 23.9965H16.531C16.396 24.7415 15.7551 25.2222 14.892 25.2222ZM18.4253 25.18C17.5622 25.18 17.0281 24.584 17.0281 23.6114C17.0281 22.6359 17.5622 22.0427 18.4253 22.0427C19.2883 22.0427 19.8224 22.6359 19.8224 23.6114C19.8224 24.584 19.2883 25.18 18.4253 25.18ZM18.4253 24.7443C18.9988 24.7443 19.322 24.3282 19.322 23.6114C19.322 22.8917 18.9988 22.4784 18.4253 22.4784C17.8518 22.4784 17.5285 22.8917 17.5285 23.6114C17.5285 24.3282 17.8518 24.7443 18.4253 24.7443ZM20.4433 25.1266V22.0961H20.9043V22.574H20.9493C21.1011 22.2395 21.3963 22.0427 21.8601 22.0427C22.5404 22.0427 22.9199 22.4447 22.9199 23.1644V25.1266H22.4364V23.2824C22.4364 22.7371 22.2059 22.4784 21.7224 22.4784C21.2389 22.4784 20.9268 22.8017 20.9268 23.333V25.1266H20.4433ZM23.8697 21.3118H24.3532V22.0961H25.0279V22.5009H24.3532V24.2158C24.3532 24.5728 24.4882 24.7246 24.803 24.7246C24.8902 24.7246 24.938 24.7218 25.0279 24.7133V25.121C24.9323 25.1378 24.8396 25.1491 24.744 25.1491C24.1199 25.1491 23.8697 24.9186 23.8697 24.3395V22.5009H23.3806V22.0961H23.8697V21.3118ZM26.554 24.7555C27.0516 24.7555 27.4198 24.4294 27.4198 23.9965V23.7182L26.6046 23.7716C26.1435 23.8025 25.9411 23.9628 25.9411 24.2664C25.9411 24.5756 26.2026 24.7555 26.554 24.7555ZM26.464 25.18C25.8765 25.18 25.4407 24.8314 25.4407 24.2776C25.4407 23.735 25.8399 23.423 26.5455 23.3808L27.4198 23.3274V23.0519C27.4198 22.678 27.1865 22.4728 26.7339 22.4728C26.3712 22.4728 26.1182 22.6106 26.0508 22.8495H25.5616C25.6263 22.3632 26.1042 22.0427 26.7508 22.0427C27.4901 22.0427 27.9033 22.4222 27.9033 23.0519V25.1266H27.4423V24.6796H27.3973C27.2005 25.0029 26.8688 25.18 26.464 25.18ZM31.1667 23.0238H30.6776C30.5989 22.723 30.3318 22.4784 29.8961 22.4784C29.3507 22.4784 29.0077 22.9142 29.0077 23.6001C29.0077 24.3001 29.3563 24.7443 29.8961 24.7443C30.3037 24.7443 30.5876 24.5559 30.6776 24.2129H31.1667C31.0796 24.7696 30.627 25.18 29.8989 25.18C29.0499 25.18 28.5073 24.5643 28.5073 23.6001C28.5073 22.6555 29.0471 22.0427 29.8961 22.0427C30.6326 22.0427 31.0824 22.4841 31.1667 23.0238ZM32.0012 21.3118H32.4847V22.0961H33.1594V22.5009H32.4847V24.2158C32.4847 24.5728 32.6197 24.7246 32.9345 24.7246C33.0217 24.7246 33.0695 24.7218 33.1594 24.7133V25.121C33.0639 25.1378 32.9711 25.1491 32.8755 25.1491C32.2514 25.1491 32.0012 24.9186 32.0012 24.3395V22.5009H31.5121V22.0961H32.0012V21.3118ZM33.6257 22.9254C33.6257 22.4222 34.112 22.0427 34.7558 22.0427C35.3911 22.0427 35.8325 22.3576 35.8971 22.8551H35.4192C35.3546 22.6134 35.1184 22.4531 34.753 22.4531C34.3931 22.4531 34.112 22.6359 34.112 22.9057C34.112 23.1138 34.2807 23.2431 34.6377 23.3302L35.1044 23.4427C35.675 23.5804 35.9505 23.8278 35.9505 24.2635C35.9505 24.8061 35.4248 25.18 34.7361 25.18C34.0614 25.18 33.5976 24.8567 33.5441 24.3535H34.0417C34.1232 24.6093 34.365 24.7724 34.753 24.7724C35.1606 24.7724 35.4529 24.5784 35.4529 24.3001C35.4529 24.0921 35.2955 23.9515 34.9722 23.8728L34.4522 23.7463C33.8843 23.6085 33.6257 23.364 33.6257 22.9254Z" fill="#007AFF"/>
<rect x="8.46655" y="109.389" width="110.744" height="30.48" rx="8.128" fill="white"/>
<path d="M19.105 123.856H16.9916V119.084H19.0686C19.9649 119.084 20.5271 119.543 20.5271 120.274C20.5271 120.797 20.1368 121.233 19.6308 121.309V121.336C20.279 121.385 20.7553 121.858 20.7553 122.49C20.7553 123.33 20.1236 123.856 19.105 123.856ZM17.9904 119.828V121.068H18.7081C19.2406 121.068 19.5448 120.833 19.5448 120.43C19.5448 120.046 19.2769 119.828 18.8106 119.828H17.9904ZM17.9904 123.112H18.8503C19.4258 123.112 19.7367 122.867 19.7367 122.411C19.7367 121.964 19.4158 121.726 18.8271 121.726H17.9904V123.112ZM22.4752 123.214C22.8952 123.214 23.2425 122.94 23.2425 122.556V122.298L22.4951 122.345C22.1346 122.371 21.9295 122.533 21.9295 122.784C21.9295 123.049 22.1478 123.214 22.4752 123.214ZM22.1577 123.912C21.483 123.912 20.9704 123.476 20.9704 122.837C20.9704 122.192 21.4665 121.819 22.3495 121.766L23.2425 121.713V121.478C23.2425 121.147 23.011 120.955 22.6472 120.955C22.2867 120.955 22.0585 121.134 22.0122 121.395H21.1292C21.1655 120.707 21.7509 120.234 22.6902 120.234C23.5997 120.234 24.1917 120.704 24.1917 121.418V123.856H23.2591V123.314H23.2392C23.0408 123.691 22.6009 123.912 22.1577 123.912ZM24.6813 123.856V120.311H25.614V120.949H25.6338C25.7595 120.499 26.0605 120.254 26.4772 120.254C26.5896 120.254 26.6855 120.271 26.7517 120.291V121.141C26.6723 121.108 26.54 121.084 26.4011 121.084C25.9249 121.084 25.647 121.375 25.647 121.875V123.856H24.6813ZM28.2963 123.214C28.7163 123.214 29.0636 122.94 29.0636 122.556V122.298L28.3162 122.345C27.9557 122.371 27.7506 122.533 27.7506 122.784C27.7506 123.049 27.9689 123.214 28.2963 123.214ZM27.9788 123.912C27.3041 123.912 26.7915 123.476 26.7915 122.837C26.7915 122.192 27.2876 121.819 28.1706 121.766L29.0636 121.713V121.478C29.0636 121.147 28.8321 120.955 28.4683 120.955C28.1078 120.955 27.8796 121.134 27.8333 121.395H26.9503C26.9866 120.707 27.572 120.234 28.5113 120.234C29.4208 120.234 30.0128 120.704 30.0128 121.418V123.856H29.0801V123.314H29.0603C28.8619 123.691 28.422 123.912 27.9788 123.912ZM33.7237 121.63H32.8274C32.7712 121.256 32.5232 120.992 32.1263 120.992C31.65 120.992 31.3524 121.395 31.3524 122.08C31.3524 122.778 31.65 123.175 32.1296 123.175C32.5166 123.175 32.7679 122.943 32.8274 122.556H33.727C33.6774 123.393 33.0523 123.932 32.1197 123.932C31.0514 123.932 30.3734 123.237 30.3734 122.08C30.3734 120.942 31.0514 120.234 32.1131 120.234C33.0722 120.234 33.6807 120.826 33.7237 121.63ZM35.06 121.733L36.2639 120.311H37.3586L36.0059 121.832L37.4247 123.856H36.3135L35.2981 122.414L35.0468 122.685V123.856H34.081V119.084H35.0468V121.733H35.06ZM41.0101 119.001C42.4223 119.001 43.312 119.95 43.312 121.471C43.312 122.989 42.4223 123.939 41.0101 123.939C39.5946 123.939 38.7082 122.989 38.7082 121.471C38.7082 119.95 39.5946 119.001 41.0101 119.001ZM41.0101 119.834C40.2296 119.834 39.7269 120.469 39.7269 121.471C39.7269 122.47 40.2263 123.102 41.0101 123.102C41.7906 123.102 42.29 122.47 42.29 121.471C42.29 120.469 41.7906 119.834 41.0101 119.834ZM45.8455 123.912C45.3262 123.912 44.9294 123.661 44.7342 123.247H44.7144V123.856H43.7619V119.084H44.7276V120.926H44.7475C44.9426 120.506 45.3362 120.254 45.8422 120.254C46.7351 120.254 47.2841 120.939 47.2841 122.083C47.2841 123.224 46.7384 123.912 45.8455 123.912ZM45.5114 121.028C45.0451 121.028 44.7243 121.448 44.7243 122.083C44.7243 122.725 45.0418 123.135 45.5114 123.135C45.9943 123.135 46.2953 122.731 46.2953 122.083C46.2953 121.438 45.991 121.028 45.5114 121.028ZM49.0206 123.214C49.4406 123.214 49.7879 122.94 49.7879 122.556V122.298L49.0404 122.345C48.68 122.371 48.4749 122.533 48.4749 122.784C48.4749 123.049 48.6932 123.214 49.0206 123.214ZM48.7031 123.912C48.0284 123.912 47.5158 123.476 47.5158 122.837C47.5158 122.192 48.0119 121.819 48.8949 121.766L49.7879 121.713V121.478C49.7879 121.147 49.5564 120.955 49.1926 120.955C48.8321 120.955 48.6039 121.134 48.5576 121.395H47.6745C47.7109 120.707 48.2963 120.234 49.2356 120.234C50.1451 120.234 50.7371 120.704 50.7371 121.418V123.856H49.8044V123.314H49.7846C49.5862 123.691 49.1463 123.912 48.7031 123.912ZM51.2267 123.856V120.311H52.1594V120.952H52.1792C52.328 120.526 52.7084 120.244 53.1912 120.244C53.7039 120.244 54.0611 120.509 54.1801 120.972H54.2C54.3587 120.526 54.782 120.244 55.3013 120.244C55.9958 120.244 56.4621 120.721 56.4621 121.435V123.856H55.4964V121.676C55.4964 121.266 55.2914 121.041 54.9176 121.041C54.5505 121.041 54.3091 121.309 54.3091 121.703V123.856H53.3797V121.647C53.3797 121.266 53.1648 121.041 52.8076 121.041C52.4405 121.041 52.1924 121.319 52.1924 121.716V123.856H51.2267ZM58.3077 123.214C58.7278 123.214 59.075 122.94 59.075 122.556V122.298L58.3276 122.345C57.9671 122.371 57.762 122.533 57.762 122.784C57.762 123.049 57.9803 123.214 58.3077 123.214ZM57.9902 123.912C57.3156 123.912 56.8029 123.476 56.8029 122.837C56.8029 122.192 57.299 121.819 58.1821 121.766L59.075 121.713V121.478C59.075 121.147 58.8435 120.955 58.4797 120.955C58.1192 120.955 57.891 121.134 57.8447 121.395H56.9617C56.9981 120.707 57.5835 120.234 58.5227 120.234C59.4322 120.234 60.0242 120.704 60.0242 121.418V123.856H59.0916V123.314H59.0717C58.8733 123.691 58.4334 123.912 57.9902 123.912Z" fill="black"/>
<path d="M18.321 131.339V130.694H16.7624V130.343C17.0268 129.853 17.3901 129.288 18.1232 128.237H18.695V130.354H19.1336V130.694H18.695V131.339H18.321ZM17.1451 130.345V130.354H18.321V128.559H18.3145C17.7276 129.397 17.3901 129.915 17.1451 130.345ZM20.8943 131.339V130.694H19.3357V130.343C19.6001 129.853 19.9635 129.288 20.6965 128.237H21.2683V130.354H21.7069V130.694H21.2683V131.339H20.8943ZM19.7184 130.345V130.354H20.8943V128.559H20.8878C20.301 129.397 19.9635 129.915 19.7184 130.345ZM22.1047 128.563H22.4787V129.103H22.913V129.41H22.4787V130.739C22.4787 130.943 22.5647 131.036 22.7561 131.036C22.799 131.036 22.885 131.029 22.9108 131.025V131.339C22.8657 131.349 22.7625 131.356 22.6744 131.356C22.2638 131.356 22.1047 131.188 22.1047 130.758V129.41H21.7715V129.103H22.1047V128.563ZM23.2441 131.339V128.237H23.6182V129.46H23.6268C23.7515 129.21 23.9965 129.064 24.3362 129.064C24.8263 129.064 25.123 129.395 25.123 129.894V131.339H24.7489V129.963C24.7489 129.608 24.5705 129.395 24.2201 129.395C23.8482 129.395 23.6182 129.649 23.6182 130.036V131.339H23.2441ZM27.4105 129.064C27.9802 129.064 28.3671 129.52 28.3671 130.221C28.3671 130.922 27.9823 131.377 27.4191 131.377C27.0988 131.377 26.8408 131.22 26.7075 130.975H26.6989V132.085H26.3249V129.103H26.6796V129.481H26.6882C26.8258 129.23 27.0859 129.064 27.4105 129.064ZM27.3374 131.048C27.7351 131.048 27.9845 130.728 27.9845 130.221C27.9845 129.716 27.7351 129.393 27.3374 129.393C26.9548 129.393 26.6968 129.724 26.6968 130.221C26.6968 130.719 26.9548 131.048 27.3374 131.048ZM28.6574 131.339V129.103H29.01V129.468H29.0186C29.0917 129.221 29.2981 129.064 29.5603 129.064C29.6248 129.064 29.6807 129.075 29.7108 129.079V129.443C29.6807 129.432 29.6012 129.421 29.5109 129.421C29.2207 129.421 29.0315 129.63 29.0315 129.946V131.339H28.6574ZM30.717 129.389C30.3666 129.389 30.1215 129.658 30.0978 130.029H31.3124C31.3038 129.655 31.0695 129.389 30.717 129.389ZM31.3038 130.698H31.6715C31.607 131.089 31.2286 131.377 30.7406 131.377C30.1 131.377 29.7109 130.932 29.7109 130.229C29.7109 129.535 30.1064 129.064 30.7234 129.064C31.3275 129.064 31.6994 129.503 31.6994 130.18V130.322H30.0957V130.343C30.0957 130.771 30.3472 131.053 30.7492 131.053C31.033 131.053 31.2415 130.909 31.3038 130.698ZM31.951 129.72C31.951 129.337 32.2885 129.064 32.7722 129.064C33.2623 129.064 33.5891 129.352 33.6042 129.748H33.2473C33.2194 129.513 33.0474 129.369 32.7722 129.369C32.4992 129.369 32.3186 129.505 32.3186 129.701C32.3186 129.855 32.4325 129.961 32.6819 130.021L33.0366 130.107C33.4881 130.216 33.6514 130.393 33.6514 130.713C33.6514 131.102 33.2838 131.377 32.7851 131.377C32.2606 131.377 31.9338 131.113 31.8908 130.694H32.2649C32.31 130.95 32.482 131.072 32.7851 131.072C33.0882 131.072 33.2752 130.943 33.2752 130.741C33.2752 130.58 33.1871 130.487 32.9313 130.425L32.5766 130.339C32.1552 130.238 31.951 130.042 31.951 129.72ZM33.9718 131.339V129.103H34.3459V131.339H33.9718ZM34.1589 128.705C34.0299 128.705 33.9246 128.6 33.9246 128.471C33.9246 128.34 34.0299 128.237 34.1589 128.237C34.29 128.237 34.3932 128.34 34.3932 128.471C34.3932 128.6 34.29 128.705 34.1589 128.705ZM35.61 131.377C35.0404 131.377 34.6534 130.922 34.6534 130.221C34.6534 129.52 35.0382 129.064 35.6014 129.064C35.9217 129.064 36.1797 129.221 36.313 129.466H36.3216V128.237H36.6957V131.339H36.3388V130.96H36.3323C36.1883 131.218 35.9325 131.377 35.61 131.377ZM35.681 129.393C35.2854 129.393 35.0361 129.716 35.0361 130.221C35.0361 130.728 35.2854 131.048 35.681 131.048C36.0658 131.048 36.3237 130.722 36.3237 130.221C36.3237 129.722 36.0658 129.393 35.681 129.393ZM38.0092 129.389C37.6588 129.389 37.4138 129.658 37.3901 130.029H38.6047C38.5961 129.655 38.3618 129.389 38.0092 129.389ZM38.5961 130.698H38.9637C38.8992 131.089 38.5209 131.377 38.0329 131.377C37.3923 131.377 37.0032 130.932 37.0032 130.229C37.0032 129.535 37.3987 129.064 38.0157 129.064C38.6198 129.064 38.9917 129.503 38.9917 130.18V130.322H37.388V130.343C37.388 130.771 37.6395 131.053 38.0415 131.053C38.3252 131.053 38.5338 130.909 38.5961 130.698ZM39.282 131.339V129.103H39.6345V129.46H39.6431C39.7678 129.219 40.0064 129.064 40.3525 129.064C40.8427 129.064 41.1264 129.38 41.1264 129.888V131.339H40.7524V129.954C40.7524 129.593 40.5826 129.395 40.2386 129.395C39.886 129.395 39.656 129.645 39.656 130.023V131.339H39.282ZM41.636 128.563H42.0101V129.103H42.4443V129.41H42.0101V130.739C42.0101 130.943 42.0961 131.036 42.2874 131.036C42.3304 131.036 42.4164 131.029 42.4422 131.025V131.339C42.397 131.349 42.2938 131.356 42.2057 131.356C41.7951 131.356 41.636 131.188 41.636 130.758V129.41H41.3028V129.103H41.636V128.563ZM44.4975 131.377C43.8784 131.377 43.4613 130.932 43.4613 130.221C43.4613 129.507 43.8784 129.064 44.4975 129.064C45.1145 129.064 45.5315 129.507 45.5315 130.221C45.5315 130.932 45.1145 131.377 44.4975 131.377ZM44.4975 131.048C44.893 131.048 45.151 130.747 45.151 130.221C45.151 129.694 44.893 129.393 44.4975 129.393C44.1019 129.393 43.8418 129.694 43.8418 130.221C43.8418 130.747 44.1019 131.048 44.4975 131.048ZM45.9422 131.339V129.41H45.6305V129.103H45.9422V128.854C45.9422 128.424 46.1421 128.219 46.5549 128.219C46.6387 128.219 46.729 128.228 46.7827 128.237V128.54C46.7376 128.533 46.6753 128.527 46.6129 128.527C46.4108 128.527 46.3141 128.634 46.3141 128.856V129.103H46.772V129.41H46.3163V131.339H45.9422ZM48.0061 128.563H48.3802V129.103H48.8144V129.41H48.3802V130.739C48.3802 130.943 48.4662 131.036 48.6575 131.036C48.7005 131.036 48.7865 131.029 48.8123 131.025V131.339C48.7671 131.349 48.6639 131.356 48.5758 131.356C48.1652 131.356 48.0061 131.188 48.0061 130.758V129.41H47.6729V129.103H48.0061V128.563ZM49.1456 131.339V128.237H49.5196V129.46H49.5282C49.6529 129.21 49.898 129.064 50.2376 129.064C50.7278 129.064 51.0244 129.395 51.0244 129.894V131.339H50.6504V129.963C50.6504 129.608 50.472 129.395 50.1216 129.395C49.7496 129.395 49.5196 129.649 49.5196 130.036V131.339H49.1456ZM52.3079 129.389C51.9575 129.389 51.7124 129.658 51.6888 130.029H52.9034C52.8948 129.655 52.6605 129.389 52.3079 129.389ZM52.8948 130.698H53.2624C53.1979 131.089 52.8196 131.377 52.3316 131.377C51.6909 131.377 51.3018 130.932 51.3018 130.229C51.3018 129.535 51.6974 129.064 52.3144 129.064C52.9184 129.064 53.2904 129.503 53.2904 130.18V130.322H51.6866V130.343C51.6866 130.771 51.9382 131.053 52.3402 131.053C52.6239 131.053 52.8325 130.909 52.8948 130.698ZM54.8405 128.237V130.225C54.8405 130.694 55.1479 131.033 55.6853 131.033C56.2228 131.033 56.5302 130.694 56.5302 130.225V128.237H56.9171V130.251C56.9171 130.913 56.4549 131.39 55.6853 131.39C54.9157 131.39 54.4535 130.913 54.4535 130.251V128.237H54.8405ZM57.373 131.339V129.103H57.7255V129.46H57.7341C57.8588 129.219 58.0974 129.064 58.4435 129.064C58.9337 129.064 59.2174 129.38 59.2174 129.888V131.339H58.8434V129.954C58.8434 129.593 58.6736 129.395 58.3296 129.395C57.977 129.395 57.747 129.645 57.747 130.023V131.339H57.373ZM59.626 131.339V129.103H60V131.339H59.626ZM59.813 128.705C59.684 128.705 59.5787 128.6 59.5787 128.471C59.5787 128.34 59.684 128.237 59.813 128.237C59.9441 128.237 60.0473 128.34 60.0473 128.471C60.0473 128.6 59.9441 128.705 59.813 128.705ZM60.5376 128.563H60.9116V129.103H61.3459V129.41H60.9116V130.739C60.9116 130.943 60.9976 131.036 61.1889 131.036C61.2319 131.036 61.3179 131.029 61.3437 131.025V131.339C61.2986 131.349 61.1954 131.356 61.1072 131.356C60.6966 131.356 60.5376 131.188 60.5376 130.758V129.41H60.2043V129.103H60.5376V128.563ZM62.4896 129.389C62.1392 129.389 61.8941 129.658 61.8705 130.029H63.0851C63.0765 129.655 62.8422 129.389 62.4896 129.389ZM63.0765 130.698H63.4441C63.3796 131.089 63.0012 131.377 62.5133 131.377C61.8726 131.377 61.4835 130.932 61.4835 130.229C61.4835 129.535 61.8791 129.064 62.4961 129.064C63.1001 129.064 63.472 129.503 63.472 130.18V130.322H61.8683V130.343C61.8683 130.771 62.1199 131.053 62.5219 131.053C62.8056 131.053 63.0141 130.909 63.0765 130.698ZM64.6093 131.377C64.0397 131.377 63.6527 130.922 63.6527 130.221C63.6527 129.52 64.0375 129.064 64.6007 129.064C64.921 129.064 65.179 129.221 65.3123 129.466H65.3209V128.237H65.695V131.339H65.3381V130.96H65.3316C65.1876 131.218 64.9318 131.377 64.6093 131.377ZM64.6803 129.393C64.2847 129.393 64.0354 129.716 64.0354 130.221C64.0354 130.728 64.2847 131.048 64.6803 131.048C65.0651 131.048 65.323 130.722 65.323 130.221C65.323 129.722 65.0651 129.393 64.6803 129.393ZM66.8345 130.507H67.2214C67.2666 130.84 67.5761 131.042 68.0211 131.042C68.4425 131.042 68.7478 130.821 68.7478 130.515C68.7478 130.255 68.5758 130.083 68.1458 129.989L67.8019 129.913C67.1806 129.778 66.9119 129.496 66.9119 129.056C66.9119 128.544 67.3633 128.185 68.0061 128.185C68.6252 128.185 69.0724 128.555 69.0896 129.081H68.7026C68.6682 128.742 68.3995 128.533 67.9953 128.533C67.6084 128.533 67.3096 128.722 67.3096 129.038C67.3096 129.283 67.4751 129.451 67.8986 129.544L68.2426 129.619C68.8896 129.761 69.1455 130.019 69.1455 130.457C69.1455 131.031 68.694 131.39 67.9996 131.39C67.3225 131.39 66.871 131.042 66.8345 130.507ZM69.5733 128.563H69.9474V129.103H70.3816V129.41H69.9474V130.739C69.9474 130.943 70.0334 131.036 70.2247 131.036C70.2677 131.036 70.3537 131.029 70.3795 131.025V131.339C70.3344 131.349 70.2312 131.356 70.143 131.356C69.7324 131.356 69.5733 131.188 69.5733 130.758V129.41H69.2401V129.103H69.5733V128.563ZM71.3878 131.059C71.7404 131.059 72.0112 130.812 72.0112 130.489V130.307L71.4136 130.343C71.1126 130.363 70.9407 130.496 70.9407 130.707C70.9407 130.919 71.1191 131.059 71.3878 131.059ZM71.304 131.377C70.859 131.377 70.5602 131.109 70.5602 130.707C70.5602 130.324 70.8547 130.083 71.3706 130.053L72.0112 130.017V129.83C72.0112 129.556 71.8307 129.393 71.5211 129.393C71.233 129.393 71.0524 129.529 71.0052 129.748H70.644C70.6698 129.361 71.0009 129.064 71.5297 129.064C72.0542 129.064 72.3853 129.348 72.3853 129.793V131.339H72.0306V130.954H72.022C71.8887 131.21 71.6049 131.377 71.304 131.377ZM72.8927 128.563H73.2668V129.103H73.701V129.41H73.2668V130.739C73.2668 130.943 73.3528 131.036 73.5441 131.036C73.5871 131.036 73.6731 131.029 73.6989 131.025V131.339C73.6537 131.349 73.5505 131.356 73.4624 131.356C73.0518 131.356 72.8927 131.188 72.8927 130.758V129.41H72.5595V129.103H72.8927V128.563ZM74.8448 129.389C74.4944 129.389 74.2493 129.658 74.2256 130.029H75.4402C75.4316 129.655 75.1973 129.389 74.8448 129.389ZM75.4316 130.698H75.7992C75.7348 131.089 75.3564 131.377 74.8684 131.377C74.2278 131.377 73.8387 130.932 73.8387 130.229C73.8387 129.535 74.2342 129.064 74.8512 129.064C75.4553 129.064 75.8272 129.503 75.8272 130.18V130.322H74.2235V130.343C74.2235 130.771 74.475 131.053 74.877 131.053C75.1608 131.053 75.3693 130.909 75.4316 130.698ZM76.0788 129.72C76.0788 129.337 76.4163 129.064 76.9 129.064C77.3901 129.064 77.7169 129.352 77.732 129.748H77.3751C77.3471 129.513 77.1752 129.369 76.9 129.369C76.627 129.369 76.4464 129.505 76.4464 129.701C76.4464 129.855 76.5603 129.961 76.8097 130.021L77.1644 130.107C77.6159 130.216 77.7792 130.393 77.7792 130.713C77.7792 131.102 77.4116 131.377 76.9129 131.377C76.3884 131.377 76.0616 131.113 76.0186 130.694H76.3927C76.4378 130.95 76.6098 131.072 76.9129 131.072C77.216 131.072 77.403 130.943 77.403 130.741C77.403 130.58 77.3149 130.487 77.0591 130.425L76.7044 130.339C76.283 130.238 76.0788 130.042 76.0788 129.72Z" fill="black"/>
<rect x="78.9094" y="117.517" width="32.1733" height="14.224" rx="7.112" fill="#3A87FD"/>
<path d="M95.7198 126.581L95.4575 125.788H94.316L94.0494 126.581H93.4883L94.589 123.479H95.2124L96.3152 126.581H95.7198ZM94.8706 124.07L94.445 125.349H95.3285L94.9072 124.07H94.8706ZM96.822 123.479H97.985C98.9072 123.479 99.4446 124.042 99.4446 125.016C99.4446 126.012 98.9137 126.581 97.985 126.581H96.822V123.479ZM97.3766 123.959V126.102H97.9119C98.5289 126.102 98.8793 125.717 98.8793 125.025C98.8793 124.348 98.5203 123.959 97.9119 123.959H97.3766ZM100.055 123.479H101.218C102.14 123.479 102.677 124.042 102.677 125.016C102.677 126.012 102.146 126.581 101.218 126.581H100.055V123.479ZM100.609 123.959V126.102H101.144C101.761 126.102 102.112 125.717 102.112 125.025C102.112 124.348 101.753 123.959 101.144 123.959H100.609Z" fill="white"/>
<rect x="87.7146" y="122.259" width="0.677333" height="4.74133" fill="white"/>
<rect x="85.6826" y="124.291" width="4.74133" height="0.677333" fill="white"/>
<path d="M8.46655 119.211C9.21471 119.211 9.82122 119.817 9.82122 120.565V128.693C9.82122 129.442 9.21471 130.048 8.46655 130.048V119.211Z" fill="#71D7EE"/>
<rect x="105.495" y="107.865" width="7.78933" height="7.78933" rx="3.89467" fill="#FF8700" stroke="#FF8700" stroke-width="0.338667"/>
<rect x="105.495" y="107.865" width="7.78933" height="7.78933" rx="3.89467" fill="#FF8700" stroke="#FF8700" stroke-width="0.338667"/>
<g clip-path="url(#clip3_206_871)">
<g clip-path="url(#clip4_206_871)">
<path d="M108.563 113.453C108.641 113.453 108.692 113.408 108.815 113.274L109.374 112.656C109.38 112.648 109.393 112.648 109.399 112.656L109.959 113.274C110.082 113.408 110.132 113.453 110.211 113.453C110.327 113.453 110.399 113.364 110.399 113.219L110.405 110.558C110.405 110.236 110.255 110.067 109.969 110.067H108.815C108.53 110.067 108.379 110.236 108.379 110.558L108.373 113.219C108.373 113.364 108.446 113.453 108.563 113.453Z" fill="white"/>
</g>
</g>
<rect x="7.78931" y="70.104" width="110.744" height="30.48" rx="8.128" fill="white"/>
<path d="M16.3141 79.7983H18.2555C19.2344 79.7983 19.9091 80.4498 19.9091 81.4321C19.9091 82.411 19.2113 83.0659 18.2059 83.0659H17.3129V84.5707H16.3141V79.7983ZM17.3129 80.5887V82.2853H17.9876C18.5598 82.2853 18.8938 81.9811 18.8938 81.4354C18.8938 80.893 18.5631 80.5887 17.9909 80.5887H17.3129ZM21.4207 83.9291C21.8407 83.9291 22.188 83.6546 22.188 83.2709V83.0129L21.4405 83.0592C21.0801 83.0857 20.875 83.2478 20.875 83.4991C20.875 83.7637 21.0933 83.9291 21.4207 83.9291ZM21.1032 84.6269C20.4285 84.6269 19.9159 84.1903 19.9159 83.552C19.9159 82.9071 20.412 82.5334 21.295 82.4805L22.188 82.4276V82.1927C22.188 81.862 21.9565 81.6702 21.5927 81.6702C21.2322 81.6702 21.004 81.8488 20.9577 82.1101H20.0746C20.111 81.4221 20.6964 80.9492 21.6357 80.9492C22.5452 80.9492 23.1372 81.4188 23.1372 82.1332V84.5707H22.2045V84.0283H22.1847C21.9862 84.4053 21.5464 84.6269 21.1032 84.6269ZM26.901 81.0253V84.5707H25.9684V83.9324H25.9485C25.7732 84.3789 25.4227 84.6368 24.8869 84.6368C24.1196 84.6368 23.6103 84.1374 23.6103 83.3106V81.0253H24.576V83.1089C24.576 83.5818 24.8108 83.8332 25.2374 83.8332C25.6674 83.8332 25.9353 83.5256 25.9353 83.0559V81.0253H26.901ZM27.4171 84.5707V79.7983H28.3828V84.5707H27.4171ZM34.4553 82.5665C34.4553 83.8662 33.6681 84.6534 32.3386 84.6534C30.9132 84.6534 30.04 83.7207 30.04 82.1696C30.04 80.6416 30.9132 79.7156 32.3155 79.7156C33.43 79.7156 34.2701 80.3737 34.4123 81.3395H33.4102C33.2646 80.8401 32.8578 80.5424 32.3188 80.5424C31.5316 80.5424 31.0587 81.141 31.0587 82.1564C31.0587 83.1915 31.5614 83.8232 32.3551 83.8232C33.0067 83.8232 33.4598 83.423 33.4796 82.831L33.4829 82.755H32.4444V82.0274H34.4553V82.5665ZM34.8986 84.5707V81.0253H35.8312V81.6636H35.8511C35.9768 81.2138 36.2777 80.969 36.6944 80.969C36.8069 80.969 36.9028 80.9856 36.9689 81.0054V81.8554C36.8896 81.8223 36.7573 81.7992 36.6184 81.7992C36.1421 81.7992 35.8643 82.0902 35.8643 82.5896V84.5707H34.8986ZM38.7021 81.6636C38.2788 81.6636 37.9745 81.9844 37.9414 82.4276H39.4462C39.4264 81.9745 39.132 81.6636 38.7021 81.6636ZM39.4595 83.4859H40.3458C40.24 84.1804 39.605 84.6467 38.7286 84.6467C37.6371 84.6467 36.9823 83.9489 36.9823 82.8145C36.9823 81.6834 37.6438 80.9492 38.6922 80.9492C39.724 80.9492 40.3756 81.647 40.3756 82.7252V83.0196H37.9315V83.0791C37.9315 83.5851 38.2523 83.9324 38.7451 83.9324C39.099 83.9324 39.3702 83.7571 39.4595 83.4859ZM42.3303 81.6636C41.907 81.6636 41.6027 81.9844 41.5697 82.4276H43.0745C43.0546 81.9745 42.7603 81.6636 42.3303 81.6636ZM43.0877 83.4859H43.9741C43.8682 84.1804 43.2332 84.6467 42.3568 84.6467C41.2654 84.6467 40.6105 83.9489 40.6105 82.8145C40.6105 81.6834 41.272 80.9492 42.3204 80.9492C43.3523 80.9492 44.0038 81.647 44.0038 82.7252V83.0196H41.5597V83.0791C41.5597 83.5851 41.8805 83.9324 42.3733 83.9324C42.7272 83.9324 42.9984 83.7571 43.0877 83.4859ZM44.3678 84.5707V81.0253H45.3004V81.657H45.3203C45.5088 81.2171 45.8825 80.9591 46.4282 80.9591C47.2153 80.9591 47.6585 81.4552 47.6585 82.2853V84.5707H46.6928V82.4871C46.6928 82.0241 46.4745 81.7595 46.0412 81.7595C45.608 81.7595 45.3335 82.077 45.3335 82.5367V84.5707H44.3678ZM49.772 83.8166C50.2549 83.8166 50.5624 83.433 50.5624 82.7914C50.5624 82.153 50.2549 81.7429 49.772 81.7429C49.2957 81.7429 48.9948 82.1464 48.9948 82.7914C48.9948 83.4396 49.2924 83.8166 49.772 83.8166ZM49.7555 85.9068C48.8228 85.9068 48.1911 85.4537 48.115 84.822H49.0609C49.137 85.0668 49.4148 85.2354 49.7819 85.2354C50.2813 85.2354 50.5591 84.9576 50.5591 84.5475V83.9258H50.5393C50.3739 84.3028 49.9572 84.5608 49.4446 84.5608C48.5781 84.5608 48.0059 83.8927 48.0059 82.7847C48.0059 81.6603 48.5615 80.969 49.4611 80.969C49.9704 80.969 50.3706 81.2369 50.5558 81.6437H50.5724V81.0253H51.5249V84.5211C51.5249 85.3677 50.8171 85.9068 49.7555 85.9068ZM53.3903 83.9291C53.8103 83.9291 54.1576 83.6546 54.1576 83.2709V83.0129L53.4102 83.0592C53.0497 83.0857 52.8446 83.2478 52.8446 83.4991C52.8446 83.7637 53.0629 83.9291 53.3903 83.9291ZM53.0728 84.6269C52.3981 84.6269 51.8855 84.1903 51.8855 83.552C51.8855 82.9071 52.3816 82.5334 53.2646 82.4805L54.1576 82.4276V82.1927C54.1576 81.862 53.9261 81.6702 53.5623 81.6702C53.2018 81.6702 52.9736 81.8488 52.9273 82.1101H52.0442C52.0806 81.4221 52.666 80.9492 53.6053 80.9492C54.5148 80.9492 55.1068 81.4188 55.1068 82.1332V84.5707H54.1741V84.0283H54.1543C53.9559 84.4053 53.516 84.6269 53.0728 84.6269ZM55.5964 84.5707V81.0253H56.5291V81.6636H56.5489C56.6746 81.2138 56.9755 80.969 57.3923 80.969C57.5047 80.969 57.6006 80.9856 57.6668 81.0054V81.8554C57.5874 81.8223 57.4551 81.7992 57.3162 81.7992C56.8399 81.7992 56.5621 82.0902 56.5621 82.5896V84.5707H55.5964ZM59.1254 84.6269C58.2391 84.6269 57.6801 83.9258 57.6801 82.7914C57.6801 81.6669 58.2424 80.969 59.132 80.969C59.6447 80.969 60.0415 81.2402 60.2135 81.6338H60.2334V79.7983H61.1991V84.5707H60.2466V83.9621H60.2301C60.0581 84.3524 59.648 84.6269 59.1254 84.6269ZM59.4528 81.7429C58.9667 81.7429 58.669 82.1497 58.669 82.798C58.669 83.4495 58.9667 83.8497 59.4528 83.8497C59.9324 83.8497 60.24 83.4462 60.24 82.798C60.24 82.153 59.9324 81.7429 59.4528 81.7429Z" fill="black"/>
<path d="M16.6009 92.0533H16.2182V88.9513H16.5944L18.2927 91.3869H18.312V88.9513H18.6947V92.0533H18.3185L16.6202 89.6263H16.6009V92.0533ZM20.047 90.1035C19.6966 90.1035 19.4515 90.3722 19.4278 90.7442H20.6425C20.6339 90.3701 20.3995 90.1035 20.047 90.1035ZM20.6339 91.4127H21.0015C20.937 91.804 20.5586 92.092 20.0706 92.092C19.43 92.092 19.0409 91.647 19.0409 90.9441C19.0409 90.2497 19.4364 89.7789 20.0534 89.7789C20.6575 89.7789 21.0294 90.2175 21.0294 90.8946V91.0365H19.4257V91.058C19.4257 91.4858 19.6772 91.7674 20.0792 91.7674C20.363 91.7674 20.5715 91.6234 20.6339 91.4127ZM23.1556 89.8176V92.0533H22.8009V91.69H22.7923C22.659 91.948 22.4268 92.092 22.0829 92.092C21.5949 92.092 21.309 91.776 21.309 91.2687V89.8176H21.683V91.202C21.683 91.5654 21.8528 91.761 22.1989 91.761C22.5623 91.761 22.7815 91.5116 22.7815 91.1311V89.8176H23.1556ZM23.5534 92.0533V89.8176H23.9059V90.1831H23.9145C23.9876 89.9359 24.194 89.7789 24.4563 89.7789C24.5208 89.7789 24.5766 89.7897 24.6067 89.794V90.1573C24.5766 90.1465 24.4971 90.1358 24.4068 90.1358C24.1166 90.1358 23.9274 90.3443 23.9274 90.6603V92.0533H23.5534ZM25.643 92.092C25.0239 92.092 24.6068 91.647 24.6068 90.9355C24.6068 90.2218 25.0239 89.7789 25.643 89.7789C26.26 89.7789 26.677 90.2218 26.677 90.9355C26.677 91.647 26.26 92.092 25.643 92.092ZM25.643 91.7631C26.0386 91.7631 26.2965 91.4622 26.2965 90.9355C26.2965 90.4088 26.0386 90.1078 25.643 90.1078C25.2475 90.1078 24.9873 90.4088 24.9873 90.9355C24.9873 91.4622 25.2475 91.7631 25.643 91.7631ZM26.9286 90.4346C26.9286 90.0519 27.2661 89.7789 27.7498 89.7789C28.24 89.7789 28.5667 90.067 28.5818 90.4625H28.2249C28.197 90.2282 28.025 90.0842 27.7498 90.0842C27.4768 90.0842 27.2962 90.2196 27.2962 90.4152C27.2962 90.57 27.4102 90.6754 27.6595 90.7356L28.0143 90.8215C28.4657 90.9312 28.6291 91.1075 28.6291 91.4278C28.6291 91.8169 28.2615 92.092 27.7627 92.092C27.2382 92.092 26.9114 91.8276 26.8684 91.4084H27.2425C27.2876 91.6642 27.4596 91.7868 27.7627 91.7868C28.0658 91.7868 28.2529 91.6578 28.2529 91.4557C28.2529 91.2945 28.1647 91.202 27.9089 91.1397L27.5542 91.0537C27.1329 90.9527 26.9286 90.7571 26.9286 90.4346ZM30.7875 90.5507H30.422C30.3683 90.3078 30.1791 90.1078 29.8502 90.1078C29.4633 90.1078 29.201 90.4281 29.201 90.9355C29.201 91.4557 29.4676 91.7631 29.8545 91.7631C30.1598 91.7631 30.3597 91.6019 30.4242 91.3332H30.7918C30.7338 91.7782 30.3597 92.092 29.8524 92.092C29.2332 92.092 28.8205 91.6556 28.8205 90.9355C28.8205 90.2304 29.2311 89.7789 29.8481 89.7789C30.407 89.7789 30.7402 90.1487 30.7875 90.5507ZM31.0671 92.0533V89.8176H31.4411V92.0533H31.0671ZM31.2541 89.4199C31.1251 89.4199 31.0198 89.3146 31.0198 89.1856C31.0198 89.0545 31.1251 88.9513 31.2541 88.9513C31.3852 88.9513 31.4884 89.0545 31.4884 89.1856C31.4884 89.3146 31.3852 89.4199 31.2541 89.4199ZM32.7547 90.1035C32.4043 90.1035 32.1592 90.3722 32.1356 90.7442H33.3502C33.3416 90.3701 33.1072 90.1035 32.7547 90.1035ZM33.3416 91.4127H33.7092C33.6447 91.804 33.2663 92.092 32.7783 92.092C32.1377 92.092 31.7486 91.647 31.7486 90.9441C31.7486 90.2497 32.1442 89.7789 32.7611 89.7789C33.3652 89.7789 33.7371 90.2175 33.7371 90.8946V91.0365H32.1334V91.058C32.1334 91.4858 32.3849 91.7674 32.7869 91.7674C33.0707 91.7674 33.2792 91.6234 33.3416 91.4127ZM34.0274 92.0533V89.8176H34.38V90.1745H34.3886C34.5133 89.9337 34.7519 89.7789 35.098 89.7789C35.5881 89.7789 35.8719 90.0949 35.8719 90.6023V92.0533H35.4978V90.6689C35.4978 90.3078 35.328 90.11 34.9841 90.11C34.6315 90.11 34.4015 90.3593 34.4015 90.7377V92.0533H34.0274ZM36.3815 89.278H36.7555V89.8176H37.1898V90.125H36.7555V91.4536C36.7555 91.6578 36.8415 91.7502 37.0328 91.7502C37.0758 91.7502 37.1618 91.7438 37.1876 91.7395V92.0533C37.1425 92.0641 37.0393 92.0705 36.9512 92.0705C36.5406 92.0705 36.3815 91.9029 36.3815 91.4729V90.125H36.0483V89.8176H36.3815V89.278ZM37.5209 92.0533V89.8176H37.895V92.0533H37.5209ZM37.7079 89.4199C37.579 89.4199 37.4736 89.3146 37.4736 89.1856C37.4736 89.0545 37.579 88.9513 37.7079 88.9513C37.8391 88.9513 37.9423 89.0545 37.9423 89.1856C37.9423 89.3146 37.8391 89.4199 37.7079 89.4199ZM38.2734 90.4346C38.2734 90.0519 38.6109 89.7789 39.0946 89.7789C39.5848 89.7789 39.9115 90.067 39.9266 90.4625H39.5697C39.5418 90.2282 39.3698 90.0842 39.0946 90.0842C38.8216 90.0842 38.641 90.2196 38.641 90.4152C38.641 90.57 38.755 90.6754 39.0043 90.7356L39.359 90.8215C39.8105 90.9312 39.9739 91.1075 39.9739 91.4278C39.9739 91.8169 39.6063 92.092 39.1075 92.092C38.583 92.092 38.2562 91.8276 38.2132 91.4084H38.5873C38.6324 91.6642 38.8044 91.7868 39.1075 91.7868C39.4106 91.7868 39.5977 91.6578 39.5977 91.4557C39.5977 91.2945 39.5095 91.202 39.2537 91.1397L38.899 91.0537C38.4776 90.9527 38.2734 90.7571 38.2734 90.4346ZM40.3953 89.278H40.7693V89.8176H41.2036V90.125H40.7693V91.4536C40.7693 91.6578 40.8553 91.7502 41.0467 91.7502C41.0897 91.7502 41.1756 91.7438 41.2014 91.7395V92.0533C41.1563 92.0641 41.0531 92.0705 40.965 92.0705C40.5544 92.0705 40.3953 91.9029 40.3953 91.4729V90.125H40.0621V89.8176H40.3953V89.278Z" fill="black"/>
<rect x="78.2319" y="78.2319" width="32.1733" height="14.224" rx="7.112" fill="#3A87FD"/>
<path d="M95.0425 87.296L94.7802 86.5028H93.6387L93.3722 87.296H92.8111L93.9118 84.1939H94.5352L95.638 87.296H95.0425ZM94.1934 84.7851L93.7677 86.0642H94.6513L94.2299 84.7851H94.1934ZM96.1447 84.1939H97.3077C98.23 84.1939 98.7674 84.7572 98.7674 85.731C98.7674 86.7263 98.2364 87.296 97.3077 87.296H96.1447V84.1939ZM96.6993 84.6733V86.8166H97.2346C97.8516 86.8166 98.202 86.4318 98.202 85.7396C98.202 85.0624 97.843 84.6733 97.2346 84.6733H96.6993ZM99.3773 84.1939H100.54C101.463 84.1939 102 84.7572 102 85.731C102 86.7263 101.469 87.296 100.54 87.296H99.3773V84.1939ZM99.9319 84.6733V86.8166H100.467C101.084 86.8166 101.435 86.4318 101.435 85.7396C101.435 85.0624 101.076 84.6733 100.467 84.6733H99.9319Z" fill="white"/>
<rect x="87.0374" y="82.9733" width="0.677333" height="4.74133" fill="white"/>
<rect x="85.0054" y="85.0054" width="4.74133" height="0.677333" fill="white"/>
<path d="M7.78931 79.9253C8.53747 79.9253 9.14397 80.5318 9.14397 81.28V89.408C9.14397 90.1561 8.53747 90.7626 7.78931 90.7626V79.9253Z" fill="#71D7EE"/>
<rect x="104.817" y="68.58" width="7.78933" height="7.78933" rx="3.89467" fill="#FF8700" stroke="#FF8700" stroke-width="0.338667"/>
<rect x="104.817" y="68.58" width="7.78933" height="7.78933" rx="3.89467" fill="#FF8700" stroke="#FF8700" stroke-width="0.338667"/>
<g clip-path="url(#clip5_206_871)">
<g clip-path="url(#clip6_206_871)">
<path d="M107.886 74.168C107.964 74.168 108.015 74.1228 108.138 73.9885L108.697 73.3707C108.703 73.3626 108.716 73.3626 108.721 73.3707L109.282 73.9885C109.405 74.1228 109.454 74.168 109.534 74.168C109.65 74.168 109.722 74.0791 109.722 73.9335L109.728 71.273C109.728 70.9512 109.577 70.7814 109.292 70.7814H108.138C107.852 70.7814 107.702 70.9512 107.702 71.273L107.696 73.9335C107.696 74.0791 107.768 74.168 107.886 74.168Z" fill="white"/>
</g>
</g>
</g>
<defs>
<clipPath id="clip0_206_871">
<rect width="127" height="274.997" rx="10" fill="white"/>
</clipPath>
<clipPath id="clip1_206_871">
<rect width="127" height="14.9013" fill="white"/>
</clipPath>
<clipPath id="clip2_206_871">
<rect width="127" height="14.9013" fill="white"/>
</clipPath>
<clipPath id="clip3_206_871">
<rect width="5.41867" height="5.41867" fill="white" transform="translate(106.68 109.051)"/>
</clipPath>
<clipPath id="clip4_206_871">
<rect width="9.48267" height="9.48267" fill="white" transform="translate(106.68 109.051)"/>
</clipPath>
<clipPath id="clip5_206_871">
<rect width="5.41867" height="5.41867" fill="white" transform="translate(106.003 69.7654)"/>
</clipPath>
<clipPath id="clip6_206_871">
<rect width="9.48267" height="9.48267" fill="white" transform="translate(106.003 69.7654)"/>
</clipPath>
</defs>
</svg>
