<svg width="60" height="60" viewBox="0 0 60 60" fill="none" xmlns="http://www.w3.org/2000/svg">
<rect width="60" height="60" rx="8" fill="#3B85FE" fill-opacity="0.1"/>
<mask id="mask0_1_2567" style="mask-type:luminance" maskUnits="userSpaceOnUse" x="22" y="22" width="17" height="17">
<path d="M22.5 22.5H39V39H22.5V22.5Z" fill="white"/>
</mask>
<g mask="url(#mask0_1_2567)">
<path d="M30.2322 31.2678L38.5166 22.9834" stroke="#3B85FE" stroke-width="0.966797" stroke-miterlimit="10" stroke-linecap="round" stroke-linejoin="round"/>
<path d="M30.2322 31.2678C30.2322 31.2678 25.5788 29.9382 23.7288 29.4097C23.2876 29.2836 22.9834 28.8803 22.9834 28.4214V28.4211C22.9834 27.9595 23.2862 27.5525 23.7284 27.4199C26.8248 26.4909 38.5166 22.9834 38.5166 22.9834C38.5166 22.9834 35.0091 34.6752 34.0801 37.7716C33.9475 38.2138 33.5405 38.5166 33.0789 38.5166H33.0786C32.6197 38.5166 32.2164 38.2124 32.0903 37.7712C31.5618 35.9212 30.2322 31.2678 30.2322 31.2678Z" stroke="#3B85FE" stroke-width="0.966797" stroke-miterlimit="10" stroke-linecap="round" stroke-linejoin="round"/>
</g>
<path d="M43.5264 37.5938C43.4398 37.5937 43.3541 37.6108 43.2741 37.6439C43.1941 37.677 43.1215 37.7256 43.0602 37.7868C42.999 37.848 42.9505 37.9207 42.9174 38.0007C42.8842 38.0806 42.8672 38.1664 42.8672 38.2529V42.8672H38.2529C38.0781 42.8672 37.9104 42.9366 37.7868 43.0603C37.6632 43.1839 37.5938 43.3515 37.5938 43.5264C37.5938 43.7012 37.6632 43.8689 37.7868 43.9925C37.9104 44.1161 38.0781 44.1855 38.2529 44.1855H43.5264C43.6129 44.1856 43.6987 44.1685 43.7786 44.1354C43.8586 44.1023 43.9313 44.0537 43.9925 43.9925C44.0537 43.9313 44.1023 43.8586 44.1354 43.7786C44.1685 43.6987 44.1856 43.6129 44.1855 43.5264V38.2529C44.1856 38.1664 44.1685 38.0806 44.1354 38.0007C44.1023 37.9207 44.0537 37.848 43.9925 37.7868C43.9313 37.7256 43.8586 37.677 43.7786 37.6439C43.6987 37.6108 43.6129 37.5937 43.5264 37.5938Z" fill="#3B85FE"/>
<path d="M22.4326 42.8672H17.8184V38.2529C17.8184 38.0781 17.7489 37.9104 17.6253 37.7868C17.5017 37.6632 17.334 37.5938 17.1592 37.5938C16.9844 37.5938 16.8167 37.6632 16.6931 37.7868C16.5694 37.9104 16.5 38.0781 16.5 38.2529V43.5264C16.5 43.6129 16.517 43.6987 16.5502 43.7786C16.5833 43.8586 16.6318 43.9313 16.6931 43.9925C16.7543 44.0537 16.8269 44.1023 16.9069 44.1354C16.9869 44.1685 17.0726 44.1856 17.1592 44.1855H22.4326C22.6074 44.1855 22.7751 44.1161 22.8987 43.9925C23.0223 43.8689 23.0918 43.7012 23.0918 43.5264C23.0918 43.3515 23.0223 43.1839 22.8987 43.0603C22.7751 42.9366 22.6074 42.8672 22.4326 42.8672Z" fill="#3B85FE"/>
<path d="M43.5264 16.5H38.2529C38.0781 16.5 37.9104 16.5694 37.7868 16.6931C37.6632 16.8167 37.5938 16.9844 37.5938 17.1592C37.5938 17.334 37.6632 17.5017 37.7868 17.6253C37.9104 17.7489 38.0781 17.8184 38.2529 17.8184H42.8672V22.4326C42.8672 22.6074 42.9366 22.7751 43.0603 22.8987C43.1839 23.0223 43.3515 23.0918 43.5264 23.0918C43.7012 23.0918 43.8689 23.0223 43.9925 22.8987C44.1161 22.7751 44.1855 22.6074 44.1855 22.4326V17.1592C44.1856 17.0726 44.1685 16.9869 44.1354 16.9069C44.1023 16.8269 44.0537 16.7543 43.9925 16.6931C43.9313 16.6318 43.8586 16.5833 43.7786 16.5502C43.6987 16.517 43.6129 16.5 43.5264 16.5Z" fill="#3B85FE"/>
<path d="M22.4326 16.5H17.1592C17.0726 16.5 16.9869 16.517 16.9069 16.5502C16.8269 16.5833 16.7543 16.6318 16.6931 16.6931C16.6318 16.7543 16.5833 16.8269 16.5502 16.9069C16.517 16.9869 16.5 17.0726 16.5 17.1592V22.4326C16.5 22.6074 16.5694 22.7751 16.6931 22.8987C16.8167 23.0223 16.9844 23.0918 17.1592 23.0918C17.334 23.0918 17.5017 23.0223 17.6253 22.8987C17.7489 22.7751 17.8184 22.6074 17.8184 22.4326V17.8184H22.4326C22.6074 17.8184 22.7751 17.7489 22.8987 17.6253C23.0223 17.5017 23.0918 17.334 23.0918 17.1592C23.0918 16.9844 23.0223 16.8167 22.8987 16.6931C22.7751 16.5694 22.6074 16.5 22.4326 16.5Z" fill="#3B85FE"/>
</svg>
