<svg width="60" height="60" viewBox="0 0 60 60" fill="none" xmlns="http://www.w3.org/2000/svg">
<rect width="60" height="60" rx="8" fill="#3B85FE" fill-opacity="0.1"/>
<path d="M43.1836 37.251C43.097 37.251 43.0113 37.268 42.9313 37.3011C42.8513 37.3343 42.7787 37.3828 42.7175 37.444C42.6563 37.5052 42.6077 37.5779 42.5746 37.6579C42.5415 37.7379 42.5244 37.8236 42.5244 37.9102V42.5244H37.9102C37.7353 42.5244 37.5677 42.5939 37.444 42.7175C37.3204 42.8411 37.251 43.0088 37.251 43.1836C37.251 43.3584 37.3204 43.5261 37.444 43.6497C37.5677 43.7733 37.7353 43.8428 37.9102 43.8428H43.1836C43.2702 43.8428 43.3559 43.8257 43.4359 43.7926C43.5158 43.7595 43.5885 43.7109 43.6497 43.6497C43.7109 43.5885 43.7595 43.5158 43.7926 43.4359C43.8257 43.3559 43.8428 43.2702 43.8428 43.1836V37.9102C43.8428 37.8236 43.8257 37.7379 43.7926 37.6579C43.7595 37.5779 43.7109 37.5052 43.6497 37.444C43.5885 37.3828 43.5158 37.3343 43.4359 37.3011C43.3559 37.268 43.2702 37.251 43.1836 37.251Z" fill="#3B85FE"/>
<path d="M22.0898 42.5244H17.4756V37.9102C17.4756 37.7353 17.4061 37.5677 17.2825 37.444C17.1589 37.3204 16.9912 37.251 16.8164 37.251C16.6416 37.251 16.4739 37.3204 16.3503 37.444C16.2267 37.5677 16.1572 37.7353 16.1572 37.9102V43.1836C16.1572 43.2702 16.1743 43.3559 16.2074 43.4359C16.2405 43.5158 16.2891 43.5885 16.3503 43.6497C16.4115 43.7109 16.4842 43.7595 16.5641 43.7926C16.6441 43.8257 16.7298 43.8428 16.8164 43.8428H22.0898C22.2647 43.8428 22.4323 43.7733 22.556 43.6497C22.6796 43.5261 22.749 43.3584 22.749 43.1836C22.749 43.0088 22.6796 42.8411 22.556 42.7175C22.4323 42.5939 22.2647 42.5244 22.0898 42.5244Z" fill="#3B85FE"/>
<path d="M43.1836 16.1572H37.9102C37.7353 16.1572 37.5677 16.2267 37.444 16.3503C37.3204 16.4739 37.251 16.6416 37.251 16.8164C37.251 16.9912 37.3204 17.1589 37.444 17.2825C37.5677 17.4061 37.7353 17.4756 37.9102 17.4756H42.5244V22.0898C42.5244 22.2647 42.5939 22.4323 42.7175 22.556C42.8411 22.6796 43.0088 22.749 43.1836 22.749C43.3584 22.749 43.5261 22.6796 43.6497 22.556C43.7733 22.4323 43.8428 22.2647 43.8428 22.0898V16.8164C43.8428 16.7298 43.8257 16.6441 43.7926 16.5641C43.7595 16.4842 43.7109 16.4115 43.6497 16.3503C43.5885 16.2891 43.5158 16.2405 43.4359 16.2074C43.3559 16.1743 43.2702 16.1572 43.1836 16.1572Z" fill="#3B85FE"/>
<path d="M22.0898 16.1572H16.8164C16.7298 16.1572 16.6441 16.1743 16.5641 16.2074C16.4842 16.2405 16.4115 16.2891 16.3503 16.3503C16.2891 16.4115 16.2405 16.4842 16.2074 16.5641C16.1743 16.6441 16.1572 16.7298 16.1572 16.8164V22.0898C16.1572 22.2647 16.2267 22.4323 16.3503 22.556C16.4739 22.6796 16.6416 22.749 16.8164 22.749C16.9912 22.749 17.1589 22.6796 17.2825 22.556C17.4061 22.4323 17.4756 22.2647 17.4756 22.0898V17.4756H22.0898C22.2647 17.4756 22.4323 17.4061 22.556 17.2825C22.6796 17.1589 22.749 16.9912 22.749 16.8164C22.749 16.6416 22.6796 16.4739 22.556 16.3503C22.4323 16.2267 22.2647 16.1572 22.0898 16.1572Z" fill="#3B85FE"/>
<path d="M30.6592 28.4711C30.6592 28.2962 30.5898 28.1286 30.4661 28.005C30.3425 27.8813 30.1748 27.8119 30 27.8119C29.8252 27.8119 29.6575 27.8813 29.5339 28.005C29.4103 28.1286 29.3408 28.2962 29.3408 28.4711V30.6819C29.3432 31.5494 29.1734 32.4088 28.8414 33.2103C28.5094 34.0118 28.0217 34.7395 27.4066 35.3512L26.2061 36.5522C26.1448 36.6134 26.0962 36.686 26.063 36.766C26.0298 36.846 26.0127 36.9318 26.0127 37.0184C26.0127 37.105 26.0297 37.1907 26.0628 37.2707C26.0959 37.3508 26.1445 37.4235 26.2057 37.4847C26.267 37.5459 26.3397 37.5945 26.4197 37.6276C26.4997 37.6608 26.5855 37.6778 26.6721 37.6778C26.7587 37.6777 26.8444 37.6606 26.9244 37.6274C27.0044 37.5942 27.0771 37.5456 27.1383 37.4843L28.3387 36.2834C29.0767 35.5495 29.6618 34.6766 30.0601 33.7151C30.4584 32.7536 30.662 31.7226 30.6592 30.6819V28.4711Z" fill="#3B85FE"/>
<path d="M33.8231 28.4711C33.8231 28.2962 33.7537 28.1286 33.6301 28.005C33.5064 27.8813 33.3388 27.8119 33.1639 27.8119C32.9891 27.8119 32.8215 27.8813 32.6978 28.005C32.5742 28.1286 32.5048 28.2962 32.5048 28.4711V30.6819C32.5107 33.2304 31.5144 35.6792 29.7311 37.4998C29.6698 37.5616 29.6214 37.6349 29.5886 37.7154C29.5558 37.796 29.5393 37.8823 29.5401 37.9693C29.5408 38.0563 29.5587 38.1423 29.5928 38.2223C29.6269 38.3023 29.6765 38.3748 29.7388 38.4356C29.8011 38.4963 29.8747 38.5442 29.9556 38.5763C30.0364 38.6085 30.1228 38.6243 30.2098 38.6229C30.2968 38.6215 30.3826 38.6029 30.4624 38.5682C30.5421 38.5335 30.6142 38.4833 30.6745 38.4206C32.6989 36.3541 33.8298 33.5747 33.8231 30.6819V28.4711Z" fill="#3B85FE"/>
<path d="M26.1768 29.6288C26.1768 29.8036 26.2462 29.9712 26.3698 30.0949C26.4934 30.2185 26.6611 30.2879 26.8359 30.2879C27.0108 30.2879 27.1784 30.2185 27.302 30.0949C27.4257 29.9712 27.4951 29.8036 27.4951 29.6288V28.4711C27.4959 27.807 27.76 27.1703 28.2296 26.7007C28.6992 26.2311 29.3359 25.9669 30 25.9662C30.4057 25.9647 30.8056 26.0631 31.1644 26.2525C31.241 26.2928 31.3248 26.3176 31.411 26.3256C31.4972 26.3335 31.5842 26.3243 31.6669 26.2987C31.7495 26.273 31.8264 26.2313 31.8929 26.1759C31.9595 26.1205 32.0145 26.0526 32.0548 25.976C32.0951 25.8993 32.1199 25.8155 32.1278 25.7293C32.1357 25.6431 32.1266 25.5562 32.1009 25.4735C32.0752 25.3908 32.0335 25.314 31.9782 25.2474C31.9228 25.1809 31.8549 25.1259 31.7782 25.0856C31.1954 24.7798 30.5436 24.6297 29.8858 24.6496C29.2279 24.6695 28.5864 24.8588 28.0231 25.1992C27.4599 25.5397 26.994 26.0197 26.6705 26.5928C26.3471 27.166 26.177 27.8129 26.1768 28.4711V29.6288Z" fill="#3B85FE"/>
<path d="M26.7987 33.163C26.8447 33.0892 26.8756 33.007 26.8898 32.9212C26.9039 32.8354 26.9009 32.7476 26.881 32.663C26.861 32.5783 26.8245 32.4985 26.7736 32.428C26.7227 32.3575 26.6583 32.2978 26.5842 32.2523C26.5101 32.2068 26.4277 32.1764 26.3418 32.1628C26.2559 32.1493 26.1682 32.1529 26.0837 32.1734C25.9992 32.1939 25.9196 32.2309 25.8494 32.2823C25.7793 32.3337 25.72 32.3985 25.675 32.4729C25.5319 32.7056 25.362 32.9208 25.1688 33.114L24.0157 34.2671C23.9544 34.3283 23.9058 34.4009 23.8726 34.4809C23.8394 34.5609 23.8223 34.6467 23.8223 34.7333C23.8222 34.8199 23.8393 34.9056 23.8724 34.9856C23.9055 35.0657 23.9541 35.1384 24.0153 35.1996C24.0766 35.2608 24.1493 35.3094 24.2293 35.3425C24.3093 35.3757 24.395 35.3927 24.4816 35.3927C24.5683 35.3926 24.654 35.3755 24.734 35.3423C24.814 35.3091 24.8866 35.2605 24.9478 35.1992L26.1009 34.0462C26.3672 33.78 26.6014 33.4836 26.7987 33.163Z" fill="#3B85FE"/>
<path d="M36.3283 30.976C36.2417 30.9759 36.156 30.993 36.076 31.0261C35.996 31.0592 35.9234 31.1078 35.8621 31.169C35.8009 31.2302 35.7524 31.3029 35.7193 31.3829C35.6861 31.4628 35.6691 31.5486 35.6691 31.6351C35.6689 32.4394 35.4976 33.2344 35.1667 33.9674C34.8358 34.7005 34.3528 35.3547 33.7497 35.8868C33.6191 36.0027 33.5398 36.1656 33.5291 36.3398C33.5184 36.5141 33.5772 36.6854 33.6928 36.8164C33.8083 36.9473 33.971 37.027 34.1452 37.0381C34.3194 37.0492 34.4909 36.9908 34.6221 36.8756C35.3653 36.2197 35.9605 35.4132 36.3683 34.5097C36.7761 33.6062 36.9872 32.6264 36.9875 31.6351C36.9875 31.5486 36.9704 31.4628 36.9373 31.3829C36.9042 31.3029 36.8556 31.2302 36.7944 31.169C36.7332 31.1078 36.6605 31.0592 36.5805 31.0261C36.5006 30.993 36.4148 30.9759 36.3283 30.976Z" fill="#3B85FE"/>
<path d="M30.0001 21.4838C29.3797 21.4832 28.7619 21.5653 28.1632 21.7279C28.0794 21.7504 28.001 21.7892 27.9323 21.8421C27.8636 21.895 27.806 21.961 27.7628 22.0362C27.7196 22.1114 27.6917 22.1944 27.6807 22.2804C27.6696 22.3664 27.6756 22.4537 27.6984 22.5374C27.7212 22.6211 27.7602 22.6994 27.8133 22.768C27.8664 22.8365 27.9325 22.8939 28.0078 22.9369C28.0832 22.9799 28.1662 23.0075 28.2523 23.0183C28.3383 23.0292 28.4256 23.0229 28.5092 22.9999C29.3502 22.7719 30.2325 22.7406 31.0875 22.9084C31.9426 23.0763 32.7475 23.4388 33.4398 23.9679C34.1322 24.497 34.6934 25.1784 35.08 25.9593C35.4666 26.7402 35.6682 27.5997 35.6691 28.4711C35.6691 28.6459 35.7385 28.8136 35.8621 28.9372C35.9857 29.0608 36.1534 29.1303 36.3282 29.1303C36.5031 29.1303 36.6707 29.0608 36.7943 28.9372C36.918 28.8136 36.9874 28.6459 36.9874 28.4711C36.9852 26.6186 36.2484 24.8426 34.9385 23.5327C33.6286 22.2228 31.8526 21.4859 30.0001 21.4838Z" fill="#3B85FE"/>
<path d="M24.3311 31.635V28.471C24.332 27.6883 24.4946 26.9143 24.8085 26.1974C25.1225 25.4805 25.5811 24.8362 26.1557 24.3047C26.2196 24.2461 26.2713 24.1754 26.3078 24.0968C26.3444 24.0181 26.365 23.9331 26.3687 23.8464C26.3723 23.7598 26.3587 23.6732 26.3289 23.5918C26.299 23.5104 26.2533 23.4357 26.1945 23.3719C26.1357 23.3082 26.0649 23.2567 25.9862 23.2203C25.9075 23.184 25.8223 23.1636 25.7357 23.1602C25.649 23.1568 25.5625 23.1705 25.4812 23.2006C25.3998 23.2307 25.3252 23.2766 25.2617 23.3355C24.5536 23.9907 23.9884 24.785 23.6014 25.6686C23.2145 26.5523 23.014 27.5063 23.0127 28.471V31.635C23.0127 31.8098 23.0821 31.9775 23.2058 32.1011C23.3294 32.2248 23.497 32.2942 23.6719 32.2942C23.8467 32.2942 24.0144 32.2248 24.138 32.1011C24.2616 31.9775 24.3311 31.8098 24.3311 31.635Z" fill="#3B85FE"/>
</svg>
