<svg width="60" height="60" viewBox="0 0 60 60" fill="none" xmlns="http://www.w3.org/2000/svg">
<rect width="60" height="60" rx="8" fill="#3B85FE" fill-opacity="0.1"/>
<path d="M30.27 34.7575C30.0223 34.7575 29.8213 34.5565 29.8213 34.3088V19.9488C29.8213 19.701 30.0223 19.5 30.27 19.5C30.5177 19.5 30.7188 19.701 30.7188 19.9488V34.3088C30.7188 34.5565 30.5177 34.7575 30.27 34.7575Z" fill="#3B85FE"/>
<path d="M30.2699 34.7573C30.1551 34.7573 30.0402 34.7134 29.9522 34.6263L26.3622 31.0363C26.1872 30.8613 26.1872 30.5768 26.3622 30.4018C26.5372 30.2268 26.8217 30.2268 26.9967 30.4018L30.2699 33.6741L33.5422 30.4018C33.7172 30.2268 34.0017 30.2268 34.1768 30.4018C34.3518 30.5768 34.3518 30.8613 34.1768 31.0363L30.5867 34.6263C30.4997 34.7134 30.3848 34.7573 30.2699 34.7573Z" fill="#3B85FE"/>
<path d="M38.7962 41.0399H21.7437C20.5061 41.0399 19.5 40.0329 19.5 38.7961V34.3086C19.5 34.0609 19.701 33.8599 19.9487 33.8599C20.1965 33.8599 20.3975 34.0609 20.3975 34.3086V38.7961C20.3975 39.5383 21.0015 40.1424 21.7437 40.1424H38.7962C39.5385 40.1424 40.1425 39.5383 40.1425 38.7961V34.3086C40.1425 34.0609 40.3435 33.8599 40.5912 33.8599C40.839 33.8599 41.04 34.0609 41.04 34.3086V38.7961C41.04 40.0329 40.0339 41.0399 38.7962 41.0399Z" fill="#3B85FE"/>
</svg>
