<svg width="60" height="60" viewBox="0 0 60 60" fill="none" xmlns="http://www.w3.org/2000/svg">
<rect width="60" height="60" rx="8" fill="#3B85FE" fill-opacity="0.1"/>
<path d="M29.6133 41.1263H29.6353C29.7049 41.1258 29.7727 41.1039 29.8293 41.0635C29.886 41.023 29.9289 40.9661 29.952 40.9004C29.9751 40.8348 29.9774 40.7636 29.9585 40.6965C29.9397 40.6295 29.9006 40.5699 29.8467 40.5259C29.8372 40.4625 29.81 40.4031 29.768 40.3546C29.7261 40.3061 29.6713 40.2705 29.6099 40.2519C27.944 39.7564 26.6231 38.2901 25.7843 36.1743C27.1512 35.8076 28.5584 35.6116 29.9735 35.5908V36.0745C29.9735 36.1642 30.0092 36.2503 30.0726 36.3137C30.136 36.3771 30.2221 36.4128 30.3118 36.4128C30.4015 36.4128 30.4875 36.3771 30.551 36.3137C30.6144 36.2503 30.65 36.1642 30.65 36.0745V35.5891C30.8428 35.5891 31.0356 35.5976 31.2267 35.6077C31.2712 35.61 31.3156 35.6034 31.3575 35.5885C31.3994 35.5735 31.4379 35.5505 31.4709 35.5206C31.5039 35.4908 31.5306 35.4547 31.5497 35.4146C31.5687 35.3744 31.5797 35.3308 31.5819 35.2864C31.5841 35.242 31.5776 35.1976 31.5626 35.1557C31.5477 35.1138 31.5246 35.0752 31.4948 35.0423C31.465 35.0093 31.4289 34.9825 31.3887 34.9635C31.3485 34.9444 31.305 34.9335 31.2606 34.9312C31.0593 34.9211 30.8547 34.916 30.6517 34.9126V30.6625H36.1754C36.2651 30.6625 36.3511 30.6268 36.4146 30.5634C36.478 30.5 36.5136 30.4139 36.5136 30.3242C36.5233 28.4805 36.2378 26.6471 35.668 24.8936C36.5127 24.6252 37.3254 24.2651 38.0916 23.8196C39.4875 25.4813 40.3102 27.5489 40.4374 29.7154C40.4428 29.8051 40.4836 29.889 40.5508 29.9486C40.618 30.0082 40.7062 30.0387 40.7959 30.0333C40.8856 30.028 40.9695 29.9872 41.0292 29.9199C41.0888 29.8527 41.1193 29.7645 41.1139 29.6748C40.9753 27.2636 40.03 24.969 38.4298 23.16L38.4112 23.1397C37.3983 21.997 36.1547 21.0818 34.7625 20.4544C33.3702 19.827 31.8608 19.5018 30.3337 19.5C28.8066 19.4982 27.2965 19.82 25.9028 20.4442C24.5091 21.0683 23.2634 21.9807 22.2478 23.1211C22.2194 23.1441 22.1948 23.1715 22.1751 23.2023V23.2125C20.8465 24.7313 19.9692 26.5916 19.6426 28.583C19.316 30.5743 19.553 32.6174 20.3269 34.4811C21.1007 36.3448 22.3805 37.9548 24.0216 39.1291C25.6627 40.3035 27.5996 40.9953 29.6133 41.1263ZM27.944 40.1928C26.0396 39.7364 24.3083 38.7377 22.9598 37.3176C23.6503 36.9269 24.3791 36.6084 25.1348 36.3671C25.8046 38.0567 26.7601 39.3776 27.944 40.1928ZM20.1642 30.6625H24.115C24.1231 32.3842 24.3916 34.0949 24.9116 35.7363C24.0745 36.0047 23.2691 36.3636 22.51 36.8068C21.0653 35.0773 20.2397 32.9147 20.1642 30.6625ZM22.532 23.8213C23.2966 24.2658 24.1076 24.6254 24.9505 24.8936C24.4168 26.5392 24.1351 28.2561 24.115 29.986H20.1726C20.2464 27.7248 21.0772 25.5539 22.532 23.8213ZM30.65 20.1969C32.365 20.3881 33.8634 22.0218 34.8105 24.4437C33.4526 24.8056 32.0552 24.9993 30.65 25.0204V20.1969ZM29.9735 25.0204C28.5684 24.9998 27.1711 24.8067 25.813 24.4454C26.7601 22.0218 28.2586 20.3881 29.9735 20.1969V25.0204ZM29.9735 25.6969V29.986H24.7915C24.8078 28.3212 25.0723 26.6681 25.5762 25.0813C27.0106 25.4691 28.4878 25.6759 29.9735 25.6969ZM29.9735 34.9143C28.4795 34.936 26.9942 35.1457 25.5526 35.5384C25.0553 33.9606 24.7987 32.3168 24.7915 30.6625H29.9735V34.9143ZM35.8321 29.986H30.65V25.6969C32.1357 25.6759 33.613 25.4691 35.0473 25.0813C35.5513 26.6681 35.8158 28.3212 35.8321 29.986ZM37.6383 23.3072C36.9402 23.6989 36.2034 24.0174 35.4397 24.2577C34.8207 22.6527 33.9564 21.3605 32.9417 20.525C34.7317 21.0067 36.3558 21.9688 37.6383 23.3072ZM27.6835 20.5234C26.6688 21.3555 25.8046 22.6527 25.1805 24.256C24.4204 24.0161 23.6871 23.6988 22.992 23.3089C24.2722 21.9695 25.8947 21.0061 27.6835 20.5234Z" fill="#3B85FE"/>
<path d="M33.0178 38.1043C33.0492 38.1358 33.0865 38.1607 33.1276 38.1778C33.1686 38.1948 33.2127 38.2035 33.2571 38.2035C33.3016 38.2035 33.3456 38.1948 33.3866 38.1778C33.4277 38.1607 33.465 38.1358 33.4964 38.1043L38.0916 33.5075C38.147 33.4428 38.176 33.3595 38.1727 33.2744C38.1694 33.1893 38.1341 33.1085 38.0739 33.0483C38.0136 32.9881 37.9329 32.9528 37.8477 32.9495C37.7626 32.9462 37.6794 32.9751 37.6147 33.0306L33.0178 37.6274C32.9548 37.6908 32.9194 37.7765 32.9194 37.8659C32.9194 37.9552 32.9548 38.041 33.0178 38.1043Z" fill="#3B85FE"/>
<path d="M40.4594 30.6625C40.0202 30.2255 39.4258 29.9802 38.8062 29.9802C38.1866 29.9802 37.5923 30.2255 37.153 30.6625L35.5548 32.2641C35.318 32.5015 35.1351 32.787 35.0184 33.1013C34.9017 33.4156 34.8539 33.7512 34.8783 34.0856C34.8809 34.13 34.8923 34.1735 34.9118 34.2135C34.9312 34.2535 34.9584 34.2893 34.9917 34.3188C35.025 34.3484 35.0638 34.371 35.1058 34.3856C35.1479 34.4001 35.1924 34.4062 35.2368 34.4036C35.2812 34.4009 35.3247 34.3895 35.3647 34.3701C35.4047 34.3506 35.4405 34.3234 35.47 34.2901C35.4996 34.2568 35.5222 34.2181 35.5368 34.176C35.5513 34.1339 35.5574 34.0894 35.5548 34.045C35.5354 33.8067 35.5677 33.5669 35.6494 33.3422C35.7311 33.1174 35.8604 32.913 36.0283 32.7427L37.6249 31.1462C37.9383 30.8425 38.3585 30.6742 38.7949 30.6776C39.2313 30.6811 39.6488 30.856 39.9574 31.1645C40.266 31.4731 40.4408 31.8907 40.4443 32.327C40.4477 32.7634 40.2794 33.1837 39.9757 33.497L38.3792 35.0936C38.2052 35.2667 37.9949 35.3989 37.7635 35.4808C37.5322 35.5627 37.2855 35.5922 37.0414 35.5672C36.9517 35.5586 36.8622 35.5861 36.7928 35.6435C36.7233 35.7009 36.6795 35.7836 36.671 35.8733C36.6625 35.963 36.6899 36.0524 36.7473 36.1219C36.8048 36.1913 36.8874 36.2351 36.9771 36.2437C37.0538 36.2516 37.1305 36.2555 37.2071 36.2555C37.5132 36.2568 37.8166 36.1978 38.0999 36.0817C38.3831 35.9656 38.6407 35.7948 38.8578 35.579L40.4594 33.9757C40.8985 33.5361 41.1451 32.9403 41.1451 32.3191C41.1451 31.6978 40.8985 31.102 40.4594 30.6625Z" fill="#3B85FE"/>
<path d="M33.9903 34.8821C33.6696 34.8697 33.3498 34.9233 33.0507 35.0397C32.7516 35.1561 32.4796 35.3327 32.2517 35.5586L30.6501 37.1586C30.2107 37.5979 29.9639 38.1938 29.9639 38.8152C29.9639 39.4365 30.2107 40.0324 30.6501 40.4718C31.0894 40.9111 31.6853 41.1579 32.3066 41.1579C32.928 41.1579 33.5239 40.9111 33.9632 40.4718L35.5547 38.8684C35.7857 38.6357 35.9653 38.3571 36.0818 38.0507C36.1984 37.7442 36.2493 37.4166 36.2312 37.0892C36.2265 36.9995 36.1864 36.9154 36.1196 36.8553C36.0528 36.7951 35.9649 36.764 35.8752 36.7687C35.7855 36.7734 35.7013 36.8136 35.6412 36.8804C35.5811 36.9471 35.55 37.035 35.5547 37.1247C35.5675 37.3576 35.5312 37.5906 35.4482 37.8085C35.3651 38.0264 35.2372 38.2245 35.0727 38.3898L33.4762 39.9864C33.1628 40.2901 32.7425 40.4583 32.3061 40.4549C31.8698 40.4515 31.4522 40.2766 31.1436 39.968C30.8351 39.6594 30.6602 39.2419 30.6568 38.8055C30.6533 38.3691 30.8216 37.9489 31.1253 37.6355L32.7303 36.0407C32.8923 35.8798 33.0857 35.7538 33.2983 35.6706C33.511 35.5874 33.7384 35.5487 33.9666 35.5569C34.0563 35.5601 34.1436 35.5275 34.2093 35.4662C34.2749 35.405 34.3136 35.3202 34.3167 35.2305C34.3199 35.1408 34.2872 35.0535 34.226 34.9879C34.1648 34.9222 34.08 34.8836 33.9903 34.8804V34.8821Z" fill="#3B85FE"/>
</svg>
