<svg width="60" height="60" viewBox="0 0 60 60" fill="none" xmlns="http://www.w3.org/2000/svg">
<rect width="60" height="60" rx="8" fill="#3B85FE" fill-opacity="0.1"/>
<path d="M20.02 40.9923H32.7139C34.3657 43.2559 37.5469 43.7452 39.8104 42.1241C42.0739 40.4724 42.5633 37.2912 40.9421 35.0277C39.8104 33.4678 37.8833 32.6724 35.9563 33.0089C34.8551 31.296 33.1728 30.0419 31.2152 29.4301C34.1822 27.9007 35.3445 24.2302 33.7846 21.2632C32.2246 18.2961 28.5846 17.1338 25.6176 18.6938C22.6505 20.2537 21.5188 23.8937 23.0482 26.8607C23.6294 27.9618 24.5164 28.8489 25.6176 29.4301C21.9776 30.5618 19.5 33.9265 19.5 37.7194V40.4417C19.5 40.7476 19.7447 40.9923 20.02 40.9923ZM35.8339 34.1406C37.9751 33.59 40.1468 34.9053 40.6974 37.0465C41.248 39.1877 39.9327 41.3594 37.7915 41.91C35.2833 42.5218 32.8363 40.5947 32.8363 37.9947C32.8363 36.1594 34.0598 34.5689 35.8339 34.1406ZM23.4459 24.1078C23.4459 21.3549 25.6482 19.122 28.4011 19.122C31.154 19.122 33.3869 21.3243 33.3869 24.0772C33.3869 26.8301 31.1846 29.063 28.4011 29.063C25.6788 29.063 23.4459 26.8301 23.4459 24.1078ZM20.5706 37.7194C20.5706 33.5288 23.9658 30.1336 28.187 30.103H28.707C31.154 30.103 33.4787 31.2959 34.9163 33.3147C33.0811 34.0794 31.7963 35.9147 31.7963 37.9946C31.7963 38.6064 31.9187 39.2793 32.1634 39.9216H20.5706V37.7194Z" fill="#3B85FE"/>
<path d="M34.7635 38.5451H36.2929V40.0745C36.2929 40.3804 36.5376 40.6251 36.8435 40.6251C37.1494 40.6251 37.3941 40.3804 37.3941 40.0745V38.5451H38.9235C39.2294 38.5451 39.4741 38.3004 39.4741 37.9945C39.4741 37.6886 39.2294 37.4439 38.9235 37.4439H37.3941V35.9451C37.3941 35.6392 37.1494 35.3945 36.8435 35.3945C36.5376 35.3945 36.2929 35.6392 36.2929 35.9451V37.4439H34.7635C34.4576 37.4439 34.2129 37.6886 34.2129 37.9945C34.2129 38.3004 34.4576 38.5451 34.7635 38.5451Z" fill="#3B85FE"/>
</svg>
