<svg width="728" height="199" viewBox="0 0 728 199" fill="none" xmlns="http://www.w3.org/2000/svg">
<g filter="url(#filter0_f_2389_11370)">
<path d="M178.417 4.09091L165.98 79H145.644L155.007 22.8182H154.569L136.573 32.6207L139.353 15.3565L159.689 4.09091H178.417ZM213.195 81.0483C206.367 81.0483 200.722 79.4877 196.26 76.3665C191.797 73.2209 188.713 68.7098 187.006 62.8331C185.299 56.9564 185.153 49.9093 186.567 41.6918C187.981 33.4498 190.505 26.4515 194.138 20.6967C197.796 14.942 202.331 10.565 207.745 7.5657C213.183 4.5664 219.291 3.06676 226.07 3.06676C232.849 3.06676 238.457 4.5664 242.895 7.5657C247.333 10.565 250.418 14.942 252.149 20.6967C253.88 26.4271 254.063 33.4254 252.698 41.6918C251.332 49.9337 248.82 56.993 245.163 62.8697C241.53 68.7463 236.982 73.2453 231.52 76.3665C226.082 79.4877 219.974 81.0483 213.195 81.0483ZM215.975 64.5156C219.486 64.5156 222.632 62.6868 225.411 59.0291C228.216 55.3471 230.288 49.5679 231.629 41.6918C232.507 36.571 232.715 32.3769 232.251 29.1094C231.788 25.8175 230.788 23.3912 229.252 21.8306C227.716 20.2456 225.777 19.4531 223.436 19.4531C219.925 19.4531 216.731 21.2454 213.853 24.8299C211 28.39 208.927 34.0107 207.635 41.6918C206.757 46.9588 206.562 51.2749 207.05 54.6399C207.538 58.005 208.562 60.4922 210.122 62.1016C211.683 63.7109 213.634 64.5156 215.975 64.5156ZM307.953 81.0483C301.125 81.0483 295.48 79.4877 291.018 76.3665C286.555 73.2209 283.471 68.7098 281.764 62.8331C280.057 56.9564 279.91 49.9093 281.325 41.6918C282.739 33.4498 285.263 26.4515 288.896 20.6967C292.554 14.942 297.089 10.565 302.503 7.5657C307.94 4.5664 314.049 3.06676 320.828 3.06676C327.606 3.06676 333.215 4.5664 337.653 7.5657C342.091 10.565 345.175 14.942 346.907 20.6967C348.638 26.4271 348.821 33.4254 347.455 41.6918C346.09 49.9337 343.578 56.993 339.921 62.8697C336.287 68.7463 331.74 73.2453 326.278 76.3665C320.84 79.4877 314.731 81.0483 307.953 81.0483ZM310.732 64.5156C314.244 64.5156 317.389 62.6868 320.169 59.0291C322.973 55.3471 325.046 49.5679 326.387 41.6918C327.265 36.571 327.472 32.3769 327.009 29.1094C326.546 25.8175 325.546 23.3912 324.01 21.8306C322.474 20.2456 320.535 19.4531 318.194 19.4531C314.683 19.4531 311.488 21.2454 308.611 24.8299C305.758 28.39 303.685 34.0107 302.393 41.6918C301.515 46.9588 301.32 51.2749 301.808 54.6399C302.295 58.005 303.32 60.4922 304.88 62.1016C306.441 63.7109 308.392 64.5156 310.732 64.5156ZM382.691 81.0483C375.863 81.0483 370.218 79.4877 365.756 76.3665C361.294 73.2209 358.209 68.7098 356.502 62.8331C354.795 56.9564 354.649 49.9093 356.063 41.6918C357.477 33.4498 360.001 26.4515 363.634 20.6967C367.292 14.942 371.828 10.565 377.241 7.5657C382.679 4.5664 388.787 3.06676 395.566 3.06676C402.345 3.06676 407.953 4.5664 412.391 7.5657C416.829 10.565 419.914 14.942 421.645 20.6967C423.376 26.4271 423.559 33.4254 422.194 41.6918C420.828 49.9337 418.317 56.993 414.659 62.8697C411.026 68.7463 406.478 73.2453 401.016 76.3665C395.578 79.4877 389.47 81.0483 382.691 81.0483ZM385.471 64.5156C388.982 64.5156 392.128 62.6868 394.907 59.0291C397.712 55.3471 399.784 49.5679 401.126 41.6918C402.003 36.571 402.211 32.3769 401.747 29.1094C401.284 25.8175 400.284 23.3912 398.748 21.8306C397.212 20.2456 395.273 19.4531 392.932 19.4531C389.421 19.4531 386.227 21.2454 383.349 24.8299C380.496 28.39 378.424 34.0107 377.131 41.6918C376.253 46.9588 376.058 51.2749 376.546 54.6399C377.034 58.005 378.058 60.4922 379.618 62.1016C381.179 63.7109 383.13 64.5156 385.471 64.5156ZM457.429 81.0483C450.602 81.0483 444.956 79.4877 440.494 76.3665C436.032 73.2209 432.947 68.7098 431.24 62.8331C429.533 56.9564 429.387 49.9093 430.801 41.6918C432.216 33.4498 434.739 26.4515 438.373 20.6967C442.03 14.942 446.566 10.565 451.979 7.5657C457.417 4.5664 463.525 3.06676 470.304 3.06676C477.083 3.06676 482.691 4.5664 487.129 7.5657C491.567 10.565 494.652 14.942 496.383 20.6967C498.115 26.4271 498.298 33.4254 496.932 41.6918C495.566 49.9337 493.055 56.993 489.397 62.8697C485.764 68.7463 481.216 73.2453 475.754 76.3665C470.316 79.4877 464.208 81.0483 457.429 81.0483ZM460.209 64.5156C463.72 64.5156 466.866 62.6868 469.646 59.0291C472.45 55.3471 474.523 49.5679 475.864 41.6918C476.742 36.571 476.949 32.3769 476.486 29.1094C476.022 25.8175 475.023 23.3912 473.486 21.8306C471.95 20.2456 470.012 19.4531 467.671 19.4531C464.159 19.4531 460.965 21.2454 458.088 24.8299C455.235 28.39 453.162 34.0107 451.869 41.6918C450.992 46.9588 450.797 51.2749 451.284 54.6399C451.772 58.005 452.796 60.4922 454.357 62.1016C455.917 63.7109 457.868 64.5156 460.209 64.5156ZM590.958 79H571.646L572.963 70.9531C573.67 66.5152 573.597 62.7112 572.743 59.5412C571.914 56.3712 570.439 53.945 568.317 52.2624C566.22 50.5799 563.623 49.7386 560.526 49.7386C557.283 49.7386 554.333 50.5799 551.675 52.2624C549.017 53.945 546.786 56.3712 544.981 59.5412C543.177 62.7112 541.921 66.5152 541.214 70.9531L539.897 79H520.731L522.048 71.2457C523.243 63.8329 525.815 57.4319 529.765 52.043C533.716 46.6296 538.58 42.4599 544.36 39.5337C550.139 36.5832 556.357 35.108 563.014 35.108C569.573 35.108 575.267 36.5832 580.095 39.5337C584.923 42.4599 588.459 46.6296 590.702 52.043C592.946 57.4319 593.47 63.8329 592.275 71.2457L590.958 79ZM574.865 22.8182L565.501 79H546.188L555.552 22.8182H574.865Z" fill="#00FFD1"/>
</g>
<path d="M176.417 2.09091L163.98 77H143.644L153.007 20.8182H152.569L134.573 30.6207L137.353 13.3565L157.689 2.09091H176.417ZM211.195 79.0483C204.367 79.0483 198.722 77.4877 194.26 74.3665C189.797 71.2209 186.713 66.7098 185.006 60.8331C183.299 54.9564 183.153 47.9093 184.567 39.6918C185.981 31.4498 188.505 24.4515 192.138 18.6967C195.796 12.942 200.331 8.56498 205.745 5.5657C211.183 2.5664 217.291 1.06676 224.07 1.06676C230.849 1.06676 236.457 2.5664 240.895 5.5657C245.333 8.56498 248.418 12.942 250.149 18.6967C251.88 24.4271 252.063 31.4254 250.698 39.6918C249.332 47.9337 246.82 54.993 243.163 60.8697C239.53 66.7463 234.982 71.2453 229.52 74.3665C224.082 77.4877 217.974 79.0483 211.195 79.0483ZM213.975 62.5156C217.486 62.5156 220.632 60.6868 223.411 57.0291C226.216 53.3471 228.288 47.5679 229.629 39.6918C230.507 34.571 230.715 30.3769 230.251 27.1094C229.788 23.8175 228.788 21.3912 227.252 19.8306C225.716 18.2456 223.777 17.4531 221.436 17.4531C217.925 17.4531 214.731 19.2454 211.853 22.8299C209 26.39 206.927 32.0107 205.635 39.6918C204.757 44.9588 204.562 49.2749 205.05 52.6399C205.538 56.005 206.562 58.4922 208.122 60.1016C209.683 61.7109 211.634 62.5156 213.975 62.5156ZM305.953 79.0483C299.125 79.0483 293.48 77.4877 289.018 74.3665C284.555 71.2209 281.471 66.7098 279.764 60.8331C278.057 54.9564 277.91 47.9093 279.325 39.6918C280.739 31.4498 283.263 24.4515 286.896 18.6967C290.554 12.942 295.089 8.56498 300.503 5.5657C305.94 2.5664 312.049 1.06676 318.828 1.06676C325.606 1.06676 331.215 2.5664 335.653 5.5657C340.091 8.56498 343.175 12.942 344.907 18.6967C346.638 24.4271 346.821 31.4254 345.455 39.6918C344.09 47.9337 341.578 54.993 337.921 60.8697C334.287 66.7463 329.74 71.2453 324.278 74.3665C318.84 77.4877 312.731 79.0483 305.953 79.0483ZM308.732 62.5156C312.244 62.5156 315.389 60.6868 318.169 57.0291C320.973 53.3471 323.046 47.5679 324.387 39.6918C325.265 34.571 325.472 30.3769 325.009 27.1094C324.546 23.8175 323.546 21.3912 322.01 19.8306C320.474 18.2456 318.535 17.4531 316.194 17.4531C312.683 17.4531 309.488 19.2454 306.611 22.8299C303.758 26.39 301.685 32.0107 300.393 39.6918C299.515 44.9588 299.32 49.2749 299.808 52.6399C300.295 56.005 301.32 58.4922 302.88 60.1016C304.441 61.7109 306.392 62.5156 308.732 62.5156ZM380.691 79.0483C373.863 79.0483 368.218 77.4877 363.756 74.3665C359.294 71.2209 356.209 66.7098 354.502 60.8331C352.795 54.9564 352.649 47.9093 354.063 39.6918C355.477 31.4498 358.001 24.4515 361.634 18.6967C365.292 12.942 369.828 8.56498 375.241 5.5657C380.679 2.5664 386.787 1.06676 393.566 1.06676C400.345 1.06676 405.953 2.5664 410.391 5.5657C414.829 8.56498 417.914 12.942 419.645 18.6967C421.376 24.4271 421.559 31.4254 420.194 39.6918C418.828 47.9337 416.317 54.993 412.659 60.8697C409.026 66.7463 404.478 71.2453 399.016 74.3665C393.578 77.4877 387.47 79.0483 380.691 79.0483ZM383.471 62.5156C386.982 62.5156 390.128 60.6868 392.907 57.0291C395.712 53.3471 397.784 47.5679 399.126 39.6918C400.003 34.571 400.211 30.3769 399.747 27.1094C399.284 23.8175 398.284 21.3912 396.748 19.8306C395.212 18.2456 393.273 17.4531 390.932 17.4531C387.421 17.4531 384.227 19.2454 381.349 22.8299C378.496 26.39 376.424 32.0107 375.131 39.6918C374.253 44.9588 374.058 49.2749 374.546 52.6399C375.034 56.005 376.058 58.4922 377.618 60.1016C379.179 61.7109 381.13 62.5156 383.471 62.5156ZM455.429 79.0483C448.602 79.0483 442.956 77.4877 438.494 74.3665C434.032 71.2209 430.947 66.7098 429.24 60.8331C427.533 54.9564 427.387 47.9093 428.801 39.6918C430.216 31.4498 432.739 24.4515 436.373 18.6967C440.03 12.942 444.566 8.56498 449.979 5.5657C455.417 2.5664 461.525 1.06676 468.304 1.06676C475.083 1.06676 480.691 2.5664 485.129 5.5657C489.567 8.56498 492.652 12.942 494.383 18.6967C496.115 24.4271 496.298 31.4254 494.932 39.6918C493.566 47.9337 491.055 54.993 487.397 60.8697C483.764 66.7463 479.216 71.2453 473.754 74.3665C468.316 77.4877 462.208 79.0483 455.429 79.0483ZM458.209 62.5156C461.72 62.5156 464.866 60.6868 467.646 57.0291C470.45 53.3471 472.523 47.5679 473.864 39.6918C474.742 34.571 474.949 30.3769 474.486 27.1094C474.022 23.8175 473.023 21.3912 471.486 19.8306C469.95 18.2456 468.012 17.4531 465.671 17.4531C462.159 17.4531 458.965 19.2454 456.088 22.8299C453.235 26.39 451.162 32.0107 449.869 39.6918C448.992 44.9588 448.797 49.2749 449.284 52.6399C449.772 56.005 450.796 58.4922 452.357 60.1016C453.917 61.7109 455.868 62.5156 458.209 62.5156ZM588.958 77H569.646L570.963 68.9531C571.67 64.5152 571.597 60.7112 570.743 57.5412C569.914 54.3712 568.439 51.945 566.317 50.2624C564.22 48.5799 561.623 47.7386 558.526 47.7386C555.283 47.7386 552.333 48.5799 549.675 50.2624C547.017 51.945 544.786 54.3712 542.981 57.5412C541.177 60.7112 539.921 64.5152 539.214 68.9531L537.897 77H518.731L520.048 69.2457C521.243 61.8329 523.815 55.4319 527.765 50.043C531.716 44.6296 536.58 40.4599 542.36 37.5337C548.139 34.5832 554.357 33.108 561.014 33.108C567.573 33.108 573.267 34.5832 578.095 37.5337C582.923 40.4599 586.459 44.6296 588.702 50.043C590.946 55.4319 591.47 61.8329 590.275 69.2457L588.958 77ZM572.865 20.8182L563.501 77H544.188L553.552 20.8182H572.865Z" fill="url(#paint0_linear_2389_11370)"/>
<g filter="url(#filter1_f_2389_11370)">
<path d="M165.363 182.612L174.288 128.479H190.674L181.75 182.612H165.363ZM149.562 163.739L152.342 147.352H206.475L203.696 163.739H149.562ZM232.012 193L234.426 178.369L266.248 155.253C268.369 153.717 270.198 152.278 271.734 150.937C273.295 149.571 274.551 148.169 275.502 146.73C276.453 145.292 277.074 143.695 277.367 141.939C277.684 140.013 277.538 138.367 276.928 137.001C276.343 135.611 275.392 134.55 274.075 133.819C272.758 133.087 271.173 132.722 269.32 132.722C267.442 132.722 265.723 133.1 264.163 133.855C262.602 134.611 261.298 135.721 260.249 137.184C259.225 138.647 258.542 140.427 258.201 142.524H238.888C239.766 137.257 241.705 132.722 244.704 128.918C247.728 125.114 251.556 122.188 256.189 120.139C260.846 118.091 266.077 117.067 271.88 117.067C277.879 117.067 282.927 118.03 287.023 119.956C291.12 121.858 294.083 124.541 295.911 128.003C297.765 131.466 298.289 135.526 297.484 140.183C296.996 143.061 295.911 145.914 294.229 148.742C292.571 151.571 289.901 154.716 286.219 158.179C282.561 161.617 277.489 165.714 271.003 170.469L263.029 176.321L262.956 176.76H292.217L289.51 193H232.012ZM327.946 194.024C322.216 194.024 317.29 193 313.169 190.952C309.048 188.903 306.013 186.087 304.062 182.502C302.111 178.918 301.489 174.809 302.196 170.176H321.948C321.606 172.737 322.265 174.797 323.923 176.358C325.581 177.894 327.751 178.662 330.434 178.662C332.555 178.662 334.481 178.223 336.213 177.345C337.944 176.443 339.395 175.187 340.565 173.578C341.736 171.944 342.504 170.03 342.87 167.835C343.235 165.641 343.101 163.739 342.467 162.129C341.833 160.496 340.797 159.24 339.358 158.362C337.92 157.46 336.164 157.009 334.091 157.009C331.921 157.009 329.848 157.533 327.873 158.581C325.898 159.605 324.313 161.032 323.118 162.861L305.854 159.349L315.657 118.091H365.986L363.353 134.331H329.702L325.459 150.864H325.898C327.459 148.596 329.8 146.718 332.921 145.231C336.066 143.719 339.529 142.963 343.309 142.963C347.771 142.963 351.575 143.999 354.72 146.072C357.866 148.145 360.146 151.01 361.56 154.668C362.975 158.325 363.279 162.519 362.475 167.25C361.67 172.468 359.695 177.089 356.549 181.113C353.404 185.136 349.38 188.294 344.479 190.586C339.578 192.878 334.067 194.024 327.946 194.024ZM398.835 195.048C392.007 195.048 386.362 193.488 381.9 190.366C377.438 187.221 374.353 182.71 372.646 176.833C370.939 170.956 370.793 163.909 372.207 155.692C373.621 147.45 376.145 140.451 379.778 134.697C383.436 128.942 387.972 124.565 393.385 121.566C398.823 118.566 404.931 117.067 411.71 117.067C418.489 117.067 424.097 118.566 428.535 121.566C432.973 124.565 436.058 128.942 437.789 134.697C439.52 140.427 439.703 147.425 438.338 155.692C436.972 163.934 434.461 170.993 430.803 176.87C427.17 182.746 422.622 187.245 417.16 190.366C411.722 193.488 405.614 195.048 398.835 195.048ZM401.615 178.516C405.126 178.516 408.272 176.687 411.052 173.029C413.856 169.347 415.928 163.568 417.27 155.692C418.147 150.571 418.355 146.377 417.891 143.109C417.428 139.817 416.428 137.391 414.892 135.831C413.356 134.246 411.417 133.453 409.076 133.453C405.565 133.453 402.371 135.245 399.493 138.83C396.64 142.39 394.568 148.011 393.275 155.692C392.397 160.959 392.202 165.275 392.69 168.64C393.178 172.005 394.202 174.492 395.762 176.102C397.323 177.711 399.274 178.516 401.615 178.516ZM461.113 193L473.549 118.091H526.219L523.439 134.477H491.106L489.057 147.352H518.172L515.392 163.739H486.277L481.449 193H461.113ZM569.629 141.5C569.849 139.086 569.264 137.196 567.874 135.831C566.484 134.441 564.143 133.746 560.851 133.746C558.754 133.746 556.998 133.99 555.584 134.477C554.194 134.965 553.109 135.636 552.329 136.489C551.573 137.342 551.097 138.33 550.902 139.452C550.683 140.33 550.695 141.134 550.939 141.866C551.207 142.573 551.707 143.219 552.438 143.804C553.194 144.39 554.182 144.914 555.401 145.377C556.645 145.84 558.12 146.255 559.827 146.621L565.679 147.938C569.678 148.815 573.031 149.974 575.738 151.412C578.469 152.827 580.615 154.509 582.175 156.46C583.736 158.411 584.76 160.593 585.248 163.007C585.76 165.421 585.772 168.055 585.284 170.908C584.455 175.833 582.541 180.003 579.542 183.417C576.542 186.831 572.629 189.428 567.801 191.208C562.973 192.988 557.388 193.878 551.049 193.878C544.562 193.878 539.051 192.915 534.516 190.988C530.005 189.038 526.737 186.063 524.713 182.064C522.714 178.04 522.226 172.907 523.25 166.665H542.563C542.27 168.957 542.514 170.883 543.294 172.444C544.075 174.004 545.33 175.187 547.062 175.992C548.793 176.797 550.951 177.199 553.536 177.199C555.73 177.199 557.608 176.931 559.169 176.394C560.729 175.858 561.961 175.114 562.863 174.163C563.765 173.212 564.314 172.127 564.509 170.908C564.704 169.786 564.509 168.786 563.924 167.908C563.338 167.031 562.278 166.238 560.741 165.531C559.205 164.824 557.096 164.178 554.414 163.592L547.245 161.983C540.88 160.52 536.076 158.106 532.833 154.741C529.59 151.376 528.444 146.767 529.395 140.915C530.175 136.135 532.138 131.966 535.284 128.406C538.454 124.821 542.477 122.041 547.354 120.066C552.256 118.067 557.681 117.067 563.631 117.067C569.678 117.067 574.738 118.079 578.81 120.103C582.907 122.127 585.845 124.967 587.625 128.625C589.43 132.283 589.917 136.574 589.088 141.5H569.629Z" fill="#00FFD1"/>
</g>
<path d="M163.363 180.612L172.288 126.479H188.674L179.75 180.612H163.363ZM147.562 161.739L150.342 145.352H204.475L201.696 161.739H147.562ZM230.012 191L232.426 176.369L264.248 153.253C266.369 151.717 268.198 150.278 269.734 148.937C271.295 147.571 272.551 146.169 273.502 144.73C274.453 143.292 275.074 141.695 275.367 139.939C275.684 138.013 275.538 136.367 274.928 135.001C274.343 133.611 273.392 132.55 272.075 131.819C270.758 131.087 269.173 130.722 267.32 130.722C265.442 130.722 263.723 131.1 262.163 131.855C260.602 132.611 259.298 133.721 258.249 135.184C257.225 136.647 256.542 138.427 256.201 140.524H236.888C237.766 135.257 239.705 130.722 242.704 126.918C245.728 123.114 249.556 120.188 254.189 118.139C258.846 116.091 264.077 115.067 269.88 115.067C275.879 115.067 280.927 116.03 285.023 117.956C289.12 119.858 292.083 122.541 293.911 126.003C295.765 129.466 296.289 133.526 295.484 138.183C294.996 141.061 293.911 143.914 292.229 146.742C290.571 149.571 287.901 152.716 284.219 156.179C280.561 159.617 275.489 163.714 269.003 168.469L261.029 174.321L260.956 174.76H290.217L287.51 191H230.012ZM325.946 192.024C320.216 192.024 315.29 191 311.169 188.952C307.048 186.903 304.013 184.087 302.062 180.502C300.111 176.918 299.489 172.809 300.196 168.176H319.948C319.606 170.737 320.265 172.797 321.923 174.358C323.581 175.894 325.751 176.662 328.434 176.662C330.555 176.662 332.481 176.223 334.213 175.345C335.944 174.443 337.395 173.187 338.565 171.578C339.736 169.944 340.504 168.03 340.87 165.835C341.235 163.641 341.101 161.739 340.467 160.129C339.833 158.496 338.797 157.24 337.358 156.362C335.92 155.46 334.164 155.009 332.091 155.009C329.921 155.009 327.848 155.533 325.873 156.581C323.898 157.605 322.313 159.032 321.118 160.861L303.854 157.349L313.657 116.091H363.986L361.353 132.331H327.702L323.459 148.864H323.898C325.459 146.596 327.8 144.718 330.921 143.231C334.066 141.719 337.529 140.963 341.309 140.963C345.771 140.963 349.575 141.999 352.72 144.072C355.866 146.145 358.146 149.01 359.56 152.668C360.975 156.325 361.279 160.519 360.475 165.25C359.67 170.468 357.695 175.089 354.549 179.113C351.404 183.136 347.38 186.294 342.479 188.586C337.578 190.878 332.067 192.024 325.946 192.024ZM396.835 193.048C390.007 193.048 384.362 191.488 379.9 188.366C375.438 185.221 372.353 180.71 370.646 174.833C368.939 168.956 368.793 161.909 370.207 153.692C371.621 145.45 374.145 138.451 377.778 132.697C381.436 126.942 385.972 122.565 391.385 119.566C396.823 116.566 402.931 115.067 409.71 115.067C416.489 115.067 422.097 116.566 426.535 119.566C430.973 122.565 434.058 126.942 435.789 132.697C437.52 138.427 437.703 145.425 436.338 153.692C434.972 161.934 432.461 168.993 428.803 174.87C425.17 180.746 420.622 185.245 415.16 188.366C409.722 191.488 403.614 193.048 396.835 193.048ZM399.615 176.516C403.126 176.516 406.272 174.687 409.052 171.029C411.856 167.347 413.928 161.568 415.27 153.692C416.147 148.571 416.355 144.377 415.891 141.109C415.428 137.817 414.428 135.391 412.892 133.831C411.356 132.246 409.417 131.453 407.076 131.453C403.565 131.453 400.371 133.245 397.493 136.83C394.64 140.39 392.568 146.011 391.275 153.692C390.397 158.959 390.202 163.275 390.69 166.64C391.178 170.005 392.202 172.492 393.762 174.102C395.323 175.711 397.274 176.516 399.615 176.516ZM459.113 191L471.549 116.091H524.219L521.439 132.477H489.106L487.057 145.352H516.172L513.392 161.739H484.277L479.449 191H459.113ZM567.629 139.5C567.849 137.086 567.264 135.196 565.874 133.831C564.484 132.441 562.143 131.746 558.851 131.746C556.754 131.746 554.998 131.99 553.584 132.477C552.194 132.965 551.109 133.636 550.329 134.489C549.573 135.342 549.097 136.33 548.902 137.452C548.683 138.33 548.695 139.134 548.939 139.866C549.207 140.573 549.707 141.219 550.438 141.804C551.194 142.39 552.182 142.914 553.401 143.377C554.645 143.84 556.12 144.255 557.827 144.621L563.679 145.938C567.678 146.815 571.031 147.974 573.738 149.412C576.469 150.827 578.615 152.509 580.175 154.46C581.736 156.411 582.76 158.593 583.248 161.007C583.76 163.421 583.772 166.055 583.284 168.908C582.455 173.833 580.541 178.003 577.542 181.417C574.542 184.831 570.629 187.428 565.801 189.208C560.973 190.988 555.388 191.878 549.049 191.878C542.562 191.878 537.051 190.915 532.516 188.988C528.005 187.038 524.737 184.063 522.713 180.064C520.714 176.04 520.226 170.907 521.25 164.665H540.563C540.27 166.957 540.514 168.883 541.294 170.444C542.075 172.004 543.33 173.187 545.062 173.992C546.793 174.797 548.951 175.199 551.536 175.199C553.73 175.199 555.608 174.931 557.169 174.394C558.729 173.858 559.961 173.114 560.863 172.163C561.765 171.212 562.314 170.127 562.509 168.908C562.704 167.786 562.509 166.786 561.924 165.908C561.338 165.031 560.278 164.238 558.741 163.531C557.205 162.824 555.096 162.178 552.414 161.592L545.245 159.983C538.88 158.52 534.076 156.106 530.833 152.741C527.59 149.376 526.444 144.767 527.395 138.915C528.175 134.135 530.138 129.966 533.284 126.406C536.454 122.821 540.477 120.041 545.354 118.066C550.256 116.067 555.681 115.067 561.631 115.067C567.678 115.067 572.738 116.079 576.81 118.103C580.907 120.127 583.845 122.967 585.625 126.625C587.43 130.283 587.917 134.574 587.088 139.5H567.629Z" fill="url(#paint1_linear_2389_11370)"/>
<defs>
<filter id="filter0_f_2389_11370" x="133.573" y="0.0668945" width="463.495" height="83.9814" filterUnits="userSpaceOnUse" color-interpolation-filters="sRGB">
<feFlood flood-opacity="0" result="BackgroundImageFix"/>
<feBlend mode="normal" in="SourceGraphic" in2="BackgroundImageFix" result="shape"/>
<feGaussianBlur stdDeviation="1.5" result="effect1_foregroundBlur_2389_11370"/>
</filter>
<filter id="filter1_f_2389_11370" x="146.562" y="114.067" width="446.77" height="83.9814" filterUnits="userSpaceOnUse" color-interpolation-filters="sRGB">
<feFlood flood-opacity="0" result="BackgroundImageFix"/>
<feBlend mode="normal" in="SourceGraphic" in2="BackgroundImageFix" result="shape"/>
<feGaussianBlur stdDeviation="1.5" result="effect1_foregroundBlur_2389_11370"/>
</filter>
<linearGradient id="paint0_linear_2389_11370" x1="363" y1="0" x2="363" y2="80" gradientUnits="userSpaceOnUse">
<stop stop-color="#04CFAA"/>
<stop offset="1" stop-color="#026956"/>
</linearGradient>
<linearGradient id="paint1_linear_2389_11370" x1="363" y1="114" x2="363" y2="194" gradientUnits="userSpaceOnUse">
<stop stop-color="#04CFAA"/>
<stop offset="1" stop-color="#026956"/>
</linearGradient>
</defs>
</svg>
