<svg width="220" height="106" viewBox="0 0 220 106" fill="none" xmlns="http://www.w3.org/2000/svg">
<path d="M12.8904 62.9782H0V5.9837H22.6407C24.718 5.9837 26.7164 6.25579 28.6359 6.79801C30.5553 7.3412 32.3496 8.10951 34.0198 9.10292C35.6889 10.0963 37.2147 11.2884 38.5951 12.6802C39.9755 14.071 41.1585 15.6154 42.1452 17.3106C43.1309 19.0067 43.8933 20.8213 44.4333 22.7553C44.9724 24.6892 45.2419 26.7035 45.2419 28.797C45.2419 31.924 44.6499 34.872 43.4669 37.6398C42.2838 40.4086 40.6666 42.8261 38.6153 44.8932C36.564 46.9603 34.1642 48.5899 31.4169 49.782C28.6686 50.9741 25.7432 51.5701 22.6407 51.5701H12.8904V62.9782ZM12.7691 19.0165V38.5579H22.6041C23.9518 38.5579 25.2195 38.3024 26.4084 37.7915C27.5962 37.2806 28.6359 36.5828 29.5272 35.698C30.4186 34.8132 31.1204 33.7748 31.6344 32.5827C32.1484 31.3916 32.4055 30.1261 32.4055 28.7872C32.4055 27.4483 32.1484 26.1828 31.6344 24.9917C31.1204 23.8005 30.4177 22.7621 29.5272 21.8764C28.6368 20.9906 27.5962 20.2937 26.4084 19.7828C25.2205 19.2719 23.9518 19.0165 22.6041 19.0165H12.7691Z" fill="#FF2400"/>
<path d="M61.9346 62.9488H49.2166V5.95532H61.9346V62.9488Z" fill="#FF2400"/>
<path d="M101.828 62.9782L82.5202 29.5017V62.9782H69.8194V5.9837H82.937L102.177 39.3379V5.9837H114.936V62.9782H101.828Z" fill="#FF2400"/>
<path d="M155.505 48.8717C153.271 50.0746 150.725 50.7568 148.022 50.7568C139.18 50.7568 132.011 43.4682 132.011 34.4775C132.011 25.4869 139.18 18.1983 148.022 18.1983C150.726 18.1983 153.273 18.8814 155.508 20.0843C157.348 16.1165 159.925 12.5715 163.06 9.63144C158.698 6.90469 153.563 5.33089 148.067 5.33089C132.232 5.33089 119.397 18.3813 119.397 34.4805C119.397 50.5796 132.232 63.63 148.067 63.63C153.563 63.63 158.698 62.0562 163.06 59.3295C159.923 56.3884 157.345 52.8425 155.505 48.8717Z" fill="#FF2400"/>
<path d="M185.614 5.3025C169.78 5.3025 156.945 18.3529 156.945 34.4521C156.945 50.5512 169.78 63.6017 185.614 63.6017C201.448 63.6017 214.284 50.5512 214.284 34.4521C214.284 18.3529 201.448 5.3025 185.614 5.3025ZM185.557 50.7313C176.715 50.7313 169.546 43.4427 169.546 34.4521C169.546 25.4614 176.715 18.1728 185.557 18.1728C194.4 18.1728 201.569 25.4614 201.569 34.4521C201.569 43.4427 194.4 50.7313 185.557 50.7313Z" fill="#FF2400"/>
<path d="M185.536 42.2012C189.673 42.2012 193.028 38.7908 193.028 34.5838C193.028 30.3769 189.673 26.9665 185.536 26.9665C181.398 26.9665 178.044 30.3769 178.044 34.5838C178.044 38.7908 181.398 42.2012 185.536 42.2012Z" fill="#FF2400"/>
<path d="M219.411 10.1229C219.078 9.31493 218.29 8.78895 217.418 8.78895H210.805V2.16204C210.805 1.28866 210.282 0.499208 209.474 0.165472C208.668 -0.172168 207.741 0.0181202 207.124 0.633874L198.498 9.42227C198.093 9.82724 197.866 10.3757 197.866 10.9504V18.6996L183.258 33.3381C182.814 33.7343 182.538 34.3139 182.538 34.956C182.538 36.1495 183.504 37.1175 184.695 37.1175C185.353 37.1175 185.854 36.7848 186.342 36.3593L200.915 21.7559H208.648C209.22 21.7559 209.768 21.5275 210.172 21.1226L218.942 12.4786C219.56 11.8599 219.746 10.9319 219.411 10.1229Z" fill="#04CFAA"/>
<path d="M0 89.7467C0 80.7702 7.26102 73.4933 16.2179 73.4933H203.782C212.739 73.4933 220 80.7702 220 89.7467C220 98.7231 212.739 106 203.782 106H16.2179C7.26102 106 0 98.7231 0 89.7467Z" fill="#04CFAA"/>
<path d="M73.6474 92.6797C73.7199 92.6797 73.7925 92.6949 73.8651 92.7252C73.9376 92.7494 74.0072 92.7949 74.0737 92.8615L75.2891 94.1432C74.757 94.8401 74.0888 95.3673 73.2846 95.7249C72.4864 96.0764 71.5401 96.2521 70.4456 96.2521C69.4418 96.2521 68.5409 96.0824 67.7427 95.7431C66.9506 95.3976 66.2763 94.925 65.72 94.325C65.1698 93.719 64.7465 93.0039 64.4502 92.1798C64.1539 91.3496 64.0058 90.4497 64.0058 89.4801C64.0058 88.4923 64.166 87.5863 64.4865 86.7621C64.807 85.9319 65.2574 85.2168 65.8379 84.6169C66.4184 84.017 67.1138 83.5503 67.9241 83.217C68.7344 82.8837 69.6263 82.7171 70.5998 82.7171C71.0956 82.7171 71.5612 82.7625 71.9966 82.8534C72.438 82.9383 72.8492 83.0595 73.2302 83.217C73.6111 83.3685 73.9618 83.5534 74.2823 83.7715C74.6028 83.9897 74.887 84.226 75.1349 84.4805L74.1009 85.8713C74.0344 85.9562 73.9558 86.0349 73.8651 86.1077C73.7744 86.1743 73.6474 86.2077 73.4841 86.2077C73.3753 86.2077 73.2725 86.1834 73.1757 86.1349C73.079 86.0864 72.9762 86.0289 72.8674 85.9622C72.7585 85.8895 72.6376 85.8138 72.5045 85.735C72.3776 85.6501 72.2234 85.5744 72.042 85.5077C71.8666 85.435 71.658 85.3744 71.4161 85.3259C71.1803 85.2774 70.9021 85.2532 70.5817 85.2532C70.0737 85.2532 69.6081 85.3471 69.1848 85.535C68.7676 85.7228 68.4048 85.9986 68.0964 86.3622C67.7941 86.7197 67.5583 87.1621 67.3889 87.6893C67.2257 88.2105 67.144 88.8074 67.144 89.4801C67.144 90.1588 67.2347 90.7617 67.4162 91.289C67.6036 91.8162 67.8545 92.2616 68.169 92.6252C68.4895 92.9827 68.8613 93.2554 69.2846 93.4433C69.7079 93.6312 70.1614 93.7251 70.6451 93.7251C70.9233 93.7251 71.1773 93.713 71.4071 93.6887C71.6368 93.6584 71.8515 93.613 72.051 93.5524C72.2506 93.4857 72.438 93.4009 72.6134 93.2979C72.7887 93.1888 72.9671 93.0524 73.1485 92.8888C73.2211 92.8282 73.2997 92.7797 73.3844 92.7434C73.469 92.701 73.5567 92.6797 73.6474 92.6797Z" fill="black"/>
<path d="M88.1466 91.0435L86.9221 87.4166C86.8314 87.1863 86.7346 86.9167 86.6318 86.6076C86.529 86.2925 86.4262 85.9531 86.3234 85.5895C86.2327 85.9592 86.136 86.3016 86.0332 86.6167C85.9304 86.9318 85.8336 87.2045 85.743 87.4348L84.5275 91.0435H88.1466ZM93.0173 96.1067H90.6409C90.3748 96.1067 90.1601 96.0461 89.9969 95.9249C89.8336 95.7976 89.7097 95.637 89.625 95.4431L88.845 93.1342H83.8201L83.04 95.4431C82.9735 95.6128 82.8526 95.7673 82.6772 95.9067C82.5079 96.04 82.2963 96.1067 82.0423 96.1067H79.6478L84.7634 82.8625H87.9017L93.0173 96.1067Z" fill="black"/>
<path d="M105.896 85.5532C105.805 85.6986 105.708 85.8077 105.606 85.8804C105.509 85.9531 105.382 85.9895 105.225 85.9895C105.086 85.9895 104.934 85.9471 104.771 85.8622C104.614 85.7713 104.433 85.6713 104.227 85.5623C104.027 85.4532 103.798 85.3562 103.538 85.2714C103.278 85.1805 102.981 85.135 102.649 85.135C102.074 85.135 101.645 85.2593 101.361 85.5077C101.083 85.7501 100.943 86.0804 100.943 86.4985C100.943 86.7652 101.028 86.9864 101.197 87.1621C101.367 87.3378 101.587 87.4893 101.86 87.6166C102.138 87.7439 102.452 87.862 102.803 87.9711C103.16 88.0741 103.522 88.1923 103.891 88.3256C104.26 88.4529 104.62 88.6044 104.971 88.7801C105.327 88.9559 105.642 89.1801 105.914 89.4528C106.192 89.7255 106.416 90.0588 106.585 90.4527C106.754 90.8405 106.839 91.3102 106.839 91.8616C106.839 92.4737 106.733 93.0464 106.522 93.5796C106.31 94.1129 106.002 94.5795 105.597 94.9795C105.197 95.3734 104.702 95.6855 104.109 95.9158C103.522 96.14 102.854 96.2521 102.104 96.2521C101.693 96.2521 101.273 96.2097 100.844 96.1248C100.42 96.04 100.009 95.9218 99.6102 95.7703C99.2111 95.6128 98.8362 95.4279 98.4855 95.2159C98.1348 95.0038 97.8294 94.7674 97.5694 94.5068L98.4764 93.0706C98.549 92.9676 98.6427 92.8827 98.7576 92.8161C98.8785 92.7434 99.0085 92.707 99.1476 92.707C99.329 92.707 99.5104 92.7646 99.6918 92.8797C99.8793 92.9949 100.088 93.1221 100.318 93.2615C100.553 93.4009 100.823 93.5281 101.125 93.6433C101.427 93.7584 101.784 93.816 102.195 93.816C102.752 93.816 103.184 93.6948 103.492 93.4524C103.801 93.2039 103.955 92.813 103.955 92.2798C103.955 91.9707 103.87 91.7192 103.701 91.5253C103.532 91.3314 103.308 91.1708 103.03 91.0435C102.758 90.9163 102.446 90.8042 102.095 90.7072C101.745 90.6102 101.385 90.5042 101.016 90.3891C100.647 90.2679 100.287 90.1224 99.9367 89.9527C99.586 89.777 99.2716 89.5497 98.9934 89.271C98.7213 88.9862 98.5006 88.6347 98.3313 88.2165C98.162 87.7923 98.0773 87.2712 98.0773 86.6531C98.0773 86.1561 98.1771 85.6713 98.3766 85.1987C98.5762 84.726 98.8694 84.3048 99.2564 83.9352C99.6434 83.5655 100.118 83.2716 100.68 83.0534C101.243 82.8292 101.887 82.7171 102.612 82.7171C103.018 82.7171 103.411 82.7504 103.792 82.8171C104.179 82.8777 104.544 82.9716 104.889 83.0989C105.234 83.2201 105.554 83.3685 105.85 83.5443C106.153 83.714 106.422 83.9079 106.658 84.126L105.896 85.5532Z" fill="black"/>
<path d="M116.258 96.1067H113.174V82.8625H116.258V96.1067Z" fill="black"/>
<path d="M134.88 82.8625V96.1067H133.283C133.048 96.1067 132.848 96.0703 132.685 95.9976C132.528 95.9188 132.37 95.7855 132.213 95.5976L125.982 87.6984C126.006 87.9348 126.021 88.165 126.027 88.3893C126.039 88.6074 126.045 88.8134 126.045 89.0074V96.1067H123.343V82.8625H124.957C125.09 82.8625 125.202 82.8686 125.293 82.8807C125.383 82.8928 125.465 82.9171 125.538 82.9534C125.61 82.9837 125.68 83.0292 125.746 83.0898C125.813 83.1504 125.888 83.2322 125.973 83.3352L132.259 91.289C132.228 91.0344 132.207 90.789 132.195 90.5527C132.183 90.3103 132.177 90.083 132.177 89.8709V82.8625H134.88Z" fill="black"/>
<path d="M154.949 89.4801C154.949 90.4375 154.783 91.3284 154.451 92.1525C154.124 92.9767 153.661 93.6948 153.063 94.3068C152.464 94.9128 151.742 95.3886 150.895 95.734C150.055 96.0794 149.12 96.2521 148.092 96.2521C147.064 96.2521 146.127 96.0794 145.281 95.734C144.434 95.3886 143.708 94.9128 143.104 94.3068C142.505 93.6948 142.039 92.9767 141.707 92.1525C141.38 91.3284 141.217 90.4375 141.217 89.4801C141.217 88.5226 141.38 87.6318 141.707 86.8076C142.039 85.9834 142.505 85.2683 143.104 84.6623C143.708 84.0563 144.434 83.5806 145.281 83.2352C146.127 82.8898 147.064 82.7171 148.092 82.7171C149.12 82.7171 150.055 82.8928 150.895 83.2443C151.742 83.5897 152.464 84.0654 153.063 84.6714C153.661 85.2774 154.124 85.9925 154.451 86.8167C154.783 87.6408 154.949 88.5286 154.949 89.4801ZM151.811 89.4801C151.811 88.8256 151.726 88.2377 151.557 87.7166C151.388 87.1894 151.143 86.744 150.822 86.3804C150.508 86.0168 150.121 85.738 149.661 85.5441C149.202 85.3502 148.679 85.2532 148.092 85.2532C147.5 85.2532 146.971 85.3502 146.505 85.5441C146.045 85.738 145.655 86.0168 145.335 86.3804C145.021 86.744 144.779 87.1894 144.609 87.7166C144.44 88.2377 144.355 88.8256 144.355 89.4801C144.355 90.1406 144.44 90.7345 144.609 91.2617C144.779 91.7829 145.021 92.2252 145.335 92.5888C145.655 92.9524 146.045 93.2312 146.505 93.4251C146.971 93.613 147.5 93.7069 148.092 93.7069C148.679 93.7069 149.202 93.613 149.661 93.4251C150.121 93.2312 150.508 92.9524 150.822 92.5888C151.143 92.2252 151.388 91.7829 151.557 91.2617C151.726 90.7345 151.811 90.1406 151.811 89.4801Z" fill="black"/>
</svg>
