<svg width="89" height="90" viewBox="0 0 89 90" fill="none" xmlns="http://www.w3.org/2000/svg">
<path d="M88.0962 8.71154H0.865385C0.63587 8.71154 0.415757 8.62037 0.253466 8.45807C0.0911746 8.29578 0 8.07567 0 7.84615V0.865385C0 0.63587 0.0911746 0.415757 0.253466 0.253466C0.415757 0.0911746 0.63587 0 0.865385 0H88.0962C88.3257 0 88.5458 0.0911746 88.7081 0.253466C88.8704 0.415757 88.9616 0.63587 88.9616 0.865385V7.84615C88.9616 8.07567 88.8704 8.29578 88.7081 8.45807C88.5458 8.62037 88.3257 8.71154 88.0962 8.71154ZM1.78846 6.92308H87.1731V1.78846H1.78846V6.92308Z" fill="#D7B46C"/>
<path d="M10.7884 15.8077C8.95232 15.8077 7.19141 15.0783 5.89308 13.78C4.59475 12.4817 3.86536 10.7207 3.86536 8.88464V7.84617C3.8649 7.61103 3.95419 7.38458 4.11501 7.21304C4.27584 7.04149 4.49606 6.93779 4.73074 6.9231H16.8461C17.0808 6.93779 17.301 7.04149 17.4619 7.21304C17.6227 7.38458 17.712 7.61103 17.7115 7.84617V8.88464C17.7115 10.7207 16.9821 12.4817 15.6838 13.78C14.3855 15.0783 12.6245 15.8077 10.7884 15.8077ZM5.65382 8.71156V8.88464C5.65382 10.2464 6.19479 11.5524 7.15771 12.5154C8.12064 13.4783 9.42665 14.0192 10.7884 14.0192C12.1502 14.0192 13.4562 13.4783 14.4192 12.5154C15.3821 11.5524 15.9231 10.2464 15.9231 8.88464V8.71156H5.65382Z" fill="#D7B46C"/>
<path d="M44.8269 15.8077C42.9908 15.8077 41.2299 15.0783 39.9315 13.78C38.6332 12.4817 37.9038 10.7208 37.9038 8.88464V7.84617C37.9038 7.60136 38.0011 7.36657 38.1742 7.19346C38.3473 7.02035 38.5821 6.9231 38.8269 6.9231H50.8846C51.0032 6.92283 51.1207 6.94698 51.2296 6.99403C51.3386 7.04108 51.4367 7.11004 51.5178 7.19661C51.599 7.28318 51.6615 7.38552 51.7014 7.49726C51.7414 7.60901 51.7579 7.72777 51.75 7.84617V8.88464C51.75 10.7208 51.0206 12.4817 49.7222 13.78C48.4239 15.0783 46.663 15.8077 44.8269 15.8077ZM39.6923 8.71156V8.88464C39.8273 10.16 40.4295 11.3402 41.3828 12.198C42.3362 13.0558 43.5733 13.5304 44.8557 13.5304C46.1382 13.5304 47.3753 13.0558 48.3286 12.198C49.282 11.3402 49.8842 10.16 50.0192 8.88464V8.71156H39.6923Z" fill="#D7B46C"/>
<path d="M79.5 15.8077C77.6639 15.8077 75.903 15.0783 74.6046 13.78C73.3063 12.4817 72.5769 10.7207 72.5769 8.88464V7.84617C72.5764 7.61103 72.6657 7.38458 72.8266 7.21304C72.9874 7.04149 73.2076 6.93779 73.4423 6.9231H85.5577C85.7924 6.93779 86.0126 7.04149 86.1734 7.21304C86.3342 7.38458 86.4235 7.61103 86.4231 7.84617V8.88464C86.4231 10.7207 85.6937 12.4817 84.3953 13.78C83.097 15.0783 81.3361 15.8077 79.5 15.8077ZM74.3654 8.71156V8.88464C74.3654 10.2464 74.9063 11.5524 75.8693 12.5154C76.8322 13.4783 78.1382 14.0192 79.5 14.0192C80.8618 14.0192 82.1678 13.4783 83.1307 12.5154C84.0936 11.5524 84.6346 10.2464 84.6346 8.88464V8.71156H74.3654Z" fill="#D7B46C"/>
<path d="M54.0577 38.1924C53.823 38.1777 53.6028 38.074 53.442 37.9024C53.2811 37.7309 53.1918 37.5044 53.1923 37.2693V27.7501C53.1923 26.6618 52.977 25.5843 52.5588 24.5796C52.1406 23.5748 51.5278 22.6628 50.7556 21.8959C49.9834 21.1291 49.0671 20.5226 48.0595 20.1114C47.0519 19.7002 45.9729 19.4925 44.8846 19.5001C42.6912 19.5 40.5868 20.3674 39.0305 21.9129C37.4741 23.4584 36.5921 25.5567 36.5769 27.7501V37.2693C36.5774 37.5044 36.4881 37.7309 36.3273 37.9024C36.1664 38.074 35.9462 38.1777 35.7115 38.1924C35.4667 38.1924 35.2319 38.0951 35.0588 37.922C34.8857 37.7489 34.7885 37.5141 34.7885 37.2693V27.7501C34.8037 25.0824 35.8741 22.5292 37.7659 20.6483C39.6576 18.7673 42.2169 17.7116 44.8846 17.7116C46.2045 17.6993 47.5134 17.9535 48.7327 18.4591C49.9521 18.9647 51.0568 19.7112 51.9808 20.6539C52.9235 21.5809 53.6738 22.685 54.1886 23.9027C54.7035 25.1205 54.9726 26.428 54.9808 27.7501V37.2693C54.9808 37.5141 54.8835 37.7489 54.7104 37.922C54.5373 38.0951 54.3025 38.1924 54.0577 38.1924Z" fill="#D7B46C"/>
<path d="M44.8846 49.9615C38.4807 49.9615 33.2307 46.0961 33.2307 41.3077C33.2307 36.5192 38.4807 32.6538 44.8846 32.6538C51.2884 32.6538 56.5384 36.5769 56.5384 41.3077C56.5384 46.0384 51.3461 49.9615 44.8846 49.9615ZM44.8846 34.4423C39.4615 34.4423 35.0192 37.5577 35.0192 41.3077C35.0192 45.0577 39.4615 48.173 44.8846 48.173C50.3076 48.173 54.75 45.1153 54.75 41.3077C54.75 37.5 50.3653 34.4423 44.8846 34.4423Z" fill="#D7B46C"/>
<path d="M34.5576 44.423H34.2115C34.1042 44.379 34.0069 44.314 33.9253 44.2316C33.8437 44.1493 33.7795 44.0514 33.7365 43.9438C33.6934 43.8362 33.6724 43.721 33.6747 43.6051C33.677 43.4892 33.7026 43.375 33.7499 43.2692C35.2499 39.5769 39.6922 37.1538 44.8845 37.1538C50.0769 37.1538 54.5192 39.5769 56.0192 43.2692C56.0758 43.3735 56.1087 43.4889 56.1156 43.6074C56.1225 43.7258 56.1033 43.8443 56.0592 43.9544C56.0151 44.0646 55.9474 44.1637 55.8607 44.2447C55.774 44.3257 55.6705 44.3866 55.5576 44.423C55.4518 44.4704 55.3376 44.4959 55.2217 44.4982C55.1058 44.5006 54.9906 44.4796 54.883 44.4365C54.7754 44.3935 54.6775 44.3292 54.5952 44.2476C54.5129 44.166 54.4478 44.0687 54.4038 43.9615C53.1922 41.0192 49.2692 38.9423 44.8845 38.9423C40.4999 38.9423 36.5769 40.9615 35.3653 43.9038C35.304 44.0654 35.1924 44.203 35.047 44.2965C34.9016 44.3899 34.7301 44.4343 34.5576 44.423Z" fill="#D7B46C"/>
<path d="M11.2499 89.3078C11.0873 89.325 10.9238 89.2841 10.7884 89.1924C10.5879 89.0719 10.4407 88.8797 10.3765 88.6548C10.3122 88.4299 10.3357 88.1891 10.4422 87.9808L35.1923 45.4616C35.3349 45.3027 35.5282 45.1981 35.7393 45.1657C35.9504 45.1333 36.1661 45.1751 36.3498 45.284C36.5336 45.3929 36.6738 45.5621 36.7468 45.7628C36.8198 45.9635 36.8209 46.1832 36.7499 46.3847L11.9999 88.9039C11.9204 89.0302 11.8095 89.1337 11.6781 89.2045C11.5467 89.2753 11.3992 89.3108 11.2499 89.3078Z" fill="#D7B46C"/>
<path d="M78.5193 89.3078C78.3701 89.3109 78.2226 89.2753 78.0911 89.2045C77.9597 89.1338 77.8488 89.0302 77.7693 88.9039L53.0193 46.3847C52.9127 46.1765 52.8892 45.9356 52.9535 45.7107C53.0177 45.4858 53.165 45.2937 53.3654 45.1732C53.4633 45.1105 53.5728 45.0682 53.6874 45.0488C53.802 45.0294 53.9194 45.0332 54.0324 45.0602C54.1455 45.0871 54.252 45.1365 54.3456 45.2055C54.4391 45.2745 54.5178 45.3616 54.577 45.4616L79.327 87.9809C79.4335 88.1891 79.457 88.43 79.3928 88.6549C79.3285 88.8798 79.1813 89.0719 78.9808 89.1924C78.8478 89.2893 78.6823 89.3306 78.5193 89.3078Z" fill="#D7B46C"/>
<path d="M45.75 14.8846H43.9615V18.5712H45.75V14.8846Z" fill="#D7B46C"/>
<path d="M80.3654 14.8846H78.5769V19.7308H80.3654V14.8846Z" fill="#D7B46C"/>
<path d="M11.7116 14.8846H9.9231V19.7308H11.7116V14.8846Z" fill="#D7B46C"/>
<path d="M9.05771 42.4039C8.90415 42.3955 8.75511 42.3489 8.62413 42.2683C8.49315 42.1877 8.38438 42.0757 8.30771 41.9424L3.51925 33.6924C2.19938 31.3793 1.84684 28.6385 2.5384 26.0668C3.22996 23.495 4.90961 21.3007 7.21156 19.9616C9.53375 18.6216 12.2898 18.2486 14.8846 18.9231C16.17 19.2593 17.3742 19.8516 18.4251 20.6645C19.4759 21.4774 20.3518 22.4942 21 23.6539L25.7308 31.9039C25.8456 32.1028 25.8766 32.3392 25.8171 32.561C25.7576 32.7828 25.6124 32.9718 25.4135 33.0866C25.2146 33.2014 24.9782 33.2324 24.7564 33.1729C24.5346 33.1134 24.3456 32.9682 24.2308 32.7693L19.4423 24.5193C18.9017 23.576 18.1799 22.749 17.3185 22.0856C16.4571 21.4223 15.4732 20.9357 14.4231 20.6539C13.3712 20.3626 12.2709 20.2891 11.1896 20.4379C10.1083 20.5867 9.06875 20.9547 8.13464 21.5193C6.23467 22.618 4.84665 24.4239 4.27375 26.5425C3.70084 28.6612 3.98959 30.9205 5.07694 32.827L9.86541 41.077C9.92579 41.1784 9.9648 41.2911 9.98003 41.4081C9.99526 41.5251 9.98639 41.644 9.95397 41.7575C9.92154 41.871 9.86626 41.9766 9.7915 42.0679C9.71674 42.1593 9.62409 42.2343 9.51925 42.2885L9.05771 42.4039Z" fill="#D7B46C"/>
<path d="M16.2692 49.9039H15.1153C13.8747 49.8473 12.666 49.4927 11.5915 48.8701C10.517 48.2475 9.60825 47.3752 8.94226 46.327C7.78841 44.25 7.73072 41.7116 8.88456 39.1731C10.1093 36.5256 12.1519 34.3414 14.7115 32.9423C17.202 31.4225 20.1119 30.7354 23.0192 30.9808C25.7884 31.2693 27.9807 32.5385 29.1346 34.5577C30.3461 36.6346 30.3461 39.1731 29.1923 41.7116C27.9574 44.3376 25.9159 46.5005 23.3653 47.8846C21.2204 49.1741 18.7716 49.8709 16.2692 49.9039ZM21.8653 32.7116C19.6641 32.7278 17.5093 33.3463 15.6346 34.5C13.4012 35.7038 11.6044 37.5813 10.4999 39.8654C9.63456 41.8846 9.63456 43.8462 10.4999 45.3462C11.3653 46.8462 13.0961 47.8847 15.2884 48.1154C17.8044 48.2529 20.306 47.6552 22.4881 46.3951C24.6702 45.135 26.4383 43.2671 27.5769 41.0193C28.4999 39 28.5 37.0385 27.6346 35.4808C26.7115 33.9231 25.0384 32.9423 22.7884 32.7693L21.8653 32.7116Z" fill="#D7B46C"/>
<path d="M11.1923 48.4039C10.9763 48.3921 10.7713 48.3047 10.6131 48.1571C10.4549 48.0094 10.3536 47.8109 10.3269 47.5962C9.80769 43.7308 12.4615 39.3462 16.9615 36.7501C21.4615 34.1539 26.5385 34.0385 29.6539 36.4616C29.7961 36.6215 29.8783 36.8257 29.8866 37.0395C29.8948 37.2533 29.8286 37.4634 29.6991 37.6337C29.5697 37.8041 29.385 37.9241 29.1768 37.9734C28.9686 38.0227 28.7498 37.9981 28.5577 37.9039C26.0192 35.9424 21.6346 36.1155 17.8269 38.3078C14.0192 40.5001 11.6538 44.2501 12.1154 47.3655C12.149 47.602 12.0897 47.8423 11.9498 48.036C11.81 48.2296 11.6005 48.3615 11.3654 48.4039H11.1923Z" fill="#D7B46C"/>
<path d="M13.4423 89.9999C13.2128 89.9999 12.9927 89.9087 12.8304 89.7464C12.6681 89.5841 12.5769 89.364 12.5769 89.1345L12.75 48.8653C12.75 48.6358 12.8412 48.4156 13.0034 48.2533C13.1657 48.0911 13.3859 47.9999 13.6154 47.9999C13.8505 47.9994 14.077 48.0887 14.2485 48.2495C14.42 48.4104 14.5237 48.6306 14.5384 48.8653L14.3654 89.1345C14.3507 89.3692 14.247 89.5894 14.0754 89.7502C13.9039 89.911 13.6774 90.0003 13.4423 89.9999Z" fill="#D7B46C"/>
<path d="M86.5384 73.7309C86.3755 73.7537 86.21 73.7123 86.0769 73.6155L44.5961 49.8463C44.3957 49.7257 44.2485 49.5336 44.1842 49.3087C44.1199 49.0838 44.1435 48.8429 44.25 48.6347C44.3705 48.4343 44.5626 48.287 44.7875 48.2228C45.0124 48.1585 45.2533 48.182 45.4615 48.2886L86.9423 72.1155C87.0471 72.1697 87.1398 72.2447 87.2145 72.3361C87.2893 72.4274 87.3446 72.533 87.377 72.6465C87.4094 72.76 87.4183 72.8789 87.4031 72.9959C87.3878 73.1129 87.3488 73.2256 87.2884 73.327C87.2089 73.4533 87.098 73.5569 86.9666 73.6276C86.8352 73.6984 86.6877 73.734 86.5384 73.7309Z" fill="#D7B46C"/>
<path d="M34.7308 44.077L34.3269 43.9616L33.9231 43.7308L28.6154 40.7308C28.4565 40.5882 28.3519 40.3949 28.3195 40.1838C28.2871 39.9727 28.3289 39.7569 28.4378 39.5732C28.5467 39.3895 28.7159 39.2492 28.9166 39.1763C29.1173 39.1033 29.3371 39.1022 29.5385 39.1731L35.1346 42.4039C35.2444 42.4528 35.3427 42.524 35.4234 42.613C35.5041 42.7019 35.5654 42.8067 35.6034 42.9207C35.6414 43.0347 35.6552 43.1553 35.6441 43.2749C35.6329 43.3945 35.5969 43.5105 35.5385 43.6154C35.4526 43.7532 35.3338 43.8675 35.1928 43.9481C35.0519 44.0286 34.8931 44.0729 34.7308 44.077Z" fill="#D7B46C"/>
<path d="M80.5385 42.4039L80.0769 42.2885C79.8765 42.168 79.7292 41.9759 79.665 41.751C79.6007 41.5261 79.6242 41.2852 79.7308 41.077L84.5192 32.827C85.6066 30.9205 85.8953 28.6612 85.3224 26.5425C84.7495 24.4239 83.3615 22.618 81.4615 21.5193C80.5274 20.9547 79.4879 20.5867 78.4066 20.4379C77.3253 20.2891 76.225 20.3626 75.1731 20.6539C74.123 20.9357 73.139 21.4223 72.2776 22.0856C71.4163 22.749 70.6945 23.576 70.1538 24.5193L65.3654 32.7693C65.3086 32.8678 65.2329 32.9541 65.1427 33.0234C65.0525 33.0926 64.9496 33.1434 64.8398 33.1729C64.7299 33.2024 64.6154 33.2099 64.5026 33.1951C64.3899 33.1803 64.2812 33.1434 64.1827 33.0866C64.0842 33.0298 63.9979 32.9541 63.9286 32.8639C63.8594 32.7737 63.8086 32.6708 63.7791 32.561C63.7496 32.4511 63.7421 32.3366 63.7569 32.2239C63.7717 32.1111 63.8086 32.0024 63.8654 31.9039L68.5962 23.6539C69.2522 22.5003 70.1304 21.4882 71.1801 20.6761C72.2298 19.8641 73.4301 19.2683 74.7115 18.9231C77.3064 18.2486 80.0624 18.6216 82.3846 19.9616C84.6866 21.3007 86.3662 23.495 87.0578 26.0668C87.7493 28.6385 87.3968 31.3793 86.0769 33.6924L81.2885 41.9424C81.2118 42.0757 81.103 42.1877 80.972 42.2683C80.8411 42.3489 80.692 42.3955 80.5385 42.4039Z" fill="#D7B46C"/>
<path d="M73.3269 49.9039C70.8236 49.8764 68.3734 49.1792 66.2307 47.8846C60.6346 44.7115 58.0384 38.7115 60.4615 34.5577C61.6153 32.5385 63.8076 31.2692 66.6346 30.9808C69.5183 30.8182 72.3867 31.5015 74.8874 32.9466C77.3882 34.3917 79.4124 36.5358 80.7115 39.1154C81.8653 41.6539 81.8653 44.1923 80.6538 46.2692C79.4423 48.3462 76.4999 49.9039 73.3269 49.9039ZM67.7884 32.7115H66.8076C64.5576 32.8846 62.8846 33.8654 62.0192 35.4231C60.1153 38.7115 62.423 43.5577 67.0961 46.3269C71.7692 49.0962 77.1923 48.5769 79.0961 45.2885C80.0192 43.7885 79.9615 41.8269 79.0961 39.8077C77.9917 37.5236 76.1949 35.646 73.9615 34.4423C72.1012 33.3108 69.9658 32.7121 67.7884 32.7115Z" fill="#D7B46C"/>
<path d="M78.4039 48.4039H78.2885C78.1669 48.3897 78.0493 48.3514 77.9427 48.2913C77.836 48.2312 77.7424 48.1505 77.6672 48.0538C77.592 47.9572 77.5369 47.8465 77.5049 47.7284C77.4729 47.6102 77.4647 47.4868 77.4808 47.3655C77.9424 44.2501 75.577 40.5001 71.7693 38.3078C67.9616 36.1155 63.577 35.9424 61.0385 37.9039C60.9479 38.0057 60.8359 38.0862 60.7105 38.1396C60.5851 38.193 60.4494 38.218 60.3132 38.2127C60.177 38.2075 60.0437 38.1721 59.9228 38.1092C59.8019 38.0463 59.6964 37.9574 59.6139 37.8489C59.5315 37.7404 59.4741 37.615 59.4458 37.4816C59.4176 37.3483 59.4192 37.2103 59.4506 37.0777C59.482 36.9451 59.5424 36.8211 59.6274 36.7145C59.7124 36.608 59.82 36.5216 59.9424 36.4616C63.1154 34.0385 68.1924 34.1539 72.6924 36.7501C77.1924 39.3462 79.7885 43.7308 79.2693 47.5962C79.2426 47.8109 79.1413 48.0094 78.9831 48.1571C78.8249 48.3047 78.6199 48.3921 78.4039 48.4039Z" fill="#D7B46C"/>
<path d="M76.1538 90C75.9187 90.0005 75.6922 89.9112 75.5207 89.7504C75.3491 89.5896 75.2454 89.3693 75.2307 89.1347L75.1154 48.8654C75.1154 48.6359 75.2065 48.4158 75.3688 48.2535C75.5311 48.0912 75.7512 48 75.9807 48C76.0966 47.9914 76.2129 48.0079 76.3218 48.0483C76.4307 48.0888 76.5296 48.1522 76.6118 48.2344C76.6939 48.3165 76.7574 48.4154 76.7978 48.5243C76.8383 48.6332 76.8547 48.7496 76.8461 48.8654L77.0192 89.1347C77.0192 89.3642 76.928 89.5843 76.7657 89.7466C76.6034 89.9089 76.3833 90 76.1538 90Z" fill="#D7B46C"/>
<path d="M3.11534 73.7309C2.95658 73.7444 2.79716 73.7139 2.65464 73.6427C2.51212 73.5714 2.39205 73.4622 2.30765 73.327C2.24726 73.2256 2.20826 73.1129 2.19303 72.9959C2.1778 72.8789 2.18667 72.76 2.21909 72.6465C2.25151 72.533 2.3068 72.4274 2.38156 72.3361C2.45632 72.2447 2.54896 72.1697 2.6538 72.1155L44.1346 48.2886C44.3428 48.182 44.5837 48.1585 44.8086 48.2228C45.0335 48.287 45.2256 48.4343 45.3461 48.6347C45.4065 48.7361 45.4455 48.8488 45.4607 48.9658C45.476 49.0829 45.4671 49.2018 45.4347 49.3152C45.4023 49.4287 45.347 49.5344 45.2722 49.6257C45.1974 49.717 45.1048 49.7921 45 49.8463L3.51919 73.6155C3.40385 73.7033 3.25967 73.7445 3.11534 73.7309Z" fill="#D7B46C"/>
<path d="M54.8654 44.077C54.7092 44.0809 54.5551 44.0393 54.422 43.9574C54.2889 43.8755 54.1824 43.7567 54.1154 43.6154C54.0455 43.5167 53.9987 43.4036 53.9783 43.2844C53.958 43.1652 53.9646 43.0429 53.9979 42.9266C54.0311 42.8103 54.09 42.703 54.1703 42.6125C54.2505 42.522 54.3501 42.4507 54.4616 42.4039L54.8654 42.1731L60.0577 39.1731C60.2592 39.1022 60.479 39.1033 60.6797 39.1763C60.8804 39.2492 61.0496 39.3895 61.1584 39.5732C61.2673 39.7569 61.3091 39.9727 61.2767 40.1838C61.2443 40.3949 61.1398 40.5882 60.9808 40.7308L55.327 43.9616L54.8654 44.077Z" fill="#D7B46C"/>
</svg>
