<svg width="58" height="90" viewBox="0 0 58 90" fill="none" xmlns="http://www.w3.org/2000/svg">
<path d="M54.1369 90H3.86309C2.83853 90 1.85594 89.5895 1.13147 88.8587C0.407002 88.128 1.7266e-08 87.1369 1.7266e-08 86.1034V3.95069C-9.65865e-05 2.91221 0.405186 1.91545 1.12815 1.17609C1.85112 0.43673 2.83363 0.0142257 3.86309 0H54.1369C55.1664 0.0142257 56.1489 0.43673 56.8718 1.17609C57.5948 1.91545 58.0001 2.91221 58 3.95069V86.1034C58 87.1369 57.593 88.128 56.8685 88.8587C56.1441 89.5895 55.1615 90 54.1369 90ZM3.86309 2.76007C3.70808 2.76007 3.55459 2.79087 3.41137 2.8507C3.26816 2.91054 3.13804 2.99824 3.02843 3.1088C2.91882 3.21936 2.83187 3.35061 2.77255 3.49506C2.71323 3.63951 2.6827 3.79434 2.6827 3.95069V86.1034C2.68253 86.2573 2.71335 86.4097 2.7733 86.5512C2.83325 86.6928 2.92107 86.8205 3.03145 86.9268C3.14183 87.0331 3.27246 87.1156 3.41541 87.1695C3.55837 87.2233 3.71067 87.2473 3.86309 87.2399H54.1369C54.4357 87.2399 54.7223 87.1202 54.9336 86.9071C55.1449 86.6939 55.2636 86.4049 55.2636 86.1034V3.95069C55.2709 3.79695 55.2471 3.64333 55.1938 3.49913C55.1404 3.35494 55.0586 3.22318 54.9532 3.11185C54.8479 3.00051 54.7212 2.91193 54.5808 2.85146C54.4405 2.79099 54.2895 2.7599 54.1369 2.76007H3.86309Z" fill="#D7B46C"/>
<path d="M28.9731 79.6091C25.0574 79.6091 21.2296 78.4379 17.9738 76.2435C14.718 74.0492 12.1804 70.9303 10.6819 67.2813C9.18338 63.6323 8.79131 59.617 9.55523 55.7432C10.3192 51.8694 12.2048 48.3111 14.9736 45.5183C17.7425 42.7254 21.2702 40.8235 25.1107 40.0529C28.9512 39.2824 32.932 39.6778 36.5496 41.1893C40.1673 42.7008 43.2594 45.2604 45.4349 48.5444C47.6103 51.8285 48.7715 55.6895 48.7715 59.6391C48.7715 62.2616 48.2594 64.8584 47.2644 67.2813C46.2695 69.7042 44.8111 71.9056 42.9727 73.76C41.1342 75.6144 38.9517 77.0854 36.5496 78.089C34.1476 79.0925 31.5731 79.6091 28.9731 79.6091ZM28.9731 42.4293C25.5986 42.4293 22.2998 43.4386 19.494 45.3297C16.6882 47.2207 14.5013 49.9085 13.2099 53.0532C11.9186 56.1979 11.5807 59.6582 12.239 62.9966C12.8973 66.335 14.5223 69.4015 16.9085 71.8083C19.2947 74.2152 22.3348 75.8543 25.6445 76.5183C28.9542 77.1824 32.3848 76.8415 35.5025 75.539C38.6202 74.2364 41.2849 72.0306 43.1597 69.2004C45.0345 66.3703 46.0351 63.0429 46.0351 59.6391C46.021 55.0792 44.2188 50.7101 41.0222 47.4857C37.8255 44.2613 33.4939 42.4435 28.9731 42.4293Z" fill="#D7B46C"/>
<path d="M28.9732 67.9194C27.3496 67.9194 25.7624 67.4338 24.4125 66.524C23.0625 65.6141 22.0103 64.3209 21.389 62.8079C20.7677 61.2949 20.6051 59.63 20.9218 58.0238C21.2386 56.4176 22.0204 54.9422 23.1685 53.7842C24.3165 52.6262 25.7793 51.8376 27.3717 51.5181C28.9641 51.1986 30.6146 51.3626 32.1146 51.9893C33.6147 52.616 34.8967 53.6773 35.7988 55.039C36.7008 56.4007 37.1822 58.0016 37.1822 59.6392C37.1822 61.8353 36.3174 63.9414 34.7779 65.4942C33.2384 67.0471 31.1503 67.9194 28.9732 67.9194ZM28.9732 53.1991C27.2798 53.1991 25.6558 53.8776 24.4584 55.0853C23.261 56.2931 22.5883 57.9312 22.5883 59.6392C22.5883 61.3473 23.261 62.9853 24.4584 64.1931C25.6558 65.4009 27.2798 66.0794 28.9732 66.0794C30.6665 66.0794 32.2905 65.4009 33.4879 64.1931C34.6853 62.9853 35.358 61.3473 35.358 59.6392C35.358 57.9312 34.6853 56.2931 33.4879 55.0853C32.2905 53.8776 30.6665 53.1991 28.9732 53.1991Z" fill="#D7B46C"/>
<path d="M28.9732 27.9796C27.3496 27.9796 25.7624 27.494 24.4125 26.5842C23.0625 25.6743 22.0103 24.3811 21.389 22.8681C20.7677 21.3551 20.6051 19.6902 20.9218 18.084C21.2386 16.4778 22.0204 15.0024 23.1685 13.8444C24.3165 12.6864 25.7793 11.8978 27.3717 11.5783C28.9641 11.2588 30.6146 11.4228 32.1146 12.0495C33.6147 12.6762 34.8967 13.7375 35.7988 15.0992C36.7008 16.4608 37.1822 18.0617 37.1822 19.6994C37.1822 21.8955 36.3174 24.0016 34.7779 25.5544C33.2384 27.1073 31.1503 27.9796 28.9732 27.9796ZM28.9732 13.2592C27.2798 13.2592 25.6558 13.9378 24.4584 15.1455C23.261 16.3533 22.5883 17.9914 22.5883 19.6994C22.5883 21.4074 23.261 23.0455 24.4584 24.2533C25.6558 25.4611 27.2798 26.1396 28.9732 26.1396C29.8116 26.1396 30.6419 25.973 31.4165 25.6494C32.1912 25.3257 32.895 24.8513 33.4879 24.2533C34.0808 23.6553 34.5511 22.9453 34.872 22.164C35.1928 21.3826 35.358 20.5451 35.358 19.6994C35.358 18.8537 35.1928 18.0162 34.872 17.2349C34.5511 16.4535 34.0808 15.7435 33.4879 15.1455C32.895 14.5475 32.1912 14.0731 31.4165 13.7495C30.6419 13.4258 29.8116 13.2592 28.9732 13.2592Z" fill="#D7B46C"/>
<path d="M50.5958 8.55082C51.5144 8.55082 52.259 7.79969 52.259 6.87313C52.259 5.94656 51.5144 5.19543 50.5958 5.19543C49.6772 5.19543 48.9325 5.94656 48.9325 6.87313C48.9325 7.79969 49.6772 8.55082 50.5958 8.55082Z" fill="#D7B46C"/>
<path d="M50.5958 84.4799C51.5144 84.4799 52.259 83.7288 52.259 82.8022C52.259 81.8756 51.5144 81.1245 50.5958 81.1245C49.6772 81.1245 48.9325 81.8756 48.9325 82.8022C48.9325 83.7288 49.6772 84.4799 50.5958 84.4799Z" fill="#D7B46C"/>
<path d="M7.29694 8.55082C8.21554 8.55082 8.96022 7.79969 8.96022 6.87313C8.96022 5.94656 8.21554 5.19543 7.29694 5.19543C6.37834 5.19543 5.63367 5.94656 5.63367 6.87313C5.63367 7.79969 6.37834 8.55082 7.29694 8.55082Z" fill="#D7B46C"/>
<path d="M7.29694 84.4799C8.21554 84.4799 8.96022 83.7288 8.96022 82.8022C8.96022 81.8756 8.21554 81.1245 7.29694 81.1245C6.37834 81.1245 5.63367 81.8756 5.63367 82.8022C5.63367 83.7288 6.37834 84.4799 7.29694 84.4799Z" fill="#D7B46C"/>
</svg>
