<svg width="89" height="88" viewBox="0 0 89 88" fill="none" xmlns="http://www.w3.org/2000/svg">
<path d="M79.0676 63.0019C78.2766 63.002 77.4934 62.8452 76.7633 62.5408C76.0331 62.2364 75.3706 61.7904 74.8138 61.2285C74.2571 60.6665 73.8172 59.9998 73.5196 59.2669C73.2221 58.534 73.0726 57.7494 73.08 56.9584V56.119H85.1111V56.9584C85.1111 58.5612 84.4744 60.0984 83.341 61.2318C82.2076 62.3652 80.6704 63.0019 79.0676 63.0019ZM74.9267 57.8537C75.1208 58.8163 75.6421 59.6821 76.402 60.304C77.1619 60.926 78.1136 61.2658 79.0956 61.2658C80.0776 61.2658 81.0293 60.926 81.7892 60.304C82.5491 59.6821 83.0704 58.8163 83.2645 57.8537H74.9267Z" fill="#D7B46C" stroke="#D7B46C"/>
<path d="M86.9018 57.8538H71.1774C70.9265 57.8475 70.6871 57.7477 70.5059 57.5741C70.3724 57.3771 70.3129 57.1392 70.338 56.9025L72.0727 42.9689C72.087 42.7561 72.1816 42.5567 72.3375 42.4112C72.4934 42.2657 72.6989 42.185 72.9121 42.1855H85.1111C85.3304 42.1837 85.5427 42.2625 85.7077 42.407C85.8727 42.5514 85.979 42.7513 86.0064 42.9689L87.7411 56.9025C87.755 57.024 87.7421 57.1471 87.7035 57.263C87.6648 57.379 87.6013 57.4852 87.5173 57.5741C87.3566 57.7442 87.1356 57.8446 86.9018 57.8538ZM72.1847 56.1191H85.8945L84.3836 43.9202H73.6955L72.1847 56.1191Z" fill="#D7B46C" stroke="#D7B46C"/>
<path d="M56.6282 54.9439C55.8372 54.9513 55.0526 54.8019 54.3197 54.5043C53.5868 54.2067 52.9201 53.7669 52.3581 53.2101C51.7962 52.6534 51.3502 51.9908 51.0458 51.2607C50.7414 50.5306 50.5847 49.7474 50.5847 48.9564V48.061H62.6158V48.9564C62.6158 49.7427 62.4609 50.5213 62.16 51.2477C61.8591 51.9742 61.4181 52.6342 60.8621 53.1902C60.3061 53.7462 59.646 54.1873 58.9196 54.4882C58.1931 54.7891 57.4145 54.9439 56.6282 54.9439ZM52.4313 49.7957C52.6255 50.7583 53.1467 51.6241 53.9066 52.2461C54.6665 52.868 55.6183 53.2078 56.6002 53.2078C57.5822 53.2078 58.5339 52.868 59.2938 52.2461C60.0537 51.6241 60.575 50.7583 60.7691 49.7957H52.4313Z" fill="#D7B46C" stroke="#D7B46C"/>
<path d="M64.4065 49.7958H48.6821C48.4482 49.7866 48.2273 49.6862 48.0666 49.516C47.9792 49.4295 47.9134 49.3237 47.8745 49.207C47.8356 49.0904 47.8247 48.9662 47.8427 48.8445L49.5775 34.9109C49.6034 34.7026 49.7016 34.5101 49.855 34.3669C50.0084 34.2237 50.2073 34.139 50.4168 34.1274H62.6717C62.8813 34.139 63.0801 34.2237 63.2336 34.3669C63.387 34.5101 63.4852 34.7026 63.5111 34.9109L65.2458 48.8445C65.2639 48.9662 65.253 49.0904 65.2141 49.207C65.1752 49.3237 65.1094 49.4295 65.022 49.516C64.9468 49.6057 64.8525 49.6773 64.746 49.7258C64.6395 49.7742 64.5234 49.7981 64.4065 49.7958V49.7958ZM49.6894 48.0611H63.3992L61.8883 35.9181H51.2002L49.6894 48.0611Z" fill="#D7B46C" stroke="#D7B46C"/>
<path d="M70.6178 83.315C69.8763 83.315 69.1514 83.0951 68.5349 82.6831C67.9183 82.2711 67.4378 81.6856 67.154 81.0005C66.8702 80.3154 66.796 79.5616 66.9407 78.8343C67.0853 78.107 67.4424 77.439 67.9667 76.9147C68.4911 76.3903 69.1591 76.0332 69.8864 75.8886C70.6137 75.7439 71.3675 75.8182 72.0526 76.1019C72.7377 76.3857 73.3232 76.8662 73.7352 77.4828C74.1472 78.0994 74.3671 78.8242 74.3671 79.5658C74.3671 80.5601 73.9721 81.5137 73.2689 82.2169C72.5658 82.92 71.6122 83.315 70.6178 83.315ZM70.6178 77.5512C70.2194 77.5512 69.8299 77.6694 69.4986 77.8908C69.1674 78.1121 68.9092 78.4267 68.7567 78.7948C68.6042 79.1629 68.5643 79.568 68.642 79.9588C68.7198 80.3495 68.9116 80.7085 69.1934 80.9902C69.4751 81.272 69.8341 81.4638 70.2248 81.5415C70.6156 81.6193 71.0207 81.5794 71.3888 81.4269C71.7569 81.2744 72.0715 81.0162 72.2929 80.685C72.5142 80.3537 72.6324 79.9642 72.6324 79.5658C72.6324 79.0315 72.4201 78.5191 72.0423 78.1413C71.6645 77.7635 71.1521 77.5512 70.6178 77.5512Z" fill="#D7B46C" stroke="#D7B46C"/>
<path d="M71.5132 71.0601H69.7785V76.6839H71.5132V71.0601Z" fill="#D7B46C" stroke="#D7B46C"/>
<path d="M57.4116 54.1045H55.6768V60.2264H57.4116V54.1045Z" fill="#D7B46C" stroke="#D7B46C"/>
<path d="M45.2126 16.2208H43.4779V73.2538H45.2126V16.2208Z" fill="#D7B46C" stroke="#D7B46C"/>
<path d="M51.8157 10.8487H36.7069C36.1578 10.8487 35.6312 10.6306 35.2429 10.2423C34.8546 9.85399 34.6365 9.32736 34.6365 8.77824V3.07047C34.6506 2.52581 34.8733 2.00736 35.2586 1.6221C35.6438 1.23684 36.1623 1.01415 36.7069 1H51.8157C52.3649 1 52.8915 1.21814 53.2798 1.60643C53.6681 1.99471 53.8862 2.52134 53.8862 3.07047V8.77824C53.8939 9.05223 53.8457 9.32492 53.7443 9.57962C53.643 9.83431 53.4908 10.0656 53.297 10.2595C53.1032 10.4533 52.8718 10.6055 52.6171 10.7068C52.3624 10.8082 52.0897 10.8564 51.8157 10.8487ZM36.7069 2.73471C36.6179 2.73471 36.5325 2.77009 36.4695 2.83305C36.4066 2.89602 36.3712 2.98142 36.3712 3.07047V8.77824C36.3712 8.86728 36.4066 8.95268 36.4695 9.01565C36.5325 9.07861 36.6179 9.11399 36.7069 9.11399H51.8157C51.862 9.12471 51.9103 9.12348 51.9559 9.11041C52.0016 9.09734 52.0432 9.07285 52.0768 9.03927C52.1104 9.00568 52.1348 8.96409 52.1479 8.91842C52.161 8.87276 52.1622 8.82451 52.1515 8.77824V3.07047C52.1515 2.98142 52.1161 2.89602 52.0532 2.83305C51.9902 2.77009 51.9048 2.73471 51.8157 2.73471H36.7069Z" fill="#D7B46C" stroke="#D7B46C"/>
<path d="M44.2614 17.116C43.4704 17.116 42.6872 16.9593 41.957 16.6549C41.2269 16.3505 40.5644 15.9044 40.0076 15.3425C39.4509 14.7806 39.011 14.1139 38.7134 13.381C38.4158 12.6481 38.2664 11.8634 38.2738 11.0724V9.11389H50.3049V11.0724C50.3049 11.8661 50.1486 12.652 49.8449 13.3852C49.5412 14.1184 49.096 14.7847 48.5348 15.3459C47.9736 15.907 47.3074 16.3522 46.5741 16.6559C45.8409 16.9596 45.055 17.116 44.2614 17.116ZM40.0085 10.8486V11.0724C40.0084 12.2056 40.4547 13.2931 41.2507 14.0996C42.0467 14.9061 43.1283 15.3665 44.2614 15.3812C45.3996 15.3667 46.4872 14.9081 47.2921 14.1032C48.0971 13.2983 48.5557 12.2107 48.5702 11.0724V10.8486H40.0085Z" fill="#D7B46C" stroke="#D7B46C"/>
<path d="M44.3733 84.8818C41.6313 84.8818 40.1764 79.5658 40.1764 76.7678C40.1764 72.4031 43.3101 72.4031 44.3733 72.4031C45.4365 72.4031 48.5702 72.4031 48.5702 76.7678C48.5702 79.5658 47.1153 84.8818 44.3733 84.8818ZM44.3733 74.1378C42.6945 74.1378 41.9111 74.5295 41.9111 76.7678C41.9111 79.0062 43.422 83.1471 44.3733 83.1471C45.3246 83.1471 46.8355 79.6777 46.8355 76.7678C46.8355 73.858 46.052 74.1378 44.3733 74.1378Z" fill="#D7B46C" stroke="#D7B46C"/>
<path d="M44.3732 87.4C44.1358 87.4 43.9081 87.3057 43.7401 87.1378C43.5722 86.9698 43.4779 86.7421 43.4779 86.5047V83.9865C43.4779 83.7491 43.5722 83.5213 43.7401 83.3534C43.9081 83.1855 44.1358 83.0912 44.3732 83.0912C44.6107 83.0912 44.8384 83.1855 45.0063 83.3534C45.1742 83.5213 45.2686 83.7491 45.2686 83.9865V86.5047C45.2686 86.7421 45.1742 86.9698 45.0063 87.1378C44.8384 87.3057 44.6107 87.4 44.3732 87.4Z" fill="#D7B46C" stroke="#D7B46C"/>
<path d="M70.6178 71.9556C68.1394 71.9556 65.7624 70.971 64.0099 69.2184C62.2573 67.4659 61.2727 65.0889 61.2727 62.6105C61.2727 62.4121 61.2337 62.2156 61.1577 62.0323C61.0818 61.849 60.9705 61.6824 60.8302 61.5421C60.6899 61.4018 60.5234 61.2905 60.3401 61.2146C60.1567 61.1387 59.9603 61.0996 59.7619 61.0996H51.6479C51.0066 61.0869 50.3765 60.9292 49.8047 60.6385C49.233 60.3478 48.7344 59.9315 48.3463 59.4208C46.4997 57.1265 44.5411 57.2385 44.4292 57.2385L44.2614 55.5037C44.3733 55.5037 47.2272 55.2239 49.6893 58.3576C49.9236 58.6571 50.22 58.9022 50.5581 59.0761C50.8962 59.25 51.268 59.3485 51.6479 59.3649H59.7619C60.6279 59.3648 61.4593 59.7049 62.0769 60.312C62.6944 60.9191 63.0487 61.7446 63.0634 62.6105C62.9731 63.661 63.102 64.7188 63.4421 65.7168C63.7821 66.7148 64.3258 67.6313 65.0387 68.4081C65.7516 69.185 66.6181 69.8052 67.5833 70.2295C68.5486 70.6537 69.5914 70.8728 70.6458 70.8728C71.7002 70.8728 72.743 70.6537 73.7083 70.2295C74.6735 69.8052 75.54 69.185 76.2529 68.4081C76.9658 67.6313 77.5095 66.7148 77.8495 65.7168C78.1896 64.7188 78.3185 63.661 78.2282 62.6105V62.3307H79.9629V62.6105C79.9629 65.0889 78.9783 67.4659 77.2258 69.2184C75.4732 70.971 73.0963 71.9556 70.6178 71.9556Z" fill="#D7B46C" stroke="#D7B46C"/>
<path d="M9.67902 63.0019C8.07618 63.0019 6.53898 62.3652 5.4056 61.2318C4.27222 60.0984 3.6355 58.5612 3.6355 56.9584V56.119H15.6666V56.9584C15.674 57.7494 15.5246 58.534 15.227 59.2669C14.9294 59.9998 14.4895 60.6665 13.9328 61.2285C13.376 61.7904 12.7135 62.2364 11.9834 62.5408C11.2532 62.8452 10.47 63.002 9.67902 63.0019ZM5.48213 57.8537C5.67626 58.8163 6.19753 59.6821 6.95743 60.304C7.71734 60.926 8.66906 61.2658 9.65104 61.2658C10.633 61.2658 11.5847 60.926 12.3446 60.304C13.1046 59.6821 13.6258 58.8163 13.82 57.8537H5.48213Z" fill="#D7B46C" stroke="#D7B46C"/>
<path d="M18.1287 71.9556C15.6502 71.9556 13.2733 70.971 11.5207 69.2184C9.7682 67.4659 8.78363 65.0889 8.78363 62.6105V62.3307H10.5183V62.6105C10.428 63.661 10.557 64.7188 10.897 65.7168C11.237 66.7148 11.7807 67.6313 12.4936 68.4081C13.2065 69.185 14.073 69.8052 15.0383 70.2295C16.0035 70.6537 17.0464 70.8728 18.1007 70.8728C19.1551 70.8728 20.198 70.6537 21.1632 70.2295C22.1284 69.8052 22.9949 69.185 23.7078 68.4081C24.4207 67.6313 24.9644 66.7148 25.3045 65.7168C25.6445 64.7188 25.7734 63.661 25.6831 62.6105C25.6978 61.7446 26.0521 60.9191 26.6697 60.312C27.2873 59.7049 28.1186 59.3648 28.9847 59.3649H37.0986C37.4785 59.3485 37.8503 59.25 38.1884 59.0761C38.5266 58.9022 38.823 58.6571 39.0572 58.3576C41.5194 55.2239 44.3173 55.5037 44.4852 55.5037L44.2613 57.2385L44.3733 56.3991V57.2385C44.2613 57.2385 42.3028 57.1265 40.4562 59.4208C40.0681 59.9315 39.5695 60.3478 38.9977 60.6385C38.426 60.9292 37.7959 61.0869 37.1546 61.0996H28.9847C28.584 61.0996 28.1997 61.2588 27.9163 61.5421C27.633 61.8255 27.4738 62.2098 27.4738 62.6105C27.4738 65.0889 26.4892 67.4659 24.7367 69.2184C22.9841 70.971 20.6072 71.9556 18.1287 71.9556Z" fill="#D7B46C" stroke="#D7B46C"/>
<path d="M17.5691 57.8538H1.84478C1.61091 57.8446 1.38996 57.7442 1.22923 57.5741C1.14527 57.4852 1.08174 57.379 1.04307 57.263C1.00441 57.1471 0.991554 57.024 1.0054 56.9025L2.74012 42.9689C2.76752 42.7513 2.87382 42.5514 3.03885 42.407C3.20388 42.2625 3.41617 42.1837 3.63545 42.1855H15.8344C16.0477 42.185 16.2531 42.2657 16.409 42.4112C16.5649 42.5567 16.6596 42.7561 16.6738 42.9689L18.4085 56.9025C18.4336 57.1392 18.3742 57.3771 18.2406 57.5741C18.0595 57.7477 17.82 57.8475 17.5691 57.8538ZM2.85203 56.1191H16.5619L15.051 43.9202H4.36291L2.85203 56.1191Z" fill="#D7B46C" stroke="#D7B46C"/>
<path d="M32.1183 54.9439C31.332 54.9439 30.5534 54.7891 29.827 54.4882C29.1005 54.1873 28.4405 53.7462 27.8845 53.1902C27.3285 52.6342 26.8874 51.9742 26.5865 51.2477C26.2856 50.5213 26.1307 49.7427 26.1307 48.9564V48.061H38.1618V48.9564C38.1619 49.7474 38.0051 50.5306 37.7008 51.2607C37.3964 51.9908 36.9503 52.6534 36.3884 53.2101C35.8264 53.7669 35.1597 54.2067 34.4268 54.5043C33.6939 54.8019 32.9093 54.9513 32.1183 54.9439ZM27.9774 49.7957C28.1715 50.7583 28.6928 51.6241 29.4527 52.2461C30.2126 52.868 31.1643 53.2078 32.1463 53.2078C33.1283 53.2078 34.08 52.868 34.8399 52.2461C35.5998 51.6241 36.1211 50.7583 36.3152 49.7957H27.9774Z" fill="#D7B46C" stroke="#D7B46C"/>
<path d="M40.0645 49.7958H24.3401C24.2231 49.7981 24.1071 49.7742 24.0006 49.7258C23.8941 49.6773 23.7998 49.6057 23.7246 49.516C23.6372 49.4295 23.5714 49.3237 23.5325 49.207C23.4936 49.0904 23.4827 48.9662 23.5008 48.8445L25.2355 34.9109C25.2614 34.7026 25.3596 34.5101 25.513 34.3669C25.6665 34.2237 25.8653 34.139 26.0749 34.1274H38.3298C38.5393 34.139 38.7382 34.2237 38.8916 34.3669C39.045 34.5101 39.1432 34.7026 39.1691 34.9109L40.9039 48.8445C40.9219 48.9662 40.911 49.0904 40.8721 49.207C40.8332 49.3237 40.7674 49.4295 40.68 49.516C40.5193 49.6862 40.2983 49.7866 40.0645 49.7958ZM25.3474 48.0611H39.0572L37.5464 35.9181H26.8583L25.3474 48.0611Z" fill="#D7B46C" stroke="#D7B46C"/>
<path d="M18.1288 83.315C17.3873 83.315 16.6624 83.0951 16.0458 82.6831C15.4293 82.2711 14.9487 81.6856 14.665 81.0005C14.3812 80.3154 14.307 79.5616 14.4516 78.8343C14.5963 78.107 14.9534 77.439 15.4777 76.9147C16.002 76.3903 16.6701 76.0332 17.3974 75.8886C18.1246 75.7439 18.8785 75.8182 19.5636 76.1019C20.2486 76.3857 20.8342 76.8662 21.2462 77.4828C21.6581 78.0994 21.878 78.8242 21.878 79.5658C21.878 80.0581 21.781 80.5456 21.5926 81.0005C21.4042 81.4554 21.128 81.8687 20.7799 82.2169C20.4318 82.565 20.0184 82.8412 19.5636 83.0296C19.1087 83.218 18.6212 83.315 18.1288 83.315ZM18.1288 77.5512C17.7304 77.5512 17.3409 77.6694 17.0096 77.8908C16.6783 78.1121 16.4201 78.4267 16.2676 78.7948C16.1152 79.1629 16.0753 79.568 16.153 79.9588C16.2307 80.3495 16.4226 80.7085 16.7043 80.9902C16.9861 81.272 17.345 81.4638 17.7358 81.5415C18.1266 81.6193 18.5316 81.5794 18.8997 81.4269C19.2678 81.2744 19.5824 81.0162 19.8038 80.685C20.0252 80.3537 20.1433 79.9642 20.1433 79.5658C20.1433 79.0315 19.9311 78.5191 19.5533 78.1413C19.1755 77.7635 18.6631 77.5512 18.1288 77.5512Z" fill="#D7B46C" stroke="#D7B46C"/>
<path d="M18.9681 71.0601H17.2333V76.6839H18.9681V71.0601Z" fill="#D7B46C" stroke="#D7B46C"/>
<path d="M33.0697 54.1045H31.335V60.2264H33.0697V54.1045Z" fill="#D7B46C" stroke="#D7B46C"/>
</svg>
