<svg width="111" height="91" viewBox="0 0 111 91" fill="none" xmlns="http://www.w3.org/2000/svg">
<path d="M101.943 90.6H83.7175V85.8842C83.7175 83.9854 84.4674 82.1633 85.8041 80.8147C87.1408 79.466 88.9561 78.6999 90.8549 78.6831H94.806C96.7048 78.6999 98.5201 79.466 99.8568 80.8147C101.194 82.1633 101.943 83.9854 101.943 85.8842V90.6ZM85.8842 88.4333H99.7767V85.8842C99.7767 84.5659 99.253 83.3016 98.3208 82.3694C97.3886 81.4372 96.1243 80.9135 94.806 80.9135H90.8549C89.5366 80.9135 88.2723 81.4372 87.3401 82.3694C86.4079 83.3016 85.8842 84.5659 85.8842 85.8842V88.4333Z" fill="#D7B46C" stroke="#D7B46C" stroke-width="0.5"/>
<path d="M93.9138 35.9224H91.7471V79.8238H93.9138V35.9224Z" fill="#D7B46C" stroke="#D7B46C" stroke-width="0.5"/>
<path d="M92.8304 36.5596C89.3139 36.5596 85.8764 35.5168 82.9525 33.5632C80.0286 31.6095 77.7497 28.8327 76.404 25.5838C75.0583 22.335 74.7062 18.7601 75.3922 15.3111C76.0783 11.8622 77.7716 8.69414 80.2582 6.20759C82.7447 3.72104 85.9128 2.02768 89.3617 1.34164C92.8107 0.655604 96.3856 1.0077 99.6344 2.35341C102.883 3.69913 105.66 5.97801 107.614 8.90188C109.567 11.8258 110.61 15.2633 110.61 18.7798C110.593 23.4901 108.715 28.0028 105.384 31.3335C102.053 34.6642 97.5407 36.5428 92.8304 36.5596ZM92.8304 3.16672C89.7398 3.15411 86.7149 4.05907 84.139 5.76697C81.563 7.47487 79.5519 9.90887 78.3604 12.7607C77.169 15.6124 76.8507 18.7537 77.4459 21.7865C78.0411 24.8193 79.523 27.6073 81.704 29.7972C83.885 31.9871 86.6668 33.4805 89.6972 34.0881C92.7276 34.6957 95.8701 34.3902 98.7267 33.2104C101.583 32.0306 104.026 30.0295 105.744 27.4606C107.462 24.8916 108.38 21.8705 108.38 18.7798C108.38 14.65 106.744 10.6884 103.829 7.76216C100.915 4.83596 96.9602 3.18358 92.8304 3.16672Z" fill="#D7B46C" stroke="#D7B46C" stroke-width="0.5"/>
<path d="M90.1539 21.5201V27.7653H87.095V10.113H95.7619C97.3551 10.113 98.5021 10.5591 99.2031 11.3875C99.9041 12.216 100.223 13.7454 100.223 15.7847C100.223 17.8239 99.8404 19.2896 99.2031 20.1818C98.5659 21.074 97.3551 21.5201 95.7619 21.5201H90.1539ZM90.1539 18.27H95.1883C95.4708 18.3086 95.7585 18.2764 96.0255 18.1763C96.2924 18.0762 96.5303 17.9113 96.7178 17.6965C97.077 17.1274 97.2342 16.454 97.1639 15.7847C97.2182 15.1446 97.0854 14.5025 96.7815 13.9366C96.5909 13.705 96.345 13.5253 96.0666 13.4139C95.7881 13.3025 95.4861 13.2631 95.1883 13.2993H90.1539V18.27Z" fill="#D7B46C" stroke="#D7B46C" stroke-width="0.5"/>
<path d="M63.771 83.2715C63.4407 83.2694 63.1151 83.194 62.8175 83.0507C62.52 82.9075 62.2579 82.6999 62.0504 82.4431C61.8534 82.1702 61.7271 81.8528 61.6826 81.5192C61.6381 81.1856 61.6769 80.8462 61.7955 80.5312C62.3283 78.7124 62.5439 76.8153 62.4327 74.9233C62.1531 71.0582 60.4576 67.4321 57.6708 64.7394C54.884 62.0467 51.2018 60.4766 47.3294 60.3298C45.2449 60.27 43.1696 60.6301 41.227 61.3887C39.2844 62.1472 37.5143 63.2888 36.0219 64.7455C34.5296 66.2022 33.3455 67.9442 32.5401 69.8679C31.7348 71.7915 31.3246 73.8575 31.334 75.9429C31.4167 77.5428 31.6949 79.1265 32.1625 80.6587C32.2469 80.965 32.2562 81.287 32.1896 81.5977C32.1231 81.9083 31.9826 82.1983 31.7801 82.4431C31.5855 82.6985 31.335 82.9059 31.0478 83.0495C30.7606 83.1931 30.4443 83.2691 30.1232 83.2715H2.14709C1.85359 83.272 1.57108 83.1599 1.3577 82.9584C1.14432 82.7568 1.01631 82.4812 1 82.1881C0.999746 82.0404 1.02973 81.8941 1.08812 81.7583C1.1465 81.6225 1.23205 81.5001 1.3395 81.3987C1.44695 81.2972 1.57402 81.2188 1.71291 81.1682C1.85179 81.1177 1.99955 81.0961 2.14709 81.1048H30.1232C29.5397 79.4414 29.1964 77.7033 29.1036 75.9429C29.1113 73.567 29.5935 71.2166 30.5217 69.0295C31.45 66.8425 32.8057 64.8628 34.5093 63.2067C36.2129 61.5506 38.2301 60.2514 40.4425 59.3853C42.6549 58.5192 45.018 58.1037 47.3932 58.1631C50.1329 58.235 52.8185 58.9415 55.2389 60.2271C57.6593 61.5127 59.7485 63.3423 61.342 65.5721C62.9356 67.8018 63.9901 70.3708 64.4226 73.0771C64.8552 75.7834 64.6539 78.5532 63.8347 81.1685H68.6142C69.3011 81.1585 69.9672 80.931 70.5167 80.5188C71.0663 80.1067 71.4711 79.5309 71.6731 78.8743L79.0017 54.8493C79.1236 54.4979 79.2091 54.1349 79.2566 53.766C79.3061 53.407 79.3274 53.0448 79.3203 52.6826C79.3289 51.3226 78.9652 49.9862 78.2688 48.818C77.5724 47.6498 76.5697 46.6943 75.3693 46.055L53.511 34.5842C51.3311 33.4317 49.6689 31.4962 48.8589 29.1674C48.5402 28.3046 48.4548 27.3729 48.6115 26.4666C48.7681 25.5602 49.1612 24.7113 49.7511 24.0055L59.3101 12.917C59.3829 12.8292 59.4279 12.7216 59.4392 12.6081C59.4506 12.4946 59.4278 12.3803 59.3738 12.2797C59.3216 12.1888 59.2478 12.1121 59.1589 12.0565C59.0699 12.001 58.9687 11.9682 58.864 11.9611H2.14709C1.85359 11.9616 1.57108 11.8495 1.3577 11.648C1.14432 11.4465 1.01631 11.1708 1 10.8778C1 10.5735 1.12085 10.2818 1.33597 10.0666C1.55109 9.85153 1.84286 9.73067 2.14709 9.73067H58.864C59.396 9.72856 59.9166 9.88505 60.3593 10.1802C60.802 10.4753 61.1467 10.8957 61.3494 11.3876C61.586 11.8694 61.6759 12.4101 61.6079 12.9426C61.54 13.475 61.3171 13.9758 60.967 14.3827L51.4717 25.4712C51.1041 25.866 50.8552 26.3564 50.7538 26.8862C50.6523 27.416 50.7024 27.9637 50.8982 28.4664C51.5576 30.2473 52.851 31.7223 54.5306 32.6086L76.3889 44.0795C78.1768 44.9679 79.6314 46.4078 80.538 48.1866C81.4446 49.9653 81.755 51.9884 81.4233 53.9571C81.3544 54.4531 81.2479 54.9431 81.1047 55.4228L73.7124 79.4479C73.3937 80.5528 72.7237 81.5237 71.8038 82.2137C70.8839 82.9036 69.7641 83.275 68.6142 83.2715H63.771Z" fill="#D7B46C" stroke="#D7B46C" stroke-width="0.5"/>
<path d="M77.5997 64.1534H70.781C70.0255 64.1594 69.2763 64.0162 68.5764 63.7318C67.8765 63.4475 67.2396 63.0277 66.7024 62.4965C65.6237 61.4102 65.0071 59.9487 64.9818 58.418C64.9818 57.6594 65.1322 56.9083 65.4244 56.2083C65.7166 55.5083 66.1448 54.8731 66.6841 54.3397C67.2235 53.8063 67.8633 53.3852 68.5665 53.1007C69.2698 52.8162 70.0224 52.6741 70.781 52.6825H81.4233V53.7659H80.34V54.7855H70.781C69.8345 54.7855 68.9268 55.1615 68.2575 55.8308C67.5882 56.5 67.2123 57.4078 67.2123 58.3542C67.2036 58.8253 67.29 59.2932 67.4663 59.7301C67.6426 60.167 67.9051 60.5638 68.2382 60.8969C68.5714 61.2301 68.9682 61.4926 69.4051 61.6689C69.842 61.8452 70.3099 61.9316 70.781 61.9229H77.5997V64.1534Z" fill="#D7B46C" stroke="#D7B46C" stroke-width="0.5"/>
<path d="M46.8833 90.0902C44.0699 90.0902 41.3198 89.2551 38.9815 87.6907C36.6431 86.1264 34.8217 83.9031 33.748 81.3027C32.6743 78.7022 32.3966 75.8416 32.9501 73.0832C33.5037 70.3248 34.8635 67.7927 36.8573 65.8078C38.8511 63.8229 41.3893 62.4745 44.1501 61.9334C46.911 61.3923 49.7704 61.6828 52.366 62.7682C54.9616 63.8536 57.1766 65.6849 58.7305 68.0303C60.2843 70.3757 61.107 73.1295 61.0944 75.9429C61.0776 79.7008 59.5729 83.2991 56.9096 85.9504C54.2463 88.6018 50.6413 90.0903 46.8833 90.0902ZM46.8833 63.8985C44.5012 63.8985 42.1725 64.6049 40.1918 65.9283C38.2111 67.2518 36.6674 69.1328 35.7558 71.3337C34.8442 73.5345 34.6056 75.9562 35.0704 78.2926C35.5351 80.629 36.6822 82.7751 38.3667 84.4595C40.0511 86.144 42.1972 87.2911 44.5336 87.7558C46.87 88.2205 49.2917 87.982 51.4925 87.0704C53.6933 86.1588 55.5744 84.615 56.8979 82.6344C58.2213 80.6537 58.9277 78.325 58.9277 75.9429C58.9277 74.3612 58.6162 72.795 58.0109 71.3337C57.4056 69.8724 56.5184 68.5446 55.4 67.4262C54.2816 66.3078 52.9538 65.4206 51.4925 64.8153C50.0312 64.21 48.465 63.8985 46.8833 63.8985Z" fill="#D7B46C" stroke="#D7B46C" stroke-width="0.5"/>
<path d="M46.8834 82.9528C45.0242 82.9528 43.2412 82.2142 41.9266 80.8996C40.612 79.585 39.8734 77.802 39.8734 75.9428C39.8734 75.834 39.8948 75.7263 39.9365 75.6258C39.9781 75.5253 40.0391 75.434 40.1161 75.357C40.193 75.2801 40.2843 75.2191 40.3848 75.1774C40.4853 75.1358 40.5931 75.1144 40.7019 75.1144C40.8107 75.1144 40.9184 75.1358 41.0189 75.1774C41.1194 75.2191 41.2107 75.2801 41.2877 75.357C41.3646 75.434 41.4256 75.5253 41.4673 75.6258C41.5089 75.7263 41.5303 75.834 41.5303 75.9428C41.5429 76.9988 41.8675 78.0274 42.4633 78.8993C43.0591 79.7711 43.8994 80.4473 44.8786 80.8427C45.8578 81.2381 46.9321 81.3351 47.9662 81.1214C49.0004 80.9077 49.9482 80.3929 50.6905 79.6418C51.4328 78.8907 51.9363 77.9368 52.1378 76.9002C52.3392 75.8636 52.2295 74.7906 51.8226 73.8161C51.4156 72.8417 50.7295 72.0094 49.8506 71.424C48.9718 70.8385 47.9394 70.5261 46.8834 70.526C46.6637 70.526 46.4529 70.4388 46.2976 70.2834C46.1422 70.128 46.0549 69.9173 46.0549 69.6976C46.0549 69.4779 46.1422 69.2672 46.2976 69.1118C46.4529 68.9564 46.6637 68.8691 46.8834 68.8691C48.6354 69.036 50.2623 69.85 51.4463 71.1521C52.6303 72.4543 53.2864 74.151 53.2864 75.911C53.2864 77.6709 52.6303 79.3677 51.4463 80.6698C50.2623 81.9719 48.6354 82.7859 46.8834 82.9528Z" fill="#D7B46C" stroke="#D7B46C" stroke-width="0.5"/>
<path d="M25.9172 54.8492H20.0543C19.9121 54.8492 19.7712 54.8212 19.6398 54.7668C19.5083 54.7123 19.3889 54.6325 19.2883 54.5319C19.1877 54.4313 19.1079 54.3119 19.0535 54.1804C18.999 54.049 18.971 53.9081 18.971 53.7659C18.9623 53.6183 18.9839 53.4706 19.0344 53.3317C19.085 53.1928 19.1634 53.0657 19.2649 52.9583C19.3663 52.8508 19.4887 52.7653 19.6245 52.7069C19.7603 52.6485 19.9066 52.6185 20.0543 52.6188H25.9172C26.2214 52.6188 26.5132 52.7396 26.7283 52.9548C26.9435 53.1699 27.0643 53.4616 27.0643 53.7659C27.048 54.0589 26.92 54.3346 26.7066 54.5361C26.4932 54.7376 26.2107 54.8497 25.9172 54.8492Z" fill="#D7B46C" stroke="#D7B46C" stroke-width="0.5"/>
<path d="M41.8489 45.9912H2.59319C2.30014 45.9749 2.02449 45.8469 1.82297 45.6335C1.62144 45.4201 1.50937 45.1376 1.50983 44.8441V25.28C1.50937 24.9865 1.62144 24.7039 1.82297 24.4906C2.02449 24.2772 2.30014 24.1492 2.59319 24.1329H20.1818C25.1369 24.1412 29.9952 25.5055 34.2302 28.0779C38.4652 30.6504 41.9154 34.3329 44.2068 38.7263L45.4814 41.0842C45.5472 41.1553 45.5914 41.2438 45.6088 41.3391C45.7176 41.9085 45.6998 42.4948 45.5566 43.0564C45.4134 43.6181 45.1484 44.1414 44.7804 44.5892C44.4309 45.0308 43.9851 45.3866 43.477 45.6296C42.969 45.8726 42.4121 45.9963 41.8489 45.9912ZM3.67654 43.7608H41.8489C42.091 43.7683 42.3316 43.7206 42.5525 43.6212C42.7733 43.5218 42.9686 43.3734 43.1235 43.1872C43.3822 42.8157 43.4956 42.3622 43.4421 41.9127L42.295 39.746C40.1798 35.7109 37.0014 32.3311 33.1038 29.9723C29.2061 27.6135 24.7376 26.3655 20.1818 26.3633H3.67654V43.7608Z" fill="#D7B46C" stroke="#D7B46C" stroke-width="0.5"/>
</svg>
