<svg width="83" height="92" viewBox="0 0 83 92" fill="none" xmlns="http://www.w3.org/2000/svg">
<path d="M76.8296 90.8001H5.57035C5.31355 90.7858 5.07199 90.6736 4.89539 90.4866C4.71878 90.2996 4.62058 90.0521 4.62097 89.7949V9.87953C4.62097 8.66501 5.10344 7.50023 5.96224 6.64143C6.82103 5.78264 7.98581 5.30017 9.20033 5.30017H73.1996C74.4141 5.30017 75.5789 5.78264 76.4377 6.64143C77.2965 7.50023 77.779 8.66501 77.779 9.87953V89.7949C77.7794 90.0521 77.6811 90.2996 77.5045 90.4866C77.3279 90.6736 77.0864 90.7858 76.8296 90.8001ZM6.51973 88.8455H75.8802V9.87953C75.8659 9.17306 75.5789 8.4995 75.0793 7.99986C74.5796 7.50021 73.9061 7.2132 73.1996 7.19893H9.20033C8.49386 7.2132 7.8203 7.50021 7.32066 7.99986C6.82101 8.4995 6.53401 9.17306 6.51973 9.87953V88.8455Z" fill="#D7B46C" stroke="#D7B46C" stroke-width="0.5"/>
<path d="M81.0739 90.8H1.32609C1.19408 90.8 1.06336 90.774 0.941403 90.7235C0.819444 90.673 0.708629 90.5989 0.615285 90.5056C0.521942 90.4122 0.447898 90.3014 0.397381 90.1795C0.346863 90.0575 0.320862 89.9268 0.320862 89.7948V5.57935C0.320862 4.36483 0.803329 3.20006 1.66212 2.34126C2.52092 1.48247 3.6857 1 4.90022 1H77.4997C78.7143 1 79.879 1.48247 80.7378 2.34126C81.5966 3.20006 82.0791 4.36483 82.0791 5.57935V89.7948C82.0791 90.0614 81.9732 90.3171 81.7847 90.5056C81.5962 90.6941 81.3405 90.8 81.0739 90.8ZM2.27546 88.8454H80.1245V5.57935C80.1245 4.88323 79.848 4.21561 79.3557 3.72337C78.8635 3.23114 78.1959 2.9546 77.4997 2.9546H4.90022C4.20409 2.9546 3.53647 3.23114 3.04424 3.72337C2.552 4.21561 2.27546 4.88323 2.27546 5.57935V88.8454Z" fill="#D7B46C" stroke="#D7B46C" stroke-width="0.5"/>
<path d="M76.8296 90.7442C76.6305 90.7483 76.4351 90.6897 76.2711 90.5767L50.3028 71.3099C50.0767 71.1094 49.9366 70.8293 49.9119 70.528V25.5163C49.9366 25.2151 50.0767 24.935 50.3028 24.7345L75.0425 6.41705L76.1594 7.92489L51.8665 26.0189V70.0254L75.8802 87.8961V9.87949H77.779V89.7948C77.7895 89.9762 77.7477 90.1569 77.6586 90.3153C77.5695 90.4736 77.4369 90.6031 77.2764 90.6883L76.8296 90.7442Z" fill="#D7B46C" stroke="#D7B46C" stroke-width="0.5"/>
<path d="M5.57036 90.7442H5.12359C4.96308 90.659 4.8304 90.5295 4.74131 90.3711C4.65221 90.2127 4.61045 90.0321 4.62098 89.8507V9.87949H6.51974V87.8961L30.5334 70.0254V26.0189L6.24051 7.92489L7.35742 6.41705L32.0971 24.7345C32.3233 24.935 32.4633 25.2151 32.488 25.5163V70.528C32.4633 70.8293 32.3233 71.1094 32.0971 71.3099L6.12882 90.5767C5.96484 90.6897 5.76948 90.7483 5.57036 90.7442Z" fill="#D7B46C" stroke="#D7B46C" stroke-width="0.5"/>
<path d="M59.1265 55.6731L58.7914 55.5614L55.2731 53.6626C55.1588 53.5907 55.0635 53.4922 54.9954 53.3755C54.9273 53.2588 54.8885 53.1274 54.8822 52.9925V47.8546C54.8834 47.7186 54.9201 47.5852 54.9887 47.4677C55.0572 47.3501 55.1553 47.2525 55.2731 47.1845L58.7914 45.2857C58.9047 45.2313 59.0287 45.203 59.1544 45.203C59.2801 45.203 59.4041 45.2313 59.5174 45.2857C59.6291 45.3419 59.7211 45.4307 59.781 45.5405C59.8408 45.6503 59.8658 45.7757 59.8525 45.9V54.9471C59.8482 55.0684 59.8157 55.1872 59.7575 55.2938C59.6993 55.4004 59.6171 55.492 59.5174 55.5614L59.1265 55.6731ZM56.3342 52.5457L58.4005 53.7184V47.1286L56.3342 48.2456V52.5457Z" fill="#D7B46C" stroke="#D7B46C" stroke-width="0.5"/>
<path d="M23.6086 55.673L23.2735 55.5614C23.1634 55.4984 23.0703 55.4095 23.0022 55.3025C22.934 55.1955 22.893 55.0735 22.8826 54.9471V45.9C22.8969 45.7761 22.9406 45.6573 23.0102 45.5538C23.0798 45.4502 23.1731 45.3647 23.2825 45.3046C23.3918 45.2445 23.514 45.2114 23.6387 45.2081C23.7634 45.2048 23.8871 45.2314 23.9995 45.2857L27.2385 47.1845C27.346 47.2592 27.433 47.3597 27.4916 47.4768C27.5501 47.5939 27.5783 47.7238 27.5736 47.8546V52.9925C27.5869 53.1168 27.562 53.2422 27.5021 53.352C27.4422 53.4617 27.3503 53.5506 27.2385 53.6068L23.9995 55.5614L23.6086 55.673ZM24.3346 47.1845V53.6626L26.1775 52.6015V48.2456L24.3346 47.1845Z" fill="#D7B46C" stroke="#D7B46C" stroke-width="0.5"/>
</svg>
