<svg width="93" height="92" viewBox="0 0 93 92" fill="none" xmlns="http://www.w3.org/2000/svg">
<path d="M21.3777 91H10.3677C10.1257 91 9.89362 90.904 9.72251 90.7332C9.5514 90.5624 9.45526 90.3307 9.45526 90.0891V81.4057C9.45478 81.1582 9.54893 80.9198 9.71849 80.7393C9.88806 80.5587 10.1203 80.4495 10.3677 80.4341H21.3777C21.6252 80.4495 21.8574 80.5587 22.0269 80.7393C22.1965 80.9198 22.2906 81.1582 22.2902 81.4057V90.0891C22.2902 90.3307 22.194 90.5624 22.0229 90.7332C21.8518 90.904 21.6197 91 21.3777 91ZM11.341 89.1175H20.4045V82.3772H11.341V89.1175Z" fill="#D7B46C" stroke="#D7B46C"/>
<path d="M82.6324 91H71.6224C71.3804 91 71.1483 90.904 70.9772 90.7332C70.8061 90.5624 70.71 90.3307 70.71 90.0891V81.4057C70.7095 81.1582 70.8036 80.9198 70.9732 80.7393C71.1428 80.5587 71.375 80.4495 71.6224 80.4341H82.6324C82.8799 80.4495 83.1121 80.5587 83.2816 80.7393C83.4512 80.9198 83.5453 81.1582 83.5449 81.4057V90.0891C83.5449 90.3307 83.4487 90.5624 83.2776 90.7332C83.1065 90.904 82.8744 91 82.6324 91ZM72.5957 89.1175H81.6592V82.3772H72.5957V89.1175Z" fill="#D7B46C" stroke="#D7B46C"/>
<path d="M91.0267 82.3772H1.97326C1.71514 82.3772 1.46758 82.2749 1.28506 82.0927C1.10254 81.9105 1 81.6633 1 81.4057V72.8437C1.01594 70.3845 2.0016 68.0307 3.74352 66.2917C5.48545 64.5528 7.84342 63.5689 10.3068 63.553H82.6932C85.1566 63.5689 87.5145 64.5528 89.2565 66.2917C90.9984 68.0307 91.9841 70.3845 92 72.8437V81.4057C92 81.5333 91.9748 81.6596 91.9259 81.7775C91.877 81.8954 91.8053 82.0025 91.7149 82.0927C91.6246 82.1829 91.5173 82.2545 91.3992 82.3033C91.2811 82.3521 91.1545 82.3772 91.0267 82.3772ZM2.94652 80.4341H90.0535V72.8437C90.0535 70.895 89.278 69.0261 87.8977 67.6482C86.5174 66.2702 84.6453 65.4961 82.6932 65.4961H10.3068C8.35475 65.4961 6.48263 66.2702 5.1023 67.6482C3.72198 69.0261 2.94652 70.895 2.94652 72.8437V80.4341Z" fill="#D7B46C" stroke="#D7B46C"/>
<path d="M84.0315 65.4962H8.96862C8.7105 65.4962 8.46294 65.3939 8.28042 65.2116C8.0979 65.0294 7.99536 64.7823 7.99536 64.5246V45.2753H9.94189V63.5531H83.0582V45.0931H85.0047V64.5246C85.0047 64.7823 84.9022 65.0294 84.7197 65.2116C84.5371 65.3939 84.2896 65.4962 84.0315 65.4962Z" fill="#D7B46C" stroke="#D7B46C"/>
<path d="M84.0315 65.4962H8.96862C8.7105 65.4962 8.46294 65.3938 8.28042 65.2116C8.0979 65.0294 7.99536 64.7823 7.99536 64.5246V45.2753C8.00596 45.0986 8.06188 44.9276 8.15775 44.7787C8.25362 44.6299 8.38622 44.5081 8.54282 44.4251C20.2162 38.1981 33.2418 34.9252 46.4773 34.8934C59.7128 34.8617 72.754 38.072 84.4573 44.243C84.6103 44.3302 84.74 44.4531 84.8353 44.6011C84.9306 44.7491 84.9888 44.9179 85.0047 45.0931V64.5246C85.0047 64.7823 84.9022 65.0294 84.7197 65.2116C84.5371 65.3938 84.2896 65.4962 84.0315 65.4962ZM9.94189 63.553H83.0582V45.7003C71.7591 39.8438 59.2089 36.8017 46.4776 36.8334C33.7463 36.8651 21.2115 39.9697 9.94189 45.8825V63.553Z" fill="#D7B46C" stroke="#D7B46C"/>
<path d="M46.5609 29.305H46.2568C46.1676 29.3086 46.0786 29.2943 45.995 29.263C45.9115 29.2317 45.835 29.184 45.7702 29.1228L33.4219 16.6745C32.5575 15.8267 31.8709 14.8155 31.4022 13.7C30.9335 12.5844 30.6921 11.3868 30.6921 10.1771C30.6921 8.9674 30.9335 7.76982 31.4022 6.65425C31.8709 5.53869 32.5575 4.5275 33.4219 3.6797C34.2672 2.81516 35.2806 2.1322 36.3998 1.67274C37.5191 1.21329 38.7206 0.987036 39.9306 1.00787C41.1387 1.00091 42.3361 1.23351 43.4534 1.69216C44.5707 2.15082 45.5856 2.8264 46.4393 3.6797H46.5609C48.3028 1.96275 50.6521 1 53.1001 1C55.548 1 57.8973 1.96275 59.6392 3.6797C61.3408 5.41585 62.2936 7.74819 62.2936 10.1771C62.2936 12.606 61.3408 14.9384 59.6392 16.6745L47.2301 29.0621C47.1405 29.1453 47.0352 29.2097 46.9202 29.2514C46.8053 29.2931 46.6831 29.3113 46.5609 29.305ZM39.9306 2.8903C38.4843 2.88675 37.0695 3.31219 35.8658 4.11263C34.6621 4.91307 33.7238 6.05243 33.1698 7.38613C32.6159 8.71983 32.4713 10.1877 32.7544 11.6036C33.0376 13.0195 33.7357 14.3195 34.7601 15.3386L46.5001 27.0582L58.2401 15.3386C58.9206 14.6616 59.4605 13.8572 59.829 12.9715C60.1974 12.0858 60.387 11.1362 60.387 10.1771C60.387 9.21806 60.1974 8.26845 59.829 7.38273C59.4605 6.497 58.9206 5.69259 58.2401 5.01562C56.8408 3.70052 54.9915 2.9682 53.0696 2.9682C51.1478 2.9682 49.2984 3.70052 47.8992 5.01562L47.1692 5.80502C46.9885 5.97585 46.749 6.07106 46.5001 6.07106C46.2512 6.07106 46.0118 5.97585 45.831 5.80502L45.0402 5.01562C43.6863 3.65939 41.8486 2.89499 39.9306 2.8903Z" fill="#D7B46C" stroke="#D7B46C"/>
<path d="M74.1163 57.1165H73.8122C66.5868 54.4417 58.9999 52.8655 51.3055 52.4408C51.1776 52.4331 51.0525 52.4002 50.9374 52.3441C50.8222 52.288 50.7193 52.2097 50.6345 52.1138C50.5497 52.0179 50.4848 51.9062 50.4433 51.7852C50.4019 51.6641 50.3848 51.5361 50.3931 51.4085C50.3919 51.2779 50.4189 51.1487 50.4721 51.0294C50.5254 50.9102 50.6037 50.8037 50.7018 50.7174C50.7998 50.631 50.9154 50.5667 51.0405 50.5287C51.1657 50.4908 51.2975 50.4802 51.4272 50.4976C59.2894 50.9779 67.0374 52.6149 74.4205 55.3555C74.5443 55.3892 74.6597 55.4486 74.759 55.5299C74.8582 55.6111 74.9392 55.7123 74.9967 55.827C75.0541 55.9416 75.0866 56.067 75.0921 56.1951C75.0977 56.3231 75.0761 56.4508 75.0288 56.57C74.9358 56.731 74.8032 56.8657 74.6435 56.9613C74.4839 57.057 74.3024 57.1104 74.1163 57.1165Z" fill="#D7B46C" stroke="#D7B46C"/>
<path d="M18.8838 57.1164C18.6916 57.1042 18.5061 57.0416 18.3459 56.935C18.1857 56.8284 18.0565 56.6815 17.9713 56.5092C17.924 56.39 17.9024 56.2623 17.908 56.1342C17.9135 56.0062 17.946 55.8808 18.0034 55.7662C18.0608 55.6515 18.1418 55.5503 18.2411 55.4691C18.3404 55.3878 18.4558 55.3284 18.5796 55.2947C25.9626 52.5541 33.7107 50.9171 41.5729 50.4368C41.7007 50.4289 41.8289 50.4461 41.95 50.4875C42.0711 50.529 42.1829 50.5939 42.2789 50.6785C42.375 50.763 42.4534 50.8657 42.5097 50.9805C42.5659 51.0953 42.599 51.2201 42.607 51.3477C42.615 51.4753 42.5977 51.6032 42.5562 51.7241C42.5147 51.845 42.4497 51.9566 42.365 52.0525C42.2802 52.1483 42.1774 52.2266 42.0624 52.2828C41.9474 52.339 41.8224 52.372 41.6946 52.38C34.0001 52.8047 26.4133 54.3809 19.1879 57.0557L18.8838 57.1164Z" fill="#D7B46C" stroke="#D7B46C"/>
</svg>
