<svg width="111" height="76" viewBox="0 0 111 76" fill="none" xmlns="http://www.w3.org/2000/svg">
<path d="M24.573 53.2223V55.7333H17.0893V53.2223H24.573ZM17.881 37.7229V55.7333H14.8751V37.7229H17.881Z" fill="#D7B46C"/>
<path d="M37.0047 53.2223V55.7333H29.187V53.2223H37.0047ZM29.9786 37.7229V55.7333H26.9728V37.7229H29.9786ZM35.9532 45.219V47.693H29.187V45.219H35.9532ZM36.9305 37.7229V40.2464H29.187V37.7229H36.9305Z" fill="#D7B46C"/>
<path d="M43.907 55.7333H40.7775L40.8022 53.2223H43.907C44.8719 53.2223 45.6429 53.045 46.2202 52.6904C46.7974 52.3275 47.2139 51.775 47.4695 51.0328C47.7252 50.2906 47.853 49.3423 47.853 48.1878V45.2561C47.853 44.3655 47.7788 43.6068 47.6303 42.9801C47.4901 42.3451 47.2675 41.8297 46.9624 41.4339C46.6655 41.0298 46.2738 40.7329 45.7872 40.5432C45.3007 40.3453 44.7152 40.2464 44.0307 40.2464H40.7156V37.7229H44.0307C45.0615 37.7229 45.9934 37.8879 46.8263 38.2177C47.6592 38.5476 48.3725 39.0341 48.9663 39.6773C49.5683 40.3123 50.0301 41.0999 50.3517 42.04C50.6733 42.9801 50.8341 44.0604 50.8341 45.2809V48.1878C50.8341 49.4082 50.6733 50.4885 50.3517 51.4286C50.0301 52.3605 49.5683 53.148 48.9663 53.7913C48.3643 54.4263 47.6386 54.9087 46.7892 55.2385C45.9398 55.5684 44.9791 55.7333 43.907 55.7333ZM42.4969 37.7229V55.7333H39.491V37.7229H42.4969Z" fill="#D7B46C"/>
<path d="M57.4495 48.4104V55.7333H56.0393V37.7229H61.2717C62.8633 37.7229 64.1168 38.2012 65.0321 39.1578C65.9475 40.1144 66.4052 41.4297 66.4052 43.1038C66.4052 44.8108 65.9599 46.122 65.0693 47.0374C64.1869 47.9527 62.9128 48.4104 61.247 48.4104H57.4495ZM57.4495 47.0869H61.2717C62.4592 47.0869 63.3746 46.7446 64.0178 46.0602C64.6693 45.3675 64.995 44.3902 64.995 43.1285C64.995 41.8668 64.6652 40.8731 64.0055 40.1474C63.354 39.4217 62.4469 39.0589 61.2841 39.0589H57.4495V47.0869Z" fill="#D7B46C"/>
<path d="M71.9716 45.9117H73.3199C74.326 45.9035 75.1383 45.586 75.7568 44.9592C76.3835 44.3243 76.6969 43.479 76.6969 42.4234C76.6969 41.2607 76.4288 40.3618 75.8928 39.7268C75.3568 39.0836 74.5981 38.762 73.6168 38.762C72.6602 38.762 71.885 39.1042 71.2913 39.7887C70.7058 40.4649 70.413 41.3514 70.413 42.4482H69.04C69.04 41.5081 69.2296 40.6628 69.609 39.9124C69.9966 39.1537 70.545 38.5599 71.2542 38.1311C71.9634 37.6941 72.7509 37.4755 73.6168 37.4755C74.9692 37.4755 76.0495 37.9167 76.8577 38.7991C77.6658 39.6732 78.0699 40.8978 78.0699 42.4729C78.0699 43.3635 77.8349 44.1717 77.3648 44.8974C76.903 45.6231 76.2804 46.1591 75.497 46.5055C76.4041 46.8023 77.1051 47.326 77.5999 48.0764C78.0946 48.8186 78.342 49.7381 78.342 50.8349C78.342 52.4017 77.9132 53.6511 77.0556 54.5829C76.1979 55.5148 75.064 55.9807 73.6539 55.9807C72.755 55.9807 71.9304 55.7704 71.1799 55.3499C70.4295 54.9211 69.8481 54.3232 69.4358 53.5563C69.0317 52.7893 68.8297 51.8905 68.8297 50.8596H70.2027C70.2027 51.9812 70.5202 52.9048 71.1552 53.6305C71.7984 54.3479 72.6313 54.7066 73.6539 54.7066C74.7012 54.7066 75.5135 54.3809 76.0907 53.7294C76.6762 53.0697 76.969 52.1214 76.969 50.8844C76.969 49.6969 76.6556 48.7898 76.0289 48.163C75.4104 47.528 74.5033 47.2064 73.3075 47.1982H71.9716V45.9117Z" fill="#D7B46C"/>
<path d="M92.0111 59.0392V56.0613C103.34 56.0613 105.023 55.8024 105.217 55.7377C105.617 55.6011 105.977 55.3713 106.27 55.0673C106.563 54.7634 106.779 54.394 106.9 53.9898C107.224 53.3424 107.224 52.0477 107.224 50.2351V8.80409C107.224 6.99149 107.224 5.63203 106.965 5.0494C106.809 4.63573 106.567 4.26005 106.254 3.94748C105.942 3.6349 105.566 3.39261 105.152 3.2368C104.505 2.97785 103.21 2.97786 101.398 2.97786H26.7572C24.9446 2.97786 23.5852 2.97785 23.0025 3.2368C22.5867 3.36973 22.2069 3.59649 21.8926 3.89956C21.5783 4.20263 21.3379 4.57389 21.1899 4.98467C20.931 5.63203 20.931 6.99149 20.931 8.80409C20.7368 12.3646 20.672 16.5724 20.931 17.3492C20.8348 17.1141 20.6746 16.9106 20.4687 16.7619C20.2627 16.6131 20.0192 16.5251 19.7657 16.5077L19.5715 19.4855C18.1473 19.4208 17.3705 19.3561 17.8884 8.73936C17.8884 6.4736 17.8884 5.04941 18.4063 3.9489C18.697 3.14555 19.1609 2.41597 19.765 1.81186C20.3691 1.20775 21.0987 0.743895 21.902 0.453152C23.0025 5.01613e-07 24.4267 0 26.7572 0H101.398C103.728 0 105.088 5.01613e-07 106.253 0.453152C107.065 0.746656 107.801 1.21903 108.406 1.83533C109.011 2.45163 109.47 3.19609 109.749 4.01363C110.202 5.04941 110.202 6.4736 110.202 8.80409V50.2351C110.202 52.5656 110.202 53.9251 109.749 55.0903C109.455 55.9026 108.983 56.6385 108.367 57.2436C107.75 57.8487 107.006 58.3075 106.188 58.586C105.8 58.7155 105.088 59.0392 92.0111 59.0392Z" fill="#D7B46C"/>
<path d="M84.2428 76.0001H9.66692C7.27169 76.0001 5.91224 76.0001 4.74699 75.547C3.9347 75.2535 3.19878 74.7811 2.59369 74.1648C1.98859 73.5485 1.5298 72.804 1.25125 71.9865C0.798096 70.9507 0.798096 69.5265 0.798096 67.196V25.765C0.798096 23.4345 0.798096 22.0751 1.25125 20.9098C1.54475 20.0975 2.01712 19.3616 2.63343 18.7565C3.24973 18.1514 3.99418 17.6926 4.81173 17.4141C5.91224 16.9609 7.27169 16.9609 9.66692 16.9609H84.2428C86.5732 16.9609 87.9974 16.9609 89.1627 17.4141C89.9639 17.7268 90.6897 18.2058 91.2923 18.8196C91.8948 19.4333 92.3605 20.1678 92.6584 20.9746C93.1116 22.0751 93.1116 23.4345 93.1116 25.765V67.196C93.1116 69.5265 93.1116 70.9507 92.5937 72.0512C92.303 72.8546 91.8391 73.5842 91.235 74.1883C90.6309 74.7924 89.9013 75.2562 89.098 75.547C87.9974 76.0001 86.5732 76.0001 84.2428 76.0001ZM9.66692 19.9388C7.78958 19.9388 6.49486 19.9388 5.91224 20.1977C5.48697 20.3325 5.10032 20.5675 4.78487 20.883C4.46942 21.1984 4.23441 21.5851 4.09963 22.0103C3.77595 22.6577 3.77595 23.9524 3.77595 25.765V67.196C3.77595 69.0087 3.77595 70.3681 4.03489 70.9507C4.19071 71.3644 4.433 71.7401 4.74557 72.0527C5.05815 72.3652 5.43382 72.6075 5.8475 72.7633C6.49486 73.0223 7.78958 73.0223 9.66692 73.0223H84.2428C86.0554 73.0223 87.4148 73.0223 87.9974 72.7633C88.4133 72.6304 88.7931 72.4036 89.1074 72.1006C89.4217 71.7975 89.6621 71.4262 89.8101 71.0155C90.069 70.3681 90.069 69.0087 90.069 67.196V25.765C90.142 24.5317 90.0769 23.294 89.8748 22.0751C89.7308 21.6473 89.4935 21.2569 89.18 20.9322C88.8665 20.6075 88.4846 20.3566 88.0622 20.1977C87.4148 19.9388 86.0554 19.9388 84.2428 19.9388H9.66692Z" fill="#D7B46C"/>
</svg>
