<svg width="90" height="92" viewBox="0 0 90 92" fill="none" xmlns="http://www.w3.org/2000/svg">
<path d="M19.9356 58.3639H7.18193C5.54238 58.3639 3.96998 57.7126 2.81064 56.5532C1.65131 55.3939 1 53.8215 1 52.182V39.7624C0.999934 38.1177 1.64946 36.5395 2.80722 35.3713C3.96499 34.2031 5.53728 33.5395 7.18193 33.5248H19.9356V58.3639ZM7.18193 35.5297C6.06904 35.5444 5.00669 35.9968 4.22492 36.789C3.44314 37.5812 3.00485 38.6494 3.00495 39.7624V52.182C3.01937 53.2853 3.46408 54.3393 4.24431 55.1196C5.02454 55.8998 6.07861 56.3445 7.18193 56.3589H17.9307V35.5297H7.18193Z" fill="#D7B46C" stroke="#D7B46C"/>
<path d="M40.9877 70.3934C40.5822 70.3869 40.183 70.2918 39.8181 70.115L18.432 58.308C18.2892 58.2044 18.1705 58.0711 18.084 57.9173C17.9974 57.7635 17.9452 57.5928 17.9307 57.417V34.5828C17.9412 34.4136 17.9923 34.2494 18.0795 34.104C18.1667 33.9586 18.2876 33.8363 18.432 33.7474L39.8181 21.9405C40.1697 21.7236 40.5746 21.6088 40.9877 21.6088C41.4007 21.6088 41.8056 21.7236 42.1572 21.9405C42.518 22.1487 42.8166 22.4495 43.0222 22.8117C43.2278 23.174 43.333 23.5846 43.3268 24.0011V67.9986C43.3454 68.4174 43.2456 68.8328 43.0387 69.1973C42.8318 69.5619 42.5263 69.8606 42.1572 70.0593C41.8071 70.2798 41.4014 70.3957 40.9877 70.3934ZM19.9357 56.8043L40.7649 68.3328C40.8217 68.3736 40.8899 68.3955 40.9598 68.3955C41.0297 68.3955 41.0979 68.3736 41.1547 68.3328C41.2083 68.2955 41.2517 68.2454 41.2809 68.187C41.3101 68.1286 41.3242 68.0639 41.3218 67.9986V24.0011C41.3113 23.8724 41.2514 23.7526 41.1547 23.667C41.0979 23.6262 41.0297 23.6042 40.9598 23.6042C40.8899 23.6042 40.8217 23.6262 40.7649 23.667L19.9357 35.1954V56.8043Z" fill="#D7B46C" stroke="#D7B46C"/>
<path d="M62.0397 46.3342H49.2303C48.9644 46.3342 48.7094 46.2286 48.5214 46.0406C48.3334 45.8526 48.2278 45.5976 48.2278 45.3317C48.2278 45.0658 48.3334 44.8108 48.5214 44.6228C48.7094 44.4348 48.9644 44.3292 49.2303 44.3292H62.0397C62.3055 44.3292 62.5605 44.4348 62.7485 44.6228C62.9365 44.8108 63.0421 45.0658 63.0421 45.3317C63.0421 45.5976 62.9365 45.8526 62.7485 46.0406C62.5605 46.2286 62.3055 46.3342 62.0397 46.3342Z" fill="#D7B46C" stroke="#D7B46C"/>
<path d="M50.734 37.0891C50.4402 37.0849 50.1599 36.9648 49.9543 36.7549C49.7946 36.5471 49.7226 36.285 49.7538 36.0247C49.7851 35.7644 49.917 35.5268 50.1214 35.3626L59.8676 27.12C60.0686 26.9539 60.3264 26.8725 60.5864 26.8933C60.8463 26.9141 61.088 27.0354 61.26 27.2314C61.3509 27.3323 61.4203 27.4506 61.4641 27.5792C61.5079 27.7078 61.5251 27.8439 61.5147 27.9793C61.5043 28.1147 61.4665 28.2466 61.4035 28.367C61.3406 28.4873 61.2539 28.5936 61.1486 28.6794L51.4023 36.8663C51.2115 37.0147 50.9757 37.0933 50.734 37.0891Z" fill="#D7B46C" stroke="#D7B46C"/>
<path d="M60.5359 63.7105C60.2942 63.7147 60.0584 63.6361 59.8676 63.4877L50.1213 55.3008C49.9132 55.1269 49.7798 54.8796 49.7487 54.6102C49.7176 54.3407 49.7912 54.0696 49.9542 53.8528C50.1424 53.6641 50.3919 53.5491 50.6576 53.5287C50.9233 53.5082 51.1875 53.5837 51.4022 53.7414L61.1485 61.984C61.2522 62.0647 61.3379 62.1661 61.4003 62.2817C61.4627 62.3973 61.5003 62.5247 61.5108 62.6556C61.5212 62.7866 61.5043 62.9183 61.4612 63.0424C61.418 63.1664 61.3494 63.2802 61.2599 63.3763C61.1735 63.4844 61.063 63.5709 60.9374 63.6289C60.8117 63.6869 60.6742 63.7148 60.5359 63.7105Z" fill="#D7B46C" stroke="#D7B46C"/>
<path d="M88.4382 91H75.7959C75.6642 91 75.5339 90.9741 75.4123 90.9237C75.2906 90.8733 75.1801 90.7995 75.087 90.7064C74.9939 90.6133 74.9201 90.5028 74.8697 90.3811C74.8193 90.2595 74.7934 90.1292 74.7934 89.9975V82.646C73.115 81.9045 71.6882 80.6912 70.6866 79.1537C69.685 77.6162 69.1517 75.8207 69.1517 73.9858C69.1517 72.1508 69.685 70.3554 70.6866 68.8179C71.6882 67.2804 73.115 66.067 74.7934 65.3255V53.9641C73.115 53.2226 71.6882 52.0092 70.6866 50.4717C69.685 48.9342 69.1517 47.1388 69.1517 45.3038C69.1517 43.4689 69.685 41.6734 70.6866 40.1359C71.6882 38.5984 73.115 37.3851 74.7934 36.6436V25.2822C73.115 24.5406 71.6882 23.3273 70.6866 21.7898C69.685 20.2523 69.1517 18.4569 69.1517 16.6219C69.1517 14.7869 69.685 12.9915 70.6866 11.454C71.6882 9.9165 73.115 8.70318 74.7934 7.96163V2.00247C74.7934 1.7366 74.899 1.48162 75.087 1.29362C75.275 1.10562 75.53 1 75.7959 1H88.4382C88.7041 1 88.9591 1.10562 89.1471 1.29362C89.3351 1.48162 89.4407 1.7366 89.4407 2.00247V89.9975C89.4407 90.1292 89.4148 90.2595 89.3644 90.3811C89.314 90.5028 89.2402 90.6133 89.1471 90.7064C89.054 90.7995 88.9435 90.8733 88.8218 90.9237C88.7002 90.9741 88.5699 91 88.4382 91ZM76.7984 88.995H87.4357V3.00495H76.7984V8.62995C76.8076 8.8395 76.747 9.04618 76.626 9.21754C76.505 9.3889 76.3306 9.51524 76.13 9.57673C74.6687 10.0873 73.4023 11.0397 72.5063 12.302C71.6102 13.5643 71.1289 15.0739 71.1289 16.6219C71.1289 18.1699 71.6102 19.6795 72.5063 20.9418C73.4023 22.2041 74.6687 23.1565 76.13 23.6671C76.3306 23.7286 76.505 23.8549 76.626 24.0263C76.747 24.1976 76.8076 24.4043 76.7984 24.6139V37.3119C76.8076 37.5214 76.747 37.7281 76.626 37.8995C76.505 38.0708 76.3306 38.1972 76.13 38.2587C74.6687 38.7693 73.4023 39.7217 72.5063 40.9839C71.6102 42.2462 71.1289 43.7559 71.1289 45.3038C71.1289 46.8518 71.6102 48.3615 72.5063 49.6237C73.4023 50.886 74.6687 51.8384 76.13 52.349C76.3306 52.4105 76.505 52.5368 76.626 52.7082C76.747 52.8796 76.8076 53.0862 76.7984 53.2958V66.0495C76.7911 66.2552 76.724 66.4544 76.6053 66.6225C76.4866 66.7907 76.3215 66.9206 76.13 66.9963C74.6622 67.4923 73.3868 68.4362 72.4835 69.695C71.5801 70.9538 71.0942 72.4642 71.0942 74.0136C71.0942 75.563 71.5801 77.0734 72.4835 78.3322C73.3868 79.5911 74.6622 80.5349 76.13 81.0309C76.3306 81.0924 76.505 81.2188 76.626 81.3901C76.747 81.5615 76.8076 81.7682 76.7984 81.9777V88.995Z" fill="#D7B46C" stroke="#D7B46C"/>
</svg>
