<svg width="80" height="80" viewBox="0 0 80 80" fill="none" xmlns="http://www.w3.org/2000/svg">
<path fill-rule="evenodd" clip-rule="evenodd" d="M0.00271399 31.2077L0.00543983 62.4155L1.34292 63.3217C4.14563 65.2213 7.51728 65.1892 10.485 63.2344C11.6245 62.4842 12.374 61.464 13.5643 59.0442C15.4167 55.2785 16.1915 52.4846 16.701 47.7295C17.1087 43.9281 17.1437 29.852 16.7503 28.0645L16.5049 26.9503L13.7383 29.8504C12.2163 31.4454 10.2159 33.8164 9.29281 35.1192C8.36931 36.422 7.50407 37.4879 7.3697 37.4879C6.86602 37.4879 5.45243 35.687 4.87301 34.3065C4.00854 32.2481 4.10058 28.8089 5.07301 26.8093C5.87844 25.154 11.4408 19.5722 14.0431 17.8075L15.4245 16.8715L14.5301 12.7834C13.654 8.77913 12.1091 3.17295 11.3002 1.0628L10.8932 0H5.4466H0L0.00271399 31.2077ZM20.5771 0.289855C20.5744 0.449469 21.2295 3.14628 22.0334 6.28329C23.2155 10.8966 23.6066 11.9386 24.0777 11.7329C26.7887 10.5507 33.8513 8.41855 36.6528 7.93662C40.6066 7.25604 47.5678 7.16522 51.2621 7.74531C61.9573 9.42531 70.1111 16.2296 73.2427 26.087C76.0233 34.8394 74.1639 42.9658 67.9806 49.0848C64.6447 52.3861 61.3825 54.2006 57.1988 55.0829C53.2256 55.9208 50.1173 55.7109 45.1456 54.2694C44.6276 54.1194 44.2718 54.1836 44.2718 54.4271C44.2718 54.6531 45.5157 56.6891 47.0357 58.9515C51.7759 66.0058 58.6586 72.0947 66.2517 75.9505C70.3476 78.0309 76.28 80 78.4513 80H80V40V0H50.2913C33.9515 0 20.5802 0.130242 20.5771 0.289855ZM38.2524 16.4924C33.9146 17.4454 31.0637 18.3293 28.3604 19.559L25.1483 21.0199L25.3911 23.5536C25.953 29.4234 26.1021 41.3882 25.6761 46.4232C24.7192 57.7333 21.1682 66.2713 15.7783 70.2199C12.5487 72.5859 9.04349 73.5857 4.92077 73.3167C3.17553 73.2027 1.35456 72.9874 0.873786 72.8383C0.00932036 72.5697 0 72.6064 0 76.2833V80L27.6699 79.9876L55.3398 79.9757L54.3297 79.1181C53.774 78.6466 52.0412 77.2174 50.4788 75.942C44.8027 71.3086 38.5414 63.1432 35.195 56.01C32.3173 49.8759 31.0874 44.7737 30.9825 38.5376C30.9278 35.2785 31.0338 34.6663 31.9903 32.7212C33.2734 30.1113 35.2458 28.3911 37.8377 27.6216C41.1701 26.6323 43.7942 27.0929 46.0497 29.064C50.3002 32.7776 49.3825 38.9619 44.2466 41.217C43.4062 41.5861 42.7184 42.0128 42.7184 42.1658C42.7184 42.6508 45.0882 44.4502 47.1429 45.525C48.8664 46.4271 49.5841 46.5635 52.6214 46.5666C55.6676 46.5697 56.4008 46.4309 58.3313 45.4879C62.7394 43.3333 65.6357 38.7324 65.6264 33.8984C65.6109 25.7747 59.9608 18.6937 52.0051 16.8274C49.6629 16.2783 40.2691 16.0491 38.2524 16.4924Z" fill="#D7B46C" fill-opacity="0.25"/>
</svg>
