<svg width="50" height="50" viewBox="0 0 50 50" fill="none" xmlns="http://www.w3.org/2000/svg">
<path d="M35.5962 48.7146H14.4036C10.9239 48.7071 7.5889 47.2705 5.12841 44.7193C2.66792 42.1681 1.28242 38.7102 1.27515 35.1023V14.8977C1.28242 11.2898 2.66792 7.83185 5.12841 5.28067C7.5889 2.72949 10.9239 1.29291 14.4036 1.28537H35.5962C39.0759 1.29291 42.4109 2.72949 44.8714 5.28067C47.3319 7.83185 48.7174 11.2898 48.7247 14.8977V35.1023C48.7174 38.7102 47.3319 42.1681 44.8714 44.7193C42.4109 47.2705 39.0759 48.7071 35.5962 48.7146ZM14.4036 1.79904C11.0553 1.80658 7.8463 3.18904 5.47872 5.64389C3.11114 8.09874 1.77783 11.4261 1.77056 14.8977V35.1023C1.77783 38.5739 3.11114 41.9013 5.47872 44.3561C7.8463 46.811 11.0553 48.1934 14.4036 48.201H35.5962C38.9445 48.1934 42.1535 46.811 44.5211 44.3561C46.8887 41.9013 48.222 38.5739 48.2293 35.1023V14.8977C48.222 11.4261 46.8887 8.09874 44.5211 5.64389C42.1535 3.18904 38.9445 1.80658 35.5962 1.79904H14.4036Z" fill="#D7B46C" stroke="#D7B46C" stroke-width="2"/>
<path d="M35.5963 49H14.4037C10.851 48.9925 7.44598 47.5258 4.93388 44.9211C2.42178 42.3164 1.00727 38.7858 1 35.1023V14.8977C1.00727 11.2141 2.42178 7.68358 4.93388 5.07888C7.44598 2.47418 10.851 1.00754 14.4037 1H35.5963C39.149 1.00754 42.554 2.47418 45.0661 5.07888C47.5782 7.68358 48.9927 11.2141 49 14.8977V35.1023C48.9927 38.7858 47.5782 42.3164 45.0661 44.9211C42.554 47.5258 39.149 48.9925 35.5963 49ZM14.4037 2.08442C11.1284 2.09196 7.98938 3.44435 5.67342 5.84568C3.35745 8.24701 2.05314 11.5018 2.04587 14.8977V35.1023C2.05314 38.4982 3.35745 41.753 5.67342 44.1543C7.98938 46.5556 11.1284 47.908 14.4037 47.9156H35.5963C38.8716 47.908 42.0106 46.5556 44.3266 44.1543C46.6425 41.753 47.9469 38.4982 47.9541 35.1023V14.8977C47.9469 11.5018 46.6425 8.24701 44.3266 5.84568C42.0106 3.44435 38.8716 2.09196 35.5963 2.08442H14.4037Z" fill="#D7B46C" stroke="#D7B46C" stroke-width="2"/>
<path d="M15.2462 14.2536L14.5456 14.9801L34.4191 35.5861L35.1197 34.8597L15.2462 14.2536Z" fill="#D7B46C" stroke="#D7B46C" stroke-width="2"/>
<path d="M23.1285 14.4982H14.2936C14.1622 14.4982 14.0362 14.4441 13.9433 14.3477C13.8504 14.2514 13.7982 14.1208 13.7982 13.9845C13.7982 13.8483 13.8504 13.7176 13.9433 13.6213C14.0362 13.525 14.1622 13.4708 14.2936 13.4708H23.1285C23.2599 13.4708 23.3859 13.525 23.4788 13.6213C23.5717 13.7176 23.6239 13.8483 23.6239 13.9845C23.6239 14.1208 23.5717 14.2514 23.4788 14.3477C23.3859 14.4441 23.2599 14.4982 23.1285 14.4982Z" fill="#D7B46C" stroke="#D7B46C" stroke-width="2"/>
<path d="M14.2935 23.6587C14.1595 23.6589 14.0304 23.6057 13.9331 23.5101C13.8358 23.4145 13.7776 23.2838 13.7706 23.145V13.9845C13.7776 13.8457 13.8358 13.715 13.9331 13.6194C14.0304 13.5238 14.1595 13.4706 14.2935 13.4708C14.4249 13.4708 14.5509 13.525 14.6438 13.6213C14.7367 13.7176 14.7889 13.8483 14.7889 13.9845V23.145C14.7889 23.2813 14.7367 23.4119 14.6438 23.5083C14.5509 23.6046 14.4249 23.6587 14.2935 23.6587Z" fill="#D7B46C" stroke="#D7B46C" stroke-width="2"/>
<path d="M35.3762 36.3864H26.5413C26.4074 36.3791 26.2814 36.3188 26.1892 36.2178C26.097 36.1169 26.0457 35.9832 26.0459 35.8442C26.0459 35.7767 26.0587 35.7099 26.0836 35.6476C26.1085 35.5853 26.145 35.5287 26.191 35.481C26.237 35.4333 26.2916 35.3954 26.3517 35.3696C26.4118 35.3438 26.4763 35.3305 26.5413 35.3305H35.3762C35.5102 35.3303 35.6392 35.3835 35.7365 35.4791C35.8339 35.5747 35.8921 35.7054 35.8991 35.8442C35.8924 35.9858 35.8352 36.1197 35.7385 36.2199C35.6419 36.3201 35.5127 36.3795 35.3762 36.3864Z" fill="#D7B46C" stroke="#D7B46C" stroke-width="2"/>
<path d="M35.3762 36.3865C35.2423 36.3791 35.1162 36.3188 35.024 36.2179C34.9319 36.117 34.8806 35.9832 34.8807 35.8442V26.6837C34.8807 26.5475 34.9329 26.4168 35.0258 26.3205C35.1187 26.2242 35.2448 26.17 35.3762 26.17C35.5102 26.1699 35.6392 26.223 35.7365 26.3186C35.8338 26.4142 35.892 26.5449 35.8991 26.6837V35.8442C35.8924 35.9858 35.8352 36.1197 35.7385 36.22C35.6419 36.3202 35.5127 36.3795 35.3762 36.3865Z" fill="#D7B46C" stroke="#D7B46C" stroke-width="2"/>
</svg>
