<svg width="50" height="50" viewBox="0 0 50 50" fill="none" xmlns="http://www.w3.org/2000/svg">
<path d="M35.5963 49H14.4037C10.851 48.9925 7.44598 47.5258 4.93388 44.9211C2.42178 42.3164 1.00727 38.7858 1 35.1023V14.8977C1.00727 11.2141 2.42178 7.68358 4.93388 5.07888C7.44598 2.47418 10.851 1.00754 14.4037 1H35.5963C39.149 1.00754 42.554 2.47418 45.0661 5.07888C47.5782 7.68358 48.9927 11.2141 49 14.8977V35.1023C48.9927 38.7858 47.5782 42.3164 45.0661 44.9211C42.554 47.5258 39.149 48.9925 35.5963 49ZM14.4037 2.08442C11.1284 2.09196 7.98938 3.44435 5.67342 5.84568C3.35745 8.24701 2.05314 11.5018 2.04587 14.8977V35.1023C2.05314 38.4982 3.35745 41.753 5.67342 44.1543C7.98938 46.5556 11.1284 47.908 14.4037 47.9156H35.5963C38.8716 47.908 42.0106 46.5556 44.3266 44.1543C46.6425 41.753 47.9469 38.4982 47.9541 35.1023V14.8977C47.9469 11.5018 46.6425 8.24701 44.3266 5.84568C42.0106 3.44435 38.8716 2.09196 35.5963 2.08442H14.4037Z" fill="#D7B46C" stroke="#D7B46C" stroke-width="2"/>
<path d="M23.2239 23.4767C24.4355 22.9208 25.426 21.95 26.0294 20.7271C26.6329 19.5041 26.8127 18.1033 26.5387 16.7593C26.2647 15.4153 25.5535 14.2097 24.5243 13.3446C23.4952 12.4795 22.2106 12.0074 20.8857 12.0074C19.5608 12.0074 18.2762 12.4795 17.247 13.3446C16.2179 14.2097 15.5067 15.4153 15.2327 16.7593C14.9587 18.1033 15.1385 19.5041 15.7419 20.7271C16.3454 21.95 17.3359 22.9208 18.5474 23.4767C16.2098 23.9349 14.0996 25.2245 12.5808 27.1232C11.062 29.0219 10.2299 31.4106 10.2279 33.8773V35.4409C10.2279 36.1352 10.4939 36.801 10.9674 37.2919C11.4408 37.7828 12.083 38.0586 12.7526 38.0586H29.0188C29.6884 38.0586 30.3305 37.7828 30.804 37.2919C31.2775 36.801 31.5434 36.1352 31.5434 35.4409V33.8773C31.5414 31.4106 30.7093 29.0219 29.1905 27.1232C27.6718 25.2245 25.5616 23.9349 23.2239 23.4767ZM16.3447 18.0129C16.3413 17.0809 16.6048 16.1689 17.1017 15.3923C17.5987 14.6157 18.3067 14.0095 19.1361 13.6504C19.9656 13.2913 20.8792 13.1956 21.7611 13.3753C22.6431 13.555 23.4538 14.002 24.0906 14.6598C24.7274 15.3175 25.1615 16.1565 25.3381 17.0703C25.5147 17.9841 25.4258 18.9317 25.0826 19.793C24.7394 20.6544 24.1574 21.3908 23.4103 21.9089C22.6631 22.4271 21.7845 22.7037 20.8857 22.7037C19.6843 22.7037 18.5318 22.21 17.6807 21.3309C16.8296 20.4517 16.3492 19.2586 16.3447 18.0129ZM30.3065 35.4409C30.3065 35.795 30.1709 36.1346 29.9294 36.385C29.6879 36.6354 29.3603 36.7761 29.0188 36.7761H12.7526C12.411 36.7761 12.0835 36.6354 11.842 36.385C11.6005 36.1346 11.4648 35.795 11.4648 35.4409V33.8773C11.4648 31.4124 12.4092 29.0485 14.0901 27.3056C15.7711 25.5627 18.051 24.5835 20.4282 24.5835H21.3262C23.705 24.5835 25.9866 25.5621 27.6703 27.3045C29.3539 29.047 30.302 31.4108 30.3065 33.8773V35.4409Z" fill="#D7B46C" stroke="#D7B46C"/>
<path d="M33.526 23.7578C34.5035 23.2609 35.2896 22.435 35.756 21.415C36.2223 20.395 36.3413 19.2412 36.0934 18.1421C35.8456 17.0429 35.2457 16.0633 34.3916 15.3634C33.5375 14.6634 32.4797 14.2845 31.3911 14.2884C30.7282 14.2887 30.0723 14.4291 29.4634 14.7009C28.8546 14.9728 28.3055 15.3704 27.8498 15.8695C28.0319 16.4666 28.129 17.0881 28.1378 17.7142C28.5021 16.9144 29.129 16.2751 29.9063 15.9108C30.6836 15.5464 31.5606 15.4808 32.3803 15.7256C33.2 15.9704 33.9089 16.5097 34.3802 17.247C34.8515 17.9842 35.0543 18.8713 34.9524 19.7495C34.8505 20.6276 34.4506 21.4395 33.8241 22.0399C33.1976 22.6402 32.3856 22.9898 31.5332 23.026C30.6809 23.0623 29.844 22.7828 29.1722 22.2377C28.5004 21.6926 28.0376 20.9174 27.8667 20.0508C27.7115 20.6408 27.4837 21.2077 27.189 21.7374C27.6602 22.6161 28.3823 23.3219 29.2561 23.7578C28.9171 23.8564 28.5834 23.9737 28.2564 24.1092C28.6523 24.4014 29.0261 24.7245 29.3747 25.0755C30.03 24.878 30.7088 24.7775 31.3911 24.7768C33.4014 24.7768 35.3296 25.6036 36.7527 27.0759C38.1758 28.5481 38.9775 30.5455 38.982 32.6299V33.4732C38.982 33.6108 38.9556 33.7471 38.9043 33.874C38.853 34.0009 38.7778 34.116 38.6832 34.2125C38.5886 34.3089 38.4764 34.3849 38.3531 34.436C38.2299 34.487 38.098 34.5121 37.9653 34.5098H33.0346V35.4409C33.0374 35.5641 33.0318 35.6874 33.0177 35.8099H37.9653C38.5617 35.8053 39.1323 35.5576 39.5539 35.1204C39.9756 34.6832 40.2145 34.0915 40.2189 33.4732V32.6299C40.2139 30.5899 39.5531 28.6098 38.3409 27.0029C37.1287 25.3961 35.4344 24.2541 33.526 23.7578Z" fill="#D7B46C" stroke="#D7B46C"/>
</svg>
