<svg width="126" height="73" viewBox="0 0 126 73" fill="none" xmlns="http://www.w3.org/2000/svg">
<path d="M124.506 72.2357H124.208L116.59 70.7421C81.2972 63.8708 45.0105 63.8708 9.71784 70.7421L2.02544 72.2357C1.81097 72.269 1.59172 72.2527 1.38456 72.1879C1.17741 72.1232 0.987859 72.0118 0.830504 71.8623C0.655132 71.7356 0.51505 71.5662 0.423555 71.3701C0.33206 71.174 0.292187 70.9579 0.30772 70.7421V1.51046C0.292187 1.29466 0.33206 1.07847 0.423555 0.882405C0.51505 0.686344 0.655132 0.516918 0.830504 0.390206C0.987859 0.240724 1.17741 0.129328 1.38456 0.064591C1.59172 -0.000145881 1.81097 -0.0164982 2.02544 0.0167885L9.71784 1.51046C45.0105 8.38174 81.2972 8.38174 116.59 1.51046L124.208 0.0167885C124.434 -0.0123941 124.663 0.00573329 124.882 0.0700183C125.1 0.134303 125.303 0.243341 125.477 0.390206C125.639 0.528798 125.77 0.70048 125.86 0.893709C125.95 1.08694 125.998 1.29723 126 1.51046V70.7421C125.998 70.9553 125.95 71.1656 125.86 71.3588C125.77 71.552 125.639 71.7237 125.477 71.8623C125.206 72.0936 124.863 72.2253 124.506 72.2357V72.2357ZM63.1165 62.6016C81.2667 62.594 99.3749 64.3448 117.187 67.8294L123.013 68.9497V3.30286L117.187 4.42311C81.507 11.4427 44.8007 11.4427 9.12037 4.42311L3.22038 3.30286V68.9497L9.12037 67.8294C26.9083 64.3487 44.9913 62.5979 63.1165 62.6016V62.6016Z" fill="#D7B46C"/>
<path d="M15.2445 56.6269C15.1267 56.6372 15.0081 56.624 14.8954 56.5882C14.7827 56.5523 14.6783 56.4946 14.588 56.4182C14.4978 56.3419 14.4236 56.2484 14.3696 56.1432C14.3156 56.0381 14.283 55.9232 14.2736 55.8054C14.2406 55.6823 14.2342 55.5536 14.2549 55.4279C14.2756 55.3022 14.3229 55.1823 14.3936 55.0763C14.4642 54.9703 14.5567 54.8806 14.6648 54.8131C14.7729 54.7457 14.8941 54.7021 15.0204 54.6852C46.673 49.2088 79.0289 49.1835 110.69 54.6105C110.823 54.6173 110.952 54.6536 111.07 54.7167C111.187 54.7799 111.288 54.8683 111.367 54.9755C111.445 55.0828 111.499 55.2062 111.524 55.3368C111.549 55.4674 111.545 55.602 111.511 55.7307C111.493 55.8589 111.45 55.9821 111.383 56.0932C111.317 56.2042 111.229 56.3008 111.124 56.3774C111.02 56.4539 110.901 56.5088 110.775 56.5389C110.65 56.5689 110.519 56.5734 110.391 56.5522C78.9526 51.1629 46.824 51.1881 15.3938 56.6269H15.2445Z" fill="#D7B46C" stroke="#D7B46C"/>
<path d="M29.1355 54.3864L27.7166 52.9674L44.7444 36.0889C44.9464 35.9457 45.1749 35.8442 45.4165 35.7902C45.6901 35.8112 45.9508 35.9154 46.1634 36.0889L60.1292 50.8762L58.7102 52.2952L45.4165 38.2547L29.1355 54.3864Z" fill="#D7B46C" stroke="#D7B46C"/>
<path d="M89.7786 53.5648L65.0584 28.0978L50.271 41.9142L48.8521 40.4206L64.3862 25.932C64.5886 25.7633 64.8473 25.6774 65.1103 25.6912C65.3734 25.7051 65.6216 25.8177 65.8052 26.0066L91.1976 52.2205L89.7786 53.5648Z" fill="#D7B46C" stroke="#D7B46C"/>
<path d="M90.4506 31.6826C89.0326 31.6826 87.6464 31.2621 86.4674 30.4743C85.2884 29.6865 84.3694 28.5668 83.8268 27.2567C83.2841 25.9466 83.1421 24.505 83.4188 23.1143C83.6954 21.7235 84.3783 20.446 85.3809 19.4433C86.3836 18.4406 87.6611 17.7578 89.0519 17.4811C90.4427 17.2045 91.8842 17.3465 93.1943 17.8891C94.5044 18.4318 95.6241 19.3507 96.4119 20.5298C97.1997 21.7088 97.6202 23.095 97.6202 24.513C97.6202 26.4145 96.8649 28.2381 95.5203 29.5827C94.1757 30.9272 92.3521 31.6826 90.4506 31.6826V31.6826ZM90.4506 19.3598C89.7739 19.3598 89.1038 19.4931 88.4786 19.7521C87.8534 20.0111 87.2853 20.3906 86.8068 20.8692C86.3283 21.3477 85.9487 21.9158 85.6897 22.541C85.4307 23.1662 85.2975 23.8363 85.2975 24.513C85.2827 25.5532 85.5786 26.5741 86.1473 27.4452C86.716 28.3163 87.5317 28.9978 88.49 29.4027C89.4482 29.8076 90.5055 29.9175 91.5265 29.7181C92.5475 29.5188 93.4858 29.0194 94.2214 28.2838C94.957 27.5482 95.4564 26.6099 95.6558 25.5889C95.8551 24.5679 95.7453 23.5106 95.3404 22.5523C94.9355 21.5941 94.2539 20.7784 93.3828 20.2097C92.5117 19.641 91.4908 19.3451 90.4506 19.3598V19.3598Z" fill="#D7B46C" stroke="#D7B46C"/>
</svg>
