<svg width="113" height="88" viewBox="0 0 113 88" fill="none" xmlns="http://www.w3.org/2000/svg">
<path d="M71.7935 29.3366C71.6463 29.3237 71.498 29.3398 71.3571 29.384C71.2161 29.4282 71.0853 29.4996 70.9721 29.5943C70.8588 29.6889 70.7654 29.8049 70.6971 29.9355C70.6288 30.0662 70.5869 30.209 70.5739 30.3558C70.5609 30.5025 70.5771 30.6504 70.6214 30.791C70.6657 30.9316 70.7374 31.0621 70.8322 31.175C70.9271 31.288 71.0434 31.3812 71.1744 31.4493C71.3054 31.5175 71.4485 31.5592 71.5957 31.5721C73.9346 31.7857 76.2077 32.4607 78.2829 33.5577C80.3581 34.6548 82.1942 36.1521 83.6845 37.9628C85.1748 39.7734 86.2896 41.8613 86.9642 44.1053C87.6388 46.3493 87.8597 48.7045 87.6142 51.0343C87.6053 51.1812 87.6255 51.3283 87.6737 51.4674C87.722 51.6064 87.7972 51.7346 87.8952 51.8445C87.9932 51.9545 88.112 52.044 88.2448 52.1081C88.3775 52.1722 88.5217 52.2095 88.6689 52.2179H88.7348C88.8734 52.2268 89.0124 52.2083 89.1438 52.1635C89.2752 52.1187 89.3964 52.0485 89.5005 51.9569C89.6046 51.8652 89.6896 51.754 89.7505 51.6295C89.8114 51.5051 89.8471 51.3698 89.8555 51.2316C90.1271 48.6129 89.8704 45.9665 89.1006 43.4483C88.3307 40.9301 87.0633 38.5911 85.3729 36.5692C83.6992 34.5303 81.6377 32.8417 79.3072 31.6004C76.9767 30.3592 74.4232 29.5898 71.7935 29.3366Z" fill="#D7B46C" stroke="#D7B46C"/>
<path d="M101.787 73.7184V60.2395C101.78 49.5644 97.982 39.2368 91.0676 31.0885C84.1533 22.9402 74.5692 17.4977 64.015 15.7263C65.1883 14.1741 65.8141 12.2785 65.7948 10.3347C65.8049 8.86869 65.4663 7.42117 64.8068 6.11099C64.1473 4.8008 63.1857 3.6653 62.0008 2.7977C60.816 1.9301 59.4418 1.35514 57.991 1.12001C56.5402 0.884883 55.0542 0.996294 53.6549 1.4451C52.2557 1.8939 50.9831 2.6673 49.9416 3.70181C48.9001 4.73632 48.1195 6.00244 47.6637 7.39624C47.208 8.79004 47.0901 10.2718 47.3199 11.7198C47.5496 13.1679 48.1203 14.5409 48.9852 15.7263C38.4367 17.51 28.8601 22.956 21.9481 31.1016C15.0361 39.2472 11.2337 49.5679 11.2132 60.2395V73.7184C8.27172 74.1303 5.57828 75.5877 3.62832 77.8226C1.67836 80.0575 0.603016 82.9195 0.600098 85.8822V87H112.4V85.8822C112.397 82.9195 111.322 80.0575 109.372 77.8226C107.422 75.5877 104.728 74.1303 101.787 73.7184ZM49.4467 10.3347C49.4433 9.17429 49.7277 8.03104 50.2746 7.00683C50.8215 5.98261 51.6139 5.10923 52.5812 4.4645C53.5485 3.81977 54.6607 3.42371 55.8187 3.3116C56.9766 3.1995 58.1444 3.37484 59.218 3.82199C60.2916 4.26914 61.2376 4.97423 61.9717 5.87442C62.7059 6.77462 63.2054 7.84197 63.4258 8.98139C63.6462 10.1208 63.5806 11.2969 63.2348 12.4049C62.889 13.5129 62.2739 14.5184 61.4441 15.3318C59.8028 15.1458 58.1519 15.058 56.5001 15.0688C54.8702 15.0581 53.2412 15.1459 51.622 15.3318C50.9475 14.6827 50.4081 13.9071 50.0348 13.0496C49.6615 12.1921 49.4616 11.2695 49.4467 10.3347ZM13.4545 60.2395C13.4545 48.8524 17.9896 37.9316 26.0622 29.8797C34.1349 21.8278 45.0837 17.3043 56.5001 17.3043C67.9165 17.3043 78.8653 21.8278 86.938 29.8797C95.0106 37.9316 99.5457 48.8524 99.5457 60.2395V73.5869H13.4545V60.2395ZM2.90729 84.7645C3.19667 82.3115 4.37493 80.0487 6.22031 78.4018C8.06569 76.7549 10.4509 75.8375 12.9271 75.8224H100.139C102.608 75.8393 104.985 76.759 106.819 78.407C108.654 80.0551 109.819 82.3171 110.093 84.7645H2.90729Z" fill="#D7B46C" stroke="#D7B46C"/>
</svg>
