<svg width="93" height="99" viewBox="0 0 93 99" fill="none" xmlns="http://www.w3.org/2000/svg">
<path d="M85.842 97.9975H1.74798C1.55032 97.9975 1.36075 97.9186 1.22098 97.778C1.08121 97.6374 1.00269 97.4468 1.00269 97.248V35.6019C1.00269 35.4031 1.08121 35.2125 1.22098 35.0719C1.36075 34.9314 1.55032 34.8524 1.74798 34.8524H85.842C85.9449 34.8437 86.0486 34.8567 86.1463 34.8905C86.244 34.9242 86.3337 34.9781 86.4096 35.0486C86.4855 35.119 86.5461 35.2046 86.5873 35.2999C86.6286 35.3951 86.6497 35.498 86.6494 35.6019V97.248C86.6497 97.3519 86.6286 97.4548 86.5873 97.55C86.5461 97.6453 86.4855 97.7309 86.4096 97.8014C86.3337 97.8718 86.244 97.9257 86.1463 97.9594C86.0486 97.9932 85.9449 98.0062 85.842 97.9975ZM2.55538 96.4361H85.0967V36.4139H2.55538V96.4361Z" fill="#D7B46C" stroke="#D7B46C"/>
<path d="M12.3062 49.7797H1.74789C1.64456 49.7801 1.54229 49.7588 1.44756 49.7173C1.35284 49.6758 1.26773 49.6149 1.19765 49.5386C1.12757 49.4622 1.07403 49.3721 1.04045 49.2738C1.00687 49.1755 0.993982 49.0713 1.00259 48.9678V35.6017C1.00259 35.403 1.08112 35.2123 1.22088 35.0718C1.36065 34.9312 1.55022 34.8522 1.74789 34.8522H12.3062C12.5039 34.8522 12.6934 34.9312 12.8332 35.0718C12.973 35.2123 13.0515 35.403 13.0515 35.6017V48.9678C13.0601 49.0713 13.0472 49.1755 13.0136 49.2738C12.9801 49.3721 12.9265 49.4622 12.8565 49.5386C12.7864 49.6149 12.7013 49.6758 12.6065 49.7173C12.5118 49.7588 12.4095 49.7801 12.3062 49.7797ZM2.55529 48.2183H11.4988V36.4137H2.55529V48.2183Z" fill="#D7B46C" stroke="#D7B46C"/>
<path d="M22.8024 49.7799H12.3062C12.092 49.7799 11.8867 49.6943 11.7353 49.5421C11.5838 49.3898 11.4988 49.1833 11.4988 48.9679V35.6019C11.4984 35.498 11.5196 35.3951 11.5608 35.2999C11.6021 35.2046 11.6626 35.119 11.7386 35.0486C11.8145 34.9781 11.9041 34.9242 12.0019 34.8905C12.0996 34.8567 12.2032 34.8437 12.3062 34.8524H22.8024C23.0001 34.8524 23.1896 34.9314 23.3294 35.0719C23.4692 35.2125 23.5477 35.4031 23.5477 35.6019V48.9679C23.5563 49.0715 23.5434 49.1757 23.5098 49.274C23.4763 49.3722 23.4227 49.4624 23.3526 49.5388C23.2826 49.6151 23.1975 49.676 23.1027 49.7175C23.008 49.759 22.9057 49.7802 22.8024 49.7799ZM13.0515 48.2184H21.995V36.4139H13.0515V48.2184Z" fill="#D7B46C" stroke="#D7B46C"/>
<path d="M33.2987 49.7799H22.8025C22.5884 49.7799 22.383 49.6943 22.2316 49.5421C22.0802 49.3898 21.9951 49.1833 21.9951 48.9679V35.6019C21.9948 35.498 22.0159 35.3951 22.0572 35.2999C22.0984 35.2046 22.159 35.119 22.2349 35.0486C22.3108 34.9781 22.4005 34.9242 22.4982 34.8905C22.5959 34.8567 22.6996 34.8437 22.8025 34.8524H33.2987C33.4017 34.8437 33.5053 34.8567 33.6031 34.8905C33.7008 34.9242 33.7904 34.9781 33.8664 35.0486C33.9423 35.119 34.0028 35.2046 34.0441 35.2999C34.0854 35.3951 34.1065 35.498 34.1061 35.6019V48.9679C34.1061 49.1833 34.0211 49.3898 33.8697 49.5421C33.7182 49.6943 33.5129 49.7799 33.2987 49.7799ZM23.5478 48.2184H32.4913V36.4139H23.5478V48.2184Z" fill="#D7B46C" stroke="#D7B46C"/>
<path d="M43.7948 49.7799H33.2986C33.0845 49.7799 32.8791 49.6943 32.7277 49.5421C32.5763 49.3898 32.4912 49.1833 32.4912 48.9679V35.6019C32.4909 35.498 32.512 35.3951 32.5533 35.2999C32.5945 35.2046 32.6551 35.119 32.731 35.0486C32.8069 34.9781 32.8966 34.9242 32.9943 34.8905C33.092 34.8567 33.1957 34.8437 33.2986 34.8524H43.7948C43.8978 34.8437 44.0014 34.8567 44.0992 34.8905C44.1969 34.9242 44.2865 34.9781 44.3625 35.0486C44.4384 35.119 44.4989 35.2046 44.5402 35.2999C44.5815 35.3951 44.6026 35.498 44.6022 35.6019V48.9679C44.6022 49.1833 44.5172 49.3898 44.3658 49.5421C44.2143 49.6943 44.009 49.7799 43.7948 49.7799ZM34.106 48.2184H43.0495V36.4139H34.106V48.2184Z" fill="#D7B46C" stroke="#D7B46C"/>
<path d="M54.291 49.7799H43.7948C43.6914 49.7802 43.5892 49.759 43.4944 49.7175C43.3997 49.676 43.3146 49.6151 43.2445 49.5388C43.1744 49.4624 43.1209 49.3722 43.0873 49.274C43.0537 49.1757 43.0409 49.0715 43.0495 48.9679V35.6019C43.0495 35.4031 43.128 35.2125 43.2678 35.0719C43.4075 34.9314 43.5971 34.8524 43.7948 34.8524H54.291C54.3939 34.8437 54.4976 34.8567 54.5953 34.8905C54.693 34.9242 54.7827 34.9781 54.8586 35.0486C54.9345 35.119 54.9951 35.2046 55.0363 35.2999C55.0776 35.3951 55.0987 35.498 55.0984 35.6019V48.9679C55.0984 49.1833 55.0133 49.3898 54.8619 49.5421C54.7105 49.6943 54.5051 49.7799 54.291 49.7799ZM44.6022 48.2184H53.5457V36.4139H44.6022V48.2184Z" fill="#D7B46C" stroke="#D7B46C"/>
<path d="M64.8495 49.7797H54.2912C54.088 49.764 53.8983 49.6715 53.76 49.5209C53.6218 49.3703 53.5453 49.1727 53.5459 48.9678V35.6017C53.5459 35.403 53.6244 35.2123 53.7642 35.0718C53.904 34.9312 54.0935 34.8522 54.2912 34.8522H64.8495C65.0472 34.8522 65.2368 34.9312 65.3765 35.0718C65.5163 35.2123 65.5948 35.403 65.5948 35.6017V48.9678C65.6034 49.0713 65.5905 49.1755 65.557 49.2738C65.5234 49.3721 65.4698 49.4622 65.3998 49.5386C65.3297 49.6149 65.2446 49.6758 65.1498 49.7173C65.0551 49.7588 64.9529 49.7801 64.8495 49.7797ZM55.0986 48.2183H64.0421V36.4137H55.0986V48.2183Z" fill="#D7B46C" stroke="#D7B46C"/>
<path d="M75.3456 49.7799H64.8494C64.6353 49.7799 64.4299 49.6943 64.2785 49.5421C64.1271 49.3898 64.042 49.1833 64.042 48.9679V35.6019C64.0416 35.498 64.0628 35.3951 64.104 35.2999C64.1453 35.2046 64.2058 35.119 64.2818 35.0486C64.3577 34.9781 64.4474 34.9242 64.5451 34.8905C64.6428 34.8567 64.7464 34.8437 64.8494 34.8524H75.3456C75.5433 34.8524 75.7329 34.9314 75.8726 35.0719C76.0124 35.2125 76.0909 35.4031 76.0909 35.6019V48.9679C76.0995 49.0715 76.0866 49.1757 76.0531 49.274C76.0195 49.3722 75.9659 49.4624 75.8959 49.5388C75.8258 49.6151 75.7407 49.676 75.6459 49.7175C75.5512 49.759 75.4489 49.7802 75.3456 49.7799ZM65.5947 48.2184H74.5382V36.4139H65.5947V48.2184Z" fill="#D7B46C" stroke="#D7B46C"/>
<path d="M85.842 49.7799H75.3457C75.2397 49.7799 75.1347 49.7589 75.0368 49.7181C74.9388 49.6773 74.8498 49.6175 74.7748 49.5421C74.6998 49.4667 74.6404 49.3772 74.5998 49.2786C74.5592 49.1801 74.5383 49.0746 74.5383 48.9679V35.6019C74.538 35.498 74.5591 35.3951 74.6004 35.2999C74.6417 35.2046 74.7022 35.119 74.7781 35.0486C74.854 34.9781 74.9437 34.9242 75.0414 34.8905C75.1391 34.8567 75.2428 34.8437 75.3457 34.8524H85.842C85.9449 34.8437 86.0486 34.8567 86.1463 34.8905C86.244 34.9242 86.3337 34.9781 86.4096 35.0486C86.4855 35.119 86.546 35.2046 86.5873 35.2999C86.6286 35.3951 86.6497 35.498 86.6494 35.6019V48.9679C86.6494 49.0746 86.6285 49.1801 86.5879 49.2786C86.5473 49.3772 86.4878 49.4667 86.4129 49.5421C86.3379 49.6175 86.2489 49.6773 86.1509 49.7181C86.053 49.7589 85.948 49.7799 85.842 49.7799ZM76.091 48.2184H85.0967V36.4139H76.091V48.2184Z" fill="#D7B46C" stroke="#D7B46C"/>
<path d="M31.0006 89.7528H15.6599C15.4458 89.7528 15.2404 89.6673 15.089 89.515C14.9376 89.3627 14.8525 89.1562 14.8525 88.9409V60.5849C14.8525 60.3696 14.9376 60.163 15.089 60.0108C15.2404 59.8585 15.4458 59.7729 15.6599 59.7729H31.0006C31.2147 59.7729 31.4201 59.8585 31.5715 60.0108C31.7229 60.163 31.808 60.3696 31.808 60.5849V88.9409C31.808 89.1562 31.7229 89.3627 31.5715 89.515C31.4201 89.6673 31.2147 89.7528 31.0006 89.7528ZM16.4052 88.1914H30.2553V61.3344H16.4052V88.1914Z" fill="#D7B46C" stroke="#D7B46C"/>
<path d="M31.0006 69.7662H15.6599C15.4458 69.7662 15.2404 69.6807 15.089 69.5284C14.9376 69.3762 14.8525 69.1696 14.8525 68.9543V60.5849C14.8525 60.3696 14.9376 60.163 15.089 60.0108C15.2404 59.8585 15.4458 59.7729 15.6599 59.7729H31.0006C31.2147 59.7729 31.4201 59.8585 31.5715 60.0108C31.7229 60.163 31.808 60.3696 31.808 60.5849V68.9543C31.808 69.1696 31.7229 69.3762 31.5715 69.5284C31.4201 69.6807 31.2147 69.7662 31.0006 69.7662ZM16.4052 68.2048H30.2553V61.3344H16.4052V68.2048Z" fill="#D7B46C" stroke="#D7B46C"/>
<path d="M70.0665 89.7528H54.7259C54.5117 89.7528 54.3064 89.6673 54.1549 89.515C54.0035 89.3627 53.9185 89.1562 53.9185 88.9409V60.5849C53.9185 60.3696 54.0035 60.163 54.1549 60.0108C54.3064 59.8585 54.5117 59.7729 54.7259 59.7729H70.0665C70.1725 59.7729 70.2775 59.7939 70.3755 59.8348C70.4734 59.8756 70.5624 59.9354 70.6374 60.0108C70.7124 60.0862 70.7719 60.1757 70.8124 60.2742C70.853 60.3727 70.8739 60.4783 70.8739 60.5849V88.9409C70.8739 89.0475 70.853 89.1531 70.8124 89.2516C70.7719 89.3501 70.7124 89.4396 70.6374 89.515C70.5624 89.5904 70.4734 89.6502 70.3755 89.691C70.2775 89.7318 70.1725 89.7528 70.0665 89.7528ZM55.4712 88.1914H69.3212V61.3344H55.4712V88.1914Z" fill="#D7B46C" stroke="#D7B46C"/>
<path d="M70.0665 69.7662H54.7259C54.5117 69.7662 54.3064 69.6807 54.1549 69.5284C54.0035 69.3762 53.9185 69.1696 53.9185 68.9543V60.5849C53.9185 60.3696 54.0035 60.163 54.1549 60.0108C54.3064 59.8585 54.5117 59.7729 54.7259 59.7729H70.0665C70.1725 59.7729 70.2775 59.7939 70.3755 59.8348C70.4734 59.8756 70.5624 59.9354 70.6374 60.0108C70.7124 60.0862 70.7719 60.1757 70.8124 60.2742C70.853 60.3727 70.8739 60.4783 70.8739 60.5849V68.9543C70.8739 69.0609 70.853 69.1665 70.8124 69.265C70.7719 69.3635 70.7124 69.453 70.6374 69.5284C70.5624 69.6038 70.4734 69.6636 70.3755 69.7044C70.2775 69.7452 70.1725 69.7662 70.0665 69.7662ZM55.4712 68.2048H69.3212V61.3344H55.4712V68.2048Z" fill="#D7B46C" stroke="#D7B46C"/>
<path d="M43.7948 36.4136H12.3062C12.092 36.4136 11.8867 36.3281 11.7353 36.1758C11.5838 36.0235 11.4988 35.817 11.4988 35.6016V20.1745C11.4988 19.9592 11.5838 19.7526 11.7353 19.6004C11.8867 19.4481 12.092 19.3625 12.3062 19.3625H43.7948C44.009 19.3625 44.2143 19.4481 44.3658 19.6004C44.5172 19.7526 44.6022 19.9592 44.6022 20.1745V35.6016C44.6022 35.817 44.5172 36.0235 44.3658 36.1758C44.2143 36.3281 44.009 36.4136 43.7948 36.4136ZM13.0515 34.8522H43.0496V20.924H13.0515V34.8522Z" fill="#D7B46C" stroke="#D7B46C"/>
<path d="M75.9046 30.2928H53.7321C53.5814 30.2889 53.4353 30.239 53.3134 30.1497C53.1914 30.0605 53.0992 29.9362 53.049 29.7932C52.9825 29.6466 52.9647 29.4825 52.9982 29.325C53.0318 29.1675 53.1149 29.025 53.2353 28.9188L64.2905 18.0511C64.3546 17.9726 64.4352 17.9094 64.5264 17.866C64.6177 17.8226 64.7174 17.8001 64.8184 17.8001C64.9194 17.8001 65.0191 17.8226 65.1104 17.866C65.2016 17.9094 65.2822 17.9726 65.3463 18.0511L76.4636 28.9188C76.57 29.0342 76.6435 29.1763 76.6763 29.3302C76.7091 29.4841 76.7 29.6441 76.6499 29.7932C76.5886 29.9411 76.4851 30.0676 76.3525 30.1565C76.2199 30.2454 76.064 30.2928 75.9046 30.2928ZM55.6575 28.7314H73.9793L64.8494 19.7374L55.6575 28.7314Z" fill="#D7B46C" stroke="#D7B46C"/>
<path d="M65.5947 29.4808H64.042V35.6142H65.5947V29.4808Z" fill="#D7B46C" stroke="#D7B46C"/>
<path d="M84.227 17.4889C82.6056 17.4889 81.0205 17.0054 79.6724 16.0995C78.3242 15.1936 77.2734 13.906 76.6529 12.3995C76.0324 10.893 75.87 9.23533 76.1863 7.63606C76.5027 6.03679 77.2835 4.56776 78.43 3.41475C79.5766 2.26174 81.0374 1.47653 82.6277 1.15842C84.218 0.840304 85.8663 1.00357 87.3644 1.62758C88.8624 2.25158 90.1428 3.30829 91.0436 4.66409C91.9445 6.01989 92.4253 7.61387 92.4253 9.24447C92.409 11.426 91.5401 13.5135 90.0061 15.0561C88.4722 16.5987 86.3963 17.4726 84.227 17.4889ZM84.227 2.62391C82.5833 2.78427 81.0579 3.55434 79.948 4.78404C78.8381 6.01374 78.2232 7.61497 78.2232 9.2757C78.2232 10.9364 78.8381 12.5377 79.948 13.7674C81.0579 14.9971 82.5833 15.7671 84.227 15.9275C85.1495 16.0175 86.0805 15.9124 86.9602 15.6191C87.84 15.3258 88.6489 14.8506 89.3352 14.2242C90.0215 13.5978 90.5699 12.8339 90.9451 11.9817C91.3204 11.1295 91.5143 10.2077 91.5143 9.2757C91.5143 8.34366 91.3204 7.42192 90.9451 6.5697C90.5699 5.71748 90.0215 4.95362 89.3352 4.3272C88.6489 3.70077 87.84 3.22563 86.9602 2.93229C86.0805 2.63896 85.1495 2.53391 84.227 2.62391Z" fill="#D7B46C" stroke="#D7B46C"/>
</svg>
