<svg width="125" height="88" viewBox="0 0 125 88" fill="none" xmlns="http://www.w3.org/2000/svg">
<path d="M62.3598 64.2379C58.2474 64.2379 54.135 64.0488 50.1492 63.6707L50.4022 61.2125C58.3588 61.9059 66.3609 61.9059 74.3174 61.2125L74.5705 63.6707C70.5846 64.0488 66.4722 64.2379 62.3598 64.2379Z" fill="#D7B46C"/>
<path d="M62.3597 78.9868C54.1049 78.9822 45.889 77.8583 37.9384 75.6462C35.6608 74.9529 33.573 74.3226 31.5484 73.5663C20.2175 69.4535 9.85841 63.0597 1.11669 54.7835C0.475492 54.1832 0.0814579 53.3667 0.0112897 52.4929C-0.0588785 51.6191 0.19984 50.7506 0.737085 50.0563C1.26017 49.3312 2.03158 48.8219 2.90574 48.6245C3.7799 48.4271 4.69635 48.5553 5.48215 48.9848C18.1357 55.6029 33.6362 59.8259 50.2756 61.2125C58.2744 61.9059 66.3185 61.9059 74.3173 61.2125C91.0832 59.8259 106.584 55.6029 119.237 48.9848C120.023 48.5553 120.94 48.4271 121.814 48.6245C122.688 48.8219 123.459 49.3312 123.982 50.0563C124.52 50.7506 124.778 51.6191 124.708 52.4929C124.638 53.3667 124.244 54.1832 123.603 54.7835C114.861 63.0597 104.502 69.4535 93.171 73.5663C91.1465 74.3226 89.0586 74.9529 86.8443 75.6462C78.8704 77.8503 70.6348 78.9739 62.3597 78.9868ZM3.71066 51.0018C3.52404 51.0066 3.34111 51.0547 3.17639 51.1423C3.01167 51.2298 2.86967 51.3543 2.76165 51.506C2.59145 51.7292 2.51021 52.0072 2.53357 52.2866C2.55694 52.5659 2.68326 52.8267 2.88818 53.0187C11.3756 61.0489 21.4336 67.2498 32.4341 71.2342C34.3954 71.9275 36.42 72.6208 38.6344 73.2511C54.1586 77.5377 70.5608 77.5377 86.0851 73.2511C88.2994 72.6208 90.324 71.9275 92.2853 71.2342C103.286 67.2498 113.344 61.0489 121.831 53.0187C122.036 52.8267 122.162 52.5659 122.186 52.2866C122.209 52.0072 122.128 51.7292 121.958 51.506C121.791 51.2721 121.542 51.1096 121.261 51.0511C120.979 50.9927 120.686 51.0426 120.439 51.1909C107.47 57.935 91.6526 62.284 74.6336 63.6707C66.4898 64.4269 58.2929 64.4269 50.1491 63.6707C33.0668 62.284 17.2499 57.935 4.28007 51.1909L3.71066 51.0018Z" fill="#D7B46C"/>
<path d="M62.3598 88C54.7044 88 47.3654 86.8655 41.608 84.7225C40.2623 84.2437 39.0971 83.3637 38.2709 82.2023C37.4446 81.0408 36.9972 79.654 36.9895 78.2305V72.8099L38.6345 73.2511C54.1587 77.5377 70.5609 77.5377 86.0851 73.2511L87.7301 72.8099V78.2305C87.7224 79.654 87.2751 81.0408 86.4488 82.2023C85.6225 83.3637 84.4573 84.2437 83.1116 84.7225C77.3542 86.8655 70.0152 88 62.3598 88ZM39.5202 76.0875V78.2305C39.5269 79.1519 39.815 80.0494 40.3461 80.8038C40.8773 81.5581 41.6264 82.1335 42.4938 82.4534C47.9348 84.4073 55.0208 85.5419 62.3598 85.5419C69.6988 85.5419 76.7848 84.4073 82.2258 82.4534C83.0932 82.1335 83.8423 81.5581 84.3735 80.8038C84.9046 80.0494 85.1927 79.1519 85.1994 78.2305V76.0875C70.2176 79.9327 54.502 79.9327 39.5202 76.0875Z" fill="#D7B46C"/>
<path d="M64.6374 49.4891H63.119C60.1319 49.1511 57.1859 48.5177 54.3248 47.5982C52.0642 46.9034 49.7606 46.3559 47.4286 45.9595C45.0155 45.6556 42.5851 45.5083 40.1528 45.5182C37.7009 45.5478 35.2496 45.4215 32.8138 45.1401C23.5135 43.8795 12.8212 33.7948 14.1499 24.2143C14.5421 21.6591 15.6189 19.2566 17.2668 17.2599C18.9148 15.2632 21.0728 13.7463 23.5135 12.8691C29.5239 10.7891 35.9139 12.806 41.4815 14.823C49.5164 17.7853 57.4882 21.1889 65.1435 24.9077C68.56 26.5464 71.8499 28.2482 74.4439 30.9585C77.0378 33.6687 78.6195 38.3329 77.544 41.7995C76.0256 46.9679 70.1417 49.4891 64.6374 49.4891ZM29.0177 14.3818C27.4468 14.3771 25.886 14.6327 24.3992 15.1381C22.3786 15.8588 20.5928 17.1135 19.2331 18.7679C17.8735 20.4222 16.9911 22.4138 16.6806 24.5295C15.5418 32.5342 25.0319 41.5474 33.1934 42.6189C35.5019 42.902 37.8271 43.0283 40.1528 42.9971C42.7113 42.9887 45.2678 43.1361 47.8082 43.4383C50.2423 43.8716 52.6502 44.4398 55.0207 45.1401C57.7382 46.0186 60.5352 46.6308 63.372 46.9679C68.1171 47.3461 73.8112 45.3922 75.1398 41.0432C76.0888 37.8917 74.4439 34.6142 72.5458 32.5972C70.6478 30.5803 67.2314 28.6264 64.0047 27.0507C56.4126 23.395 48.5042 19.9914 40.5957 17.092C36.9262 15.7684 32.8771 14.3818 29.0177 14.3818Z" fill="#D7B46C"/>
<path d="M69.7619 50.1824C67.4594 50.1856 65.165 49.9104 62.929 49.3631L63.5616 46.9679C63.6249 46.9679 69.8251 48.5437 74.76 47.031C76.8478 46.4007 79.4418 45.6443 80.897 43.8795C82.3521 42.1147 82.6052 39.2784 82.6052 36.379C82.6052 33.4797 82.5419 30.8955 81.2133 28.9416C79.8847 26.9877 78.9357 26.7355 77.1009 25.7271C75.2662 24.7186 70.2047 22.4495 66.0291 20.6217L59.4493 17.6593C57.1095 16.4822 54.8854 15.0895 52.8062 13.4994C50.0224 11.6085 47.4284 9.78065 44.4548 8.70916C38.0015 6.50313 26.6766 10.9782 22.2479 16.1466L20.2866 14.5079C25.348 8.70916 37.875 3.79287 45.2773 6.37707C48.6305 7.57463 51.4775 9.59157 54.2613 11.4824C56.2539 12.9816 58.3704 14.31 60.5881 15.4533C61.98 16.1466 64.4474 17.2181 67.1046 18.3526C71.2803 20.1805 76.0886 22.2605 78.3663 23.521C80.6439 24.7816 82.099 25.7901 83.3644 27.5549C85.1992 30.3282 85.1992 33.8578 85.1992 36.442C85.1992 39.0262 84.9461 42.9971 82.8583 45.4552C80.7704 47.9134 77.9234 48.6697 75.5192 49.4261C73.6464 49.9517 71.7074 50.2064 69.7619 50.1824Z" fill="#D7B46C"/>
<path d="M52.4267 44.5728L49.896 44.4467C50.0715 42.4177 50.8521 40.4874 52.1373 38.9037C53.4225 37.3201 55.1538 36.1555 57.1085 35.5596C58.9549 35.1447 60.8483 34.9752 62.7393 35.0553H63.3087C65.0682 35.2067 66.8395 34.97 68.4967 34.362C69.6987 33.7948 70.9641 32.5342 70.9008 31.0845L73.4315 30.9584C73.5581 33.5426 71.5968 35.6856 69.5722 36.568C67.5477 37.4505 65.27 37.5765 63.3087 37.5765H62.7393C61.1056 37.4408 59.4606 37.5685 57.8677 37.9547C56.4006 38.3895 55.098 39.2525 54.1281 40.4322C53.1582 41.6119 52.5656 43.0542 52.4267 44.5728Z" fill="#D7B46C"/>
<path d="M26.8034 40.665L24.2727 40.1607C25.4748 34.299 32.6873 30.2021 38.065 30.5803C39.1979 30.6666 40.3203 30.8565 41.4182 31.1476C42.6686 31.5234 43.9722 31.6937 45.2775 31.6518C47.3021 31.5257 49.3267 30.3282 51.0349 28.3743C52.585 26.3427 53.9008 24.1438 54.9575 21.8192L57.2351 22.8907C56.108 25.4164 54.6623 27.7886 52.9329 29.95C50.7818 32.4712 48.1246 33.9839 45.4674 34.173C43.9033 34.2206 42.3423 34.0076 40.8488 33.5427C39.868 33.3186 38.8752 33.1503 37.8752 33.0384C33.6996 32.7233 27.6892 36.1899 26.8034 40.665Z" fill="#D7B46C"/>
<path d="M17.3764 31.3366L15.2253 30.013C18.5153 24.9707 23.1971 23.1428 29.2075 21.8192L30.2198 21.6301C31.2968 21.518 32.3459 21.2194 33.3199 20.7477C35.5342 19.6132 36.6098 17.092 37.5588 14.3187L39.963 15.1381C38.8242 18.2265 37.4955 21.441 34.522 22.9537C33.318 23.512 32.0395 23.8941 30.7259 24.0883L29.7769 24.2774C24.2093 25.4119 20.2235 27.0506 17.3764 31.3366Z" fill="#D7B46C"/>
<path d="M90.1342 43.8795H88.679C86.7745 43.7202 84.8892 43.3826 83.0482 42.871L83.7442 40.4759C85.4225 40.9347 87.1369 41.2509 88.8688 41.4213C93.6139 41.8625 99.3713 39.9086 100.637 35.4966C101.586 32.3451 99.9407 29.0676 98.0426 27.0506C96.1446 25.0337 92.918 23.1428 89.5648 21.5041C81.9094 17.8484 74.0642 14.5078 66.0925 11.5454C65.3333 11.2933 64.5741 10.9782 63.7516 10.7891C59.7658 9.40243 54.5145 8.01579 49.896 9.65455L49.2633 9.90667C49.0044 10.0213 48.7242 10.0806 48.4409 10.0806C48.1575 10.0806 47.8773 10.0213 47.6184 9.90667C47.7116 9.94153 47.8117 9.95399 47.9106 9.94304C48.0096 9.93209 48.1045 9.89803 48.1878 9.84364L46.7959 7.76367C47.0219 7.60127 47.2856 7.49873 47.5622 7.46566C47.8389 7.43258 48.1195 7.47006 48.3776 7.57458L48.7572 7.38549H49.0735C54.4513 5.49461 60.1454 7.00732 64.5741 8.45699L66.9783 9.3394C75.0132 12.3018 82.985 15.6423 90.7036 19.3611C94.1201 21.0629 97.41 22.7646 99.9407 25.4749C102.471 28.1852 104.116 32.7863 103.104 36.2529C101.522 41.3583 95.6385 43.8795 90.1342 43.8795Z" fill="#D7B46C"/>
<path d="M95.322 44.6358C92.9988 44.6361 90.6838 44.361 88.4259 43.8164L89.1218 41.4213C89.1851 41.4213 95.322 42.9971 100.32 41.4844C102.408 40.8541 105.002 40.0347 106.457 38.3329C107.912 36.6311 108.102 33.8578 108.165 30.8324C108.229 27.807 108.102 25.3489 106.773 23.3949C105.445 21.441 104.433 21.1259 102.598 20.1174C100.763 19.1089 95.7649 16.8399 91.5892 15.0751C88.8687 13.8775 86.4013 12.806 84.9461 12.0497C82.6211 10.8708 80.399 9.5004 78.303 7.95276C75.5193 5.99885 72.9253 4.23403 69.9517 3.16254C63.7515 1.01954 53.1226 4.171 48.504 9.52849L46.5427 7.88973C51.8572 1.77589 63.6882 -1.69072 70.7742 0.83045C74.1274 1.96498 76.9744 3.98191 79.7582 5.93582C81.7671 7.39271 83.8818 8.69891 86.085 9.84364L92.6015 12.806C96.8405 14.6339 101.586 16.7138 103.863 17.9744C105.832 18.8974 107.547 20.2815 108.861 22.0083C110.759 24.7186 110.696 28.2482 110.696 30.8324C110.696 33.4166 110.633 37.1984 108.418 39.9086C106.204 42.6189 103.484 43.1231 101.079 43.8164C99.2162 44.3928 97.2727 44.6694 95.322 44.6358Z" fill="#D7B46C"/>
<path d="M83.744 32.2821L83.1746 29.824C84.8834 29.4994 86.6268 29.3934 88.3625 29.5088H88.8054C90.7667 29.5088 92.5382 29.4458 93.9933 28.7525C95.4485 28.0591 96.4608 26.9246 96.3975 25.538L98.9282 25.3489C99.118 27.9961 97.1567 30.0761 95.0689 31.0215C92.981 31.967 91.0197 31.967 88.8054 31.967H88.2992C86.7736 31.8813 85.2431 31.9872 83.744 32.2821Z" fill="#D7B46C"/>
<path d="M77.7971 25.0967L76.0256 23.3319L76.5318 22.8276C78.1767 20.8737 79.4421 18.2895 80.4544 16.2726L82.732 17.3441C81.6564 19.4871 80.3278 22.1973 78.4931 24.4034L77.7971 25.0967Z" fill="#D7B46C"/>
<path d="M60.082 17.3441L58.8799 15.2011C61.031 14.0665 62.1065 11.4823 62.9923 9.08722L63.1188 8.70905L65.4597 9.65449L65.3332 9.96963C64.3209 12.7429 62.9923 15.8314 60.082 17.3441Z" fill="#D7B46C"/>
</svg>
