<svg width="96" height="85" viewBox="0 0 96 85" fill="none" xmlns="http://www.w3.org/2000/svg">
<path d="M54.1382 26.3857L45.9145 19.8873C45.7272 19.7485 45.5101 19.6554 45.2804 19.6154C45.0507 19.5755 44.8149 19.5898 44.5918 19.6572C44.333 19.7206 44.1025 19.8678 43.9361 20.0758C43.7696 20.2838 43.6767 20.541 43.6716 20.8074V33.8619C43.6767 34.1282 43.7696 34.3854 43.9361 34.5935C44.1025 34.8015 44.333 34.9487 44.5918 35.012H45.0518C45.3616 35.0044 45.6621 34.9043 45.9145 34.7245L54.1382 28.226C54.2779 28.116 54.3916 27.9764 54.4711 27.8174C54.5506 27.6583 54.5941 27.4837 54.5983 27.3059C54.5941 27.1281 54.5506 26.9534 54.4711 26.7944C54.3916 26.6353 54.2779 26.4958 54.1382 26.3857Z" fill="#D7B46C" stroke="#D7B46C"/>
<path d="M94.3942 53.7023H94.2792C63.687 48.8139 32.5125 48.8139 1.92029 53.7023C1.80915 53.7341 1.69142 53.7348 1.57989 53.7044C1.46837 53.674 1.36731 53.6136 1.28769 53.5298C1.19669 53.4645 1.12295 53.378 1.07286 53.2778C1.02276 53.1776 0.997805 53.0667 1.00015 52.9547V1.772C0.997805 1.66 1.02276 1.54912 1.07286 1.44892C1.12295 1.34873 1.19669 1.26223 1.28769 1.19691C1.36731 1.1131 1.46837 1.05271 1.57989 1.02229C1.69142 0.991874 1.80915 0.992599 1.92029 1.02439C32.5125 5.91282 63.687 5.91282 94.2792 1.02439C94.3903 0.992599 94.5081 0.991874 94.6196 1.02229C94.7311 1.05271 94.8322 1.1131 94.9118 1.19691C95.0028 1.26223 95.0765 1.34873 95.1266 1.44892C95.1767 1.54912 95.2017 1.66 95.1993 1.772V52.8972C95.2017 53.0092 95.1767 53.1201 95.1266 53.2203C95.0765 53.3205 95.0028 53.407 94.9118 53.4723C94.764 53.5956 94.5848 53.6753 94.3942 53.7023ZM2.55289 2.69214V51.9771C32.7343 47.2609 63.4652 47.2609 93.6466 51.9771V2.69214C63.4652 7.40827 32.7343 7.40827 2.55289 2.69214Z" fill="#D7B46C" stroke="#D7B46C"/>
<path d="M18.8278 70.0923C20.0002 69.5775 20.9598 68.675 21.5455 67.5363C22.1312 66.3976 22.3073 65.0921 22.0443 63.8389C21.7813 62.5857 21.0951 61.4611 20.101 60.654C19.1069 59.8469 17.8654 59.4064 16.5849 59.4064C15.3044 59.4064 14.0629 59.8469 13.0688 60.654C12.0747 61.4611 11.3886 62.5857 11.1255 63.8389C10.8625 65.0921 11.0386 66.3976 11.6243 67.5363C12.21 68.675 13.1697 69.5775 14.3421 70.0923C12.0935 70.5207 10.0648 71.72 8.60556 73.4837C7.14636 75.2473 6.34811 77.4647 6.34839 79.7538V81.1915C6.34839 81.8321 6.60286 82.4464 7.05583 82.8994C7.5088 83.3524 8.12316 83.6069 8.76375 83.6069H24.4636C24.7808 83.6069 25.0949 83.5444 25.3879 83.423C25.681 83.3016 25.9473 83.1237 26.1715 82.8994C26.3958 82.6751 26.5737 82.4089 26.6951 82.1158C26.8165 81.8228 26.879 81.5087 26.879 81.1915V79.7538C26.8767 77.4565 26.0703 75.2326 24.5997 73.4678C23.129 71.703 21.0869 70.5088 18.8278 70.0923ZM12.2143 64.974C12.2143 64.1096 12.4706 63.2646 12.9509 62.5458C13.4311 61.8271 14.1137 61.2669 14.9124 60.9361C15.711 60.6053 16.5898 60.5187 17.4376 60.6874C18.2854 60.856 19.0642 61.2723 19.6755 61.8835C20.2867 62.4948 20.703 63.2735 20.8716 64.1214C21.0403 64.9692 20.9537 65.848 20.6229 66.6466C20.2921 67.4453 19.7319 68.1279 19.0131 68.6081C18.2944 69.0884 17.4494 69.3447 16.5849 69.3447C15.4258 69.3447 14.3141 68.8842 13.4944 68.0646C12.6748 67.2449 12.2143 66.1332 12.2143 64.974ZM25.6713 81.1915C25.6716 81.5173 25.5463 81.8307 25.3213 82.0664C25.0963 82.3021 24.7891 82.4419 24.4636 82.4567H8.76375C8.4282 82.4567 8.1064 82.3234 7.86913 82.0861C7.63186 81.8488 7.49856 81.527 7.49856 81.1915V79.7538C7.51363 77.4553 8.43337 75.2553 10.0586 73.63C11.6839 72.0048 13.8839 71.085 16.1824 71.07H17.045C19.3381 71.0851 21.5321 72.0067 23.1482 73.6336C24.7644 75.2605 25.6714 77.4606 25.6713 79.7538V81.1915Z" fill="#D7B46C" stroke="#D7B46C"/>
<path d="M40.106 70.0923C41.2784 69.5775 42.238 68.675 42.8237 67.5363C43.4094 66.3976 43.5856 65.0921 43.3225 63.8389C43.0595 62.5857 42.3733 61.4611 41.3792 60.654C40.3851 59.8469 39.1436 59.4064 37.8631 59.4064C36.5827 59.4064 35.3411 59.8469 34.347 60.654C33.3529 61.4611 32.6668 62.5857 32.4038 63.8389C32.1407 65.0921 32.3169 66.3976 32.9026 67.5363C33.4883 68.675 34.4479 69.5775 35.6203 70.0923C33.3611 70.5088 31.3191 71.703 29.8484 73.4678C28.3777 75.2326 27.5713 77.4565 27.5691 79.7538V81.1915C27.569 81.5136 27.6333 81.8324 27.7583 82.1293C27.8833 82.4261 28.0663 82.695 28.2967 82.9201C28.5272 83.1451 28.8003 83.3218 29.1 83.4398C29.3997 83.5577 29.72 83.6145 30.042 83.6069H45.6843C46.3249 83.6069 46.9393 83.3524 47.3922 82.8994C47.8452 82.4464 48.0997 81.8321 48.0997 81.1915V79.7538C48.1 77.4647 47.3017 75.2473 45.8425 73.4837C44.3833 71.72 42.3546 70.5207 40.106 70.0923ZM33.4925 64.974C33.4925 64.1096 33.7488 63.2646 34.2291 62.5458C34.7093 61.8271 35.3919 61.2669 36.1906 60.9361C36.9892 60.6053 37.868 60.5187 38.7158 60.6874C39.5636 60.856 40.3424 61.2723 40.9537 61.8835C41.5649 62.4948 41.9812 63.2735 42.1498 64.1214C42.3185 64.9692 42.2319 65.848 41.9011 66.6466C41.5703 67.4453 41.0101 68.1279 40.2914 68.6081C39.5726 69.0884 38.7276 69.3447 37.8631 69.3447C36.704 69.3447 35.5923 68.8842 34.7726 68.0646C33.953 67.2449 33.4925 66.1332 33.4925 64.974ZM46.9495 81.1915C46.9495 81.527 46.8162 81.8488 46.5789 82.0861C46.3417 82.3234 46.0199 82.4567 45.6843 82.4567H30.042C29.8758 82.4567 29.7113 82.424 29.5578 82.3604C29.4043 82.2968 29.2648 82.2036 29.1473 82.0861C29.0299 81.9686 28.9367 81.8292 28.8731 81.6757C28.8095 81.5222 28.7768 81.3576 28.7768 81.1915V79.7538C28.7767 77.4606 29.6837 75.2605 31.2998 73.6336C32.9159 72.0067 35.11 71.0851 37.4031 71.07H38.2657C40.5641 71.085 42.7642 72.0048 44.3894 73.63C46.0147 75.2553 46.9344 77.4553 46.9495 79.7538V81.1915Z" fill="#D7B46C" stroke="#D7B46C"/>
<path d="M61.3843 70.0924C62.5681 69.5797 63.5377 68.6725 64.1278 67.5253C64.718 66.3782 64.8923 65.0619 64.621 63.8007C64.3498 62.5394 63.6498 61.4112 62.6402 60.608C61.6306 59.8049 60.3739 59.3765 59.084 59.3958C57.7991 59.3901 56.5516 59.8282 55.5524 60.636C54.5532 61.4438 53.8634 62.5717 53.5998 63.8293C53.3361 65.0869 53.5146 66.3969 54.1052 67.538C54.6958 68.6792 55.6622 69.5814 56.8411 70.0924C54.5925 70.5207 52.5638 71.7201 51.1046 73.4837C49.6454 75.2474 48.8471 77.4648 48.8474 79.7538V81.1916C48.8474 81.8321 49.1019 82.4465 49.5549 82.8995C50.0078 83.3524 50.6222 83.6069 51.2628 83.6069H66.9626C67.6032 83.6069 68.2176 83.3524 68.6706 82.8995C69.1235 82.4465 69.378 81.8321 69.378 81.1916V79.7538C69.3783 77.4648 68.58 75.2474 67.1208 73.4837C65.6616 71.7201 63.6329 70.5207 61.3843 70.0924ZM54.7133 64.9741C54.7133 64.1097 54.9696 63.2647 55.4499 62.5459C55.9301 61.8272 56.6127 61.2669 57.4114 60.9361C58.21 60.6053 59.0888 60.5188 59.9366 60.6874C60.7845 60.8561 61.5632 61.2723 62.1745 61.8836C62.7857 62.4948 63.202 63.2736 63.3706 64.1214C63.5393 64.9693 63.4527 65.8481 63.1219 66.6467C62.7911 67.4453 62.2309 68.1279 61.5122 68.6082C60.7934 69.0884 59.9484 69.3448 59.084 69.3448C57.9248 69.3448 56.8131 68.8843 55.9934 68.0646C55.1738 67.245 54.7133 66.1333 54.7133 64.9741ZM68.1703 81.1916C68.1781 81.3549 68.1526 81.5182 68.0954 81.6714C68.0382 81.8246 67.9505 81.9646 67.8376 82.0829C67.7247 82.2012 67.5889 82.2954 67.4385 82.3596C67.2881 82.4239 67.1262 82.4569 66.9626 82.4567H51.2628C51.0992 82.4569 50.9373 82.4239 50.7869 82.3596C50.6365 82.2954 50.5008 82.2012 50.3878 82.0829C50.2749 81.9646 50.1872 81.8246 50.13 81.6714C50.0728 81.5182 50.0473 81.3549 50.0551 81.1916V79.7538C50.055 77.4607 50.962 75.2606 52.5782 73.6337C54.1943 72.0068 56.3883 71.0852 58.6814 71.07H59.544C61.8371 71.0852 64.0311 72.0068 65.6473 73.6337C67.2634 75.2606 68.1704 77.4607 68.1703 79.7538V81.1916Z" fill="#D7B46C" stroke="#D7B46C"/>
<path d="M82.605 70.0923C83.7774 69.5775 84.7371 68.675 85.3228 67.5363C85.9085 66.3976 86.0846 65.0921 85.8215 63.8389C85.5585 62.5857 84.8724 61.4611 83.8783 60.654C82.8842 59.8469 81.6427 59.4064 80.3622 59.4064C79.0817 59.4064 77.8402 59.8469 76.8461 60.654C75.852 61.4611 75.1658 62.5857 74.9028 63.8389C74.6398 65.0921 74.8159 66.3976 75.4016 67.5363C75.9873 68.675 76.9469 69.5775 78.1193 70.0923C75.8602 70.5088 73.8181 71.703 72.3474 73.4678C70.8768 75.2326 70.0704 77.4565 70.0681 79.7538V81.1915C70.068 81.5136 70.1324 81.8324 70.2573 82.1293C70.3823 82.4261 70.5654 82.695 70.7958 82.9201C71.0262 83.1451 71.2993 83.3218 71.599 83.4398C71.8987 83.5577 72.219 83.6145 72.541 83.6069H88.1833C88.5053 83.6145 88.8256 83.5577 89.1253 83.4398C89.425 83.3218 89.6981 83.1451 89.9286 82.9201C90.159 82.695 90.342 82.4261 90.467 82.1293C90.592 81.8324 90.6563 81.5136 90.6562 81.1915V79.7538C90.6429 77.4595 89.8325 75.2413 88.3637 73.4788C86.895 71.7163 84.8592 70.5191 82.605 70.0923ZM75.9915 64.974C75.9915 64.1096 76.2478 63.2646 76.7281 62.5458C77.2083 61.8271 77.8909 61.2669 78.6896 60.9361C79.4882 60.6053 80.367 60.5187 81.2148 60.6874C82.0627 60.856 82.8414 61.2723 83.4527 61.8835C84.0639 62.4948 84.4802 63.2735 84.6488 64.1214C84.8175 64.9692 84.7309 65.848 84.4001 66.6466C84.0693 67.4453 83.5091 68.1279 82.7904 68.6081C82.0716 69.0884 81.2266 69.3447 80.3622 69.3447C79.203 69.3447 78.0913 68.8842 77.2716 68.0646C76.452 67.2449 75.9915 66.1332 75.9915 64.974ZM89.4485 81.1915C89.4485 81.527 89.3152 81.8488 89.078 82.0861C88.8407 82.3234 88.5189 82.4567 88.1833 82.4567H72.541C72.2054 82.4567 71.8836 82.3234 71.6464 82.0861C71.4091 81.8488 71.2758 81.527 71.2758 81.1915V79.7538C71.2757 77.4606 72.1827 75.2605 73.7989 73.6336C75.415 72.0067 77.609 71.0851 79.9021 71.07H80.7647C83.0632 71.085 85.2632 72.0048 86.8884 73.63C88.5137 75.2553 89.4335 77.4553 89.4485 79.7538V81.1915Z" fill="#D7B46C" stroke="#D7B46C"/>
<path d="M48.2724 42.258C45.3102 42.2694 42.4114 41.4007 39.9438 39.7621C37.4761 38.1235 35.5507 35.7889 34.4119 33.0544C33.2731 30.3199 32.9721 27.3087 33.5472 24.4029C34.1223 21.4971 35.5475 18.8276 37.6421 16.7331C39.7367 14.6385 42.4062 13.2133 45.312 12.6382C48.2178 12.0631 51.2289 12.364 53.9634 13.5028C56.6979 14.6416 59.0326 16.567 60.6712 19.0347C62.3098 21.5024 63.1785 24.4012 63.1671 27.3633C63.152 31.309 61.5778 35.0887 58.7878 37.8787C55.9978 40.6688 52.218 42.2429 48.2724 42.258ZM48.2724 13.9638C45.6198 13.9524 43.0235 14.7286 40.8124 16.194C38.6013 17.6594 36.8749 19.7481 35.8519 22.1955C34.8289 24.643 34.5553 27.339 35.0658 29.942C35.5763 32.545 36.848 34.938 38.7196 36.8177C40.5912 38.6974 42.9787 39.9793 45.5795 40.501C48.1803 41.0227 50.8775 40.7607 53.3292 39.7482C55.781 38.7358 57.8772 37.0184 59.3521 34.8136C60.827 32.6088 61.6143 30.0159 61.6144 27.3633C61.6144 23.8195 60.2106 20.4199 57.7101 17.9087C55.2096 15.3974 51.8162 13.979 48.2724 13.9638Z" fill="#D7B46C" stroke="#D7B46C"/>
</svg>
