<svg width="102" height="88" viewBox="0 0 102 88" fill="none" xmlns="http://www.w3.org/2000/svg">
<path d="M99.8649 47.661H2.33665C1.95301 47.661 1.58508 47.509 1.31381 47.2385C1.04254 46.9679 0.890137 46.601 0.890137 46.2184V36.8971C0.890137 36.5145 1.04254 36.1475 1.31381 35.877C1.58508 35.6065 1.95301 35.4545 2.33665 35.4545H99.8649C100.249 35.4545 100.616 35.6065 100.888 35.877C101.159 36.1475 101.311 36.5145 101.311 36.8971V46.2184C101.311 46.601 101.159 46.9679 100.888 47.2385C100.616 47.509 100.249 47.661 99.8649 47.661ZM3.72752 44.7758H98.474V38.2842H3.72752V44.7758Z" fill="#D7B46C"/>
<path d="M15.5221 87.9982H7.73315C7.48231 87.9982 7.24174 87.8988 7.06437 87.7219C6.887 87.545 6.78735 87.3051 6.78735 87.0549V46.2185C6.80071 45.9727 6.90464 45.7404 7.0792 45.5663C7.25376 45.3922 7.48664 45.2886 7.73315 45.2753H15.5221C15.7686 45.2886 16.0014 45.3922 16.176 45.5663C16.3506 45.7404 16.4545 45.9727 16.4679 46.2185V87.0549C16.4679 87.1788 16.4434 87.3015 16.3959 87.4159C16.3483 87.5303 16.2787 87.6343 16.1908 87.7219C16.103 87.8095 15.9987 87.879 15.884 87.9264C15.7692 87.9738 15.6463 87.9982 15.5221 87.9982ZM8.67895 86.1117H14.5763V47.1617H8.67895V86.1117Z" fill="#D7B46C"/>
<path d="M94.5239 87.9982H86.7907C86.6643 88.0063 86.5377 87.9875 86.4193 87.943C86.3008 87.8985 86.1932 87.8293 86.1037 87.74C86.0142 87.6507 85.9448 87.5435 85.9002 87.4253C85.8556 87.3072 85.8367 87.1809 85.8449 87.0549V46.2185C85.8449 45.9683 85.9445 45.7284 86.1219 45.5515C86.2993 45.3746 86.5398 45.2753 86.7907 45.2753H94.5239C94.7748 45.2753 95.0154 45.3746 95.1927 45.5515C95.3701 45.7284 95.4697 45.9683 95.4697 46.2185V87.0549C95.4779 87.1809 95.4591 87.3072 95.4144 87.4253C95.3698 87.5435 95.3004 87.6507 95.2109 87.74C95.1214 87.8293 95.0138 87.8985 94.8953 87.943C94.7769 87.9875 94.6503 88.0063 94.5239 87.9982ZM87.7365 86.1117H93.5782V47.1617H87.7365V86.1117Z" fill="#D7B46C"/>
<path d="M86.7907 81.1181H15.5222C15.2714 81.1181 15.0308 81.0187 14.8534 80.8418C14.6761 80.6649 14.5764 80.425 14.5764 80.1748V72.407C14.5764 72.1569 14.6761 71.917 14.8534 71.7401C15.0308 71.5632 15.2714 71.4638 15.5222 71.4638H86.7907C87.0372 71.4771 87.2701 71.5808 87.4447 71.7549C87.6192 71.9289 87.7232 72.1612 87.7365 72.407V80.1748C87.7232 80.4207 87.6192 80.6529 87.4447 80.827C87.2701 81.0011 87.0372 81.1048 86.7907 81.1181ZM16.468 79.2316H85.8449V73.3503H16.468V79.2316Z" fill="#D7B46C"/>
<path d="M51.1288 62.4753C49.5744 62.4796 48.0788 61.883 46.9562 60.8108L23.812 37.8958C23.618 37.6943 23.4868 37.4411 23.4343 37.1667C23.3818 36.8924 23.4104 36.6087 23.5164 36.3502C23.6224 36.0917 23.8014 35.8695 24.0317 35.7105C24.2619 35.5515 24.5335 35.4625 24.8134 35.4545H77.3885C77.6685 35.4625 77.94 35.5515 78.1703 35.7105C78.4005 35.8695 78.5795 36.0917 78.6856 36.3502C78.7916 36.6087 78.8201 36.8924 78.7676 37.1667C78.7152 37.4411 78.584 37.6943 78.39 37.8958L55.3014 60.8108C54.1788 61.883 52.6832 62.4796 51.1288 62.4753ZM28.2628 38.2842L48.959 58.7579C49.531 59.317 50.3 59.6302 51.101 59.6302C51.9019 59.6302 52.6709 59.317 53.2429 58.7579L73.9392 38.2842H28.2628Z" fill="#D7B46C"/>
<path d="M62.8676 30.2945H43.1728C41.4021 30.2945 39.704 29.593 38.452 28.3444C37.2 27.0957 36.4966 25.4022 36.4966 23.6364V9.70979C36.4966 8.562 36.9538 7.46121 37.7676 6.6496C38.5814 5.83798 39.6852 5.38202 40.8361 5.38202H65.2043C66.3552 5.38202 67.459 5.83798 68.2728 6.6496C69.0866 7.46121 69.5438 8.562 69.5438 9.70979V23.6364C69.5438 25.4022 68.8404 27.0957 67.5884 28.3444C66.3364 29.593 64.6382 30.2945 62.8676 30.2945ZM40.8361 8.21172C40.4377 8.21172 40.0556 8.36955 39.7739 8.6505C39.4922 8.93144 39.334 9.31248 39.334 9.70979V23.6364C39.334 24.6517 39.7384 25.6255 40.4583 26.3435C41.1783 27.0614 42.1547 27.4648 43.1728 27.4648H62.8676C63.8857 27.4648 64.8621 27.0614 65.5821 26.3435C66.302 25.6255 66.7064 24.6517 66.7064 23.6364V9.70979C66.7064 9.31248 66.5482 8.93144 66.2664 8.6505C65.9847 8.36955 65.6027 8.21172 65.2043 8.21172H40.8361Z" fill="#D7B46C"/>
<path d="M68.1529 15.3137H37.8874C37.6366 15.3137 37.396 15.2143 37.2187 15.0374C37.0413 14.8606 36.9417 14.6206 36.9417 14.3705C36.955 14.1246 37.0589 13.8924 37.2335 13.7183C37.4081 13.5442 37.6409 13.4406 37.8874 13.4272H68.1529C68.3994 13.4406 68.6323 13.5442 68.8069 13.7183C68.9814 13.8924 69.0854 14.1246 69.0987 14.3705C69.0987 14.6206 68.9991 14.8606 68.8217 15.0374C68.6443 15.2143 68.4038 15.3137 68.1529 15.3137Z" fill="#D7B46C"/>
<path d="M58.9177 7.7678C58.6712 7.75449 58.4383 7.65083 58.2637 7.47675C58.0892 7.30266 57.9852 7.07041 57.9719 6.82457C57.9719 5.5149 57.4502 4.25888 56.5216 3.3328C55.593 2.40673 54.3336 1.88647 53.0204 1.88647C51.7071 1.88647 50.4477 2.40673 49.5191 3.3328C48.5905 4.25888 48.0688 5.5149 48.0688 6.82457C48.0688 6.94844 48.0444 7.07109 47.9968 7.18553C47.9493 7.29997 47.8796 7.40395 47.7918 7.49153C47.704 7.57912 47.5997 7.6486 47.485 7.696C47.3702 7.7434 47.2472 7.7678 47.123 7.7678C46.8765 7.75449 46.6437 7.65083 46.4691 7.47675C46.2945 7.30266 46.1906 7.07041 46.1772 6.82457C46.1772 5.92835 46.3542 5.04091 46.6981 4.21292C47.042 3.38492 47.5461 2.63259 48.1815 1.99887C48.817 1.36515 49.5714 0.862457 50.4016 0.51949C51.2319 0.176523 52.1217 0 53.0204 0C53.919 0 54.8089 0.176523 55.6391 0.51949C56.4693 0.862457 57.2237 1.36515 57.8592 1.99887C58.4946 2.63259 58.9987 3.38492 59.3426 4.21292C59.6865 5.04091 59.8635 5.92835 59.8635 6.82457C59.8635 7.07473 59.7638 7.31464 59.5865 7.49153C59.4091 7.66843 59.1685 7.7678 58.9177 7.7678Z" fill="#D7B46C"/>
<path d="M60.6979 37.8403H45.0088C44.7623 37.827 44.5294 37.7233 44.3548 37.5493C44.1803 37.3752 44.0763 37.1429 44.063 36.8971V28.9073C44.063 28.6572 44.1626 28.4173 44.34 28.2404C44.5174 28.0635 44.7579 27.9641 45.0088 27.9641H60.6979C60.9487 27.9641 61.1893 28.0635 61.3667 28.2404C61.544 28.4173 61.6437 28.6572 61.6437 28.9073V36.8971C61.6303 37.1429 61.5264 37.3752 61.3518 37.5493C61.1773 37.7233 60.9444 37.827 60.6979 37.8403ZM45.9546 35.8984H59.7521V29.8506H45.9546V35.8984Z" fill="#D7B46C"/>
<path d="M26.4267 30.2945H6.67621C4.90557 30.2945 3.20745 29.593 1.95542 28.3444C0.703384 27.0957 0 25.4022 0 23.6364V9.70979C0 8.562 0.4572 7.46121 1.27102 6.6496C2.08484 5.83798 3.18862 5.38202 4.33954 5.38202H28.7633C29.3332 5.38202 29.8975 5.49396 30.424 5.71145C30.9505 5.92894 31.4289 6.24772 31.8318 6.6496C32.2348 7.05147 32.5545 7.52856 32.7725 8.05363C32.9906 8.5787 33.1029 9.14146 33.1029 9.70979V23.6364C33.1029 25.4022 32.3995 27.0957 31.1474 28.3444C29.8954 29.593 28.1973 30.2945 26.4267 30.2945ZM4.33954 8.21172C3.94114 8.21172 3.55906 8.36955 3.27736 8.6505C2.99565 8.93144 2.83739 9.31248 2.83739 9.70979V23.6364C2.83739 24.6517 3.24183 25.6255 3.96175 26.3435C4.68167 27.0614 5.65809 27.4648 6.67621 27.4648H26.4267C27.4448 27.4648 28.4212 27.0614 29.1411 26.3435C29.861 25.6255 30.2655 24.6517 30.2655 23.6364V9.70979C30.2655 9.31248 30.1072 8.93144 29.8255 8.6505C29.5438 8.36955 29.1617 8.21172 28.7633 8.21172H4.33954Z" fill="#D7B46C"/>
<path d="M31.6563 15.3137H1.44643C1.32011 15.3219 1.1935 15.3031 1.07504 15.2585C0.956585 15.214 0.849012 15.1448 0.759501 15.0556C0.669991 14.9663 0.6006 14.859 0.555961 14.7409C0.511322 14.6227 0.492462 14.4965 0.500638 14.3705C0.500638 14.2466 0.525102 14.124 0.572633 14.0095C0.620163 13.8951 0.68983 13.7911 0.777655 13.7035C0.86548 13.6159 0.969744 13.5464 1.08449 13.499C1.19924 13.4516 1.32223 13.4272 1.44643 13.4272H31.6563C31.7805 13.4272 31.9035 13.4516 32.0182 13.499C32.133 13.5464 32.2372 13.6159 32.3251 13.7035C32.4129 13.7911 32.4825 13.8951 32.5301 14.0095C32.5776 14.124 32.6021 14.2466 32.6021 14.3705C32.6102 14.4965 32.5914 14.6227 32.5467 14.7409C32.5021 14.859 32.4327 14.9663 32.3432 15.0556C32.2537 15.1448 32.1461 15.214 32.0277 15.2585C31.9092 15.3031 31.7826 15.3219 31.6563 15.3137Z" fill="#D7B46C"/>
<path d="M22.4767 7.76777C22.2205 7.76816 21.9739 7.67059 21.7876 7.49513C21.6013 7.31967 21.4895 7.07968 21.4753 6.82454C21.5488 6.13585 21.4762 5.43945 21.2623 4.78056C21.0484 4.12167 20.6978 3.51503 20.2335 3.00004C19.7692 2.48505 19.2014 2.07323 18.5671 1.79132C17.9327 1.50942 17.2461 1.36373 16.5516 1.36373C15.8571 1.36373 15.1704 1.50942 14.5361 1.79132C13.9018 2.07323 13.334 2.48505 12.8697 3.00004C12.4054 3.51503 12.0548 4.12167 11.8409 4.78056C11.627 5.43945 11.5544 6.13585 11.6279 6.82454C11.6145 7.07037 11.5106 7.30263 11.336 7.47671C11.1615 7.6508 10.9286 7.75445 10.6821 7.76777C10.4259 7.76816 10.1792 7.67059 9.99294 7.49513C9.80666 7.31967 9.6949 7.07968 9.68066 6.82454C9.83519 5.11361 10.6259 3.52223 11.8974 2.36329C13.1689 1.20435 14.8291 0.561707 16.5516 0.561707C18.2741 0.561707 19.9343 1.20435 21.2058 2.36329C22.4773 3.52223 23.268 5.11361 23.4225 6.82454C23.4092 7.07037 23.3052 7.30263 23.1307 7.47671C22.9561 7.6508 22.7232 7.75445 22.4767 7.76777Z" fill="#D7B46C"/>
<path d="M24.2012 37.8403H8.56777C8.31693 37.8403 8.07636 37.741 7.89899 37.5641C7.72162 37.3872 7.62198 37.1473 7.62198 36.8971V28.9074C7.6138 28.7814 7.63266 28.6551 7.6773 28.537C7.72194 28.4188 7.79133 28.3116 7.88084 28.2223C7.97035 28.133 8.07792 28.0638 8.19638 28.0193C8.31483 27.9748 8.44145 27.956 8.56777 27.9641H24.2012C24.4521 27.9641 24.6926 28.0635 24.87 28.2404C25.0474 28.4173 25.147 28.6572 25.147 28.9074V36.8971C25.1337 37.1429 25.0297 37.3752 24.8552 37.5493C24.6806 37.7234 24.4477 37.827 24.2012 37.8403ZM9.51357 35.8984H23.2554V29.8506H9.51357V35.8984Z" fill="#D7B46C"/>
<path d="M100.421 11.3188H73.0488C72.8023 11.3055 72.5694 11.2018 72.3949 11.0277C72.2203 10.8536 72.1164 10.6214 72.103 10.3755C72.103 10.1254 72.2027 9.88547 72.38 9.70858C72.5574 9.53169 72.798 9.43231 73.0488 9.43231H100.421C100.672 9.43231 100.913 9.53169 101.09 9.70858C101.267 9.88547 101.367 10.1254 101.367 10.3755C101.354 10.6214 101.25 10.8536 101.075 11.0277C100.901 11.2018 100.668 11.3055 100.421 11.3188Z" fill="#D7B46C"/>
<path d="M93.5224 16.3124H79.9475C79.0029 16.2802 78.0909 15.9597 77.3348 15.3941C76.5786 14.8285 76.0147 14.0452 75.7192 13.1498L74.829 10.6531C74.7773 10.5159 74.7604 10.3682 74.7798 10.223C74.7992 10.0778 74.8543 9.93958 74.9403 9.82079C75.0259 9.69494 75.1425 9.59313 75.2789 9.52512C75.4153 9.45711 75.5669 9.42518 75.7192 9.4324H97.7507C97.903 9.42518 98.0546 9.45711 98.191 9.52512C98.3274 9.59313 98.444 9.69494 98.5296 9.82079C98.6155 9.93958 98.6707 10.0778 98.6901 10.223C98.7095 10.3682 98.6926 10.5159 98.6408 10.6531L97.7507 13.1498C97.4552 14.0452 96.8913 14.8285 96.1351 15.3941C95.379 15.9597 94.467 16.2802 93.5224 16.3124ZM77.1101 11.3189L77.4995 12.484C77.6584 13.0192 77.9785 13.4926 78.4164 13.84C78.8544 14.1874 79.3889 14.392 79.9475 14.426H93.5224C94.0761 14.397 94.6063 14.1933 95.0363 13.8443C95.4663 13.4952 95.7739 13.0189 95.9147 12.484L96.3598 11.3189H77.1101Z" fill="#D7B46C"/>
<path d="M100.421 17.5331H73.0488C72.8023 17.5198 72.5694 17.4161 72.3949 17.242C72.2203 17.0679 72.1164 16.8357 72.103 16.5898C72.103 16.3397 72.2027 16.0998 72.38 15.9229C72.5574 15.746 72.798 15.6466 73.0488 15.6466H100.421C100.672 15.6466 100.913 15.746 101.09 15.9229C101.267 16.0998 101.367 16.3397 101.367 16.5898C101.354 16.8357 101.25 17.0679 101.075 17.242C100.901 17.4161 100.668 17.5198 100.421 17.5331Z" fill="#D7B46C"/>
<path d="M93.5224 22.5266H79.9475C79.0029 22.4944 78.0909 22.1738 77.3348 21.6083C76.5786 21.0427 76.0147 20.2594 75.7192 19.364L74.829 16.8672C74.7773 16.7301 74.7604 16.5824 74.7798 16.4371C74.7992 16.2919 74.8543 16.1538 74.9403 16.035C75.0259 15.9091 75.1425 15.8073 75.2789 15.7393C75.4153 15.6713 75.5669 15.6394 75.7192 15.6466H97.7507C97.903 15.6394 98.0546 15.6713 98.191 15.7393C98.3274 15.8073 98.444 15.9091 98.5296 16.035C98.6155 16.1538 98.6707 16.2919 98.6901 16.4371C98.7095 16.5824 98.6926 16.7301 98.6408 16.8672L97.7507 19.364C97.4552 20.2594 96.8913 21.0427 96.1351 21.6083C95.379 22.1738 94.467 22.4944 93.5224 22.5266ZM77.1101 17.533L77.4995 18.6982C77.6584 19.2333 77.9785 19.7067 78.4164 20.0542C78.8544 20.4016 79.3889 20.6062 79.9475 20.6402H93.5224C94.0761 20.6112 94.6063 20.4075 95.0363 20.0584C95.4663 19.7094 95.7739 19.233 95.9147 18.6982L96.3598 17.533H77.1101Z" fill="#D7B46C"/>
<path d="M100.421 24.0247H73.0488C72.798 24.0247 72.5574 23.9253 72.38 23.7484C72.2027 23.5716 72.103 23.3316 72.103 23.0815C72.1164 22.8356 72.2203 22.6034 72.3949 22.4293C72.5694 22.2552 72.8023 22.1516 73.0488 22.1382H100.421C100.668 22.1516 100.901 22.2552 101.075 22.4293C101.25 22.6034 101.354 22.8356 101.367 23.0815C101.367 23.3316 101.267 23.5716 101.09 23.7484C100.913 23.9253 100.672 24.0247 100.421 24.0247Z" fill="#D7B46C"/>
<path d="M93.5225 29.0738H79.9475C78.9982 29.0297 78.085 28.6981 77.3295 28.1232C76.5741 27.5482 76.0124 26.7572 75.7192 25.8557L74.8291 23.4144C74.7771 23.268 74.7601 23.1115 74.7795 22.9574C74.7988 22.8033 74.8539 22.6558 74.9404 22.5266C75.0351 22.4104 75.1535 22.3157 75.2878 22.2487C75.4221 22.1818 75.5692 22.1441 75.7192 22.1382H97.7507C97.9008 22.1441 98.0478 22.1818 98.1821 22.2487C98.3164 22.3157 98.4349 22.4104 98.5296 22.5266C98.6161 22.6558 98.6712 22.8033 98.6905 22.9574C98.7098 23.1115 98.6928 23.268 98.6409 23.4144L97.7507 25.8557C97.4576 26.7572 96.8959 27.5482 96.1404 28.1232C95.385 28.6981 94.4717 29.0297 93.5225 29.0738ZM77.1101 24.0247L77.4996 25.1899C77.9446 26.4105 78.8904 27.1873 79.9475 27.1873H93.5225C94.0835 27.155 94.6192 26.9432 95.0501 26.5834C95.481 26.2236 95.7842 25.735 95.9148 25.1899L96.3598 24.0247H77.1101Z" fill="#D7B46C"/>
<path d="M100.421 30.239H73.0488C72.798 30.239 72.5574 30.1396 72.38 29.9627C72.2027 29.7858 72.103 29.5459 72.103 29.2958C72.1164 29.0499 72.2203 28.8177 72.3949 28.6436C72.5694 28.4695 72.8023 28.3659 73.0488 28.3525H100.421C100.668 28.3659 100.901 28.4695 101.075 28.6436C101.25 28.8177 101.354 29.0499 101.367 29.2958C101.367 29.5459 101.267 29.7858 101.09 29.9627C100.913 30.1396 100.672 30.239 100.421 30.239Z" fill="#D7B46C"/>
<path d="M93.5225 35.2881H79.9475C78.9982 35.244 78.085 34.9124 77.3295 34.3374C76.5741 33.7625 76.0124 32.9715 75.7192 32.07L74.8291 29.6287C74.7771 29.4823 74.7601 29.3258 74.7795 29.1717C74.7988 29.0176 74.8539 28.8701 74.9404 28.7409C75.0351 28.6247 75.1535 28.53 75.2878 28.463C75.4221 28.3961 75.5692 28.3584 75.7192 28.3525H97.7507C97.9008 28.3584 98.0478 28.3961 98.1821 28.463C98.3164 28.53 98.4349 28.6247 98.5296 28.7409C98.6161 28.8701 98.6712 29.0176 98.6905 29.1717C98.7098 29.3258 98.6928 29.4823 98.6409 29.6287L97.7507 32.07C97.4576 32.9715 96.8959 33.7625 96.1404 34.3374C95.385 34.9124 94.4717 35.244 93.5225 35.2881ZM77.1101 30.239L77.4996 31.4597C77.6584 31.9948 77.9785 32.4682 78.4165 32.8156C78.8544 33.163 79.3889 33.3676 79.9475 33.4016H93.5225C94.0835 33.3693 94.6192 33.1575 95.0501 32.7977C95.481 32.4379 95.7842 31.9493 95.9148 31.4042L96.3598 30.239H77.1101Z" fill="#D7B46C"/>
</svg>
