<svg width="103" height="146" viewBox="0 0 103 146" fill="none" xmlns="http://www.w3.org/2000/svg">
<path opacity="0.8" d="M70.3519 0H32.6481V14.8324H70.3519V0Z" fill="white"/>
<path opacity="0.8" d="M7.36938 38.9965C11.4394 38.9965 14.7388 35.682 14.7388 31.5932C14.7388 27.5045 11.4394 24.1899 7.36938 24.1899C3.29938 24.1899 0 27.5045 0 31.5932C0 35.682 3.29938 38.9965 7.36938 38.9965Z" fill="white"/>
<path opacity="0.8" d="M29.3918 38.9965C33.4618 38.9965 36.7612 35.682 36.7612 31.5932C36.7612 27.5045 33.4618 24.1899 29.3918 24.1899C25.3218 24.1899 22.0224 27.5045 22.0224 31.5932C22.0224 35.682 25.3218 38.9965 29.3918 38.9965Z" fill="white"/>
<path opacity="0.8" d="M51.5 38.9965C55.57 38.9965 58.8694 35.682 58.8694 31.5932C58.8694 27.5045 55.57 24.1899 51.5 24.1899C47.43 24.1899 44.1306 27.5045 44.1306 31.5932C44.1306 35.682 47.43 38.9965 51.5 38.9965Z" fill="white"/>
<path opacity="0.8" d="M73.5224 38.9965C77.5924 38.9965 80.8918 35.682 80.8918 31.5932C80.8918 27.5045 77.5924 24.1899 73.5224 24.1899C69.4524 24.1899 66.153 27.5045 66.153 31.5932C66.153 35.682 69.4524 38.9965 73.5224 38.9965Z" fill="white"/>
<path opacity="0.8" d="M95.6306 38.9965C99.7006 38.9965 103 35.682 103 31.5932C103 27.5045 99.7006 24.1899 95.6306 24.1899C91.5606 24.1899 88.2612 27.5045 88.2612 31.5932C88.2612 35.682 91.5606 38.9965 95.6306 38.9965Z" fill="white"/>
<path opacity="0.8" d="M7.36938 60.3455C11.4394 60.3455 14.7388 57.031 14.7388 52.9422C14.7388 48.8535 11.4394 45.5389 7.36938 45.5389C3.29938 45.5389 0 48.8535 0 52.9422C0 57.031 3.29938 60.3455 7.36938 60.3455Z" fill="white"/>
<path opacity="0.8" d="M29.3918 60.3455C33.4618 60.3455 36.7612 57.031 36.7612 52.9422C36.7612 48.8535 33.4618 45.5389 29.3918 45.5389C25.3218 45.5389 22.0224 48.8535 22.0224 52.9422C22.0224 57.031 25.3218 60.3455 29.3918 60.3455Z" fill="white"/>
<path opacity="0.8" d="M51.5 60.3455C55.57 60.3455 58.8694 57.031 58.8694 52.9422C58.8694 48.8535 55.57 45.5389 51.5 45.5389C47.43 45.5389 44.1306 48.8535 44.1306 52.9422C44.1306 57.031 47.43 60.3455 51.5 60.3455Z" fill="white"/>
<path opacity="0.8" d="M73.5224 60.3455C77.5924 60.3455 80.8918 57.031 80.8918 52.9422C80.8918 48.8535 77.5924 45.5389 73.5224 45.5389C69.4524 45.5389 66.153 48.8535 66.153 52.9422C66.153 57.031 69.4524 60.3455 73.5224 60.3455Z" fill="white"/>
<path opacity="0.8" d="M95.6306 60.3455C99.7006 60.3455 103 57.031 103 52.9422C103 48.8535 99.7006 45.5389 95.6306 45.5389C91.5606 45.5389 88.2612 48.8535 88.2612 52.9422C88.2612 57.031 91.5606 60.3455 95.6306 60.3455Z" fill="white"/>
<path opacity="0.8" d="M7.36938 81.7806C11.4394 81.7806 14.7388 78.466 14.7388 74.3773C14.7388 70.2886 11.4394 66.974 7.36938 66.974C3.29938 66.974 0 70.2886 0 74.3773C0 78.466 3.29938 81.7806 7.36938 81.7806Z" fill="white"/>
<path opacity="0.8" d="M29.3918 81.7806C33.4618 81.7806 36.7612 78.466 36.7612 74.3773C36.7612 70.2886 33.4618 66.974 29.3918 66.974C25.3218 66.974 22.0224 70.2886 22.0224 74.3773C22.0224 78.466 25.3218 81.7806 29.3918 81.7806Z" fill="white"/>
<path opacity="0.8" d="M51.5 81.7806C55.57 81.7806 58.8694 78.466 58.8694 74.3773C58.8694 70.2886 55.57 66.974 51.5 66.974C47.43 66.974 44.1306 70.2886 44.1306 74.3773C44.1306 78.466 47.43 81.7806 51.5 81.7806Z" fill="white"/>
<path opacity="0.8" d="M73.5224 81.7806C77.5924 81.7806 80.8918 78.466 80.8918 74.3773C80.8918 70.2886 77.5924 66.974 73.5224 66.974C69.4524 66.974 66.153 70.2886 66.153 74.3773C66.153 78.466 69.4524 81.7806 73.5224 81.7806Z" fill="white"/>
<path opacity="0.8" d="M95.6306 81.7806C99.7006 81.7806 103 78.466 103 74.3773C103 70.2886 99.7006 66.974 95.6306 66.974C91.5606 66.974 88.2612 70.2886 88.2612 74.3773C88.2612 78.466 91.5606 81.7806 95.6306 81.7806Z" fill="white"/>
<path opacity="0.8" d="M7.36938 103.216C11.4394 103.216 14.7388 99.9011 14.7388 95.8124C14.7388 91.7236 11.4394 88.4091 7.36938 88.4091C3.29938 88.4091 0 91.7236 0 95.8124C0 99.9011 3.29938 103.216 7.36938 103.216Z" fill="white"/>
<path opacity="0.8" d="M29.3918 103.216C33.4618 103.216 36.7612 99.9011 36.7612 95.8124C36.7612 91.7236 33.4618 88.4091 29.3918 88.4091C25.3218 88.4091 22.0224 91.7236 22.0224 95.8124C22.0224 99.9011 25.3218 103.216 29.3918 103.216Z" fill="white"/>
<path opacity="0.8" d="M51.5 103.216C55.57 103.216 58.8694 99.9011 58.8694 95.8124C58.8694 91.7236 55.57 88.4091 51.5 88.4091C47.43 88.4091 44.1306 91.7236 44.1306 95.8124C44.1306 99.9011 47.43 103.216 51.5 103.216Z" fill="white"/>
<path opacity="0.8" d="M73.5224 103.216C77.5924 103.216 80.8918 99.9011 80.8918 95.8124C80.8918 91.7236 77.5924 88.4091 73.5224 88.4091C69.4524 88.4091 66.153 91.7236 66.153 95.8124C66.153 99.9011 69.4524 103.216 73.5224 103.216Z" fill="white"/>
<path opacity="0.8" d="M95.6306 103.216C99.7006 103.216 103 99.9011 103 95.8124C103 91.7236 99.7006 88.4091 95.6306 88.4091C91.5606 88.4091 88.2612 91.7236 88.2612 95.8124C88.2612 99.9011 91.5606 103.216 95.6306 103.216Z" fill="white"/>
<path opacity="0.8" d="M7.36938 124.565C11.4394 124.565 14.7388 121.25 14.7388 117.161C14.7388 113.073 11.4394 109.758 7.36938 109.758C3.29938 109.758 0 113.073 0 117.161C0 121.25 3.29938 124.565 7.36938 124.565Z" fill="white"/>
<path opacity="0.8" d="M29.3918 124.565C33.4618 124.565 36.7612 121.25 36.7612 117.161C36.7612 113.073 33.4618 109.758 29.3918 109.758C25.3218 109.758 22.0224 113.073 22.0224 117.161C22.0224 121.25 25.3218 124.565 29.3918 124.565Z" fill="white"/>
<path opacity="0.8" d="M51.5 124.565C55.57 124.565 58.8694 121.25 58.8694 117.161C58.8694 113.073 55.57 109.758 51.5 109.758C47.43 109.758 44.1306 113.073 44.1306 117.161C44.1306 121.25 47.43 124.565 51.5 124.565Z" fill="white"/>
<path opacity="0.8" d="M73.5224 124.565C77.5924 124.565 80.8918 121.25 80.8918 117.161C80.8918 113.073 77.5924 109.758 73.5224 109.758C69.4524 109.758 66.153 113.073 66.153 117.161C66.153 121.25 69.4524 124.565 73.5224 124.565Z" fill="white"/>
<path opacity="0.8" d="M95.6306 124.565C99.7006 124.565 103 121.25 103 117.161C103 113.073 99.7006 109.758 95.6306 109.758C91.5606 109.758 88.2612 113.073 88.2612 117.161C88.2612 121.25 91.5606 124.565 95.6306 124.565Z" fill="white"/>
<path opacity="0.8" d="M7.36938 146C11.4394 146 14.7388 142.685 14.7388 138.597C14.7388 134.508 11.4394 131.193 7.36938 131.193C3.29938 131.193 0 134.508 0 138.597C0 142.685 3.29938 146 7.36938 146Z" fill="white"/>
<path opacity="0.8" d="M29.3918 146C33.4618 146 36.7612 142.685 36.7612 138.597C36.7612 134.508 33.4618 131.193 29.3918 131.193C25.3218 131.193 22.0224 134.508 22.0224 138.597C22.0224 142.685 25.3218 146 29.3918 146Z" fill="white"/>
<path opacity="0.8" d="M51.5 146C55.57 146 58.8694 142.685 58.8694 138.597C58.8694 134.508 55.57 131.193 51.5 131.193C47.43 131.193 44.1306 134.508 44.1306 138.597C44.1306 142.685 47.43 146 51.5 146Z" fill="white"/>
<path opacity="0.8" d="M73.5224 146C77.5924 146 80.8918 142.685 80.8918 138.597C80.8918 134.508 77.5924 131.193 73.5224 131.193C69.4524 131.193 66.153 134.508 66.153 138.597C66.153 142.685 69.4524 146 73.5224 146Z" fill="white"/>
<path opacity="0.8" d="M95.5449 146C99.6149 146 102.914 142.685 102.914 138.597C102.914 134.508 99.6149 131.193 95.5449 131.193C91.4749 131.193 88.1756 134.508 88.1756 138.597C88.1756 142.685 91.4749 146 95.5449 146Z" fill="white"/>
</svg>
