<svg width="110" height="122" viewBox="0 0 110 122" fill="none" xmlns="http://www.w3.org/2000/svg">
<path opacity="0.8" d="M31.9268 18.7526H0.0901489V30.9095H31.9268V18.7526Z" fill="white"/>
<path opacity="0.8" d="M54.6139 12.2144C58.1058 12.2144 60.9366 9.4801 60.9366 6.10719C60.9366 2.73428 58.1058 0 54.6139 0C51.122 0 48.2912 2.73428 48.2912 6.10719C48.2912 9.4801 51.122 12.2144 54.6139 12.2144Z" fill="white"/>
<path opacity="0.8" d="M10.8014 39.2298C11.9824 40.3745 12.6455 41.9246 12.6455 43.5407C12.6455 45.1568 11.9824 46.707 10.8014 47.8517C9.92252 48.6834 8.80902 49.246 7.60049 49.4689C6.39196 49.6919 5.14218 49.5652 4.00788 49.1048C2.87359 48.6444 1.90525 47.8708 1.22431 46.881C0.543362 45.8911 0.180115 44.7291 0.180115 43.5407C0.180115 42.3523 0.543362 41.1903 1.22431 40.2005C1.90525 39.2106 2.87359 38.437 4.00788 37.9766C5.14218 37.5163 6.39196 37.3896 7.60049 37.6125C8.80902 37.8354 9.92252 38.398 10.8014 39.2298Z" fill="white"/>
<path opacity="0.8" d="M25.6038 49.6479C29.0957 49.6479 31.9265 46.9136 31.9265 43.5407C31.9265 40.1678 29.0957 37.4335 25.6038 37.4335C22.1118 37.4335 19.2811 40.1678 19.2811 43.5407C19.2811 46.9136 22.1118 49.6479 25.6038 49.6479Z" fill="white"/>
<path opacity="0.8" d="M70.3835 18.7526H38.5468V30.9095H70.3835V18.7526Z" fill="white"/>
<path opacity="0.8" d="M44.8695 49.6479C48.3615 49.6479 51.1922 46.9136 51.1922 43.5407C51.1922 40.1678 48.3615 37.4335 44.8695 37.4335C41.3776 37.4335 38.5468 40.1678 38.5468 43.5407C38.5468 46.9136 41.3776 49.6479 44.8695 49.6479Z" fill="white"/>
<path opacity="0.8" d="M68.5239 39.2298C69.7049 40.3745 70.368 41.9247 70.368 43.5408C70.368 45.1569 69.7049 46.7071 68.5239 47.8518C67.9434 48.4144 67.2536 48.8609 66.4941 49.1655C65.7346 49.4701 64.9204 49.6269 64.098 49.6269C63.2756 49.6269 62.4613 49.4701 61.7018 49.1655C60.9424 48.8609 60.2526 48.4144 59.6721 47.8518C58.4911 46.7071 57.8279 45.1569 57.8279 43.5408C57.8279 41.9247 58.4911 40.3745 59.6721 39.2298C60.2526 38.6672 60.9424 38.2207 61.7018 37.9161C62.4613 37.6115 63.2756 37.4547 64.098 37.4547C64.9204 37.4547 65.7346 37.6115 66.4941 37.9161C67.2536 38.2207 67.9434 38.6672 68.5239 39.2298Z" fill="white"/>
<path opacity="0.8" d="M108.915 18.7526H77.0781V30.9095H108.915V18.7526Z" fill="white"/>
<path opacity="0.8" d="M83.3264 49.6479C86.8183 49.6479 89.6491 46.9136 89.6491 43.5407C89.6491 40.1678 86.8183 37.4335 83.3264 37.4335C79.8344 37.4335 77.0037 40.1678 77.0037 43.5407C77.0037 46.9136 79.8344 49.6479 83.3264 49.6479Z" fill="white"/>
<path opacity="0.8" d="M102.592 49.6479C106.084 49.6479 108.915 46.9136 108.915 43.5407C108.915 40.1678 106.084 37.4335 102.592 37.4335C99.1002 37.4335 96.2694 40.1678 96.2694 43.5407C96.2694 46.9136 99.1002 49.6479 102.592 49.6479Z" fill="white"/>
<path opacity="0.8" d="M32.0009 54.8929H0.164246V67.0499H32.0009V54.8929Z" fill="white"/>
<path opacity="0.8" d="M10.95 75.4417C11.5325 76.0024 11.9947 76.6687 12.31 77.4023C12.6254 78.1359 12.7878 78.9224 12.7878 79.7167C12.7878 80.5111 12.6254 81.2976 12.31 82.0312C11.9947 82.7648 11.5325 83.4311 10.95 83.9918C9.76488 85.1325 8.15999 85.7731 6.48689 85.7731C4.8138 85.7731 3.20891 85.1325 2.0238 83.9918C1.44129 83.4311 0.979103 82.7648 0.663738 82.0312C0.348372 81.2976 0.186035 80.5111 0.186035 79.7167C0.186035 78.9224 0.348372 78.1359 0.663738 77.4023C0.979103 76.6687 1.44129 76.0024 2.0238 75.4417C3.20891 74.3009 4.8138 73.6604 6.48689 73.6604C8.15999 73.6604 9.76488 74.3009 10.95 75.4417Z" fill="white"/>
<path opacity="0.8" d="M25.7527 85.788C29.2446 85.788 32.0754 83.0537 32.0754 79.6808C32.0754 76.3079 29.2446 73.5736 25.7527 73.5736C22.2608 73.5736 19.43 76.3079 19.43 79.6808C19.43 83.0537 22.2608 85.788 25.7527 85.788Z" fill="white"/>
<path opacity="0.8" d="M70.5322 54.8929H38.6955V67.0499H70.5322V54.8929Z" fill="white"/>
<path opacity="0.8" d="M45.0182 85.788C48.5101 85.788 51.3409 83.0537 51.3409 79.6808C51.3409 76.3079 48.5101 73.5736 45.0182 73.5736C41.5263 73.5736 38.6955 76.3079 38.6955 79.6808C38.6955 83.0537 41.5263 85.788 45.0182 85.788Z" fill="white"/>
<path opacity="0.8" d="M64.2096 85.788C67.7015 85.788 70.5323 83.0537 70.5323 79.6808C70.5323 76.3079 67.7015 73.5736 64.2096 73.5736C60.7177 73.5736 57.8869 76.3079 57.8869 79.6808C57.8869 83.0537 60.7177 85.788 64.2096 85.788Z" fill="white"/>
<path opacity="0.8" d="M108.989 54.8929H77.1525V67.0499H108.989V54.8929Z" fill="white"/>
<path opacity="0.8" d="M83.4752 85.788C86.9671 85.788 89.7979 83.0537 89.7979 79.6808C89.7979 76.3079 86.9671 73.5736 83.4752 73.5736C79.9832 73.5736 77.1525 76.3079 77.1525 79.6808C77.1525 83.0537 79.9832 85.788 83.4752 85.788Z" fill="white"/>
<path opacity="0.8" d="M102.741 85.788C106.233 85.788 109.064 83.0537 109.064 79.6808C109.064 76.3079 106.233 73.5736 102.741 73.5736C99.249 73.5736 96.4183 76.3079 96.4183 79.6808C96.4183 83.0537 99.249 85.788 102.741 85.788Z" fill="white"/>
<path opacity="0.8" d="M31.9268 91.0332H0.0901489V103.19H31.9268V91.0332Z" fill="white"/>
<path opacity="0.8" d="M10.8013 111.582C11.9823 112.727 12.6454 114.277 12.6454 115.893C12.6454 117.509 11.9823 119.059 10.8013 120.204C9.91789 121.06 8.79133 121.644 7.56425 121.881C6.33717 122.118 5.06476 121.999 3.90817 121.537C2.75157 121.076 1.7628 120.293 1.06709 119.288C0.371372 118.283 0 117.102 0 115.893C0 114.684 0.371372 113.502 1.06709 112.498C1.7628 111.493 2.75157 110.71 3.90817 110.249C5.06476 109.787 6.33717 109.667 7.56425 109.905C8.79133 110.142 9.91789 110.726 10.8013 111.582Z" fill="white"/>
<path opacity="0.8" d="M25.6038 122C29.0957 122 31.9265 119.266 31.9265 115.893C31.9265 112.52 29.0957 109.786 25.6038 109.786C22.1118 109.786 19.2811 112.52 19.2811 115.893C19.2811 119.266 22.1118 122 25.6038 122Z" fill="white"/>
<path opacity="0.8" d="M70.3835 91.0332H38.5468V103.19H70.3835V91.0332Z" fill="white"/>
<path opacity="0.8" d="M44.8695 122C48.3615 122 51.1922 119.266 51.1922 115.893C51.1922 112.52 48.3615 109.786 44.8695 109.786C41.3776 109.786 38.5468 112.52 38.5468 115.893C38.5468 119.266 41.3776 122 44.8695 122Z" fill="white"/>
<path opacity="0.8" d="M68.5239 111.582C69.7049 112.727 70.368 114.277 70.368 115.893C70.368 117.509 69.7049 119.059 68.5239 120.204C67.9434 120.767 67.2536 121.213 66.4941 121.518C65.7346 121.822 64.9204 121.979 64.098 121.979C63.2756 121.979 62.4613 121.822 61.7018 121.518C60.9424 121.213 60.2526 120.767 59.6721 120.204C58.4911 119.059 57.8279 117.509 57.8279 115.893C57.8279 114.277 58.4911 112.727 59.6721 111.582C60.2526 111.019 60.9424 110.573 61.7018 110.268C62.4613 109.964 63.2756 109.807 64.098 109.807C64.9204 109.807 65.7346 109.964 66.4941 110.268C67.2536 110.573 67.9434 111.019 68.5239 111.582Z" fill="white"/>
<path opacity="0.8" d="M108.915 91.0332H77.0781V103.19H108.915V91.0332Z" fill="white"/>
<path opacity="0.8" d="M83.3264 122C86.8183 122 89.6491 119.266 89.6491 115.893C89.6491 112.52 86.8183 109.786 83.3264 109.786C79.8344 109.786 77.0037 112.52 77.0037 115.893C77.0037 119.266 79.8344 122 83.3264 122Z" fill="white"/>
<path opacity="0.8" d="M102.592 122C106.084 122 108.915 119.266 108.915 115.893C108.915 112.52 106.084 109.786 102.592 109.786C99.1002 109.786 96.2694 112.52 96.2694 115.893C96.2694 119.266 99.1002 122 102.592 122Z" fill="white"/>
</svg>
