<svg width="90" height="128" viewBox="0 0 90 128" fill="none" xmlns="http://www.w3.org/2000/svg">
<path opacity="0.8" d="M6.57726 31.9124C10.1746 31.9124 13.0909 29.0481 13.0909 25.5148C13.0909 21.9816 10.1746 19.1173 6.57726 19.1173C2.9799 19.1173 0.0636597 21.9816 0.0636597 25.5148C0.0636597 29.0481 2.9799 31.9124 6.57726 31.9124Z" fill="white"/>
<path opacity="0.8" d="M6.57726 51.0297C10.1746 51.0297 13.0909 48.1654 13.0909 44.6321C13.0909 41.0989 10.1746 38.2346 6.57726 38.2346C2.9799 38.2346 0.0636597 41.0989 0.0636597 44.6321C0.0636597 48.1654 2.9799 51.0297 6.57726 51.0297Z" fill="white"/>
<path opacity="0.8" d="M6.57726 70.0717C10.1746 70.0717 13.0909 67.2074 13.0909 63.6741C13.0909 60.1409 10.1746 57.2766 6.57726 57.2766C2.9799 57.2766 0.0636597 60.1409 0.0636597 63.6741C0.0636597 67.2074 2.9799 70.0717 6.57726 70.0717Z" fill="white"/>
<path opacity="0.8" d="M6.57726 89.1891C10.1746 89.1891 13.0909 86.3248 13.0909 82.7916C13.0909 79.2583 10.1746 76.394 6.57726 76.394C2.9799 76.394 0.0636597 79.2583 0.0636597 82.7916C0.0636597 86.3248 2.9799 89.1891 6.57726 89.1891Z" fill="white"/>
<path opacity="0.8" d="M11.0986 97.3927C11.9965 98.2778 12.6074 99.4043 12.8539 100.63C13.1005 101.856 12.9717 103.126 12.4839 104.28C11.996 105.434 11.171 106.42 10.1129 107.114C9.05482 107.807 7.81119 108.178 6.53903 108.178C5.26687 108.178 4.02323 107.807 2.96516 107.114C1.90709 106.42 1.08203 105.434 0.594178 104.28C0.106323 103.126 -0.0224524 101.856 0.224109 100.63C0.470671 99.4043 1.08151 98.2778 1.9795 97.3927C2.57752 96.8033 3.28812 96.3357 4.07054 96.0166C4.85297 95.6975 5.69183 95.5332 6.53903 95.5332C7.38622 95.5332 8.22509 95.6975 9.00751 96.0166C9.78994 96.3357 10.5005 96.8033 11.0986 97.3927Z" fill="white"/>
<path opacity="0.8" d="M44.8926 12.795C48.4899 12.795 51.4062 9.93078 51.4062 6.39752C51.4062 2.86427 48.4899 0 44.8926 0C41.2952 0 38.379 2.86427 38.379 6.39752C38.379 9.93078 41.2952 12.795 44.8926 12.795Z" fill="white"/>
<path opacity="0.8" d="M19.3746 19.1173V95.5113V108.231H70.3339V95.5113V19.1173H57.3834V95.5113H32.3252V19.1173H19.3746Z" fill="white"/>
<path opacity="0.8" d="M83.2078 31.9124C86.8052 31.9124 89.7214 29.0481 89.7214 25.5148C89.7214 21.9816 86.8052 19.1173 83.2078 19.1173C79.6105 19.1173 76.6942 21.9816 76.6942 25.5148C76.6942 29.0481 79.6105 31.9124 83.2078 31.9124Z" fill="white"/>
<path opacity="0.8" d="M83.2078 51.0295C86.8052 51.0295 89.7214 48.1653 89.7214 44.632C89.7214 41.0988 86.8052 38.2345 83.2078 38.2345C79.6105 38.2345 76.6942 41.0988 76.6942 44.632C76.6942 48.1653 79.6105 51.0295 83.2078 51.0295Z" fill="white"/>
<path opacity="0.8" d="M83.2078 70.0715C86.8052 70.0715 89.7214 67.2073 89.7214 63.674C89.7214 60.1408 86.8052 57.2765 83.2078 57.2765C79.6105 57.2765 76.6942 60.1408 76.6942 63.674C76.6942 67.2073 79.6105 70.0715 83.2078 70.0715Z" fill="white"/>
<path opacity="0.8" d="M83.2078 89.189C86.8052 89.189 89.7214 86.3247 89.7214 82.7914C89.7214 79.2582 86.8052 76.3939 83.2078 76.3939C79.6105 76.3939 76.6942 79.2582 76.6942 82.7914C76.6942 86.3247 79.6105 89.189 83.2078 89.189Z" fill="white"/>
<path opacity="0.8" d="M87.8058 97.3927C88.7038 98.2778 89.3146 99.4043 89.5612 100.63C89.8077 101.856 89.6789 103.126 89.1911 104.28C88.7032 105.434 87.8782 106.42 86.8201 107.114C85.762 107.807 84.5184 108.178 83.2462 108.178C81.9741 108.178 80.7304 107.807 79.6724 107.114C78.6143 106.42 77.7892 105.434 77.3014 104.28C76.8135 103.126 76.6848 101.856 76.9313 100.63C77.1779 99.4043 77.7887 98.2778 78.6867 97.3927C79.2847 96.8033 79.9953 96.3357 80.7778 96.0166C81.5602 95.6975 82.399 95.5332 83.2462 95.5332C84.0934 95.5332 84.9323 95.6975 85.7147 96.0166C86.4971 96.3357 87.2077 96.8033 87.8058 97.3927Z" fill="white"/>
<path opacity="0.8" d="M64.8165 127.8C68.4139 127.8 71.3301 124.936 71.3301 121.402C71.3301 117.869 68.4139 115.005 64.8165 115.005C61.2192 115.005 58.3029 117.869 58.3029 121.402C58.3029 124.936 61.2192 127.8 64.8165 127.8Z" fill="white"/>
<path opacity="0.8" d="M45.3525 127.8C48.9498 127.8 51.8661 124.936 51.8661 121.402C51.8661 117.869 48.9498 115.005 45.3525 115.005C41.7551 115.005 38.8389 117.869 38.8389 121.402C38.8389 124.936 41.7551 127.8 45.3525 127.8Z" fill="white"/>
<path opacity="0.8" d="M30.486 125.918C29.888 126.508 29.1774 126.975 28.395 127.294C27.6126 127.614 26.7737 127.778 25.9265 127.778C25.0793 127.778 24.2405 127.614 23.458 127.294C22.6756 126.975 21.965 126.508 21.367 125.918C20.1503 124.719 19.4672 123.095 19.4672 121.402C19.4672 119.709 20.1503 118.086 21.367 116.886C21.965 116.297 22.6756 115.829 23.458 115.51C24.2405 115.191 25.0793 115.027 25.9265 115.027C26.7737 115.027 27.6126 115.191 28.395 115.51C29.1774 115.829 29.888 116.297 30.486 116.886C31.7027 118.086 32.3859 119.709 32.3859 121.402C32.3859 123.095 31.7027 124.719 30.486 125.918Z" fill="white"/>
</svg>
