<svg width="119" height="107" viewBox="0 0 119 107" fill="none" xmlns="http://www.w3.org/2000/svg">
<path opacity="0.8" d="M105.192 63.8234C108.358 63.8234 110.924 61.2645 110.924 58.108C110.924 54.9515 108.358 52.3927 105.192 52.3927C102.026 52.3927 99.4598 54.9515 99.4598 58.108C99.4598 61.2645 102.026 63.8234 105.192 63.8234Z" fill="white"/>
<path opacity="0.8" d="M88.2819 92.3998C97.1859 92.3998 104.404 85.2031 104.404 76.3255C104.404 67.4478 97.1859 60.2511 88.2819 60.2511C79.378 60.2511 72.1599 67.4478 72.1599 76.3255C72.1599 85.2031 79.378 92.3998 88.2819 92.3998Z" fill="white"/>
<path opacity="0.8" d="M92.3661 47.6061C93.1692 48.4048 93.7165 49.4232 93.9388 50.5322C94.1612 51.6413 94.0484 52.7911 93.615 53.8363C93.1815 54.8814 92.4468 55.7748 91.5039 56.4035C90.5609 57.0321 89.4521 57.3676 88.3177 57.3676C87.1834 57.3676 86.0746 57.0321 85.1316 56.4035C84.1886 55.7748 83.4539 54.8814 83.0205 53.8363C82.587 52.7911 82.4743 51.6413 82.6966 50.5322C82.9189 49.4232 83.4662 48.4048 84.2693 47.6061C84.7965 47.0682 85.4262 46.6408 86.1215 46.349C86.8167 46.0572 87.5634 45.9069 88.3177 45.9069C89.072 45.9069 89.8188 46.0572 90.514 46.349C91.2092 46.6408 91.8389 47.0682 92.3661 47.6061Z" fill="white"/>
<path opacity="0.8" d="M74.3812 54.0359C75.1842 54.8347 75.7315 55.853 75.9539 56.9621C76.1762 58.0711 76.0635 59.221 75.63 60.2661C75.1965 61.3113 74.4618 62.2047 73.5189 62.8333C72.5759 63.4619 71.4671 63.7975 70.3327 63.7975C69.1984 63.7975 68.0896 63.4619 67.1466 62.8333C66.2036 62.2047 65.4689 61.3113 65.0355 60.2661C64.602 59.221 64.4893 58.0711 64.7116 56.9621C64.9339 55.853 65.4813 54.8347 66.2843 54.0359C67.3589 52.9671 68.8148 52.3668 70.3327 52.3668C71.8506 52.3668 73.3066 52.9671 74.3812 54.0359Z" fill="white"/>
<path opacity="0.8" d="M63.0599 82.0409C66.2258 82.0409 68.7922 79.482 68.7922 76.3256C68.7922 73.1691 66.2258 70.6102 63.0599 70.6102C59.8941 70.6102 57.3276 73.1691 57.3276 76.3256C57.3276 79.482 59.8941 82.0409 63.0599 82.0409Z" fill="white"/>
<path opacity="0.8" d="M112.787 82.0409C115.953 82.0409 118.52 79.482 118.52 76.3256C118.52 73.1691 115.953 70.6102 112.787 70.6102C109.621 70.6102 107.055 73.1691 107.055 76.3256C107.055 79.482 109.621 82.0409 112.787 82.0409Z" fill="white"/>
<path opacity="0.8" d="M84.2693 105.331C83.7407 104.807 83.3213 104.183 83.035 103.497C82.7488 102.81 82.6014 102.074 82.6014 101.33C82.6014 100.587 82.7488 99.8505 83.035 99.1639C83.3213 98.4774 83.7407 97.854 84.2693 97.3295C84.7856 96.7891 85.4054 96.3575 86.0921 96.0604C86.7788 95.7634 87.5183 95.6069 88.2668 95.6002C89.0153 95.5935 89.7575 95.7368 90.4494 96.0216C91.1413 96.3064 91.7687 96.7269 92.2945 97.2581C92.8387 97.7789 93.273 98.403 93.5718 99.0936C93.8706 99.7842 94.028 100.527 94.0347 101.279C94.0414 102.032 93.8972 102.777 93.6107 103.473C93.3241 104.169 92.901 104.801 92.3662 105.331C91.2916 106.4 89.8357 107 88.3178 107C86.7999 107 85.344 106.4 84.2693 105.331Z" fill="white"/>
<path opacity="0.8" d="M101.179 98.4723C100.637 97.9576 100.205 97.3396 99.9066 96.655C99.6087 95.9703 99.4517 95.233 99.445 94.4867C99.4384 93.7404 99.5821 93.0004 99.8677 92.3105C100.153 91.6207 100.575 90.9951 101.108 90.4708C101.63 89.9283 102.256 89.4953 102.949 89.1973C103.641 88.8994 104.387 88.7425 105.141 88.7358C105.895 88.7292 106.644 88.8729 107.341 89.1586C108.039 89.4443 108.673 89.8661 109.205 90.3994C109.832 90.9002 110.347 91.5271 110.716 92.2394C111.085 92.9516 111.3 93.7332 111.346 94.5335C111.392 95.3338 111.269 96.1348 110.984 96.8845C110.7 97.6342 110.26 98.3159 109.694 98.8852C109.129 99.4545 108.449 99.8988 107.699 100.189C106.95 100.479 106.148 100.609 105.345 100.57C104.542 100.531 103.756 100.325 103.038 99.9631C102.321 99.6016 101.687 99.0937 101.179 98.4723Z" fill="white"/>
<path opacity="0.8" d="M66.3559 98.3296C65.8117 97.8088 65.3774 97.1847 65.0786 96.4941C64.7798 95.8035 64.6224 95.0603 64.6157 94.3082C64.609 93.5561 64.7532 92.8103 65.0397 92.1145C65.3263 91.4188 65.7494 90.7871 66.2842 90.2567C67.3588 89.1879 68.8147 88.5876 70.3326 88.5876C71.8505 88.5876 73.3064 89.1879 74.381 90.2567C75.0088 90.7576 75.5238 91.3845 75.8927 92.0967C76.2616 92.8089 76.4762 93.5905 76.5223 94.3908C76.5685 95.1911 76.4454 95.9921 76.1608 96.7418C75.8763 97.4915 75.4368 98.1732 74.8708 98.7425C74.3049 99.3119 73.6251 99.7561 72.8757 100.046C72.1264 100.337 71.3241 100.467 70.5211 100.428C69.7181 100.389 68.9322 100.182 68.2146 99.8204C67.4971 99.459 66.8637 98.951 66.3559 98.3296Z" fill="white"/>
<path opacity="0.8" d="M48.5859 17.9578C51.7518 17.9578 54.3182 15.3989 54.3182 12.2424C54.3182 9.08594 51.7518 6.5271 48.5859 6.5271C45.4201 6.5271 42.8536 9.08594 42.8536 12.2424C42.8536 15.3989 45.4201 17.9578 48.5859 17.9578Z" fill="white"/>
<path opacity="0.8" d="M31.6757 46.4631C40.5797 46.4631 47.7978 39.2663 47.7978 30.3887C47.7978 21.5111 40.5797 14.3143 31.6757 14.3143C22.7718 14.3143 15.5537 21.5111 15.5537 30.3887C15.5537 39.2663 22.7718 46.4631 31.6757 46.4631Z" fill="white"/>
<path opacity="0.8" d="M35.6883 1.66909C36.4914 2.46784 37.0387 3.48619 37.261 4.59523C37.4833 5.70427 37.3706 6.85415 36.9371 7.89929C36.5037 8.94444 35.769 9.83787 34.826 10.4665C33.883 11.0951 32.7742 11.4307 31.6399 11.4307C30.5055 11.4307 29.3967 11.0951 28.4537 10.4665C27.5108 9.83787 26.7761 8.94444 26.3426 7.89929C25.9092 6.85415 25.7965 5.70427 26.0188 4.59523C26.2411 3.48619 26.7884 2.46784 27.5915 1.66909C28.6661 0.600251 30.122 0 31.6399 0C33.1578 0 34.6137 0.600251 35.6883 1.66909Z" fill="white"/>
<path opacity="0.8" d="M13.6907 17.9578C16.8566 17.9578 19.423 15.3989 19.423 12.2424C19.423 9.08594 16.8566 6.5271 13.6907 6.5271C10.5249 6.5271 7.95844 9.08594 7.95844 12.2424C7.95844 15.3989 10.5249 17.9578 13.6907 17.9578Z" fill="white"/>
<path opacity="0.8" d="M6.45371 36.104C9.61956 36.104 12.186 33.5452 12.186 30.3887C12.186 27.2322 9.61956 24.6733 6.45371 24.6733C3.28786 24.6733 0.721436 27.2322 0.721436 30.3887C0.721436 33.5452 3.28786 36.104 6.45371 36.104Z" fill="white"/>
<path opacity="0.8" d="M56.1811 36.104C59.347 36.104 61.9134 33.5452 61.9134 30.3887C61.9134 27.2322 59.347 24.6733 56.1811 24.6733C53.0153 24.6733 50.4489 27.2322 50.4489 30.3887C50.4489 33.5452 53.0153 36.104 56.1811 36.104Z" fill="white"/>
<path opacity="0.8" d="M27.6631 59.4652C27.1189 58.9443 26.6846 58.3202 26.3858 57.6297C26.0869 56.9391 25.9296 56.1959 25.9229 55.4438C25.9162 54.6917 26.0604 53.9458 26.3469 53.2501C26.6334 52.5543 27.0566 51.9227 27.5914 51.3923C28.3854 50.5846 29.4019 50.03 30.5122 49.7985C31.6225 49.5671 32.7767 49.6693 33.8287 50.0923C34.8807 50.5152 35.7833 51.2398 36.422 52.1744C37.0608 53.1089 37.4072 54.2115 37.4172 55.3424C37.4272 56.4733 37.1005 57.5817 36.4784 58.5274C35.8563 59.4731 34.9668 60.2135 33.9225 60.655C32.8781 61.0964 31.7259 61.219 30.6117 61.0072C29.4974 60.7954 28.4713 60.2587 27.6631 59.4652Z" fill="white"/>
<path opacity="0.8" d="M44.5017 52.607C43.6987 51.8083 43.1513 50.7899 42.929 49.6809C42.7067 48.5718 42.8194 47.422 43.2529 46.3768C43.6863 45.3317 44.4211 44.4382 45.364 43.8096C46.307 43.181 47.4158 42.8455 48.5502 42.8455C49.6845 42.8455 50.7933 43.181 51.7363 43.8096C52.6792 44.4382 53.414 45.3317 53.8474 46.3768C54.2809 47.422 54.3936 48.5718 54.1713 49.6809C53.949 50.7899 53.4016 51.8083 52.5986 52.607C51.524 53.6759 50.068 54.2761 48.5502 54.2761C47.0323 54.2761 45.5763 53.6759 44.5017 52.607Z" fill="white"/>
<path opacity="0.8" d="M19.3797 49.3785C19.9186 46.2681 17.8264 43.311 14.7068 42.7738C11.5871 42.2365 8.6213 44.3225 8.08244 47.4329C7.54358 50.5433 9.63573 53.5004 12.7554 54.0376C15.875 54.5749 18.8408 52.4889 19.3797 49.3785Z" fill="white"/>
</svg>
