<svg width="105" height="108" viewBox="0 0 105 108" fill="none" xmlns="http://www.w3.org/2000/svg">
<path opacity="0.8" d="M5.91353 26.9472C8.89249 26.9472 11.3074 24.5323 11.3074 21.5533C11.3074 18.5743 8.89249 16.1594 5.91353 16.1594C2.93458 16.1594 0.519653 18.5743 0.519653 21.5533C0.519653 24.5323 2.93458 26.9472 5.91353 26.9472Z" fill="white"/>
<path opacity="0.8" d="M5.91353 43.1289C8.89249 43.1289 11.3074 40.714 11.3074 37.7351C11.3074 34.7561 8.89249 32.3412 5.91353 32.3412C2.93458 32.3412 0.519653 34.7561 0.519653 37.7351C0.519653 40.714 2.93458 43.1289 5.91353 43.1289Z" fill="white"/>
<path opacity="0.8" d="M5.91353 59.247C8.89249 59.247 11.3074 56.8321 11.3074 53.8531C11.3074 50.8742 8.89249 48.4592 5.91353 48.4592C2.93458 48.4592 0.519653 50.8742 0.519653 53.8531C0.519653 56.8321 2.93458 59.247 5.91353 59.247Z" fill="white"/>
<path opacity="0.8" d="M9.72099 66.2274C10.6348 67.2557 11.1212 68.5942 11.0807 69.9692C11.0403 71.3443 10.4759 72.6519 9.50324 73.6246C8.53053 74.5973 7.22293 75.1616 5.8479 75.2021C4.47288 75.2425 3.13435 74.7561 2.1061 73.8423C1.19229 72.8141 0.705879 71.4756 0.746356 70.1005C0.786833 68.7255 1.35114 67.4179 2.32385 66.4452C3.29656 65.4725 4.60416 64.9082 5.97919 64.8677C7.35421 64.8272 8.69275 65.3136 9.72099 66.2274Z" fill="white"/>
<path opacity="0.8" d="M5.91353 91.5468C8.89249 91.5468 11.3074 89.1319 11.3074 86.1529C11.3074 83.174 8.89249 80.759 5.91353 80.759C2.93458 80.759 0.519653 83.174 0.519653 86.1529C0.519653 89.1319 2.93458 91.5468 5.91353 91.5468Z" fill="white"/>
<path opacity="0.8" d="M103.003 17.7459C103.518 18.2376 103.927 18.8285 104.207 19.4829C104.487 20.1373 104.631 20.8416 104.631 21.5533C104.631 22.265 104.487 22.9693 104.207 23.6237C103.927 24.2781 103.518 24.869 103.003 25.3607C102.25 26.117 101.289 26.6325 100.242 26.8422C99.1952 27.0518 98.1097 26.9461 97.123 26.5384C96.1363 26.1307 95.2928 25.4393 94.6993 24.5519C94.1058 23.6645 93.7889 22.6209 93.7889 21.5533C93.7889 20.4857 94.1058 19.4421 94.6993 18.5547C95.2928 17.6673 96.1363 16.9759 97.123 16.5682C98.1097 16.1605 99.1952 16.0548 100.242 16.2644C101.289 16.4741 102.25 16.9896 103.003 17.7459Z" fill="white"/>
<path opacity="0.8" d="M103.003 33.9274C103.518 34.4191 103.927 35.01 104.207 35.6644C104.487 36.3188 104.631 37.0231 104.631 37.7348C104.631 38.4465 104.487 39.1508 104.207 39.8052C103.927 40.4596 103.518 41.0505 103.003 41.5423C101.975 42.4561 100.637 42.9425 99.2615 42.902C97.8865 42.8615 96.5789 42.2972 95.6062 41.3245C94.6335 40.3518 94.0692 39.0442 94.0287 37.6692C93.9882 36.2942 94.4746 34.9556 95.3884 33.9274C95.8802 33.4129 96.4711 33.0034 97.1255 32.7237C97.7799 32.4439 98.4842 32.2997 99.1959 32.2997C99.9076 32.2997 100.612 32.4439 101.266 32.7237C101.921 33.0034 102.512 33.4129 103.003 33.9274Z" fill="white"/>
<path opacity="0.8" d="M103.003 50.0457C103.518 50.5374 103.927 51.1283 104.207 51.7827C104.487 52.4371 104.631 53.1414 104.631 53.8531C104.631 54.5648 104.487 55.2691 104.207 55.9235C103.927 56.5779 103.518 57.1688 103.003 57.6606C102.25 58.4168 101.289 58.9323 100.242 59.142C99.1952 59.3516 98.1097 59.2459 97.123 58.8382C96.1363 58.4305 95.2928 57.7392 94.6993 56.8517C94.1058 55.9643 93.7889 54.9207 93.7889 53.8531C93.7889 52.7855 94.1058 51.7419 94.6993 50.8545C95.2928 49.9671 96.1363 49.2757 97.123 48.868C98.1097 48.4603 99.1952 48.3546 100.242 48.5642C101.289 48.7739 102.25 49.2895 103.003 50.0457Z" fill="white"/>
<path opacity="0.8" d="M103.003 66.2274C103.518 66.7192 103.927 67.3101 104.207 67.9645C104.487 68.6189 104.631 69.3232 104.631 70.0349C104.631 70.7466 104.487 71.4509 104.207 72.1053C103.927 72.7596 103.518 73.3506 103.003 73.8423C101.975 74.7561 100.637 75.2425 99.2615 75.2021C97.8865 75.1616 96.5789 74.5973 95.6062 73.6246C94.6335 72.6519 94.0692 71.3442 94.0287 69.9692C93.9882 68.5942 94.4746 67.2557 95.3884 66.2274C95.8802 65.713 96.4711 65.3035 97.1255 65.0237C97.7799 64.744 98.4842 64.5997 99.1959 64.5997C99.9076 64.5997 100.612 64.744 101.266 65.0237C101.921 65.3035 102.512 65.713 103.003 66.2274Z" fill="white"/>
<path opacity="0.8" d="M103.003 82.3455C103.518 82.8372 103.927 83.4281 104.207 84.0825C104.487 84.7369 104.631 85.4412 104.631 86.1529C104.631 86.8646 104.487 87.5689 104.207 88.2233C103.927 88.8777 103.518 89.4686 103.003 89.9604C102.25 90.7166 101.289 91.2321 100.242 91.4418C99.1952 91.6514 98.1097 91.5457 97.123 91.138C96.1363 90.7303 95.2928 90.0389 94.6993 89.1515C94.1058 88.2641 93.7889 87.2205 93.7889 86.1529C93.7889 85.0853 94.1058 84.0417 94.6993 83.1543C95.2928 82.2669 96.1363 81.5755 97.123 81.1678C98.1097 80.7601 99.1952 80.6544 100.242 80.864C101.289 81.0737 102.25 81.5892 103.003 82.3455Z" fill="white"/>
<path opacity="0.8" d="M53.1258 107.665C56.1048 107.665 58.5197 105.25 58.5197 102.271C58.5197 99.2921 56.1048 96.8772 53.1258 96.8772C50.1469 96.8772 47.7319 99.2921 47.7319 102.271C47.7319 105.25 50.1469 107.665 53.1258 107.665Z" fill="white"/>
<path opacity="0.8" d="M36.9442 107.665C39.9231 107.665 42.3381 105.25 42.3381 102.271C42.3381 99.2921 39.9231 96.8772 36.9442 96.8772C33.9652 96.8772 31.5503 99.2921 31.5503 102.271C31.5503 105.25 33.9652 107.665 36.9442 107.665Z" fill="white"/>
<path opacity="0.8" d="M20.826 107.665C23.805 107.665 26.2199 105.25 26.2199 102.271C26.2199 99.2921 23.805 96.8772 20.826 96.8772C17.8471 96.8772 15.4321 99.2921 15.4321 102.271C15.4321 105.25 17.8471 107.665 20.826 107.665Z" fill="white"/>
<path opacity="0.8" d="M84.6007 107.665C87.5796 107.665 89.9945 105.25 89.9945 102.271C89.9945 99.2921 87.5796 96.8772 84.6007 96.8772C81.6217 96.8772 79.2068 99.2921 79.2068 102.271C79.2068 105.25 81.6217 107.665 84.6007 107.665Z" fill="white"/>
<path opacity="0.8" d="M68.419 107.665C71.398 107.665 73.8129 105.25 73.8129 102.271C73.8129 99.2921 71.398 96.8772 68.419 96.8772C65.4401 96.8772 63.0251 99.2921 63.0251 102.271C63.0251 105.25 65.4401 107.665 68.419 107.665Z" fill="white"/>
<path opacity="0.8" d="M27.2988 25.9319H78.0647V80.7591H27.2988V25.9319ZM16.5745 15.2076V91.5469H88.8524V15.2076H16.5745Z" fill="white"/>
<path opacity="0.8" d="M53.57 10.829C56.549 10.829 58.9639 8.4141 58.9639 5.43514C58.9639 2.45618 56.549 0.0412598 53.57 0.0412598C50.5911 0.0412598 48.1761 2.45618 48.1761 5.43514C48.1761 8.4141 50.5911 10.829 53.57 10.829Z" fill="white"/>
<path opacity="0.8" d="M37.4519 10.829C40.4308 10.829 42.8457 8.4141 42.8457 5.43514C42.8457 2.45618 40.4308 0.0412598 37.4519 0.0412598C34.4729 0.0412598 32.058 2.45618 32.058 5.43514C32.058 8.4141 34.4729 10.829 37.4519 10.829Z" fill="white"/>
<path opacity="0.8" d="M25.0777 9.24247C24.0494 10.1563 22.7109 10.6427 21.3359 10.6022C19.9609 10.5617 18.6532 9.99743 17.6805 9.02472C16.7078 8.05201 16.1435 6.74441 16.103 5.36939C16.0626 3.99436 16.549 2.65583 17.4628 1.62759C18.491 0.713777 19.8296 0.227364 21.2046 0.267841C22.5796 0.308318 23.8872 0.872626 24.8599 1.84534C25.8326 2.81805 26.3969 4.12565 26.4374 5.50067C26.4779 6.8757 25.9915 8.21423 25.0777 9.24247Z" fill="white"/>
<path opacity="0.8" d="M88.8525 9.24259C87.8242 10.1564 86.4857 10.6428 85.1107 10.6023C83.7356 10.5619 82.428 9.99754 81.4553 9.02483C80.4826 8.05212 79.9183 6.74452 79.8778 5.3695C79.8373 3.99447 80.3238 2.65594 81.2376 1.6277C81.7293 1.11322 82.3202 0.703746 82.9746 0.423989C83.629 0.144233 84.3333 0 85.045 0C85.7567 0 86.461 0.144233 87.1154 0.423989C87.7698 0.703746 88.3607 1.11322 88.8525 1.6277C89.86 2.6387 90.4257 4.00783 90.4257 5.43514C90.4257 6.86245 89.86 8.23158 88.8525 9.24259Z" fill="white"/>
<path opacity="0.8" d="M72.7342 9.24247C71.7232 10.25 70.354 10.8157 68.9267 10.8157C67.4994 10.8157 66.1303 10.25 65.1193 9.24247C64.2055 8.21423 63.7191 6.8757 63.7595 5.50067C63.8 4.12565 64.3643 2.81805 65.337 1.84534C66.3097 0.872626 67.6173 0.308318 68.9924 0.267841C70.3674 0.227364 71.7059 0.713777 72.7342 1.62759C73.7417 2.63859 74.3074 4.00772 74.3074 5.43503C74.3074 6.86234 73.7417 8.23147 72.7342 9.24247Z" fill="white"/>
</svg>
