<svg width="50" height="30" viewBox="0 0 50 30" fill="none" xmlns="http://www.w3.org/2000/svg">
<path d="M49.7991 13.9601L36.8956 0.250491C36.5833 -0.075216 36.0495 -0.0780255 35.7486 0.212799C35.4431 0.508135 35.4206 1.04985 35.7109 1.3598L47.329 13.7086L0.806683 13.7086C0.361146 13.7086 2.49513e-07 14.0698 2.42084e-07 14.5153C2.34655e-07 14.9608 0.361146 15.322 0.806683 15.322L47.329 15.322L35.7109 27.6708C35.4206 27.9808 35.4386 28.5276 35.7486 28.8178C36.0585 29.1081 36.558 29.1154 36.8956 28.7801L49.7991 15.0706C50.1057 14.6931 50.0252 14.2307 49.7991 13.9618L49.7991 13.9601Z" fill="white"/>
</svg>
