<svg width="12" height="12" viewBox="0 0 12 12" fill="none" xmlns="http://www.w3.org/2000/svg">
<g clip-path="url(#clip0_62_1381)">
<path d="M0.72682 12C0.53267 12 0.350965 11.9253 0.211574 11.7859C0.0746733 11.649 0 11.4672 0 11.273C0 11.0788 0.0746733 10.8971 0.214063 10.7577L8.99315 1.97676L3.57187 1.45394C3.39515 1.43651 3.21842 1.33693 3.09147 1.18008C2.96453 1.02324 2.89981 0.831535 2.91973 0.654772C2.95706 0.281328 3.28314 0 3.6789 0C3.69384 0 3.70877 0 3.72371 0L10.6559 0.672199C11.0467 0.751867 11.2582 0.960996 11.3255 1.33693L11.9975 8.2805C12.0174 8.46971 11.9502 8.66888 11.8183 8.82573C11.6913 8.9751 11.5246 9.06722 11.3479 9.07967C11.3304 9.07967 11.3155 9.08216 11.2981 9.08216C10.9297 9.08216 10.5787 8.77593 10.5439 8.42739L10.0212 3.00747L1.24207 11.7859C1.10516 11.9253 0.920971 12 0.72682 12Z" fill="white"/>
</g>
<defs>
<clipPath id="clip0_62_1381">
<rect width="12" height="12" fill="white"/>
</clipPath>
</defs>
</svg>
