<svg width="50" height="30" viewBox="0 0 50 30" fill="none" xmlns="http://www.w3.org/2000/svg">
<path d="M0.200896 15.0736L13.1044 28.7832C13.4167 29.1089 13.9505 29.1117 14.2514 28.8209C14.5569 28.5256 14.5794 27.9838 14.2891 27.6739L2.67102 15.3251L49.1933 15.3251C49.6389 15.3251 50 14.9639 50 14.5184C50 14.0728 49.6389 13.7117 49.1933 13.7117L2.67102 13.7117L14.2891 1.36287C14.5794 1.05292 14.5614 0.506134 14.2514 0.215869C13.9415 -0.074397 13.442 -0.0817129 13.1044 0.253559L0.200896 13.9631C-0.105687 14.3406 -0.0252428 14.803 0.200896 15.0719L0.200896 15.0736Z" fill="white"/>
</svg>
