<svg width="156" height="70" viewBox="0 0 156 70" fill="none" xmlns="http://www.w3.org/2000/svg">
<path d="M152.784 35.4176C152.733 35.6982 152.661 35.9776 152.636 36.2608C152.35 39.4859 151.181 42.3056 148.803 44.5596C147.159 46.1174 145.185 47.0739 143.001 47.59C140.3 48.2276 137.593 48.218 134.926 47.4188C130.957 46.2294 128.183 43.6922 126.725 39.8072C125.451 36.4084 125.43 32.9383 126.543 29.4981C127.72 25.8581 130.148 23.3318 133.696 21.9012C136.334 20.8385 139.073 20.6578 141.867 21.0307C144.204 21.3419 146.315 22.185 148.137 23.7002C149.459 24.7992 150.432 26.1725 151.229 27.6826C151.379 27.967 151.198 28.0415 151 28.1236C149.893 28.5824 148.785 29.0406 147.676 29.4981C146.944 29.8004 146.211 30.0982 145.481 30.403C145.035 30.5895 145.038 30.5914 144.816 30.1358C144.251 28.9668 143.499 27.9626 142.329 27.33C139.822 25.9752 135.69 26.4169 133.81 30.0295C132.916 31.7451 132.673 33.574 132.802 35.4761C132.901 36.9487 133.258 38.3436 134.098 39.5762C135.343 41.4013 137.141 42.1885 139.293 42.2388C140.642 42.27 141.95 42.0778 143.112 41.3059C144.16 40.611 144.688 39.5915 144.949 38.4047C145.019 38.0865 144.786 38.0884 144.571 38.0884C143.059 38.0884 141.547 38.0884 140.035 38.0884C139.492 38.0884 139.491 38.089 139.491 37.5634C139.491 36.1717 139.491 34.7793 139.491 33.387C139.491 32.9046 139.494 32.9027 139.969 32.9027C144.24 32.9014 148.512 32.9001 152.784 32.8989C152.784 33.7376 152.784 34.5776 152.784 35.4176Z" fill="white"/>
<path d="M16.6651 3.58472C16.7141 3.73617 16.8032 3.88763 16.8045 4.03908C16.8147 5.40663 16.8185 6.77544 16.8039 8.14363C16.8001 8.48217 16.9012 8.61135 17.2525 8.6069C18.5844 8.59226 19.9176 8.59354 21.2489 8.6069C21.5842 8.61072 21.6861 8.48408 21.6835 8.16208C21.6708 6.78181 21.6835 5.40154 21.6701 4.02126C21.667 3.72599 21.7522 3.61463 22.0545 3.61972C22.9066 3.63372 23.7593 3.63563 24.6108 3.61972C24.9309 3.61335 25.0174 3.73235 25.0168 4.04163C25.0085 8.0259 25.0117 12.0108 25.0104 15.9957C25.0104 16.459 24.9856 16.4825 24.5211 16.4832C23.7167 16.4838 22.9123 16.4717 22.1086 16.4889C21.7739 16.4965 21.6701 16.3686 21.6727 16.046C21.6841 14.6059 21.6784 13.1658 21.6778 11.7257C21.6778 11.1867 21.6619 11.1702 21.1407 11.1702C19.868 11.1695 18.5959 11.1689 17.3238 11.1702C16.8389 11.1702 16.809 11.2001 16.809 11.6761C16.809 13.1162 16.8096 14.5563 16.809 15.997C16.809 16.4622 16.7848 16.4838 16.3196 16.4838C15.5152 16.4838 14.7115 16.4755 13.9071 16.4883C13.6087 16.4934 13.4731 16.4074 13.4738 16.0823C13.4808 12.0496 13.4808 8.01699 13.4731 3.98435C13.4731 3.68654 13.5947 3.61717 13.8601 3.62163C14.5798 3.63181 15.3001 3.62672 16.0205 3.6229C16.1631 3.62226 16.3056 3.59872 16.4481 3.58599C16.5213 3.58472 16.5939 3.58472 16.6651 3.58472Z" fill="white"/>
<path d="M34.9589 3.58472C34.9856 3.77117 35.0321 3.95763 35.0353 4.14535C35.0442 4.78108 35.0296 5.41744 35.0429 6.05317C35.0493 6.33572 34.9405 6.4299 34.6624 6.42672C33.6066 6.41526 32.5503 6.43117 31.4952 6.41653C31.1694 6.41208 31.0376 6.51581 31.0516 6.8499C31.0707 7.3049 31.0701 7.76244 31.051 8.21744C31.0376 8.52163 31.1579 8.61581 31.45 8.61263C32.4332 8.60117 33.4176 8.61644 34.4008 8.60244C34.7203 8.59799 34.8526 8.68708 34.8399 9.03008C34.8157 9.68935 34.8189 10.3499 34.8393 11.0092C34.8488 11.3312 34.726 11.4234 34.4186 11.419C33.4711 11.405 32.5235 11.4126 31.5754 11.4139C31.072 11.4139 31.058 11.4298 31.0567 11.9484C31.0561 12.3799 31.0695 12.8126 31.0516 13.2441C31.0376 13.5756 31.1751 13.6851 31.4977 13.6813C32.5414 13.6679 33.5856 13.6864 34.6286 13.6698C34.9468 13.6647 35.0506 13.7774 35.0429 14.0873C35.027 14.7472 35.0289 15.4071 35.0423 16.0664C35.0486 16.3661 34.9615 16.4921 34.6344 16.4902C32.4745 16.4781 30.3154 16.4787 28.1562 16.4902C27.8412 16.4914 27.7375 16.3871 27.7381 16.0759C27.7451 12.0573 27.7457 8.03799 27.7368 4.01935C27.7362 3.69099 27.8603 3.62035 28.1619 3.62163C30.2492 3.63244 32.3371 3.62863 34.4244 3.62608C34.5784 3.62608 34.7324 3.60063 34.887 3.58663C34.9112 3.58472 34.9347 3.58472 34.9589 3.58472Z" fill="white"/>
<path d="M11.8403 3.58472C11.8836 3.70372 11.9625 3.82081 11.9644 3.94044C11.9759 4.64808 11.9632 5.35572 11.9727 6.06208C11.9759 6.32554 11.8741 6.42799 11.6119 6.42417C10.9647 6.41526 10.3169 6.43626 9.67034 6.41526C9.32289 6.40444 9.21407 6.52981 9.2147 6.87408C9.22552 9.89554 9.22107 12.917 9.22107 15.9391C9.22107 16.4813 9.22107 16.4813 8.68461 16.4813C7.92925 16.4813 7.17389 16.4813 6.41789 16.4813C5.90052 16.4813 5.88589 16.4698 5.88589 15.9645C5.88589 12.9666 5.88589 9.96872 5.88589 6.97144C5.88589 6.42163 5.88779 6.42481 5.31761 6.42035C4.58707 6.41526 3.85716 6.40317 3.12598 6.39426C3.12598 5.45817 3.12598 4.52144 3.12598 3.58535C3.24561 3.58535 3.36589 3.58535 3.48616 3.58535C3.59243 3.59872 3.6987 3.62226 3.80434 3.62226C6.28107 3.62417 8.75779 3.62417 11.2339 3.62226C11.3402 3.62226 11.4464 3.59872 11.5521 3.58535C11.6482 3.58472 11.7449 3.58472 11.8403 3.58472Z" fill="white"/>
<path d="M40.3808 48.0819C36.7587 48.0145 33.4782 47.0185 30.7094 44.6284C28.3968 42.6314 26.9192 40.1102 26.3897 37.0976C25.5287 32.1957 26.8142 27.9404 30.4478 24.4817C32.0782 22.9303 34.0433 21.9394 36.2171 21.3724C38.8326 20.6896 41.4805 20.6305 44.094 21.27C48.868 22.4371 52.2859 25.2651 53.9176 29.9564C55.8146 35.4132 54.1778 41.6126 49.3179 45.2234C47.4757 46.5922 45.4024 47.4487 43.1318 47.7905C42.2212 47.9273 41.2985 47.9865 40.3808 48.0819Z" fill="white"/>
<path d="M114.353 37.116C114.363 36.9805 114.383 36.8449 114.383 36.7094C114.384 31.8367 114.384 26.9647 114.384 22.0921C114.384 21.562 114.385 21.562 114.923 21.562C116.819 21.562 118.714 21.5684 120.611 21.5537C120.929 21.5518 121.024 21.6492 121.024 21.9642C121.017 30.2687 121.017 38.5739 121.025 46.8785C121.026 47.2157 120.914 47.3093 120.589 47.3074C118.657 47.2953 116.724 47.2953 114.793 47.3074C114.483 47.3093 114.282 47.2056 114.094 46.9663C110.846 42.8204 107.59 38.6802 104.337 34.5381C103.677 33.6987 103.017 32.86 102.364 32.0149C102.284 31.9125 102.253 31.7737 102.2 31.6509C102.135 31.6955 102.072 31.74 102.009 31.7846C101.997 31.8946 101.975 32.0041 101.975 32.1142C101.974 37.0104 101.976 41.9072 101.976 46.8034C101.976 47.2876 101.967 47.3004 101.503 47.3004C99.5828 47.3016 97.6635 47.2953 95.743 47.3067C95.4064 47.3086 95.2842 47.2145 95.2842 46.8594C95.2937 38.579 95.2912 30.298 95.2925 22.017C95.2925 21.5716 95.3033 21.5614 95.764 21.5614C97.7081 21.5614 99.6515 21.5658 101.596 21.5556C101.878 21.5544 102.054 21.6524 102.229 21.8732C106.158 26.8871 110.096 31.8953 114.028 36.9073C114.101 36.9996 114.126 37.1287 114.174 37.2401C114.233 37.2 114.294 37.158 114.353 37.116Z" fill="white"/>
<path d="M18.3107 33.5669C18.9166 33.7654 19.4479 33.908 19.9545 34.111C21.9024 34.8918 23.0402 36.3383 23.3469 38.4071C23.5805 39.9853 23.5035 41.5488 22.8372 43.0303C21.9705 44.9578 20.4566 46.1427 18.4698 46.7714C17.185 47.1787 15.8646 47.3009 14.5269 47.3009C11.1071 47.3009 7.68664 47.2977 4.26682 47.3079C3.92955 47.3085 3.80991 47.2175 3.81055 46.8624C3.81882 38.57 3.81819 30.2782 3.81246 21.9857C3.81246 21.6885 3.87737 21.5555 4.20828 21.5562C7.59246 21.5702 10.9766 21.5517 14.3602 21.5867C15.6889 21.6007 16.9833 21.861 18.1644 22.5279C19.6255 23.3526 20.482 24.6196 20.8307 26.2347C21.1184 27.5647 21.1241 28.9004 20.7894 30.2304C20.4674 31.5121 19.7114 32.4863 18.6677 33.2614C18.5589 33.3423 18.4596 33.4377 18.3107 33.5669ZM10.4879 39.3858C10.4879 40.1774 10.4898 40.9684 10.4873 41.7601C10.4866 41.9752 10.5255 42.1533 10.7934 42.14C11.9528 42.0827 13.118 42.07 14.2698 41.9414C14.7738 41.8848 15.2956 41.6602 15.7316 41.3865C16.6053 40.8412 16.8019 39.956 16.6874 38.9925C16.5588 37.9094 15.8862 37.2896 14.882 36.9873C13.5501 36.5864 12.1787 36.6431 10.8125 36.6463C10.563 36.6463 10.4828 36.7773 10.4847 37.0109C10.4924 37.8025 10.4886 38.5935 10.4879 39.3858ZM10.4879 29.1702C10.4879 29.89 10.4924 30.6103 10.486 31.3307C10.4841 31.5674 10.5726 31.7062 10.8176 31.6902C11.5697 31.6425 12.3334 31.6527 13.0703 31.5178C14.0878 31.3313 14.7064 30.6867 14.8788 29.6322C15.0812 28.3932 14.5486 27.3572 13.4336 26.9264C12.558 26.5872 11.6378 26.6623 10.7285 26.6916C10.6451 26.6942 10.5032 26.9207 10.4987 27.0467C10.4765 27.7537 10.4879 28.462 10.4879 29.1702Z" fill="white"/>
<path d="M80.2773 47.2692C80.0813 47.2844 79.9674 47.3003 79.8535 47.3003C77.3806 47.3016 74.9077 47.2972 72.4354 47.3073C72.137 47.308 71.9543 47.2125 71.7921 46.9592C69.8677 43.9601 67.9332 40.9673 65.9999 37.9744C65.9254 37.8593 65.8344 37.7543 65.6601 37.6639C65.6448 37.8071 65.6149 37.9503 65.6149 38.0928C65.613 41.0093 65.6136 43.9263 65.6136 46.8428C65.6136 47.2991 65.6117 47.3016 65.1503 47.3023C63.2419 47.3023 61.3334 47.3023 59.425 47.3023C58.9502 47.3023 58.935 47.287 58.935 46.8212C58.935 38.5637 58.9356 30.3063 58.9312 22.0488C58.9312 21.7433 58.9642 21.5556 59.3486 21.5569C62.8295 21.5703 66.3104 21.5467 69.7907 21.5811C71.6648 21.5995 73.4301 22.0641 74.9522 23.2172C76.624 24.4835 77.5009 26.2202 77.7675 28.2635C77.9552 29.7043 77.8732 31.1412 77.3806 32.5278C76.6647 34.5432 75.2106 35.786 73.2271 36.4656C73.0457 36.528 72.8624 36.5859 72.6772 36.6355C72.3062 36.7348 72.2751 36.8118 72.5048 37.1103C73.3168 38.166 74.1294 39.2211 74.9402 40.2781C76.6507 42.5053 78.36 44.732 80.0692 46.9599C80.1265 47.0318 80.1736 47.1126 80.2773 47.2692ZM65.6136 29.8812C65.6136 30.816 65.6168 31.7508 65.6117 32.6856C65.6111 32.9166 65.6454 33.1056 65.9343 33.0827C66.8622 33.0095 67.8046 33.0076 68.7146 32.8345C70.0586 32.58 70.9565 31.4485 70.9972 30.144C71.0475 28.5244 70.3348 27.4541 68.924 26.994C67.9713 26.6834 66.9913 26.6866 66.0082 26.679C65.7122 26.6771 65.606 26.7802 65.6098 27.0767C65.6225 28.0122 65.6142 28.9463 65.6136 29.8812Z" fill="white"/>
<path d="M89.8731 34.4458C89.8731 38.5981 89.8711 42.7497 89.8781 46.902C89.8788 47.196 89.7897 47.3074 89.4893 47.3055C87.5211 47.2972 85.5541 47.2953 83.5858 47.3067C83.2396 47.3086 83.1677 47.1655 83.169 46.853C83.1772 43.325 83.1747 39.797 83.1747 36.2684C83.1747 31.5287 83.1747 26.7885 83.1747 22.0482C83.1747 21.5696 83.1811 21.5626 83.6532 21.562C85.5738 21.5614 87.4931 21.5614 89.413 21.562C89.8718 21.5626 89.8711 21.5652 89.8711 22.0253C89.8705 26.1655 89.8705 30.3056 89.8705 34.4458C89.8705 34.4458 89.8724 34.4458 89.8731 34.4458Z" fill="white"/>
<path d="M93.8562 58.8924C93.804 58.9897 93.7429 59.0833 93.7015 59.1838C92.8215 61.3233 91.9395 63.4627 91.0708 65.6073C90.9505 65.9013 90.7978 66.0387 90.4612 66.0298C89.3902 66.0005 89.6358 66.1399 89.2712 65.214C88.4764 63.1948 87.6962 61.1705 86.9071 59.1501C86.867 59.0464 86.7938 58.956 86.7365 58.8593C86.7035 58.8631 86.6697 58.8669 86.6366 58.8714C86.5705 59.264 86.4985 59.656 86.4381 60.0499C86.1543 61.9361 85.8711 63.8229 85.5968 65.7104C85.565 65.9312 85.4759 66.0254 85.2519 66.0241C84.3635 66.0184 83.4752 66.0171 82.5868 66.0247C82.2795 66.0273 82.2616 65.8567 82.303 65.6251C82.4424 64.8335 82.583 64.0418 82.7173 63.2502C83.0214 61.4645 83.3231 59.6783 83.6254 57.8926C83.871 56.45 84.1192 55.0074 84.3572 53.5641C84.4062 53.2669 84.5245 53.1364 84.8529 53.146C85.6681 53.1708 86.4858 53.1708 87.3004 53.1466C87.6224 53.1371 87.7764 53.2567 87.8826 53.5444C88.5572 55.3656 89.2406 57.1831 89.9235 59.0012C90.0291 59.2831 90.1475 59.5599 90.2607 59.8393C90.3021 59.8348 90.3441 59.831 90.3861 59.8265C90.4975 59.544 90.6146 59.2634 90.7208 58.9783C91.4024 57.1595 92.0871 55.3421 92.7553 53.5183C92.8539 53.2472 92.9933 53.1428 93.2796 53.1473C94.1311 53.1619 94.9838 53.16 95.8359 53.1479C96.1045 53.1441 96.2063 53.2395 96.2521 53.5094C96.7294 56.3482 97.2232 59.1851 97.7087 62.0226C97.9156 63.2285 98.1052 64.4364 98.3203 65.641C98.3737 65.9433 98.2745 66.0266 97.9913 66.0241C97.1513 66.0152 96.31 66.0101 95.4706 66.0266C95.1607 66.0336 95.0475 65.9032 95.0067 65.6175C94.8209 64.3231 94.6224 63.0306 94.4308 61.7375C94.3048 60.895 94.1833 60.0518 94.0547 59.2099C94.0376 59.1024 93.986 59.0005 93.9497 58.8962C93.9192 58.8962 93.888 58.8943 93.8562 58.8924Z" fill="white"/>
<path d="M128.509 58.2472C128.482 58.5036 128.454 58.6481 128.454 58.7932C128.45 61.037 128.452 63.2802 128.452 65.5246C128.452 66.0121 128.441 66.0229 127.944 66.0235C127.14 66.0248 126.336 66.0159 125.532 66.028C125.242 66.0325 125.126 65.9345 125.126 65.6335C125.133 61.6021 125.132 57.5707 125.128 53.5387C125.128 53.2708 125.21 53.1461 125.5 53.1499C126.388 53.162 127.277 53.1404 128.164 53.1671C128.335 53.1722 128.553 53.2956 128.663 53.4331C130.54 55.8016 132.404 58.181 134.272 60.5572C134.355 60.6615 134.456 60.7513 134.625 60.9301C134.643 60.6794 134.662 60.5438 134.662 60.4083C134.665 58.1524 134.663 55.8965 134.664 53.6412C134.664 53.1563 134.666 53.1563 135.138 53.1556C135.941 53.1556 136.746 53.1671 137.549 53.1493C137.854 53.1429 137.975 53.2237 137.975 53.5495C137.967 57.5809 137.968 61.6123 137.975 65.6436C137.977 65.9523 137.856 66.0331 137.57 66.0286C136.731 66.0153 135.891 66.0146 135.051 66.0286C134.769 66.0337 134.583 65.9294 134.413 65.7117C132.551 63.3305 130.682 60.9549 128.814 58.5787C128.745 58.4909 128.663 58.4133 128.509 58.2472Z" fill="white"/>
<path d="M73.6645 66.4154C70.8301 66.2958 68.6188 65.305 67.2627 62.869C65.2607 59.2735 66.8599 54.2825 71.4162 53.083C73.7625 52.4651 76.0031 52.7464 77.9943 54.2024C79.8391 55.5521 80.7078 57.4351 80.6639 59.705C80.6002 63.0395 78.3411 65.6473 75.0588 66.2322C74.5554 66.3225 74.0438 66.3664 73.6645 66.4154ZM69.9087 59.5688C69.9023 61.5753 71.492 63.1407 73.5404 63.1445C75.5672 63.1477 77.176 61.5931 77.1881 59.6184C77.2008 57.6012 75.5984 56.0255 73.5353 56.0255C71.5098 56.0262 69.9157 57.5834 69.9087 59.5688Z" fill="white"/>
<path d="M121.777 66.0228C121.357 66.0228 120.935 65.9986 120.517 66.0304C120.174 66.0572 120.019 65.9127 119.925 65.6053C119.769 65.102 119.571 64.6107 119.417 64.1073C119.34 63.8579 119.208 63.7624 118.951 63.7631C117.583 63.7701 116.215 63.7694 114.846 63.7624C114.586 63.7611 114.453 63.8789 114.375 64.1137C114.2 64.6489 114.01 65.1796 113.836 65.7161C113.767 65.9286 113.643 66.0272 113.415 66.026C112.455 66.0209 111.495 66.0215 110.535 66.026C110.262 66.0272 110.205 65.9331 110.305 65.6721C111.842 61.6529 113.373 57.6317 114.898 53.608C115.018 53.2891 115.168 53.1326 115.545 53.1447C116.48 53.1752 117.417 53.1606 118.353 53.1498C118.621 53.1466 118.758 53.2446 118.855 53.5011C120.215 57.0876 121.586 60.6691 122.954 64.2524C123.13 64.7112 123.302 65.172 123.484 65.6289C123.592 65.9012 123.537 66.0336 123.218 66.026C122.737 66.0139 122.257 66.0228 121.777 66.0228ZM116.946 57.0672C116.827 57.2473 116.752 57.3237 116.721 57.4147C116.314 58.5652 115.92 59.719 115.507 60.867C115.405 61.1527 115.461 61.2628 115.772 61.259C116.527 61.2494 117.281 61.2501 118.035 61.2583C118.357 61.2621 118.397 61.1419 118.289 60.8606C118.075 60.3025 117.895 59.7317 117.696 59.1679C117.462 58.5061 117.223 57.8449 116.946 57.0672Z" fill="white"/>
<path d="M100.532 59.5783C100.532 57.5872 100.532 55.5966 100.532 53.6054C100.532 53.1555 100.546 53.1434 100.998 53.1441C102.702 53.1479 104.406 53.1129 106.107 53.1772C106.787 53.2026 107.489 53.3662 108.126 53.6112C109.319 54.0706 109.951 55.0417 110.199 56.2686C110.416 57.3377 110.383 58.4017 109.961 59.4154C109.315 60.9752 108.021 61.5963 106.431 61.7083C105.716 61.7585 104.993 61.7356 104.273 61.7242C103.966 61.7197 103.848 61.8209 103.852 62.1391C103.866 63.3023 103.85 64.4663 103.864 65.6295C103.868 65.9267 103.77 66.0323 103.472 66.0279C102.633 66.0152 101.794 66.0126 100.954 66.0285C100.623 66.0349 100.522 65.9146 100.523 65.5875C100.537 63.5843 100.532 61.5816 100.532 59.5783ZM103.861 57.4688C103.861 57.9009 103.863 58.3317 103.859 58.7638C103.858 58.9713 103.943 59.0762 104.16 59.0712C104.531 59.0629 104.905 59.0839 105.274 59.0553C106.451 58.9617 107.021 58.1898 106.793 57.0246C106.676 56.4322 106.267 55.9937 105.67 55.9148C105.173 55.8486 104.667 55.8537 104.165 55.8308C103.925 55.8187 103.857 55.9632 103.859 56.1751C103.862 56.6053 103.86 57.0367 103.861 57.4688Z" fill="white"/>
<path d="M64.6558 61.9882C64.6558 62.2001 64.6558 62.412 64.6558 62.6239C64.6558 63.5243 64.6444 64.4242 64.6622 65.324C64.6685 65.6479 64.5419 65.7834 64.2403 65.8795C63.2755 66.1843 62.3114 66.4599 61.2837 66.3791C58.6524 66.171 56.6885 64.9129 55.5253 62.5482C53.7014 58.8382 55.4718 54.5643 59.3727 53.172C61.0495 52.5738 62.7257 52.7023 64.3663 53.3482C64.4904 53.3972 64.6399 53.5812 64.6424 53.7046C64.6628 54.8443 64.6533 55.9841 64.6507 57.1238C64.6507 57.1562 64.6265 57.1893 64.6068 57.2383C62.6513 55.6309 60.6989 55.3821 58.9756 57.4852C57.9174 58.7764 58.1025 60.7721 59.1856 61.9792C59.8996 62.7753 60.7975 63.1572 61.8679 63.1444C62.9351 63.1317 63.7904 62.6417 64.5546 61.9347C64.5884 61.9519 64.6214 61.9703 64.6558 61.9882Z" fill="white"/>
<path d="M139.192 53.1747C139.379 53.1613 139.493 53.1454 139.606 53.1454C140.65 53.1435 141.694 53.1518 142.737 53.1384C143 53.1346 143.158 53.2345 143.296 53.4432C143.938 54.3997 144.589 55.3491 145.239 56.2992C145.473 56.6422 145.525 56.6409 145.76 56.2935C146.392 55.3599 147.029 54.4302 147.649 53.4878C147.811 53.2409 147.989 53.132 148.292 53.1371C149.323 53.1537 150.355 53.1429 151.387 53.1454C151.501 53.1454 151.614 53.162 151.795 53.1772C151.712 53.323 151.67 53.4152 151.612 53.4967C150.191 55.5171 148.763 57.5331 147.351 59.5612C147.225 59.7432 147.144 59.9978 147.142 60.2199C147.125 62.0068 147.125 63.7943 147.139 65.5819C147.142 65.9319 147.029 66.0388 146.686 66.0305C145.858 66.0101 145.03 66.0146 144.202 66.0292C143.903 66.0343 143.807 65.9261 143.809 65.6309C143.819 63.8439 143.823 62.0564 143.803 60.2689C143.8 60.013 143.716 59.7197 143.572 59.5116C142.202 57.528 140.809 55.5598 139.427 53.5858C139.349 53.4731 139.292 53.349 139.192 53.1747Z" fill="white"/>
</svg>
