<svg width="112" height="96" viewBox="0 0 112 96" fill="none" xmlns="http://www.w3.org/2000/svg">
<path opacity="0.6" d="M65.202 0.31553C65.202 0.31553 65.1233 0.31553 65.1233 0.394413C64.966 0.473295 64.8874 0.552177 64.7301 0.552177L52.5391 7.57272L66.6964 15.7765V0C66.2245 0 65.6739 0.157765 65.202 0.31553Z" fill="white"/>
<path opacity="0.8" d="M40.2697 49.7748L53.1685 42.2809L39.0112 34.0771V50.0903C39.4045 50.1692 39.7977 50.0114 40.2697 49.7748Z" fill="white"/>
<path opacity="0.5" d="M81.1684 41.4133L52.1459 24.6113L50.8088 23.8225L24.6178 8.59814C24.4605 9.07144 24.3032 9.54474 24.3032 10.0969C24.3032 10.1758 24.3032 10.3336 24.3032 10.4124V40.5456C24.3032 41.4921 24.8538 42.3599 25.6403 42.8332L37.5954 49.8537C37.9886 50.0903 38.4605 50.1692 38.9324 50.1692V34.7871V34.1561L66.0673 49.8537C66.1459 49.9326 66.2246 49.9326 66.3032 49.9326H66.3819C67.1684 50.2481 67.7976 50.0115 68.5055 49.5382L73.0673 46.935L80.3032 42.5965C80.6965 42.3599 81.0111 41.8866 81.1684 41.4133Z" fill="white"/>
<path d="M81.3256 21.5349V10.097C81.3256 8.59819 80.5391 7.25719 79.2806 6.54725L68.7413 0.473295C68.1121 0.157765 67.4042 0 66.6964 0V15.8554L43.0222 2.05095L40.348 0.552177C39.1683 -0.0788825 38.1458 -0.157765 36.966 0.394413C36.966 0.394413 36.8874 0.394413 36.8874 0.473295C36.7301 0.552178 36.6514 0.63106 36.4941 0.709943L32.3256 3.1553L26.3481 6.62613C25.5615 7.09942 24.9323 7.80937 24.5391 8.67708L50.7301 23.8225L52.0671 24.6113L81.0896 41.4133C81.2469 40.8611 81.2469 39.9145 81.2469 39.9145V21.5349H81.3256Z" fill="white"/>
<path d="M22.3372 95.8423H21.0001L20.2923 91.2672L18.9552 94.8169H18.09L16.753 91.2672L16.0451 95.8423H14.708L15.9664 88.7429H16.9103L18.4833 92.7659L20.0563 88.7429H21.0001L22.3372 95.8423Z" fill="white"/>
<path d="M16.5166 83.6945H13.2919L3.93235 70.6V83.7734H0.47168V64.605H3.6964L12.9773 77.7784V64.605H16.438L16.5166 83.6945Z" fill="white"/>
<path d="M39.9551 74.1497C39.9551 80.0659 35.6292 84.1677 29.9663 84.1677C24.3034 84.1677 19.9775 80.1447 19.9775 74.1497C19.9775 68.2335 24.3034 64.1316 29.9663 64.1316C35.6292 64.1316 39.9551 68.2335 39.9551 74.1497ZM23.8315 74.1497C23.8315 77.936 26.427 80.5391 29.9663 80.5391C33.5843 80.5391 36.1011 77.936 36.1011 74.1497C36.1011 70.3633 33.5056 67.7602 29.9663 67.7602C26.427 67.7602 23.8315 70.3633 23.8315 74.1497Z" fill="white"/>
<path d="M48.5282 76.0427H47.1911V83.6943H43.7305V64.5259H50.7305C54.5057 64.5259 56.8653 66.8923 56.8653 70.3632C56.8653 73.203 55.2136 75.3328 52.3822 75.885L58.0451 83.6943H53.6406L48.5282 76.0427ZM47.2698 72.9663H50.2586C52.3035 72.9663 53.2473 72.0197 53.2473 70.3632C53.2473 68.7855 52.3035 67.7601 50.2586 67.7601H47.2698V72.9663Z" fill="white"/>
<path d="M77.1572 74.1495C77.1572 80.1446 72.9887 83.6943 67.2471 83.6943H61.1123V64.5259H67.2471C72.9887 64.5259 77.1572 68.1545 77.1572 74.1495ZM64.6516 67.7601V80.4601H67.4044C70.8651 80.4601 73.382 78.2514 73.382 74.1495C73.382 70.0477 70.7865 67.8389 67.4044 67.8389L64.6516 67.7601Z" fill="white"/>
<path d="M84.3933 83.6943H80.854V64.5259H84.3933V83.6943Z" fill="white"/>
<path d="M88.1685 74.1497C88.1685 68.0757 92.4156 64.1316 98.4718 64.1316C101.382 64.1316 103.584 64.9993 105.315 66.2614L103.27 69.3378C102.09 68.549 100.517 67.7602 98.4718 67.7602C94.7752 67.7602 92.0224 70.2844 92.0224 74.1497C92.0224 78.0938 94.7752 80.5391 98.4718 80.5391C100.517 80.5391 102.09 79.7503 103.27 78.9615L105.315 82.0379C103.584 83.2212 101.461 84.1677 98.4718 84.1677C92.4943 84.0889 88.1685 80.1447 88.1685 74.1497Z" fill="white"/>
<path d="M0 95.2902L0.550562 94.107C1.10112 94.4225 1.80899 94.738 2.4382 94.738C3.06742 94.738 3.46067 94.4225 3.46067 94.0281C3.46067 93.6337 3.22472 93.397 2.75281 93.0815L1.57303 92.2927C0.786517 91.7405 0.47191 91.1883 0.47191 90.3995C0.47191 89.2951 1.25843 88.5852 2.59551 88.5852C3.30337 88.5852 4.01124 88.743 4.64045 89.0585L4.08989 90.2417C3.53933 90.0051 3.06742 89.7684 2.59551 89.7684C2.04494 89.7684 1.88764 90.0051 1.88764 90.3206C1.88764 90.5573 2.04494 90.7939 2.4382 91.0306L3.69663 91.8983C4.48315 92.4504 4.8764 93.0026 4.8764 93.8703C4.8764 95.2113 3.93258 95.9213 2.4382 95.9213C1.49438 96.0002 0.629214 95.7635 0 95.2902Z" fill="white"/>
<path d="M11.9552 94.6591V95.8423H7.70801V88.7429H11.8765V89.9262H8.96643V91.346H11.6406V92.5293H8.96643V94.5802H11.9552V94.6591Z" fill="white"/>
<path d="M26.5055 95.8423H25.1685V88.7429H26.5055V95.8423Z" fill="white"/>
<path d="M26.5055 95.8423H25.1685V88.7429H26.5055V95.8423Z" fill="white"/>
<path d="M29.1797 92.2927C29.1797 90.084 30.7527 88.5852 33.0336 88.5852C34.1347 88.5852 34.9213 88.9007 35.5505 89.374L34.8426 90.4784C34.3707 90.1628 33.8201 89.9262 33.0336 89.9262C31.6965 89.9262 30.6741 90.8728 30.6741 92.2927C30.6741 93.7126 31.6965 94.6592 33.0336 94.6592C33.8201 94.6592 34.3707 94.3436 34.8426 94.107L35.5505 95.2113C34.9213 95.6846 34.1347 96.0002 33.0336 96.0002C30.7527 96.0002 29.1797 94.5803 29.1797 92.2927Z" fill="white"/>
<path d="M45.0676 92.2927C45.0676 94.5014 43.4945 96.0002 41.3709 96.0002C39.2473 96.0002 37.6743 94.5014 37.6743 92.2927C37.6743 90.084 39.2473 88.5852 41.3709 88.5852C43.4159 88.5852 45.0676 90.084 45.0676 92.2927ZM39.09 92.2927C39.09 93.7126 40.0339 94.6592 41.3709 94.6592C42.708 94.6592 43.6518 93.7126 43.6518 92.2927C43.6518 90.8728 42.708 89.9262 41.3709 89.9262C40.0339 89.9262 39.09 90.8728 39.09 92.2927Z" fill="white"/>
<path d="M53.7192 95.8423H52.5394L49.0787 90.9516V95.8423H47.8203V88.7429H49.0001L52.4608 93.6336V88.7429H53.7192V95.8423Z" fill="white"/>
<path d="M62.8428 92.2926C62.8428 94.5013 61.2697 95.8423 59.1461 95.8423H56.8652V88.7429H59.1461C61.2697 88.7429 62.8428 90.0839 62.8428 92.2926ZM58.2023 89.9262V94.6591H59.2248C60.4832 94.6591 61.427 93.8703 61.427 92.2926C61.427 90.7939 60.4832 89.9262 59.2248 89.9262H58.2023Z" fill="white"/>
<path d="M71.3373 93.0026C71.3373 94.8169 70.3148 95.9212 68.4272 95.9212C66.5396 95.9212 65.5171 94.738 65.5171 93.0026V88.7429H66.8542V92.9237C66.8542 93.9492 67.4834 94.5802 68.4272 94.5802C69.371 94.5802 70.0002 93.9492 70.0002 92.9237V88.7429H71.3373V93.0026Z" fill="white"/>
<path d="M74.0112 92.2927C74.0112 90.084 75.5843 88.5852 77.8652 88.5852C78.9663 88.5852 79.7528 88.9007 80.382 89.374L79.6742 90.4784C79.2022 90.1628 78.6517 89.9262 77.8652 89.9262C76.5281 89.9262 75.5056 90.8728 75.5056 92.2927C75.5056 93.7126 76.5281 94.6592 77.8652 94.6592C78.6517 94.6592 79.2022 94.3436 79.6742 94.107L80.382 95.2113C79.7528 95.6846 78.9663 96.0002 77.8652 96.0002C75.6629 96.0002 74.0112 94.5014 74.0112 92.2927Z" fill="white"/>
<path d="M87.6182 89.9262H85.7306V95.7635H84.4722V89.9262H82.5059V88.7429H87.6182V89.9262Z" fill="white"/>
<path d="M97.0563 92.2927C97.0563 94.5014 95.4833 96.0002 93.3597 96.0002C91.2361 96.0002 89.6631 94.5014 89.6631 92.2927C89.6631 90.084 91.2361 88.5852 93.3597 88.5852C95.4047 88.5852 97.0563 90.084 97.0563 92.2927ZM91.0788 92.2927C91.0788 93.7126 92.0226 94.6592 93.3597 94.6592C94.6968 94.6592 95.6406 93.7126 95.6406 92.2927C95.6406 90.8728 94.6968 89.9262 93.3597 89.9262C92.0226 89.9262 91.0788 90.8728 91.0788 92.2927Z" fill="white"/>
<path d="M101.461 93.0026H100.989V95.8423H99.7305V88.7429H102.326C103.742 88.7429 104.607 89.6106 104.607 90.8727C104.607 91.8982 103.978 92.687 102.955 92.9237L105.079 95.8423H103.427L101.461 93.0026ZM100.989 91.8982H102.09C102.798 91.8982 103.191 91.5827 103.191 90.9516C103.191 90.3995 102.877 90.005 102.09 90.005H100.989V91.8982Z" fill="white"/>
<path d="M109.247 66.8925V67.9179H109.09V65.7092H110.034C110.427 65.7092 110.742 65.867 110.742 66.2614C110.742 66.4981 110.663 66.7347 110.348 66.8136C110.506 66.8925 110.742 66.9713 110.742 67.3658V67.4446C110.742 67.6024 110.742 67.8391 110.742 67.9179H110.506C110.506 67.8391 110.506 67.6024 110.506 67.4446V67.3658C110.506 66.9713 110.348 66.8925 109.955 66.8925H109.247ZM109.247 66.7347H109.955C110.348 66.7347 110.506 66.5769 110.506 66.2614C110.506 66.0248 110.27 65.867 109.955 65.867H109.247V66.7347Z" fill="white"/>
<path d="M110.82 67.9968H110.506V67.918C110.506 67.8391 110.506 67.6813 110.506 67.5236V67.3658C110.506 67.0503 110.427 66.9714 109.955 66.9714H109.326V67.9968H109.011V65.6304H110.034C110.506 65.6304 110.82 65.867 110.82 66.2614C110.82 66.4981 110.742 66.6558 110.506 66.8136C110.663 66.8925 110.742 67.1291 110.742 67.3658V67.4447C110.742 67.6024 110.742 67.8391 110.82 67.9968ZM110.584 67.8391H110.663C110.663 67.7602 110.663 67.6024 110.663 67.4447V67.3658C110.663 66.9714 110.506 66.8925 110.348 66.8925L110.112 66.8136L110.348 66.7347C110.584 66.6558 110.742 66.4981 110.742 66.2614C110.742 65.7881 110.27 65.7093 110.034 65.7093H109.09V67.8391H109.169V66.8136H109.955C110.348 66.8136 110.584 66.8925 110.584 67.3658V67.5236C110.584 67.6813 110.584 67.7602 110.584 67.8391ZM109.955 66.8136H109.169V65.867H109.955C110.506 65.867 110.584 66.1037 110.584 66.3403C110.584 66.6558 110.348 66.8136 109.955 66.8136ZM109.326 66.6558H109.955C110.427 66.6558 110.506 66.4192 110.506 66.2614C110.506 66.1826 110.506 65.9459 109.955 65.9459H109.326V66.6558Z" fill="white"/>
<path d="M109.877 68.8646C108.697 68.8646 107.753 67.918 107.753 66.7348C107.753 65.5516 108.697 64.605 109.877 64.605C111.056 64.605 112 65.5516 112 66.7348C111.921 67.918 110.978 68.8646 109.877 68.8646ZM109.877 64.9205C108.854 64.9205 107.989 65.7882 107.989 66.8137C107.989 67.8392 108.854 68.7069 109.877 68.7069C110.899 68.7069 111.764 67.8392 111.764 66.8137C111.764 65.7093 110.899 64.9205 109.877 64.9205Z" fill="white"/>
<path d="M109.877 68.9435C108.697 68.9435 107.753 67.9969 107.753 66.8137C107.753 65.6304 108.697 64.6838 109.877 64.6838C111.056 64.6838 112 65.6304 112 66.8137C112 67.9969 111.056 68.9435 109.877 68.9435ZM109.877 64.7627C108.775 64.7627 107.832 65.7093 107.832 66.8137C107.832 67.918 108.775 68.8646 109.877 68.8646C110.978 68.8646 111.921 67.918 111.921 66.8137C111.843 65.6304 110.978 64.7627 109.877 64.7627ZM109.877 68.7068C108.775 68.7068 107.91 67.8391 107.91 66.7348C107.91 65.6304 108.775 64.7627 109.877 64.7627C110.978 64.7627 111.843 65.6304 111.843 66.7348C111.843 67.8391 110.899 68.7068 109.877 68.7068ZM109.877 64.9205C108.854 64.9205 108.068 65.7093 108.068 66.7348C108.068 67.7603 108.854 68.5491 109.877 68.5491C110.899 68.5491 111.686 67.7603 111.686 66.7348C111.686 65.7093 110.899 64.9205 109.877 64.9205Z" fill="white"/>
</svg>
