<svg width="104" height="57" viewBox="0 0 104 57" fill="none" xmlns="http://www.w3.org/2000/svg">
<path d="M5.70124 56.0437C3.01621 55.3154 0.936692 53.2168 0.222872 50.5134C0.0387477 49.8162 -0.000175499 45.9372 0.00151682 28.4515C0.00287067 14.7346 0.0617634 6.98069 0.168041 6.51591C0.789798 3.79716 3.26363 1.33743 5.95577 0.761397C6.48242 0.648784 21.7339 0.607834 52.481 0.637523L98.2233 0.681885C101.179 0.684615 103.906 4.14353 103.911 6.41592L103.953 28.1143C103.992 47.6161 104 49.9145 103.736 50.7232C102.833 53.4908 101.225 55.01 98.73 56.0235C97.8219 56.3921 84.5731 56.2996 51.864 56.2918C12.8526 56.2825 6.45534 56.2481 5.70091 56.0437H5.70124ZM97.5914 52.784C98.6498 52.467 99.7163 51.5293 100.193 50.4956L100.576 49.6674L100.574 28.3693C100.573 7.94745 100.56 7.04348 100.27 6.39954C99.9224 5.629 99.0275 4.67008 98.2612 4.24796C97.7627 3.97325 95.389 3.95619 52.242 3.91626C25.4868 3.89135 14.0281 3.84767 8.98705 4.00771C7.98113 4.02341 7.15494 4.092 6.47599 4.22168C4.75456 4.55099 3.98151 5.27376 3.62815 6.5299C3.48735 7.03017 3.41323 7.61508 3.37194 8.29314C3.22267 10.9655 3.24637 16.4705 3.24704 28.5215L3.24874 49.6674C3.68942 50.7956 4.50985 51.7975 5.24533 52.3657C6.09352 53.0137 5.355 53.0035 51.9235 53.0151C91.0435 53.0246 98.3269 52.784 97.5914 52.784ZM18.8573 43.5095C16.9694 43.1359 14.6157 42.0326 13.2138 40.8635C10.8987 38.9334 9.47714 36.1129 9.1116 32.7253C9.03003 31.9678 9.03003 30.9679 9.04763 30.9907H16.4847L16.6106 31.8729C16.9667 34.3691 18.682 35.7416 21.4452 35.7416C22.6549 35.7416 22.9473 35.6806 23.8013 35.2502C24.8576 34.7179 25.6723 33.7999 26.0229 32.7475C26.1732 32.2964 26.2399 29.7571 26.2795 23.0038L26.333 13.8702H34.2821L34.2801 22.9219C34.2781 31.2549 34.253 32.0967 33.9609 33.5232C32.7265 39.5558 27.5135 43.7341 21.3024 43.6696C20.3533 43.6597 19.253 43.5877 18.8577 43.5092L18.8573 43.5095ZM79.0233 43.2925C75.9687 42.7042 73.5046 41.4272 71.2718 39.2743C66.1742 34.3592 65.1811 26.5395 68.886 20.486C72.3535 15.4792 77.6386 13.3017 82.0549 13.43C85.0496 13.401 87.9002 14.4073 90.2542 16.0709C91.3813 16.8817 93.1406 18.5948 93.0688 18.8119C92.9775 19.0872 87.5194 23.6999 87.2845 23.6999C87.1542 23.6999 86.7233 23.3989 86.3273 23.0307C85.9313 22.6625 85.1187 22.1309 84.5216 21.849C83.6145 21.4207 83.1918 21.3258 81.9493 21.2709C80.1121 21.1893 78.7759 21.5838 77.3834 22.6188C73.8279 25.2608 73.464 30.298 76.5999 33.4597C77.7534 34.623 78.9492 35.2458 80.5663 35.5253C82.6113 35.8788 84.875 35.1608 86.5615 33.6242L87.4121 32.8489L90.3398 35.166C91.9499 36.4409 93.2672 37.5946 93.2672 37.7308C93.2672 38.1232 91.559 39.823 90.2413 40.7416C88.7426 41.7859 86.9707 42.6213 85.337 43.0526C83.7124 43.4819 80.6178 43.5996 79.0233 43.2925ZM39.969 28.618V13.8702H48.1409C57.23 13.8702 57.2844 13.8757 59.3467 14.968C61.4973 16.1078 63.2218 18.3791 63.7004 20.7037C63.8165 21.2678 63.8628 22.3656 63.8154 23.4498C63.7325 25.3656 63.3531 26.7384 62.4633 28.344C61.5789 29.9397 59.716 31.5879 58.5263 31.8278C58.244 31.8845 57.9455 32.0145 57.8629 32.1162C57.762 32.2401 58.9128 34.0586 61.3497 37.6257C63.3501 40.5543 64.9882 43.0424 64.9902 43.155C64.9926 43.3143 63.9481 43.3597 60.3018 43.3597H55.6111L51.738 37.9533C49.6077 34.98 47.8078 32.5469 47.7381 32.5469C47.6684 32.5469 47.7381 43.3048 47.7381 37.9123V43.2778L43.7476 43.3222L39.9693 43.3659L39.969 28.618ZM55.8937 23.0898C55.9404 20.4423 53.1271 20.0827 50.8022 20.1775H47.6876V26.1266H50.8252C53.34 26.1689 55.761 26.2897 55.8937 23.0901V23.0898Z" fill="white"/>
</svg>
