<svg width="144" height="26" viewBox="0 0 144 26" fill="none" xmlns="http://www.w3.org/2000/svg">
<path d="M16.7148 19.1904C19.9427 17.2822 22.2516 14.8877 23.3161 12.3373C23.754 10.5023 24.0045 8.52662 24.0045 6.44084C24.0045 6.14933 23.9914 5.87055 23.9652 5.60449C23.7772 8.68893 19.8646 12.5671 14.6882 15.1022C8.44427 18.158 3.75958 18.9803 1.66992 16.6489C2.39583 18.1096 3.36788 19.5844 4.47362 20.9064C7.04368 23.234 11.2817 22.4002 16.7148 19.1904Z" fill="white"/>
<path d="M13.9593 12.9151C19.8497 10.021 23.9515 5.90229 23.2362 3.17238C22.0618 1.10633 19.6854 0.318359 17.1372 0.318359C9.58319 0.318359 0.3125 5.39182 0.3125 11.8643C0.3125 12.6956 0.492417 13.6274 0.815392 14.6006C2.53834 16.9308 7.80589 15.9397 13.9593 12.9151Z" fill="white"/>
<path d="M13.4627 22.0888C9.3209 23.8004 6.9495 23.2543 5.63886 22.1881L5.62012 22.1716C7.64855 24.2325 9.95998 25.6818 11.9865 25.6818C15.5368 25.6818 20.397 21.2958 22.6966 14.4917C21.4009 16.9473 18.6197 19.9649 13.4627 22.0888Z" fill="white"/>
<path d="M13.4626 22.089C18.6196 19.965 21.4008 16.9474 22.697 14.4906C22.9313 13.7974 23.1393 13.0782 23.3168 12.3367C22.2516 14.8871 19.9427 17.2816 16.7154 19.1898C11.2823 22.3996 7.04431 23.234 4.47363 20.9057C4.84284 21.3456 5.22641 21.7714 5.6206 22.1704L5.63934 22.187C6.94936 23.2544 9.32076 23.8005 13.4626 22.089Z" fill="white" fill-opacity="0.5"/>
<path d="M14.6879 15.1022C19.8642 12.5677 23.7768 8.68892 23.9648 5.60449C23.8724 4.64784 23.6175 3.84268 23.2358 3.1731C23.9517 5.903 19.8499 10.0217 13.9588 12.9159C7.80482 15.9405 2.53789 16.9315 0.814941 14.6006C1.03609 15.269 1.3247 15.9583 1.66892 16.6489C3.75982 18.9803 8.44452 18.158 14.6879 15.1022Z" fill="white" fill-opacity="0.5"/>
<path d="M29.3794 9.78185C29.0577 9.78185 28.7353 9.53616 28.4136 9.04479C28.2031 8.70363 28.0981 8.44585 28.0981 8.26827C28.0981 7.9653 28.2937 7.68525 28.6835 7.4262C29.0733 7.16842 29.4975 7.03857 29.9554 7.03857H37.5525C38.0354 7.03857 38.2765 7.26517 38.2765 7.71962C38.2765 8.23709 38.1404 8.71063 37.8686 9.13836C37.5956 9.56799 37.2989 9.78185 36.9771 9.78185H34.5058V18.3356C34.5058 18.8537 34.369 19.3267 34.0972 19.7557C33.8242 20.1853 33.5275 20.3979 33.2058 20.3979C32.884 20.3979 32.5617 20.1541 32.24 19.6608C32.0294 19.3216 31.9245 19.0619 31.9245 18.8849V9.78185H29.3794Z" fill="white"/>
<path d="M38.8712 16.4434C39.0074 17.0366 39.3047 17.514 39.7626 17.8742C40.2206 18.2319 40.7722 18.4121 41.4156 18.4121C41.961 18.4121 42.6107 18.223 43.3666 17.8443C43.7133 17.668 44.035 17.5802 44.3324 17.5802C44.7285 17.5802 44.9265 17.7628 44.9265 18.1282C44.9265 18.4579 44.8553 18.7723 44.7135 19.0746C44.5704 19.3776 44.388 19.5978 44.165 19.7379C43.7445 20.0014 43.2766 20.2063 42.7625 20.3527C42.2484 20.4978 41.7374 20.571 41.2301 20.571C40.338 20.571 39.524 20.3304 38.7868 19.8512C38.0503 19.3712 37.4775 18.7519 37.0689 17.9952C36.6603 17.239 36.4561 16.4313 36.4561 15.5739C36.4561 14.6141 36.6791 13.7466 37.1251 12.9707C37.5705 12.1948 38.1528 11.5959 38.8706 11.1733C39.589 10.7506 40.3755 10.5393 41.2301 10.5393C42.0597 10.5393 42.805 10.7385 43.4684 11.1357C44.1306 11.5329 44.641 12.0605 45.0008 12.7155C45.36 13.3717 45.5393 14.0896 45.5393 14.8744C45.5393 15.278 45.4369 15.6395 45.2326 15.9616C45.0283 16.283 44.8022 16.4434 44.5548 16.4434H38.8712ZM41.1745 12.6213C40.5798 12.6213 40.0719 12.7944 39.6514 13.1413C39.2304 13.4894 38.9705 13.9509 38.8706 14.5326H43.2548C43.2298 13.9904 43.0193 13.5359 42.6232 13.1706C42.2265 12.8046 41.7436 12.6213 41.1745 12.6213Z" fill="white"/>
<path d="M48.9761 20.3985C48.4189 20.3985 47.936 20.1751 47.5274 19.7277C47.1188 19.2802 46.9146 18.7526 46.9146 18.1473V8.09834C46.9146 7.82083 47.1032 7.55606 47.4812 7.30337C47.8585 7.05132 48.2639 6.92529 48.6981 6.92529C49.156 6.92529 49.3853 7.13979 49.3853 7.56815V17.3345C49.3853 17.4987 49.4196 17.6349 49.4877 17.7418C49.5558 17.8487 49.6764 17.9404 49.8501 18.0161C50.0481 18.1052 50.1474 18.2809 50.1474 18.5457C50.1474 19.0116 50.0237 19.4387 49.7764 19.8238C49.5265 20.2069 49.2603 20.3985 48.9761 20.3985Z" fill="white"/>
<path d="M52.7282 9.49853C52.4058 9.49853 52.0716 9.24075 51.7255 8.72264C51.49 8.3573 51.3726 8.07279 51.3726 7.87038C51.3726 7.55596 51.5825 7.25872 52.0035 6.98121C52.4246 6.7037 52.8769 6.56494 53.3598 6.56494C53.8795 6.56494 54.14 6.8049 54.14 7.28481C54.14 7.66289 54.0688 8.02569 53.9264 8.37321C53.7839 8.7201 53.6046 8.99443 53.3879 9.19619C53.1698 9.39796 52.9506 9.49853 52.7282 9.49853ZM52.7282 20.3984C52.4427 20.3984 52.1335 20.161 51.7986 19.6792C51.6006 19.3527 51.5019 19.1063 51.5019 18.9421V11.8828C51.5019 11.6053 51.6905 11.3405 52.0685 11.0878C52.4458 10.8358 52.8512 10.7098 53.2848 10.7098C53.7427 10.7098 53.9726 10.9243 53.9726 11.3539V18.4119C53.9726 18.7525 53.907 19.0815 53.7771 19.3966C53.6471 19.7123 53.4866 19.958 53.2948 20.1349C53.1024 20.3112 52.9137 20.3984 52.7282 20.3984Z" fill="white"/>
<path d="M59.9533 20.3985C59.0612 20.3985 58.2535 20.1732 57.5288 19.7188C56.8048 19.2643 56.2406 18.6686 55.8383 17.9302C55.436 17.1919 55.2349 16.3874 55.2349 15.5167C55.2349 14.5836 55.4641 13.7326 55.9227 12.9618C56.3806 12.1923 56.9747 11.5959 57.7056 11.1733C58.4359 10.7506 59.2224 10.5393 60.0651 10.5393C60.7829 10.5393 61.4826 10.7411 62.1635 11.1446C62.5971 10.8544 63.0306 10.7092 63.4642 10.7092C63.9221 10.7092 64.152 10.9237 64.152 11.3534V18.4114C64.152 18.7519 64.0858 19.081 63.9564 19.3961C63.8265 19.7118 63.6659 19.9575 63.4735 20.1344C63.2817 20.3107 63.0931 20.3979 62.9075 20.3979C62.6227 20.3979 62.3135 20.1605 61.9786 19.6787C61.8549 19.4782 61.7675 19.3012 61.7194 19.1491C61.62 19.4273 61.487 19.6666 61.3195 19.8696C61.1521 20.0714 60.9759 20.2031 60.7904 20.2674C60.5287 20.3559 60.25 20.3985 59.9533 20.3985ZM60.1195 18.0531C60.6773 18.0531 61.1971 17.8952 61.6806 17.5802V13.2839C61.2221 13.0184 60.7086 12.8867 60.1388 12.8867C59.4329 12.8867 58.8419 13.1298 58.3653 13.6155C57.8886 14.1011 57.65 14.7109 57.65 15.4416C57.65 16.1722 57.888 16.7922 58.3653 17.2963C58.8419 17.801 59.426 18.0531 60.1195 18.0531Z" fill="white"/>
<path d="M77.581 10.1994C77.4573 10.1994 77.308 10.1555 77.1355 10.067C76.3796 9.67623 75.6494 9.47955 74.9434 9.47955C74.1632 9.47955 73.466 9.66922 72.8538 10.0479C72.2409 10.4266 71.7693 10.9352 71.4413 11.5717C71.1133 12.2088 70.949 12.9121 70.949 13.6823C70.949 14.4906 71.1246 15.2118 71.4788 15.8489C71.8318 16.486 72.299 16.9774 72.8813 17.3249C73.4629 17.6705 74.1069 17.8443 74.8129 17.8443C75.63 17.8443 76.4352 17.6616 77.2274 17.2963C77.6484 17.1066 77.9889 17.0131 78.2494 17.0131C78.6954 17.0131 78.9178 17.2326 78.9178 17.675C78.9178 18.0028 78.8497 18.3274 78.7136 18.6482C78.5761 18.9709 78.4043 19.2268 78.1932 19.4158C77.7965 19.7563 77.2674 20.0332 76.6052 20.249C75.943 20.4628 75.2833 20.5717 74.6273 20.5717C73.4135 20.5717 72.314 20.2541 71.3301 19.6239C70.3456 18.9938 69.584 18.1645 69.0455 17.1359C68.507 16.108 68.2378 14.9941 68.2378 13.7956C68.2378 12.4838 68.557 11.2853 69.1942 10.2001C69.8321 9.11484 70.6648 8.26958 71.6931 7.66364C72.7201 7.05898 73.8221 6.75537 74.999 6.75537C76.2872 6.75537 77.4441 7.0838 78.4724 7.74002C78.6586 7.85332 78.751 8.04299 78.751 8.30777C78.751 8.77432 78.6267 9.20713 78.3793 9.6043C78.1319 9.99956 77.8658 10.1994 77.581 10.1994Z" fill="white"/>
<path d="M84.5464 10.5398C85.4748 10.5398 86.3131 10.7728 87.0628 11.2406C87.8112 11.7071 88.3909 12.3213 88.7995 13.0851C89.208 13.8489 89.4123 14.6713 89.4123 15.5547C89.4123 16.5145 89.1868 17.3782 88.7339 18.1471C88.2816 18.9173 87.6869 19.5124 86.951 19.9369C86.2144 20.3583 85.4117 20.5715 84.5458 20.5715C83.6175 20.5715 82.7773 20.3367 82.0282 19.8701C81.2792 19.4036 80.7001 18.7881 80.2916 18.0243C79.883 17.2611 79.6787 16.4388 79.6787 15.5547C79.6787 14.5968 79.9049 13.7331 80.3578 12.9623C80.8101 12.1928 81.4035 11.5964 82.1401 11.1737C82.8766 10.7511 83.6793 10.5398 84.5464 10.5398ZM84.5464 18.2229C85.2268 18.2229 85.8002 17.9683 86.2644 17.4578C86.7286 16.9461 86.961 16.3115 86.961 15.5547C86.961 14.7979 86.7286 14.1633 86.2644 13.6535C85.8002 13.1418 85.2268 12.8872 84.5464 12.8872C83.8649 12.8872 83.292 13.1418 82.8279 13.6535C82.3637 14.164 82.1319 14.7979 82.1319 15.5547C82.1319 16.3115 82.3637 16.9467 82.8279 17.4578C83.292 17.9683 83.8649 18.2229 84.5464 18.2229Z" fill="white"/>
<path d="M97.1959 20.3984C96.9098 20.3984 96.5999 20.161 96.2663 19.6792C96.0689 19.3526 95.9689 19.1063 95.9689 18.9421V14.0984C95.9689 13.8196 95.8915 13.5943 95.7372 13.4167C95.5822 13.2404 95.3861 13.1513 95.1518 13.1513C94.5821 13.1513 93.913 13.4664 93.1459 14.0984V18.4119C93.1459 18.7524 93.0803 19.0815 92.9503 19.3966C92.8204 19.7123 92.6605 19.9579 92.4687 20.1349C92.2757 20.3112 92.0876 20.3984 91.9015 20.3984C91.6166 20.3984 91.3067 20.161 90.9731 19.6792C90.7745 19.3526 90.6758 19.1063 90.6758 18.9421V11.8828C90.6758 11.6053 90.8644 11.3405 91.2424 11.0878C91.6197 10.8358 92.0251 10.7097 92.4587 10.7097C92.916 10.7097 93.1465 10.9242 93.1465 11.3539V11.7319C93.6407 11.3284 94.1092 11.0286 94.5483 10.8326C94.9875 10.6372 95.4311 10.5398 95.8765 10.5398C96.3219 10.5398 96.7405 10.6715 97.1303 10.937C97.5201 11.2017 97.8331 11.5747 98.0686 12.054C99.1831 11.0445 100.216 10.5398 101.17 10.5398C101.666 10.5398 102.109 10.6881 102.5 10.9847C102.889 11.2807 103.191 11.6747 103.409 12.1667C103.625 12.6587 103.735 13.201 103.735 13.7948V18.4119C103.735 18.7524 103.669 19.0815 103.539 19.3966C103.41 19.7123 103.249 19.9579 103.057 20.1349C102.864 20.3112 102.676 20.3984 102.491 20.3984C102.206 20.3984 101.896 20.161 101.562 19.6792C101.364 19.3526 101.265 19.1063 101.265 18.9421V14.0984C101.265 13.8196 101.187 13.5943 101.032 13.4167C100.877 13.2404 100.682 13.1513 100.447 13.1513C99.8771 13.1513 99.2081 13.4664 98.4409 14.0984V18.4119C98.4409 18.7524 98.3759 19.0815 98.2454 19.3966C98.1154 19.7123 97.9555 19.9579 97.7637 20.1349C97.5694 20.3112 97.3814 20.3984 97.1959 20.3984Z" fill="white"/>
<path d="M106.372 23.9188C106.087 23.9188 105.777 23.6789 105.443 23.1996C105.245 22.8718 105.146 22.6255 105.146 22.4638V11.8828C105.146 11.6053 105.334 11.3405 105.711 11.0878C106.089 10.8358 106.495 10.7097 106.928 10.7097C107.349 10.7097 107.579 10.8988 107.616 11.2775C108.334 10.7855 109.09 10.5398 109.882 10.5398C110.687 10.5398 111.411 10.7607 112.055 11.2017C112.699 11.6435 113.195 12.2335 113.541 12.9712C113.888 13.7102 114.061 14.521 114.061 15.4032C114.061 16.3872 113.857 17.2688 113.448 18.0434C113.04 18.8199 112.496 19.4176 111.815 19.8408C111.133 20.2622 110.385 20.4748 109.566 20.4748C109.245 20.4748 108.907 20.4347 108.554 20.3526C108.202 20.2705 107.889 20.1603 107.617 20.021V21.9336C107.617 22.2729 107.552 22.6019 107.421 22.9164C107.292 23.2308 107.131 23.4777 106.939 23.654C106.745 23.8316 106.557 23.9188 106.372 23.9188ZM109.473 12.8865C109.139 12.8865 108.807 12.9495 108.479 13.0756C108.151 13.201 107.863 13.3849 107.615 13.6236V17.6558C108.161 17.9702 108.742 18.128 109.362 18.128C110.004 18.128 110.547 17.876 110.986 17.37C111.426 16.8665 111.647 16.2428 111.647 15.4987C111.647 14.7419 111.442 14.1162 111.034 13.6242C110.625 13.1322 110.104 12.8865 109.473 12.8865Z" fill="white"/>
<path d="M119.726 20.3985C118.834 20.3985 118.027 20.1732 117.302 19.7188C116.579 19.2643 116.014 18.6686 115.612 17.9302C115.209 17.1919 115.008 16.3874 115.008 15.5167C115.008 14.5836 115.237 13.7326 115.696 12.9618C116.153 12.1923 116.748 11.5959 117.479 11.1733C118.209 10.7506 118.995 10.5393 119.837 10.5393C120.555 10.5393 121.255 10.7411 121.936 11.1446C122.369 10.8544 122.802 10.7092 123.236 10.7092C123.694 10.7092 123.924 10.9237 123.924 11.3534V18.4114C123.924 18.7519 123.859 19.081 123.728 19.3961C123.598 19.7118 123.437 19.9575 123.245 20.1344C123.053 20.3107 122.865 20.3979 122.68 20.3979C122.394 20.3979 122.084 20.1605 121.751 19.6787C121.627 19.4782 121.54 19.3012 121.491 19.1491C121.391 19.4273 121.259 19.6666 121.09 19.8696C120.924 20.0714 120.748 20.2031 120.562 20.2674C120.302 20.3559 120.023 20.3985 119.726 20.3985ZM119.894 18.0531C120.451 18.0531 120.971 17.8952 121.454 17.5802V13.2839C120.996 13.0184 120.481 12.8867 119.912 12.8867C119.206 12.8867 118.615 13.1298 118.137 13.6155C117.661 14.1011 117.423 14.7109 117.423 15.4416C117.423 16.1722 117.661 16.7922 118.137 17.2963C118.615 17.801 119.2 18.0531 119.894 18.0531Z" fill="white"/>
<path d="M132.859 20.3984C132.574 20.3984 132.264 20.161 131.93 19.6792C131.732 19.3526 131.633 19.1063 131.633 18.9421V14.1544C131.633 13.8515 131.531 13.6039 131.327 13.4078C131.123 13.2111 130.858 13.1131 130.536 13.1131C129.856 13.1131 128.982 13.4861 127.918 14.2302V18.4119C127.918 18.7524 127.853 19.0815 127.722 19.3966C127.592 19.7123 127.432 19.9579 127.241 20.1349C127.048 20.3112 126.86 20.3984 126.675 20.3984C126.389 20.3984 126.079 20.161 125.744 19.6792C125.548 19.3526 125.448 19.1063 125.448 18.9421V11.8828C125.448 11.6053 125.637 11.3405 126.014 11.0878C126.392 10.8358 126.797 10.7097 127.231 10.7097C127.689 10.7097 127.918 10.9242 127.918 11.3539V11.8077C129.045 10.9624 130.129 10.5398 131.168 10.5398C131.727 10.5398 132.23 10.6906 132.682 10.9936C133.135 11.2966 133.485 11.6944 133.732 12.1858C133.979 12.6784 134.104 13.2143 134.104 13.7948V18.4119C134.104 18.7524 134.039 19.0815 133.908 19.3966C133.779 19.7123 133.618 19.9579 133.425 20.1349C133.233 20.3112 133.045 20.3984 132.859 20.3984Z" fill="white"/>
<path d="M135.05 12.3189C134.938 12.0917 134.883 11.9211 134.883 11.8078C134.883 11.543 135.061 11.2935 135.421 11.0599C135.781 10.8263 136.163 10.7099 136.573 10.7099C136.871 10.7099 137.069 10.8295 137.168 11.0688L139.397 15.8565L141.291 11.6366C141.402 11.3839 141.625 11.1662 141.96 10.9842C142.293 10.8015 142.64 10.7092 142.999 10.7092C143.458 10.7092 143.687 10.9237 143.687 11.3534C143.687 11.6812 143.619 12.0026 143.483 12.3183L138.616 23.01C138.48 23.2888 138.322 23.5091 138.143 23.6733C137.963 23.8368 137.786 23.919 137.612 23.919C137.339 23.919 137.037 23.6936 136.703 23.2379C136.517 22.9483 136.425 22.7013 136.425 22.5002C136.425 22.4251 136.456 22.3112 136.517 22.161L138.133 18.603L135.05 12.3189Z" fill="white"/>
</svg>
