<svg width="128" height="81" viewBox="0 0 128 81" fill="none" xmlns="http://www.w3.org/2000/svg">
<path d="M64 77.6953C96.7658 77.6953 124.513 61.5601 124.513 40.5163C124.513 19.4563 96.7495 3.33731 64 3.33731C31.2505 3.33731 3.48675 19.4725 3.48675 40.5163C3.48675 61.5601 31.2342 77.6953 64 77.6953ZM64 79.6231C31.1527 79.6231 1.54785 63.3907 1.54785 40.5163C1.54785 17.6419 31.1527 1.39331 64 1.39331C96.8635 1.39331 126.468 17.6257 126.468 40.5001C126.468 63.3745 96.8472 79.6231 64 79.6231Z" fill="white"/>
<path d="M64 5.52419C31.5764 5.52419 5.8656 21.4326 5.8656 40.5C5.8656 59.5674 31.5764 75.4758 64 75.4758C96.4236 75.4758 122.151 59.5674 122.151 40.5C122.151 21.4326 96.4236 5.52419 64 5.52419ZM64 4.47119C96.3259 4.47119 123.096 20.3634 123.096 40.5C123.096 60.6528 96.3259 76.5288 64 76.5288C31.6741 76.5288 4.9043 60.6366 4.9043 40.5C4.9043 20.3634 31.6741 4.47119 64 4.47119Z" fill="white"/>
<path d="M57.5967 14.5963H57.336C56.7005 14.5963 56.0651 14.7745 55.4134 15.1471C55.3319 14.8555 55.2993 14.6125 55.2993 14.4181C55.2993 13.3975 55.7881 12.8953 56.7494 12.8953C56.9449 12.8953 57.2219 12.9115 57.5967 12.9277C57.9877 12.9439 58.2647 12.9601 58.4602 12.9601H60.6435C61.4256 12.9601 62.1914 12.8467 62.9409 12.6199L62.9572 12.8467V12.9115C62.9572 13.3489 62.8105 13.7539 62.5173 14.1103C62.2403 14.4829 61.8818 14.6611 61.4745 14.6611C61.3278 14.6611 61.0671 14.6449 60.6924 14.6125C60.448 14.5801 60.2362 14.5801 60.0733 14.5801H59.9266L58.5743 21.3679C58.395 22.2589 58.2973 22.9717 58.2973 23.4577C58.2973 23.6521 58.3462 23.8789 58.4439 24.0733C57.7433 24.3649 57.1568 24.5107 56.6354 24.5107C56.0162 24.5107 55.6904 24.3001 55.6904 23.8789C55.6904 23.5711 55.7881 23.0527 55.9673 22.3399C56.228 21.3031 56.3584 20.7685 56.3584 20.7361L57.5967 14.5963Z" fill="white"/>
<path d="M65.1243 18.7434C66.2811 16.4268 67.5031 15.2604 68.7903 15.2604C69.7353 15.2604 70.2078 15.7302 70.2078 16.7022C70.2078 17.3664 70.0449 18.3708 69.719 19.6992C69.4094 21.0276 69.2465 22.032 69.2465 22.6962C69.2465 23.247 69.3768 23.7006 69.6538 24.0408C69.1487 24.3648 68.6273 24.5268 68.1223 24.5268C67.275 24.5268 66.8514 24.1218 66.8514 23.3118C66.8514 22.68 66.998 21.6918 67.3076 20.3796C67.6172 19.0512 67.7638 18.1116 67.7638 17.5932C67.7638 17.3502 67.6986 17.2206 67.5357 17.2206C67.1121 17.2206 66.444 18.0954 65.5316 19.8612C64.6192 21.627 64.163 22.923 64.163 23.733C64.163 23.895 64.1956 24.1056 64.277 24.3486C63.8208 24.4782 63.3646 24.5268 62.941 24.5268C62.1589 24.5268 61.7842 24.2514 61.7842 23.7006C61.7842 23.3442 61.8656 22.8582 62.0286 22.2426C62.2567 21.3354 62.387 20.8332 62.4033 20.7846L63.3157 16.1676C63.5113 15.1794 63.609 14.418 63.609 13.9158C63.609 13.77 63.5927 13.5756 63.5276 13.3326C64.0326 13.0248 64.5377 12.8628 65.0265 12.8628C65.7271 12.8628 66.0693 13.1544 66.0693 13.7376C66.0856 14.094 65.7597 15.7464 65.1243 18.7434Z" fill="white"/>
<path d="M73.8087 19.505C75.5846 19.4726 76.4645 18.7274 76.4645 17.2532C76.4645 16.6214 76.2364 16.3136 75.7964 16.3136C74.9492 16.3136 74.2975 17.3828 73.8087 19.505ZM73.6946 20.6714C73.6457 21.0278 73.6294 21.3194 73.6294 21.5786C73.6294 22.7126 74.0856 23.2796 74.9981 23.2796C75.8453 23.2796 76.8392 22.8422 77.9471 21.9674C78.0612 22.1942 78.1101 22.4048 78.1101 22.583C78.1101 23.1662 77.6702 23.6522 76.7903 24.0572C75.9105 24.446 75.0307 24.6404 74.1508 24.6404C72.0327 24.6404 70.9736 23.7332 70.9736 21.8864C70.9736 20.153 71.5439 18.5978 72.6681 17.2046C73.7924 15.7952 75.161 15.0986 76.7414 15.0986C78.0449 15.0986 78.6966 15.6494 78.6966 16.751C78.6966 17.9174 78.2241 18.857 77.2465 19.5698C76.3341 20.2664 75.1284 20.639 73.6946 20.6714Z" fill="white"/>
<path opacity="0.5" d="M18.1183 54.9506C17.0592 53.444 16.7497 50.366 15.8535 48.6488C13.8495 47.7254 12.7578 46.6724 12.7578 45.5384C12.7578 43.4972 16.326 41.7638 22.2242 40.4192V42.752C17.7924 43.724 15.3647 44.7284 15.3647 45.5546C15.3647 47.8874 34.9818 51.7592 64.4727 51.7592C93.9635 51.7592 113.581 47.8874 113.581 45.5546C113.581 44.9552 112.293 44.2586 109.898 43.562L108.807 40.9538C112.456 41.942 114.917 43.1246 115.813 44.4368L115.862 44.3234L115.813 44.4368C116.057 44.7932 116.188 45.1658 116.188 45.5546C116.188 46.6238 115.21 47.5958 113.45 48.4868C112.391 50.2526 111.902 53.4116 110.811 54.9668C108.073 59.4056 89.6621 65.0432 64.4401 65.0432C39.2018 65.0432 20.8556 59.3894 18.1183 54.9506Z" fill="white"/>
<path d="M31.772 40.1924V43.4486C31.772 44.9066 31.7883 45.6842 33.1243 45.911L33.3198 45.9434V46.8344H25.0103V45.9434L25.2058 45.911C26.5418 45.6842 26.5418 44.9066 26.5418 43.4486V26.1146C26.5418 24.6566 26.5255 23.8952 25.2058 23.6684L25.0103 23.636V22.7288H36.7251C42.9003 22.7288 45.7842 25.8554 45.7842 29.7596C45.7842 35.8184 39.7883 37.8434 34.9003 39.2852L31.772 40.1924ZM31.772 36.8876C32.5378 36.6284 33.4013 36.3368 34.2648 35.9804C35.2587 35.5916 36.2526 35.138 37.1488 34.6034C38.941 33.518 40.2608 32.1248 40.2608 30.2132C40.2608 27.4754 37.8819 26.0336 35.1447 26.0336H31.772V36.8876Z" fill="white"/>
<path d="M51.8452 44.2424C51.8452 45.3764 51.8615 45.9272 52.8391 46.0892L53.0346 46.1216V46.9154H46.501V46.1216L46.6965 46.0892C47.6741 45.9272 47.6904 45.3764 47.6904 44.2424V30.7802C47.6904 29.6462 47.6741 29.0954 46.6965 28.9334L46.501 28.901V28.1072H53.0346V28.901L52.8391 28.9334C51.8615 29.0954 51.8452 29.6624 51.8452 30.7802V44.2424Z" fill="white"/>
<path d="M69.6702 30.4724L59.5195 44.0966H65.0755C67.3729 44.0966 68.5623 43.7078 68.9533 41.537L68.9859 41.3426H70.1753V46.9154H54.1753V44.4044L64.2934 30.926H58.9492C57.3525 30.926 56.5541 31.2662 56.4238 32.8052L56.3912 33.0158H55.1855V28.1072H69.6702V30.4724Z" fill="white"/>
<path d="M86.8267 30.4724L76.676 44.0966H82.232C84.5294 44.0966 85.7351 43.7078 86.1098 41.537L86.1424 41.3426H87.3481V46.9154H71.3481V44.4044L81.4663 30.926H76.1384C74.5253 30.926 73.7433 31.2662 73.5966 32.8052L73.5803 33.0158H72.3583V28.1072H86.8267V30.4724Z" fill="white"/>
<path d="M99.3891 37.5842L97.1895 32.3354L95.0714 37.5842H99.3891ZM106.705 44.9066C106.982 45.587 107.161 46.0244 107.845 46.1054L108.041 46.1216V46.9316H101.23V46.1378L101.426 46.1054C102.55 45.9434 102.485 45.5546 102.029 44.5178L100.432 40.2572H94.1101L92.6437 44.5178C92.2364 45.4898 92.269 45.8462 93.328 46.1216L93.5072 46.1702V46.9478H87.7231V46.1378L87.935 46.1216C88.3423 46.1054 88.6193 45.8786 88.8474 45.5384C88.9614 45.3602 89.0592 45.182 89.1569 44.9714C89.2384 44.7608 89.3199 44.5664 89.4013 44.3882L95.7231 28.1072H99.9594L106.705 44.9066Z" fill="white"/>
<path d="M43.8453 58.8872C43.8779 59.1626 43.8942 59.3246 43.8942 59.4056C43.8453 59.843 43.3891 60.1832 42.5582 60.4424C41.7272 60.7016 41.0103 60.7826 40.3749 60.7178C38.8759 60.5396 38.2079 59.6 38.4197 57.9152C38.6315 56.2952 39.2669 54.8858 40.3749 53.7032C41.4665 52.5206 42.7048 52.0022 44.0571 52.1642C45.2791 52.31 45.8331 52.6826 45.7679 53.2982C45.7191 53.6384 45.3606 54.011 44.6763 54.4322C44.5134 53.5412 44.106 53.039 43.4543 52.958C42.7374 52.877 42.1182 53.3306 41.548 54.335C40.994 55.3394 40.6356 56.4248 40.4889 57.6236C40.3423 58.8548 40.6681 59.519 41.4665 59.6324C42.102 59.7134 42.9003 59.4704 43.8453 58.8872Z" fill="white"/>
<path d="M48.0813 60.2804C48.5539 60.329 48.9775 59.924 49.3522 59.0978C49.727 58.2716 49.9551 57.4292 50.0365 56.5706C50.1017 55.6958 49.8899 55.2422 49.3685 55.1936C48.896 55.145 48.4561 55.5338 48.0651 56.3438C47.6903 57.1538 47.4622 58.0124 47.3807 58.8872C47.2993 59.7782 47.5437 60.248 48.0813 60.2804ZM47.6414 61.2848C46.9245 61.22 46.3705 60.9446 45.9632 60.4748C45.5722 59.9888 45.4092 59.3894 45.4744 58.6442C45.5722 57.4616 46.061 56.3924 46.9082 55.469C47.7718 54.5294 48.7331 54.1244 49.8084 54.2216C50.509 54.2702 51.0467 54.5618 51.4378 55.0478C51.8288 55.5338 51.9917 56.1332 51.9266 56.846C51.8288 58.0286 51.34 59.0816 50.4765 60.0212C49.6455 60.9608 48.6842 61.3658 47.6414 61.2848Z" fill="white"/>
<path d="M57.9062 61.5439C57.5804 61.6087 57.2545 61.6411 56.9612 61.6249C56.4561 61.5925 56.228 61.3981 56.2443 60.9931C56.2606 60.8473 56.3258 60.5233 56.4561 60.0373C57.059 57.9314 57.3523 56.7002 57.3849 56.3276C57.3849 56.2142 57.3523 56.1494 57.2708 56.1332C57.059 56.117 56.5376 56.7488 55.7066 58.0124C54.8757 59.2759 54.4521 60.2317 54.4195 60.8635C54.4032 61.0093 54.4358 61.1713 54.4846 61.3333C54.1425 61.4143 53.8329 61.4305 53.5396 61.4305C53.002 61.3981 52.7413 61.1875 52.7576 60.7663C52.7738 60.5557 52.8227 60.2803 52.9205 59.9725C53.6537 57.5912 54.0447 56.0198 54.0773 55.2908C54.0773 55.1126 54.061 54.9506 53.9958 54.7886C54.4521 54.659 54.8105 54.5942 55.1201 54.6104C55.5926 54.6428 55.8207 54.8534 55.8044 55.2746C55.7881 55.5338 55.7229 55.874 55.6089 56.279L55.3156 57.2672C56.4398 55.5176 57.4174 54.6752 58.2484 54.7238C58.835 54.7562 59.1282 55.1288 59.0794 55.8416C59.0631 56.036 59.0142 56.3114 58.9327 56.6516C58.835 57.0242 58.7861 57.2996 58.7698 57.4616C59.894 55.712 60.8879 54.8696 61.7352 54.9182C62.338 54.9506 62.6313 55.2908 62.5824 55.955C62.5661 56.1494 62.501 56.522 62.3543 57.089C61.8655 58.9519 61.6048 60.0859 61.5885 60.5071C61.5722 60.9121 61.6374 61.2523 61.8329 61.5277C61.4419 61.7545 61.0671 61.8517 60.725 61.8355C60.1384 61.8031 59.8614 61.4953 59.894 60.8959C59.9103 60.4099 60.0244 59.8267 60.2036 59.1139C60.6109 57.5425 60.8227 56.684 60.8227 56.522C60.8227 56.3924 60.7902 56.3438 60.7087 56.3276C60.4969 56.3114 59.9755 56.9431 59.1445 58.2067C58.3299 59.4703 57.9062 60.4099 57.8737 61.0579C57.8411 61.2037 57.8574 61.3657 57.9062 61.5439Z" fill="white"/>
<path d="M65.776 59.9564C66.167 60.4586 66.558 60.7178 66.9328 60.7016C67.3564 60.7016 67.7149 60.2642 68.0081 59.4056C68.3014 58.547 68.4481 57.7532 68.4318 57.0404C68.4155 56.5544 68.3177 56.3114 68.1059 56.3276C67.9104 56.3276 67.5356 56.8136 66.9654 57.7694C66.3951 58.709 65.9878 59.438 65.776 59.9564ZM65.4338 63.1802C65.0102 63.3746 64.6354 63.4718 64.3258 63.4718C63.8207 63.488 63.5764 63.2774 63.5601 62.8562C63.5601 62.678 63.5926 62.4674 63.6415 62.2082C63.7393 61.787 63.7882 61.5764 63.7882 61.5764L64.554 57.3644C64.6843 56.6354 64.7495 56.0684 64.7495 55.6796C64.7495 55.55 64.7169 55.388 64.668 55.2098C65.0916 55.0316 65.4664 54.9344 65.7922 54.9344C66.2973 54.9182 66.558 55.1288 66.5743 55.5662C66.5743 55.8092 66.4603 56.4896 66.2322 57.5588C67.1935 55.7444 68.1059 54.821 68.9369 54.8048C69.8004 54.7886 70.2566 55.4042 70.2729 56.6354C70.2892 57.8018 69.9633 58.9358 69.279 60.0536C68.5947 61.1714 67.7637 61.7222 66.8024 61.7384C66.3299 61.7546 65.89 61.6412 65.5153 61.3982C65.4175 61.949 65.3849 62.354 65.3849 62.597C65.3849 62.7428 65.4012 62.9372 65.4338 63.1802Z" fill="white"/>
<path d="M75.7475 56.3762C75.3238 55.8902 74.9328 55.6472 74.5581 55.6796C74.1344 55.6958 73.7923 56.1656 73.5153 57.0728C73.2546 57.98 73.1242 58.8062 73.1731 59.519C73.1894 60.005 73.3198 60.2318 73.5479 60.2318C73.7434 60.2156 74.0855 59.762 74.5906 58.8548C75.0794 57.9476 75.4705 57.1214 75.7475 56.3762ZM75.3727 58.9196C74.4766 60.7664 73.5967 61.7222 72.7658 61.7546C71.8859 61.8032 71.4297 61.22 71.3483 60.005C71.2994 58.8062 71.5764 57.6398 72.2118 56.4572C72.8635 55.2908 73.6619 54.6752 74.6558 54.6266C75.1446 54.6104 75.5682 54.7076 75.9593 54.9344C76.1222 54.7238 76.3666 54.6104 76.6925 54.5942C77.0672 54.578 77.4583 54.6428 77.833 54.8048C77.6212 55.2908 77.442 56.0846 77.279 57.2024C77.1161 58.3202 77.0672 59.195 77.0998 59.8592C77.1324 60.329 77.2302 60.734 77.4257 61.0904C77.1487 61.3496 76.8065 61.4954 76.4318 61.5116C75.7312 61.544 75.3564 61.1876 75.3238 60.4262C75.3075 60.0212 75.3238 59.519 75.3727 58.9196Z" fill="white"/>
<path d="M81.3851 56.9431C82.1183 55.0801 82.9493 54.1082 83.8617 54.0272C84.5623 53.9624 84.9371 54.2864 85.0022 54.9829C85.0348 55.4851 84.9859 56.2465 84.823 57.2833C84.6764 58.3039 84.6112 59.0815 84.6601 59.5837C84.6927 59.9887 84.823 60.3127 85.0511 60.5395C84.6927 60.8149 84.3342 60.9607 83.9595 60.9931C83.3403 61.0417 82.9982 60.7663 82.9493 60.1831C82.9167 59.7457 82.933 59.1949 82.9982 58.5307C83.1937 56.8621 83.2752 55.9387 83.2589 55.7767C83.2426 55.5985 83.1774 55.5175 83.0633 55.5175C82.8515 55.5337 82.4279 56.2141 81.8251 57.5587C81.2222 58.9033 80.9452 59.9401 81.0104 60.6529C81.0104 60.7825 81.0593 60.9283 81.1245 61.0903C80.7986 61.2037 80.4727 61.2847 80.1632 61.3171C79.5929 61.3657 79.2996 61.1875 79.2507 60.7825C79.2344 60.5719 79.2507 60.2965 79.2996 59.9725L79.43 59.1787C79.7232 57.1861 79.8373 55.8577 79.7884 55.1936C79.7721 55.0154 79.7232 54.8372 79.6418 54.6914C80.0654 54.497 80.4401 54.3998 80.766 54.3674C81.2711 54.3188 81.5318 54.5132 81.5807 54.9344C81.597 55.1449 81.5318 55.8253 81.3851 56.9431Z" fill="white"/>
<path d="M86.1753 54.2376C86.5826 53.8326 87.0388 53.6058 87.5113 53.541C87.9512 53.4762 88.2771 53.8164 88.5052 54.5616C88.8148 55.9224 89.1081 57.1212 89.4014 58.1256L90.2975 55.971C90.6722 54.9504 90.8352 54.2052 90.77 53.7354C90.7537 53.6058 90.7048 53.4114 90.5908 53.1684C91.6335 53.055 92.1712 53.2332 92.2527 53.6868C92.3341 54.2376 91.7313 55.7604 90.4441 58.2552C89.157 60.7338 88.0816 62.046 87.2018 62.1594C86.6641 62.2404 86.3708 62.0946 86.3219 61.722C86.2893 61.4628 86.3871 61.1064 86.6315 60.669C86.8433 60.7824 87.0388 60.8148 87.2506 60.7824C87.7394 60.7176 88.1142 60.345 88.3586 59.6646C87.4136 56.5704 86.6804 54.756 86.1753 54.2376Z" fill="white"/>
</svg>
