<svg width="120" height="35" viewBox="0 0 120 35" fill="none" xmlns="http://www.w3.org/2000/svg">
<path d="M31.1002 30.2664L30.3602 32.4657C30.3402 32.5076 30.3202 32.5285 30.2802 32.5285H29.5802C29.5202 32.5285 29.5002 32.5076 29.5202 32.4447L31.7802 25.8259C31.8002 25.784 31.8002 25.7422 31.8202 25.6793C31.8402 25.6165 31.8402 25.5327 31.8602 25.3861C31.8602 25.3442 31.8802 25.3232 31.9202 25.3232H32.9402C32.9802 25.3232 33.0002 25.3442 33.0002 25.3861L35.4402 32.4657C35.4602 32.5076 35.4402 32.5495 35.4002 32.5495H34.6002C34.5602 32.5495 34.5402 32.5285 34.5202 32.4866L33.7602 30.2664H31.1002ZM33.5002 29.4286C33.4402 29.261 33.3602 29.0097 33.2602 28.7164C33.1602 28.4022 33.0602 28.0881 32.9402 27.7739C32.8202 27.4387 32.7202 27.1246 32.6202 26.8313C32.5202 26.5171 32.4402 26.2867 32.4002 26.0982H32.3802C32.3402 26.2658 32.2802 26.4962 32.2002 26.7475C32.1202 26.9989 32.0202 27.2921 31.9202 27.5854C31.8202 27.8786 31.7202 28.1928 31.6002 28.5279C31.5002 28.8421 31.3802 29.1563 31.3002 29.4495H33.5002V29.4286Z" fill="white"/>
<path d="M36.3002 28.465C36.3002 28.3603 36.3002 28.2556 36.3002 28.1508C36.3002 28.0252 36.3002 27.9204 36.2802 27.8157C36.2802 27.711 36.2802 27.6063 36.2602 27.5015C36.2602 27.4177 36.2602 27.334 36.2402 27.2921C36.2402 27.2502 36.2602 27.2292 36.3002 27.2292H36.9402C36.9802 27.2292 37.0202 27.2502 37.0402 27.2921C37.0602 27.334 37.0602 27.4177 37.0802 27.5015C37.0802 27.6063 37.1002 27.711 37.1202 27.8367C37.5802 27.3549 38.1002 27.1245 38.7202 27.1245C38.9002 27.1245 39.1002 27.1455 39.3002 27.2083C39.5002 27.2711 39.6802 27.3759 39.8402 27.5225C40.0002 27.6691 40.1402 27.8995 40.2602 28.1718C40.3602 28.4441 40.4202 28.8002 40.4202 29.2191V32.4447C40.4202 32.4866 40.4002 32.5285 40.3402 32.5285H39.6202C39.5802 32.5285 39.5402 32.5075 39.5402 32.4447V29.3238C39.5402 28.9049 39.4602 28.5698 39.2802 28.3184C39.1002 28.0671 38.8402 27.9414 38.4602 27.9414C38.2002 27.9414 37.9602 28.0042 37.7402 28.109C37.5202 28.2137 37.3202 28.3812 37.1602 28.5907V32.4447C37.1602 32.4866 37.1402 32.5285 37.1002 32.5285H36.3602C36.3202 32.5285 36.3002 32.5075 36.3002 32.4447V28.465Z" fill="white"/>
<path d="M45.2403 30.2664L44.5003 32.4657C44.4803 32.5076 44.4603 32.5285 44.4203 32.5285H43.7203C43.6603 32.5285 43.6403 32.5076 43.6603 32.4447L45.9203 25.8259C45.9403 25.784 45.9403 25.7422 45.9603 25.6793C45.9803 25.6165 45.9803 25.5327 46.0003 25.3861C46.0003 25.3442 46.0203 25.3232 46.0603 25.3232H47.0803C47.1203 25.3232 47.1403 25.3442 47.1403 25.3861L49.5803 32.4657C49.6003 32.5076 49.5803 32.5495 49.5403 32.5495H48.7403C48.7003 32.5495 48.6803 32.5285 48.6603 32.4866L47.9003 30.2664H45.2403ZM47.6403 29.4286C47.5803 29.261 47.5003 29.0097 47.4003 28.7164C47.3003 28.4022 47.2003 28.0881 47.0803 27.7739C46.9603 27.4387 46.8603 27.1246 46.7603 26.8313C46.6603 26.5171 46.5803 26.2867 46.5403 26.0982H46.5203C46.4803 26.2658 46.4203 26.4962 46.3403 26.7475C46.2603 26.9989 46.1603 27.2921 46.0603 27.5854C45.9603 27.8786 45.8603 28.1928 45.7403 28.5279C45.6403 28.8421 45.5203 29.1563 45.4403 29.4495H47.6403V29.4286Z" fill="white"/>
<path d="M52.6201 32.6542C52.2601 32.6542 51.9201 32.5913 51.6201 32.4866C51.3001 32.3819 51.0401 32.1934 50.8001 31.9839C50.5601 31.7535 50.3801 31.4812 50.2601 31.1252C50.1201 30.79 50.0601 30.3921 50.0601 29.9522C50.0601 29.5542 50.1201 29.1772 50.2601 28.8421C50.4001 28.507 50.5801 28.2137 50.8401 27.9624C51.0801 27.711 51.3801 27.5225 51.7401 27.3759C52.0801 27.2293 52.4801 27.1664 52.9001 27.1664C53.0401 27.1664 53.16 27.1664 53.26 27.1874C53.36 27.2083 53.46 27.2083 53.56 27.2293V24.7787C53.56 24.7368 53.5801 24.7158 53.6201 24.7158H54.36C54.4 24.7158 54.4201 24.7368 54.4201 24.7787V31.6488C54.4201 31.7326 54.4201 31.8164 54.4201 31.9001C54.4201 31.9839 54.4201 32.0887 54.4401 32.1724C54.4401 32.2143 54.42 32.2353 54.38 32.2562C54.08 32.4028 53.7801 32.5076 53.5001 32.5704C53.2001 32.6123 52.9001 32.6542 52.6201 32.6542ZM53.5401 28.0252C53.4601 27.9833 53.3601 27.9624 53.2401 27.9414C53.1201 27.9205 53 27.9205 52.8601 27.9205C52.5601 27.9205 52.3001 27.9624 52.0601 28.0671C51.8201 28.1718 51.6201 28.2975 51.4601 28.486C51.3001 28.6745 51.1601 28.863 51.0801 29.1144C50.9801 29.3448 50.9401 29.6171 50.9401 29.8894C50.9401 30.2454 50.9801 30.5387 51.0801 30.79C51.1801 31.0414 51.3001 31.2299 51.4801 31.3974C51.6401 31.5441 51.8401 31.6697 52.0401 31.7326C52.2401 31.7954 52.4801 31.8373 52.7001 31.8373C52.8401 31.8373 52.9801 31.8373 53.1401 31.8164C53.2801 31.7954 53.4201 31.7535 53.5401 31.7116V28.0252Z" fill="white"/>
<path d="M57.9 27.1245C58.26 27.1245 58.6 27.1873 58.88 27.334C59.18 27.4806 59.42 27.6691 59.62 27.9204C59.82 28.1718 59.98 28.465 60.1 28.8002C60.22 29.1353 60.26 29.4914 60.26 29.8893C60.26 30.3082 60.2 30.6853 60.08 31.0204C59.96 31.3555 59.8 31.6487 59.6 31.9001C59.4 32.1305 59.14 32.319 58.86 32.4656C58.56 32.5913 58.24 32.6751 57.9 32.6751C57.48 32.6751 57.12 32.5913 56.82 32.4447C56.52 32.2771 56.26 32.0677 56.08 31.8163C55.88 31.565 55.74 31.2508 55.64 30.9366C55.54 30.6015 55.5 30.2663 55.5 29.9312C55.5 29.5542 55.56 29.1772 55.66 28.842C55.78 28.5069 55.94 28.2137 56.14 27.9623C56.34 27.711 56.6 27.5225 56.9 27.3759C57.2 27.2083 57.52 27.1245 57.9 27.1245ZM57.86 27.9204C57.64 27.9204 57.44 27.9623 57.26 28.0671C57.08 28.1718 56.92 28.2975 56.8 28.465C56.68 28.6326 56.58 28.842 56.5 29.0724C56.42 29.3028 56.4 29.5751 56.4 29.8684C56.4 30.1407 56.44 30.413 56.5 30.6434C56.56 30.8947 56.66 31.1042 56.8 31.2717C56.92 31.4602 57.08 31.5859 57.28 31.6906C57.48 31.7954 57.7 31.8373 57.94 31.8373C58.12 31.8373 58.3 31.7954 58.48 31.7325C58.66 31.6487 58.8 31.544 58.94 31.3765C59.08 31.2089 59.18 30.9994 59.28 30.769C59.36 30.5177 59.4 30.2244 59.4 29.8893C59.4 29.638 59.38 29.3866 59.32 29.1562C59.26 28.9258 59.18 28.7164 59.04 28.5279C58.92 28.3394 58.76 28.1927 58.56 28.088C58.36 27.9833 58.12 27.9204 57.86 27.9204Z" fill="white"/>
<path d="M62.1603 24.7158C62.1803 24.7158 62.2004 24.7158 62.2204 24.7158C62.2404 24.7158 62.2404 24.7368 62.2404 24.7787V27.334C62.5804 27.1874 62.9603 27.1246 63.3603 27.1246C63.7203 27.1246 64.0403 27.1874 64.3403 27.3131C64.6403 27.4387 64.8803 27.6272 65.0803 27.8577C65.2803 28.0881 65.4403 28.3603 65.5603 28.6745C65.6803 28.9887 65.7203 29.3238 65.7203 29.7009C65.7203 30.2036 65.6403 30.6225 65.4803 30.9995C65.3203 31.3765 65.1003 31.6697 64.8403 31.9211C64.5803 32.1724 64.2603 32.3609 63.9203 32.4866C63.5803 32.6123 63.2203 32.6751 62.8404 32.6751C62.5804 32.6751 62.3203 32.6542 62.1004 32.6332C61.8604 32.5913 61.6404 32.5494 61.4204 32.4657C61.3804 32.4657 61.3604 32.4238 61.3604 32.3609V24.8205C61.3604 24.7787 61.3804 24.7577 61.4404 24.7577H62.1603V24.7158ZM64.8403 29.7637C64.8403 29.1982 64.7003 28.7583 64.4003 28.4232C64.1003 28.0881 63.7203 27.9205 63.2203 27.9205C63.0003 27.9205 62.8203 27.9414 62.6603 27.9624C62.5003 28.0043 62.3604 28.0462 62.2404 28.109V31.7745C62.3404 31.8164 62.4403 31.8373 62.5603 31.8373C62.6803 31.8582 62.8004 31.8582 62.9403 31.8582C63.1803 31.8582 63.4403 31.8164 63.6603 31.7326C63.9003 31.6488 64.1003 31.5231 64.2803 31.3346C64.4603 31.167 64.6003 30.9366 64.7003 30.6853C64.7803 30.413 64.8403 30.0988 64.8403 29.7637Z" fill="white"/>
<path d="M67.4 29.994C67.4 30.2453 67.44 30.4967 67.5 30.7271C67.56 30.9575 67.68 31.146 67.82 31.3136C67.96 31.4811 68.14 31.6068 68.36 31.7115C68.58 31.8163 68.84 31.8582 69.12 31.8582C69.34 31.8582 69.58 31.8372 69.8 31.7953C70.02 31.7534 70.22 31.6696 70.42 31.5649C70.46 31.544 70.48 31.5649 70.48 31.6068V32.2352C70.48 32.2771 70.46 32.319 70.42 32.3399C70.24 32.4446 70.04 32.5075 69.8 32.5703C69.56 32.6331 69.28 32.6541 68.96 32.6541C68.5 32.6541 68.12 32.5703 67.82 32.4237C67.5 32.2771 67.26 32.0676 67.06 31.7953C66.86 31.544 66.74 31.2507 66.64 30.9156C66.56 30.6014 66.5 30.2663 66.5 29.9312C66.5 29.5541 66.56 29.1981 66.66 28.842C66.76 28.5069 66.92 28.1927 67.12 27.9413C67.32 27.69 67.56 27.4805 67.84 27.3339C68.12 27.1873 68.44 27.1035 68.8 27.1035C69.18 27.1035 69.5 27.1664 69.74 27.313C70 27.4596 70.2 27.6272 70.36 27.8366C70.52 28.0461 70.64 28.2974 70.7 28.5488C70.78 28.8001 70.8 29.0515 70.8 29.2819C70.8 29.4285 70.8 29.5332 70.78 29.6379C70.78 29.7427 70.76 29.8055 70.74 29.8474C70.74 29.8893 70.72 29.9102 70.66 29.9102C70.58 29.9312 70.44 29.9312 70.24 29.9521C70.04 29.9521 69.82 29.9731 69.58 29.9731H67.4V29.994ZM69.36 29.3237C69.62 29.3237 69.78 29.3237 69.88 29.3237C69.96 29.3237 70.02 29.3237 70.04 29.3028C70.04 29.2819 70.06 29.2609 70.06 29.24C70.06 29.219 70.06 29.1981 70.06 29.1771C70.06 29.0724 70.04 28.9677 70 28.8211C69.96 28.6744 69.9 28.5278 69.8 28.3812C69.7 28.2346 69.58 28.1298 69.42 28.0251C69.26 27.9204 69.06 27.8785 68.82 27.8785C68.6 27.8785 68.42 27.9204 68.26 28.0042C68.1 28.088 67.96 28.1927 67.84 28.3184C67.72 28.444 67.64 28.6116 67.56 28.7792C67.5 28.9467 67.46 29.1352 67.42 29.3028H69.36V29.3237Z" fill="white"/>
<path d="M78.98 32.34C78.98 32.4028 78.96 32.4447 78.92 32.4447C78.74 32.5285 78.54 32.5704 78.3 32.6123C78.06 32.6332 77.8 32.6542 77.5 32.6542C77.06 32.6542 76.64 32.5913 76.22 32.4447C75.8 32.2981 75.42 32.0886 75.1 31.7954C74.78 31.5022 74.5 31.1042 74.3 30.6434C74.1 30.1617 74 29.5961 74 28.9259C74 28.3813 74.08 27.8786 74.26 27.4178C74.44 26.957 74.68 26.58 75 26.2448C75.32 25.9307 75.7 25.6793 76.16 25.4908C76.62 25.3023 77.12 25.2185 77.66 25.2185C78.02 25.2185 78.3 25.2395 78.5 25.2813C78.7 25.3232 78.88 25.3651 78.98 25.428C79.02 25.4489 79.04 25.4699 79.04 25.5117V26.2448C79.04 26.2867 79.02 26.3077 78.96 26.3077C78.66 26.1401 78.22 26.0563 77.62 26.0563C77.22 26.0563 76.84 26.1192 76.5 26.2658C76.16 26.3915 75.88 26.6009 75.64 26.8313C75.4 27.0827 75.2 27.3759 75.08 27.732C74.94 28.088 74.88 28.486 74.88 28.9049C74.88 29.4705 74.98 29.9522 75.16 30.3292C75.34 30.7062 75.56 30.9995 75.84 31.2299C76.12 31.4603 76.42 31.6069 76.72 31.6907C77.04 31.7745 77.34 31.8373 77.6 31.8373C77.86 31.8373 78.1 31.8164 78.3 31.7954C78.5 31.7745 78.7 31.7116 78.9 31.6278C78.94 31.6278 78.96 31.6278 78.96 31.6697V32.34H78.98Z" fill="white"/>
<path d="M82.0401 27.1245C82.4001 27.1245 82.7401 27.1873 83.0201 27.334C83.3201 27.4806 83.5601 27.6691 83.7601 27.9204C83.9601 28.1718 84.1201 28.465 84.2401 28.8002C84.3601 29.1353 84.4001 29.4914 84.4001 29.8893C84.4001 30.3082 84.3401 30.6853 84.2201 31.0204C84.1001 31.3555 83.9401 31.6487 83.7401 31.9001C83.5401 32.1305 83.2801 32.319 83.0001 32.4656C82.7001 32.5913 82.3801 32.6751 82.0401 32.6751C81.6201 32.6751 81.2601 32.5913 80.9601 32.4447C80.6601 32.2771 80.4001 32.0677 80.2201 31.8163C80.0201 31.565 79.8801 31.2508 79.7801 30.9366C79.6801 30.6015 79.6401 30.2663 79.6401 29.9312C79.6401 29.5542 79.7001 29.1772 79.8001 28.842C79.9201 28.5069 80.0801 28.2137 80.2801 27.9623C80.4801 27.711 80.7401 27.5225 81.0401 27.3759C81.3401 27.2083 81.6801 27.1245 82.0401 27.1245ZM82.0001 27.9204C81.7801 27.9204 81.5801 27.9623 81.4001 28.0671C81.2201 28.1718 81.0601 28.2975 80.9401 28.465C80.8201 28.6326 80.7201 28.842 80.6401 29.0724C80.5601 29.3028 80.5401 29.5751 80.5401 29.8684C80.5401 30.1407 80.5801 30.413 80.6401 30.6434C80.7001 30.8947 80.8001 31.1042 80.9401 31.2717C81.0601 31.4602 81.2201 31.5859 81.4201 31.6906C81.6201 31.7954 81.8401 31.8373 82.0801 31.8373C82.2601 31.8373 82.4401 31.7954 82.6201 31.7325C82.8001 31.6487 82.9401 31.544 83.0801 31.3765C83.2201 31.2089 83.3201 30.9994 83.4201 30.769C83.5001 30.5177 83.5401 30.2244 83.5401 29.8893C83.5401 29.638 83.5201 29.3866 83.4601 29.1562C83.4001 28.9258 83.3201 28.7164 83.1801 28.5279C83.0601 28.3394 82.9001 28.1927 82.7001 28.088C82.5001 27.9833 82.2801 27.9204 82.0001 27.9204Z" fill="white"/>
<path d="M85.5604 32.5494C85.5204 32.5494 85.5004 32.5285 85.5004 32.4656V28.3812C85.5004 28.1508 85.5004 27.9204 85.4804 27.7319C85.4804 27.5434 85.4604 27.3968 85.4404 27.2921C85.4404 27.2502 85.4604 27.2292 85.5004 27.2292H86.1604C86.2004 27.2292 86.2204 27.2502 86.2404 27.2921C86.2604 27.3549 86.2604 27.4387 86.2804 27.5225C86.3004 27.6272 86.3004 27.711 86.3004 27.8157C86.7604 27.3549 87.2804 27.1245 87.8604 27.1245C88.5004 27.1245 88.9604 27.3968 89.2404 27.9204C89.4604 27.69 89.7204 27.5015 89.9804 27.3549C90.2404 27.2083 90.5804 27.1245 90.9604 27.1245C91.1604 27.1245 91.3604 27.1455 91.5404 27.2083C91.7404 27.2711 91.9204 27.3759 92.0804 27.5434C92.2404 27.69 92.3804 27.9204 92.4804 28.1718C92.5804 28.4441 92.6404 28.7792 92.6404 29.1981V32.4656C92.6404 32.5075 92.6204 32.5285 92.5604 32.5285H91.8404C91.8004 32.5285 91.7604 32.5075 91.7604 32.4447V29.261C91.7604 28.8839 91.6804 28.5698 91.5004 28.3184C91.3404 28.0671 91.0604 27.9204 90.7004 27.9204C90.4404 27.9204 90.2004 27.9833 89.9804 28.088C89.7604 28.1927 89.5804 28.3603 89.4204 28.5488C89.4404 28.6116 89.4404 28.7164 89.4604 28.842C89.4804 28.9677 89.4804 29.1143 89.4804 29.24V32.4447C89.4804 32.4866 89.4604 32.5285 89.4004 32.5285H88.6804C88.6404 32.5285 88.6004 32.5075 88.6004 32.4447V29.2191C88.6004 28.8002 88.5204 28.486 88.3404 28.2556C88.1604 28.0252 87.9004 27.9204 87.5604 27.9204C87.3204 27.9204 87.1004 27.9623 86.9004 28.0671C86.7004 28.1718 86.5004 28.3184 86.3004 28.5279V32.4447C86.3004 32.4866 86.2804 32.5075 86.2404 32.5075H85.5604V32.5494Z" fill="white"/>
<path d="M96.1001 27.1245C96.4801 27.1245 96.8201 27.1873 97.1201 27.313C97.4201 27.4387 97.6801 27.6272 97.8801 27.8576C98.0801 28.088 98.2401 28.3603 98.3601 28.6745C98.4801 28.9887 98.5201 29.3238 98.5201 29.7008C98.5201 30.2035 98.4401 30.6224 98.2601 30.9994C98.0801 31.3765 97.8601 31.6697 97.5801 31.921C97.3001 32.1724 96.9801 32.34 96.6201 32.4656C96.2601 32.5913 95.9001 32.6541 95.5401 32.6541C95.4201 32.6541 95.3201 32.6541 95.2401 32.6332C95.1601 32.6332 95.0801 32.6122 95.0001 32.5913V34.7696C95.0001 34.8115 94.9801 34.8325 94.9401 34.8534C94.8801 34.8534 94.8001 34.8744 94.7201 34.8744C94.6401 34.8744 94.5601 34.8953 94.4801 34.8953C94.4001 34.9163 94.3401 34.9163 94.2801 34.9163C94.2201 34.9163 94.1801 34.9372 94.1801 34.9372C94.1401 34.9372 94.1201 34.9163 94.1201 34.8744V28.088C94.1201 28.0461 94.1201 27.9623 94.1201 27.8576C94.1201 27.7529 94.1201 27.6691 94.1001 27.6063C94.1001 27.5853 94.1001 27.5644 94.1201 27.5644C94.3001 27.5015 94.5601 27.3968 94.9001 27.2921C95.2401 27.1873 95.6601 27.1245 96.1001 27.1245ZM96.0001 27.9204C95.8201 27.9204 95.6401 27.9414 95.4801 27.9623C95.3201 27.9833 95.1601 28.0252 95.0201 28.088V31.7744C95.1201 31.7954 95.2001 31.8163 95.3201 31.8373C95.4201 31.8373 95.5201 31.8582 95.6201 31.8582C95.8601 31.8582 96.1201 31.8163 96.3601 31.7325C96.6001 31.6487 96.8201 31.5231 97.0201 31.3555C97.2201 31.1879 97.3601 30.9575 97.4801 30.7062C97.6001 30.4339 97.6601 30.1197 97.6601 29.7637C97.6601 29.1981 97.5201 28.7583 97.2201 28.4231C96.9201 28.088 96.5201 27.9204 96.0001 27.9204Z" fill="white"/>
<path d="M103.2 31.6068C103.2 31.7115 103.2 31.7953 103.2 31.8791C103.2 31.9629 103.2 32.0467 103.22 32.1304C103.22 32.1514 103.22 32.1723 103.2 32.1723C102.82 32.3608 102.48 32.4865 102.18 32.5494C101.88 32.6122 101.56 32.6331 101.26 32.6331C100.98 32.6331 100.72 32.5912 100.48 32.5284C100.24 32.4656 100.04 32.3399 99.8603 32.2142C99.6803 32.0676 99.5603 31.9 99.4603 31.6906C99.3603 31.4811 99.3203 31.2298 99.3203 30.9365C99.3203 30.6433 99.3803 30.392 99.5003 30.1825C99.6203 29.9731 99.7803 29.8055 100 29.6589C100.2 29.5123 100.46 29.4285 100.74 29.3447C101.02 29.2819 101.32 29.24 101.66 29.24C101.86 29.24 102 29.24 102.12 29.24C102.24 29.24 102.32 29.24 102.38 29.2609V29.0096C102.38 28.9258 102.36 28.8211 102.34 28.6954C102.32 28.5697 102.26 28.444 102.18 28.3393C102.1 28.2346 101.98 28.1298 101.82 28.0461C101.66 27.9623 101.46 27.9204 101.2 27.9204C100.96 27.9204 100.72 27.9413 100.48 28.0042C100.26 28.067 100.06 28.1508 99.8803 28.2346C99.8403 28.2555 99.8003 28.2346 99.8003 28.1717V27.5015C99.8003 27.4596 99.8203 27.4386 99.8603 27.4177C100.06 27.313 100.28 27.2292 100.54 27.1873C100.8 27.1454 101.06 27.1035 101.34 27.1035C101.68 27.1035 101.96 27.1664 102.2 27.2711C102.44 27.3758 102.64 27.5224 102.78 27.7109C102.92 27.8994 103.04 28.1089 103.12 28.3602C103.2 28.6116 103.22 28.8629 103.22 29.1562V31.6068H103.2ZM102.36 30.0149C102.28 29.994 102.18 29.994 102.08 29.9731C101.96 29.9731 101.84 29.9521 101.68 29.9521C101.18 29.9521 100.8 30.0359 100.56 30.2035C100.32 30.371 100.2 30.6224 100.2 30.9156C100.2 31.0413 100.22 31.167 100.26 31.2717C100.3 31.3974 100.38 31.5021 100.48 31.5859C100.58 31.6696 100.7 31.7534 100.86 31.7953C101.02 31.8582 101.2 31.8791 101.44 31.8791C101.78 31.8791 102.1 31.8163 102.38 31.6906V30.0149H102.36Z" fill="white"/>
<path d="M104.66 28.465C104.66 28.3603 104.66 28.2556 104.66 28.1508C104.66 28.0252 104.66 27.9204 104.64 27.8157C104.64 27.711 104.64 27.6063 104.62 27.5015C104.62 27.4177 104.62 27.334 104.6 27.2921C104.6 27.2502 104.62 27.2292 104.66 27.2292H105.3C105.34 27.2292 105.38 27.2502 105.4 27.2921C105.42 27.334 105.42 27.4177 105.44 27.5015C105.44 27.6063 105.46 27.711 105.48 27.8367C105.94 27.3549 106.46 27.1245 107.08 27.1245C107.26 27.1245 107.46 27.1455 107.66 27.2083C107.86 27.2711 108.04 27.3759 108.2 27.5225C108.36 27.6691 108.5 27.8995 108.62 28.1718C108.72 28.4441 108.78 28.8002 108.78 29.2191V32.4447C108.78 32.4866 108.76 32.5285 108.7 32.5285H107.98C107.94 32.5285 107.9 32.5075 107.9 32.4447V29.3238C107.9 28.9049 107.82 28.5698 107.64 28.3184C107.46 28.0671 107.2 27.9414 106.82 27.9414C106.56 27.9414 106.32 28.0042 106.1 28.109C105.88 28.2346 105.68 28.3812 105.52 28.5907V32.4447C105.52 32.4866 105.5 32.5285 105.46 32.5285H104.72C104.68 32.5285 104.66 32.5075 104.66 32.4447V28.465Z" fill="white"/>
<path d="M110.34 27.2502C110.38 27.2502 110.4 27.2712 110.42 27.3131C110.64 27.9205 110.82 28.4441 110.98 28.9049C111.14 29.3657 111.28 29.7637 111.4 30.0988C111.52 30.434 111.62 30.7063 111.68 30.9367C111.76 31.1671 111.8 31.3346 111.84 31.4603C112 30.9576 112.2 30.3711 112.42 29.7218C112.64 29.0725 112.92 28.2766 113.24 27.334C113.26 27.2921 113.28 27.2712 113.32 27.2712H114.06C114.1 27.2712 114.12 27.2921 114.1 27.355C113.9 27.9414 113.7 28.5489 113.48 29.1982C113.26 29.8265 113.02 30.4759 112.78 31.1252C112.54 31.7745 112.28 32.4028 112.04 33.0312C111.78 33.6596 111.54 34.267 111.28 34.8535C111.26 34.8954 111.22 34.9163 111.16 34.9373L110.38 35.0001C110.34 35.0001 110.32 34.9791 110.34 34.9163C110.5 34.5812 110.66 34.2042 110.84 33.7853C111.02 33.3663 111.2 32.9474 111.38 32.5076C111.4 32.4657 111.4 32.4238 111.38 32.361C111.34 32.2562 111.28 32.0887 111.2 31.8792C111.12 31.6698 111.02 31.4184 110.92 31.1461C110.82 30.8738 110.7 30.5806 110.58 30.2455C110.46 29.9313 110.32 29.5961 110.2 29.261C110.08 28.9259 109.94 28.5908 109.82 28.2766C109.7 27.9414 109.58 27.6482 109.48 27.355C109.46 27.3131 109.48 27.2921 109.54 27.2921H110.34V27.2502Z" fill="white"/>
<path d="M15.5 0V26.9988L22.08 21.4901V3.74925L15.5 0Z" fill="white"/>
<path d="M12.4401 21.1131L7.1001 23.5428V2.32495L12.4401 3.97965V21.1131Z" fill="white"/>
<path d="M0 20.4847L4.04 19.3746V5.82285L0 5.15259V20.4847Z" fill="white"/>
<path d="M43.8 3.74927L38.18 13.4052L32.5 3.74927H29.5V21.4901H32.32V8.52485L38.12 18.2855L43.92 8.46201V21.4901H46.74V3.74927H43.8Z" fill="white"/>
<path d="M56.2198 21.4901L56.1998 19.8982C55.3598 21.1968 53.9798 21.8042 52.4998 21.8042C50.3398 21.8042 48.8398 20.3381 48.8398 18.2226C48.8398 15.9186 50.2398 14.5361 53.0398 14.0963L56.1198 13.5936V13.3841C56.1198 12.0646 55.1798 11.3315 53.5598 11.3315C51.9998 11.3315 50.6798 12.0227 49.5398 13.1118V10.2423C50.5798 9.3626 52.0198 8.77612 53.7598 8.77612C57.0798 8.77612 58.8798 10.5565 58.8798 13.5098V21.4901H56.2198ZM53.1798 19.4165C54.9198 19.4165 56.1398 18.2226 56.1398 16.526V15.8348L53.4998 16.2956C52.2198 16.526 51.5598 17.1124 51.5598 17.9922C51.5798 18.8928 52.2198 19.4165 53.1798 19.4165Z" fill="white"/>
<path d="M68.1598 11.8762C68.0398 11.7924 67.7998 11.7714 67.4398 11.7714C65.3798 11.7714 64.1198 13.4471 64.1198 16.0024V21.4902H61.3398V9.06946H64.0998V11.2059C64.6798 9.76066 66.0798 8.81812 67.6398 8.81812C67.9598 8.81812 68.1198 8.83906 68.1798 8.9019V11.8762H68.1598Z" fill="white"/>
<path d="M69.96 3.74927V21.4901H72.74V16.5679L73.36 15.9815L77.6 21.4901H81.0399L75.48 14.4734L80.6399 9.06943H77.2L72.74 13.7612V3.74927H69.96Z" fill="white"/>
<path d="M91.5801 20.4847C90.3401 21.3016 88.7801 21.8042 87.0001 21.8042C83.0801 21.8042 80.6001 19.0185 80.6001 15.2692C80.6001 11.5409 83.0801 8.77612 86.5601 8.77612C90.0201 8.77612 92.2601 11.52 92.2601 15.1855C92.2601 15.5834 92.2601 15.8138 92.1801 16.1908H83.3801C83.6001 17.9084 84.9601 19.2908 87.1801 19.2908C88.6801 19.2908 90.1401 18.7253 91.5601 17.6151V20.4847H91.5801ZM89.5201 14.0125C89.3601 12.3159 88.1801 11.143 86.5201 11.143C84.8201 11.143 83.5801 12.5463 83.4001 14.0125H89.5201Z" fill="white"/>
<path d="M99.3201 19.1023C99.7801 19.1023 100.26 18.9975 100.62 18.7252V21.3434C100.16 21.6157 99.4601 21.8042 98.4801 21.8042C96.0801 21.8042 94.6801 20.2752 94.6801 17.678V11.5619H92.6001L97.5001 5.02686V9.06934H100.64V11.5619H97.5001V17.1334C97.4801 18.5367 98.0601 19.1023 99.3201 19.1023Z" fill="white"/>
<path d="M114.12 15.2902C114.12 18.9347 111.44 21.8042 107.8 21.8042C104.16 21.8042 101.48 18.9347 101.48 15.2902C101.48 11.6457 104.16 8.77612 107.8 8.77612C111.44 8.77612 114.12 11.6247 114.12 15.2902ZM104.26 15.2902C104.26 17.4266 105.82 19.1232 107.8 19.1232C109.78 19.1232 111.34 17.4266 111.34 15.2902C111.34 13.1537 109.78 11.4572 107.8 11.4572C105.82 11.4572 104.26 13.1537 104.26 15.2902Z" fill="white"/>
<path d="M114.2 6.5769H116.34V7.05865H115.52V9.6559H115V7.05865H114.2V6.5769Z" fill="white"/>
<path d="M117.48 7.41473V9.67684H116.98V6.5769H117.5L118.5 8.14782L119.48 6.5769H120V9.67684H119.52V7.41473L118.64 8.81808H118.4L117.48 7.41473Z" fill="white"/>
</svg>
