<svg width="16" height="20" viewBox="0 0 16 20" fill="none" xmlns="http://www.w3.org/2000/svg">
<path d="M7.50596 9.84336e-06C5.63824 -0.00301562 3.83675 0.691487 2.45435 1.94759C1.07204 3.20352 0.208622 4.93054 0.0331063 6.79008C-0.142203 8.64958 0.383053 10.5076 1.50599 12L7.50596 20L13.5059 12C14.6289 10.5076 15.1542 8.64967 14.9788 6.79008C14.8033 4.93058 13.9399 3.20352 12.5576 1.94759C11.1751 0.69153 9.3736 -0.00300219 7.50596 9.84336e-06ZM12.7349 11.4216L7.50596 18.3855L2.27707 11.3975C1.30423 10.0969 0.850873 8.48048 1.00552 6.86357C1.16033 5.2468 1.91197 3.74582 3.11394 2.65327C4.31592 1.56089 5.88174 0.955642 7.50592 0.955642C9.13009 0.955642 10.696 1.56089 11.8979 2.65327C13.0999 3.74582 13.8515 5.24676 14.0063 6.86357C14.161 8.48035 13.7076 10.0968 12.7348 11.3975L12.7349 11.4216Z" fill="#1E4BBE"/>
<path d="M7.50605 3.59033C6.47081 3.59033 5.47779 4.00163 4.74582 4.73361C4.01381 5.4658 3.60254 6.45865 3.60254 7.49401C3.60254 8.52925 4.01384 9.5221 4.74582 10.2542C5.47783 10.9863 6.47086 11.3975 7.50605 11.3975C8.54124 11.3975 9.53431 10.9862 10.2663 10.2542C10.9983 9.52206 11.4096 8.52921 11.4096 7.49401C11.4096 6.45865 10.9983 5.46575 10.2663 4.73361C9.53427 4.0016 8.54124 3.59033 7.50605 3.59033ZM7.50605 10.4337C6.72632 10.4337 5.97869 10.1241 5.42736 9.57275C4.87603 9.02143 4.56626 8.27366 4.56626 7.49406C4.56626 6.71433 4.87604 5.96653 5.42736 5.41524C5.97868 4.86395 6.72632 4.55431 7.50605 4.55431C8.28578 4.55431 9.03341 4.86392 9.58474 5.41524C10.1361 5.96656 10.4458 6.71433 10.4458 7.49406C10.4458 8.27361 10.1361 9.02142 9.58474 9.57275C9.03342 10.1241 8.28578 10.4337 7.50605 10.4337Z" fill="#1E4BBE"/>
</svg>
