<svg width="20" height="20" viewBox="0 0 20 20" fill="none" xmlns="http://www.w3.org/2000/svg">
<path d="M10 0C4.48611 0 0 4.48611 0 10C0 15.5139 4.48611 20 10 20C15.5139 20 20 15.5139 20 10C20 4.48611 15.5139 0 10 0ZM10 18.8889C5.09881 18.8889 1.11111 14.9012 1.11111 10C1.11111 5.09881 5.09881 1.11111 10 1.11111C14.9012 1.11111 18.8889 5.09881 18.8889 10C18.8889 14.9012 14.9012 18.8889 10 18.8889Z" fill="#1E4BBE"/>
<path d="M14.731 4.48418L10.0004 9.21474L6.60668 5.82081C6.38982 5.60364 6.03779 5.60364 5.82108 5.82081C5.60391 6.03767 5.60391 6.38954 5.82108 6.6064L9.60783 10.3932C9.71603 10.5017 9.85817 10.5559 10.0005 10.5559C10.1428 10.5559 10.2849 10.5017 10.3934 10.3933L15.5164 5.27029C15.7336 5.05343 15.7336 4.70156 15.5164 4.48469C15.2996 4.26752 14.9475 4.26752 14.7308 4.48438L14.731 4.48418Z" fill="#1E4BBE"/>
<path d="M9.99989 3.55011C10.3068 3.55011 10.5554 3.30148 10.5554 2.99456V2.12587C10.5554 1.81895 10.3068 1.57031 9.99989 1.57031C9.69297 1.57031 9.44434 1.81895 9.44434 2.12587V2.99456C9.44434 3.30132 9.69297 3.55011 9.99989 3.55011Z" fill="#1E4BBE"/>
<path d="M9.99989 16.4053C9.69297 16.4053 9.44434 16.6539 9.44434 16.9608V17.8295C9.44434 18.1364 9.69297 18.3851 9.99989 18.3851C10.3068 18.3851 10.5554 18.1364 10.5554 17.8295V16.9608C10.5554 16.6539 10.3068 16.4053 9.99989 16.4053Z" fill="#1E4BBE"/>
<path d="M16.9833 10.5335H17.852C18.1589 10.5335 18.4075 10.2848 18.4075 9.97792C18.4075 9.671 18.1589 9.42236 17.852 9.42236H16.9833C16.6764 9.42236 16.4277 9.671 16.4277 9.97792C16.4277 10.2847 16.6765 10.5335 16.9833 10.5335Z" fill="#1E4BBE"/>
<path d="M3.01702 9.42236H2.14833C1.84141 9.42236 1.59277 9.671 1.59277 9.97792C1.59277 10.2848 1.84141 10.5335 2.14833 10.5335H3.01702C3.32394 10.5335 3.57257 10.2848 3.57257 9.97792C3.57257 9.671 3.32379 9.42236 3.01702 9.42236Z" fill="#1E4BBE"/>
</svg>
