<svg width="20" height="20" viewBox="0 0 20 20" fill="none" xmlns="http://www.w3.org/2000/svg">
<path d="M18.1396 17.6222C18.992 16.7473 18.992 15.5808 18.1396 14.7285L15.8065 12.3956C15.4028 11.9693 14.9093 11.7451 14.3708 11.7451C13.8549 11.7451 13.3614 11.9695 12.9352 12.3956L11.5892 13.7416C11.477 13.6743 11.3648 13.6294 11.2527 13.5621C11.0956 13.4949 10.9611 13.405 10.8265 13.3378C9.57031 12.5525 8.42614 11.4982 7.34943 10.1748C6.81102 9.50175 6.45222 8.94094 6.20542 8.35778C6.54185 8.04373 6.87843 7.70732 7.19249 7.39327C7.30468 7.28107 7.43925 7.1465 7.55144 7.03431C7.97769 6.60806 8.22445 6.09215 8.22445 5.57629C8.22445 5.06043 8.00006 4.56688 7.55144 4.11827L6.40731 2.95159C6.27274 2.81702 6.13817 2.68245 6.02598 2.54789C5.77922 2.27875 5.51008 2.00947 5.24077 1.76267C4.83707 1.35897 4.34356 1.13457 3.82749 1.13457C3.31159 1.13457 2.81808 1.35896 2.39182 1.76267L0.933803 3.2207C0.395387 3.75911 0.081334 4.40961 0.014037 5.17227C-0.0756242 6.40609 0.283177 7.55006 0.552453 8.31271C1.22546 10.1522 2.25727 11.8794 3.78275 13.7189C5.64463 15.9397 7.86543 17.667 10.4003 18.9008C11.3648 19.3719 12.6659 19.9102 14.1241 20H14.3932C15.3577 20 16.1879 19.641 16.8159 18.9457L16.8383 18.9233C17.0627 18.6542 17.3095 18.4074 17.5786 18.1606C17.7806 18.0037 17.9601 17.8242 18.1395 17.6222L18.1396 17.6222ZM16.8159 17.3754C16.5468 17.6445 16.2551 17.9138 16.0084 18.2279C15.5821 18.699 15.0662 18.9009 14.4156 18.9009H14.2137C12.9577 18.7887 11.7912 18.3177 10.8938 17.8915C8.49362 16.725 6.40733 15.0874 4.65761 13.0012C3.22194 11.2739 2.25727 9.65877 1.60681 7.93152C1.20311 6.8772 1.06839 6.04724 1.13565 5.28458C1.18056 4.79107 1.38241 4.38737 1.71885 4.02841L3.15452 2.59274C3.35637 2.39089 3.58077 2.2787 3.80498 2.2787C4.07412 2.2787 4.29849 2.4358 4.45543 2.59274C4.72457 2.83951 4.94895 3.08625 5.21809 3.3554L6.7658 4.90311C6.99019 5.1275 7.10222 5.35172 7.10222 5.57612C7.10222 5.80051 6.99003 6.02473 6.7658 6.24913L6.40685 6.60809C6.0479 6.96704 5.71149 7.30345 5.35253 7.64005L5.33016 7.66243C4.9712 8.02138 5.03849 8.38034 5.10577 8.60459C5.10577 8.62696 5.10577 8.62696 5.12814 8.6495C5.41981 9.36741 5.84606 10.0628 6.49652 10.8703C7.66304 12.306 8.89686 13.4276 10.2427 14.2801C10.4222 14.3923 10.6017 14.4819 10.7586 14.5718C10.9157 14.639 11.0503 14.7289 11.1849 14.7961C11.2072 14.7961 11.2072 14.8185 11.2298 14.8185C11.3644 14.8858 11.4989 14.9307 11.6335 14.9307C11.9699 14.9307 12.1943 14.7063 12.2616 14.639L13.7196 13.181C13.8542 13.0465 14.1009 12.867 14.3701 12.867C14.6392 12.867 14.8412 13.0465 14.9982 13.181L17.3311 15.5139C17.8695 16.0523 17.6227 16.5459 17.3087 16.8599C17.1749 17.0391 16.9954 17.1962 16.8159 17.3755L16.8159 17.3754ZM10.3554 4.07304C10.4003 3.75899 10.6918 3.55713 11.0059 3.62443C12.3519 3.84882 13.5632 4.4769 14.5278 5.46396C15.4923 6.45102 16.1206 7.66229 16.3674 8.98592C16.4123 9.29996 16.2103 9.59163 15.9188 9.63637H15.8291C15.56 9.63637 15.3132 9.43452 15.2683 9.16522C15.0888 8.06599 14.5504 7.03418 13.743 6.24897C12.9354 5.44141 11.926 4.9255 10.8267 4.72365C10.49 4.67874 10.2882 4.38708 10.3554 4.07304H10.3554ZM18.8797 9.00815C18.5433 7.03406 17.601 5.2396 16.1879 3.80385C14.7522 2.36818 12.9576 1.44841 10.9836 1.11201C10.6695 1.0671 10.4677 0.775588 10.535 0.461551C10.6022 0.147506 10.8714 -0.0543525 11.1854 0.0129445C13.3614 0.371898 15.3803 1.40371 16.973 2.99644C18.5657 4.58922 19.6199 6.60805 19.9789 8.80642C20.0238 9.12046 19.8217 9.41213 19.5302 9.45688H19.4406C19.1713 9.47941 18.9245 9.2774 18.8798 9.00827L18.8797 9.00815Z" fill="#1E4BBE"/>
</svg>
