<svg width="20" height="20" viewBox="0 0 20 20" fill="none" xmlns="http://www.w3.org/2000/svg">
<g clip-path="url(#clip0_38_3093)">
<path d="M11.8323 10.017L19.6199 2.2292C20.1267 1.72263 20.1267 0.903582 19.6199 0.397015C19.1134 -0.109552 18.2943 -0.109552 17.7878 0.397015L9.9999 8.18485L2.21229 0.397015C1.70548 -0.109552 0.886671 -0.109552 0.380103 0.397015C-0.126701 0.903582 -0.126701 1.72263 0.380103 2.2292L8.16772 10.017L0.380103 17.8049C-0.126701 18.3114 -0.126701 19.1305 0.380103 19.6371C0.632557 19.8897 0.964495 20.0167 1.2962 20.0167C1.6279 20.0167 1.9596 19.8897 2.21229 19.6371L9.9999 11.8492L17.7878 19.6371C18.0404 19.8897 18.3721 20.0167 18.7038 20.0167C19.0355 20.0167 19.3672 19.8897 19.6199 19.6371C20.1267 19.1305 20.1267 18.3114 19.6199 17.8049L11.8323 10.017Z" fill="#333333"/>
</g>
<defs>
<clipPath id="clip0_38_3093">
<rect width="20" height="20" fill="white"/>
</clipPath>
</defs>
</svg>
