<svg width="20" height="14" viewBox="0 0 20 14" fill="none" xmlns="http://www.w3.org/2000/svg">
<path d="M1.9048 0C0.848041 0 0 0.888857 0 1.95675V11.8449C0 12.9128 0.847998 13.8091 1.9048 13.8091H18.0952C19.152 13.8091 20 12.9128 20 11.8449V1.95675C20 0.888857 19.1522 0 18.0952 0H1.9048ZM1.9048 0.952292H18.0952C18.2349 0.952292 18.3701 0.986338 18.4895 1.04164L10.6175 8.32563C10.2538 8.66211 9.76915 8.66211 9.40478 8.32563L1.51791 1.04164C1.63583 0.988167 1.76753 0.952292 1.90488 0.952292H1.9048ZM0.967257 1.83018L6.55524 6.99385L1.07142 12.3289C0.999013 12.1859 0.952343 12.0239 0.952343 11.8452V1.95709C0.952343 1.91341 0.96264 1.87256 0.96729 1.83054L0.967257 1.83018ZM19.0327 1.83749C19.037 1.87701 19.0474 1.91538 19.0474 1.95657V11.8447C19.0474 12.0196 19.0054 12.18 18.9358 12.3208L13.4673 6.98584L19.0328 1.83705L19.0327 1.83749ZM12.775 7.62615L18.1245 12.8566H18.0948H1.90436C1.89672 12.8566 1.88958 12.8567 1.88194 12.8566L7.25394 7.63338L8.757 9.02483C9.4635 9.67737 10.558 9.67835 11.2645 9.02483L12.775 7.62615Z" fill="white"/>
</svg>
