<svg width="64" height="88" viewBox="0 0 64 88" fill="none" xmlns="http://www.w3.org/2000/svg">
<path d="M32.9759 0.0183415C14.8694 -0.583921 0 13.7235 0 31.4585C0 51.5857 19.5698 66.1926 30.5386 87.1994C31.0955 88.2659 32.6511 88.2673 33.2099 87.2009C43.1328 68.2991 60.0924 55.6244 63.2354 37.4146C66.4896 18.5711 52.3318 0.662411 32.9759 0.0183415Z" fill="#1E4BBE"/>
<path d="M16.37 32.554L13.928 35.062V39H11.068V23.6H13.928V31.498L21.54 23.6H24.752L18.284 30.486L25.148 39H21.804L16.37 32.554ZM33.0048 39.22C31.4501 39.22 30.0421 38.8827 28.7808 38.208C27.5341 37.5187 26.5514 36.5727 25.8328 35.37C25.1288 34.1673 24.7768 32.8107 24.7768 31.3C24.7768 29.7893 25.1361 28.4327 25.8548 27.23C26.5734 26.0273 27.5561 25.0887 28.8028 24.414C30.0641 23.7247 31.4721 23.38 33.0268 23.38C34.2881 23.38 35.4394 23.6 36.4808 24.04C37.5221 24.48 38.4021 25.118 39.1208 25.954L37.2728 27.692C36.1581 26.4893 34.7868 25.888 33.1588 25.888C32.1028 25.888 31.1568 26.1227 30.3208 26.592C29.4848 27.0467 28.8321 27.6847 28.3628 28.506C27.8934 29.3273 27.6588 30.2587 27.6588 31.3C27.6588 32.3413 27.8934 33.2727 28.3628 34.094C28.8321 34.9153 29.4848 35.5607 30.3208 36.03C31.1568 36.4847 32.1028 36.712 33.1588 36.712C34.7868 36.712 36.1581 36.1033 37.2728 34.886L39.1208 36.646C38.4021 37.482 37.5148 38.12 36.4588 38.56C35.4174 39 34.2661 39.22 33.0048 39.22ZM45.8892 39.22C44.7012 39.22 43.5499 39.0513 42.4352 38.714C41.3352 38.3767 40.4625 37.9293 39.8172 37.372L40.8072 35.15C41.4379 35.6487 42.2079 36.0593 43.1172 36.382C44.0412 36.69 44.9652 36.844 45.8892 36.844C47.0332 36.844 47.8839 36.6607 48.4412 36.294C49.0132 35.9273 49.2992 35.4433 49.2992 34.842C49.2992 34.402 49.1379 34.0427 48.8152 33.764C48.5072 33.4707 48.1112 33.2433 47.6272 33.082C47.1432 32.9207 46.4832 32.7373 45.6472 32.532C44.4739 32.2533 43.5205 31.9747 42.7872 31.696C42.0685 31.4173 41.4452 30.9847 40.9172 30.398C40.4039 29.7967 40.1472 28.99 40.1472 27.978C40.1472 27.1273 40.3745 26.3573 40.8292 25.668C41.2985 24.964 41.9952 24.4067 42.9192 23.996C43.8579 23.5853 45.0019 23.38 46.3512 23.38C47.2899 23.38 48.2139 23.4973 49.1232 23.732C50.0325 23.9667 50.8172 24.304 51.4772 24.744L50.5752 26.966C49.9005 26.57 49.1965 26.2693 48.4632 26.064C47.7299 25.8587 47.0185 25.756 46.3292 25.756C45.1999 25.756 44.3565 25.9467 43.7992 26.328C43.2565 26.7093 42.9852 27.2153 42.9852 27.846C42.9852 28.286 43.1392 28.6453 43.4472 28.924C43.7699 29.2027 44.1732 29.4227 44.6572 29.584C45.1412 29.7453 45.8012 29.9287 46.6372 30.134C47.7812 30.398 48.7199 30.6767 49.4532 30.97C50.1865 31.2487 50.8099 31.6813 51.3232 32.268C51.8512 32.8547 52.1152 33.6467 52.1152 34.644C52.1152 35.4947 51.8805 36.2647 51.4112 36.954C50.9565 37.6433 50.2599 38.1933 49.3212 38.604C48.3825 39.0147 47.2385 39.22 45.8892 39.22Z" fill="white"/>
</svg>
