<svg width="40" height="40" viewBox="0 0 40 40" fill="none" xmlns="http://www.w3.org/2000/svg">
<g clip-path="url(#clip0_38_783)">
<path d="M1.24145 21.4469C0.767142 21.4469 0.387695 21.0674 0.387695 20.5931C0.387695 20.1188 0.775047 19.7394 1.24145 19.7394H33.8502C35.0359 19.7394 36.1505 19.2809 36.9885 18.435C37.8264 17.5971 38.2928 16.4824 38.2928 15.2967C38.2928 14.1109 37.8343 12.9963 36.9885 12.1583C36.1505 11.3204 35.0359 10.854 33.8502 10.854C32.6644 10.854 31.5498 11.3125 30.7118 12.1583C29.8739 13.0042 29.4075 14.1109 29.4075 15.2967C29.4075 15.771 29.028 16.1504 28.5537 16.1504C28.0794 16.1504 27.7 15.7631 27.7 15.2967C27.7 13.6524 28.3403 12.1109 29.5023 10.9489C30.6644 9.7868 32.2059 9.14648 33.8502 9.14648C35.4944 9.14648 37.0359 9.7868 38.198 10.9489C39.36 12.1109 40.0004 13.6524 40.0004 15.2967C40.0004 16.9409 39.36 18.4824 38.198 19.6445C37.0359 20.8066 35.4944 21.4469 33.8502 21.4469H1.24145V21.4469Z" fill="#1E4BBE"/>
<path d="M0.853755 16.3004C0.379447 16.3004 0 15.913 0 15.4466C0 14.9802 0.387352 14.5929 0.853755 14.5929H20.0474C21.2332 14.5929 22.3478 14.1344 23.1858 13.2885C24.0237 12.4506 24.4901 11.336 24.4901 10.1502C24.4901 8.96443 24.0316 7.8498 23.1858 7.01186C22.3478 6.17391 21.2332 5.70751 20.0474 5.70751C18.8617 5.70751 17.747 6.16601 16.9091 7.01186C16.0711 7.85771 15.6047 8.96443 15.6047 10.1502C15.6047 10.6245 15.2253 11.004 14.751 11.004C14.2767 11.004 13.8972 10.6166 13.8972 10.1502C13.8972 8.50593 14.5375 6.96443 15.6996 5.80237C16.8617 4.64032 18.4032 4 20.0474 4C21.6917 4 23.2332 4.64032 24.3953 5.80237C25.5573 6.96443 26.1976 8.50593 26.1976 10.1502C26.1976 11.7945 25.5573 13.336 24.3953 14.498C23.2332 15.6601 21.6917 16.3004 20.0474 16.3004H0.853755V16.3004Z" fill="#1E4BBE"/>
<path d="M20.0474 36.5138C18.4032 36.5138 16.8617 35.8735 15.6996 34.7114C14.5375 33.5493 13.8972 32.0078 13.8972 30.3636C13.8972 29.8893 14.2846 29.5098 14.751 29.5098C15.2253 29.5098 15.6047 29.8972 15.6047 30.3636C15.6047 31.5493 16.0632 32.664 16.9091 33.5019C17.747 34.3399 18.8617 34.8063 20.0474 34.8063C21.2332 34.8063 22.3478 34.3478 23.1858 33.5019C24.0237 32.664 24.4901 31.5493 24.4901 30.3636C24.4901 29.1778 24.0316 28.0632 23.1858 27.2252C22.3478 26.3873 21.2332 25.9209 20.0474 25.9209H0.853755C0.379447 25.9209 0 25.5335 0 25.0671C0 24.6007 0.387352 24.2134 0.853755 24.2134H20.0474C21.6917 24.2134 23.2332 24.8537 24.3953 26.0158C25.5573 27.1778 26.1976 28.7193 26.1976 30.3636C26.1976 32.0078 25.5573 33.5493 24.3953 34.7114C23.2332 35.8735 21.6917 36.5138 20.0474 36.5138Z" fill="#1E4BBE"/>
</g>
<defs>
<clipPath id="clip0_38_783">
<rect width="40" height="40" fill="white"/>
</clipPath>
</defs>
</svg>
