<svg width="40" height="40" viewBox="0 0 40 40" fill="none" xmlns="http://www.w3.org/2000/svg">
<g clip-path="url(#clip0_262_1208)">
<path d="M21.3834 11.8378L20.7366 10.9941L20.0897 11.8378C19.7413 12.3019 11.6816 23.1438 11.6816 28.4172C11.6816 33.9015 15.7114 38.3732 20.6866 38.3732C25.6618 38.3732 29.6916 33.9015 29.6916 28.4172C29.7419 23.1862 21.682 12.3019 21.3835 11.8378H21.3834ZM20.7366 37.1076C16.6072 37.1076 13.2242 33.2265 13.2242 28.4172C13.2242 24.3251 18.8462 16.0987 20.7366 13.3987C22.6272 16.0987 28.2489 24.3673 28.2489 28.4172C28.2493 33.2265 24.866 37.1076 20.7366 37.1076Z" fill="#1E4BBE"/>
<path d="M15.6612 28.5438C15.6612 28.2063 15.3128 27.9111 14.9151 27.9111C14.517 27.9111 14.1689 28.2066 14.1689 28.5438C14.1689 30.8217 15.1143 32.889 16.7561 34.0702C16.9053 34.1547 17.0546 34.2388 17.2538 34.2388C17.4526 34.2388 17.6518 34.1544 17.801 34.0278C18.0499 33.7748 18.0499 33.3528 17.7514 33.1418C16.4573 32.1718 15.6612 30.4421 15.6612 28.5438L15.6612 28.5438Z" fill="#1E4BBE"/>
<path d="M19.5427 33.8591C19.3935 33.8591 19.3935 33.8591 19.2443 33.8171L19.0951 33.775C18.697 33.6905 18.299 33.9015 18.1997 34.2391C18.1001 34.5766 18.3489 34.9141 18.747 34.9983L18.8962 35.0403C19.145 35.0824 19.2943 35.1248 19.6423 35.1248C20.0404 35.1248 20.3885 34.8294 20.3885 34.4921C20.3885 34.1546 19.9904 33.8591 19.5427 33.8591H19.5427Z" fill="#1E4BBE"/>
<path d="M39.8413 12.5973C39.8413 9.26467 34.8165 2.47246 34.6173 2.17716L33.9705 1.3335L33.3236 2.17716C33.1247 2.47261 28.0996 9.26437 28.0996 12.5973C28.0996 16.1409 30.7364 19.0097 33.9701 19.0097C37.2045 19.0094 39.8413 16.1409 39.8413 12.5973H39.8413ZM33.9705 17.7438C31.5825 17.7438 29.5923 15.4234 29.5923 12.597C29.5923 10.4455 32.3287 6.05796 33.9705 3.73776C35.6123 6.05811 38.3487 10.4454 38.3487 12.597C38.3487 15.4237 36.4084 17.7438 33.9705 17.7438V17.7438Z" fill="#1E4BBE"/>
<path d="M31.7316 12.2174C31.7316 11.9643 31.5328 11.7954 31.234 11.7954C30.9355 11.7954 30.7363 11.964 30.7363 12.2174C30.7363 13.6096 31.3332 14.9173 32.3781 15.6769C32.4777 15.7613 32.577 15.7613 32.7265 15.7613C32.8758 15.7613 33.025 15.7192 33.1246 15.6348C33.3235 15.4662 33.2738 15.2128 33.075 15.0442C32.2292 14.4533 31.7316 13.3566 31.7316 12.2174L31.7316 12.2174Z" fill="#1E4BBE"/>
<path d="M6.20893 7.36612L5.56206 6.52246L4.91519 7.36612C4.76631 7.66128 -0.15918 14.2847 -0.15918 17.5753C-0.15918 21.0348 2.42798 23.8612 5.61206 23.8612C8.79614 23.8612 11.3833 21.0347 11.3833 17.5753C11.3333 14.2847 6.40817 7.66143 6.20899 7.36612H6.20893ZM5.56241 22.5533C3.2241 22.5533 1.28379 20.3174 1.28379 17.533C1.28379 15.4237 3.97019 11.205 5.56241 8.92695C7.15463 11.2049 9.84102 15.466 9.84102 17.533C9.84102 20.3171 7.95038 22.5533 5.56241 22.5533Z" fill="#1E4BBE"/>
<path d="M3.42304 17.1534C3.42304 16.9004 3.22419 16.7314 2.92539 16.7314C2.62694 16.7314 2.42773 16.9001 2.42773 17.1534C2.42773 18.5456 3.02464 19.8113 4.01995 20.5284C4.11955 20.6129 4.21881 20.6129 4.36838 20.6129C4.51761 20.6129 4.66684 20.5708 4.76644 20.4864C4.96529 20.3177 4.91566 20.0644 4.71681 19.8958C3.87074 19.3472 3.4231 18.2926 3.4231 17.1535L3.42304 17.1534Z" fill="#1E4BBE"/>
</g>
<defs>
<clipPath id="clip0_262_1208">
<rect width="40" height="40" fill="white"/>
</clipPath>
</defs>
</svg>
