<svg width="40" height="40" viewBox="0 0 40 40" fill="none" xmlns="http://www.w3.org/2000/svg">
<g clip-path="url(#clip0_262_1355)">
<path d="M1.86727 36.2266C1.86727 33.7266 1.86727 31.2578 1.86727 28.7891C0.656329 28.5391 0.00789192 27.875 0.00789192 26.875C0.00789192 25.875 0.640704 25.2187 1.86727 24.9609C1.86727 22.4922 1.86727 20.0234 1.86727 17.5234C1.2657 17.4609 0.703204 17.2656 0.390704 16.7266C0.187579 16.375 0.0391419 15.9297 0.0313294 15.5234C0.0157044 14.5703 0.742266 13.8984 1.86727 13.7266C1.86727 11.25 1.86727 8.76562 1.86727 6.26562C1.2657 6.21094 0.750079 5.99219 0.390704 5.5C-0.0467955 4.90625 -0.12492 4.25 0.195392 3.58594C0.515704 2.90625 1.0782 2.53125 1.83602 2.50781C2.66414 2.48437 3.49226 2.5 4.35945 2.5C4.35945 2.08594 4.35945 1.69531 4.35945 1.25C3.98445 1.25 3.61726 1.25781 3.24226 1.25C2.78914 1.24219 2.50789 0.992188 2.5157 0.609375C2.52351 0.242188 2.78914 0 3.22664 0C5.66414 0 8.09382 0 10.5313 0C10.9844 0 11.2657 0.257813 11.2579 0.632813C11.2501 1 10.9766 1.23437 10.5469 1.25C10.1798 1.25781 9.82038 1.25781 9.4532 1.26563C9.44538 1.26563 9.43757 1.28125 9.40632 1.30469C9.40632 1.67188 9.40632 2.05469 9.40632 2.5C9.55476 2.5 9.71101 2.5 9.85945 2.5C14.4532 2.5 19.0548 2.5 23.6485 2.5C23.7813 2.5 23.9063 2.49219 24.0391 2.50781C24.3907 2.53906 24.6251 2.78125 24.6251 3.11719C24.6329 3.46875 24.3907 3.71875 24.0235 3.75C23.8907 3.75781 23.7657 3.75781 23.6329 3.75781C16.5235 3.75781 9.41413 3.75781 2.30476 3.75781C2.18758 3.75781 2.07039 3.75781 1.9532 3.75781C1.53133 3.77344 1.25789 4.02344 1.2657 4.39063C1.27352 4.74219 1.53914 4.98437 1.93758 5C2.05477 5.00781 2.17195 5 2.28914 5C8.8907 5 15.4923 5 22.0938 5C22.7344 5 23.0313 5.19531 23.0469 5.60938C23.0547 6.03906 22.7422 6.25 22.086 6.25C15.9376 6.25 9.79695 6.25 3.64851 6.25C3.49226 6.25 3.34383 6.25 3.16414 6.25C3.16414 8.75 3.16414 11.2187 3.16414 13.75C3.30476 13.75 3.4532 13.75 3.60164 13.75C8.2657 13.75 12.9219 13.75 17.586 13.75C17.7188 13.75 17.8516 13.7344 17.9766 13.7578C18.3126 13.8203 18.5157 14.0312 18.5157 14.375C18.5157 14.7188 18.3126 14.9297 17.9766 14.9922C17.836 15.0156 17.6876 15 17.5469 15C12.5235 15 7.49226 15 2.46883 15C2.3907 15 2.31258 15 2.23445 15C1.56258 15 1.2657 15.1953 1.27352 15.6328C1.28133 16.0547 1.5782 16.25 2.21883 16.25C7.0782 16.25 11.9298 16.25 16.7891 16.25C16.9063 16.25 17.0235 16.2422 17.1407 16.25C17.5079 16.2813 17.7579 16.5391 17.7501 16.8828C17.7423 17.2266 17.4923 17.4687 17.1251 17.5C17.0079 17.5078 16.8907 17.5 16.7735 17.5C12.3985 17.5 8.02351 17.5 3.64851 17.5C3.49226 17.5 3.34383 17.5 3.16414 17.5C3.16414 20 3.16414 22.4687 3.16414 25C3.30476 25 3.4532 25 3.60164 25C8.65632 25 13.7032 25 18.7579 25C18.8985 25 19.0469 24.9844 19.1876 25.0156C19.5001 25.0781 19.6954 25.2734 19.7032 25.6094C19.711 25.9609 19.5157 26.1719 19.1876 26.2422C19.0469 26.2734 18.8985 26.2578 18.7579 26.2578C13.2735 26.2578 7.79695 26.2578 2.31258 26.2578C2.21883 26.2578 2.13289 26.2578 2.03914 26.2578C1.54695 26.2656 1.2657 26.5 1.2657 26.8906C1.27352 27.2813 1.55477 27.5078 2.05477 27.5078C8.42195 27.5078 14.7891 27.5078 21.1563 27.5078C21.2891 27.5078 21.4141 27.5 21.5469 27.5156C21.8829 27.5547 22.1407 27.8359 22.1094 28.1484C22.086 28.4922 21.8907 28.6953 21.5469 28.75C21.4219 28.7656 21.2891 28.7578 21.1563 28.7578C15.3204 28.7578 9.49226 28.7578 3.65633 28.7578C3.50008 28.7578 3.34383 28.7578 3.16414 28.7578C3.16414 31.2578 3.16414 33.7344 3.16414 36.2344C11.4688 36.2344 19.7735 36.2344 28.1329 36.2344C28.1329 36.1094 28.1329 35.9688 28.1329 35.8359C28.1329 34.1406 28.1329 32.4531 28.1329 30.7578C28.1329 30.4297 28.2344 30.1641 28.5626 30.0469C28.9922 29.8906 29.3829 30.2109 29.3829 30.7422C29.3907 32.3672 29.3829 34 29.3829 35.625C29.3829 35.8203 29.3829 36.0156 29.3829 36.2266C29.5547 36.2656 29.7188 36.2891 29.8751 36.3359C30.7657 36.5781 31.3516 37.4375 31.2422 38.3516C31.1407 39.25 30.3907 39.9531 29.4922 40.0078C29.3985 40.0156 29.3126 40.0156 29.2188 40.0156C20.1563 40.0156 11.0938 40.0156 2.03133 40.0156C0.796954 40.0156 -0.070233 39.1484 7.94262e-05 38C0.0782044 37.0547 0.757891 36.3984 1.86727 36.2266ZM15.6173 38.75C20.0938 38.75 24.5704 38.75 29.0547 38.75C29.7032 38.75 29.9922 38.5625 30.0079 38.1406C30.0235 37.7031 29.711 37.5 29.0469 37.5C20.1016 37.5 11.1563 37.5 2.21883 37.5C2.12508 37.5 2.03914 37.5 1.94539 37.5C1.53914 37.5156 1.27352 37.75 1.2657 38.1094C1.25789 38.4766 1.53133 38.7344 1.9532 38.75C2.05477 38.7578 2.16414 38.75 2.2657 38.75C6.71101 38.75 11.1641 38.75 15.6173 38.75ZM5.65632 2.48437C6.50007 2.48437 7.29695 2.48437 8.11726 2.48437C8.11726 2.07031 8.11726 1.67969 8.11726 1.28125C7.28132 1.28125 6.47664 1.28125 5.65632 1.28125C5.65632 1.6875 5.65632 2.07031 5.65632 2.48437Z" fill="#1E4BBE"/>
<path d="M29.3203 28.75C23.2578 28.75 18.7734 24.2891 18.7656 18.7813C18.7656 17.4453 19.1875 16.1953 19.6641 14.9688C20.8672 11.875 22.5156 9.01563 24.2813 6.22657C25.5078 4.28125 26.8203 2.38282 28.1016 0.476567C28.5234 -0.156245 28.9844 -0.148433 29.4141 0.460942C32.2656 4.52344 34.9844 8.65625 37.0781 13.1719C37.6953 14.5 38.2188 15.8906 38.5625 17.3047C39.1328 19.6719 38.5547 21.9141 37.2891 23.9453C35.3359 27.0859 32.4375 28.6328 29.3203 28.75ZM28.7578 1.75C28.6719 1.85938 28.5938 1.94532 28.5313 2.03907C27.4141 3.73438 26.2656 5.40626 25.1875 7.13282C23.5703 9.71094 22.0547 12.3516 20.8984 15.1797C20.2656 16.7344 19.8203 18.3203 20.0859 20.0391C20.6172 23.5156 23.2266 26.4063 26.6641 27.25C30.1328 28.1094 33.7891 26.7656 35.8594 23.8359C37.2109 21.9219 37.8125 19.7891 37.3281 17.4453C37.0234 15.9766 36.4063 14.6016 35.75 13.2578C33.8047 9.27344 31.3984 5.5625 28.8906 1.91407C28.8672 1.85938 28.8203 1.82032 28.7578 1.75Z" fill="#1E4BBE"/>
<path d="M28.4611 26.2423C24.8674 26.1564 21.7502 23.2892 21.3283 19.7033C21.2971 19.422 21.2658 19.1329 21.2658 18.8517C21.258 18.422 21.5002 18.1408 21.8596 18.1329C22.2346 18.1173 22.4924 18.3986 22.508 18.8439C22.5861 20.9923 23.5002 22.6876 25.258 23.922C26.2892 24.6408 27.4455 24.9767 28.7033 25.0079C29.0939 25.0158 29.3439 25.2423 29.3752 25.5783C29.4064 25.8986 29.1799 26.1954 28.8439 26.2423C28.7267 26.2579 28.5939 26.2423 28.4611 26.2423Z" fill="#1E4BBE"/>
</g>
<defs>
<clipPath id="clip0_262_1355">
<rect width="38.7812" height="40" fill="white"/>
</clipPath>
</defs>
</svg>
