<svg width="40" height="40" viewBox="0 0 40 40" fill="none" xmlns="http://www.w3.org/2000/svg">
<g clip-path="url(#clip0_262_1317)">
<path d="M18.4844 30.3674C18.5234 30.6564 18.5312 30.9377 18.5937 31.1955C18.8516 32.3283 19.9375 33.1018 21.0937 32.9846C22.2344 32.8752 23.1406 31.9221 23.2109 30.7814C23.2187 30.7033 23.2187 30.6252 23.2187 30.5471C23.2187 23.8439 23.2187 17.1408 23.2187 10.4299C23.2031 9.06268 22.2031 8.0158 20.8906 8.00018C19.6172 7.98455 18.5703 8.98456 18.5156 10.258C18.5078 10.3752 18.5156 10.4846 18.5156 10.6252C14.8828 11.0314 12.1953 12.8205 10.4219 16.0236C9.80469 15.7814 9.17187 15.7189 8.53906 15.9767C7.90625 16.2424 7.46875 16.7033 7.1875 17.3674C7.05469 17.3674 6.91406 17.3674 6.78125 17.3674C4.85156 17.3674 2.92969 17.3674 1 17.3674C0.257813 17.3752 4.21072e-07 17.633 4.54197e-07 18.3908C5.15666e-07 19.7971 5.77135e-07 21.2033 6.38604e-07 22.6096C6.72071e-07 23.3752 0.257813 23.6252 1.03906 23.6252C2.9375 23.6252 4.84375 23.6252 6.74219 23.6252C6.88281 23.6252 7.02344 23.6252 7.15625 23.6252C8.11719 25.1252 8.91406 25.4533 10.4219 24.9767C12.1719 28.1564 14.8516 29.9611 18.4844 30.3674ZM18.5156 12.2033C18.5156 12.6799 18.5156 13.0939 18.5156 13.508C18.5156 14.1642 18.8125 14.5471 19.3047 14.5392C19.7891 14.5314 20.0781 14.1564 20.0781 13.5236C20.0781 12.5627 20.0781 11.5939 20.0781 10.633C20.0781 9.92987 20.3594 9.55487 20.8672 9.56268C21.375 9.57049 21.6406 9.93768 21.6406 10.6564C21.6406 17.2189 21.6406 23.7814 21.6406 30.3439C21.6406 30.4846 21.6484 30.633 21.625 30.7736C21.5625 31.1564 21.2422 31.4299 20.8672 31.4377C20.4766 31.4455 20.1406 31.1564 20.0859 30.758C20.0703 30.633 20.0781 30.5002 20.0781 30.3674C20.0781 27.0314 20.0781 23.7033 20.0781 20.3674C20.0781 20.2346 20.0859 20.1017 20.0703 19.9767C20.0156 19.5783 19.6875 19.2892 19.2969 19.2892C18.9062 19.2892 18.5781 19.5783 18.5234 19.9846C18.5078 20.1096 18.5156 20.2424 18.5156 20.3752C18.5156 23.0314 18.5156 25.6877 18.5156 28.3439C18.5156 28.4846 18.5156 28.6252 18.5156 28.7658C18.4375 28.7736 18.3984 28.7814 18.3672 28.7736C15.5937 28.4064 13.4844 27.0314 12.0469 24.633C11.7734 24.1799 11.6719 23.7267 11.7031 23.1486C11.8047 21.3986 11.7969 19.633 11.7031 17.883C11.6719 17.3049 11.7656 16.8517 12.0391 16.3908C13.4922 13.9377 15.6562 12.5783 18.5156 12.2033ZM1.58594 22.0471C1.58594 20.9924 1.58594 19.9846 1.58594 18.9611C3.41406 18.9611 5.22656 18.9611 7.04687 18.9611C7.04687 20.0002 7.04687 21.0236 7.04687 22.0471C5.21094 22.0471 3.40625 22.0471 1.58594 22.0471ZM8.64062 20.5314C8.64062 19.7736 8.61719 19.0236 8.65625 18.2658C8.67187 18.0236 8.78125 17.7033 8.96094 17.5627C9.14062 17.4299 9.47656 17.4064 9.71094 17.4611C10.0703 17.5471 10.1953 17.8752 10.1953 18.2267C10.2031 19.7346 10.2031 21.2424 10.1953 22.758C10.1875 23.2971 9.85937 23.6408 9.39844 23.6252C8.9375 23.6174 8.64844 23.2736 8.64062 22.7189C8.63281 21.9846 8.64062 21.258 8.64062 20.5314Z" fill="#1E4BBE"/>
<path d="M26.1875 13.469C26.5625 13.469 26.9375 13.4768 27.3203 13.469C27.7891 13.4534 28.125 13.1252 28.125 12.6955C28.125 12.2659 27.7969 11.9221 27.3281 11.9143C26.5625 11.8987 25.7969 11.9065 25.0312 11.9143C24.5625 11.9221 24.2266 12.258 24.2266 12.6877C24.2266 13.1174 24.5547 13.4455 25.0234 13.469C25.0469 13.469 25.0781 13.469 25.1016 13.469C25.4609 13.469 25.8281 13.469 26.1875 13.469Z" fill="#1E4BBE"/>
<path d="M26.1714 15.8126C25.7964 15.8126 25.4214 15.8047 25.0386 15.8126C24.5464 15.8282 24.2027 16.1641 24.2183 16.6094C24.2261 17.0391 24.562 17.3594 25.0386 17.3672C25.7886 17.3751 26.5464 17.3751 27.2964 17.3672C27.7886 17.3594 28.1324 17.0157 28.1167 16.5704C28.1089 16.1407 27.773 15.8204 27.2964 15.8126C26.9292 15.8047 26.5464 15.8126 26.1714 15.8126Z" fill="#1E4BBE"/>
<path d="M26.1407 19.7188C25.7736 19.7188 25.4142 19.711 25.047 19.7188C24.5548 19.7344 24.2111 20.0626 24.2189 20.5079C24.2267 20.9376 24.5626 21.2657 25.0314 21.2735C25.7814 21.2813 26.5392 21.2813 27.2892 21.2735C27.7814 21.2657 28.1251 20.9298 28.1173 20.4844C28.1095 20.0547 27.7736 19.7344 27.3048 19.7188C26.922 19.711 26.5314 19.7188 26.1407 19.7188Z" fill="#1E4BBE"/>
<path d="M26.1642 23.6251C25.797 23.6251 25.4376 23.6172 25.0704 23.6251C24.5704 23.6329 24.2267 23.9454 24.2189 24.3907C24.2111 24.836 24.5548 25.1719 25.047 25.1798C25.797 25.1876 26.5548 25.1876 27.3048 25.1798C27.7814 25.1719 28.1095 24.8438 28.1173 24.4141C28.1251 23.9688 27.7814 23.6329 27.2892 23.6251C26.9142 23.6172 26.5392 23.6251 26.1642 23.6251Z" fill="#1E4BBE"/>
<path d="M26.1407 27.5313C25.7736 27.5313 25.4142 27.5235 25.047 27.5313C24.5548 27.5469 24.2111 27.8751 24.2189 28.3204C24.2267 28.7501 24.5626 29.0782 25.0314 29.086C25.7814 29.0938 26.5392 29.0938 27.2892 29.086C27.7814 29.0782 28.1251 28.7422 28.1173 28.2969C28.1095 27.8672 27.7736 27.5469 27.3048 27.5313C26.922 27.5235 26.5314 27.5313 26.1407 27.5313Z" fill="#1E4BBE"/>
<path d="M32.1329 13.469C32.5079 13.469 32.8829 13.4768 33.2658 13.469C33.7345 13.4534 34.0704 13.1174 34.0704 12.6877C34.0704 12.258 33.7345 11.9221 33.2658 11.9143C32.5001 11.9065 31.7345 11.8987 30.9689 11.9143C30.5001 11.9221 30.1642 12.258 30.172 12.6955C30.172 13.1252 30.5079 13.4612 30.9767 13.469C31.3517 13.4768 31.7423 13.469 32.1329 13.469Z" fill="#1E4BBE"/>
<path d="M32.1406 17.3752C32.5078 17.3752 32.8672 17.383 33.2344 17.3752C33.7266 17.3596 34.0703 17.0315 34.0703 16.5862C34.0625 16.1565 33.7344 15.8205 33.2578 15.8205C32.4922 15.8127 31.7266 15.8049 30.9609 15.8205C30.4922 15.8284 30.1641 16.1721 30.1641 16.6096C30.1719 17.0393 30.5 17.3674 30.9766 17.383C31.3594 17.383 31.75 17.3752 32.1406 17.3752Z" fill="#1E4BBE"/>
<path d="M32.1486 21.2812C32.5157 21.2812 32.8751 21.289 33.2423 21.2812C33.7345 21.2656 34.0782 20.9297 34.0626 20.4844C34.0548 20.0547 33.7189 19.7344 33.2423 19.7266C32.4923 19.7187 31.7345 19.7187 30.9845 19.7266C30.5079 19.7344 30.172 20.0547 30.1642 20.4844C30.1564 20.9297 30.4923 21.2656 30.9845 21.2812C31.0079 21.2812 31.0392 21.2812 31.0626 21.2812C31.422 21.2812 31.7892 21.2812 32.1486 21.2812Z" fill="#1E4BBE"/>
<path d="M32.1095 25.1875C32.4845 25.1875 32.8595 25.1953 33.2423 25.1875C33.7345 25.1719 34.0782 24.8359 34.0626 24.3906C34.047 23.9609 33.7189 23.6406 33.2423 23.6328C32.4923 23.625 31.7345 23.625 30.9845 23.6328C30.5079 23.6406 30.172 23.9609 30.1642 24.3906C30.1564 24.8359 30.4923 25.1719 30.9845 25.1875C31.0079 25.1875 31.0392 25.1875 31.0626 25.1875C31.4064 25.1875 31.7579 25.1875 32.1095 25.1875Z" fill="#1E4BBE"/>
<path d="M32.1095 29.0937C32.4845 29.0937 32.8595 29.1016 33.2423 29.0937C33.7345 29.0781 34.0782 28.7422 34.0626 28.2969C34.047 27.8672 33.7189 27.5469 33.2423 27.5391C32.4923 27.5312 31.7345 27.5312 30.9845 27.5391C30.5079 27.5469 30.172 27.8672 30.1642 28.2969C30.1564 28.7422 30.4923 29.0781 30.9845 29.0937C31.3595 29.1016 31.7345 29.0937 32.1095 29.0937Z" fill="#1E4BBE"/>
<path d="M38.0236 11.9063C37.6486 11.9063 37.2736 11.8985 36.8908 11.9063C36.422 11.9219 36.0861 12.2501 36.0939 12.6876C36.0939 13.1172 36.4298 13.4532 36.8986 13.461C37.6642 13.4766 38.4298 13.4766 39.1954 13.461C39.6642 13.4532 40.0001 13.1172 40.0001 12.6797C40.0001 12.2501 39.6642 11.9141 39.1954 11.9063C38.8048 11.8985 38.4142 11.9063 38.0236 11.9063Z" fill="#1E4BBE"/>
<path d="M38.0625 17.3752C38.4375 17.3752 38.8125 17.383 39.1953 17.3752C39.6641 17.3596 40 17.0315 40 16.6018C40 16.1721 39.6719 15.8284 39.2031 15.8205C38.4375 15.8049 37.6719 15.8127 36.9062 15.8205C36.4375 15.8284 36.1016 16.1643 36.1016 16.594C36.1016 17.0237 36.4297 17.3596 36.8984 17.3752C37.2891 17.383 37.6719 17.3752 38.0625 17.3752Z" fill="#1E4BBE"/>
<path d="M38.047 21.2812C38.422 21.2812 38.797 21.2891 39.1798 21.2812C39.6564 21.2656 39.9923 20.9531 40.0002 20.5156C40.008 20.0703 39.6642 19.7266 39.172 19.7187C38.422 19.7109 37.6642 19.7109 36.9142 19.7187C36.4376 19.7266 36.1017 20.0469 36.0939 20.4766C36.0861 20.9219 36.422 21.2578 36.9142 21.2734C37.297 21.2891 37.672 21.2812 38.047 21.2812Z" fill="#1E4BBE"/>
<path d="M38.047 25.1875C38.422 25.1875 38.797 25.1953 39.1798 25.1875C39.672 25.1719 40.0158 24.8359 40.0002 24.3906C39.9923 23.9609 39.6564 23.6406 39.1798 23.6328C38.4298 23.625 37.672 23.625 36.922 23.6328C36.4454 23.6406 36.1095 23.9609 36.1017 24.3906C36.0939 24.8359 36.4298 25.1719 36.922 25.1875C36.9455 25.1875 36.9767 25.1875 37.0001 25.1875C37.3439 25.1875 37.6955 25.1875 38.047 25.1875Z" fill="#1E4BBE"/>
<path d="M38.0236 27.5313C37.6486 27.5313 37.2736 27.5235 36.8908 27.5313C36.422 27.5469 36.0861 27.8751 36.0939 28.3126C36.0939 28.7423 36.4298 29.0782 36.8986 29.086C37.6642 29.1016 38.4298 29.1016 39.1954 29.086C39.6642 29.0782 40.0001 28.7344 39.9923 28.3048C39.9923 27.8751 39.6564 27.5391 39.1876 27.5313C38.8048 27.5235 38.4142 27.5313 38.0236 27.5313Z" fill="#1E4BBE"/>
<path d="M19.297 16.1172C18.8751 16.1172 18.5236 16.4531 18.5157 16.875C18.5079 17.3047 18.8751 17.6797 19.297 17.6719C19.7267 17.6719 20.0861 17.2969 20.0704 16.8672C20.0626 16.4453 19.7189 16.1172 19.297 16.1172Z" fill="#1E4BBE"/>
</g>
<defs>
<clipPath id="clip0_262_1317">
<rect width="40" height="40" fill="white" transform="matrix(-1 0 0 1 40 0)"/>
</clipPath>
</defs>
</svg>
