<svg width="40" height="40" viewBox="0 0 40 40" fill="none" xmlns="http://www.w3.org/2000/svg">
<g clip-path="url(#clip0_262_1240)">
<path d="M18.1871 32.5942C16.2396 32.9042 14.9189 32.1292 14.1911 30.2829C11.7787 30.2829 9.35956 30.2829 6.89999 30.2829C6.3946 31.2734 5.88921 32.2842 5.38382 33.2748C6.82586 34.9729 6.98759 36.4554 5.90268 37.8368C4.95929 39.0362 3.30834 39.4069 1.92694 38.7263C0.552277 38.0524 -0.162009 36.4621 0.242303 34.9796C0.626401 33.5982 1.96063 32.4257 3.84069 32.6212C4.36629 31.5834 4.90538 30.5255 5.44446 29.454C4.87169 28.4567 4.30565 27.4796 3.73961 26.4958C2.58732 24.5012 1.44176 22.5066 0.289473 20.5187C0.0603626 20.1279 0.0738397 19.7708 0.296212 19.3799C1.96737 16.4958 3.62505 13.605 5.28948 10.7142C5.33665 10.6266 5.39055 10.539 5.44446 10.4379C4.81104 9.13734 4.17761 7.80985 3.53745 6.46888C2.51319 6.51605 1.62371 6.21282 0.90942 5.47832C0.370336 4.92576 0.0873168 4.25864 0.0131928 3.49719C-0.121578 2.05514 0.788126 0.667001 2.19648 0.181826C3.5981 -0.303349 5.16144 0.249212 5.96333 1.51606C6.8663 2.94463 6.59675 4.39341 5.11427 5.90958C5.70727 7.14948 6.307 8.39611 6.90673 9.66295C9.33934 9.66295 11.7585 9.66295 14.1911 9.66295C14.8919 7.83007 16.2059 7.0484 18.1803 7.35163C18.241 7.25729 18.3083 7.15621 18.369 7.0484C19.5685 4.96619 20.7814 2.89072 21.9674 0.80851C22.21 0.390721 22.5199 0.20878 23.0051 0.215519C26.5226 0.222257 30.0334 0.222257 33.5509 0.215519C34.0159 0.215519 34.3259 0.383982 34.5617 0.795033C36.307 3.83411 38.0523 6.86646 39.8178 9.89206C40.0739 10.3301 40.0671 10.7142 39.8111 11.1454C38.6251 13.167 37.4593 15.202 36.2801 17.2371C36.2059 17.3651 36.1385 17.4931 36.0644 17.6279C37.183 19.1441 37.1561 20.6333 35.9431 22.1225C36.0375 22.291 36.1385 22.4729 36.2464 22.6549C37.4256 24.6966 38.5914 26.7451 39.7908 28.7734C40.0671 29.2451 40.0671 29.6427 39.7908 30.1212C38.0456 33.1198 36.3137 36.1252 34.5887 39.1306C34.3394 39.5686 34.0092 39.764 33.5038 39.7573C30.0199 39.7438 26.5429 39.7438 23.059 39.7573C22.5536 39.7573 22.2234 39.5821 21.9674 39.1373C20.7747 37.0416 19.5617 34.9527 18.3555 32.8637C18.3016 32.7694 18.241 32.6885 18.1871 32.5942ZM14.1776 11.3543C14.1237 11.3476 14.0765 11.3341 14.0361 11.3341C11.7248 11.3341 9.41347 11.3274 7.09541 11.3408C6.96737 11.3408 6.79217 11.4756 6.72479 11.5902C5.78139 13.2007 4.85821 14.8112 3.92829 16.4284C3.2477 17.601 2.57384 18.7802 1.89325 19.9662C3.55767 22.8503 5.21535 25.7209 6.8663 28.5915C9.32587 28.5915 11.745 28.5915 14.1709 28.5915C14.8986 26.7586 16.2194 25.9635 18.2005 26.2734C19.4135 24.1778 20.6197 22.0821 21.8393 19.9662C20.6197 17.8503 19.4 15.7411 18.2005 13.6589C15.9431 13.7869 15.1345 13.322 14.1776 11.3543ZM33.2544 38.0592C33.3016 37.9985 33.3286 37.9648 33.3488 37.9244C34.9391 35.1616 36.5361 32.4055 38.1332 29.6495C38.2477 29.454 38.1803 29.3193 38.086 29.1575C37.0819 27.4325 36.0914 25.7007 35.0873 23.9689C34.8852 23.6252 34.683 23.2748 34.4876 22.9446C32.5267 23.1939 31.617 22.702 30.5321 20.822C28.1197 20.822 25.7005 20.822 23.2679 20.822C22.0482 22.9379 20.8353 25.0403 19.6358 27.1225C20.8757 28.8071 20.8757 29.7236 19.6493 31.7721C20.8555 33.861 22.0685 35.9635 23.2747 38.0592C26.617 38.0592 29.9323 38.0592 33.2544 38.0592ZM19.6358 8.18047C20.8892 9.73707 20.8757 11.2667 19.6426 12.8233C20.8555 14.9258 22.0685 17.0282 23.2747 19.1171C25.6938 19.1171 28.0725 19.1171 30.4377 19.1171C31.462 16.9069 32.1898 16.4891 34.6763 16.6845C35.8623 14.636 37.055 12.5673 38.2342 10.5255C38.2073 10.4514 38.2005 10.4177 38.1803 10.3907C36.5833 7.62117 34.9863 4.85163 33.3757 2.08883C33.3084 1.97428 33.1129 1.87994 32.9782 1.87994C29.8447 1.86646 26.7113 1.8732 23.5779 1.86646C23.3555 1.86646 23.2342 1.94732 23.1264 2.136C22.6951 2.89746 22.2504 3.65217 21.8191 4.41363C21.0914 5.66026 20.3703 6.91363 19.6358 8.18047ZM17.338 12.0686C18.2005 12.0686 18.9013 11.3745 18.9148 10.512C18.9216 9.64947 18.2005 8.92845 17.3313 8.92845C16.4552 8.92845 15.7477 9.64947 15.7612 10.5187C15.7747 11.388 16.4755 12.0686 17.338 12.0686ZM3.23422 4.79773C4.10349 4.79773 4.79082 4.11713 4.8043 3.24786C4.81104 2.37185 4.11697 1.67104 3.23422 1.67104C2.37168 1.67104 1.67088 2.35837 1.66414 3.22091C1.6574 4.09692 2.35147 4.79773 3.23422 4.79773ZM17.3447 30.9972C18.2073 30.9904 18.9081 30.2964 18.9081 29.4406C18.9081 28.5713 18.1938 27.8637 17.3178 27.8705C16.4552 27.8705 15.7612 28.5646 15.7544 29.4271C15.7612 30.3031 16.462 31.0039 17.3447 30.9972ZM35.2019 19.791C35.1952 18.9284 34.5011 18.2344 33.6385 18.2276C32.7625 18.2276 32.055 18.9352 32.0617 19.8112C32.0685 20.6737 32.7693 21.3678 33.6251 21.3745C34.5078 21.3745 35.2086 20.667 35.2019 19.791ZM3.36899 37.4055C4.23826 37.4055 4.92559 36.7182 4.93233 35.8556C4.93907 34.9796 4.23826 34.2788 3.35551 34.2788C2.48624 34.2788 1.79891 34.9662 1.79891 35.8354C1.79891 36.7114 2.48624 37.4055 3.36899 37.4055Z" fill="#1E4BBE"/>
<path d="M8.78698 14.6493C7.76272 16.4283 6.75194 18.1871 5.72094 19.9728C6.73846 21.7383 7.75598 23.5038 8.78024 25.2828C9.79102 25.2828 10.7748 25.2828 11.7587 25.2828C12.0754 25.2828 12.3854 25.2693 12.7021 25.2963C13.194 25.3367 13.5242 25.714 13.4972 26.1723C13.4703 26.617 13.1199 26.9472 12.6414 26.9472C11.2061 26.9539 9.7708 26.9472 8.32876 26.9472C7.99857 26.9472 7.7425 26.8057 7.57404 26.5227C6.40154 24.4809 5.22229 22.4391 4.04979 20.3973C3.88132 20.1076 3.88806 19.8178 4.05653 19.5348C5.22903 17.4998 6.3948 15.4715 7.5673 13.4364C7.73577 13.1399 7.99857 12.9849 8.34223 12.9849C9.7708 12.9849 11.1926 12.9782 12.6212 12.9849C13.1468 12.9849 13.504 13.3353 13.504 13.807C13.504 14.2855 13.1401 14.6359 12.5942 14.6426C11.4689 14.6493 10.3503 14.6426 9.22498 14.6426C9.09021 14.6493 8.95544 14.6493 8.78698 14.6493Z" fill="#1E4BBE"/>
<path d="M34.4071 29.4138C33.8276 28.4098 33.2481 27.4125 32.6753 26.4084C32.5675 26.2265 32.4529 26.0445 32.3653 25.8491C32.1699 25.4381 32.3182 24.9866 32.7023 24.771C33.0796 24.5553 33.5648 24.6429 33.7939 25.0405C34.5823 26.3747 35.364 27.709 36.1052 29.0701C36.213 29.2723 36.1928 29.6497 36.0715 29.8585C34.9192 31.9003 33.74 33.9286 32.5675 35.9569C32.3923 36.2534 32.1362 36.4084 31.7926 36.4084C29.4475 36.4084 27.1025 36.4084 24.7508 36.4084C24.3937 36.4084 24.1376 36.2399 23.9624 35.93C23.2616 34.7103 22.5608 33.5041 21.86 32.2844C21.5972 31.8195 21.7185 31.3275 22.143 31.0917C22.554 30.8626 23.0257 30.9974 23.2953 31.4488C23.8883 32.4529 24.4678 33.4637 25.0406 34.4812C25.1551 34.6833 25.2764 34.7642 25.5122 34.7642C27.3519 34.7575 29.1915 34.7575 31.0378 34.7642C31.2333 34.7642 31.368 34.7305 31.4758 34.5418C32.4192 32.8841 33.3761 31.2332 34.333 29.5823C34.3532 29.5486 34.3667 29.5014 34.4071 29.4138Z" fill="#1E4BBE"/>
<path d="M34.4065 10.4916C33.4159 8.76652 32.4321 7.0684 31.4415 5.37029C31.3876 5.27595 31.2327 5.19509 31.1248 5.19509C29.2178 5.18161 27.3108 5.18161 25.4038 5.19509C25.2825 5.19509 25.1275 5.32312 25.0602 5.43767C24.5009 6.37433 23.9618 7.31773 23.416 8.26113C23.3688 8.34199 23.3284 8.41611 23.2812 8.49698C22.9982 8.93498 22.5332 9.06975 22.1222 8.8339C21.7111 8.59805 21.5898 8.11962 21.8459 7.66813C22.2839 6.88646 22.7421 6.11153 23.1868 5.3366C23.4362 4.89859 23.699 4.46732 23.9416 4.02258C24.1302 3.68565 24.4065 3.52393 24.7906 3.52393C27.1019 3.52393 29.4132 3.52393 31.7246 3.52393C32.1087 3.52393 32.3849 3.67891 32.5804 4.01584C33.7327 6.01719 34.8917 8.01854 36.0507 10.0199C36.2394 10.3433 36.2394 10.6533 36.0507 10.9768C35.3903 12.1223 34.73 13.2746 34.0628 14.4134C33.7798 14.9053 33.2946 15.0468 32.8634 14.7908C32.4523 14.5415 32.3513 14.063 32.6275 13.5846C33.1531 12.6681 33.6787 11.7584 34.2111 10.842C34.2785 10.7342 34.3324 10.6264 34.4065 10.4916Z" fill="#1E4BBE"/>
</g>
<defs>
<clipPath id="clip0_262_1240">
<rect width="40" height="40" fill="white" transform="matrix(-1 0 0 1 40 0)"/>
</clipPath>
</defs>
</svg>
