<svg width="40" height="40" viewBox="0 0 40 40" fill="none" xmlns="http://www.w3.org/2000/svg">
<g clip-path="url(#clip0_262_1267)">
<path d="M33.9977 23.3657C32.333 23.4048 30.9028 22.9984 29.496 22.4513C28.5503 22.0839 27.6202 21.6697 26.6589 21.3493C24.6503 20.6771 22.7043 20.9663 20.8129 21.8104C19.2889 22.4904 17.7336 23.0609 16.061 23.2797C14.5526 23.4751 13.0677 23.397 11.6296 22.9046C10.4964 22.5138 9.38655 22.0683 8.28456 21.615C6.02586 20.685 3.81406 20.8256 1.62571 21.8182C1.49284 21.8807 1.36779 21.9433 1.23493 21.9902C0.726916 22.1855 0.257983 22.0292 0.078225 21.5994C-0.109348 21.1617 0.0704094 20.685 0.586236 20.4974C1.53192 20.1379 2.4776 19.7627 3.46236 19.5204C5.46314 19.028 7.38577 19.4266 9.25369 20.1848C10.2072 20.5677 11.1529 20.9663 12.1298 21.2868C14.1931 21.9667 16.2408 21.7635 18.2494 21.0367C19.3045 20.6615 20.3205 20.2004 21.3756 19.8252C23.775 18.9733 26.1275 19.2078 28.4487 20.1848C29.3944 20.5833 30.3479 20.9663 31.3248 21.2868C33.3178 21.9433 35.3029 21.7635 37.2646 21.0835C37.7648 20.9116 38.2572 20.7084 38.7574 20.513C39.3045 20.302 39.7422 20.4505 39.9454 20.9116C40.133 21.3571 39.9297 21.8182 39.4139 22.0449C37.632 22.8264 35.8031 23.3501 33.9977 23.3657Z" fill="#1E4BBE"/>
<path d="M33.8957 37.8243C32.3482 37.8712 30.9023 37.4648 29.4877 36.9021C28.5967 36.5504 27.7057 36.1674 26.7991 35.847C24.7436 35.1279 22.7507 35.4015 20.8046 36.269C19.2806 36.9489 17.7175 37.5195 16.0527 37.7305C14.5443 37.9259 13.0594 37.8477 11.6213 37.3475C10.4803 36.9489 9.35481 36.5035 8.23719 36.0502C6.01757 35.1436 3.84485 35.2842 1.67994 36.2377C1.50018 36.3159 1.32824 36.4019 1.14066 36.4644C0.663915 36.6207 0.234059 36.4488 0.0621166 36.0345C-0.109826 35.6203 0.0464855 35.1592 0.507603 34.9716C1.33605 34.6356 2.17232 34.2995 3.03203 34.0572C5.16567 33.4554 7.22898 33.8149 9.2454 34.6356C10.1989 35.0263 11.1446 35.4171 12.1215 35.7375C14.1848 36.4175 16.2325 36.2065 18.2411 35.4796C19.2806 35.1045 20.2888 34.6512 21.3282 34.2839C23.7276 33.432 26.0879 33.6508 28.4013 34.6277C29.347 35.0263 30.3005 35.4171 31.2774 35.7375C33.286 36.394 35.279 36.2143 37.2564 35.5343C37.7487 35.3624 38.2255 35.167 38.7179 34.9794C39.2884 34.7606 39.687 34.8935 39.8902 35.3702C40.0934 35.8548 39.898 36.2846 39.3509 36.5269C37.6159 37.285 35.8105 37.8008 33.8957 37.8243Z" fill="#1E4BBE"/>
<path d="M5.13456 26.5154C6.69767 26.4998 8.04976 26.9062 9.37058 27.4376C10.2772 27.7971 11.176 28.1801 12.0982 28.4849C14.1224 29.1492 16.131 28.9851 18.1084 28.2817C19.2104 27.8909 20.2811 27.4064 21.3831 27.0234C23.759 26.195 26.088 26.406 28.3858 27.3751C29.3315 27.7737 30.285 28.1645 31.2619 28.4849C33.2783 29.1492 35.2948 28.9773 37.2721 28.2895C37.7879 28.1098 38.2881 27.8988 38.8039 27.7112C39.312 27.5236 39.7262 27.7112 39.9216 28.1879C40.0857 28.5943 39.9059 29.0398 39.4448 29.243C37.3581 30.1496 35.201 30.7358 32.8954 30.5326C31.6918 30.431 30.5507 30.0637 29.4409 29.626C28.5421 29.2743 27.659 28.8913 26.7524 28.5787C24.7203 27.8753 22.7508 28.1567 20.8282 29.0086C19.3276 29.6729 17.7957 30.2356 16.1545 30.4701C14.607 30.6889 13.083 30.6107 11.6058 30.1027C10.4648 29.712 9.33932 29.2587 8.2217 28.7975C6.00208 27.8909 3.82936 28.0394 1.67227 29.0007C1.50814 29.0711 1.34402 29.1571 1.17207 29.2118C0.70314 29.3837 0.257654 29.2196 0.0778962 28.821C-0.109677 28.3989 0.0544496 27.9378 0.523383 27.719C2.02397 27.0156 3.57145 26.5154 5.13456 26.5154Z" fill="#1E4BBE"/>
<path d="M33.9188 4.17842C33.9188 4.8193 33.9188 5.36638 33.9188 5.91347C33.9188 8.28159 33.9188 10.6497 33.9188 13.0178C33.9188 13.1976 33.9188 13.3851 33.8641 13.5571C33.7547 13.9166 33.489 14.112 33.106 14.1198C32.7387 14.1276 32.4339 13.8932 32.3401 13.518C32.2932 13.3304 32.2776 13.135 32.2776 12.9397C32.2776 10.1964 32.2776 7.44532 32.2776 4.70206C32.2776 4.56138 32.2776 4.4207 32.2776 4.20968C32.1447 4.32692 32.0587 4.39726 31.9806 4.4676C31.074 5.36638 30.1752 6.27299 29.2764 7.17178C28.9872 7.46877 28.6199 7.60945 28.2526 7.43751C28.0416 7.3359 27.8227 7.05455 27.7915 6.82789C27.7602 6.58561 27.8696 6.24173 28.0416 6.06197C29.4952 4.5692 30.9724 3.09987 32.4495 1.63836C32.8716 1.22414 33.3327 1.23196 33.7547 1.654C35.2162 3.09987 36.6699 4.55357 38.1158 6.01508C38.5144 6.41367 38.5457 6.93731 38.2174 7.26556C37.9439 7.53911 37.3342 7.61726 36.9278 7.18741C36.0603 6.27299 35.1459 5.39765 34.2549 4.49886C34.1768 4.4207 34.083 4.33473 33.9188 4.17842Z" fill="#1E4BBE"/>
<path d="M7.72963 4.19421C7.72963 4.40523 7.72963 4.54591 7.72963 4.67877C7.72963 7.43766 7.72963 10.1966 7.72963 12.9554C7.72963 13.1508 7.714 13.3462 7.65929 13.5338C7.55769 13.8855 7.27633 14.0653 6.92463 14.0731C6.5573 14.0809 6.26812 13.9089 6.1587 13.5338C6.104 13.354 6.09618 13.1508 6.09618 12.9554C6.09618 10.1966 6.09618 7.43766 6.09618 4.67877C6.09618 4.53809 6.09618 4.40523 6.09618 4.14731C5.84608 4.40523 5.68196 4.57717 5.51001 4.74911C4.6972 5.55411 3.8922 6.37475 3.07938 7.17193C2.587 7.6565 1.93831 7.6096 1.65695 7.08596C1.46156 6.71081 1.53972 6.35911 1.82107 6.07775C3.30603 4.57717 4.79098 3.0844 6.29938 1.60726C6.71361 1.20085 7.17472 1.25556 7.63584 1.70886C9.05827 3.12347 10.4729 4.54591 11.8875 5.96052C11.9344 6.00741 11.9813 6.05431 12.0204 6.1012C12.333 6.48416 12.3408 6.96873 12.0282 7.27353C11.7077 7.59397 11.1528 7.58616 10.8011 7.23446C9.88672 6.32785 8.98012 5.41343 8.0657 4.49901C7.97973 4.41304 7.88594 4.33489 7.72963 4.19421Z" fill="#1E4BBE"/>
<path d="M20.8205 4.18617C20.8205 4.45972 20.8205 4.60821 20.8205 4.76452C20.8205 7.48434 20.8205 10.212 20.8205 12.9318C20.8205 13.1037 20.8205 13.2678 20.7893 13.4398C20.7267 13.854 20.4219 14.1197 20.0155 14.1197C19.6169 14.1276 19.2887 13.854 19.2261 13.4554C19.1949 13.2757 19.1949 13.0959 19.1949 12.9083C19.1949 10.1729 19.1949 7.43744 19.1949 4.702C19.1949 4.56132 19.1949 4.42064 19.1949 4.2018C19.0542 4.32685 18.9682 4.38938 18.8901 4.46753C18.0069 5.35069 17.1316 6.24166 16.2328 7.117C16.0608 7.28113 15.8342 7.40618 15.6075 7.47652C15.3027 7.57031 15.0214 7.48434 14.826 7.19516C14.6228 6.89817 14.6072 6.58555 14.7869 6.28074C14.8651 6.14788 14.9745 6.03064 15.0839 5.92123C16.4673 4.53787 17.8428 3.15452 19.2261 1.77898C19.8123 1.20063 20.2031 1.19282 20.7893 1.77898C22.1726 3.16234 23.556 4.53787 24.9315 5.92123C24.9862 5.97593 25.0409 6.03064 25.0956 6.08535C25.4239 6.46831 25.4395 6.97632 25.1191 7.28113C24.7908 7.59375 24.2437 7.58594 23.8842 7.22642C22.9854 6.33545 22.0945 5.44448 21.2035 4.54569C21.1097 4.4519 21.0003 4.35812 20.8205 4.18617Z" fill="#1E4BBE"/>
</g>
<defs>
<clipPath id="clip0_262_1267">
<rect width="40" height="40" fill="white"/>
</clipPath>
</defs>
</svg>
