<svg width="40" height="40" viewBox="0 0 40 40" fill="none" xmlns="http://www.w3.org/2000/svg">
<g clip-path="url(#clip0_262_1296)">
<path d="M38.0371 17.5618C36.52 18.6049 36.52 18.6049 34.6588 18.5332C34.6588 18.6447 34.6588 18.7642 34.6588 18.8756C34.9013 26.1855 29.7869 32.6673 22.7253 34.005C22.4594 34.0528 22.1779 34.1802 21.9589 34.3474C20.5279 35.3985 18.6119 35.4941 17.0948 34.5784C16.9697 34.5067 16.8524 34.4271 16.7195 34.3395C14.8113 35.2313 12.9345 35.1995 11.175 34.021C9.41544 32.8504 8.66471 31.1066 8.68035 28.9805C8.54741 28.9088 8.42229 28.8451 8.29716 28.7734C6.64711 27.8896 5.73216 26.0661 5.9824 24.1948C6.00586 23.9957 5.99022 23.7728 5.93548 23.5737C3.69892 15.7303 7.9218 7.62414 15.5543 5.09992C17.6735 4.39919 19.8397 4.2479 22.045 4.54252C22.217 4.56641 22.4516 4.61419 22.5298 4.74159C22.6471 4.91677 22.7175 5.17955 22.6706 5.37862C22.6002 5.68917 22.3265 5.7688 22.0215 5.74491C21.216 5.68917 20.4106 5.59362 19.6051 5.6175C13.8886 5.79269 8.99316 9.5193 7.17888 15.0614C6.42815 17.3468 6.32649 19.6878 6.76442 22.005C7.40567 21.5193 8.05474 21.0256 8.78983 20.4682C8.97752 18.7721 9.90029 17.4582 11.5269 16.7018C13.1535 12.5691 16.0391 10.22 20.4731 10.4271C24.2581 10.6022 26.8856 12.6965 28.2542 16.2797C29.5054 19.5604 28.7155 23.6613 25.4233 26.4085C25.9003 27.3003 26.0332 28.2479 25.6813 29.2273C25.3372 30.1908 24.6647 30.8438 23.7498 31.2101C23.6246 31.6799 23.5073 32.1258 23.3744 32.6275C23.523 32.5876 23.6716 32.5558 23.8045 32.508C29.2864 30.6129 32.5005 26.7588 33.3607 20.9221C33.4936 20.0143 33.4233 19.0667 33.4154 18.1431C33.4154 17.9599 33.2669 17.7688 33.173 17.5936C32.7898 16.8849 32.1408 16.6381 31.4057 16.3833C29.1926 15.6268 28.1134 13.0468 29.044 10.865C29.2238 10.435 29.1535 10.0926 29.0362 9.66263C28.8172 8.88227 28.2933 8.42839 27.6755 8.0621C26.7449 7.51266 25.7752 7.02693 24.8211 6.5173C24.7429 6.47749 24.6491 6.4536 24.5709 6.41379C24.2581 6.25453 24.1329 5.95194 24.2346 5.65732C24.3441 5.34677 24.6647 5.19547 25.001 5.31492C26.2366 5.76084 27.3783 6.38194 28.4497 7.14637C28.5591 7.226 28.6608 7.29766 28.7937 7.39322C29.1378 6.27842 29.8338 5.49806 30.9286 5.05214C30.5376 4.3753 30.1779 3.69846 29.7634 3.06143C29.5132 2.66329 29.0909 2.54385 28.6373 2.54385C26.2522 2.55181 23.8671 2.54385 21.4819 2.54385C18.1349 2.54385 14.7801 2.55181 11.433 2.53588C10.7605 2.53588 10.3069 2.79866 9.97067 3.38791C8.81329 5.45825 7.63245 7.52062 6.45943 9.59096C6.39687 9.70244 6.33431 9.82985 6.24829 9.9254C6.04496 10.1484 5.79472 10.1802 5.53666 10.0448C5.27859 9.90151 5.17693 9.66263 5.26295 9.368C5.30205 9.23263 5.38025 9.10523 5.45063 8.97782C6.61583 6.92341 7.79668 4.87696 8.93842 2.80662C9.52493 1.79534 10.346 1.3335 11.4878 1.3335C17.173 1.34942 22.8504 1.34942 28.5357 1.3335C29.6618 1.3335 30.4673 1.79534 31.0303 2.79866C33.869 7.83117 36.7234 12.8637 39.5855 17.8882C40.1408 18.8677 40.1486 19.7993 39.5855 20.7788C36.7234 25.8033 33.8768 30.8279 31.0303 35.8683C30.4673 36.8637 29.6696 37.3335 28.5435 37.3335C22.8504 37.3255 17.1496 37.3255 11.4565 37.3335C10.3304 37.3335 9.53275 36.8637 8.9697 35.8683C6.13881 30.8438 3.29228 25.8272 0.437926 20.8186C-0.132944 19.8073 -0.140764 18.8597 0.437926 17.8564C1.57967 15.8896 2.68231 13.9068 3.80058 11.932C3.87097 11.8046 3.93353 11.6693 4.03519 11.5657C4.24633 11.3269 4.51222 11.287 4.7781 11.4543C5.03617 11.6215 5.13001 11.8763 5.00489 12.1789C4.95014 12.3143 4.87194 12.4417 4.80156 12.5611C3.68328 14.5359 2.57282 16.5186 1.4389 18.4855C1.09482 19.0747 1.10264 19.6003 1.4389 20.1975C4.29325 25.2061 7.13978 30.2227 9.97067 35.2472C10.3226 35.8683 10.784 36.1391 11.4878 36.1391C17.173 36.1231 22.8504 36.1231 28.5357 36.1391C29.2238 36.1391 29.6774 35.8604 30.0215 35.2552C32.8368 30.2625 35.6598 25.2778 38.4985 20.3089C38.8974 19.6162 38.9365 19.011 38.4829 18.3501C38.3187 18.1032 38.1857 17.8245 38.0371 17.5618ZM19.9961 27.0853C24.1955 27.0853 27.5973 23.6294 27.6129 19.3454C27.6285 15.0614 24.2033 11.5657 19.9883 11.5657C15.7889 11.5657 12.3871 15.0216 12.3715 19.3056C12.3636 23.5976 15.781 27.0853 19.9961 27.0853ZM20.3089 28.3594C19.347 28.2399 18.4321 28.1205 17.4702 27.9931C16.9932 28.5744 16.4848 29.1955 15.9687 29.8086C15.695 30.1351 15.3509 30.1988 15.085 29.9838C14.7957 29.7449 14.7879 29.4105 15.0772 29.0442C15.1398 28.9646 15.2102 28.8849 15.2805 28.7973C15.6325 28.3673 15.9844 27.9373 16.3206 27.5233C15.6168 27.0614 14.9521 26.6314 14.2796 26.1855C12.9345 27.8179 11.5894 29.4503 10.2522 31.0747C10.5337 31.8551 11.1672 32.6195 11.824 32.9778C11.9101 32.8743 12.0117 32.7708 12.0978 32.6593C12.4418 32.2452 12.7781 31.8232 13.13 31.4091C13.4585 31.011 13.7713 30.9393 14.0684 31.1862C14.3656 31.433 14.3578 31.7675 14.045 32.1577C13.8964 32.3408 13.7478 32.5239 13.5914 32.7071C13.3724 32.9778 13.1535 33.2406 12.9032 33.5432C14.1075 33.9015 15.1867 33.7024 16.2346 33.2326C16.3441 33.1849 16.4379 33.0654 16.5161 32.9699C17.4233 31.871 18.3304 30.7801 19.2297 29.6812C19.5816 29.2433 19.9492 28.8053 20.3089 28.3594ZM24.4457 27.149C23.695 27.4357 22.9677 27.7144 22.2405 28.009C22.1153 28.0568 22.0137 28.1762 21.9198 28.2797C21.1144 29.2512 20.3089 30.2227 19.5112 31.2021C18.8856 31.9586 18.2678 32.715 17.6266 33.4954C17.7439 33.5671 17.8143 33.6228 17.8925 33.6626C19.9257 34.7217 22.3343 33.36 22.5455 30.9871C22.5924 30.4536 22.8035 30.2306 23.2805 30.0873C24.5239 29.6971 25.0635 28.2638 24.4457 27.149ZM7.68719 26.6235C8.98534 25.0468 10.2835 23.4782 11.5347 21.9573C11.4252 21.3043 11.2923 20.723 11.2454 20.1258C11.1984 19.5286 11.2375 18.9234 11.2375 18.2386C10.4008 19.003 9.97067 19.8551 9.95503 20.9062C9.94721 21.3043 9.79081 21.5352 9.40762 21.6626C9.07918 21.7741 8.75073 21.9334 8.46921 22.1324C7.0303 23.1517 6.65494 25.3255 7.68719 26.6235ZM8.47703 27.5312C9.39198 27.8896 10.0489 28.439 9.82991 29.6016C9.86901 29.5936 9.90811 29.5777 9.95503 29.5697C11.1202 28.1523 12.2854 26.7429 13.4272 25.3574C12.9501 24.6328 12.4966 23.948 12.0274 23.2393C10.8543 24.6487 9.68915 26.0661 8.47703 27.5312ZM30.694 14.4722C31.7967 13.1344 32.8993 11.7967 34.0098 10.4509C33.5797 9.69448 33.1652 8.9619 32.7429 8.22135C32.6882 8.2532 32.6725 8.26117 32.6647 8.26913C31.9218 9.16893 31.1711 10.0687 30.4282 10.9685C29.6383 11.932 29.7556 13.5883 30.694 14.4722ZM31.609 15.2207C32.4457 15.4755 33.3294 15.5312 33.7595 16.439C34.5103 15.5233 35.2063 14.6792 35.9179 13.8192C35.4878 13.0628 35.0733 12.3381 34.6354 11.5578C33.6188 12.7841 32.6413 13.9785 31.609 15.2207ZM32.0938 7.08267C31.8983 6.74823 31.7185 6.42971 31.5464 6.12713C30.0919 6.54916 29.435 8.15765 30.2248 9.35208C30.8504 8.59561 31.4682 7.8471 32.0938 7.08267ZM34.6745 17.1875C35.6676 17.6732 36.8328 17.307 37.3568 16.3673C37.0909 15.9055 36.825 15.4357 36.5357 14.9261C35.9022 15.6985 35.3001 16.431 34.6745 17.1875Z" fill="#1E4BBE"/>
<path d="M20.0042 12.7285C23.3825 12.7763 26.2994 15.5394 26.4245 18.8519C26.4402 19.1545 26.3854 19.4492 26.0805 19.5368C25.8928 19.5925 25.6191 19.5527 25.4705 19.4332C25.3297 19.3297 25.2672 19.0669 25.2437 18.8758C25.1264 17.554 24.5946 16.4312 23.6719 15.4996C22.0609 13.8752 19.5428 13.5009 17.5252 14.5839C15.5154 15.6588 14.3737 18.0079 14.7804 20.2216C15.2105 22.5786 17.0091 24.3622 19.2535 24.6648C21.5526 24.9674 23.7031 23.7969 24.7354 21.6788C24.7588 21.631 24.7745 21.5832 24.8058 21.5354C25.0013 21.1691 25.3297 21.0338 25.6425 21.193C25.9397 21.3523 26.0335 21.6788 25.8615 22.053C25.1186 23.6774 23.9299 24.84 22.2799 25.4691C18.7452 26.8148 14.8742 24.8639 13.8185 21.2249C12.7471 17.562 14.8977 13.8035 18.5809 12.9276C19.0423 12.8161 19.535 12.7922 20.0042 12.7285Z" fill="#1E4BBE"/>
</g>
<defs>
<clipPath id="clip0_262_1296">
<rect width="40" height="40" fill="white" transform="matrix(-1 0 0 1 40 0)"/>
</clipPath>
</defs>
</svg>
