<svg width="21" height="20" viewBox="0 0 21 20" fill="none" xmlns="http://www.w3.org/2000/svg">
<g clip-path="url(#clip0_62_1110)">
<path d="M20.3793 10.0001C20.3793 11.4827 20.3832 12.9654 20.3793 14.448C20.3754 16.3715 19.6029 17.9088 18.0383 19.0286C17.1175 19.6841 16.0719 19.9884 14.9443 19.9884C11.9127 19.9923 8.88496 20.0196 5.85335 19.9806C3.52015 19.9533 1.84632 18.8218 0.851395 16.7149C0.527556 16.0321 0.406604 15.2908 0.406604 14.5338C0.406604 11.51 0.379292 8.48625 0.414407 5.46246C0.437817 3.13316 1.5654 1.45544 3.67231 0.456611C4.3512 0.136674 5.08082 0.0118205 5.83384 0.0118205C8.86935 0.0118205 11.9088 -0.0193929 14.9443 0.0196238C17.2736 0.0508372 18.9435 1.18232 19.9384 3.29313C20.2662 3.99153 20.3793 4.74455 20.3793 5.51318C20.3754 7.00752 20.3793 8.50576 20.3793 10.0001ZM10.391 1.18232C8.90056 1.18232 7.41402 1.17842 5.92358 1.18622C5.58804 1.19013 5.24469 1.20963 4.91695 1.28377C2.89197 1.75587 1.57711 3.42188 1.57321 5.49367C1.5693 8.49796 1.5693 11.5022 1.57711 14.5026C1.57711 14.8265 1.60052 15.1542 1.67465 15.4702C2.14675 17.4913 3.81277 18.814 5.88456 18.814C8.88886 18.8179 11.8932 18.8179 14.8935 18.8101C15.2096 18.8101 15.5334 18.7867 15.8417 18.7164C17.8354 18.2795 19.1971 16.59 19.2049 14.5377C19.2127 11.51 19.2088 8.47845 19.2049 5.45075C19.2049 4.83819 19.0996 4.24513 18.8303 3.6911C18.0344 2.0524 16.7117 1.20573 14.8935 1.18232C13.3914 1.16672 11.8932 1.18232 10.391 1.18232Z" fill="#ACACAC"/>
<path d="M10.3833 4.5376C13.3837 4.5337 15.8456 6.99176 15.8495 9.99606C15.8534 12.9965 13.3954 15.4584 10.3911 15.4623C7.39067 15.4662 4.92871 13.0082 4.92481 10.0039C4.92091 7.00737 7.37897 4.5415 10.3833 4.5376ZM14.679 9.99216C14.6712 7.62774 12.7321 5.6964 10.3755 5.70811C8.01885 5.71981 6.09922 7.64334 6.09922 9.99606C6.09922 12.3527 8.03445 14.2918 10.3911 14.2879C12.7555 14.2879 14.6868 12.3488 14.679 9.99216Z" fill="#ACACAC"/>
<path d="M15.9864 5.82533C15.1085 5.82923 14.3711 5.09572 14.3711 4.21394C14.3672 3.33606 15.1007 2.59864 15.9825 2.59474C16.8565 2.59084 17.5939 3.32826 17.6017 4.20614C17.6017 5.08011 16.8643 5.82143 15.9864 5.82533ZM16.4195 4.21784C16.4234 3.98764 16.2283 3.78085 15.9942 3.77305C15.7562 3.76525 15.5416 3.97203 15.5416 4.21394C15.5416 4.44414 15.7445 4.65093 15.9786 4.65093C16.2127 4.65483 16.4156 4.45194 16.4195 4.21784Z" fill="#ACACAC"/>
</g>
<defs>
<clipPath id="clip0_62_1110">
<rect width="19.9883" height="20" fill="white" transform="translate(0.390625)"/>
</clipPath>
</defs>
</svg>
