<svg width="21" height="20" viewBox="0 0 21 20" fill="none" xmlns="http://www.w3.org/2000/svg">
<g clip-path="url(#clip0_62_1129)">
<path d="M15.0078 20C14.0284 20 13.0884 19.7314 12.2116 19.1983C12.1129 19.139 11.9786 19.0995 11.8562 19.0995C11.8285 19.0995 11.8009 19.1035 11.7732 19.1074C11.3111 19.1785 10.8412 19.2141 10.3712 19.2141C8.3846 19.2141 6.40592 18.5466 4.80639 17.3381C3.16737 16.0979 2.01808 14.4036 1.48885 12.4329C1.1492 11.169 1.07416 9.87757 1.27163 8.5861C1.29138 8.45182 1.25584 8.28594 1.1808 8.16351C0.221079 6.61532 0.114443 4.69984 0.900384 3.04107C1.68238 1.40205 3.21476 0.280411 5.00387 0.0473934C5.25268 0.0157978 5.5015 0 5.74241 0C6.73373 0 7.68159 0.272512 8.56232 0.813586C8.65316 0.868878 8.77559 0.904423 8.89013 0.904423C8.91777 0.904423 8.94147 0.904423 8.96912 0.900474C9.447 0.825434 9.92883 0.78594 10.4067 0.78594C14.7669 0.78594 18.5544 3.90205 19.4194 8.19115C19.4747 8.46761 19.5181 8.74408 19.5458 9.01659C19.5694 9.22986 19.5773 9.44708 19.5931 9.69984C19.601 9.81833 19.605 9.94076 19.6129 10.075C19.605 10.1698 19.5931 10.2725 19.5852 10.3831C19.5576 10.6912 19.5221 11.0427 19.4826 11.3902C19.4628 11.564 19.4944 11.7062 19.5852 11.8483C20.541 13.3847 20.6437 15.2844 19.8657 16.9352C19.0876 18.5821 17.5513 19.7077 15.7622 19.9447C15.5015 19.9842 15.2527 20 15.0078 20ZM12.0852 17.6896C12.3301 17.6896 12.5394 17.7607 12.7645 17.9226C13.428 18.3965 14.214 18.6453 15.0315 18.6453C16.3625 18.6453 17.5947 17.9858 18.3372 16.8878C19.2851 15.4779 19.2495 13.6848 18.2503 12.3223C18.0687 12.0774 18.0173 11.8365 18.0726 11.5205C18.1358 11.1572 18.1792 10.7978 18.2148 10.4818C18.2266 10.3633 18.2424 10.2488 18.2543 10.1501V10.1382V10.1264C18.2464 9.9842 18.2385 9.85387 18.2306 9.73539C18.2187 9.49842 18.2069 9.29305 18.1832 9.09163C18.1476 8.80332 18.0963 8.50711 18.0292 8.20695C17.2314 4.69194 14.0205 2.1406 10.3949 2.1406C9.88539 2.1406 9.37591 2.19194 8.87828 2.29858C8.79139 2.31833 8.7124 2.32622 8.63341 2.32622C8.42409 2.32622 8.23847 2.25908 8.04495 2.12085C7.36959 1.61927 6.5639 1.35861 5.72267 1.35861C4.55363 1.35861 3.45173 1.86809 2.69739 2.75276C1.4928 4.16667 1.41776 6.19668 2.51176 7.68957C2.68949 7.93444 2.74478 8.17535 2.68159 8.46761C2.42092 9.71564 2.47622 10.9834 2.84352 12.2275C3.82298 15.5411 6.9154 17.8515 10.3633 17.8515C10.8451 17.8515 11.3309 17.8041 11.8048 17.7172C11.9075 17.6975 11.9983 17.6896 12.0852 17.6896Z" fill="#ACACAC"/>
<path d="M10.3158 15.3434C9.364 15.3434 8.47143 15.0393 7.67364 14.4389C7.29449 14.1546 7.00618 13.7952 6.82451 13.3647C6.68628 13.0408 6.82451 12.6617 7.14441 12.4998C7.24315 12.4484 7.35373 12.4247 7.46432 12.4247C7.70523 12.4247 7.91061 12.5432 8.01329 12.7367C8.34505 13.3686 8.89007 13.7399 9.7234 13.9097C9.96827 13.9571 10.2052 13.9848 10.4343 13.9848C11.0149 13.9848 11.548 13.8268 12.022 13.5187C12.2668 13.3607 12.4959 13.1238 12.6618 12.8552C12.9343 12.4168 12.8435 11.9587 12.4209 11.6032C12.0022 11.2517 11.4928 11.0661 11.0504 10.92C10.7661 10.8252 10.4777 10.7344 10.1973 10.6475C9.75105 10.5092 9.28896 10.3631 8.84268 10.2012C8.47538 10.0669 8.10413 9.87733 7.74868 9.64036C7.07727 9.19408 6.67838 8.59771 6.60334 7.91445C6.5204 7.19566 6.79686 6.44921 7.35768 5.85679C7.96985 5.21304 8.75579 4.83389 9.7629 4.69961C9.86953 4.68381 9.98407 4.67591 10.1104 4.66801C10.1381 4.66801 10.1657 4.66406 10.2013 4.66406C10.2289 4.66406 10.2526 4.66406 10.2803 4.66406C10.3079 4.66406 10.3356 4.66406 10.3593 4.66406C11.6981 4.69566 12.7131 5.10245 13.4517 5.91209C13.6255 6.10166 13.7874 6.34653 13.9296 6.63878C14.0796 6.94684 13.9375 7.32994 13.6136 7.49581C13.5149 7.54321 13.4043 7.57085 13.2937 7.57085C13.0567 7.57085 12.8435 7.45237 12.7447 7.25885C12.413 6.63089 11.868 6.25569 11.0346 6.08586C10.8016 6.03847 10.5725 6.01477 10.3474 6.01477C9.83399 6.01477 9.34031 6.14115 8.87427 6.38602C8.45958 6.60324 8.18707 6.88365 8.03699 7.24305C7.85926 7.67354 7.9501 8.06058 8.30555 8.36469C8.75974 8.75569 9.32451 8.94526 9.81819 9.11509C10.1183 9.21777 10.4264 9.31651 10.7226 9.41129C11.1886 9.56137 11.6665 9.7154 12.1326 9.88128C12.5749 10.0393 12.9856 10.2881 13.3529 10.6238C14.2139 11.3979 14.4035 12.5077 13.8545 13.5148C13.4043 14.3363 12.6776 14.8852 11.6902 15.1538C11.2202 15.2802 10.7582 15.3434 10.3158 15.3434Z" fill="#ACACAC"/>
</g>
<defs>
<clipPath id="clip0_62_1129">
<rect width="19.996" height="20" fill="white" transform="translate(0.378906)"/>
</clipPath>
</defs>
</svg>
