<svg width="21" height="17" viewBox="0 0 21 17" fill="none" xmlns="http://www.w3.org/2000/svg">
<g clip-path="url(#clip0_62_1123)">
<path d="M11.7837 13.9303C11.0734 14.5861 10.3747 15.2262 9.67602 15.8702C9.35205 16.1669 8.99686 16.3971 8.548 16.4323C7.81029 16.4908 7.19359 16.0693 6.90865 15.3042C6.69007 14.7149 6.49101 14.1177 6.28024 13.5205C5.8665 12.3378 5.44886 11.1551 5.04292 9.97248C4.99999 9.85148 4.93754 9.79683 4.82044 9.76171C3.71974 9.44945 2.61904 9.145 1.52614 8.81323C1.25292 8.73126 0.975789 8.59465 0.753306 8.42291C0.265406 8.0443 0.253697 7.41198 0.722081 7.00605C0.925047 6.8304 1.17095 6.69379 1.42075 6.59621C7.02965 4.44945 12.6425 2.3105 18.2514 0.167646C18.5714 0.046647 18.8993 -0.0392233 19.2428 0.0193246C20.0312 0.144227 20.5074 0.838996 20.3474 1.68599C20.0898 3.05211 19.8048 4.41433 19.5316 5.77654C18.8876 8.95374 18.2474 12.1309 17.5995 15.3081C17.541 15.597 17.459 15.8936 17.3224 16.1512C16.9594 16.8343 16.2217 17.0919 15.5074 16.7953C15.281 16.7016 15.0663 16.565 14.879 16.4167C13.8446 15.5931 12.822 14.7656 11.7837 13.9303ZM10.0078 10.9834C10.0663 11.0341 10.1132 11.0771 10.16 11.1161C11.9711 12.5759 13.7861 14.0357 15.6011 15.4955C16.089 15.8858 16.3076 15.8 16.4325 15.1793C16.7486 13.6064 17.0687 12.0334 17.3887 10.4604C17.982 7.52517 18.5792 4.58997 19.1647 1.65476C19.192 1.51035 19.1569 1.35422 19.1491 1.20199C18.993 1.21761 18.829 1.2059 18.6846 1.25664C18.1069 1.47131 17.541 1.6977 16.9672 1.91238C11.9906 3.81323 7.01014 5.71409 2.02965 7.61495C1.98281 7.63446 1.93598 7.66179 1.85401 7.70082C3.02887 8.03649 4.1569 8.36046 5.28882 8.68052C5.35908 8.70004 5.45276 8.66881 5.52302 8.63368C8.22013 7.25976 10.9133 5.88193 13.6104 4.5041C14.1998 4.20355 14.7892 3.8991 15.3825 3.59856C15.6128 3.48146 15.8392 3.49317 16.0421 3.6571C16.2334 3.80933 16.3076 4.0201 16.2334 4.25039C16.1905 4.387 16.0929 4.51581 15.9953 4.62119C14.4535 6.26834 12.904 7.91159 11.3583 9.55484C10.9055 10.0271 10.4606 10.5033 10.0078 10.9834ZM7.75174 14.1762C7.77907 14.0904 7.79468 14.0552 7.80248 14.0201C8.04839 13.0248 8.29038 12.0256 8.548 11.0341C8.59093 10.8663 8.68071 10.6907 8.7978 10.5658C10.0898 9.18013 11.3856 7.8062 12.6854 6.42837C12.74 6.36983 12.7986 6.30738 12.8532 6.24883C12.8454 6.24102 12.8376 6.22931 12.8337 6.22151C10.6128 7.35734 8.38796 8.49317 6.16314 9.629C6.69007 11.1395 7.2131 12.6345 7.75174 14.1762ZM10.8587 13.1848C10.3903 12.8101 9.94924 12.451 9.48867 12.0841C9.23886 13.1028 8.99296 14.0943 8.75096 15.0818C8.76267 15.0896 8.77438 15.0935 8.78609 15.1013C9.46915 14.4651 10.1561 13.8327 10.8587 13.1848Z" fill="#ACACAC"/>
</g>
<defs>
<clipPath id="clip0_62_1123">
<rect width="20" height="16.9126" fill="white" transform="translate(0.378906)"/>
</clipPath>
</defs>
</svg>
