<svg width="12" height="20" viewBox="0 0 12 20" fill="none" xmlns="http://www.w3.org/2000/svg">
<path d="M2.84764 11.7897C2.75377 11.7897 2.68336 11.7897 2.61295 11.7897C2.09662 11.7897 1.5842 11.7897 1.06787 11.7897C0.398982 11.7858 0.00391026 11.3985 0.00391026 10.7375C-1.33738e-06 9.75957 -1.33738e-06 8.78167 0.00391026 7.80377C0.00782186 7.15054 0.391159 6.75938 1.04831 6.75155C1.56855 6.74373 2.0927 6.75155 2.61295 6.75155C2.68336 6.75155 2.75377 6.75155 2.84764 6.75155C2.84764 6.63812 2.84373 6.54815 2.84764 6.45818C2.87894 5.67195 2.83982 4.87398 2.95326 4.09949C3.18013 2.55832 3.95854 1.34963 5.35107 0.590782C6.02777 0.223091 6.75924 0.0118648 7.53765 0.0118648C8.51555 0.00795319 9.49345 0.0275112 10.4714 0.00404159C10.8664 -0.00378161 11.2693 0.328704 11.3515 0.700306C11.3788 0.821566 11.3906 0.946737 11.3906 1.068C11.3945 1.94811 11.3945 2.82822 11.3906 3.70833C11.3906 4.40459 10.9994 4.79575 10.2992 4.80358C9.7125 4.80749 9.12576 4.80749 8.53902 4.81922C8.10483 4.83096 8.03051 4.90528 8.01878 5.34338C8.00704 5.80495 8.01487 6.26651 8.01487 6.75155C8.09701 6.75155 8.16742 6.75155 8.23783 6.75155C8.87542 6.75155 9.51692 6.75155 10.1545 6.75155C10.8899 6.75546 11.2732 7.1388 11.2732 7.87809C11.2732 8.81688 11.2732 9.75566 11.2732 10.6944C11.2732 11.4024 10.8821 11.7936 10.1702 11.7936C9.53257 11.7936 8.89107 11.7936 8.25347 11.7936C8.18307 11.7936 8.11266 11.7936 8.00704 11.7936C8.00704 11.8914 8.00704 11.9735 8.00704 12.0557C8.00704 14.3322 8.01096 16.6049 7.99922 18.8814C7.99922 19.1044 7.94055 19.3508 7.83884 19.5503C7.68238 19.8515 7.3851 20.0001 7.04479 20.0001C5.96128 20.0041 4.88168 20.008 3.79816 20.0001C3.27792 19.9962 2.89849 19.609 2.85547 19.0887C2.84764 18.9988 2.84764 18.9049 2.84764 18.8149C2.84764 16.5658 2.84764 14.3166 2.84764 12.0674C2.84764 11.9814 2.84764 11.8953 2.84764 11.7897ZM10.0919 7.92503C9.99805 7.92503 9.92373 7.92503 9.8455 7.92503C9.08273 7.92503 8.31997 7.92894 7.55721 7.92503C7.12302 7.92112 6.8453 7.69816 6.83748 7.29527C6.82574 6.55206 6.82574 5.80886 6.86486 5.06956C6.89615 4.46327 7.19734 4.0017 7.78408 3.78265C7.99922 3.70442 8.23783 3.65748 8.46861 3.64574C8.9693 3.62227 9.46998 3.6301 9.97458 3.62227C10.0489 3.62227 10.1232 3.61445 10.2015 3.61054C10.2015 2.78128 10.2015 1.9794 10.2015 1.1697C10.1741 1.16188 10.1584 1.15014 10.1389 1.15014C9.29005 1.15405 8.44514 1.13058 7.59633 1.16579C6.73577 1.20099 5.94563 1.47089 5.28457 2.0459C4.44358 2.78519 4.08762 3.75135 4.04068 4.83878C4.00548 5.61328 4.02895 6.38777 4.02112 7.16618C4.01721 7.67469 3.76687 7.92112 3.26227 7.92503C2.71465 7.92894 2.16703 7.92503 1.6194 7.92503C1.47858 7.92503 1.33385 7.92503 1.18521 7.92503C1.18521 8.83252 1.18521 9.71264 1.18521 10.6162C1.27518 10.6162 1.3495 10.6162 1.42773 10.6162C2.06141 10.6162 2.69118 10.6123 3.32486 10.6162C3.73949 10.6201 3.99374 10.8666 4.01721 11.2773C4.02112 11.3477 4.02112 11.422 4.02112 11.4924C4.02112 13.8472 4.02112 16.1981 4.02112 18.5529C4.02112 18.635 4.02112 18.7171 4.02112 18.8071C4.96382 18.8071 5.88696 18.8071 6.82183 18.8071C6.82183 18.7093 6.82183 18.6272 6.82183 18.5411C6.82183 16.155 6.82183 13.769 6.82183 11.3829C6.82183 10.8626 7.07217 10.6162 7.5885 10.6123C8.34344 10.6123 9.10229 10.6123 9.85723 10.6123C9.93155 10.6123 10.0059 10.6045 10.088 10.6006C10.0919 9.70481 10.0919 8.83252 10.0919 7.92503Z" fill="#ACACAC"/>
</svg>
