<svg width="20" height="20" viewBox="0 0 20 20" fill="none" xmlns="http://www.w3.org/2000/svg">
<g clip-path="url(#clip0_62_1132)">
<path d="M5.42308 17.7483C5.42308 17.6742 5.42308 17.6046 5.42308 17.5305C5.42308 17.3563 5.41873 17.1777 5.42744 16.9992C5.42744 16.9861 5.42744 16.9774 5.42744 16.973C5.41873 16.9687 5.4013 16.9643 5.37953 16.9643C5.24451 16.9425 5.10514 16.9208 4.97012 16.9033C4.53893 16.838 4.09033 16.7727 3.66785 16.6333C2.80549 16.3458 2.04329 15.7883 1.47273 15.0262C0.915243 14.2814 0.575521 13.3755 0.518901 12.4695C0.388239 10.4443 0.349041 8.75872 0.401305 7.16464L0.410016 6.95123C0.436149 6.13241 0.462281 5.28311 0.566811 4.45558C0.77587 2.81359 1.67308 1.5723 3.23667 0.770907C3.92482 0.409408 4.66524 0.309234 5.42308 0.235192C7.04764 0.0740419 8.37604 0 9.59555 0C10.0224 0 10.4405 0.00871081 10.8412 0.0261324C12.1217 0.0871081 13.6243 0.174216 15.1095 0.37021C17.2175 0.653311 18.9335 2.52614 19.099 4.72562C19.234 6.55053 19.2689 8.48433 19.2036 10.466C19.1731 11.385 19.1339 12.2822 18.9814 13.1577C18.8246 14.0593 18.3543 14.926 17.6574 15.5967C16.9562 16.2718 16.072 16.7073 15.1661 16.8249C14.16 16.9512 13.1321 17.0209 12.1391 17.0863C11.6513 17.1167 11.1461 17.1516 10.6496 17.1908C10.5058 17.2039 10.3839 17.2343 10.2968 17.2823C9.20792 17.8877 8.10601 18.5105 7.03893 19.1115C6.6905 19.3075 6.33771 19.5035 5.98928 19.7039C5.93266 19.7343 5.87604 19.7648 5.81071 19.7997C5.77587 19.8171 5.73667 19.8389 5.69747 19.8607L5.42744 20.0044L5.42308 17.7483ZM9.76977 1.21516C8.33249 1.21516 6.82116 1.30662 5.00496 1.50262C3.19312 1.69861 1.84294 3.09234 1.71664 4.89548C1.54242 7.38677 1.54678 9.88242 1.71664 12.3084C1.79503 13.3842 2.24364 14.264 3.05374 14.9216C3.5851 15.3528 4.21228 15.6098 4.92221 15.6925C5.275 15.7317 5.61907 15.7666 5.98493 15.8058C6.14608 15.8232 6.30723 15.8406 6.47273 15.858L6.63824 15.8755V17.9486C6.87778 17.8136 7.11733 17.6786 7.35688 17.5436C8.17134 17.0863 9.01193 16.6115 9.83946 16.1498C9.99625 16.0627 10.1966 16.0061 10.4057 15.9931C10.9283 15.9539 11.4553 15.919 11.9692 15.8885C12.8882 15.8319 13.8334 15.7709 14.7654 15.6795C15.8586 15.5749 16.7341 15.0131 17.3699 14.0113C17.7706 13.3798 17.8882 12.6742 17.9318 11.8119C18.0581 9.50785 18.0494 7.18642 17.8969 4.9129C17.7837 3.20122 16.525 1.79007 14.9004 1.55924C13.6983 1.38937 12.4527 1.31533 11.3856 1.25436C10.863 1.22822 10.3185 1.21516 9.76977 1.21516Z" fill="#ACACAC"/>
<path d="M11.4548 14.2463C11.3808 14.2463 11.3067 14.2463 11.2327 14.242C11.163 14.242 11.089 14.2376 11.0193 14.2376C9.34244 14.2246 7.82676 13.6889 6.51578 12.6523C5.50968 11.8552 4.75184 10.8361 4.26403 9.62527C3.8764 8.65837 3.70654 7.61307 3.74574 6.43711C3.76316 5.85784 3.93738 5.35697 4.25968 4.95192C4.51229 4.63833 4.77797 4.36394 5.05672 4.1331C5.32675 3.90662 5.67518 3.78467 6.03668 3.78467C6.40689 3.78467 6.75968 3.91533 7.02536 4.15052C7.46526 4.53815 7.90951 4.9824 8.3494 5.47021C8.85463 6.03206 8.86334 6.90749 8.36683 7.51289C8.31892 7.56951 8.27101 7.62613 8.2231 7.6784C8.18825 7.7176 8.15341 7.7568 8.12292 7.796C7.83111 8.14007 7.82676 8.6453 8.11421 8.97195C8.39296 9.2899 8.68913 9.58607 8.98965 9.85175C9.15951 10.0042 9.36421 10.0826 9.58634 10.0826C9.83895 10.0826 10.0916 9.9737 10.2919 9.78206C10.6534 9.43363 11.0454 9.26812 11.4897 9.26812C11.5593 9.26812 11.6334 9.27248 11.7031 9.28119C12.0646 9.32474 12.3869 9.48589 12.683 9.78206C13.0794 10.1697 13.3799 10.4702 13.6543 10.7533C14.3816 11.4981 14.3773 12.4301 13.6499 13.1923C13.2187 13.6409 12.6133 14.168 11.7248 14.2376C11.6421 14.2463 11.5593 14.2463 11.4548 14.2463ZM6.01926 4.99547C5.95393 4.99547 5.89296 5.01725 5.84505 5.05209C5.41386 5.3831 5.00881 5.76638 4.96525 6.35871C4.86943 7.65227 5.11334 8.82387 5.69696 9.83868C6.88599 11.9162 8.66735 12.9397 11.3067 13.0617H11.3198H11.3329C11.3808 13.0704 11.433 13.0747 11.4809 13.0747C11.9078 13.0747 12.3999 12.7873 12.8311 12.2864C13.0271 12.0599 13.0315 11.8552 12.8442 11.6592C12.5219 11.3195 12.1735 10.9667 11.8076 10.6139C11.7161 10.5225 11.6072 10.4746 11.4984 10.4746C11.3895 10.4746 11.2806 10.5225 11.1804 10.6096C11.1586 10.627 11.1369 10.6488 11.1194 10.6706C11.1064 10.6836 11.0933 10.6967 11.0759 10.7098C10.6708 11.0974 10.1308 11.3195 9.59941 11.3195C9.23355 11.3195 8.88076 11.215 8.58024 11.0146C8.07501 10.6793 7.63947 10.2263 7.23442 9.79513C6.68128 9.20279 6.53756 8.44931 6.82066 7.68275C6.9339 7.37352 7.14731 7.10784 7.35202 6.85087L7.36508 6.83781C7.62205 6.51551 7.52623 6.34129 7.41299 6.21934C7.08634 5.87526 6.72048 5.50941 6.29801 5.10436C6.21526 5.03467 6.11508 4.99547 6.01926 4.99547Z" fill="#ACACAC"/>
<path d="M14.5607 8.37109C14.4257 8.37109 14.2602 8.31447 14.2428 8.04879C14.2428 8.03572 14.2428 8.0183 14.2384 8.00959C14.2123 7.8528 14.1905 7.69165 14.1687 7.53921C14.1208 7.18207 14.0773 6.84235 13.9684 6.5244C13.4501 5.01308 12.3395 4.1028 10.6713 3.81535C10.4841 3.78486 10.2968 3.76744 10.0921 3.75002C9.99626 3.74131 9.90044 3.7326 9.80027 3.72389L9.63477 3.70646V2.57406L9.80898 2.56535C9.90916 2.561 10.0137 2.55664 10.1182 2.55664C11.5555 2.55664 12.9405 3.1272 13.9161 4.12458C14.9396 5.16988 15.4666 6.57231 15.4318 8.18381L15.4274 8.36673H15.2445C15.1705 8.36673 15.1008 8.36673 15.0311 8.36673C14.9614 8.36673 14.8961 8.36673 14.8307 8.36673C14.7262 8.36673 14.6435 8.36673 14.5651 8.37109H14.5607Z" fill="#ACACAC"/>
<path d="M13.2058 8.37107C13.062 8.37107 12.9531 8.36671 12.8486 8.358C12.67 8.34493 12.5829 8.1141 12.5655 8.02699C12.5394 7.89197 12.5176 7.75696 12.5002 7.62629C12.4653 7.3911 12.4348 7.17333 12.3608 6.96863C12.0646 6.11933 11.4331 5.63152 10.4314 5.46602C10.2963 5.44424 10.1613 5.43117 10.0176 5.42246C9.94791 5.41811 9.87822 5.4094 9.80418 5.40504L9.63867 5.38762V4.25086L9.81289 4.24215C9.89129 4.23779 9.96968 4.23779 10.0481 4.23779C11.1064 4.23779 12.0603 4.62542 12.7397 5.331C13.4366 6.05399 13.7981 7.0688 13.7589 8.1925L13.7545 8.37107H13.5716C13.5106 8.37107 13.454 8.37107 13.393 8.37107C13.3277 8.37107 13.2667 8.37107 13.2058 8.37107Z" fill="#ACACAC"/>
<path d="M10.8712 8.3535L10.8799 8.16186C10.893 7.78729 10.8189 7.5129 10.6534 7.34304C10.5053 7.1906 10.2701 7.11221 9.95218 7.11221C9.91299 7.11221 9.86943 7.11221 9.82588 7.11656L9.62988 7.12963V5.94932L9.79103 5.92754C9.88685 5.91447 9.98703 5.90576 10.0785 5.90576C10.6534 5.90576 11.2022 6.14966 11.5768 6.57649C11.9644 7.01639 12.1343 7.5913 12.0602 8.1967L12.0384 8.35785H10.8712V8.3535Z" fill="#ACACAC"/>
</g>
<defs>
<clipPath id="clip0_62_1132">
<rect width="18.8589" height="20" fill="white" transform="translate(0.375)"/>
</clipPath>
</defs>
</svg>
