<svg width="21" height="18" viewBox="0 0 21 18" fill="none" xmlns="http://www.w3.org/2000/svg">
<g clip-path="url(#clip0_62_1126)">
<path d="M6.18446 13.1551C5.80548 13.034 5.4265 12.9207 5.05533 12.7878C4.05513 12.4206 3.1448 11.9087 2.38293 11.1469C2.1993 10.9632 2.086 10.764 2.15632 10.5022C2.22665 10.2404 2.41028 10.1076 2.66814 10.049C2.84396 10.0099 3.01587 9.95524 3.22294 9.89663C2.9768 9.74426 2.75019 9.61923 2.53921 9.47467C1.56636 8.8183 0.90217 7.9275 0.558353 6.80228C0.488026 6.56786 0.425514 6.32562 0.390351 6.08339C0.323932 5.66143 0.70682 5.32543 1.12878 5.42701C1.33976 5.4778 1.55074 5.54813 1.76953 5.61455C1.66404 5.29808 1.53901 5.00506 1.46478 4.70422C1.16785 3.53602 1.31631 2.44206 1.99223 1.43405C2.3087 0.961301 2.82052 0.973022 3.10182 1.46921C3.6996 2.53973 4.44974 3.47742 5.40696 4.24319C6.64549 5.23166 8.05201 5.82943 9.62654 6.03651C9.7164 6.04823 9.80626 6.05995 9.90003 6.07167C9.91566 5.74348 9.91957 5.42701 9.95082 5.11055C10.1579 3.16876 11.4707 1.32856 13.5336 0.898789C14.4556 0.707345 15.3464 0.805021 16.1981 1.20744C16.3232 1.26605 16.4169 1.26605 16.542 1.20354C17.2999 0.824556 18.0579 0.45339 18.8198 0.0861308C19.2456 -0.120941 19.6637 0.0509677 19.7301 0.476832C19.7535 0.625298 19.7066 0.801114 19.6402 0.941766C19.3863 1.48875 19.1089 2.02791 18.8393 2.57099C18.8119 2.62569 18.7885 2.68429 18.7494 2.77025C19.0698 2.7429 19.355 2.72727 19.6363 2.69601C19.902 2.66866 20.1325 2.73118 20.2849 2.96169C20.4373 3.19611 20.4021 3.43053 20.2575 3.66104C19.988 4.09082 19.7145 4.52059 19.4566 4.95427C19.4019 5.04413 19.3746 5.17696 19.3902 5.27855C19.7027 7.33363 19.5035 9.32621 18.6635 11.2406C18.1907 12.3151 17.5383 13.2723 16.7686 14.1553C15.155 16.0072 13.0764 16.941 10.6893 17.2535C7.87229 17.6208 5.13738 17.2613 2.49233 16.2299C1.98441 16.0306 1.49604 15.7806 1.08189 15.4094C0.808402 15.1672 0.738076 14.9328 0.839658 14.6671C0.941241 14.4053 1.16003 14.2881 1.51948 14.2803C2.13679 14.2725 2.7541 14.2647 3.37141 14.2334C4.34035 14.1865 5.56715 13.7099 6.18446 13.1551ZM17.8078 1.95368C17.8 1.94587 17.7883 1.93415 17.7805 1.92633C17.4484 2.08652 17.1124 2.23499 16.792 2.4108C16.4716 2.59052 16.1903 2.57099 15.8778 2.38345C15.2292 2.00057 14.5181 1.9107 13.7836 2.06308C12.3341 2.36001 11.3691 3.65323 11.1581 5.07148C11.08 5.59111 11.1307 6.10683 11.2011 6.62646C11.2558 7.03279 10.9745 7.32582 10.5681 7.31019C9.42338 7.26721 8.30597 7.06014 7.23545 6.64209C5.37961 5.9232 3.89495 4.73157 2.73456 3.12188C2.6994 3.07499 2.66424 3.02811 2.59391 2.94216C2.56656 3.14141 2.5353 3.28206 2.52749 3.42272C2.47279 4.34086 2.76973 5.13399 3.38313 5.81771C3.55113 6.00525 3.62146 6.22014 3.52769 6.46628C3.43392 6.70851 3.24247 6.83744 2.98852 6.85307C2.61735 6.88042 2.24228 6.88823 1.8633 6.90386C2.07037 7.40396 2.40637 7.83764 2.83224 8.20099C3.35187 8.6503 3.95746 8.94723 4.60993 9.15039C4.7037 9.17774 4.79747 9.20509 4.89124 9.23635C5.13347 9.31839 5.28584 9.48249 5.3171 9.74426C5.34445 10.0021 5.23505 10.2053 5.01235 10.3303C4.67244 10.5257 4.32472 10.7132 3.93792 10.9281C4.34816 11.1352 4.72714 11.3539 5.12175 11.5259C5.86799 11.854 6.65721 12.0533 7.46596 12.1666C7.73554 12.2057 7.95434 12.3112 8.04811 12.5847C8.13797 12.8503 8.03639 13.0613 7.85666 13.2567C6.81349 14.3819 5.55934 15.1164 4.02779 15.343C3.94574 15.3547 3.85978 15.3782 3.73085 15.4055C4.69589 15.7298 5.62576 15.9291 6.57516 16.0502C8.01685 16.2377 9.45854 16.2455 10.8924 16.0072C12.8967 15.6751 14.6236 14.8351 15.9598 13.2567C16.8311 12.2252 17.5187 11.1 17.925 9.80677C18.3704 8.38853 18.4408 6.94293 18.2024 5.48562C18.1321 5.04413 18.1556 4.64561 18.4486 4.29007C18.5189 4.20412 18.5658 4.09863 18.64 3.97751C18.3158 4.00095 18.0305 4.03221 17.7453 4.03612C17.296 4.04393 17.0225 3.6337 17.1866 3.21565C17.2296 3.10234 17.2921 2.99295 17.3468 2.87964C17.4992 2.5788 17.6516 2.26624 17.8078 1.95368Z" fill="#ACACAC"/>
</g>
<defs>
<clipPath id="clip0_62_1126">
<rect width="20" height="17.3901" fill="white" transform="translate(0.378906)"/>
</clipPath>
</defs>
</svg>
