<svg width="21" height="13" viewBox="0 0 21 13" fill="none" xmlns="http://www.w3.org/2000/svg">
<g clip-path="url(#clip0_62_1104)">
<path d="M12.6311 9.13608C12.6193 9.24163 12.6115 9.29246 12.6115 9.34328C12.6115 9.89449 12.5998 10.4496 12.6154 11.0008C12.6389 11.7592 12.3261 12.2205 11.5912 12.3964C10.5943 12.6349 9.60916 12.5215 8.64356 12.2283C7.36522 11.8374 6.28625 11.1103 5.32065 10.2033C3.87421 8.84289 2.78743 7.22052 1.88438 5.46525C1.30189 4.32764 0.801499 3.15876 0.496573 1.91169C0.453571 1.73968 0.422297 1.56767 0.398841 1.39566C0.312836 0.605982 0.778043 0.043042 1.57945 0.0156769C2.35349 -0.00777894 3.13144 -0.00386963 3.90549 0.0156769C4.46843 0.0274048 4.88672 0.316693 5.11737 0.828812C5.28156 1.19629 5.40666 1.5794 5.55521 1.95469C6.07124 3.27604 6.685 4.54265 7.52159 5.69199C7.6076 5.81317 7.70533 5.92264 7.82261 6.06728C7.83434 6.01255 7.84216 5.98909 7.84216 5.96955C7.84216 5.21896 7.84216 4.47228 7.84606 3.7217C7.84606 3.5145 7.85388 3.3034 7.84606 3.09621C7.83043 2.69355 7.68578 2.3378 7.4395 2.01724C7.33004 1.8726 7.22839 1.72013 7.15412 1.55203C6.82574 0.809266 7.30267 0.0234955 8.11581 0.00785828C9.25341 -0.0155975 10.3949 -0.0116882 11.5364 0.00785828C12.1658 0.0156769 12.5333 0.430063 12.5881 1.1611C12.6193 1.58722 12.6115 2.02115 12.6115 2.44726C12.6115 3.31513 12.6037 4.17909 12.5998 5.04695C12.5998 5.08604 12.6037 5.12123 12.6076 5.20332C12.6975 5.11732 12.7718 5.05868 12.8343 4.98831C13.4989 4.25336 14.0032 3.40895 14.4645 2.53718C14.7343 2.02506 14.9766 1.4973 15.2151 0.969547C15.5005 0.344058 15.9891 0.0117676 16.6928 0.00785828C17.3691 0.00394898 18.0493 0.00394898 18.7257 0.00785828C18.8429 0.00785828 18.9602 0.0195862 19.0736 0.0391327C19.7734 0.160321 20.176 0.723261 19.9845 1.40739C19.8437 1.90387 19.6404 2.38862 19.4059 2.84992C18.7687 4.08917 18.0024 5.25414 17.1971 6.39175C17.0251 6.63804 17.0212 6.63804 17.2284 6.85305C18.0493 7.71701 18.8938 8.56142 19.5935 9.53092C19.8476 9.88276 20.0822 10.2581 20.2581 10.6529C20.3676 10.9031 20.4145 11.2119 20.391 11.4856C20.3402 12.0837 19.8476 12.4903 19.1791 12.5059C18.3973 12.5254 17.6154 12.5215 16.8336 12.5059C16.3957 12.4981 16.0282 12.2948 15.7272 11.9899C15.2816 11.5325 14.8672 11.0438 14.4137 10.5982C13.9993 10.1877 13.5497 9.80457 13.108 9.42537C12.9751 9.31591 12.8109 9.24554 12.6311 9.13608ZM18.7687 1.25884C18.022 1.25884 17.33 1.25102 16.642 1.26665C16.5521 1.27056 16.427 1.36439 16.384 1.45039C16.2354 1.72404 16.126 2.01724 15.9891 2.29871C15.391 3.54187 14.7147 4.73421 13.8117 5.7819C13.4676 6.18065 13.065 6.51294 12.549 6.6654C12.1189 6.7905 11.7358 6.65368 11.5482 6.27838C11.4544 6.08683 11.3801 5.86009 11.3762 5.64507C11.3527 4.26509 11.3527 2.88511 11.3449 1.50121C11.3449 1.42694 11.3449 1.34875 11.3449 1.26665C10.3676 1.26665 9.41761 1.26665 8.43246 1.26665C9.03058 1.99378 9.1205 2.82647 9.10486 3.69824C9.08922 4.50747 9.10486 5.31278 9.10095 6.12201C9.10095 6.30575 9.08922 6.48558 9.06968 6.66931C8.96413 7.50981 8.237 7.86556 7.5255 7.40426C7.23621 7.21661 6.97429 6.96642 6.74755 6.70059C6.05169 5.89136 5.53176 4.96095 5.09001 3.99535C4.72253 3.19394 4.40588 2.36517 4.07359 1.54421C3.95631 1.25884 3.96413 1.25493 3.65138 1.25493C3.05326 1.25493 2.45123 1.25493 1.8531 1.25493C1.79055 1.25493 1.728 1.25884 1.65764 1.26274C1.66936 1.35266 1.67327 1.42303 1.68891 1.49339C1.72019 1.63413 1.74755 1.77486 1.79055 1.91169C2.38477 3.90934 3.33082 5.73499 4.54661 7.4199C5.32456 8.49887 6.21589 9.46837 7.33004 10.2151C8.47546 10.9813 9.71862 11.3878 11.1142 11.2315C11.2941 11.2119 11.3683 11.1611 11.3644 10.9578C11.3566 10.2932 11.3527 9.62866 11.384 8.96407C11.4153 8.33077 11.7241 7.97111 12.2479 7.90465C12.5763 7.86165 12.9047 7.88511 13.2018 8.04148C13.4872 8.19394 13.7726 8.35422 14.0306 8.54969C14.8515 9.17127 15.5396 9.92967 16.2042 10.7076C16.5404 11.0986 16.9039 11.3331 17.4473 11.2745C17.8382 11.2315 18.2409 11.2667 18.6397 11.2667C18.7999 11.2667 18.9641 11.2667 19.1518 11.2667C19.1127 11.165 19.101 11.079 19.054 11.0125C18.7257 10.5434 18.4246 10.0509 18.0572 9.62084C17.4512 8.91325 16.7984 8.24867 16.1729 7.56063C15.8719 7.22834 15.6725 6.84523 15.8093 6.38784C15.8797 6.14937 16.0087 5.92264 16.1494 5.71544C16.9626 4.5192 17.764 3.31904 18.4286 2.03288C18.5536 1.7905 18.6475 1.54031 18.7687 1.25884Z" fill="#ACACAC"/>
</g>
<defs>
<clipPath id="clip0_62_1104">
<rect width="20" height="12.5254" fill="white" transform="translate(0.390625)"/>
</clipPath>
</defs>
</svg>
