<svg width="21" height="20" viewBox="0 0 21 20" fill="none" xmlns="http://www.w3.org/2000/svg">
<g clip-path="url(#clip0_62_1119)">
<path d="M10.395 19.9998C8.61376 19.9724 7.00438 19.5623 5.50829 18.7264C5.3872 18.6599 5.27782 18.6443 5.1411 18.6795C3.93016 19.0076 2.71923 19.3318 1.50829 19.656C1.31688 19.7068 1.13329 19.7068 0.965322 19.5974C0.723135 19.4451 0.637197 19.1834 0.723135 18.8592C1.04345 17.6521 1.36767 16.449 1.69188 15.2459C1.73095 15.1053 1.72313 14.992 1.64892 14.8631C1.02392 13.7576 0.633291 12.5701 0.469228 11.3123C0.234854 9.53495 0.453603 7.80838 1.16063 6.15213C2.21532 3.67166 3.98095 1.8787 6.45751 0.800571C7.92626 0.159946 9.46922 -0.0861479 11.0669 0.0271334C13.5083 0.202915 15.6059 1.14041 17.3598 2.84354C18.8989 4.33963 19.8716 6.14823 20.2231 8.26932C20.688 11.0389 20.1138 13.5896 18.4692 15.867C17.188 17.6404 15.4809 18.8514 13.395 19.5232C12.395 19.8474 11.3716 19.9998 10.395 19.9998ZM2.14892 18.2185C2.24657 18.1951 2.30126 18.1834 2.35595 18.1717C3.16454 17.9568 3.98485 17.7654 4.78173 17.5154C5.28173 17.3553 5.68407 17.4178 6.1411 17.6795C7.81688 18.6326 9.62547 18.9685 11.5395 18.7107C13.5083 18.449 15.2192 17.617 16.5942 16.1873C18.9692 13.7185 19.7192 10.7771 18.7778 7.49198C17.52 3.08963 13.0513 0.429477 8.57469 1.41776C5.10985 2.18338 2.8872 4.36698 1.88329 7.7576C1.46532 9.16776 1.48485 10.6092 1.8286 12.0428C2.03954 12.9295 2.3872 13.7576 2.85985 14.5389C2.99657 14.7654 3.02391 14.992 2.9497 15.2459C2.82079 15.6951 2.7036 16.1482 2.58251 16.6014C2.44188 17.1248 2.30126 17.6521 2.14892 18.2185Z" fill="#ACACAC"/>
<path d="M12.4532 15.41C10.836 15.371 9.51964 14.828 8.32823 13.9569C7.03526 13.0077 6.05089 11.8085 5.44542 10.3163C5.00011 9.21865 4.82042 8.08974 5.10167 6.91787C5.32433 5.98818 5.82823 5.26162 6.66808 4.78115C7.19933 4.48037 7.82823 4.53115 8.27745 4.94912C8.66417 5.30849 9.03917 5.67568 9.39855 6.06631C10.0001 6.71865 9.91808 7.60146 9.21886 8.15224C9.15636 8.19912 9.09386 8.24209 9.02745 8.28896C8.67198 8.53505 8.67198 8.53505 8.77355 8.95302C9.16026 10.5077 10.1837 11.371 11.7228 11.6835C11.8321 11.7069 11.8829 11.6561 11.9454 11.5819C12.1485 11.3319 12.3321 11.0507 12.5743 10.8476C13.0196 10.4804 13.7384 10.4921 14.1642 10.871C14.629 11.2851 15.0743 11.7265 15.4923 12.1913C15.8556 12.5897 15.8751 13.2265 15.5978 13.7069C15.0392 14.6874 14.1681 15.1874 13.086 15.3593C12.84 15.3905 12.586 15.3983 12.4532 15.41ZM6.18761 7.92959C6.18761 8.93349 6.47667 9.77724 6.91808 10.5702C7.60167 11.8046 8.57042 12.7733 9.8048 13.4569C10.6954 13.9491 11.6407 14.2616 12.6759 14.1757C13.4259 14.1132 14.0821 13.8554 14.5001 13.1757C14.5821 13.039 14.5743 12.9413 14.461 12.8319C14.1446 12.5233 13.836 12.2069 13.5196 11.8944C13.3673 11.7421 13.2931 11.7538 13.1642 11.9374C12.9962 12.1757 12.8321 12.4179 12.6642 12.6601C12.5001 12.8944 12.2735 12.996 11.9884 12.9413C11.6837 12.8827 11.3712 12.8436 11.0704 12.7616C10.0235 12.4686 9.10558 11.9726 8.44542 11.0741C7.88292 10.3085 7.59386 9.43349 7.44151 8.5038C7.37511 8.08974 7.51183 7.8163 7.85948 7.60537C8.07042 7.48037 8.26573 7.32412 8.46886 7.18349C8.59776 7.09365 8.6212 6.99209 8.50792 6.87881C8.17198 6.54287 7.83995 6.20302 7.4962 5.8749C7.44933 5.82802 7.31261 5.81631 7.25792 5.84756C7.08995 5.95302 6.91808 6.07021 6.78526 6.21865C6.32042 6.72646 6.19933 7.35146 6.18761 7.92959Z" fill="#ACACAC"/>
</g>
<defs>
<clipPath id="clip0_62_1119">
<rect width="20" height="20" fill="white" transform="translate(0.378906)"/>
</clipPath>
</defs>
</svg>
