<svg width="21" height="15" viewBox="0 0 21 15" fill="none" xmlns="http://www.w3.org/2000/svg">
<g clip-path="url(#clip0_62_1115)">
<path d="M6.83595 14.7801C5.94484 14.7801 5.21121 14.7763 4.53136 14.7724C2.80291 14.7571 1.53539 13.9543 0.75951 12.3872C0.509846 11.8802 0.386935 11.3155 0.386935 10.6587C0.386935 10.0365 0.386935 9.41425 0.386935 8.79201C0.379253 7.25946 0.375412 5.67313 0.383094 4.10985C0.386935 2.99213 0.813284 1.95506 1.57764 1.1907C2.34584 0.43019 3.3829 0.00768197 4.50063 0.00384098C6.31358 0 8.22255 0 10.1853 0C12.1135 0 14.0993 0 16.2579 0.00384098C18.2206 0.00768197 19.8377 1.29825 20.2794 3.2149C20.3409 3.48377 20.3716 3.79105 20.3754 4.12522C20.3831 6.23007 20.3831 8.42328 20.3793 10.6357C20.3754 12.4448 19.3115 13.9466 17.6061 14.5535C17.1951 14.6994 16.738 14.7724 16.2003 14.7724H16.1926C15.2938 14.7724 14.395 14.7724 13.4962 14.7724H10.362C9.7743 14.7724 9.18663 14.7724 8.59896 14.7763C8.01129 14.7801 7.42362 14.7801 6.83595 14.7801ZM10.3773 13.6432C10.9727 13.6432 11.568 13.6432 12.1596 13.6432C12.7549 13.6432 13.3503 13.6432 13.9418 13.6432C14.8329 13.6432 15.5665 13.6432 16.2502 13.6393C17.9441 13.6316 19.2308 12.3564 19.2347 10.6703C19.2423 8.5001 19.2423 6.29153 19.2347 4.10217C19.227 2.41214 17.9518 1.13693 16.2694 1.13309C14.3143 1.12925 12.3324 1.12541 10.3773 1.12541C8.42228 1.12541 6.43649 1.12925 4.47758 1.13309C2.79523 1.13693 1.52003 2.41214 1.51234 4.10217C1.50082 6.44901 1.50466 8.59996 1.51618 10.6703C1.52003 11.0083 1.5738 11.3424 1.66982 11.6343C2.08849 12.8711 3.17933 13.6393 4.51599 13.6432C5.29571 13.6432 6.07544 13.647 6.85515 13.647C7.44667 13.647 8.04202 13.647 8.63353 13.647C9.21736 13.647 9.79735 13.6432 10.3773 13.6432Z" fill="#1E4BBE"/>
<path d="M8.22191 11.404C7.90695 11.404 7.67649 11.2312 7.61888 10.9546C7.60352 10.8855 7.60352 10.8202 7.60352 10.7664C7.60352 8.7422 7.60352 6.58357 7.60352 4.41342C7.60352 4.30203 7.61888 4.20984 7.64577 4.13302C7.72643 3.91025 7.92232 3.77197 8.15278 3.77197C8.26416 3.77197 8.37555 3.8027 8.4831 3.86416C8.80958 4.05236 9.13991 4.24441 9.45871 4.43262C9.59314 4.50944 9.72758 4.5901 9.86201 4.66692L10.177 4.85129C11.4138 5.57339 12.6467 6.2955 13.8835 7.02144L13.9066 7.03296C13.9603 7.06369 14.0141 7.09442 14.064 7.13283C14.2177 7.2519 14.3022 7.4209 14.2983 7.60143C14.2945 7.77811 14.2023 7.93944 14.0487 8.04698C13.945 8.11996 13.8336 8.18142 13.726 8.24287C13.6876 8.26592 13.6492 8.28896 13.607 8.31201L13.0923 8.61545C11.6135 9.48351 10.0809 10.3785 8.57528 11.258C8.49462 11.3041 8.41396 11.3387 8.35251 11.3656C8.3333 11.3733 8.31794 11.381 8.30257 11.3886L8.27185 11.404H8.23728C8.23728 11.404 8.2296 11.404 8.22191 11.404ZM8.75197 9.85224L12.616 7.58991L8.75197 5.32757V9.85224Z" fill="#1E4BBE"/>
</g>
<defs>
<clipPath id="clip0_62_1115">
<rect width="20" height="14.7801" fill="white" transform="translate(0.378906)"/>
</clipPath>
</defs>
</svg>
