<svg width="120" height="107" viewBox="0 0 120 107" fill="none" xmlns="http://www.w3.org/2000/svg">
<path d="M114.556 0.00531084C113.211 0.0589807 111.895 0.656629 110.971 1.63541C97.1894 16.0543 66.1104 49.3508 50.494 65.7799L32.1554 49.6016C30.1068 47.7877 26.5928 48.0006 24.7789 50.0491C22.9651 52.0977 23.1788 55.6127 25.2274 57.4256L47.3965 76.9868C49.4005 78.7615 52.8136 78.6087 54.65 76.6611C69.2154 61.4218 104.135 23.9297 118.55 8.84895C119.996 7.35804 120.415 4.9621 119.56 3.06908C118.705 1.1761 116.631 -0.093776 114.556 0.00542721L114.556 0.00531084ZM0 13.0871V101.765C0 104.495 2.4852 106.98 5.21586 106.98H96.5015C99.2324 106.98 101.717 104.495 101.717 101.765V56.1217C101.756 53.3655 99.2577 50.8311 96.5015 50.8311C93.7452 50.8311 91.2465 53.3655 91.2856 56.1217V96.5482H10.4326V18.3034H80.853C83.6083 18.3425 86.1436 15.8438 86.1436 13.0876C86.1436 10.3313 83.6083 7.83259 80.853 7.87171H5.21632C2.06068 7.92902 0.0577536 10.89 0.000467264 13.0876L0 13.0871Z" fill="#1E4BBE"/>
</svg>
