<?xml version="1.0" ?><svg data-name="Layer 1" id="Layer_1" viewBox="0 0 64 64" xmlns="http://www.w3.org/2000/svg"><defs><style>.cls-1{fill:#190933;}</style></defs><title/><path class="cls-1" d="M18.31,45.69C24.47,51.85,41.13,64,51,64a7.22,7.22,0,0,0,5.32-1.91,61.32,61.32,0,0,0,6.49-7.59,6.2,6.2,0,0,0-1-8.27c-3.69-3.16-12.62-10.16-15.75-7-2.22,2.23-8.13,8.14-11.22,5.06L19.72,29.12c-3.08-3.09,2.83-9,5.06-11.22,3.13-3.13-3.87-12.06-7-15.75a6.2,6.2,0,0,0-8.27-1A60.47,60.47,0,0,0,1.89,7.64C-5.6,15.13,10.81,38.19,18.31,45.69Zm29.21-5c1-1,6.32,1.39,13,7.13a4.19,4.19,0,0,1,.81,5.33L46.51,41.63ZM16.23,3.44c5.74,6.72,8.17,12,7.13,13-.43.44-1,1-1.58,1.63L10.78,2.7A4.18,4.18,0,0,1,16.23,3.44ZM3.3,9.05A59.26,59.26,0,0,1,10,3.29L21.09,18.86c-2.91,3.27-6.25,8.2-2.78,11.67L33.47,45.69c3.71,3.71,9.08-.36,12.31-3.37l15,11.6A60.13,60.13,0,0,1,55,60.7c-5.53,5.52-26.16-7.36-35.23-16.42S-2.22,14.58,3.3,9.05Z"/><path class="cls-1" d="M32,0A31.86,31.86,0,0,0,21.68,1.7a1,1,0,0,0,.64,1.9A30,30,0,0,1,60.4,41.68,1,1,0,0,0,61,43a1.19,1.19,0,0,0,.32,0,1,1,0,0,0,.95-.68A32,32,0,0,0,32,0Z"/><path class="cls-1" d="M32,10a1,1,0,0,0-1,1V32a1,1,0,0,0,.51.87l9,5A1,1,0,0,0,41,38a1,1,0,0,0,.49-1.87L33,31.41V11A1,1,0,0,0,32,10Z"/><path class="cls-1" d="M32,4.5A1.5,1.5,0,1,0,33.5,6,1.5,1.5,0,0,0,32,4.5Zm0,2a.5.5,0,1,1,.5-.5A.5.5,0,0,1,32,6.5Z"/><path class="cls-1" d="M44.25,10.78A1.46,1.46,0,0,0,45,11a1.5,1.5,0,0,0,1.3-.75h0a1.5,1.5,0,1,0-2.75-.36A1.46,1.46,0,0,0,44.25,10.78Zm.32-1.55A.5.5,0,0,1,45,9a.45.45,0,0,1,.25.07.49.49,0,0,1,.18.68.51.51,0,0,1-.68.19.48.48,0,0,1-.23-.31A.46.46,0,0,1,44.57,9.23Z"/><path class="cls-1" d="M54.13,20.45a1.74,1.74,0,0,0,.39.05,1.53,1.53,0,0,0,.75-.2,1.5,1.5,0,0,0-1.5-2.6,1.49,1.49,0,0,0-.55,2.05A1.46,1.46,0,0,0,54.13,20.45Zm.14-1.88a.43.43,0,0,1,.25-.07.5.5,0,0,1,.25.93.46.46,0,0,1-.38.05.48.48,0,0,1-.31-.23A.5.5,0,0,1,54.27,18.57Z"/><path class="cls-1" d="M59.5,32A1.5,1.5,0,1,0,58,33.5,1.5,1.5,0,0,0,59.5,32Zm-2,0a.5.5,0,1,1,.5.5A.5.5,0,0,1,57.5,32Z"/></svg>