<svg width="160" height="50" viewBox="0 0 160 50" fill="none" xmlns="http://www.w3.org/2000/svg">
<rect x="0.394089" y="0.394089" width="159.212" height="49.2118" rx="7.48768" stroke="white" stroke-width="0.788177"/>
<g clip-path="url(#clip0_78_1728)">
<path d="M28.6204 10.9039C28.6901 10.9039 28.7598 10.9039 28.8334 10.9039C29.0044 13.0161 28.1982 14.5943 27.2184 15.7372C26.257 16.8722 24.9405 17.9731 22.8112 17.806C22.6692 15.7241 23.4767 14.2629 24.4552 13.1226C25.3627 12.06 27.0264 11.1144 28.6204 10.9039Z" fill="white"/>
<path d="M35.0662 32.8886C35.0662 32.9096 35.0662 32.928 35.0662 32.9478C34.4678 34.7601 33.6142 36.3133 32.5726 37.7548C31.6217 39.0634 30.4565 40.8244 28.3758 40.8244C26.578 40.8244 25.3838 39.6684 23.5412 39.6368C21.5921 39.6053 20.5202 40.6035 18.7381 40.8547C18.5343 40.8547 18.3304 40.8547 18.1305 40.8547C16.8219 40.6653 15.7658 39.6289 14.9964 38.6951C12.7277 35.9359 10.9746 32.3717 10.6484 27.8107C10.6484 27.3635 10.6484 26.9176 10.6484 26.4705C10.7865 23.2062 12.3726 20.5521 14.4809 19.2659C15.5935 18.582 17.1231 17.9994 18.8263 18.2598C19.5562 18.3729 20.3019 18.6228 20.9556 18.87C21.575 19.1081 22.3497 19.5302 23.0835 19.5079C23.5807 19.4934 24.0752 19.2343 24.5763 19.0515C26.044 18.5215 27.4828 17.9139 29.3793 18.1993C31.6585 18.5439 33.2762 19.5566 34.2758 21.119C32.3477 22.3461 30.8234 24.1952 31.0838 27.353C31.3153 30.2214 32.9829 31.8996 35.0662 32.8886Z" fill="white"/>
</g>
<path d="M46.3769 10.0381H48.959C49.7976 10.0381 50.5259 10.1926 51.1438 10.5016C51.7617 10.8105 52.2362 11.2519 52.5673 11.8257C52.8983 12.3995 53.0638 13.0763 53.0638 13.856C53.0638 15.136 52.6923 16.1071 51.9493 16.7692C51.2063 17.4239 50.1691 17.7512 48.8376 17.7512H46.3769V10.0381ZM48.8597 16.5926C49.7571 16.5926 50.445 16.3535 50.9231 15.8754C51.4086 15.3898 51.6514 14.7167 51.6514 13.856C51.6514 13.3337 51.5447 12.874 51.3314 12.4767C51.1181 12.0721 50.8128 11.7595 50.4155 11.5388C50.0183 11.3108 49.5475 11.1967 49.0031 11.1967H47.7783V16.5926H48.8597ZM56.7138 17.9167C56.0959 17.9167 55.5515 17.8064 55.0807 17.5857C54.6173 17.3577 54.2568 17.034 53.9993 16.6147C53.7419 16.188 53.6131 15.6841 53.6131 15.1029C53.6131 14.5365 53.7382 14.0436 53.9883 13.6243C54.2458 13.1977 54.6099 12.8703 55.0807 12.6423C55.5515 12.4069 56.0959 12.2892 56.7138 12.2892C57.3317 12.2892 57.8724 12.4069 58.3359 12.6423C58.8067 12.8703 59.1708 13.1977 59.4283 13.6243C59.6858 14.0436 59.8145 14.5365 59.8145 15.1029C59.8145 15.6841 59.6858 16.188 59.4283 16.6147C59.1708 17.034 58.8067 17.3577 58.3359 17.5857C57.8724 17.8064 57.3317 17.9167 56.7138 17.9167ZM56.7138 16.8243C57.2214 16.8243 57.626 16.6662 57.9276 16.3498C58.2292 16.0262 58.38 15.6105 58.38 15.1029C58.38 14.5659 58.2292 14.1466 57.9276 13.845C57.6334 13.536 57.2288 13.3816 56.7138 13.3816C56.1989 13.3816 55.7906 13.536 55.489 13.845C55.1947 14.1466 55.0476 14.5659 55.0476 15.1029C55.0476 15.6105 55.1984 16.0262 55.5 16.3498C55.8016 16.6662 56.2062 16.8243 56.7138 16.8243ZM59.9709 12.4547H61.3612L62.4426 16.0409L63.5019 12.4547H64.7157L65.775 16.0409L66.8564 12.4547H68.2467L66.5143 17.7512H65.2343L64.1088 14.154L62.9833 17.7512H61.7033L59.9709 12.4547ZM69.0709 12.4547H70.4171V13.1719C70.6672 12.8703 70.9651 12.6496 71.3109 12.5098C71.6566 12.3627 72.0208 12.2892 72.4033 12.2892C73.1169 12.2892 73.6502 12.4841 74.0033 12.874C74.3564 13.2565 74.5329 13.7678 74.5329 14.4078V17.7512H73.1426V14.5402C73.1426 13.7678 72.7821 13.3816 72.0612 13.3816C71.7449 13.3816 71.447 13.4588 71.1674 13.6133C70.8879 13.7604 70.6525 13.9848 70.4612 14.2864V17.7512H69.0709V12.4547ZM75.8058 9.59674H77.1961V17.7512H75.8058V9.59674ZM81.4013 17.9167C80.7834 17.9167 80.239 17.8064 79.7682 17.5857C79.3048 17.3577 78.9443 17.034 78.6868 16.6147C78.4294 16.188 78.3006 15.6841 78.3006 15.1029C78.3006 14.5365 78.4257 14.0436 78.6758 13.6243C78.9333 13.1977 79.2974 12.8703 79.7682 12.6423C80.239 12.4069 80.7834 12.2892 81.4013 12.2892C82.0192 12.2892 82.5599 12.4069 83.0234 12.6423C83.4942 12.8703 83.8583 13.1977 84.1158 13.6243C84.3733 14.0436 84.502 14.5365 84.502 15.1029C84.502 15.6841 84.3733 16.188 84.1158 16.6147C83.8583 17.034 83.4942 17.3577 83.0234 17.5857C82.5599 17.8064 82.0192 17.9167 81.4013 17.9167ZM81.4013 16.8243C81.9089 16.8243 82.3135 16.6662 82.6151 16.3498C82.9167 16.0262 83.0675 15.6105 83.0675 15.1029C83.0675 14.5659 82.9167 14.1466 82.6151 13.845C82.3209 13.536 81.9163 13.3816 81.4013 13.3816C80.8864 13.3816 80.4781 13.536 80.1765 13.845C79.8822 14.1466 79.7351 14.5659 79.7351 15.1029C79.7351 15.6105 79.8859 16.0262 80.1875 16.3498C80.4891 16.6662 80.8937 16.8243 81.4013 16.8243ZM87.2629 17.9167C86.6303 17.9167 86.1117 17.7512 85.7071 17.4202C85.3025 17.0818 85.1002 16.6294 85.1002 16.0629C85.1002 15.4744 85.2915 15.0147 85.674 14.6836C86.0565 14.3526 86.5935 14.1871 87.285 14.1871C87.9544 14.1871 88.5319 14.3232 89.0174 14.5954V14.4519C89.0174 14.0767 88.8997 13.8046 88.6643 13.6354C88.4363 13.4662 88.0648 13.3816 87.5498 13.3816C87.2262 13.3816 86.9062 13.4147 86.5898 13.4809C86.2735 13.5397 85.994 13.6243 85.7512 13.7347V12.6423C85.9719 12.5393 86.2662 12.4547 86.634 12.3885C87.0092 12.3223 87.3696 12.2892 87.7154 12.2892C88.6349 12.2892 89.3154 12.4878 89.7567 12.885C90.1981 13.2749 90.4188 13.8193 90.4188 14.5181V17.7512H89.1057V17.2326C88.8777 17.4533 88.6165 17.6225 88.3223 17.7402C88.0354 17.8579 87.6823 17.9167 87.2629 17.9167ZM87.605 16.9016C87.914 16.9016 88.1935 16.8427 88.4436 16.725C88.6938 16.6 88.885 16.4308 89.0174 16.2174V15.6326C88.6128 15.3457 88.1494 15.2023 87.6271 15.2023C86.8841 15.2023 86.5126 15.4892 86.5126 16.0629C86.5126 16.3425 86.6046 16.5521 86.7885 16.6919C86.9797 16.8317 87.2519 16.9016 87.605 16.9016ZM94.2604 17.9167C93.7234 17.9167 93.2416 17.8027 92.8149 17.5747C92.3956 17.3393 92.0646 17.0119 91.8218 16.5926C91.5864 16.1659 91.4687 15.6731 91.4687 15.114C91.4687 14.5623 91.5864 14.0731 91.8218 13.6464C92.0646 13.2197 92.3956 12.8887 92.8149 12.6533C93.2416 12.4105 93.7234 12.2892 94.2604 12.2892C95.1285 12.2892 95.8126 12.5172 96.3129 12.9733V9.59674H97.7032V17.7512H96.357V17.1333C96.0554 17.4128 95.7427 17.6151 95.4191 17.7402C95.0954 17.8579 94.7092 17.9167 94.2604 17.9167ZM94.6025 16.8243C94.9998 16.8243 95.3529 16.7177 95.6618 16.5043C95.9708 16.291 96.1878 16.0041 96.3129 15.6436V14.5733C96.1952 14.2128 95.9781 13.9259 95.6618 13.7126C95.3529 13.4919 94.9998 13.3816 94.6025 13.3816C94.1023 13.3816 93.6903 13.5434 93.3667 13.8671C93.043 14.1908 92.8811 14.6064 92.8811 15.114C92.8811 15.6216 93.043 16.0335 93.3667 16.3498C93.6903 16.6662 94.1023 16.8243 94.6025 16.8243ZM105.884 17.9167C105.266 17.9167 104.722 17.8064 104.251 17.5857C103.788 17.3577 103.427 17.034 103.17 16.6147C102.912 16.188 102.783 15.6841 102.783 15.1029C102.783 14.5365 102.908 14.0436 103.159 13.6243C103.416 13.1977 103.78 12.8703 104.251 12.6423C104.722 12.4069 105.266 12.2892 105.884 12.2892C106.502 12.2892 107.043 12.4069 107.506 12.6423C107.977 12.8703 108.341 13.1977 108.599 13.6243C108.856 14.0436 108.985 14.5365 108.985 15.1029C108.985 15.6841 108.856 16.188 108.599 16.6147C108.341 17.034 107.977 17.3577 107.506 17.5857C107.043 17.8064 106.502 17.9167 105.884 17.9167ZM105.884 16.8243C106.392 16.8243 106.796 16.6662 107.098 16.3498C107.399 16.0262 107.55 15.6105 107.55 15.1029C107.55 14.5659 107.399 14.1466 107.098 13.845C106.804 13.536 106.399 13.3816 105.884 13.3816C105.369 13.3816 104.961 13.536 104.659 13.845C104.365 14.1466 104.218 14.5659 104.218 15.1029C104.218 15.6105 104.369 16.0262 104.67 16.3498C104.972 16.6662 105.376 16.8243 105.884 16.8243ZM110.084 12.4547H111.43V13.1719C111.68 12.8703 111.978 12.6496 112.324 12.5098C112.67 12.3627 113.034 12.2892 113.416 12.2892C114.13 12.2892 114.663 12.4841 115.016 12.874C115.369 13.2565 115.546 13.7678 115.546 14.4078V17.7512H114.156V14.5402C114.156 13.7678 113.795 13.3816 113.074 13.3816C112.758 13.3816 112.46 13.4588 112.18 13.6133C111.901 13.7604 111.665 13.9848 111.474 14.2864V17.7512H110.084V12.4547ZM122.925 17.9167C122.344 17.9167 121.902 17.7549 121.601 17.4312C121.299 17.1075 121.148 16.6515 121.148 16.0629V13.514H120.354V12.4547H121.148V10.8657H122.538V12.4547H123.807V13.514H122.538V15.8864C122.538 16.2248 122.601 16.4675 122.726 16.6147C122.851 16.7544 123.079 16.8243 123.41 16.8243C123.638 16.8243 123.863 16.7728 124.083 16.6698V17.7292C123.767 17.8542 123.381 17.9167 122.925 17.9167ZM125.073 9.59674H126.463V13.1278C126.964 12.5687 127.611 12.2892 128.405 12.2892C129.119 12.2892 129.652 12.4841 130.005 12.874C130.359 13.2565 130.535 13.7678 130.535 14.4078V17.7512H129.145V14.5402C129.145 13.7678 128.784 13.3816 128.063 13.3816C127.747 13.3816 127.449 13.4588 127.17 13.6133C126.89 13.7604 126.655 13.9848 126.463 14.2864V17.7512H125.073V9.59674ZM134.787 17.9167C133.802 17.9167 133.022 17.6703 132.448 17.1774C131.874 16.6846 131.587 15.9967 131.587 15.114C131.587 14.2459 131.841 13.5581 132.349 13.0505C132.856 12.5429 133.581 12.2892 134.522 12.2892C135.14 12.2892 135.666 12.4069 136.1 12.6423C136.542 12.8777 136.873 13.2013 137.093 13.6133C137.314 14.0179 137.425 14.4813 137.425 15.0036V15.6436H132.911C133.007 16.4308 133.691 16.8243 134.964 16.8243C135.302 16.8243 135.648 16.7949 136.001 16.736C136.354 16.6772 136.663 16.5963 136.928 16.4933V17.5636C136.678 17.6666 136.354 17.7512 135.957 17.8174C135.567 17.8836 135.177 17.9167 134.787 17.9167ZM136.111 14.6947C136.097 14.2754 135.946 13.9517 135.659 13.7236C135.379 13.4956 134.993 13.3816 134.5 13.3816C134.015 13.3816 133.632 13.4993 133.353 13.7347C133.073 13.9701 132.926 14.2901 132.911 14.6947H136.111Z" fill="white"/>
<path d="M52.5247 23.6986H55.1422L61.0796 38.5739H58.3344L56.9724 35.1477H50.6733L49.3326 38.5739H46.5661L52.5247 23.6986ZM56.2276 32.9132L53.8228 26.5928L51.4181 32.9132H56.2276ZM63.2017 28.3591H65.7979V29.5934C66.3512 29.0685 66.9542 28.6783 67.6068 28.4229C68.2594 28.1676 69.0042 28.0399 69.8413 28.0399C70.8769 28.0399 71.7991 28.2669 72.6078 28.7209C73.4306 29.1607 74.0691 29.792 74.523 30.6149C74.9912 31.4235 75.2253 32.367 75.2253 33.4452C75.2253 34.5093 74.9912 35.4527 74.523 36.2756C74.0691 37.0984 73.4306 37.7439 72.6078 38.2121C71.7991 38.6661 70.8769 38.8931 69.8413 38.8931C69.061 38.8931 68.3232 38.7867 67.6281 38.5739C66.9471 38.3469 66.3654 38.0135 65.883 37.5737V43.2344H63.2017V28.3591ZM69.1816 36.7863C70.1463 36.7863 70.9408 36.4742 71.565 35.8499C72.1893 35.2257 72.5014 34.4241 72.5014 33.4452C72.5014 32.4663 72.1893 31.6718 71.565 31.0618C70.9408 30.4517 70.1463 30.1467 69.1816 30.1467C68.4155 30.1467 67.7345 30.3524 67.1386 30.7638C66.5427 31.1753 66.1242 31.7286 65.883 32.4237V34.488C66.11 35.1831 66.5215 35.7435 67.1173 36.1692C67.7274 36.5806 68.4155 36.7863 69.1816 36.7863ZM77.3542 28.3591H79.9505V29.5934C80.5038 29.0685 81.1067 28.6783 81.7593 28.4229C82.412 28.1676 83.1568 28.0399 83.9938 28.0399C85.0295 28.0399 85.9517 28.2669 86.7603 28.7209C87.5832 29.1607 88.2216 29.792 88.6756 30.6149C89.1438 31.4235 89.3779 32.367 89.3779 33.4452C89.3779 34.5093 89.1438 35.4527 88.6756 36.2756C88.2216 37.0984 87.5832 37.7439 86.7603 38.2121C85.9517 38.6661 85.0295 38.8931 83.9938 38.8931C83.2135 38.8931 82.4758 38.7867 81.7806 38.5739C81.0996 38.3469 80.518 38.0135 80.0356 37.5737V43.2344H77.3542V28.3591ZM83.3341 36.7863C84.2989 36.7863 85.0933 36.4742 85.7176 35.8499C86.3418 35.2257 86.6539 34.4241 86.6539 33.4452C86.6539 32.4663 86.3418 31.6718 85.7176 31.0618C85.0933 30.4517 84.2989 30.1467 83.3341 30.1467C82.568 30.1467 81.887 30.3524 81.2912 30.7638C80.6953 31.1753 80.2768 31.7286 80.0356 32.4237V34.488C80.2626 35.1831 80.674 35.7435 81.2699 36.1692C81.8799 36.5806 82.568 36.7863 83.3341 36.7863ZM103.474 38.8931C102.594 38.8931 101.722 38.808 100.857 38.6377C100.005 38.4817 99.303 38.2689 98.7497 37.9993V35.6797C99.4591 36.0202 100.204 36.2756 100.984 36.4458C101.765 36.6161 102.531 36.7012 103.283 36.7012C104.233 36.7012 104.957 36.5238 105.453 36.1692C105.95 35.8145 106.198 35.325 106.198 34.7008C106.198 34.261 106.085 33.8992 105.858 33.6155C105.631 33.3175 105.297 33.0622 104.857 32.8494C104.418 32.6224 103.744 32.3315 102.836 31.9768C101.445 31.4094 100.438 30.778 99.8138 30.0828C99.1895 29.3877 98.8774 28.5223 98.8774 27.4866C98.8774 26.6779 99.0973 25.9615 99.5371 25.3372C99.9769 24.713 100.594 24.2306 101.389 23.8901C102.183 23.5496 103.098 23.3794 104.134 23.3794C104.985 23.3794 105.737 23.4503 106.39 23.5922C107.056 23.7199 107.709 23.9256 108.347 24.2094V26.4651C107.113 25.8693 105.865 25.5713 104.602 25.5713C103.694 25.5713 102.992 25.7416 102.495 26.0821C101.999 26.4084 101.75 26.8765 101.75 27.4866C101.75 27.9264 101.864 28.2882 102.091 28.5719C102.318 28.8415 102.616 29.0756 102.985 29.2742C103.368 29.4586 104.049 29.7565 105.028 30.168C106.021 30.5794 106.801 30.9837 107.368 31.381C107.95 31.7782 108.383 32.2464 108.667 32.7855C108.965 33.3104 109.113 33.956 109.113 34.7221C109.113 36.0415 108.638 37.07 107.688 37.8078C106.737 38.5313 105.333 38.8931 103.474 38.8931ZM114.609 38.8931C113.488 38.8931 112.637 38.581 112.055 37.9567C111.473 37.3325 111.183 36.4529 111.183 35.3179V30.4021H109.65V28.3591H111.183V25.2947H113.864V28.3591H116.311V30.4021H113.864V34.9774C113.864 35.63 113.984 36.0982 114.226 36.382C114.467 36.6515 114.907 36.7863 115.545 36.7863C115.985 36.7863 116.418 36.687 116.843 36.4884V38.5313C116.233 38.7725 115.488 38.8931 114.609 38.8931ZM124.202 38.8931C123.011 38.8931 121.961 38.6803 121.053 38.2547C120.159 37.8149 119.464 37.1906 118.967 36.382C118.471 35.5591 118.222 34.5873 118.222 33.4665C118.222 32.3741 118.464 31.4235 118.946 30.6149C119.443 29.792 120.145 29.1607 121.053 28.7209C121.961 28.2669 123.011 28.0399 124.202 28.0399C125.394 28.0399 126.437 28.2669 127.331 28.7209C128.239 29.1607 128.941 29.792 129.437 30.6149C129.934 31.4235 130.182 32.3741 130.182 33.4665C130.182 34.5873 129.934 35.5591 129.437 36.382C128.941 37.1906 128.239 37.8149 127.331 38.2547C126.437 38.6803 125.394 38.8931 124.202 38.8931ZM124.202 36.7863C125.181 36.7863 125.962 36.4813 126.543 35.8712C127.125 35.247 127.416 34.4454 127.416 33.4665C127.416 32.4308 127.125 31.6222 126.543 31.0405C125.976 30.4446 125.195 30.1467 124.202 30.1467C123.209 30.1467 122.422 30.4446 121.84 31.0405C121.273 31.6222 120.989 32.4308 120.989 33.4665C120.989 34.4454 121.28 35.247 121.861 35.8712C122.443 36.4813 123.223 36.7863 124.202 36.7863ZM132.302 28.3591H134.898V29.9977C135.31 29.4444 135.891 29.033 136.643 28.7634C137.409 28.4939 138.282 28.3591 139.261 28.3591V30.4021C138.225 30.4021 137.324 30.5652 136.558 30.8915C135.806 31.2036 135.281 31.7002 134.983 32.3812V38.5739H132.302V28.3591ZM146.07 38.8931C144.168 38.8931 142.665 38.4178 141.558 37.4673C140.451 36.5167 139.898 35.1902 139.898 33.4878C139.898 31.8137 140.388 30.4872 141.366 29.5083C142.345 28.5294 143.743 28.0399 145.559 28.0399C146.751 28.0399 147.765 28.2669 148.602 28.7209C149.453 29.1749 150.092 29.7991 150.517 30.5936C150.943 31.3739 151.156 32.2677 151.156 33.275V34.5093H142.452C142.636 36.0273 143.956 36.7863 146.41 36.7863C147.063 36.7863 147.729 36.7295 148.41 36.6161C149.091 36.5026 149.687 36.3465 150.198 36.1479V38.2121C149.716 38.4107 149.091 38.5739 148.325 38.7016C147.573 38.8293 146.821 38.8931 146.07 38.8931ZM148.623 32.6791C148.595 31.8704 148.304 31.2462 147.751 30.8064C147.212 30.3666 146.467 30.1467 145.516 30.1467C144.58 30.1467 143.842 30.3737 143.303 30.8277C142.764 31.2817 142.48 31.8988 142.452 32.6791H148.623Z" fill="white"/>
<defs>
<clipPath id="clip0_78_1728">
<rect width="29.9507" height="29.9507" fill="white" transform="translate(7.88184 10.9039)"/>
</clipPath>
</defs>
</svg>
