<svg width="60" height="60" viewBox="0 0 60 60" fill="none" xmlns="http://www.w3.org/2000/svg">
<rect width="60" height="60" rx="10" fill="#3B85FE"/>
<mask id="mask0_78_1835" style="mask-type:luminance" maskUnits="userSpaceOnUse" x="21" y="21" width="20" height="20">
<path d="M21 21H40.5V40.5H21V21Z" fill="white"/>
</mask>
<g mask="url(#mask0_78_1835)">
<path d="M32.5857 23.6386C33.2591 23.8124 33.8953 24.0792 34.4793 24.4246C34.4793 24.4246 34.7608 24.1432 35.0768 23.8271C35.3063 23.5973 35.6178 23.4685 35.9424 23.4685C36.2667 23.4685 36.5782 23.5973 36.8076 23.8271C37.0861 24.1055 37.3945 24.4139 37.6729 24.6924C37.9027 24.9218 38.0315 25.2333 38.0315 25.5576C38.0315 25.8822 37.9027 26.1937 37.6729 26.4231C37.3568 26.7392 37.0754 27.0207 37.0754 27.0207C37.4208 27.6047 37.6875 28.2408 37.8614 28.9143H38.7049C39.3807 28.9143 39.9287 29.4622 39.9287 30.1381V31.3619C39.9287 32.0378 39.3807 32.5857 38.7049 32.5857H37.8614C37.6875 33.2591 37.4208 33.8953 37.0754 34.4793C37.0754 34.4793 37.3568 34.7608 37.6729 35.0768C37.9027 35.3063 38.0315 35.6178 38.0315 35.9424C38.0315 36.2667 37.9027 36.5782 37.6729 36.8076C37.3945 37.0861 37.0861 37.3945 36.8076 37.6729C36.5782 37.9027 36.2667 38.0315 35.9424 38.0315C35.6178 38.0315 35.3063 37.9027 35.0768 37.6729C34.7608 37.3568 34.4793 37.0754 34.4793 37.0754C33.8953 37.4208 33.2591 37.6876 32.5857 37.8613V38.7049C32.5857 39.3807 32.0378 39.9287 31.3619 39.9287H30.1381C29.4622 39.9287 28.9143 39.3807 28.9143 38.7049V37.8613C28.2409 37.6876 27.6047 37.4208 27.0207 37.0754C27.0207 37.0754 26.7392 37.3568 26.4231 37.6729C26.1937 37.9027 25.8822 38.0315 25.5576 38.0315C25.2333 38.0315 24.9218 37.9027 24.6924 37.6729C24.4139 37.3945 24.1055 37.0861 23.8271 36.8076C23.5973 36.5782 23.4685 36.2667 23.4685 35.9424C23.4685 35.6178 23.5973 35.3063 23.8271 35.0768C24.1432 34.7608 24.4246 34.4793 24.4246 34.4793C24.0792 33.8953 23.8125 33.2591 23.6386 32.5857H22.7951C22.1193 32.5857 21.5713 32.0378 21.5713 31.3619V30.1381C21.5713 29.4622 22.1193 28.9143 22.7951 28.9143H23.6386C23.8125 28.2408 24.0792 27.6047 24.4246 27.0207C24.4246 27.0207 24.1432 26.7392 23.8271 26.4231C23.5973 26.1937 23.4685 25.8822 23.4685 25.5576C23.4685 25.2333 23.5973 24.9218 23.8271 24.6924C24.1055 24.4139 24.4139 24.1055 24.6924 23.8271C24.9218 23.5973 25.2333 23.4685 25.5576 23.4685C25.8822 23.4685 26.1937 23.5973 26.4231 23.8271C26.7392 24.1432 27.0207 24.4246 27.0207 24.4246C27.6047 24.0792 28.2409 23.8124 28.9143 23.6386V22.7951C28.9143 22.1192 29.4622 21.5713 30.1381 21.5713H31.3619C32.0378 21.5713 32.5857 22.1192 32.5857 22.7951V23.6386Z" stroke="white" stroke-width="1.03871" stroke-miterlimit="10" stroke-linecap="round" stroke-linejoin="round"/>
<path d="M30.7496 27.0784C32.776 27.0784 34.4211 28.7235 34.4211 30.7499C34.4211 32.7762 32.776 34.4214 30.7496 34.4214C28.7232 34.4214 27.0781 32.7762 27.0781 30.7499C27.0781 28.7235 28.7232 27.0784 30.7496 27.0784Z" stroke="white" stroke-width="1.03871" stroke-miterlimit="10" stroke-linecap="round" stroke-linejoin="round"/>
</g>
<path d="M43.5264 37.5938C43.4398 37.5937 43.3541 37.6108 43.2741 37.6439C43.1941 37.677 43.1215 37.7256 43.0602 37.7868C42.999 37.848 42.9505 37.9207 42.9174 38.0007C42.8842 38.0806 42.8672 38.1664 42.8672 38.2529V42.8672H38.2529C38.0781 42.8672 37.9104 42.9366 37.7868 43.0603C37.6632 43.1839 37.5938 43.3515 37.5938 43.5264C37.5938 43.7012 37.6632 43.8689 37.7868 43.9925C37.9104 44.1161 38.0781 44.1855 38.2529 44.1855H43.5264C43.6129 44.1856 43.6987 44.1685 43.7786 44.1354C43.8586 44.1023 43.9313 44.0537 43.9925 43.9925C44.0537 43.9313 44.1023 43.8586 44.1354 43.7786C44.1685 43.6987 44.1856 43.6129 44.1855 43.5264V38.2529C44.1856 38.1664 44.1685 38.0806 44.1354 38.0007C44.1023 37.9207 44.0537 37.848 43.9925 37.7868C43.9313 37.7256 43.8586 37.677 43.7786 37.6439C43.6987 37.6108 43.6129 37.5937 43.5264 37.5938Z" fill="white"/>
<path d="M22.4326 42.8672H17.8184V38.2529C17.8184 38.0781 17.7489 37.9104 17.6253 37.7868C17.5017 37.6632 17.334 37.5938 17.1592 37.5938C16.9844 37.5938 16.8167 37.6632 16.6931 37.7868C16.5694 37.9104 16.5 38.0781 16.5 38.2529V43.5264C16.5 43.6129 16.517 43.6987 16.5502 43.7786C16.5833 43.8586 16.6318 43.9313 16.6931 43.9925C16.7543 44.0537 16.8269 44.1023 16.9069 44.1354C16.9869 44.1685 17.0726 44.1856 17.1592 44.1855H22.4326C22.6074 44.1855 22.7751 44.1161 22.8987 43.9925C23.0223 43.8689 23.0918 43.7012 23.0918 43.5264C23.0918 43.3515 23.0223 43.1839 22.8987 43.0603C22.7751 42.9366 22.6074 42.8672 22.4326 42.8672Z" fill="white"/>
<path d="M43.5264 16.5H38.2529C38.0781 16.5 37.9104 16.5694 37.7868 16.6931C37.6632 16.8167 37.5938 16.9844 37.5938 17.1592C37.5938 17.334 37.6632 17.5017 37.7868 17.6253C37.9104 17.7489 38.0781 17.8184 38.2529 17.8184H42.8672V22.4326C42.8672 22.6074 42.9366 22.7751 43.0603 22.8987C43.1839 23.0223 43.3515 23.0918 43.5264 23.0918C43.7012 23.0918 43.8689 23.0223 43.9925 22.8987C44.1161 22.7751 44.1855 22.6074 44.1855 22.4326V17.1592C44.1856 17.0726 44.1685 16.9869 44.1354 16.9069C44.1023 16.8269 44.0537 16.7543 43.9925 16.6931C43.9313 16.6318 43.8586 16.5833 43.7786 16.5502C43.6987 16.517 43.6129 16.5 43.5264 16.5Z" fill="white"/>
<path d="M22.4326 16.5H17.1592C17.0726 16.5 16.9869 16.517 16.9069 16.5502C16.8269 16.5833 16.7543 16.6318 16.6931 16.6931C16.6318 16.7543 16.5833 16.8269 16.5502 16.9069C16.517 16.9869 16.5 17.0726 16.5 17.1592V22.4326C16.5 22.6074 16.5694 22.7751 16.6931 22.8987C16.8167 23.0223 16.9844 23.0918 17.1592 23.0918C17.334 23.0918 17.5017 23.0223 17.6253 22.8987C17.7489 22.7751 17.8184 22.6074 17.8184 22.4326V17.8184H22.4326C22.6074 17.8184 22.7751 17.7489 22.8987 17.6253C23.0223 17.5017 23.0918 17.334 23.0918 17.1592C23.0918 16.9844 23.0223 16.8167 22.8987 16.6931C22.7751 16.5694 22.6074 16.5 22.4326 16.5Z" fill="white"/>
</svg>
