<svg width="60" height="60" viewBox="0 0 60 60" fill="none" xmlns="http://www.w3.org/2000/svg">
<rect width="60" height="60" rx="10" fill="#3B85FE"/>
<path d="M39.2515 31.3797C39.8366 30.8853 40.5 30.3251 40.5 29.5525C40.5 28.78 39.8364 28.22 39.2518 27.7256C38.881 27.4124 38.4978 27.0897 38.4104 26.8197C38.3155 26.5274 38.4381 26.0228 38.5556 25.5353C38.7406 24.7708 38.9319 23.9805 38.4948 23.3786C38.0523 22.7722 37.2007 22.7077 36.4486 22.6511C35.9508 22.6135 35.439 22.5748 35.1965 22.3983C34.9601 22.226 34.7671 21.7546 34.581 21.2984C34.2934 20.5949 33.9677 19.7977 33.2455 19.5633C32.5492 19.3371 31.8629 19.7591 31.2009 20.1677C30.7673 20.4343 30.3188 20.7105 30 20.7105C29.6812 20.7105 29.2327 20.434 28.7989 20.1677C28.1352 19.759 27.4506 19.3382 26.7546 19.5633C26.0321 19.7977 25.7066 20.5947 25.4193 21.2981C25.2327 21.7544 25.0402 22.2261 24.8035 22.3984C24.5611 22.5748 24.0478 22.6135 23.5515 22.6511C22.7994 22.7064 21.9477 22.7722 21.5053 23.3789C21.0681 23.9795 21.2595 24.7698 21.4445 25.5357C21.5623 26.0232 21.6845 26.5278 21.5896 26.8201C21.5023 27.0889 21.1196 27.4129 20.7485 27.726C20.163 28.2202 19.5 28.7804 19.5 29.5527C19.5 30.3251 20.1636 30.8856 20.7485 31.3799C21.119 31.693 21.5023 32.0159 21.5896 32.2855C21.6845 32.5781 21.5619 33.0824 21.4445 33.5699C21.2595 34.3345 21.0681 35.1248 21.5053 35.7267C21.9477 36.3334 22.7994 36.3978 23.5515 36.4545C24.0492 36.4921 24.5613 36.5311 24.8038 36.7072C25.0402 36.8795 25.233 37.351 25.4194 37.8075C25.7069 38.5109 26.0324 39.3078 26.7549 39.5426C26.8848 39.5848 27.0206 39.6062 27.1572 39.6059C27.7147 39.6059 28.2633 39.2674 28.7992 38.9384C29.233 38.6712 29.6815 38.395 30.0003 38.395C30.3191 38.395 30.7676 38.6715 31.2014 38.9384C31.8651 39.3462 32.5503 39.7679 33.2454 39.5426C33.9679 39.3078 34.2937 38.5109 34.5809 37.8075C34.7673 37.3512 34.96 36.8795 35.1967 36.7072C35.4389 36.5311 35.9522 36.4924 36.4482 36.4548C37.2006 36.3995 38.0534 36.3337 38.4944 35.727C38.9316 35.1261 38.7402 34.3361 38.5555 33.5702C38.4375 33.0825 38.3155 32.5781 38.4103 32.2858C38.4977 32.0167 38.881 31.6927 39.2515 31.3797ZM37.4913 31.9866C37.3118 32.5396 37.4667 33.1789 37.6163 33.7978C37.7432 34.3232 37.8872 34.9171 37.7133 35.156C37.5352 35.4004 36.9197 35.4469 36.3766 35.4878C35.7457 35.5356 35.0931 35.5846 34.6286 35.9227C34.1693 36.2568 33.9237 36.8582 33.6862 37.4394C33.4785 37.9479 33.2438 38.5242 32.9476 38.6204C32.678 38.7067 32.1634 38.3915 31.71 38.1122C31.1592 37.7746 30.5929 37.4248 30 37.4248C29.4071 37.4248 28.8386 37.7737 28.2915 38.1117C27.838 38.3909 27.3236 38.7059 27.0535 38.6199C26.7582 38.5237 26.5229 37.9474 26.3149 37.4389C26.0777 36.8582 25.8319 36.2563 25.3728 35.9222C24.9083 35.5841 24.2554 35.5351 23.6241 35.487C23.0813 35.4458 22.4658 35.3996 22.2878 35.1552C22.1141 34.916 22.2582 34.3215 22.3851 33.7967C22.5347 33.1778 22.6893 32.5383 22.5101 31.9858C22.3376 31.4546 21.8465 31.0404 21.3731 30.6398C20.9489 30.2803 20.4678 29.8749 20.4678 29.5517C20.4678 29.2284 20.9487 28.8222 21.3729 28.4639C21.8471 28.0632 22.3376 27.649 22.5102 27.1176C22.6896 26.5646 22.5347 25.9255 22.3852 25.3069C22.2582 24.7815 22.1142 24.1873 22.2878 23.9484C22.4659 23.704 23.0814 23.6575 23.6242 23.6166C24.2555 23.5688 24.9083 23.5198 25.3729 23.1814C25.8319 22.8473 26.0777 22.2462 26.315 21.665C26.5229 21.1565 26.7574 20.58 27.0538 20.484C27.0872 20.4737 27.122 20.4687 27.1569 20.4691C27.4423 20.4691 27.8905 20.7456 28.2906 20.9922C28.8389 21.3299 29.4061 21.6788 29.9989 21.6788C30.5918 21.6788 31.1592 21.3318 31.7083 20.9928C32.1618 20.7132 32.6742 20.3977 32.9465 20.4845C33.2415 20.5805 33.4771 21.157 33.6851 21.6655C33.9226 22.2462 34.1681 22.8479 34.6272 23.1819C35.0917 23.5203 35.7446 23.569 36.3759 23.6171C36.9187 23.6583 37.5342 23.7048 37.7122 23.9489C37.8859 24.1881 37.7421 24.7826 37.6149 25.3077C37.4653 25.9262 37.3107 26.5658 37.4899 27.1183C37.6624 27.6497 38.1535 28.0639 38.6272 28.4646C39.0514 28.8241 39.5322 29.2292 39.5322 29.5524C39.5322 29.8756 39.0514 30.2818 38.627 30.6405C38.1526 31.0412 37.6624 31.4554 37.4913 31.9866Z" fill="white"/>
<path d="M32.2183 26.51L29.1247 29.6036L27.783 28.2619C27.1618 27.641 26.1549 27.6412 25.5339 28.2625C24.913 28.8837 24.9132 29.8907 25.5344 30.5116L28.0004 32.9775C28.6214 33.5984 29.628 33.5984 30.249 32.9775L34.4669 28.7582C35.0924 28.142 35.0999 27.1353 34.4836 26.5097C33.8673 25.8842 32.8607 25.8767 32.2352 26.493C32.2295 26.4987 32.2239 26.5043 32.2183 26.51ZM33.7825 28.074L29.5646 32.2919C29.3186 32.5275 28.9307 32.5275 28.6848 32.2919L26.2186 29.8257C25.9757 29.5827 25.9759 29.1889 26.2189 28.9461C26.4618 28.7033 26.8557 28.7034 27.0984 28.9464L28.7819 30.6301C28.9708 30.8189 29.277 30.8189 29.4659 30.6301L32.9019 27.1936C33.1406 26.9464 33.5344 26.9395 33.7816 27.1781C34.0289 27.4168 34.0357 27.8107 33.7971 28.0579C33.7921 28.063 33.787 28.0682 33.7818 28.0732L33.7825 28.074Z" fill="white"/>
</svg>
