<svg width="420" height="280" viewBox="0 0 420 280" fill="none" xmlns="http://www.w3.org/2000/svg">
<mask id="mask0_87_1057" style="mask-type:alpha" maskUnits="userSpaceOnUse" x="0" y="0" width="420" height="280">
<path d="M0 10C0 4.47715 4.47715 0 10 0H410C415.523 0 420 4.47715 420 10V280H0V10Z" fill="#D9D9D9"/>
</mask>
<g mask="url(#mask0_87_1057)">
<g filter="url(#filter0_f_87_1057)">
<circle cx="146.203" cy="141.797" r="201.203" fill="#FF3B2F"/>
</g>
<g filter="url(#filter1_f_87_1057)">
<circle cx="308.795" cy="128.203" r="201.203" fill="#3B85FE"/>
</g>
<g clip-path="url(#clip0_87_1057)">
<rect x="111" y="20" width="200" height="433.067" rx="14.652" fill="#F4F4F4"/>
<g clip-path="url(#clip1_87_1057)">
<path d="M152.334 18.9333H269.134C268.011 19.2548 267.223 20.2641 267.185 21.4317L267.169 21.8996C267.169 29.098 261.334 34.9333 254.136 34.9333H167.332C160.134 34.9333 154.299 29.098 154.299 21.8996L154.283 21.4317C154.245 20.2642 153.457 19.2548 152.334 18.9333Z" fill="black"/>
<path opacity="0.35" d="M290.467 30.6667C290.467 30.0285 290.984 29.5112 291.622 29.5112H300.511C301.15 29.5112 301.667 30.0285 301.667 30.6667V33.8667C301.667 34.5049 301.149 35.0223 300.511 35.0223H291.622C290.984 35.0223 290.467 34.5049 290.467 33.8667V30.6667Z" stroke="black" stroke-width="0.533333"/>
<path opacity="0.4" d="M302.467 31.2V33.3333C302.896 33.1526 303.175 32.7323 303.175 32.2666C303.175 31.8009 302.896 31.3806 302.467 31.2Z" fill="black"/>
<path d="M291.267 30.8978C291.267 30.5738 291.529 30.3112 291.853 30.3112H300.28C300.604 30.3112 300.867 30.5738 300.867 30.8978V33.6356C300.867 33.9596 300.604 34.2223 300.28 34.2223H291.853C291.529 34.2223 291.267 33.9596 291.267 33.6356V30.8978Z" fill="black"/>
<path fill-rule="evenodd" clip-rule="evenodd" d="M283.444 30.4576C284.626 30.4577 285.762 30.9118 286.619 31.7261C286.683 31.7889 286.786 31.7881 286.85 31.7243L287.467 31.1021C287.499 31.0697 287.517 31.0258 287.516 30.9802C287.516 30.9345 287.498 30.8909 287.465 30.8589C285.217 28.7044 281.67 28.7044 279.422 30.8589C279.39 30.8908 279.371 30.9345 279.371 30.9801C279.371 31.0258 279.389 31.0697 279.421 31.1021L280.038 31.7243C280.101 31.7882 280.204 31.789 280.269 31.7261C281.125 30.9117 282.262 30.4576 283.444 30.4576ZM283.444 32.482C284.093 32.4819 284.719 32.7233 285.201 33.1591C285.266 33.221 285.368 33.2196 285.432 33.1561L286.048 32.5339C286.08 32.5012 286.098 32.457 286.098 32.411C286.097 32.365 286.078 32.3211 286.045 32.2891C284.579 30.9257 282.31 30.9257 280.844 32.2891C280.811 32.3211 280.792 32.365 280.792 32.411C280.791 32.457 280.809 32.5013 280.842 32.5339L281.457 33.1561C281.521 33.2196 281.623 33.221 281.688 33.1591C282.169 32.7236 282.795 32.4822 283.444 32.482ZM284.678 33.844C284.678 33.8901 284.66 33.9346 284.627 33.9669L283.562 35.042C283.531 35.0736 283.488 35.0913 283.444 35.0913C283.4 35.0913 283.357 35.0736 283.326 35.042L282.26 33.9669C282.227 33.9346 282.209 33.8901 282.21 33.844C282.211 33.7978 282.231 33.7541 282.265 33.7232C282.946 33.1478 283.942 33.1478 284.622 33.7232C284.657 33.7542 284.677 33.7979 284.678 33.844Z" fill="black"/>
<path fill-rule="evenodd" clip-rule="evenodd" d="M276.156 29.4222H275.623C275.328 29.4222 275.09 29.661 275.09 29.9556V34.5778C275.09 34.8723 275.328 35.1111 275.623 35.1111H276.156C276.451 35.1111 276.69 34.8723 276.69 34.5778V29.9556C276.69 29.661 276.451 29.4222 276.156 29.4222ZM273.134 30.6667H273.667C273.962 30.6667 274.201 30.9055 274.201 31.2V34.5778C274.201 34.8723 273.962 35.1111 273.667 35.1111H273.134C272.84 35.1111 272.601 34.8723 272.601 34.5778V31.2C272.601 30.9055 272.84 30.6667 273.134 30.6667ZM271.179 31.9111H270.645C270.351 31.9111 270.112 32.1499 270.112 32.4445V34.5778C270.112 34.8723 270.351 35.1111 270.645 35.1111H271.179C271.473 35.1111 271.712 34.8723 271.712 34.5778V32.4445C271.712 32.1499 271.473 31.9111 271.179 31.9111ZM268.69 32.9778H268.156C267.862 32.9778 267.623 33.2166 267.623 33.5111V34.5778C267.623 34.8723 267.862 35.1111 268.156 35.1111H268.69C268.984 35.1111 269.223 34.8723 269.223 34.5778V33.5111C269.223 33.2166 268.984 32.9778 268.69 32.9778Z" fill="black"/>
<path d="M130.662 35.0701C132.096 35.0701 132.947 33.949 132.947 32.0505C132.947 31.3357 132.811 30.7341 132.549 30.2693C132.17 29.5466 131.518 29.156 130.693 29.156C129.467 29.156 128.6 29.9802 128.6 31.1365C128.6 32.2224 129.381 33.0115 130.455 33.0115C131.115 33.0115 131.65 32.7029 131.916 32.1677H131.928C131.928 32.1677 131.943 32.1677 131.947 32.1677C131.955 32.1677 131.982 32.1677 131.982 32.1677C131.982 33.4568 131.494 34.2263 130.67 34.2263C130.186 34.2263 129.811 33.9607 129.682 33.5349H128.678C128.846 34.4607 129.631 35.0701 130.662 35.0701ZM130.697 32.2107C130.049 32.2107 129.588 31.7498 129.588 31.1052C129.588 30.4763 130.072 29.9958 130.701 29.9958C131.33 29.9958 131.814 30.4841 131.814 31.1208C131.814 31.7498 131.342 32.2107 130.697 32.2107Z" fill="black"/>
<path d="M134.596 35.0154C134.967 35.0154 135.221 34.7498 135.221 34.3982C135.221 34.0427 134.967 33.781 134.596 33.781C134.229 33.781 133.971 34.0427 133.971 34.3982C133.971 34.7498 134.229 35.0154 134.596 35.0154ZM134.596 32.0857C134.967 32.0857 135.221 31.824 135.221 31.4724C135.221 31.1169 134.967 30.8552 134.596 30.8552C134.229 30.8552 133.971 31.1169 133.971 31.4724C133.971 31.824 134.229 32.0857 134.596 32.0857Z" fill="black"/>
<path d="M138.877 34.9333H139.842V33.8826H140.604V33.031H139.842V29.2966H138.42C137.424 30.7966 136.631 32.0505 136.123 32.9841V33.8826H138.877V34.9333ZM137.057 32.9958C137.713 31.8396 138.299 30.9138 138.838 30.1169H138.893V33.0544H137.057V32.9958Z" fill="black"/>
<path d="M142.752 34.9333H143.76V29.2966H142.756L141.284 30.3279V31.2966L142.686 30.3123H142.752V34.9333Z" fill="black"/>
</g>
<path d="M131.678 86.2667H129.476V75.7448H136.366V77.5605H131.678V80.3823H135.958V82.1251H131.678V86.2667ZM140.364 84.8521C141.291 84.8521 142.056 84.2469 142.056 83.4011V82.8323L140.408 82.9344C139.613 82.9928 139.161 83.3501 139.161 83.9042C139.161 84.4876 139.643 84.8521 140.364 84.8521ZM139.664 86.3907C138.177 86.3907 137.047 85.4282 137.047 84.0209C137.047 82.599 138.141 81.7751 140.087 81.6584L142.056 81.5417V81.024C142.056 80.2948 141.546 79.8719 140.744 79.8719C139.949 79.8719 139.446 80.2657 139.344 80.8417H137.397C137.477 79.3251 138.768 78.2823 140.838 78.2823C142.844 78.2823 144.149 79.3178 144.149 80.8928V86.2667H142.093V85.0709H142.049C141.611 85.9021 140.642 86.3907 139.664 86.3907ZM152.821 78.4501L150.138 86.2667H147.731L145.026 78.4501H147.309L148.935 84.3855H148.978L150.597 78.4501H152.821ZM157.126 86.4344C154.763 86.4344 153.254 84.9178 153.254 82.3511C153.254 79.8209 154.785 78.2823 157.126 78.2823C159.466 78.2823 160.997 79.8136 160.997 82.3511C160.997 84.9251 159.488 86.4344 157.126 86.4344ZM157.126 84.8084C158.168 84.8084 158.832 83.9261 158.832 82.3584C158.832 80.8053 158.161 79.9084 157.126 79.9084C156.09 79.9084 155.412 80.8053 155.412 82.3584C155.412 83.9261 156.076 84.8084 157.126 84.8084ZM162.29 86.2667V78.4501H164.347V79.8573H164.39C164.668 78.8657 165.331 78.3261 166.25 78.3261C166.498 78.3261 166.709 78.3626 166.855 78.4063V80.2803C166.68 80.2073 166.388 80.1563 166.082 80.1563C165.032 80.1563 164.42 80.798 164.42 81.899V86.2667H162.29ZM167.959 86.2667V78.4501H170.088V86.2667H167.959ZM169.016 77.3928C168.396 77.3928 167.907 76.8969 167.907 76.299C167.907 75.6938 168.396 75.2053 169.016 75.2053C169.636 75.2053 170.124 75.6938 170.124 76.299C170.124 76.8969 169.636 77.3928 169.016 77.3928ZM172.27 76.649H174.399V78.4501H175.843V80.0542H174.399V83.7948C174.399 84.3928 174.691 84.6771 175.318 84.6771C175.508 84.6771 175.705 84.6626 175.836 84.6407V86.2084C175.617 86.2594 175.253 86.2959 174.822 86.2959C172.985 86.2959 172.27 85.6834 172.27 84.1594V80.0542H171.169V78.4501H172.27V76.649ZM180.593 79.8573C179.659 79.8573 178.988 80.5646 178.915 81.5417H182.233C182.189 80.5428 181.54 79.8573 180.593 79.8573ZM182.262 83.8751H184.216C183.983 85.4063 182.583 86.4344 180.651 86.4344C178.245 86.4344 176.801 84.8959 176.801 82.3948C176.801 79.9011 178.259 78.2823 180.571 78.2823C182.846 78.2823 184.282 79.8209 184.282 82.198V82.8469H178.894V82.9782C178.894 84.0938 179.601 84.8594 180.687 84.8594C181.468 84.8594 182.065 84.473 182.262 83.8751ZM185.444 80.7469C185.444 79.2594 186.727 78.2823 188.718 78.2823C190.723 78.2823 191.963 79.3105 192.006 80.8417H190.045C189.979 80.2073 189.505 79.7771 188.718 79.7771C187.981 79.7771 187.493 80.1126 187.493 80.6303C187.493 81.0313 187.784 81.3011 188.572 81.4688L189.906 81.7532C191.54 82.0959 192.211 82.7376 192.211 83.8823C192.211 85.4209 190.803 86.4344 188.791 86.4344C186.632 86.4344 185.386 85.4282 185.247 83.8896H187.325C187.456 84.5751 187.945 84.9396 188.791 84.9396C189.593 84.9396 190.089 84.6115 190.089 84.1011C190.089 83.6855 189.819 83.4521 189.053 83.2771L187.719 83.0001C186.209 82.6792 185.444 81.9209 185.444 80.7469Z" fill="black"/>
<rect x="123.8" y="100.533" width="174.4" height="19.4667" rx="5.33333" fill="#767680" fill-opacity="0.12"/>
<path d="M131.471 112.868C132.21 112.868 132.892 112.629 133.45 112.23L135.548 114.329C135.646 114.426 135.774 114.475 135.911 114.475C136.199 114.475 136.403 114.253 136.403 113.97C136.403 113.837 136.358 113.709 136.261 113.616L134.176 111.526C134.614 110.951 134.875 110.238 134.875 109.463C134.875 107.591 133.343 106.059 131.471 106.059C129.603 106.059 128.066 107.586 128.066 109.463C128.066 111.336 129.598 112.868 131.471 112.868ZM131.471 112.133C130.01 112.133 128.801 110.924 128.801 109.463C128.801 108.002 130.01 106.794 131.471 106.794C132.932 106.794 134.14 108.002 134.14 109.463C134.14 110.924 132.932 112.133 131.471 112.133Z" fill="#3C3C43" fill-opacity="0.6"/>
<path d="M140.112 111.598H140.917C141.015 112.266 141.652 112.691 142.56 112.691C143.419 112.691 144.052 112.226 144.052 111.593C144.052 111.049 143.653 110.703 142.772 110.482L141.953 110.27C140.798 109.977 140.298 109.455 140.298 108.547C140.298 107.463 141.205 106.728 142.555 106.728C143.791 106.728 144.711 107.463 144.778 108.494H143.976C143.866 107.839 143.326 107.45 142.529 107.45C141.679 107.45 141.117 107.875 141.117 108.521C141.117 109.021 141.466 109.309 142.347 109.535L143.016 109.712C144.34 110.044 144.871 110.557 144.871 111.496C144.871 112.669 143.946 113.417 142.485 113.417C141.13 113.417 140.196 112.7 140.112 111.598ZM147.788 109.083C147.026 109.083 146.495 109.641 146.437 110.487H149.067C149.049 109.641 148.545 109.083 147.788 109.083ZM149.045 112.032H149.806C149.585 112.846 148.841 113.351 147.796 113.351C146.473 113.351 145.645 112.395 145.645 110.885C145.645 109.384 146.486 108.41 147.796 108.41C149.085 108.41 149.868 109.327 149.868 110.81V111.102H146.437V111.137C146.477 112.08 147.004 112.678 147.814 112.678C148.429 112.678 148.846 112.452 149.045 112.032ZM152.316 112.682C153.099 112.682 153.679 112.169 153.679 111.487V111.049L152.395 111.133C151.669 111.182 151.351 111.434 151.351 111.912C151.351 112.399 151.762 112.682 152.316 112.682ZM152.174 113.351C151.249 113.351 150.563 112.802 150.563 111.93C150.563 111.075 151.191 110.584 152.302 110.518L153.679 110.433V110C153.679 109.411 153.312 109.088 152.599 109.088C152.028 109.088 151.63 109.304 151.523 109.681H150.753C150.855 108.915 151.607 108.41 152.626 108.41C153.79 108.41 154.441 109.008 154.441 110V113.267H153.715V112.563H153.644C153.334 113.072 152.812 113.351 152.174 113.351ZM155.631 113.267V108.494H156.357V109.203H156.428C156.57 108.738 157.118 108.41 157.752 108.41C157.876 108.41 158.035 108.419 158.132 108.432V109.194C158.07 109.176 157.796 109.15 157.645 109.15C156.919 109.15 156.392 109.637 156.392 110.309V113.267H155.631ZM162.683 109.955H161.912C161.788 109.482 161.368 109.096 160.682 109.096C159.823 109.096 159.283 109.783 159.283 110.863C159.283 111.965 159.832 112.665 160.682 112.665C161.324 112.665 161.771 112.368 161.912 111.828H162.683C162.545 112.704 161.833 113.351 160.686 113.351C159.349 113.351 158.495 112.381 158.495 110.863C158.495 109.375 159.345 108.41 160.682 108.41C161.842 108.41 162.55 109.105 162.683 109.955ZM163.634 113.267V106.6H164.395V109.247H164.466C164.705 108.72 165.205 108.41 165.936 108.41C166.945 108.41 167.583 109.057 167.583 110.177V113.267H166.821V110.363C166.821 109.517 166.441 109.096 165.719 109.096C164.865 109.096 164.395 109.637 164.395 110.442V113.267H163.634Z" fill="#3C3C43" fill-opacity="0.6"/>
<rect width="200" height="47.1333" transform="translate(111 20)" fill="#F4F4F4"/>
<g clip-path="url(#clip2_87_1057)">
<path d="M152.601 18.9333H269.401C268.277 19.2548 267.49 20.2641 267.451 21.4317L267.436 21.8996C267.436 29.098 261.601 34.9333 254.402 34.9333H167.599C160.401 34.9333 154.565 29.098 154.565 21.8996L154.55 21.4317C154.511 20.2642 153.724 19.2548 152.601 18.9333Z" fill="black"/>
<path opacity="0.35" d="M290.467 30.6667C290.467 30.0285 290.984 29.5112 291.622 29.5112H300.511C301.15 29.5112 301.667 30.0285 301.667 30.6667V33.8667C301.667 34.5049 301.149 35.0223 300.511 35.0223H291.622C290.984 35.0223 290.467 34.5049 290.467 33.8667V30.6667Z" stroke="black" stroke-width="0.533333"/>
<path opacity="0.4" d="M302.467 31.2V33.3333C302.896 33.1526 303.175 32.7323 303.175 32.2666C303.175 31.8009 302.896 31.3806 302.467 31.2Z" fill="black"/>
<path d="M291.267 30.8978C291.267 30.5738 291.529 30.3112 291.853 30.3112H300.28C300.604 30.3112 300.867 30.5738 300.867 30.8978V33.6356C300.867 33.9596 300.604 34.2223 300.28 34.2223H291.853C291.529 34.2223 291.267 33.9596 291.267 33.6356V30.8978Z" fill="black"/>
<path fill-rule="evenodd" clip-rule="evenodd" d="M283.444 30.4576C284.626 30.4577 285.762 30.9118 286.619 31.7261C286.683 31.7889 286.786 31.7881 286.85 31.7243L287.467 31.1021C287.499 31.0697 287.517 31.0258 287.516 30.9802C287.516 30.9345 287.498 30.8909 287.465 30.8589C285.217 28.7044 281.67 28.7044 279.422 30.8589C279.39 30.8908 279.371 30.9345 279.371 30.9801C279.371 31.0258 279.389 31.0697 279.421 31.1021L280.038 31.7243C280.101 31.7882 280.204 31.789 280.269 31.7261C281.125 30.9117 282.262 30.4576 283.444 30.4576ZM283.444 32.482C284.093 32.4819 284.719 32.7233 285.201 33.1591C285.266 33.221 285.368 33.2196 285.432 33.1561L286.048 32.5339C286.08 32.5012 286.098 32.457 286.098 32.411C286.097 32.365 286.078 32.3211 286.045 32.2891C284.579 30.9257 282.31 30.9257 280.844 32.2891C280.811 32.3211 280.792 32.365 280.792 32.411C280.791 32.457 280.809 32.5013 280.842 32.5339L281.457 33.1561C281.521 33.2196 281.623 33.221 281.688 33.1591C282.169 32.7236 282.795 32.4822 283.444 32.482ZM284.678 33.844C284.678 33.8901 284.66 33.9346 284.627 33.9669L283.562 35.042C283.531 35.0736 283.488 35.0913 283.444 35.0913C283.4 35.0913 283.357 35.0736 283.326 35.042L282.26 33.9669C282.227 33.9346 282.209 33.8901 282.21 33.844C282.211 33.7978 282.231 33.7541 282.265 33.7232C282.946 33.1478 283.942 33.1478 284.622 33.7232C284.657 33.7542 284.677 33.7979 284.678 33.844Z" fill="black"/>
<path fill-rule="evenodd" clip-rule="evenodd" d="M276.156 29.4222H275.623C275.328 29.4222 275.09 29.661 275.09 29.9556V34.5778C275.09 34.8723 275.328 35.1111 275.623 35.1111H276.156C276.451 35.1111 276.69 34.8723 276.69 34.5778V29.9556C276.69 29.661 276.451 29.4222 276.156 29.4222ZM273.134 30.6667H273.667C273.962 30.6667 274.201 30.9055 274.201 31.2V34.5778C274.201 34.8723 273.962 35.1111 273.667 35.1111H273.134C272.84 35.1111 272.601 34.8723 272.601 34.5778V31.2C272.601 30.9055 272.84 30.6667 273.134 30.6667ZM271.179 31.9111H270.645C270.351 31.9111 270.112 32.1499 270.112 32.4445V34.5778C270.112 34.8723 270.351 35.1111 270.645 35.1111H271.179C271.473 35.1111 271.712 34.8723 271.712 34.5778V32.4445C271.712 32.1499 271.473 31.9111 271.179 31.9111ZM268.69 32.9778H268.156C267.862 32.9778 267.623 33.2166 267.623 33.5111V34.5778C267.623 34.8723 267.862 35.1111 268.156 35.1111H268.69C268.984 35.1111 269.223 34.8723 269.223 34.5778V33.5111C269.223 33.2166 268.984 32.9778 268.69 32.9778Z" fill="black"/>
<path d="M130.904 35.0701C132.338 35.0701 133.189 33.949 133.189 32.0505C133.189 31.3357 133.053 30.7341 132.791 30.2693C132.412 29.5466 131.76 29.156 130.936 29.156C129.709 29.156 128.842 29.9802 128.842 31.1365C128.842 32.2224 129.623 33.0115 130.697 33.0115C131.357 33.0115 131.893 32.7029 132.158 32.1677H132.17C132.17 32.1677 132.186 32.1677 132.189 32.1677C132.197 32.1677 132.225 32.1677 132.225 32.1677C132.225 33.4568 131.736 34.2263 130.912 34.2263C130.428 34.2263 130.053 33.9607 129.924 33.5349H128.92C129.088 34.4607 129.873 35.0701 130.904 35.0701ZM130.939 32.2107C130.291 32.2107 129.83 31.7498 129.83 31.1052C129.83 30.4763 130.314 29.9958 130.943 29.9958C131.572 29.9958 132.057 30.4841 132.057 31.1208C132.057 31.7498 131.584 32.2107 130.939 32.2107Z" fill="black"/>
<path d="M134.838 35.0154C135.209 35.0154 135.463 34.7498 135.463 34.3982C135.463 34.0427 135.209 33.781 134.838 33.781C134.471 33.781 134.213 34.0427 134.213 34.3982C134.213 34.7498 134.471 35.0154 134.838 35.0154ZM134.838 32.0857C135.209 32.0857 135.463 31.824 135.463 31.4724C135.463 31.1169 135.209 30.8552 134.838 30.8552C134.471 30.8552 134.213 31.1169 134.213 31.4724C134.213 31.824 134.471 32.0857 134.838 32.0857Z" fill="black"/>
<path d="M139.119 34.9333H140.084V33.8826H140.846V33.031H140.084V29.2966H138.662C137.666 30.7966 136.873 32.0505 136.366 32.9841V33.8826H139.119V34.9333ZM137.299 32.9958C137.955 31.8396 138.541 30.9138 139.08 30.1169H139.135V33.0544H137.299V32.9958Z" fill="black"/>
<path d="M142.995 34.9333H144.002V29.2966H142.999L141.526 30.3279V31.2966L142.928 30.3123H142.995V34.9333Z" fill="black"/>
</g>
<path d="M134.854 58.9839C133.118 58.9839 132.033 57.7 132.033 55.6414C132.033 53.5784 133.114 52.2946 134.849 52.2946C136.195 52.2946 137.244 53.1401 137.435 54.3709H136.624C136.412 53.5474 135.73 53.0295 134.849 53.0295C133.623 53.0295 132.852 54.0388 132.852 55.6414C132.852 57.2441 133.623 58.249 134.854 58.249C135.743 58.249 136.421 57.793 136.624 57.0537H137.435C137.222 58.2269 136.213 58.9839 134.854 58.9839ZM140.418 58.9175C139.059 58.9175 138.217 57.9789 138.217 56.4472C138.217 54.911 139.059 53.9769 140.418 53.9769C141.777 53.9769 142.618 54.911 142.618 56.4472C142.618 57.9789 141.777 58.9175 140.418 58.9175ZM140.418 58.2313C141.321 58.2313 141.83 57.5761 141.83 56.4472C141.83 55.3138 141.321 54.6631 140.418 54.6631C139.515 54.6631 139.005 55.3138 139.005 56.4472C139.005 57.5761 139.515 58.2313 140.418 58.2313ZM143.596 58.8334V54.061H144.322V54.8136H144.393C144.632 54.2868 145.096 53.9769 145.827 53.9769C146.898 53.9769 147.496 54.6099 147.496 55.7433V58.8334H146.734V55.9292C146.734 55.0704 146.371 54.6631 145.61 54.6631C144.849 54.6631 144.357 55.1722 144.357 56.0089V58.8334H143.596ZM148.992 52.8258H149.753V54.061H150.816V54.6985H149.753V57.399C149.753 57.9612 149.966 58.2003 150.461 58.2003C150.599 58.2003 150.674 58.1959 150.816 58.1826V58.8245C150.665 58.8511 150.519 58.8688 150.368 58.8688C149.386 58.8688 148.992 58.5058 148.992 57.5938V54.6985H148.221V54.061H148.992V52.8258ZM153.219 58.249C154.002 58.249 154.582 57.7355 154.582 57.0537V56.6154L153.298 56.6995C152.572 56.7482 152.254 57.0006 152.254 57.4787C152.254 57.9657 152.665 58.249 153.219 58.249ZM153.077 58.9175C152.152 58.9175 151.466 58.3685 151.466 57.4964C151.466 56.642 152.094 56.1506 153.206 56.0842L154.582 56V55.5662C154.582 54.9774 154.215 54.6542 153.502 54.6542C152.931 54.6542 152.533 54.8711 152.426 55.2474H151.656C151.758 54.4816 152.51 53.9769 153.529 53.9769C154.693 53.9769 155.344 54.5745 155.344 55.5662V58.8334H154.618V58.1295H154.547C154.237 58.6386 153.715 58.9175 153.077 58.9175ZM160.483 55.5219H159.713C159.589 55.0482 159.168 54.6631 158.482 54.6631C157.623 54.6631 157.083 55.3493 157.083 56.4295C157.083 57.5318 157.632 58.2313 158.482 58.2313C159.124 58.2313 159.571 57.9347 159.713 57.3946H160.483C160.346 58.2711 159.633 58.9175 158.486 58.9175C157.149 58.9175 156.295 57.948 156.295 56.4295C156.295 54.942 157.145 53.9769 158.482 53.9769C159.642 53.9769 160.35 54.6719 160.483 55.5219ZM161.797 52.8258H162.559V54.061H163.621V54.6985H162.559V57.399C162.559 57.9612 162.771 58.2003 163.267 58.2003C163.404 58.2003 163.479 58.1959 163.621 58.1826V58.8245C163.471 58.8511 163.324 58.8688 163.174 58.8688C162.191 58.8688 161.797 58.5058 161.797 57.5938V54.6985H161.027V54.061H161.797V52.8258ZM164.355 55.367C164.355 54.5745 165.121 53.9769 166.135 53.9769C167.136 53.9769 167.831 54.4727 167.932 55.2563H167.18C167.078 54.8756 166.706 54.6232 166.131 54.6232C165.564 54.6232 165.121 54.911 165.121 55.336C165.121 55.6636 165.387 55.8672 165.949 56.0045L166.684 56.1816C167.583 56.3985 168.017 56.7881 168.017 57.4743C168.017 58.3287 167.189 58.9175 166.104 58.9175C165.042 58.9175 164.311 58.4084 164.227 57.6159H165.011C165.139 58.0188 165.52 58.2756 166.131 58.2756C166.772 58.2756 167.233 57.9701 167.233 57.5318C167.233 57.2042 166.985 56.9829 166.476 56.8589L165.657 56.6597C164.763 56.4427 164.355 56.0576 164.355 55.367Z" fill="#007AFF"/>
<rect x="123.267" y="254.667" width="174.4" height="48" rx="12.8" fill="white"/>
<path d="M136.691 270.484H139.749C141.29 270.484 142.353 271.511 142.353 273.057C142.353 274.599 141.254 275.63 139.671 275.63H138.264V278H136.691V270.484ZM138.264 271.729V274.401H139.327C140.228 274.401 140.754 273.922 140.754 273.063C140.754 272.208 140.233 271.729 139.332 271.729H138.264ZM144.733 276.99C145.395 276.99 145.942 276.557 145.942 275.953V275.547L144.765 275.62C144.197 275.662 143.874 275.917 143.874 276.313C143.874 276.729 144.218 276.99 144.733 276.99ZM144.233 278.089C143.171 278.089 142.363 277.401 142.363 276.396C142.363 275.38 143.145 274.792 144.535 274.708L145.942 274.625V274.255C145.942 273.734 145.577 273.432 145.004 273.432C144.436 273.432 144.077 273.714 144.004 274.125H142.613C142.671 273.042 143.593 272.297 145.072 272.297C146.504 272.297 147.436 273.037 147.436 274.162V278H145.968V277.146H145.936C145.624 277.74 144.931 278.089 144.233 278.089ZM153.364 272.417V278H151.895V276.995H151.864C151.588 277.698 151.036 278.104 150.192 278.104C148.983 278.104 148.181 277.318 148.181 276.016V272.417H149.702V275.698C149.702 276.443 150.072 276.839 150.744 276.839C151.421 276.839 151.843 276.354 151.843 275.615V272.417H153.364ZM154.176 278V270.484H155.697V278H154.176ZM165.26 274.844C165.26 276.891 164.021 278.13 161.927 278.13C159.682 278.13 158.307 276.662 158.307 274.219C158.307 271.813 159.682 270.354 161.89 270.354C163.646 270.354 164.968 271.391 165.192 272.912H163.614C163.385 272.125 162.745 271.656 161.896 271.656C160.656 271.656 159.911 272.599 159.911 274.198C159.911 275.828 160.703 276.823 161.953 276.823C162.979 276.823 163.692 276.193 163.724 275.261L163.729 275.141H162.093V273.995H165.26V274.844ZM165.958 278V272.417H167.427V273.422H167.458C167.656 272.714 168.13 272.328 168.786 272.328C168.963 272.328 169.115 272.354 169.219 272.386V273.724C169.094 273.672 168.885 273.636 168.667 273.636C167.917 273.636 167.479 274.094 167.479 274.88V278H165.958ZM171.948 273.422C171.281 273.422 170.802 273.927 170.75 274.625H173.12C173.089 273.912 172.625 273.422 171.948 273.422ZM173.141 276.292H174.537C174.37 277.386 173.37 278.12 171.99 278.12C170.271 278.12 169.24 277.021 169.24 275.234C169.24 273.453 170.281 272.297 171.932 272.297C173.557 272.297 174.583 273.396 174.583 275.094V275.557H170.735V275.651C170.735 276.448 171.24 276.995 172.016 276.995C172.573 276.995 173 276.719 173.141 276.292ZM177.662 273.422C176.995 273.422 176.516 273.927 176.464 274.625H178.834C178.802 273.912 178.339 273.422 177.662 273.422ZM178.855 276.292H180.25C180.084 277.386 179.084 278.12 177.703 278.12C175.985 278.12 174.953 277.021 174.953 275.234C174.953 273.453 175.995 272.297 177.646 272.297C179.271 272.297 180.297 273.396 180.297 275.094V275.557H176.448V275.651C176.448 276.448 176.953 276.995 177.73 276.995C178.287 276.995 178.714 276.719 178.855 276.292ZM180.87 278V272.417H182.339V273.412H182.37C182.667 272.719 183.256 272.313 184.115 272.313C185.355 272.313 186.053 273.094 186.053 274.401V278H184.532V274.719C184.532 273.99 184.188 273.573 183.506 273.573C182.823 273.573 182.391 274.073 182.391 274.797V278H180.87ZM189.381 276.813C190.141 276.813 190.626 276.208 190.626 275.198C190.626 274.193 190.141 273.547 189.381 273.547C188.631 273.547 188.157 274.182 188.157 275.198C188.157 276.219 188.626 276.813 189.381 276.813ZM189.355 280.104C187.886 280.104 186.891 279.391 186.772 278.396H188.261C188.381 278.781 188.818 279.047 189.397 279.047C190.183 279.047 190.621 278.609 190.621 277.964V276.984H190.589C190.329 277.578 189.673 277.984 188.865 277.984C187.501 277.984 186.6 276.932 186.6 275.188C186.6 273.417 187.475 272.328 188.891 272.328C189.693 272.328 190.324 272.75 190.615 273.391H190.641V272.417H192.141V277.922C192.141 279.255 191.027 280.104 189.355 280.104ZM195.079 276.99C195.741 276.99 196.287 276.557 196.287 275.953V275.547L195.11 275.62C194.543 275.662 194.22 275.917 194.22 276.313C194.22 276.729 194.563 276.99 195.079 276.99ZM194.579 278.089C193.517 278.089 192.709 277.401 192.709 276.396C192.709 275.38 193.491 274.792 194.881 274.708L196.287 274.625V274.255C196.287 273.734 195.923 273.432 195.35 273.432C194.782 273.432 194.423 273.714 194.35 274.125H192.959C193.017 273.042 193.938 272.297 195.418 272.297C196.85 272.297 197.782 273.037 197.782 274.162V278H196.313V277.146H196.282C195.97 277.74 195.277 278.089 194.579 278.089ZM198.553 278V272.417H200.022V273.422H200.053C200.251 272.714 200.725 272.328 201.381 272.328C201.558 272.328 201.71 272.354 201.814 272.386V273.724C201.689 273.672 201.48 273.636 201.262 273.636C200.512 273.636 200.074 274.094 200.074 274.88V278H198.553ZM204.111 278.089C202.715 278.089 201.835 276.984 201.835 275.198C201.835 273.427 202.72 272.328 204.121 272.328C204.928 272.328 205.553 272.755 205.824 273.375H205.856V270.484H207.376V278H205.876V277.042H205.85C205.58 277.656 204.934 278.089 204.111 278.089ZM204.626 273.547C203.861 273.547 203.392 274.188 203.392 275.208C203.392 276.234 203.861 276.865 204.626 276.865C205.382 276.865 205.866 276.229 205.866 275.208C205.866 274.193 205.382 273.547 204.626 273.547Z" fill="black"/>
<rect x="234.199" y="267.467" width="50.6667" height="22.4" rx="11.2" fill="#3A87FD"/>
<path d="M260.799 280.867L260.386 279.618H258.588L258.168 280.867H257.285L259.018 275.982H260L261.737 280.867H260.799ZM259.462 276.913L258.791 278.927H260.183L259.519 276.913H259.462ZM262.535 275.982H264.366C265.818 275.982 266.665 276.869 266.665 278.402C266.665 279.97 265.829 280.867 264.366 280.867H262.535V275.982ZM263.408 276.737V280.112H264.251C265.223 280.112 265.774 279.506 265.774 278.416C265.774 277.349 265.209 276.737 264.251 276.737H263.408ZM267.625 275.982H269.457C270.909 275.982 271.755 276.869 271.755 278.402C271.755 279.97 270.919 280.867 269.457 280.867H267.625V275.982ZM268.499 276.737V280.112H269.342C270.313 280.112 270.865 279.506 270.865 278.416C270.865 277.349 270.3 276.737 269.342 276.737H268.499Z" fill="white"/>
<rect x="248.066" y="274.934" width="1.06667" height="7.46667" fill="white"/>
<rect x="244.866" y="278.134" width="7.46667" height="1.06667" fill="white"/>
<path d="M123.267 270.133C124.445 270.133 125.4 271.089 125.4 272.267V285.067C125.4 286.245 124.445 287.2 123.267 287.2V270.133Z" fill="#71D7EE"/>
<rect x="276.067" y="252.267" width="12.2667" height="12.2667" rx="6.13333" fill="#FF8700" stroke="#FF8700" stroke-width="0.533333"/>
<rect x="276.067" y="252.267" width="12.2667" height="12.2667" rx="6.13333" fill="#FF8700" stroke="#FF8700" stroke-width="0.533333"/>
<g clip-path="url(#clip3_87_1057)">
<g clip-path="url(#clip4_87_1057)">
<path d="M280.898 261.067C281.022 261.067 281.101 260.995 281.295 260.784L282.176 259.811C282.185 259.798 282.205 259.798 282.214 259.811L283.097 260.784C283.291 260.995 283.368 261.067 283.494 261.067C283.676 261.067 283.79 260.927 283.79 260.697L283.8 256.508C283.8 256.001 283.562 255.733 283.113 255.733H281.295C280.846 255.733 280.609 256.001 280.609 256.508L280.6 260.697C280.6 260.927 280.714 261.067 280.898 261.067Z" fill="white"/>
</g>
</g>
<rect x="124.334" y="192.267" width="174.4" height="48" rx="12.8" fill="white"/>
<path d="M137.758 208.085H140.815C142.357 208.085 143.419 209.111 143.419 210.658C143.419 212.199 142.32 213.23 140.737 213.23H139.331V215.6H137.758V208.085ZM139.331 209.329V212.001H140.393C141.294 212.001 141.82 211.522 141.82 210.663C141.82 209.809 141.299 209.329 140.398 209.329H139.331ZM145.8 214.59C146.461 214.59 147.008 214.158 147.008 213.553V213.147L145.831 213.22C145.263 213.262 144.94 213.517 144.94 213.913C144.94 214.329 145.284 214.59 145.8 214.59ZM145.3 215.689C144.237 215.689 143.43 215.001 143.43 213.996C143.43 212.98 144.211 212.392 145.602 212.309L147.008 212.225V211.855C147.008 211.335 146.643 211.033 146.071 211.033C145.503 211.033 145.143 211.314 145.071 211.725H143.68C143.737 210.642 144.659 209.897 146.138 209.897C147.571 209.897 148.503 210.637 148.503 211.762V215.6H147.034V214.746H147.003C146.69 215.34 145.998 215.689 145.3 215.689ZM154.43 210.017V215.6H152.961V214.595H152.93C152.654 215.298 152.102 215.704 151.258 215.704C150.05 215.704 149.248 214.918 149.248 213.616V210.017H150.769V213.298C150.769 214.043 151.138 214.439 151.81 214.439C152.487 214.439 152.909 213.954 152.909 213.215V210.017H154.43ZM155.243 215.6V208.085H156.764V215.6H155.243ZM166.327 212.444C166.327 214.491 165.087 215.73 162.993 215.73C160.748 215.73 159.373 214.262 159.373 211.819C159.373 209.413 160.748 207.954 162.957 207.954C164.712 207.954 166.035 208.991 166.259 210.512H164.681C164.452 209.725 163.811 209.256 162.962 209.256C161.722 209.256 160.978 210.199 160.978 211.798C160.978 213.428 161.769 214.423 163.019 214.423C164.045 214.423 164.759 213.793 164.79 212.861L164.795 212.741H163.16V211.595H166.327V212.444ZM167.025 215.6V210.017H168.493V211.022H168.525C168.723 210.314 169.197 209.928 169.853 209.928C170.03 209.928 170.181 209.954 170.285 209.986V211.324C170.16 211.272 169.952 211.236 169.733 211.236C168.983 211.236 168.546 211.694 168.546 212.48V215.6H167.025ZM173.014 211.022C172.348 211.022 171.869 211.527 171.817 212.225H174.186C174.155 211.512 173.692 211.022 173.014 211.022ZM174.207 213.892H175.603C175.436 214.986 174.436 215.72 173.056 215.72C171.337 215.72 170.306 214.621 170.306 212.835C170.306 211.053 171.348 209.897 172.999 209.897C174.624 209.897 175.65 210.996 175.65 212.694V213.158H171.801V213.251C171.801 214.048 172.306 214.595 173.082 214.595C173.639 214.595 174.067 214.319 174.207 213.892ZM178.728 211.022C178.062 211.022 177.582 211.527 177.53 212.225H179.9C179.869 211.512 179.405 211.022 178.728 211.022ZM179.921 213.892H181.317C181.15 214.986 180.15 215.72 178.77 215.72C177.051 215.72 176.02 214.621 176.02 212.835C176.02 211.053 177.062 209.897 178.713 209.897C180.338 209.897 181.364 210.996 181.364 212.694V213.158H177.515V213.251C177.515 214.048 178.02 214.595 178.796 214.595C179.353 214.595 179.78 214.319 179.921 213.892ZM181.937 215.6V210.017H183.406V211.012H183.437C183.734 210.319 184.322 209.913 185.182 209.913C186.421 209.913 187.119 210.694 187.119 212.001V215.6H185.598V212.319C185.598 211.59 185.254 211.173 184.572 211.173C183.89 211.173 183.458 211.673 183.458 212.397V215.6H181.937ZM190.447 214.413C191.208 214.413 191.692 213.809 191.692 212.798C191.692 211.793 191.208 211.147 190.447 211.147C189.697 211.147 189.223 211.783 189.223 212.798C189.223 213.819 189.692 214.413 190.447 214.413ZM190.421 217.704C188.953 217.704 187.958 216.991 187.838 215.996H189.328C189.447 216.381 189.885 216.647 190.463 216.647C191.249 216.647 191.687 216.21 191.687 215.564V214.585H191.656C191.395 215.178 190.739 215.585 189.932 215.585C188.567 215.585 187.666 214.533 187.666 212.788C187.666 211.017 188.541 209.928 189.958 209.928C190.76 209.928 191.39 210.35 191.682 210.991H191.708V210.017H193.208V215.522C193.208 216.855 192.093 217.704 190.421 217.704ZM196.146 214.59C196.807 214.59 197.354 214.158 197.354 213.553V213.147L196.177 213.22C195.609 213.262 195.286 213.517 195.286 213.913C195.286 214.329 195.63 214.59 196.146 214.59ZM195.646 215.689C194.583 215.689 193.776 215.001 193.776 213.996C193.776 212.98 194.557 212.392 195.948 212.309L197.354 212.225V211.855C197.354 211.335 196.989 211.033 196.416 211.033C195.849 211.033 195.489 211.314 195.416 211.725H194.026C194.083 210.642 195.005 209.897 196.484 209.897C197.916 209.897 198.849 210.637 198.849 211.762V215.6H197.38V214.746H197.349C197.036 215.34 196.343 215.689 195.646 215.689ZM199.62 215.6V210.017H201.088V211.022H201.12C201.318 210.314 201.792 209.928 202.448 209.928C202.625 209.928 202.776 209.954 202.88 209.986V211.324C202.755 211.272 202.547 211.236 202.328 211.236C201.578 211.236 201.141 211.694 201.141 212.48V215.6H199.62ZM205.177 215.689C203.781 215.689 202.901 214.585 202.901 212.798C202.901 211.027 203.787 209.928 205.188 209.928C205.995 209.928 206.62 210.355 206.891 210.975H206.922V208.085H208.443V215.6H206.943V214.642H206.917C206.646 215.256 206 215.689 205.177 215.689ZM205.693 211.147C204.927 211.147 204.458 211.788 204.458 212.809C204.458 213.835 204.927 214.465 205.693 214.465C206.448 214.465 206.932 213.829 206.932 212.809C206.932 211.793 206.448 211.147 205.693 211.147Z" fill="black"/>
<path d="M138.209 226.534H137.607V221.649H138.199L140.874 225.484H140.904V221.649H141.507V226.534H140.914L138.24 222.712H138.209V226.534ZM143.636 223.463C143.085 223.463 142.699 223.886 142.661 224.472H144.574C144.561 223.883 144.192 223.463 143.636 223.463ZM144.561 225.525H145.139C145.038 226.141 144.442 226.595 143.674 226.595C142.665 226.595 142.052 225.894 142.052 224.787C142.052 223.693 142.675 222.952 143.646 222.952C144.598 222.952 145.183 223.643 145.183 224.709V224.932H142.658V224.966C142.658 225.64 143.054 226.083 143.687 226.083C144.134 226.083 144.462 225.857 144.561 225.525ZM148.532 223.013V226.534H147.973V225.962H147.96C147.75 226.368 147.384 226.595 146.842 226.595C146.074 226.595 145.624 226.097 145.624 225.298V223.013H146.213V225.193C146.213 225.765 146.48 226.073 147.025 226.073C147.597 226.073 147.943 225.681 147.943 225.081V223.013H148.532ZM149.158 226.534V223.013H149.713V223.588H149.727C149.842 223.199 150.167 222.952 150.58 222.952C150.682 222.952 150.77 222.969 150.817 222.976V223.548C150.77 223.531 150.644 223.514 150.502 223.514C150.045 223.514 149.747 223.842 149.747 224.34V226.534H149.158ZM152.449 226.595C151.474 226.595 150.817 225.894 150.817 224.773C150.817 223.649 151.474 222.952 152.449 222.952C153.421 222.952 154.077 223.649 154.077 224.773C154.077 225.894 153.421 226.595 152.449 226.595ZM152.449 226.077C153.072 226.077 153.478 225.603 153.478 224.773C153.478 223.944 153.072 223.47 152.449 223.47C151.826 223.47 151.416 223.944 151.416 224.773C151.416 225.603 151.826 226.077 152.449 226.077ZM154.474 223.984C154.474 223.382 155.005 222.952 155.767 222.952C156.539 222.952 157.053 223.406 157.077 224.028H156.515C156.471 223.659 156.2 223.433 155.767 223.433C155.337 223.433 155.052 223.646 155.052 223.954C155.052 224.198 155.232 224.364 155.625 224.458L156.183 224.594C156.894 224.767 157.151 225.044 157.151 225.549C157.151 226.161 156.573 226.595 155.787 226.595C154.961 226.595 154.447 226.178 154.379 225.518H154.968C155.039 225.921 155.31 226.114 155.787 226.114C156.264 226.114 156.559 225.911 156.559 225.593C156.559 225.339 156.42 225.193 156.017 225.095L155.459 224.959C154.795 224.8 154.474 224.492 154.474 223.984ZM160.551 224.167H159.975C159.89 223.785 159.592 223.47 159.075 223.47C158.465 223.47 158.052 223.974 158.052 224.773C158.052 225.593 158.472 226.077 159.081 226.077C159.562 226.077 159.877 225.823 159.978 225.4H160.557C160.466 226.1 159.877 226.595 159.078 226.595C158.103 226.595 157.453 225.907 157.453 224.773C157.453 223.663 158.1 222.952 159.071 222.952C159.951 222.952 160.476 223.534 160.551 224.167ZM160.991 226.534V223.013H161.58V226.534H160.991ZM161.285 222.387C161.082 222.387 160.916 222.221 160.916 222.018C160.916 221.811 161.082 221.649 161.285 221.649C161.492 221.649 161.654 221.811 161.654 222.018C161.654 222.221 161.492 222.387 161.285 222.387ZM163.648 223.463C163.097 223.463 162.711 223.886 162.673 224.472H164.586C164.573 223.883 164.204 223.463 163.648 223.463ZM164.573 225.525H165.152C165.05 226.141 164.454 226.595 163.686 226.595C162.677 226.595 162.064 225.894 162.064 224.787C162.064 223.693 162.687 222.952 163.659 222.952C164.61 222.952 165.196 223.643 165.196 224.709V224.932H162.67V224.966C162.67 225.64 163.066 226.083 163.699 226.083C164.146 226.083 164.475 225.857 164.573 225.525ZM165.653 226.534V223.013H166.208V223.575H166.222C166.418 223.196 166.794 222.952 167.339 222.952C168.111 222.952 168.557 223.45 168.557 224.249V226.534H167.968V224.353C167.968 223.785 167.701 223.473 167.159 223.473C166.604 223.473 166.242 223.866 166.242 224.462V226.534H165.653ZM169.36 222.163H169.949V223.013H170.633V223.497H169.949V225.589C169.949 225.911 170.084 226.056 170.386 226.056C170.453 226.056 170.589 226.046 170.629 226.039V226.534C170.558 226.551 170.396 226.561 170.257 226.561C169.61 226.561 169.36 226.297 169.36 225.62V223.497H168.835V223.013H169.36V222.163ZM171.154 226.534V223.013H171.743V226.534H171.154ZM171.449 222.387C171.246 222.387 171.08 222.221 171.08 222.018C171.08 221.811 171.246 221.649 171.449 221.649C171.655 221.649 171.818 221.811 171.818 222.018C171.818 222.221 171.655 222.387 171.449 222.387ZM172.339 223.984C172.339 223.382 172.871 222.952 173.633 222.952C174.404 222.952 174.919 223.406 174.943 224.028H174.381C174.337 223.659 174.066 223.433 173.633 223.433C173.203 223.433 172.918 223.646 172.918 223.954C172.918 224.198 173.098 224.364 173.49 224.458L174.049 224.594C174.76 224.767 175.017 225.044 175.017 225.549C175.017 226.161 174.438 226.595 173.653 226.595C172.827 226.595 172.312 226.178 172.245 225.518H172.834C172.905 225.921 173.176 226.114 173.653 226.114C174.13 226.114 174.425 225.911 174.425 225.593C174.425 225.339 174.286 225.193 173.883 225.095L173.325 224.959C172.661 224.8 172.339 224.492 172.339 223.984ZM175.681 222.163H176.27V223.013H176.954V223.497H176.27V225.589C176.27 225.911 176.405 226.056 176.707 226.056C176.774 226.056 176.91 226.046 176.95 226.039V226.534C176.879 226.551 176.717 226.561 176.578 226.561C175.931 226.561 175.681 226.297 175.681 225.62V223.497H175.156V223.013H175.681V222.163Z" fill="black"/>
<rect x="235.266" y="205.067" width="50.6667" height="22.4" rx="11.2" fill="#3A87FD"/>
<path d="M261.865 218.467L261.452 217.218H259.654L259.235 218.467H258.351L260.084 213.582H261.066L262.803 218.467H261.865ZM260.528 214.513L259.858 216.527H261.249L260.585 214.513H260.528ZM263.601 213.582H265.432C266.885 213.582 267.731 214.469 267.731 216.002C267.731 217.57 266.895 218.467 265.432 218.467H263.601V213.582ZM264.474 214.337V217.712H265.317C266.289 217.712 266.841 217.106 266.841 216.016C266.841 214.949 266.275 214.337 265.317 214.337H264.474ZM268.692 213.582H270.523C271.975 213.582 272.822 214.469 272.822 216.002C272.822 217.57 271.986 218.467 270.523 218.467H268.692V213.582ZM269.565 214.337V217.712H270.408C271.38 217.712 271.931 217.106 271.931 216.016C271.931 214.949 271.366 214.337 270.408 214.337H269.565Z" fill="white"/>
<rect x="249.133" y="212.534" width="1.06667" height="7.46667" fill="white"/>
<rect x="245.933" y="215.734" width="7.46667" height="1.06667" fill="white"/>
<path d="M124.334 207.734C125.512 207.734 126.467 208.689 126.467 209.867V222.667C126.467 223.845 125.512 224.8 124.334 224.8V207.734Z" fill="#71D7EE"/>
<rect x="277.133" y="189.867" width="12.2667" height="12.2667" rx="6.13333" fill="#FF8700" stroke="#FF8700" stroke-width="0.533333"/>
<rect x="277.133" y="189.867" width="12.2667" height="12.2667" rx="6.13333" fill="#FF8700" stroke="#FF8700" stroke-width="0.533333"/>
<g clip-path="url(#clip5_87_1057)">
<g clip-path="url(#clip6_87_1057)">
<path d="M281.966 198.667C282.089 198.667 282.169 198.595 282.363 198.384L283.243 197.411C283.252 197.398 283.273 197.398 283.282 197.411L284.164 198.384C284.358 198.595 284.436 198.667 284.561 198.667C284.744 198.667 284.858 198.527 284.858 198.297L284.867 194.108C284.867 193.601 284.63 193.333 284.18 193.333H282.363C281.913 193.333 281.676 193.601 281.676 194.108L281.667 198.297C281.667 198.527 281.781 198.667 281.966 198.667Z" fill="white"/>
</g>
</g>
<rect x="123.267" y="130.4" width="174.4" height="48" rx="12.8" fill="white"/>
<path d="M136.691 146.218H139.749C141.29 146.218 142.353 147.244 142.353 148.791C142.353 150.332 141.254 151.364 139.671 151.364H138.264V153.734H136.691V146.218ZM138.264 147.463V150.135H139.327C140.228 150.135 140.754 149.655 140.754 148.796C140.754 147.942 140.233 147.463 139.332 147.463H138.264ZM144.733 152.723C145.395 152.723 145.942 152.291 145.942 151.687V151.28L144.765 151.353C144.197 151.395 143.874 151.65 143.874 152.046C143.874 152.463 144.218 152.723 144.733 152.723ZM144.233 153.822C143.171 153.822 142.363 153.135 142.363 152.129C142.363 151.114 143.145 150.525 144.535 150.442L145.942 150.359V149.989C145.942 149.468 145.577 149.166 145.004 149.166C144.436 149.166 144.077 149.447 144.004 149.859H142.613C142.671 148.775 143.593 148.03 145.072 148.03C146.504 148.03 147.436 148.77 147.436 149.895V153.734H145.968V152.879H145.936C145.624 153.473 144.931 153.822 144.233 153.822ZM153.364 148.15V153.734H151.895V152.728H151.864C151.588 153.431 151.036 153.838 150.192 153.838C148.983 153.838 148.181 153.051 148.181 151.749V148.15H149.702V151.431C149.702 152.176 150.072 152.572 150.744 152.572C151.421 152.572 151.843 152.088 151.843 151.348V148.15H153.364ZM154.176 153.734V146.218H155.697V153.734H154.176ZM165.26 150.577C165.26 152.624 164.021 153.864 161.927 153.864C159.682 153.864 158.307 152.395 158.307 149.952C158.307 147.546 159.682 146.088 161.89 146.088C163.646 146.088 164.968 147.124 165.192 148.645H163.614C163.385 147.859 162.745 147.39 161.896 147.39C160.656 147.39 159.911 148.332 159.911 149.931C159.911 151.562 160.703 152.556 161.953 152.556C162.979 152.556 163.692 151.926 163.724 150.994L163.729 150.874H162.093V149.728H165.26V150.577ZM165.958 153.734V148.15H167.427V149.155H167.458C167.656 148.447 168.13 148.062 168.786 148.062C168.963 148.062 169.115 148.088 169.219 148.119V149.457C169.094 149.405 168.885 149.369 168.667 149.369C167.917 149.369 167.479 149.827 167.479 150.614V153.734H165.958ZM171.948 149.155C171.281 149.155 170.802 149.661 170.75 150.359H173.12C173.089 149.645 172.625 149.155 171.948 149.155ZM173.141 152.025H174.537C174.37 153.119 173.37 153.853 171.99 153.853C170.271 153.853 169.24 152.754 169.24 150.968C169.24 149.187 170.281 148.03 171.932 148.03C173.557 148.03 174.583 149.129 174.583 150.827V151.291H170.735V151.385C170.735 152.181 171.24 152.728 172.016 152.728C172.573 152.728 173 152.452 173.141 152.025ZM177.662 149.155C176.995 149.155 176.516 149.661 176.464 150.359H178.834C178.802 149.645 178.339 149.155 177.662 149.155ZM178.855 152.025H180.25C180.084 153.119 179.084 153.853 177.703 153.853C175.985 153.853 174.953 152.754 174.953 150.968C174.953 149.187 175.995 148.03 177.646 148.03C179.271 148.03 180.297 149.129 180.297 150.827V151.291H176.448V151.385C176.448 152.181 176.953 152.728 177.73 152.728C178.287 152.728 178.714 152.452 178.855 152.025ZM180.87 153.734V148.15H182.339V149.145H182.37C182.667 148.452 183.256 148.046 184.115 148.046C185.355 148.046 186.053 148.827 186.053 150.135V153.734H184.532V150.452C184.532 149.723 184.188 149.306 183.506 149.306C182.823 149.306 182.391 149.806 182.391 150.53V153.734H180.87ZM189.381 152.546C190.141 152.546 190.626 151.942 190.626 150.931C190.626 149.926 190.141 149.28 189.381 149.28C188.631 149.28 188.157 149.916 188.157 150.931C188.157 151.952 188.626 152.546 189.381 152.546ZM189.355 155.838C187.886 155.838 186.891 155.124 186.772 154.129H188.261C188.381 154.515 188.818 154.78 189.397 154.78C190.183 154.78 190.621 154.343 190.621 153.697V152.718H190.589C190.329 153.312 189.673 153.718 188.865 153.718C187.501 153.718 186.6 152.666 186.6 150.921C186.6 149.15 187.475 148.062 188.891 148.062C189.693 148.062 190.324 148.484 190.615 149.124H190.641V148.15H192.141V153.655C192.141 154.989 191.027 155.838 189.355 155.838ZM195.079 152.723C195.741 152.723 196.287 152.291 196.287 151.687V151.28L195.11 151.353C194.543 151.395 194.22 151.65 194.22 152.046C194.22 152.463 194.563 152.723 195.079 152.723ZM194.579 153.822C193.517 153.822 192.709 153.135 192.709 152.129C192.709 151.114 193.491 150.525 194.881 150.442L196.287 150.359V149.989C196.287 149.468 195.923 149.166 195.35 149.166C194.782 149.166 194.423 149.447 194.35 149.859H192.959C193.017 148.775 193.938 148.03 195.418 148.03C196.85 148.03 197.782 148.77 197.782 149.895V153.734H196.313V152.879H196.282C195.97 153.473 195.277 153.822 194.579 153.822ZM198.553 153.734V148.15H200.022V149.155H200.053C200.251 148.447 200.725 148.062 201.381 148.062C201.558 148.062 201.71 148.088 201.814 148.119V149.457C201.689 149.405 201.48 149.369 201.262 149.369C200.512 149.369 200.074 149.827 200.074 150.614V153.734H198.553ZM204.111 153.822C202.715 153.822 201.835 152.718 201.835 150.931C201.835 149.161 202.72 148.062 204.121 148.062C204.928 148.062 205.553 148.489 205.824 149.109H205.856V146.218H207.376V153.734H205.876V152.775H205.85C205.58 153.39 204.934 153.822 204.111 153.822ZM204.626 149.28C203.861 149.28 203.392 149.921 203.392 150.942C203.392 151.968 203.861 152.598 204.626 152.598C205.382 152.598 205.866 151.963 205.866 150.942C205.866 149.926 205.382 149.28 204.626 149.28Z" fill="black"/>
<path d="M137.143 164.667H136.54V159.782H137.133L139.807 163.617H139.838V159.782H140.44V164.667H139.848L137.173 160.845H137.143V164.667ZM142.57 161.596C142.018 161.596 141.632 162.019 141.595 162.605H143.508C143.494 162.016 143.125 161.596 142.57 161.596ZM143.494 163.658H144.073C143.971 164.274 143.376 164.728 142.607 164.728C141.598 164.728 140.986 164.027 140.986 162.92C140.986 161.827 141.608 161.085 142.58 161.085C143.531 161.085 144.117 161.776 144.117 162.842V163.066H141.592V163.099C141.592 163.773 141.988 164.217 142.621 164.217C143.068 164.217 143.396 163.99 143.494 163.658ZM147.465 161.146V164.667H146.907V164.095H146.893C146.683 164.501 146.318 164.728 145.776 164.728C145.008 164.728 144.557 164.23 144.557 163.431V161.146H145.146V163.326C145.146 163.898 145.414 164.206 145.959 164.206C146.531 164.206 146.876 163.814 146.876 163.215V161.146H147.465ZM148.092 164.667V161.146H148.647V161.722H148.661C148.776 161.332 149.101 161.085 149.514 161.085C149.615 161.085 149.703 161.102 149.751 161.109V161.681C149.703 161.664 149.578 161.647 149.436 161.647C148.979 161.647 148.681 161.975 148.681 162.473V164.667H148.092ZM151.383 164.728C150.408 164.728 149.751 164.027 149.751 162.906C149.751 161.782 150.408 161.085 151.383 161.085C152.354 161.085 153.011 161.782 153.011 162.906C153.011 164.027 152.354 164.728 151.383 164.728ZM151.383 164.21C152.005 164.21 152.412 163.736 152.412 162.906C152.412 162.077 152.005 161.603 151.383 161.603C150.76 161.603 150.35 162.077 150.35 162.906C150.35 163.736 150.76 164.21 151.383 164.21ZM153.407 162.118C153.407 161.515 153.939 161.085 154.7 161.085C155.472 161.085 155.987 161.539 156.011 162.162H155.449C155.405 161.793 155.134 161.566 154.7 161.566C154.27 161.566 153.986 161.779 153.986 162.087C153.986 162.331 154.166 162.497 154.558 162.592L155.117 162.727C155.828 162.9 156.085 163.177 156.085 163.682C156.085 164.294 155.506 164.728 154.721 164.728C153.895 164.728 153.38 164.311 153.312 163.651H153.901C153.973 164.054 154.243 164.247 154.721 164.247C155.198 164.247 155.493 164.044 155.493 163.726C155.493 163.472 155.354 163.326 154.951 163.228L154.392 163.093C153.729 162.934 153.407 162.625 153.407 162.118ZM159.484 162.3H158.909C158.824 161.918 158.526 161.603 158.008 161.603C157.399 161.603 156.986 162.107 156.986 162.906C156.986 163.726 157.405 164.21 158.015 164.21C158.496 164.21 158.81 163.956 158.912 163.533H159.491C159.4 164.234 158.81 164.728 158.011 164.728C157.036 164.728 156.386 164.041 156.386 162.906C156.386 161.796 157.033 161.085 158.005 161.085C158.885 161.085 159.41 161.667 159.484 162.3ZM159.924 164.667V161.146H160.513V164.667H159.924ZM160.219 160.52C160.016 160.52 159.85 160.354 159.85 160.151C159.85 159.944 160.016 159.782 160.219 159.782C160.425 159.782 160.588 159.944 160.588 160.151C160.588 160.354 160.425 160.52 160.219 160.52ZM162.582 161.596C162.03 161.596 161.644 162.019 161.607 162.605H163.52C163.506 162.016 163.137 161.596 162.582 161.596ZM163.506 163.658H164.085C163.984 164.274 163.388 164.728 162.619 164.728C161.61 164.728 160.998 164.027 160.998 162.92C160.998 161.827 161.621 161.085 162.592 161.085C163.544 161.085 164.129 161.776 164.129 162.842V163.066H161.604V163.099C161.604 163.773 162 164.217 162.633 164.217C163.08 164.217 163.408 163.99 163.506 163.658ZM164.586 164.667V161.146H165.142V161.708H165.155C165.351 161.329 165.727 161.085 166.272 161.085C167.044 161.085 167.491 161.583 167.491 162.382V164.667H166.902V162.487C166.902 161.918 166.635 161.606 166.093 161.606C165.538 161.606 165.175 161.999 165.175 162.595V164.667H164.586ZM168.294 160.296H168.883V161.146H169.566V161.63H168.883V163.722C168.883 164.044 169.018 164.19 169.319 164.19C169.387 164.19 169.522 164.179 169.563 164.173V164.667C169.492 164.684 169.329 164.694 169.191 164.694C168.544 164.694 168.294 164.43 168.294 163.753V161.63H167.769V161.146H168.294V160.296ZM170.088 164.667V161.146H170.677V164.667H170.088ZM170.382 160.52C170.179 160.52 170.013 160.354 170.013 160.151C170.013 159.944 170.179 159.782 170.382 159.782C170.589 159.782 170.751 159.944 170.751 160.151C170.751 160.354 170.589 160.52 170.382 160.52ZM171.273 162.118C171.273 161.515 171.804 161.085 172.566 161.085C173.338 161.085 173.853 161.539 173.876 162.162H173.314C173.27 161.793 173 161.566 172.566 161.566C172.136 161.566 171.852 161.779 171.852 162.087C171.852 162.331 172.031 162.497 172.424 162.592L172.983 162.727C173.694 162.9 173.951 163.177 173.951 163.682C173.951 164.294 173.372 164.728 172.587 164.728C171.76 164.728 171.246 164.311 171.178 163.651H171.767C171.838 164.054 172.109 164.247 172.587 164.247C173.064 164.247 173.358 164.044 173.358 163.726C173.358 163.472 173.22 163.326 172.817 163.228L172.258 163.093C171.595 162.934 171.273 162.625 171.273 162.118ZM174.615 160.296H175.204V161.146H175.887V161.63H175.204V163.722C175.204 164.044 175.339 164.19 175.64 164.19C175.708 164.19 175.843 164.179 175.884 164.173V164.667C175.813 164.684 175.65 164.694 175.512 164.694C174.865 164.694 174.615 164.43 174.615 163.753V161.63H174.09V161.146H174.615V160.296Z" fill="black"/>
<rect x="234.199" y="143.2" width="50.6667" height="22.4" rx="11.2" fill="#3A87FD"/>
<path d="M260.799 156.6L260.386 155.351H258.588L258.168 156.6H257.285L259.018 151.715H260L261.737 156.6H260.799ZM259.462 152.646L258.791 154.66H260.183L259.519 152.646H259.462ZM262.535 151.715H264.366C265.818 151.715 266.665 152.602 266.665 154.136C266.665 155.703 265.829 156.6 264.366 156.6H262.535V151.715ZM263.408 152.47V155.845H264.251C265.223 155.845 265.774 155.239 265.774 154.149C265.774 153.083 265.209 152.47 264.251 152.47H263.408ZM267.625 151.715H269.457C270.909 151.715 271.755 152.602 271.755 154.136C271.755 155.703 270.919 156.6 269.457 156.6H267.625V151.715ZM268.499 152.47V155.845H269.342C270.313 155.845 270.865 155.239 270.865 154.149C270.865 153.083 270.3 152.47 269.342 152.47H268.499Z" fill="white"/>
<rect x="248.066" y="150.667" width="1.06667" height="7.46667" fill="white"/>
<rect x="244.866" y="153.867" width="7.46667" height="1.06667" fill="white"/>
<path d="M123.267 145.867C124.445 145.867 125.4 146.822 125.4 148V160.8C125.4 161.978 124.445 162.933 123.267 162.933V145.867Z" fill="#71D7EE"/>
<rect x="276.067" y="128" width="12.2667" height="12.2667" rx="6.13333" fill="#FF8700" stroke="#FF8700" stroke-width="0.533333"/>
<rect x="276.067" y="128" width="12.2667" height="12.2667" rx="6.13333" fill="#FF8700" stroke="#FF8700" stroke-width="0.533333"/>
<g clip-path="url(#clip7_87_1057)">
<g clip-path="url(#clip8_87_1057)">
<path d="M280.898 136.8C281.022 136.8 281.101 136.729 281.295 136.517L282.176 135.544C282.185 135.532 282.205 135.532 282.214 135.544L283.097 136.517C283.291 136.729 283.368 136.8 283.494 136.8C283.676 136.8 283.79 136.66 283.79 136.431L283.8 132.241C283.8 131.734 283.562 131.467 283.113 131.467H281.295C280.846 131.467 280.609 131.734 280.609 132.241L280.6 136.431C280.6 136.66 280.714 136.8 280.898 136.8Z" fill="white"/>
</g>
</g>
<rect x="123.267" y="254.667" width="174.4" height="48" rx="12.8" fill="white"/>
<path d="M136.691 270.484H139.749C141.29 270.484 142.353 271.511 142.353 273.057C142.353 274.599 141.254 275.63 139.671 275.63H138.264V278H136.691V270.484ZM138.264 271.729V274.401H139.327C140.228 274.401 140.754 273.922 140.754 273.063C140.754 272.208 140.233 271.729 139.332 271.729H138.264ZM144.733 276.99C145.395 276.99 145.942 276.557 145.942 275.953V275.547L144.765 275.62C144.197 275.662 143.874 275.917 143.874 276.313C143.874 276.729 144.218 276.99 144.733 276.99ZM144.233 278.089C143.171 278.089 142.363 277.401 142.363 276.396C142.363 275.38 143.145 274.792 144.535 274.708L145.942 274.625V274.255C145.942 273.734 145.577 273.432 145.004 273.432C144.436 273.432 144.077 273.714 144.004 274.125H142.613C142.671 273.042 143.593 272.297 145.072 272.297C146.504 272.297 147.436 273.037 147.436 274.162V278H145.968V277.146H145.936C145.624 277.74 144.931 278.089 144.233 278.089ZM153.364 272.417V278H151.895V276.995H151.864C151.588 277.698 151.036 278.104 150.192 278.104C148.983 278.104 148.181 277.318 148.181 276.016V272.417H149.702V275.698C149.702 276.443 150.072 276.839 150.744 276.839C151.421 276.839 151.843 276.354 151.843 275.615V272.417H153.364ZM154.176 278V270.484H155.697V278H154.176ZM165.26 274.844C165.26 276.891 164.021 278.13 161.927 278.13C159.682 278.13 158.307 276.662 158.307 274.219C158.307 271.813 159.682 270.354 161.89 270.354C163.646 270.354 164.968 271.391 165.192 272.912H163.614C163.385 272.125 162.745 271.656 161.896 271.656C160.656 271.656 159.911 272.599 159.911 274.198C159.911 275.828 160.703 276.823 161.953 276.823C162.979 276.823 163.692 276.193 163.724 275.261L163.729 275.141H162.093V273.995H165.26V274.844ZM165.958 278V272.417H167.427V273.422H167.458C167.656 272.714 168.13 272.328 168.786 272.328C168.963 272.328 169.115 272.354 169.219 272.386V273.724C169.094 273.672 168.885 273.636 168.667 273.636C167.917 273.636 167.479 274.094 167.479 274.88V278H165.958ZM171.948 273.422C171.281 273.422 170.802 273.927 170.75 274.625H173.12C173.089 273.912 172.625 273.422 171.948 273.422ZM173.141 276.292H174.537C174.37 277.386 173.37 278.12 171.99 278.12C170.271 278.12 169.24 277.021 169.24 275.234C169.24 273.453 170.281 272.297 171.932 272.297C173.557 272.297 174.583 273.396 174.583 275.094V275.557H170.735V275.651C170.735 276.448 171.24 276.995 172.016 276.995C172.573 276.995 173 276.719 173.141 276.292ZM177.662 273.422C176.995 273.422 176.516 273.927 176.464 274.625H178.834C178.802 273.912 178.339 273.422 177.662 273.422ZM178.855 276.292H180.25C180.084 277.386 179.084 278.12 177.703 278.12C175.985 278.12 174.953 277.021 174.953 275.234C174.953 273.453 175.995 272.297 177.646 272.297C179.271 272.297 180.297 273.396 180.297 275.094V275.557H176.448V275.651C176.448 276.448 176.953 276.995 177.73 276.995C178.287 276.995 178.714 276.719 178.855 276.292ZM180.87 278V272.417H182.339V273.412H182.37C182.667 272.719 183.256 272.313 184.115 272.313C185.355 272.313 186.053 273.094 186.053 274.401V278H184.532V274.719C184.532 273.99 184.188 273.573 183.506 273.573C182.823 273.573 182.391 274.073 182.391 274.797V278H180.87ZM189.381 276.813C190.141 276.813 190.626 276.208 190.626 275.198C190.626 274.193 190.141 273.547 189.381 273.547C188.631 273.547 188.157 274.182 188.157 275.198C188.157 276.219 188.626 276.813 189.381 276.813ZM189.355 280.104C187.886 280.104 186.891 279.391 186.772 278.396H188.261C188.381 278.781 188.818 279.047 189.397 279.047C190.183 279.047 190.621 278.609 190.621 277.964V276.984H190.589C190.329 277.578 189.673 277.984 188.865 277.984C187.501 277.984 186.6 276.932 186.6 275.188C186.6 273.417 187.475 272.328 188.891 272.328C189.693 272.328 190.324 272.75 190.615 273.391H190.641V272.417H192.141V277.922C192.141 279.255 191.027 280.104 189.355 280.104ZM195.079 276.99C195.741 276.99 196.287 276.557 196.287 275.953V275.547L195.11 275.62C194.543 275.662 194.22 275.917 194.22 276.313C194.22 276.729 194.563 276.99 195.079 276.99ZM194.579 278.089C193.517 278.089 192.709 277.401 192.709 276.396C192.709 275.38 193.491 274.792 194.881 274.708L196.287 274.625V274.255C196.287 273.734 195.923 273.432 195.35 273.432C194.782 273.432 194.423 273.714 194.35 274.125H192.959C193.017 273.042 193.938 272.297 195.418 272.297C196.85 272.297 197.782 273.037 197.782 274.162V278H196.313V277.146H196.282C195.97 277.74 195.277 278.089 194.579 278.089ZM198.553 278V272.417H200.022V273.422H200.053C200.251 272.714 200.725 272.328 201.381 272.328C201.558 272.328 201.71 272.354 201.814 272.386V273.724C201.689 273.672 201.48 273.636 201.262 273.636C200.512 273.636 200.074 274.094 200.074 274.88V278H198.553ZM204.111 278.089C202.715 278.089 201.835 276.984 201.835 275.198C201.835 273.427 202.72 272.328 204.121 272.328C204.928 272.328 205.553 272.755 205.824 273.375H205.856V270.484H207.376V278H205.876V277.042H205.85C205.58 277.656 204.934 278.089 204.111 278.089ZM204.626 273.547C203.861 273.547 203.392 274.188 203.392 275.208C203.392 276.234 203.861 276.865 204.626 276.865C205.382 276.865 205.866 276.229 205.866 275.208C205.866 274.193 205.382 273.547 204.626 273.547Z" fill="black"/>
<rect x="234.199" y="267.467" width="50.6667" height="22.4" rx="11.2" fill="#3A87FD"/>
<path d="M260.799 280.867L260.386 279.618H258.588L258.168 280.867H257.285L259.018 275.982H260L261.737 280.867H260.799ZM259.462 276.913L258.791 278.927H260.183L259.519 276.913H259.462ZM262.535 275.982H264.366C265.818 275.982 266.665 276.869 266.665 278.402C266.665 279.97 265.829 280.867 264.366 280.867H262.535V275.982ZM263.408 276.737V280.112H264.251C265.223 280.112 265.774 279.506 265.774 278.416C265.774 277.349 265.209 276.737 264.251 276.737H263.408ZM267.625 275.982H269.457C270.909 275.982 271.755 276.869 271.755 278.402C271.755 279.97 270.919 280.867 269.457 280.867H267.625V275.982ZM268.499 276.737V280.112H269.342C270.313 280.112 270.865 279.506 270.865 278.416C270.865 277.349 270.3 276.737 269.342 276.737H268.499Z" fill="white"/>
<rect x="248.066" y="274.934" width="1.06667" height="7.46667" fill="white"/>
<rect x="244.866" y="278.134" width="7.46667" height="1.06667" fill="white"/>
<path d="M123.267 270.133C124.445 270.133 125.4 271.089 125.4 272.267V285.067C125.4 286.245 124.445 287.2 123.267 287.2V270.133Z" fill="#71D7EE"/>
<rect x="276.067" y="252.267" width="12.2667" height="12.2667" rx="6.13333" fill="#FF8700" stroke="#FF8700" stroke-width="0.533333"/>
<rect x="276.067" y="252.267" width="12.2667" height="12.2667" rx="6.13333" fill="#FF8700" stroke="#FF8700" stroke-width="0.533333"/>
<g clip-path="url(#clip9_87_1057)">
<g clip-path="url(#clip10_87_1057)">
<path d="M280.898 261.067C281.022 261.067 281.101 260.995 281.295 260.784L282.176 259.811C282.185 259.798 282.205 259.798 282.214 259.811L283.097 260.784C283.291 260.995 283.368 261.067 283.494 261.067C283.676 261.067 283.79 260.927 283.79 260.697L283.8 256.508C283.8 256.001 283.562 255.733 283.113 255.733H281.295C280.846 255.733 280.609 256.001 280.609 256.508L280.6 260.697C280.6 260.927 280.714 261.067 280.898 261.067Z" fill="white"/>
</g>
</g>
</g>
</g>
<defs>
<filter id="filter0_f_87_1057" x="-272.516" y="-276.922" width="837.438" height="837.438" filterUnits="userSpaceOnUse" color-interpolation-filters="sRGB">
<feFlood flood-opacity="0" result="BackgroundImageFix"/>
<feBlend mode="normal" in="SourceGraphic" in2="BackgroundImageFix" result="shape"/>
<feGaussianBlur stdDeviation="108.758" result="effect1_foregroundBlur_87_1057"/>
</filter>
<filter id="filter1_f_87_1057" x="-109.924" y="-290.516" width="837.438" height="837.438" filterUnits="userSpaceOnUse" color-interpolation-filters="sRGB">
<feFlood flood-opacity="0" result="BackgroundImageFix"/>
<feBlend mode="normal" in="SourceGraphic" in2="BackgroundImageFix" result="shape"/>
<feGaussianBlur stdDeviation="108.758" result="effect1_foregroundBlur_87_1057"/>
</filter>
<clipPath id="clip0_87_1057">
<rect x="111" y="20" width="200" height="433.067" rx="14.652" fill="white"/>
</clipPath>
<clipPath id="clip1_87_1057">
<rect width="200" height="23.4667" fill="white" transform="translate(111 20)"/>
</clipPath>
<clipPath id="clip2_87_1057">
<rect width="200" height="23.4667" fill="white" transform="translate(111 20)"/>
</clipPath>
<clipPath id="clip3_87_1057">
<rect width="8.53333" height="8.53333" fill="white" transform="translate(277.934 254.133)"/>
</clipPath>
<clipPath id="clip4_87_1057">
<rect width="14.9333" height="14.9333" fill="white" transform="translate(277.934 254.133)"/>
</clipPath>
<clipPath id="clip5_87_1057">
<rect width="8.53333" height="8.53333" fill="white" transform="translate(279 191.733)"/>
</clipPath>
<clipPath id="clip6_87_1057">
<rect width="14.9333" height="14.9333" fill="white" transform="translate(279 191.733)"/>
</clipPath>
<clipPath id="clip7_87_1057">
<rect width="8.53333" height="8.53333" fill="white" transform="translate(277.934 129.867)"/>
</clipPath>
<clipPath id="clip8_87_1057">
<rect width="14.9333" height="14.9333" fill="white" transform="translate(277.934 129.867)"/>
</clipPath>
<clipPath id="clip9_87_1057">
<rect width="8.53333" height="8.53333" fill="white" transform="translate(277.934 254.133)"/>
</clipPath>
<clipPath id="clip10_87_1057">
<rect width="14.9333" height="14.9333" fill="white" transform="translate(277.934 254.133)"/>
</clipPath>
</defs>
</svg>
