<svg width="20" height="20" viewBox="0 0 20 20" fill="none" xmlns="http://www.w3.org/2000/svg">
<g clip-path="url(#clip0_164_2682)">
<path d="M10 0C4.48609 0 0 4.48609 0 10C0 15.5139 4.48609 20 10 20C15.5139 20 20 15.5139 20 10C20 4.48609 15.5139 0 10 0ZM18.1548 5.83332H13.797C13.4035 3.72441 12.7176 2.03039 11.8547 1.02238C14.6072 1.59023 16.9061 3.39961 18.1548 5.83332ZM13.3333 10C13.3333 11.202 13.2425 12.3169 13.0899 13.3333H6.91008C6.75742 12.3169 6.66664 11.202 6.66664 10C6.66664 8.79797 6.75742 7.68309 6.91008 6.66668H13.0899C13.2425 7.68313 13.3333 8.79797 13.3333 10ZM10 0.83332C11.1271 0.83332 12.3425 2.76324 12.9461 5.83332H7.05387C7.65754 2.76328 8.87293 0.83332 10 0.83332ZM8.14531 1.02238C7.28242 2.03039 6.59656 3.72441 6.20301 5.83332H1.84523C3.09391 3.39961 5.39277 1.59023 8.14531 1.02238ZM0.83332 10C0.83332 8.8232 1.06414 7.70133 1.46996 6.66668H6.0668C5.91801 7.70652 5.83332 8.82398 5.83332 10C5.83332 11.176 5.91801 12.2935 6.0668 13.3333H1.47C1.06414 12.2987 0.83332 11.1768 0.83332 10ZM1.84523 14.1667H6.20301C6.59652 16.2756 7.28242 17.9696 8.14531 18.9776C5.39277 18.4098 3.09391 16.6004 1.84523 14.1667ZM10 19.1667C8.87293 19.1667 7.65754 17.2367 7.05387 14.1667H12.9461C12.3425 17.2367 11.1271 19.1667 10 19.1667ZM11.8547 18.9776C12.7176 17.9696 13.4034 16.2756 13.797 14.1667H18.1548C16.9061 16.6004 14.6072 18.4098 11.8547 18.9776ZM13.9332 13.3333C14.082 12.2935 14.1667 11.176 14.1667 10C14.1667 8.82398 14.082 7.70648 13.9332 6.66668H18.53C18.9358 7.70133 19.1666 8.8232 19.1666 10C19.1666 11.1768 18.9358 12.2987 18.53 13.3333H13.9332Z" fill="white"/>
</g>
<defs>
<clipPath id="clip0_164_2682">
<rect width="20" height="20" fill="white"/>
</clipPath>
</defs>
</svg>
