<svg width="79" height="79" viewBox="0 0 79 79" fill="none" xmlns="http://www.w3.org/2000/svg">
<path d="M68.693 31.5012H63.7555C63.5468 31.4984 63.3439 31.4318 63.1741 31.3105C63.0042 31.1891 62.8755 31.0188 62.8051 30.8223C62.5993 30.2463 62.373 29.6826 62.1262 29.1312C62.0396 28.9443 62.0122 28.7355 62.0475 28.5325C62.0828 28.3296 62.1791 28.1423 62.3237 27.9956L65.8169 24.5023C66.1424 24.1788 66.4007 23.7942 66.5769 23.3705C66.7531 22.9468 66.8439 22.4924 66.8439 22.0336C66.8439 21.5747 66.7531 21.1203 66.5769 20.6967C66.4007 20.273 66.1424 19.8883 65.8169 19.5648L59.4229 13.1708C58.7602 12.5312 57.8751 12.1737 56.9541 12.1737C56.0331 12.1737 55.1481 12.5312 54.4854 13.1708L50.9921 16.664C50.8463 16.8101 50.6589 16.9075 50.4556 16.9429C50.2523 16.9783 50.043 16.9498 49.8565 16.8615C49.3051 16.6147 48.7414 16.3884 48.1654 16.1826C47.9679 16.1138 47.7966 15.9854 47.675 15.8152C47.5534 15.645 47.4876 15.4413 47.4865 15.2322V10.2947C47.4865 9.37146 47.1197 8.48607 46.4669 7.83326C45.8141 7.18046 44.9287 6.81372 44.0055 6.81372H34.9823C34.5251 6.81372 34.0725 6.90376 33.6502 7.07869C33.2278 7.25362 32.8441 7.51003 32.5209 7.83326C32.1976 8.1565 31.9412 8.54023 31.7663 8.96256C31.5914 9.38489 31.5013 9.83753 31.5013 10.2947V15.6889C31.5044 15.8859 31.4484 16.0794 31.3406 16.2444C31.2329 16.4094 31.0782 16.5383 30.8965 16.6147C30.4274 16.8039 29.9666 17.0097 29.514 17.2318C29.326 17.323 29.1142 17.353 28.9083 17.3175C28.7024 17.2821 28.5127 17.1831 28.366 17.0343L24.5148 13.1831C23.8506 12.5464 22.9661 12.1909 22.046 12.1909C21.1259 12.1909 20.2414 12.5464 19.5773 13.1831L13.1832 19.5772C12.8578 19.9007 12.5995 20.2853 12.4232 20.709C12.247 21.1327 12.1563 21.587 12.1563 22.0459C12.1563 22.5048 12.247 22.9591 12.4232 23.3828C12.5995 23.8065 12.8578 24.1912 13.1832 24.5147L17.4665 28.7856C17.6066 28.9245 17.7024 29.1018 17.7419 29.2951C17.7815 29.4884 17.7629 29.6891 17.6887 29.8718C17.5652 30.1804 17.4418 30.5014 17.3307 30.8223C17.2618 31.0198 17.1335 31.1911 16.9633 31.3127C16.7931 31.4343 16.5894 31.5001 16.3802 31.5012H10.3071C9.38391 31.5012 8.49852 31.868 7.84571 32.5208C7.19291 33.1736 6.82617 34.059 6.82617 34.9822V44.0054C6.82617 44.9286 7.19291 45.814 7.84571 46.4668C8.49852 47.1196 9.38391 47.4864 10.3071 47.4864H16.8246C17.0273 47.4872 17.225 47.5487 17.3923 47.6632C17.5595 47.7776 17.6886 47.9396 17.7627 48.1283L18.022 48.7331C18.1085 48.92 18.1359 49.1288 18.1006 49.3318C18.0654 49.5347 17.969 49.722 17.8245 49.8687L13.2079 54.4853C12.8824 54.8088 12.6242 55.1934 12.4479 55.6171C12.2717 56.0408 12.181 56.4952 12.181 56.954C12.181 57.4129 12.2717 57.8673 12.4479 58.2909C12.6242 58.7146 12.8824 59.0993 13.2079 59.4228L19.602 65.8168C20.2661 66.4536 21.1506 66.8091 22.0707 66.8091C22.9908 66.8091 23.8753 66.4536 24.5394 65.8168L29.156 61.2003C29.3027 61.0557 29.4901 60.9594 29.693 60.9241C29.8959 60.8888 30.1047 60.9162 30.2916 61.0028L30.8965 61.262C31.0851 61.3361 31.2471 61.4652 31.3615 61.6325C31.476 61.7997 31.5376 61.9975 31.5384 62.2001V68.7176C31.5384 69.6408 31.9051 70.5262 32.5579 71.179C33.2107 71.8318 34.0961 72.1986 35.0193 72.1986H44.0426C44.9658 72.1986 45.8512 71.8318 46.504 71.179C47.1568 70.5262 47.5235 69.6408 47.5235 68.7176V62.6075C47.5318 62.4161 47.5941 62.231 47.7034 62.0737C47.8126 61.9164 47.9643 61.7933 48.1407 61.7187L49.0912 61.3607C49.274 61.2865 49.4746 61.2679 49.6679 61.3075C49.8612 61.347 50.0385 61.4429 50.1774 61.5829L54.4484 65.8539C55.1125 66.4906 55.997 66.8461 56.9171 66.8461C57.8372 66.8461 58.7217 66.4906 59.3859 65.8539L65.7799 59.4598C66.1054 59.1363 66.3636 58.7516 66.5399 58.328C66.7161 57.9043 66.8068 57.4499 66.8068 56.9911C66.8068 56.5322 66.7161 56.0778 66.5399 55.6542C66.3636 55.2305 66.1054 54.8458 65.7799 54.5223L61.9534 50.6093C61.8046 50.4626 61.7056 50.273 61.6702 50.0671C61.6347 49.8612 61.6647 49.6494 61.7559 49.4614C61.978 49.0047 62.1879 48.5479 62.373 48.0789C62.4494 47.8972 62.5783 47.7425 62.7433 47.6347C62.9083 47.5269 63.1018 47.471 63.2988 47.474H68.693C69.1502 47.474 69.6028 47.384 70.0251 47.2091C70.4475 47.0341 70.8312 46.7777 71.1544 46.4545C71.4777 46.1313 71.7341 45.7475 71.909 45.3252C72.0839 44.9029 72.174 44.4502 72.174 43.9931V34.9822C72.174 34.525 72.0839 34.0724 71.909 33.6501C71.7341 33.2277 71.4777 32.844 71.1544 32.5208C70.8312 32.1975 70.4475 31.9411 70.0251 31.7662C69.6028 31.5913 69.1502 31.5012 68.693 31.5012ZM69.7052 44.0054C69.7052 44.2739 69.5986 44.5313 69.4088 44.7212C69.2189 44.911 68.9615 45.0176 68.693 45.0176H63.2988C62.6123 45.0146 61.9404 45.216 61.3688 45.5964C60.7972 45.9767 60.3518 46.5186 60.0895 47.1531C59.9166 47.5728 59.7315 47.9925 59.534 48.3875C59.2173 49.0369 59.1113 49.769 59.2308 50.4815C59.3503 51.1941 59.6893 51.8516 60.2005 52.3622L64.0518 56.2134C64.1458 56.3074 64.2205 56.419 64.2714 56.5419C64.3223 56.6647 64.3485 56.7964 64.3485 56.9293C64.3485 57.0623 64.3223 57.194 64.2714 57.3168C64.2205 57.4397 64.1458 57.5513 64.0518 57.6453L57.6577 64.0393C57.4648 64.2235 57.2084 64.3262 56.9418 64.3262C56.6751 64.3262 56.4187 64.2235 56.2259 64.0393L51.9549 59.7684C51.4779 59.2962 50.8741 58.9726 50.2168 58.8367C49.5595 58.7009 48.8769 58.7587 48.2518 59.0031L47.4001 59.324C46.7231 59.5634 46.1368 60.0062 45.7213 60.5918C45.3059 61.1774 45.0817 61.8771 45.0794 62.5951V68.6806C45.0794 68.949 44.9728 69.2065 44.783 69.3963C44.5932 69.5861 44.3357 69.6928 44.0673 69.6928H34.9823C34.7138 69.6928 34.4564 69.5861 34.2665 69.3963C34.0767 69.2065 33.9701 68.949 33.9701 68.6806V62.1754C33.9693 61.4833 33.7622 60.8071 33.3752 60.2332C32.9882 59.6594 32.439 59.2139 31.7976 58.9537L31.2544 58.7192C30.8038 58.518 30.3161 58.4129 29.8226 58.4106C29.3645 58.4073 28.9104 58.4951 28.4866 58.6688C28.0628 58.8426 27.6777 59.0989 27.3538 59.4228L22.7373 64.0393C22.5444 64.2235 22.288 64.3262 22.0213 64.3262C21.7547 64.3262 21.4983 64.2235 21.3054 64.0393L14.9113 57.6453C14.8173 57.5513 14.7427 57.4397 14.6918 57.3168C14.6409 57.194 14.6147 57.0623 14.6147 56.9293C14.6147 56.7964 14.6409 56.6647 14.6918 56.5419C14.7427 56.419 14.8173 56.3074 14.9113 56.2134L19.5279 51.5968C20.029 51.0988 20.3661 50.4596 20.4941 49.7647C20.622 49.0698 20.5347 48.3525 20.2438 47.7086L20.0093 47.1654C19.7491 46.524 19.3037 45.9748 18.7298 45.5878C18.1559 45.2008 17.4797 44.9937 16.7876 44.9929H10.3071C10.0387 44.9929 9.78121 44.8863 9.59138 44.6965C9.40156 44.5066 9.29492 44.2492 9.29492 43.9807V34.9822C9.29492 34.7137 9.40156 34.4563 9.59138 34.2664C9.78121 34.0766 10.0387 33.97 10.3071 33.97H16.3926C17.1101 33.966 17.8091 33.7411 18.3943 33.3259C18.9796 32.9107 19.4228 32.3253 19.6637 31.6493C19.7624 31.3613 19.8694 31.0774 19.9846 30.7976C20.229 30.1725 20.2868 29.4899 20.1509 28.8326C20.0151 28.1753 19.6915 27.5715 19.2193 27.0945L14.9484 22.8236C14.8543 22.7296 14.7797 22.618 14.7288 22.4951C14.6779 22.3723 14.6517 22.2406 14.6517 22.1076C14.6517 21.9747 14.6779 21.843 14.7288 21.7201C14.7797 21.5973 14.8543 21.4857 14.9484 21.3917L21.3424 14.9976C21.5353 14.8135 21.7917 14.7108 22.0584 14.7108C22.325 14.7108 22.5814 14.8135 22.7743 14.9976L26.6255 18.8489C27.1361 19.3601 27.7936 19.6991 28.5061 19.8186C29.2187 19.9381 29.9508 19.8321 30.6002 19.5154C31.0117 19.3179 31.4231 19.1328 31.8346 18.96C32.4691 18.6976 33.011 18.2522 33.3913 17.6807C33.7717 17.1091 33.9731 16.4371 33.9701 15.7506V10.307C33.9701 10.0386 34.0767 9.7811 34.2665 9.59128C34.4564 9.40146 34.7138 9.29481 34.9823 9.29481H44.0055C44.274 9.29481 44.5314 9.40146 44.7213 9.59128C44.9111 9.7811 45.0177 10.0386 45.0177 10.307V15.2445C45.0226 15.9636 45.2493 16.6636 45.6669 17.249C46.0844 17.8344 46.6724 18.2768 47.3507 18.5156C47.8609 18.6966 48.367 18.8982 48.869 19.1204C49.5114 19.4086 50.2262 19.4944 50.9185 19.3665C51.6108 19.2386 52.2479 18.9031 52.7449 18.4045L56.2382 14.9112C56.4311 14.7271 56.6875 14.6244 56.9541 14.6244C57.2208 14.6244 57.4772 14.7271 57.6701 14.9112L64.0641 21.3053C64.1582 21.3993 64.2328 21.5109 64.2837 21.6337C64.3346 21.7566 64.3608 21.8882 64.3608 22.0212C64.3608 22.1542 64.3346 22.2859 64.2837 22.4087C64.2328 22.5315 64.1582 22.6432 64.0641 22.7372L60.5709 26.2304C60.0708 26.7265 59.7342 27.3636 59.6062 28.0563C59.4783 28.7491 59.565 29.4643 59.8549 30.1064C60.0771 30.6001 60.2787 31.1021 60.4598 31.6123C60.7014 32.2902 61.1464 32.877 61.7341 33.2924C62.3219 33.7077 63.0235 33.9315 63.7432 33.9329H68.6807C68.9491 33.9329 69.2066 34.0396 69.3964 34.2294C69.5862 34.4192 69.6929 34.6767 69.6929 34.9451L69.7052 44.0054ZM48.5727 29.4275L57.1393 34.2786L53.9176 36.1672C54.6091 39.1619 54.352 42.2977 53.1817 45.1397C52.0115 47.9818 49.9861 50.3895 47.3863 52.029C44.7865 53.6686 41.7411 54.4588 38.6722 54.2901C35.6032 54.1215 32.6627 53.0024 30.2582 51.0878C27.8538 49.1733 26.1044 46.5582 25.2526 43.605C24.4008 40.6518 24.4887 37.5068 25.5043 34.6058C26.5198 31.7049 28.4126 29.1916 30.9203 27.4145C33.428 25.6374 36.4265 24.6843 39.5001 24.6875C39.8274 24.6875 40.1414 24.8175 40.3729 25.049C40.6044 25.2805 40.7344 25.5945 40.7344 25.9218C40.7344 26.2492 40.6044 26.5632 40.3729 26.7947C40.1414 27.0262 39.8274 27.1562 39.5001 27.1562C36.9713 27.1525 34.5024 27.9256 32.4273 29.3709C30.3522 30.8161 28.7711 32.8639 27.8977 35.2371C27.0244 37.6103 26.9011 40.1945 27.5444 42.6401C28.1877 45.0857 29.5666 47.2747 31.4946 48.911C33.4226 50.5474 35.8066 51.5521 38.3243 51.7893C40.8419 52.0265 43.3717 51.4847 45.5713 50.2372C47.771 48.9897 49.5345 47.0967 50.6232 44.8143C51.7119 42.5319 52.0734 39.9701 51.6587 37.4756L48.6468 39.2407L48.5727 29.4275Z" fill="#0DA9DB"/>
</svg>
