<svg width="79" height="79" viewBox="0 0 79 79" fill="none" xmlns="http://www.w3.org/2000/svg">
<path d="M39.5 15.8025C34.813 15.8025 30.2313 17.1924 26.3342 19.7963C22.4371 22.4003 19.3997 26.1014 17.6061 30.4316C15.8125 34.7618 15.3432 39.5267 16.2576 44.1236C17.172 48.7205 19.429 52.9431 22.7433 56.2572C26.0575 59.5714 30.28 61.8284 34.877 62.7428C39.4739 63.6571 44.2388 63.1878 48.569 61.3941C52.8992 59.6005 56.6002 56.563 59.2041 52.6659C61.8081 48.7688 63.1979 44.187 63.1978 39.5001C63.1906 33.2172 60.6916 27.1938 56.2489 22.7512C51.8063 18.3086 45.7829 15.8096 39.5 15.8025V15.8025ZM39.5 60.7293C35.3013 60.7293 31.1969 59.4843 27.7058 57.1516C24.2148 54.8189 21.4938 51.5034 19.887 47.6244C18.2802 43.7453 17.8598 39.4768 18.6789 35.3588C19.498 31.2408 21.5198 27.4581 24.4888 24.4892C27.4577 21.5203 31.2403 19.4984 35.3583 18.6792C39.4763 17.8601 43.7448 18.2804 47.6239 19.8872C51.503 21.4939 54.8185 24.2148 57.1512 27.7059C59.4839 31.197 60.729 35.3014 60.7291 39.5001C60.7228 45.1284 58.4842 50.5245 54.5043 54.5044C50.5245 58.4843 45.1284 60.723 39.5 60.7293V60.7293ZM49.2696 32.223C49.3981 32.3219 49.5058 32.4452 49.5865 32.5857C49.6673 32.7262 49.7196 32.8813 49.7404 33.0421C49.7612 33.2028 49.7502 33.3661 49.7079 33.5226C49.6655 33.6791 49.5928 33.8257 49.4938 33.954L37.8841 49.0221C37.769 49.172 37.6209 49.2933 37.4514 49.3768C37.2819 49.4603 37.0954 49.5037 36.9065 49.5036H36.9041C36.7149 49.5031 36.5282 49.4591 36.3586 49.3751C36.189 49.2911 36.041 49.1692 35.9259 49.0189L29.5033 40.6206C29.4048 40.4919 29.3327 40.345 29.2909 40.1883C29.2492 40.0317 29.2388 39.8683 29.2602 39.7077C29.2816 39.547 29.3344 39.3921 29.4157 39.2518C29.4969 39.1115 29.605 38.9886 29.7338 38.8902C29.8625 38.7917 30.0094 38.7195 30.1661 38.6778C30.3227 38.636 30.4861 38.6256 30.6467 38.647C30.8074 38.6684 30.9623 38.7212 31.1026 38.8025C31.2429 38.8838 31.3658 38.9919 31.4643 39.1206L36.9099 46.2411L47.5379 32.4472C47.6366 32.3184 47.7598 32.2104 47.9004 32.1294C48.041 32.0483 48.1962 31.9959 48.3572 31.9751C48.5181 31.9542 48.6816 31.9654 48.8381 32.008C48.9947 32.0505 49.1414 32.1236 49.2696 32.223V32.223ZM70.0345 45.3841C71.6245 43.729 73.4261 41.8522 73.4261 39.5001C73.4261 37.148 71.6245 35.2713 70.0345 33.6163C69.0106 32.7082 68.1753 31.6077 67.576 30.3773C67.3165 28.9718 67.3379 27.5289 67.6387 26.1317C67.9509 23.7944 68.2734 21.3775 66.9475 19.5548C65.6071 17.7141 63.195 17.2753 60.862 16.8515C59.4558 16.7109 58.0915 16.293 56.8478 15.6219C55.8426 14.6555 55.0377 13.5003 54.4792 12.2226C53.3496 10.1179 52.1832 7.93931 49.9861 7.2272C47.8796 6.54126 45.7019 7.5864 43.5972 8.59538C42.3378 9.32771 40.9448 9.80097 39.5 9.98738C38.0552 9.80091 36.6621 9.32756 35.4028 8.59513C33.298 7.58615 31.1222 6.54224 29.0145 7.22695C26.8173 7.93931 25.6507 10.1176 24.5214 12.2223C23.9629 13.5001 23.158 14.6552 22.1527 15.6217C20.9091 16.2924 19.5451 16.7103 18.1392 16.8512C15.8055 17.2755 13.3928 17.7143 12.0523 19.5563C10.7263 21.3777 11.0488 23.7946 11.3611 26.1319C11.6621 27.5292 11.6835 28.9724 11.424 30.378C10.8248 31.6084 9.98944 32.7089 8.96554 33.617C7.37554 35.2716 5.57397 37.1484 5.57397 39.5001C5.57397 41.8517 7.37616 43.7288 8.96554 45.3838C9.98944 46.2919 10.8248 47.3924 11.424 48.6228C11.6836 50.0285 11.6623 51.4717 11.3613 52.8691C11.0492 55.2064 10.7266 57.6233 12.0526 59.4459C13.393 61.2866 15.8051 61.7255 18.1381 62.1492C19.5442 62.2898 20.9086 62.7077 22.1523 63.3788C23.1575 64.3453 23.9624 65.5004 24.5209 66.7781C25.6505 68.8829 26.8168 71.0614 29.014 71.7735C31.1205 72.4582 33.2973 71.4143 35.4029 70.4053C36.6622 69.673 38.0552 69.1997 39.5 69.0132C40.9449 69.1997 42.3379 69.673 43.5973 70.4055C45.1189 71.2872 46.8135 71.8287 48.5644 71.993C49.0468 71.9955 49.5264 71.9215 49.9856 71.7737C52.1827 71.0613 53.3494 68.883 54.4787 66.7783C55.0372 65.5005 55.8421 64.3454 56.8473 63.3789C58.0909 62.7082 59.455 62.2903 60.8609 62.1494C63.1946 61.7251 65.6073 61.2863 66.9477 59.4443C68.2738 57.6229 67.9513 55.206 67.639 52.8687C67.338 51.4713 67.3167 50.0281 67.5763 48.6225C68.1755 47.3923 69.0108 46.292 70.0345 45.3841V45.3841ZM65.2279 47.8612C64.8284 49.6155 64.8161 51.4358 65.1917 53.1953C65.4394 55.0506 65.6956 56.9695 64.9512 57.9919C64.193 59.0345 62.2745 59.3829 60.4194 59.72C58.6433 59.9013 56.9283 60.4686 55.3945 61.3822C54.0682 62.5498 53.0129 63.993 52.3025 65.6109C51.4044 67.2865 50.4756 69.0188 49.2232 69.4251C48.0562 69.8024 46.3319 68.9779 44.6648 68.1784C43.0831 67.2633 41.3202 66.7056 39.5 66.5445C37.6798 66.7058 35.9169 67.2637 34.3353 68.179C32.6689 68.9794 30.9443 69.8027 29.7764 69.4257C28.5245 69.0195 27.5957 67.2872 26.697 65.6115C25.9865 63.9936 24.9313 62.5504 23.605 61.3828C22.0712 60.4692 20.3562 59.9019 18.5801 59.7206C16.725 59.383 14.8071 59.0334 14.0488 57.9925C13.3045 56.9691 13.5606 55.0501 13.8084 53.1948C14.184 51.4353 14.1717 49.615 13.7722 47.8607C13.0808 46.2614 12.0479 44.8327 10.746 43.6747C9.41695 42.2897 8.04273 40.8589 8.04273 39.5001C8.04273 38.1413 9.41695 36.7104 10.746 35.3256C12.048 34.1675 13.0809 32.7386 13.7722 31.1391C14.1717 29.3849 14.184 27.5646 13.8084 25.805C13.5606 23.9498 13.3045 22.0308 14.0488 21.0085C14.8071 19.9658 16.7256 19.6175 18.5807 19.2804C20.3568 19.0991 22.0718 18.5318 23.6056 17.6182C24.9319 16.4506 25.9872 15.0074 26.6976 13.3894C27.5957 11.7139 28.5245 9.98158 29.7769 9.57523C30.9401 9.19677 32.6675 10.0213 34.3353 10.8219C35.917 11.7371 37.6798 12.2949 39.5 12.4561C41.3203 12.2948 43.0832 11.7369 44.6648 10.8216C46.3319 10.0223 48.0575 9.19788 49.2237 9.57486C50.4756 9.98109 51.4044 11.7134 52.3031 13.3891C53.0135 15.007 54.0688 16.4502 55.3951 17.6178C56.9289 18.5314 58.6439 19.0987 60.42 19.28C62.2751 19.6176 64.193 19.9672 64.9512 21.0075C65.6956 22.0309 65.4394 23.9499 65.1917 25.8052C64.8161 27.5647 64.8284 29.385 65.2279 31.1393C65.9192 32.7388 66.9521 34.1677 68.2541 35.3258C69.5831 36.7107 70.9574 38.1416 70.9574 39.5002C70.9574 40.8587 69.5831 42.2899 68.2541 43.6746C66.9521 44.8327 65.9192 46.2617 65.2279 47.8612Z" fill="#0DA9DB"/>
</svg>
