<svg id="Capa_1" enable-background="new 0 0 512 512" height="512" viewBox="0 0 512 512" width="512" xmlns="http://www.w3.org/2000/svg"><g><path d="m497 81h-66v-17c0-8.284-6.716-15-15-15h-64c-8.284 0-15 6.716-15 15v17h-118.543l-44.623-73.764c-2.717-4.492-7.584-7.236-12.834-7.236h-79c-8.284 0-15 6.716-15 15v66h-52c-8.284 0-15 6.716-15 15v64c0 8.284 6.716 15 15 15h82v242h-9c-6.28 0-11.896 3.913-14.071 9.804l-24 65c-3.612 9.783 3.635 20.196 14.071 20.196h192c10.429 0 17.686-10.406 14.071-20.196l-24-65c-2.175-5.891-7.791-9.804-14.071-9.804h-9v-242h114v18c0 8.284 6.716 15 15 15h17v36.272l-48.81 69.728h-16.19c-8.284 0-15 6.716-15 15v80c0 8.284 6.716 15 15 15h160c8.284 0 15-6.716 15-15v-80c0-8.284-6.716-15-15-15h-16.19l-48.81-69.728v-36.272h17c8.284 0 15-6.716 15-15v-18h66c8.284 0 15-6.716 15-15v-64c0-8.284-6.716-15-15-15zm-48 313h-130v-50h130zm-92.19-80 27.19-38.843 27.19 38.843zm-259.81-284h55.543l30.852 51c-10.824 0-73.865 0-86.395 0zm96 273.385-66 38.5v-53.27l66-38.5zm41.472 178.615h-148.944l12.923-35h123.098zm-107.472-65v-40.385l66-38.5v78.885zm66-201.615-66 38.5v-78.885h66zm-163-70.385v-34h307v34c-25.958 0-293.418 0-307 0zm371 33h-34v-99h34zm81-33c-15.826 0-36.431 0-51 0v-34h51z"/></g></svg>