<svg height="512pt" viewBox="-15 0 512 512" width="512pt" xmlns="http://www.w3.org/2000/svg"><path d="m394.085938 283.640625v39.796875c0 4.144531 3.359374 7.5 7.5 7.5 4.140624 0 7.5-3.355469 7.5-7.5v-39.796875c0-19.832031-16.132813-35.960937-35.960938-35.960937h-124.371094v-59.085938c0-4.144531-3.359375-7.5-7.5-7.5-4.144531 0-7.5 3.355469-7.5 7.5v59.085938h-123.914062c-19.828125 0-35.960938 16.128906-35.960938 35.960937v39.765625c0 4.144531 3.359375 7.5 7.5 7.5 4.144532 0 7.5-3.355469 7.5-7.5v-39.765625c0-11.558594 9.402344-20.960937 20.960938-20.960937h263.285156c11.558594 0 20.960938 9.402343 20.960938 20.960937zm0 0"/><path d="m175.808594 116.507812c3.828125-1.582031 5.648437-5.96875 4.066406-9.792968-3.320312-8.035156-5.003906-16.558594-5.003906-25.332032 0-36.605468 29.78125-66.382812 66.382812-66.382812 36.601563 0 66.378906 29.777344 66.378906 66.382812 0 14.683594-4.800781 28.265626-12.90625 39.273438-.960937-1.175781-2.019531-2.300781-3.171874-3.363281-6.089844-5.585938-14.234376-8.660157-22.933594-8.660157h-54.558594c-8.703125 0-16.84375 3.078126-22.914062 8.65625-4.449219 4.070313-7.496094 9.089844-8.867188 14.53125-.042969.136719-.078125.277344-.113281.414063-.011719.042969-.023438.082031-.035157.121094-.003906.019531 0 .035156-.003906.050781-.546875 2.445312.132813 5.101562 2.050782 6.984375 15.3125 15.070313 35.585937 23.371094 57.074218 23.371094 21.96875 0 41.917969-8.765625 56.574219-22.964844.4375-.34375.839844-.726563 1.191406-1.15625 14.585938-14.714844 23.613281-34.949219 23.613281-57.257813 0-44.875-36.507812-81.382812-81.378906-81.382812-44.875 0-81.382812 36.507812-81.382812 81.378906 0 10.75 2.066406 21.199219 6.140625 31.0625 1.582031 3.828125 5.96875 5.648438 9.796875 4.066406zm22.488281 15.457032c.769531-1.285156 1.773437-2.507813 2.992187-3.621094 3.304688-3.039062 7.839844-4.710938 12.773438-4.710938h54.558594c4.933594 0 9.476562 1.671876 12.78125 4.707032 1.175781 1.082031 2.148437 2.257812 2.910156 3.496094-11.601562 9.917968-26.636719 15.925781-43.058594 15.925781-15.898437 0-30.96875-5.585938-42.957031-15.796875zm0 0"/><path d="m232.441406 95.121094c2.746094 1.671875 5.824219 2.511718 8.902344 2.511718s6.160156-.839843 8.902344-2.511718l8.320312-5.074219c5.066406-3.085937 8.210938-8.691406 8.210938-14.628906v-22.28125c0-10.25-8.332032-18.59375-18.578125-18.59375h-13.710938c-10.246093 0-18.582031 8.34375-18.582031 18.59375v22.28125c0 5.9375 3.148438 11.542969 8.214844 14.628906zm-1.53125-41.984375c0-1.980469 1.605469-3.59375 3.578125-3.59375h13.710938c1.976562 0 3.582031 1.613281 3.582031 3.59375v22.28125c0 .742187-.390625 1.4375-1.019531 1.820312l-8.320313 5.074219c-.675781.410156-1.515625.410156-2.191406 0l-8.320312-5.074219c-.628907-.382812-1.019532-1.082031-1.019532-1.820312zm0 0"/><path d="m81.378906 349.238281c-44.871094 0-81.378906 36.507813-81.378906 81.378907 0 22.449218 9.132812 42.796874 23.878906 57.535156.332032.386718.699219.742187 1.105469 1.054687 14.640625 14.097657 34.515625 22.792969 56.394531 22.792969 21.578125 0 41.90625-8.359375 57.242188-23.535156 1.703125-1.6875 2.425781-3.988282 2.167968-6.195313-.003906-.015625-.003906-.027343-.003906-.039062-.03125-.265625-.082031-.53125-.140625-.789063-.003906-.015625-.003906-.03125-.007812-.046875-.007813-.023437-.015625-.046875-.019531-.070312-.042969-.160157-.085938-.316407-.132813-.476563-1.390625-5.332031-4.414063-10.273437-8.804687-14.316406-6.089844-5.585938-14.234376-8.664062-22.929688-8.664062h-54.5625c-8.703125 0-16.84375 3.082031-22.914062 8.660156-1.199219 1.097656-2.289063 2.265625-3.28125 3.488281-8.15625-11.027344-12.996094-24.65625-12.996094-39.398437 0-36.601563 29.78125-66.378907 66.382812-66.378907 36.601563 0 66.378906 29.777344 66.378906 66.378907 0 8.308593-1.511718 16.40625-4.492187 24.066406-1.503906 3.859375.40625 8.207031 4.265625 9.710937 3.863281 1.503907 8.210938-.410156 9.710938-4.269531 3.660156-9.40625 5.515624-19.332031 5.515624-29.507812.003907-44.871094-36.503906-81.378907-81.378906-81.378907zm-39.964844 128.34375c3.304688-3.039062 7.84375-4.710937 12.773438-4.710937h54.5625c4.929688 0 9.472656 1.675781 12.78125 4.707031 1.183594 1.089844 2.160156 2.277344 2.925781 3.523437-12.007812 10.277344-27.117187 15.898438-43.078125 15.898438-16.363281 0-31.355468-5.964844-42.941406-15.820312.773438-1.277344 1.769531-2.492188 2.976562-3.597657zm0 0"/><path d="m74.613281 383.78125c-10.242187 0-18.578125 8.34375-18.578125 18.597656v22.277344c0 5.9375 3.148438 11.542969 8.210938 14.628906l8.320312 5.074219c2.746094 1.671875 5.824219 2.511719 8.90625 2.511719 3.078125 0 6.15625-.839844 8.902344-2.511719l8.320312-5.074219c5.0625-3.085937 8.210938-8.691406 8.210938-14.628906v-22.277344c0-10.253906-8.335938-18.597656-18.578125-18.597656zm17.292969 18.597656v22.277344c0 .742188-.390625 1.441406-1.019531 1.824219l-8.320313 5.070312c-.675781.414063-1.515625.414063-2.191406 0l-8.320312-5.070312c-.628907-.382813-1.019532-1.082031-1.019532-1.824219v-22.277344c0-1.984375 1.605469-3.597656 3.578125-3.597656h13.714844c1.972656 0 3.578125 1.613281 3.578125 3.597656zm0 0"/><path d="m401.585938 349.238281c-44.875 0-81.378907 36.507813-81.378907 81.378907 0 22.449218 9.132813 42.796874 23.878907 57.535156.328124.386718.699218.742187 1.105468 1.054687 14.640625 14.097657 34.515625 22.792969 56.394532 22.792969 21.578124 0 41.867187-8.347656 57.199218-23.507812.027344-.023438.054688-.050782.082032-.078126.085937-.085937.175781-.164062.261718-.25 2.601563-2.601562 2.886719-6.636718.867188-9.558593-1.589844-4.472657-4.34375-8.605469-8.113282-12.074219-6.085937-5.585938-14.230468-8.660156-22.929687-8.660156h-54.558594c-8.703125 0-16.84375 3.078125-22.914062 8.65625-1.199219 1.097656-2.292969 2.265625-3.28125 3.488281-8.160157-11.027344-12.996094-24.65625-12.996094-39.394531 0-36.601563 29.777344-66.382813 66.378906-66.382813 36.601563 0 66.382813 29.78125 66.382813 66.382813 0 8.449218-1.566406 16.683594-4.652344 24.460937-1.527344 3.851563.355469 8.210938 4.207031 9.738281 3.847657 1.523438 8.207031-.355468 9.734375-4.207031 3.789063-9.546875 5.710938-19.640625 5.710938-29.992187 0-44.875-36.503906-81.382813-81.378906-81.382813zm-39.964844 128.34375c3.304687-3.039062 7.84375-4.710937 12.773437-4.710937h54.558594c4.933594 0 9.476563 1.675781 12.785156 4.707031 1.183594 1.089844 2.160157 2.277344 2.925781 3.527344-12.003906 10.273437-27.105468 15.894531-43.078124 15.894531-16.367188 0-31.355469-5.964844-42.941407-15.820312.769531-1.28125 1.765625-2.492188 2.976563-3.597657zm0 0"/><path d="m394.820312 383.78125c-10.242187 0-18.578124 8.34375-18.578124 18.597656v22.277344c0 5.9375 3.144531 11.542969 8.210937 14.628906l8.320313 5.074219c2.746093 1.671875 5.824218 2.511719 8.902343 2.511719s6.160157-.839844 8.902344-2.511719l8.320313-5.074219c5.066406-3.085937 8.210937-8.691406 8.210937-14.628906v-22.277344c0-10.253906-8.332031-18.597656-18.578125-18.597656zm17.292969 18.597656v22.277344c0 .742188-.390625 1.441406-1.019531 1.824219l-8.320312 5.070312c-.675782.414063-1.515626.414063-2.191407 0l-8.320312-5.070312c-.628907-.382813-1.019531-1.082031-1.019531-1.824219v-22.277344c0-1.984375 1.605468-3.597656 3.578124-3.597656h13.714844c1.972656 0 3.578125 1.613281 3.578125 3.597656zm0 0"/></svg>