<svg width="544" height="518" viewBox="0 0 544 518" fill="none" xmlns="http://www.w3.org/2000/svg">
<path d="M489.227 260.633L489.227 260.633C486.392 318.755 479.927 362.244 468.084 393.318C456.249 424.372 439.062 442.983 414.786 451.443C390.49 459.909 359.969 456.349 330.044 443.926C300.129 431.506 270.871 410.252 249.13 383.429C227.307 356.504 202.465 333.749 178.683 317.057C154.911 300.374 132.155 289.721 114.503 287.053L114.501 287.053C83.7437 282.519 61.5124 272.23 45.8286 258.53C30.1462 244.83 20.9793 227.693 16.3932 209.408L16.3931 209.407C2.12614 152.75 42.609 105.403 94.8575 71.0018C147.072 36.6233 210.793 15.348 242.434 10.8142L242.434 10.8141C294.101 3.34497 335.647 8.95136 368.827 23.1056C402.007 37.2594 426.854 59.9741 445.103 86.7721C481.612 140.385 491.704 210.329 489.227 260.633Z" stroke="#FFD680" stroke-linecap="round"/>
<path d="M124.368 357.379C178.163 436.243 272.206 507.376 387.922 407.635C503.638 307.895 537.695 224.778 529.955 135.475C524.924 79.8064 476.16 38.4412 403.402 39.6009C330.645 40.7607 312.455 84.0589 254.017 74.3941C195.578 64.7293 138.688 48.8791 95.7296 74.3941C1.29918 131.223 43.8703 239.855 124.368 357.379Z" fill="#FFE5E5"/>
<path d="M262.747 130.226C248.13 134.809 230.872 135.337 230.872 135.337L215.374 142.564L214.493 141.154C214.493 141.154 214.669 139.92 215.902 138.334C217.487 136.395 219.072 135.69 219.072 135.69C219.072 135.69 215.726 134.632 210.619 136.571C208.506 137.452 206.216 140.273 206.216 140.273L204.807 139.215C204.807 139.215 204.631 134.632 208.33 130.755C210.619 128.463 212.732 126.877 214.141 125.996C215.022 125.467 216.078 125.114 217.135 125.291L230.167 127.406C230.167 127.406 241.966 125.467 257.816 117.888" stroke="#041E42" stroke-miterlimit="10" stroke-linecap="round" stroke-linejoin="round"/>
<path d="M265.213 349.315C271.024 342.441 273.666 336.8 273.666 332.041C273.666 328.516 272.257 325.52 269.968 323.052C267.678 320.408 264.508 318.293 260.986 316.178C256.231 313.358 247.602 309.657 238.796 305.955C231.224 302.782 223.299 299.786 217.839 297.671C213.437 301.549 201.285 311.772 186.668 320.232C178.919 324.638 173.108 327.282 168.881 329.045C175.221 335.39 185.083 342.617 194.769 351.254C200.405 356.189 206.04 361.653 210.971 367.646L190.014 395.318C190.014 395.318 190.014 395.494 189.838 395.494L206.04 407.127L223.299 388.797C229.11 403.074 232.457 417.879 234.218 429.512C235.274 436.21 235.803 441.85 235.979 445.728C236.155 447.667 236.155 449.253 236.155 450.311C236.155 451.368 236.155 451.897 236.155 451.897C236.155 451.897 236.155 451.897 236.155 452.073H256.231V451.897C256.231 451.897 256.936 446.433 256.936 436.739C256.936 421.933 255.351 397.61 247.602 368.527C249.011 367.293 253.59 363.063 265.213 349.315Z" fill="#FFD680"/>
<path d="M182.97 244.441C182.617 246.204 182.089 247.79 181.209 248.848C180.68 249.376 180.152 249.729 179.624 249.905C179.271 249.905 179.095 250.081 178.743 250.081C177.686 250.081 176.63 249.553 175.573 248.671C174.516 247.79 173.636 246.733 172.579 245.322C170.642 242.502 168.881 238.801 167.648 234.394C166.592 230.517 166.063 226.815 166.063 223.819C166.063 220.47 166.592 217.826 168 216.064C168.529 215.535 169.057 215.182 169.762 214.83C170.114 214.83 170.29 214.653 170.642 214.653C171.699 214.653 172.579 215.006 173.46 215.711C177.334 214.477 180.856 213.067 183.674 211.833C184.026 211.305 184.202 210.952 184.555 210.6C184.379 210.6 184.202 210.423 184.026 210.423C182.618 210.247 181.209 209.542 179.624 208.484C177.686 207.251 175.749 205.488 173.988 203.373C172.579 201.787 171.346 200.2 170.466 198.614C169.938 197.909 169.585 197.028 169.409 196.323C169.233 195.441 168.881 194.384 168.881 193.679C167.472 196.851 165.359 199.319 162.717 201.61C160.075 203.902 156.729 205.841 153.207 207.956L152.151 205.841C151.974 205.488 150.566 205.488 150.566 205.488C148.804 205.664 142.641 205.841 134.187 209.542C123.445 214.125 121.684 216.769 121.684 216.945C121.331 217.297 121.331 217.65 121.684 218.002L127.319 225.405C126.439 228.049 126.086 230.869 126.086 233.866C126.086 241.445 128.904 250.081 133.131 260.304C137.181 270.527 142.641 282.337 148.1 296.261C151.446 304.722 153.736 312.653 155.321 318.47C156.025 321.466 156.553 323.757 157.082 325.344C157.258 326.225 157.434 326.754 157.434 327.283C157.61 327.635 157.61 327.988 157.61 327.988C157.61 328.34 157.962 328.516 158.138 328.693C158.314 328.693 158.314 328.693 158.491 328.693C158.667 328.693 161.132 328.693 166.063 327.635C168.881 326.93 174.34 325.168 182.441 321.114C194.241 315.121 219.072 298.2 219.072 298.2C219.248 297.847 212.028 292.207 198.291 273.171C190.19 262.948 184.907 249.905 182.97 244.441Z" fill="#00B7BD"/>
<path d="M147.396 152.787C146.515 147.675 143.521 145.913 140.527 145.56C138.414 145.736 136.653 146.442 136.653 146.442C136.653 146.442 136.477 146.089 136.301 145.56C134.54 145.913 133.307 146.442 133.307 146.442C133.307 146.442 132.074 141.506 127.319 140.625C127.143 140.625 127.143 140.625 126.967 140.625C119.218 142.211 116.4 150.495 114.815 153.844C113.23 157.193 90.8645 168.298 109.18 188.92C114.992 195.618 119.746 198.614 122.564 200.024C123.621 198.614 125.206 195.97 125.03 192.621C124.854 187.686 122.036 191.211 117.985 187.157C115.344 184.513 115.344 179.754 119.042 178.344C120.451 177.816 121.508 177.992 122.564 178.344C123.093 178.168 123.621 178.168 124.149 178.168L119.923 166.535C119.923 166.535 121.331 166.535 123.269 166.711V166.535C123.269 166.535 124.501 166.535 126.439 166.711C129.256 166.711 132.602 166.535 134.892 165.83C139.999 164.42 148.628 160.366 147.396 152.787Z" fill="#041E42"/>
<path d="M259.225 187.51C249.011 193.503 238.797 196.676 231.4 198.438C227.702 199.319 224.532 199.848 222.242 200.025C221.186 200.201 220.305 200.201 219.777 200.201C219.953 199.143 220.129 197.028 220.129 194.032C220.129 186.276 218.72 172.704 211.323 156.489C207.097 147.323 199.172 135.161 198.291 137.1C195.121 143.622 193.36 150.32 193.36 156.665C193.36 160.895 194.065 164.773 195.65 168.474L190.895 171.647C190.543 171.823 196.178 169.708 196.178 169.708C196.706 170.942 197.411 171.999 198.291 173.057C196.706 174.291 194.769 175.525 193.008 176.758C191.951 176.053 191.071 175.525 190.014 174.643C183.498 169.179 180.328 160.719 180.328 151.377C180.328 139.744 185.259 126.701 194.769 115.42C195.121 114.892 196.002 114.01 196.882 113.129C197.411 113.834 198.115 114.892 199.172 115.949C200.933 117.712 203.575 119.474 207.097 119.474C208.858 119.474 210.795 118.946 212.908 117.888C214.67 117.007 216.078 115.773 216.783 114.363C217.487 113.129 217.839 111.719 217.839 110.309C217.839 107.136 216.255 104.492 215.374 103.082C216.431 102.906 218.016 102.73 219.777 102.73C221.009 102.73 222.418 102.73 224.003 103.082C227.702 103.611 232.28 103.787 236.507 103.787C239.501 103.787 242.319 103.611 244.432 103.435C252.357 102.377 258.697 100.262 260.458 99.7334L264.156 105.197C262.571 106.255 257.464 109.604 246.369 112.6C240.558 114.187 231.752 115.949 231.752 115.949C234.922 120.003 237.74 124.586 240.382 129.169C244.784 136.748 248.835 144.679 253.942 151.201C266.093 166.359 275.78 171.999 278.597 173.409C277.012 175.172 271.729 180.107 259.225 187.51Z" fill="white"/>
<path d="M191.775 116.302C192.304 115.773 193.184 114.715 194.417 113.482C194.417 113.305 194.593 113.129 194.769 113.129C194.945 112.953 195.121 112.776 195.297 112.6C196.53 107.841 196.178 102.906 194.593 98.3233C194.593 98.147 194.417 97.9708 194.417 97.7945C193.536 98.147 192.304 98.3233 191.071 98.3233C190.19 98.3233 189.134 98.147 188.077 97.7945C187.196 97.442 186.492 96.737 185.964 95.8557C185.435 94.9744 185.259 94.0931 185.259 93.0355C185.259 92.1542 185.611 91.0967 186.14 90.3916C187.372 88.9816 188.957 88.6291 190.014 88.4528C189.838 87.3952 189.662 85.8089 189.662 83.8701C189.662 81.5787 189.838 78.9348 190.719 75.9384C191.423 73.2946 192.656 70.4744 193.889 68.1831C194.065 68.1831 194.769 68.1831 195.474 68.0068C196.354 66.4205 197.235 65.3629 197.235 65.3629C197.411 65.0104 197.939 65.0104 198.115 65.1867C198.467 65.3629 198.467 65.8917 198.291 66.068C198.291 66.068 198.291 66.068 198.115 66.2442C197.939 66.4205 197.763 66.5967 197.587 66.9493C197.235 67.3018 196.882 68.0068 196.53 68.5356C197.058 68.5356 197.587 68.3593 198.467 68.3593C199.172 68.3593 199.876 68.3593 200.581 68.5356H200.757C200.933 68.5356 201.109 68.5356 201.285 68.7118C201.461 68.7118 201.461 68.7118 201.637 68.7118C202.518 68.8881 203.398 69.2406 204.455 69.5931C204.983 69.7694 205.512 70.1219 205.864 70.2982C205.688 69.0644 205.512 67.1255 204.807 65.8917C203.751 63.7766 202.166 61.4852 198.643 60.2514C197.587 59.8989 196.354 59.7227 194.945 59.7227C194.417 59.7227 193.889 59.7227 193.36 59.7227C193.184 59.7227 193.184 59.7227 193.008 59.7227C188.605 60.2514 183.146 62.5428 178.743 66.9493C173.636 72.0608 169.762 79.9924 169.585 91.6255V91.978C169.585 100.262 172.403 105.374 174.516 108.194C175.045 108.546 175.221 108.899 175.397 109.075C175.573 109.251 175.749 109.428 175.749 109.604C176.101 109.956 176.454 110.309 176.454 110.309C176.63 110.485 176.63 110.661 176.63 110.838C176.63 111.014 176.63 111.19 176.454 111.366L176.278 111.543L175.925 111.895C175.573 112.071 175.221 112.6 174.693 112.953C173.812 114.01 172.403 115.42 171.17 117.183C168.529 120.708 166.063 125.82 166.063 131.46C166.063 131.812 166.063 132.165 166.063 132.517C166.239 135.69 166.944 138.158 168 140.097C168.881 141.154 169.938 141.859 170.994 142.388C173.636 143.798 176.278 144.15 177.334 144.15C179.624 135.338 184.203 125.291 191.775 116.302Z" fill="#041E42"/>
<path d="M414.378 107.312C413.673 106.255 412.616 105.021 410.679 103.611C406.981 100.791 401.698 99.5568 400.465 99.2043C400.289 99.2043 400.113 99.2043 400.113 99.2043C399.937 99.2043 399.76 99.028 399.584 99.028C399.584 99.028 396.062 95.5029 384.615 82.2835C378.803 75.5857 373.872 69.9454 368.413 65.7152C362.954 61.3087 357.142 58.1361 349.745 56.5497C346.223 55.8447 342.877 55.4922 339.883 55.4922C332.311 55.4922 326.675 57.2548 324.386 58.1361L325.971 60.0749L326.147 60.2512C326.147 60.4274 327.732 63.4238 327.908 71.3555V71.708C327.908 74.5281 327.379 77.5245 326.499 79.9921C325.618 82.4597 324.21 84.5748 322.625 85.9849C321.568 86.8662 320.159 87.395 318.75 87.395C318.574 87.395 318.222 87.395 318.046 87.395C316.461 87.2187 315.228 85.9849 314.347 84.7511C313.467 83.5173 312.939 81.7547 312.41 80.3446C311.706 77.7008 311.354 75.2331 311.354 74.5281L311.001 74.1756C310.825 74.3518 310.473 74.7044 310.121 74.8806C309.064 75.7619 307.479 76.9957 305.718 78.5821C302.196 81.7547 297.441 85.9849 292.686 90.3914C283.352 99.3806 278.773 104.14 271.553 108.722C265.565 112.424 259.049 116.125 256.936 117.183L262.219 130.755C262.571 130.578 263.276 130.402 263.98 130.226C265.565 129.697 268.031 128.639 271.024 127.229C276.836 124.233 284.585 119.474 292.686 111.542C299.202 105.197 304.661 102.729 308.888 102.729C311.706 102.729 313.819 103.963 315.052 105.726C316.285 107.665 316.813 108.722 317.517 109.427C318.046 110.132 318.574 110.661 319.807 111.895C321.04 113.129 322.096 113.481 322.096 113.481C322.448 113.834 322.977 114.186 323.681 114.539C321.216 119.122 318.222 123.704 314.7 127.934C313.819 128.816 312.762 130.226 312.058 130.931C311.177 131.812 310.473 132.693 309.592 133.575L319.455 142.211C328.26 135.337 335.481 127.406 341.116 118.945C341.116 118.945 342.349 118.769 346.399 122.294C350.274 125.819 356.261 131.107 360.312 135.69C362.601 138.157 364.186 140.273 364.891 141.859C365.947 144.326 367.004 146.089 368.061 147.499C369.294 148.733 370.35 149.438 371.759 149.438C372.287 149.438 372.64 149.438 373.168 149.262C373.872 149.085 375.105 148.204 376.514 146.618C377.923 145.208 379.332 143.269 380.917 141.154C384.087 136.924 387.433 132.165 390.779 128.816C393.244 126.348 396.943 123.88 400.641 121.589C404.339 119.298 408.214 117.183 411.031 115.244C412.793 114.01 414.201 112.776 414.73 112.071C415.082 111.366 415.61 110.661 415.61 109.78C415.258 109.251 415.082 108.37 414.378 107.312Z" fill="#FFD680"/>
<path d="M443.612 217.297L467.21 212.186L465.625 195.265L432.517 198.79C423.887 182.75 419.837 170.589 419.837 170.589C419.837 170.412 419.837 170.06 420.013 169.884L420.189 169.707C420.365 169.531 420.541 169.179 420.718 168.826C421.07 167.945 421.774 166.887 422.302 165.301C423.359 162.304 424.592 157.898 424.592 152.434C424.592 149.085 424.24 145.384 423.007 141.33C419.661 129.344 410.855 121.765 408.742 120.002C407.333 120.884 405.748 121.765 404.163 122.823C399.584 125.466 394.477 128.639 391.659 131.459C389.546 133.574 387.081 136.747 384.791 139.92C382.502 143.092 380.212 146.089 378.275 148.204C376.866 149.614 375.633 150.671 374.401 151.2C374.048 152.434 368.061 171.47 367.004 177.639C364.715 189.801 362.249 203.901 362.249 210.776C362.249 210.952 362.249 211.304 362.249 211.481C362.249 215.887 362.777 219.765 364.186 222.761C365.595 225.758 367.885 228.049 371.759 229.459C374.225 230.34 377.571 230.869 381.797 230.869C384.615 230.869 387.785 230.693 391.483 230.164C403.459 228.578 411.031 227.344 415.434 226.463C449.071 262.772 481.651 279.164 486.582 281.455L495.564 266.826C490.281 263.477 462.103 244.617 443.612 217.297Z" fill="#DDDDDD"/>
<path d="M285.289 85.2797C284.409 83.8696 284.585 82.107 284.585 80.6969C284.585 77.1718 285.642 73.6466 285.642 70.1214C285.642 69.0639 285.465 68.0063 285.289 66.9488C284.585 63.9524 282.824 61.4848 280.71 59.1934C278.597 56.9021 276.308 54.9632 274.371 52.6718C271.377 49.3229 267.854 43.6827 267.854 36.9848C267.854 34.8697 268.207 32.5784 269.087 30.1108C271.377 24.2942 274.723 20.064 278.949 17.2439C283.176 14.4238 288.107 13.1899 293.038 13.1899C302.724 13.1899 312.762 18.1252 318.222 26.5856C321.568 31.6971 323.857 35.046 326.323 37.3374C327.556 38.3949 328.964 39.2762 330.373 39.805C331.958 40.3338 333.543 40.51 335.657 40.51C336.537 40.51 337.418 40.51 338.474 40.3337C345.343 39.805 350.098 37.8661 355.029 37.8661C357.494 37.8661 360.136 38.3949 363.13 39.805C365.595 41.0388 367.18 42.6251 368.061 44.7402C369.117 46.8553 369.47 49.3229 369.47 51.9668C369.47 56.9021 361.897 60.4272 346.575 56.197C343.229 55.3157 339.883 55.1395 336.889 55.1395C333.367 55.1395 330.197 55.492 327.732 56.0208C323.505 56.9021 319.102 55.3157 316.285 51.9668L313.291 48.2654C314.347 47.2078 315.052 45.974 315.58 44.564C316.108 43.1539 316.285 41.9201 316.285 40.51C316.285 38.9237 315.932 37.3374 315.228 36.1035C314.523 34.8697 313.291 33.8122 311.882 33.2834C311.177 32.9309 310.473 32.9309 309.769 32.9309C306.951 32.9309 304.133 34.8697 302.548 37.6899C302.372 37.8661 301.844 38.0424 301.139 38.2186C298.85 38.9237 294.271 39.6287 288.107 39.805C287.05 39.805 285.818 39.805 284.937 39.805C280.006 39.805 277.012 39.4525 275.251 38.9237C275.251 38.9237 275.075 38.9237 274.899 38.9237C274.194 38.7474 273.842 38.5712 273.666 38.5712L273.314 38.3949C272.962 38.2186 272.433 38.3949 272.257 38.7474C272.081 39.0999 272.081 39.6287 272.609 39.9812C272.609 39.9812 272.786 40.1575 272.962 40.1575C273.138 40.1575 273.666 40.3338 274.194 40.51C274.899 42.4489 277.54 49.6754 282.824 56.9021C286.346 61.8373 289.164 65.1862 291.629 67.3013C294.095 69.4164 296.208 70.2977 298.145 70.2977C298.497 70.2977 298.85 70.2977 299.026 70.2977C300.082 70.1214 301.315 69.5927 302.372 68.8876C303.076 68.5351 303.605 68.0063 304.309 67.4776L309.769 74.5279C307.479 76.8193 291.101 94.9739 285.289 85.2797Z" fill="#041E42"/>
<path d="M262.395 106.078C264.332 105.021 265.565 104.316 265.565 104.316L275.956 102.729V101.672C275.956 101.672 275.427 100.967 274.194 100.791C272.786 100.438 271.729 100.438 271.729 100.438C271.729 100.438 273.138 98.6755 276.308 97.9705C277.717 97.618 279.83 98.323 279.83 98.323L280.182 97.2654C280.182 97.2654 278.597 94.7978 275.427 94.2691C273.49 93.9165 271.905 93.7403 270.848 93.7403C270.144 93.7403 269.616 93.9165 269.087 94.4453L263.1 99.9093C263.1 99.9093 261.691 100.614 259.225 101.319M198.115 110.661C196.354 112.424 193.184 115.596 192.304 116.83C174.869 137.452 172.932 164.42 187.725 177.111C188.781 177.992 190.014 178.873 191.071 179.578C193.008 178.168 195.297 176.582 197.235 175.172C189.486 164.772 190.719 148.028 200.229 133.575M216.959 186.276C215.902 178.873 213.789 169.355 208.858 158.603C203.927 148.38 196.53 139.92 196.53 139.92M262.571 163.362C271.729 172.352 278.069 174.995 278.069 174.995C278.069 174.995 273.666 180.636 257.816 189.801C245.489 197.028 233.161 200.2 225.412 201.61M223.651 110.132C236.683 120.884 242.495 139.92 252.709 152.434C253.237 153.139 253.766 153.668 254.118 154.197M211.852 104.668C213.613 104.139 217.135 103.611 222.242 104.139C228.406 105.021 237.916 105.021 242.495 104.492C251.829 103.258 258.873 100.614 258.873 100.614L263.276 107.136C263.276 107.136 258.345 111.19 244.784 115.068C238.973 116.654 234.57 117.535 231.576 118.064M271.729 170.589C264.508 178.168 251.829 187.334 230.343 191.388M237.212 199.143C245.489 223.819 213.085 232.808 213.085 232.808C213.085 232.808 210.619 231.398 208.153 231.927C206.216 232.279 204.631 233.689 205.512 237.038C206.392 240.387 207.273 242.15 207.449 246.204C207.625 248.319 206.392 251.139 207.801 256.074C209.034 260.657 212.38 261.362 213.261 261.186C214.141 261.01 214.493 260.657 214.317 258.013C214.141 255.369 219.601 238.625 219.601 238.625M219.248 239.506C237.211 233.513 258.873 219.765 251.829 193.326M259.049 189.096C261.162 190.154 262.923 191.211 265.037 192.269C281.239 200.906 293.919 211.305 300.435 220.294C300.435 220.294 299.202 223.466 300.435 226.287C301.315 228.402 303.429 229.988 307.127 228.225C310.825 226.287 310.649 225.405 315.404 224.171C317.87 223.643 321.392 224.348 327.027 221.351C332.134 218.707 332.134 214.654 331.782 213.772C331.43 212.891 330.902 212.362 327.732 213.243C324.562 214.125 307.127 215.711 306.246 215.182C300.963 205.664 287.755 189.625 273.842 178.873M197.059 175.172C197.059 175.172 200.757 177.992 202.518 180.812C203.751 182.751 203.399 186.452 202.694 187.686C201.99 188.92 197.939 189.272 197.939 189.272C197.939 189.272 197.763 187.157 194.065 183.103C192.304 181.164 191.599 179.049 191.599 179.049M194.945 113.834C194.945 113.834 200.405 124.409 210.619 119.121C219.777 114.362 212.38 104.668 212.38 104.668M202.166 97.6179C202.166 97.6179 207.097 99.2042 212.908 96.9128C217.487 94.974 218.72 91.6251 218.72 87.3949C218.544 82.4596 215.198 78.5819 215.198 78.5819C215.198 78.5819 215.55 71.8841 213.965 72.5891C213.437 72.7654 211.147 73.8229 210.619 73.6467C209.034 73.6467 207.449 72.0604 204.279 70.8266C199.524 68.8877 196.002 69.9453 196.002 69.9453M197.587 66.0676C197.587 66.0676 193.536 71.8841 191.951 77.1719C190.014 84.3985 191.599 89.8625 191.599 89.8625C191.599 89.8625 188.957 88.4524 186.492 91.2726C184.907 93.0351 185.964 96.7366 188.253 97.4416C191.775 98.6754 195.65 96.9128 195.65 96.9128C195.65 96.9128 198.82 103.611 198.82 106.607C198.82 112.247 196.178 114.539 196.178 114.539M213.437 106.255L210.971 106.078L208.33 98.1466M219.072 103.963C219.072 103.963 220.305 102.201 219.953 99.9092C219.248 95.1502 216.431 94.6214 216.431 94.6214M208.33 72.9417C208.33 72.9417 209.738 63.4238 199.348 60.2511C190.014 57.431 167.648 65.1863 167.472 91.4489C167.472 104.668 175.221 110.132 175.221 110.132C175.221 110.132 163.246 119.298 164.126 131.283C165.007 145.913 178.391 145.56 178.391 145.56M214.67 87.395C214.67 89.6864 212.556 91.449 209.915 91.449C208.153 91.449 206.569 90.5677 205.688 89.3339M198.996 74.5282C197.235 75.057 195.826 76.8196 195.121 78.9347C194.945 79.4635 194.945 79.9923 194.945 80.521M202.166 78.2296L204.103 80.8735M194.593 170.413L189.31 173.762" stroke="#041E42" stroke-miterlimit="10" stroke-linecap="round" stroke-linejoin="round"/>
<path d="M309.769 75.0568C309.769 75.0568 300.611 82.6359 291.805 91.0963C283 99.5567 278.773 104.139 272.081 108.193C265.389 112.424 257.64 116.654 257.64 116.654L263.1 130.931C263.1 130.931 277.541 127.229 293.038 112.247C303.076 102.553 310.473 102.906 312.762 106.607C315.052 110.485 315.052 110.308 317.341 112.6C318.574 114.01 319.807 114.362 319.807 114.362M266.622 125.819C266.622 125.819 268.911 124.762 272.257 122.999M289.164 93.564C287.403 92.3301 285.466 90.215 284.409 87.2186C282.119 80.3446 285.818 74.528 284.409 68.8878C283 63.2475 277.717 59.5461 273.666 54.9633C269.616 50.3806 264.508 41.5677 268.207 31.521C277.188 7.54981 307.303 10.1937 318.926 27.8195C326.323 39.1001 328.084 42.0965 338.474 41.3914C348.689 40.6864 354.5 36.6325 363.658 41.0389C373.872 45.9742 371.231 61.3087 366.476 68.5352M308.712 64.6575C308.712 64.6575 302.548 71.1791 299.026 71.7079C295.504 72.2367 291.277 69.4165 283.528 58.841C277.541 50.3806 274.899 42.0965 274.899 42.0965M298.85 54.2584C299.202 55.1397 299.378 56.021 299.378 56.9023C299.378 59.5462 297.969 61.6613 296.032 62.7188M304.485 68.359L310.648 76.2906C310.648 76.2906 311.705 87.3949 316.284 87.9237C320.863 88.4525 324.737 81.2259 324.561 73.823C324.385 66.4202 322.976 63.7763 322.976 63.7763L311.881 50.2044C312.938 49.1468 313.995 47.913 314.523 46.3267C316.108 41.9202 314.699 37.5138 311.353 36.1037C308.359 34.8699 304.661 36.8087 302.9 40.3339C301.667 41.2152 296.384 42.449 287.93 42.6253C278.42 42.9778 274.018 41.744 273.137 41.3915M293.39 44.9166L295.152 47.3843M282.824 51.6145L284.233 53.7296M290.044 58.3121C288.635 58.3121 287.403 57.0783 287.403 55.6682C287.403 54.2582 288.635 53.5531 290.044 53.5531L285.994 47.9128M306.951 132.87L317.341 142.035M317.341 142.035C310.473 147.499 303.429 151.729 296.032 154.902C283.704 159.661 272.962 159.308 272.962 159.308L260.634 164.067C259.577 164.42 258.521 164.42 257.464 164.067C255.879 163.539 253.414 162.481 250.772 160.719C246.369 157.898 245.489 153.316 245.489 153.316L246.721 151.906C246.721 151.906 249.539 154.197 251.829 154.549C257.288 155.254 260.282 153.492 260.282 153.492C260.282 153.492 258.697 152.963 256.76 151.553C254.999 150.319 254.646 149.085 254.646 149.085L255.351 147.499L271.905 151.201C271.905 151.201 276.132 152.258 281.591 150.143C287.579 147.499 293.567 143.974 299.202 139.567C318.574 124.233 328.965 102.729 328.084 83.6936M317.341 142.035C340.764 123.704 353.444 97.7942 352.211 74.7044M310.473 128.992L318.75 136.218M320.863 61.1324C320.863 61.1324 332.134 55.8446 346.575 59.1935C361.016 62.3662 369.117 71.3554 380.036 83.8697C390.955 96.3841 394.125 99.5567 394.125 99.5567C394.125 99.5567 400.289 100.614 404.515 103.963C410.503 108.546 409.27 111.366 408.214 113.129C405.748 117.006 391.483 122.999 385.496 128.992C379.684 134.985 372.64 147.323 368.589 148.38C364.539 149.438 361.897 146.441 359.608 140.977C357.318 135.69 338.474 119.65 338.474 119.65M367.885 148.733C367.885 148.733 368.413 177.111 399.584 214.301C439.561 261.891 481.299 280.574 481.299 280.574L491.161 264.535C491.161 264.535 458.933 244.441 438.681 214.477C422.831 190.682 415.434 168.474 415.434 168.474C415.434 168.474 423.359 156.488 418.428 139.039C414.554 124.938 403.283 117.006 403.283 117.006M368.941 158.074C368.941 158.074 361.193 199.848 361.016 213.948C360.84 228.049 364.539 237.743 386.728 234.218C408.918 230.693 412.969 228.93 412.969 228.93M441.675 218.531L468.091 212.891L466.33 194.384L429.347 198.262M466.682 196.852C466.682 196.852 475.312 196.675 479.01 195.618C482.708 194.384 487.287 191.564 490.281 188.567C493.275 185.571 495.388 185.219 497.325 186.276C499.439 187.51 499.967 193.855 501.2 199.496C502.432 205.136 504.898 207.956 506.131 210.247C511.062 219.589 506.835 227.521 505.25 226.992C503.665 226.463 502.961 222.057 499.967 218.179C491.337 207.075 483.941 206.017 483.941 206.017L467.563 209.895M488.696 268.413L495.036 271.409C495.036 271.409 499.086 268.941 503.313 269.999C506.483 270.704 509.124 272.995 507.716 278.459C506.307 283.923 504.722 284.1 504.369 290.621C504.193 294.146 506.131 298.729 503.665 307.013C501.376 314.592 495.916 315.65 494.507 315.474C493.098 315.297 492.394 314.768 492.746 310.186C493.098 305.779 492.746 294.675 491.866 290.092C490.985 285.51 490.105 283.042 489.048 281.808C487.991 280.574 482.884 277.754 482.884 277.754" stroke="#041E42" stroke-miterlimit="10" stroke-linecap="round" stroke-linejoin="round"/>
<path d="M136.477 201.434C136.477 201.434 147.396 200.376 150.566 197.204C153.736 194.031 154.088 187.862 149.685 172.704C148.276 168.121 146.515 163.891 144.93 160.542M133.835 184.16C134.364 185.042 135.068 185.923 135.948 186.628C138.414 188.567 141.584 188.919 144.05 187.686M124.501 213.243L121.684 200.905M143.345 200.2L145.987 207.25M129.08 171.999L129.961 175.347M143.345 166.535L144.402 169.707M144.578 178.696C145.635 177.286 145.458 175.348 144.05 174.29C142.641 173.232 141.056 173.761 139.999 175.171L137.533 167.063M189.31 402.192C189.31 402.192 184.907 409.595 182.089 412.239C179.271 414.883 174.516 417.527 170.29 418.584C166.063 419.642 164.83 421.228 164.83 423.696C164.83 425.987 170.114 429.865 174.34 433.566C178.567 437.444 179.8 440.969 181.209 443.261C186.844 452.074 195.826 452.426 196.178 450.84C196.53 449.253 193.008 446.257 191.247 442.027C185.964 429.16 188.605 422.11 188.605 422.11L200.052 409.771M210.267 302.254C218.544 311.419 230.167 327.459 238.973 353.369C259.049 412.063 253.59 457.537 253.59 457.537L234.746 457.714C234.746 457.714 234.218 419.818 218.896 387.034C206.744 361.124 177.334 344.027 164.83 330.808C163.774 329.574 162.893 328.692 162.013 327.459M212.204 300.139C223.475 304.545 249.363 314.416 258.697 320.056C271.024 327.283 277.364 335.39 262.747 352.488C248.13 369.585 244.608 372.228 244.608 372.228M221.185 391.617L202.518 411.358L187.549 400.253L209.21 371.523M239.501 457.714L238.796 464.764C238.796 464.764 234.746 466.879 233.337 471.109C232.28 474.106 232.809 477.631 238.444 479.217C243.904 480.804 244.784 479.57 250.596 482.742C253.766 484.505 256.583 488.383 265.037 490.498C272.786 492.437 276.484 488.206 277.012 487.149C277.54 485.915 277.364 485.034 273.49 482.919C269.616 480.804 260.282 474.987 256.76 471.814C253.237 468.642 251.652 466.703 251.124 465.117C250.772 463.53 250.772 457.714 250.772 457.714M181.913 241.973C181.913 241.973 184.202 254.311 193.712 271.408C201.461 285.509 213.613 298.376 213.613 298.376C213.613 298.376 205.336 308.951 190.895 316.178C165.711 328.869 152.855 328.869 152.855 328.869C152.855 328.869 150.213 313.887 143.697 296.79C130.841 263.124 117.985 241.621 123.797 225.934L117.985 218.178C117.985 218.178 121.86 213.948 127.671 211.657C133.483 209.365 147.043 207.25 147.043 207.25L148.804 210.775C148.804 210.775 145.282 217.297 139.118 218.178C130.665 219.412 129.256 223.29 129.256 223.29M166.063 194.384C163.069 201.61 156.553 205.84 148.804 210.247M177.158 143.797C178.215 149.614 177.863 155.959 177.51 162.304C176.806 175.524 172.403 188.391 166.239 197.556M181.737 210.599C186.492 201.786 189.838 191.387 190.895 179.93M180.152 214.124C181.032 212.891 181.561 212.009 182.265 210.775M168.705 191.916C163.422 193.855 166.063 198.79 170.466 204.078C174.869 209.366 180.152 212.186 182.265 210.423M169.233 215.887C161.837 217.826 154.264 219.412 149.509 219.941M173.812 245.675C176.63 244.617 179.271 243.207 182.089 241.973C214.493 225.581 233.513 197.203 234.746 171.293C234.746 169.355 234.746 167.945 234.746 167.945L239.149 155.43C239.501 154.373 239.501 153.315 239.149 152.258C238.444 150.671 237.388 148.204 235.45 145.56C232.456 141.153 227.878 140.448 227.878 140.448L226.293 141.858C226.293 141.858 228.758 144.502 229.11 146.794C229.991 152.258 228.406 155.254 228.406 155.254C228.406 155.254 227.878 153.668 226.293 151.729C225.06 150.142 223.827 149.79 223.827 149.79L222.242 150.495L226.645 166.887C226.645 166.887 226.821 167.768 226.997 169.002C220.481 186.452 204.983 202.139 185.083 212.185C181.032 214.301 174.693 216.416 168 218.355M173.284 216.768C172.051 215.887 170.994 215.358 169.938 215.711C166.592 216.592 165.887 224.876 168.353 234.042C170.818 243.207 175.749 249.905 179.271 249.024M179.271 249.024C181.209 248.495 182.265 245.675 182.265 241.797M179.271 249.024L161.837 254.311M124.677 179.401L119.923 166.535C119.923 166.535 129.785 167.063 134.892 165.83C139.999 164.596 148.628 160.542 147.396 152.963C145.458 141.682 133.483 146.617 133.483 146.617C133.483 146.617 131.546 139.391 123.797 140.801C116.048 142.387 113.23 150.671 111.645 154.02C110.06 157.369 87.6945 168.297 106.01 188.919C115.344 199.319 121.86 200.905 121.86 200.905C121.86 200.905 125.382 197.38 125.03 192.445C124.854 187.509 122.036 191.035 117.985 186.981C115.344 184.337 115.344 179.578 119.042 178.168C122.212 176.934 124.677 179.401 124.677 179.401Z" stroke="#041E42" stroke-miterlimit="10" stroke-linecap="round" stroke-linejoin="round"/>
</svg>
