<svg width="224" height="80" viewBox="0 0 224 80" fill="none" xmlns="http://www.w3.org/2000/svg">
<path d="M65.6104 52.2287C65.6104 52.2287 65.3671 50.5256 65.3671 49.7146C65.3671 46.2273 66.6647 43.0644 68.8544 40.6313L63.7451 45.5785C61.9609 47.3627 60.9877 49.7146 60.9877 52.2287C60.9877 52.7153 61.0688 53.2831 61.1499 53.7697L64.0695 70.8008C64.0695 70.963 64.1506 71.1252 64.1506 71.2874C64.1506 71.6929 64.0695 72.0173 63.9073 72.2606C63.7451 72.7472 63.3396 73.1527 62.9341 73.396C62.5286 73.6393 62.042 73.8015 61.5554 73.8015C61.1499 73.8015 60.7444 73.7204 60.3389 73.4771L59.2034 72.9905C59.2845 72.585 59.2845 72.1795 59.2845 71.6929C59.2845 67.5568 55.8783 64.1505 51.7422 64.1505C47.6061 64.1505 44.1998 67.5568 44.1998 71.6929C44.1998 75.829 47.6061 79.2353 51.7422 79.2353C53.8508 79.2353 55.7161 78.4243 57.0948 77.0455L58.2302 77.6132C59.2846 78.1809 60.42 78.4242 61.5554 78.4242C63.5018 78.4242 65.286 77.6132 66.5836 76.3967C67.2324 75.7479 67.8001 75.018 68.1245 74.1259C68.53 73.2338 68.6922 72.2606 68.6922 71.2874C68.6922 70.8819 68.6922 70.4764 68.6111 70.0709C68.6111 70.0709 65.6104 52.5531 65.6104 52.2287ZM51.7422 74.6936C50.1202 74.6936 48.7415 73.396 48.7415 71.6929C48.7415 70.0709 50.0391 68.6922 51.7422 68.6922C53.3642 68.6922 54.7429 69.9898 54.7429 71.6929C54.7429 73.3149 53.3642 74.6936 51.7422 74.6936Z" fill="#FFAD00"/>
<path d="M31.2238 34.3057C31.2238 36.2521 32.7647 37.793 34.7111 37.793C36.6575 37.793 38.1984 36.2521 38.1984 34.3057C38.1984 32.3593 36.6575 30.8183 34.7111 30.8183C32.7647 30.7372 31.2238 32.3593 31.2238 34.3057Z" fill="#00B7BD"/>
<path d="M43.8754 34.3057C43.8754 36.2521 45.4163 37.793 47.3628 37.793C49.3092 37.793 50.8501 36.2521 50.8501 34.3057C50.8501 32.3593 49.3092 30.8183 47.3628 30.8183C45.4163 30.7372 43.8754 32.3593 43.8754 34.3057Z" fill="#00B7BD"/>
<path d="M79.9652 27.0876C79.3975 26.4388 78.7487 25.8711 78.0188 25.4656C77.2889 25.0601 76.3968 24.7357 75.4236 24.5735L58.3925 22.0594C56.8516 21.8161 55.5539 20.8429 54.9051 19.4642L47.2006 3.97393C46.5518 2.67632 45.5786 1.62201 44.4432 0.973208C43.3077 0.324403 42.0101 0 40.7936 0C39.496 0 38.2795 0.324403 37.1441 0.973208C36.0087 1.62201 35.0355 2.67632 34.3867 3.97393L26.7632 19.4642C26.1144 20.8429 24.7357 21.8161 23.2759 22.0594L6.24475 24.5735C5.27154 24.7357 4.46054 24.979 3.64953 25.4656C2.51412 26.1144 1.62201 27.0876 0.973208 28.1419C0.324403 29.1962 0 30.4127 0 31.7104C0 32.6025 0.162201 33.4946 0.567705 34.3867C0.892107 35.2788 1.45981 36.0898 2.18972 36.8197L14.517 48.9037C15.4091 49.7958 15.8957 51.0123 15.8957 52.3099C15.8957 52.5532 12.895 70.1521 12.895 70.1521C12.8139 70.5576 12.8139 70.9631 12.8139 71.3686C12.8139 72.3418 13.0572 73.315 13.3816 74.2071C13.9493 75.5047 14.9225 76.559 16.0579 77.37C17.1933 78.0999 18.572 78.5865 20.0319 78.5865C21.1673 78.5865 22.3027 78.3432 23.357 77.7755L38.8472 69.5844C40.2259 68.9356 41.3613 67.8812 42.1723 66.6647C42.9022 65.4482 43.3888 63.9884 43.3888 62.4475V60.0145C43.3888 58.3925 44.4432 57.0138 45.9841 56.6083C49.3092 55.7161 52.3099 54.013 54.6618 51.6611C58.1492 48.1738 60.2578 43.3888 60.2578 38.1173C60.2578 38.0362 60.2578 37.6307 60.2578 35.2788C60.2578 34.3867 59.8523 33.4946 59.2846 32.9269C58.7169 32.3592 57.8248 31.9537 56.9327 31.9537H56.2028C55.2295 31.9537 54.4185 32.7647 54.4185 33.7379V35.3599C54.4185 36.0898 54.9862 36.5764 55.635 36.5764C55.635 37.7929 55.635 38.1173 55.635 38.1173C55.635 42.1723 54.013 45.8219 51.3367 48.4171C48.6604 51.0934 45.0109 52.7154 41.0369 52.7154C36.9819 52.7154 33.4135 51.0934 30.7371 48.4171C28.0608 45.7408 26.4388 42.0912 26.4388 38.1173C26.4388 38.0362 26.4388 37.7929 26.4388 36.5764C27.1687 36.5764 27.6553 36.0087 27.6553 35.3599V33.7379C27.6553 32.7647 26.8443 31.9537 25.8711 31.9537H25.1412C24.2491 31.9537 23.357 32.3592 22.7893 32.9269C22.2216 33.4946 21.8161 34.3867 21.8161 35.2788C21.8161 37.6307 21.8161 38.0362 21.8161 38.1173C21.8161 43.3888 23.9247 48.1738 27.412 51.6611C29.7639 54.013 32.6836 55.7972 36.0087 56.6083C37.5496 57.0138 38.6039 58.3925 38.6039 60.0145V62.3664C38.6039 63.0152 38.4417 63.664 38.1173 64.1506C37.7929 64.6372 37.3874 65.0427 36.8197 65.286L21.2484 73.5583C20.8429 73.8016 20.4374 73.8827 20.0319 73.8827C19.3831 73.8827 18.7343 73.6394 18.2476 73.1528C18.0043 72.9095 17.8421 72.6662 17.6799 72.3418C17.5177 72.0174 17.4366 71.693 17.4366 71.3686C17.4366 71.2064 20.3563 53.8508 20.3563 53.8508C20.4374 53.3642 20.5185 52.7965 20.5185 52.3099C20.5185 49.7958 19.5453 47.4439 17.761 45.6597L17.6799 45.5786L5.35264 33.5757C5.02824 33.3324 4.86604 33.008 4.78494 32.6836C4.62274 32.3592 4.62274 32.0348 4.62274 31.7104C4.62274 31.0615 4.86604 30.4938 5.19044 30.0072C5.35264 29.7639 5.59594 29.6017 5.83925 29.4395C6.16365 29.2773 6.48805 29.1962 6.81245 29.1151L23.8436 26.601C26.8443 26.1955 29.4395 24.2491 30.8182 21.4917L38.4417 6.00145C38.685 5.51484 39.0094 5.19044 39.4149 4.94714C39.8204 4.70384 40.307 4.62274 40.7125 4.62274C41.1991 4.62274 41.6857 4.78494 42.0101 4.94714C42.4156 5.19044 42.74 5.51484 42.9833 6.00145L50.6068 21.4917C51.9855 24.2491 54.5807 26.1144 57.5815 26.601L74.6126 29.1151C75.0181 29.1962 75.2614 29.2773 75.5858 29.4395C75.9913 29.6828 76.3157 30.0072 76.559 30.4127C76.8023 30.8182 76.8834 31.3048 76.8834 31.7104C76.8834 32.0348 76.8023 32.3592 76.7212 32.6836C76.559 33.008 76.3968 33.2513 76.1535 33.5757L69.26 40.307C66.908 42.74 65.3671 46.0652 65.3671 49.7958C65.3671 50.6068 65.6104 52.3099 65.6104 52.3099C65.6104 51.0123 66.097 49.7958 66.9891 48.9037L79.3164 36.8197C80.0463 36.0898 80.614 35.2788 80.9384 34.3867C81.2628 33.4946 81.5061 32.6025 81.5061 31.7104C81.5872 30.0072 81.0195 28.3852 79.9652 27.0876Z" fill="#00B7BD"/>
<path d="M111.513 29.1963V15.7336C111.513 15.0847 111.027 14.5981 110.378 14.5981H109.243C108.594 14.5981 108.107 15.0847 108.107 15.7336V28.6286C108.107 28.8719 107.864 29.1152 107.621 29.1152H101.944C101.7 29.1152 101.457 28.8719 101.457 28.6286V15.7336C101.457 15.0847 100.97 14.5981 100.322 14.5981H99.1861C98.5373 14.5981 98.0507 15.0847 98.0507 15.7336V28.6286C98.0507 30.575 99.6727 32.197 101.619 32.197H110.378C110.621 32.197 110.865 32.4403 110.865 32.6836V34.7111C110.865 35.3599 111.351 35.8465 112 35.8465H112.892C113.541 35.8465 114.028 35.3599 114.028 34.7111V31.9537C114.028 30.575 112.892 29.3585 111.513 29.1963Z" fill="#041E42"/>
<path d="M130.815 32.197H131.87C132.518 32.197 133.005 31.7104 133.005 31.0616V27.2499C133.005 27.0065 133.248 26.7632 133.492 26.7632H137.303C137.547 26.7632 137.79 27.0065 137.79 27.2499V31.0616C137.79 31.7104 138.277 32.197 138.925 32.197H139.98C140.629 32.197 141.115 31.7104 141.115 31.0616V20.0319C141.115 19.3831 140.629 18.8965 139.98 18.8965H138.925C138.277 18.8965 137.79 19.3831 137.79 20.0319V23.5192C137.79 23.7625 137.547 24.0058 137.303 24.0058H133.492C133.248 24.0058 133.005 23.7625 133.005 23.5192V20.0319C133.005 19.3831 132.518 18.8965 131.87 18.8965H130.815C130.167 18.8965 129.68 19.3831 129.68 20.0319V31.0616C129.761 31.7104 130.248 32.197 130.815 32.197Z" fill="#041E42"/>
<path d="M146.549 21.735C146.792 21.735 147.035 21.9783 147.035 22.2216V31.0616C147.035 31.7104 147.522 32.197 148.171 32.197H149.225C149.874 32.197 150.361 31.7104 150.361 31.0616V22.2216C150.361 21.9783 150.604 21.735 150.847 21.735H153.28C153.929 21.735 154.416 21.2484 154.416 20.5996V20.0319C154.416 19.3831 153.929 18.8965 153.28 18.8965H144.197C143.548 18.8965 143.062 19.3831 143.062 20.0319V20.5996C143.062 21.2484 143.548 21.735 144.197 21.735H146.549Z" fill="#041E42"/>
<path d="M180.449 46.5518H171.366C170.717 46.5518 170.23 47.0384 170.23 47.6872V48.2549C170.23 48.9037 170.717 49.3903 171.366 49.3903H173.799C174.042 49.3903 174.285 49.6336 174.285 49.8769V58.7169C174.285 59.3657 174.772 59.8523 175.421 59.8523H176.475C177.124 59.8523 177.61 59.3657 177.61 58.7169V49.7958C177.61 49.5525 177.854 49.3092 178.097 49.3092H180.53C181.179 49.3092 181.665 48.8226 181.665 48.1738V47.6061C181.503 47.0384 181.017 46.5518 180.449 46.5518Z" fill="#041E42"/>
<path d="M159.525 35.9276V30.8183C159.768 31.2238 160.093 31.5482 160.498 31.7915C161.147 32.2781 161.958 32.4403 162.85 32.4403C164.553 32.4403 165.851 31.7915 166.824 30.575C167.716 29.3585 168.203 27.6554 168.203 25.5468C168.203 23.4381 167.797 21.735 166.824 20.5185C165.932 19.302 164.553 18.6532 162.85 18.6532C161.958 18.6532 161.147 18.8965 160.498 19.302C160.093 19.5453 159.768 19.8697 159.525 20.2752V20.0319C159.525 19.3831 159.038 18.8965 158.39 18.8965H157.335C156.686 18.8965 156.2 19.3831 156.2 20.0319V35.9276C156.2 36.5764 156.686 37.063 157.335 37.063H158.39C158.957 37.063 159.525 36.5764 159.525 35.9276ZM159.525 23.4381C159.525 22.8704 159.768 22.4649 160.255 22.1405C160.741 21.8161 161.39 21.5728 162.12 21.5728C163.012 21.5728 163.58 21.8161 164.148 22.3838C164.634 22.9515 164.878 23.6003 164.878 24.4924V26.6822C164.878 27.5743 164.634 28.3042 164.148 28.7908C163.661 29.2774 163.012 29.6018 162.12 29.6018C161.39 29.6018 160.741 29.4396 160.255 29.0341C159.768 28.7097 159.525 28.3042 159.525 27.7365V23.4381Z" fill="#041E42"/>
<path d="M190.019 46.2274C189.127 46.2274 188.316 46.4707 187.667 46.8762C187.261 47.1195 186.937 47.4439 186.694 47.8494V47.6061C186.694 46.9573 186.207 46.4707 185.558 46.4707H184.504C183.855 46.4707 183.369 46.9573 183.369 47.6061V63.5019C183.369 64.1507 183.855 64.6373 184.504 64.6373H185.558C186.207 64.6373 186.694 64.1507 186.694 63.5019V58.3925C186.937 58.798 187.261 59.1224 187.667 59.3657C188.316 59.8523 189.127 60.0145 190.019 60.0145C191.722 60.0145 193.02 59.3657 193.993 58.1492C194.885 56.9327 195.371 55.2296 195.371 53.121C195.371 51.0124 194.966 49.3092 193.993 48.0927C193.101 46.8762 191.722 46.2274 190.019 46.2274ZM191.965 54.2564C191.965 55.1485 191.722 55.8784 191.235 56.365C190.749 56.8516 190.1 57.176 189.208 57.176C188.478 57.176 187.829 57.0138 187.343 56.6083C186.856 56.2839 186.613 55.8784 186.613 55.3107V51.0124C186.613 50.4447 186.856 50.0391 187.343 49.7147C187.829 49.3903 188.478 49.147 189.208 49.147C190.1 49.147 190.668 49.3903 191.235 49.958C191.722 50.5257 191.965 51.1746 191.965 52.0667V54.2564Z" fill="#041E42"/>
<path d="M107.945 42.1724H101.619C99.6727 42.1724 98.0507 43.7944 98.0507 45.7408V58.6358C98.0507 59.2846 98.5373 59.7712 99.1861 59.7712H100.322C100.97 59.7712 101.457 59.2846 101.457 58.6358V45.7408C101.457 45.4975 101.7 45.2542 101.944 45.2542H107.621C107.864 45.2542 108.107 45.4975 108.107 45.7408V58.6358C108.107 59.2846 108.594 59.7712 109.243 59.7712H110.378C111.027 59.7712 111.513 59.2846 111.513 58.6358V45.7408C111.513 43.7944 109.891 42.1724 107.945 42.1724Z" fill="#041E42"/>
<path d="M140.061 57.0138H139.818V47.6061C139.818 46.9573 139.331 46.4707 138.682 46.4707H131.059C130.41 46.4707 129.923 46.9573 129.923 47.6061V50.4446C129.923 52.0667 129.761 53.3643 129.518 54.4997C129.274 55.554 128.95 56.365 128.545 57.0138C127.652 57.0949 126.923 57.9059 126.923 58.798V62.042C126.923 62.6908 127.409 63.1774 128.058 63.1774H128.869C129.518 63.1774 130.004 62.6908 130.004 62.042V60.2578C130.004 60.0145 130.248 59.7712 130.491 59.7712H138.439C138.682 59.7712 138.925 60.0145 138.925 60.2578V62.042C138.925 62.6908 139.412 63.1774 140.061 63.1774H140.872C141.521 63.1774 142.007 62.6908 142.007 62.042V58.8791C142.007 57.9059 141.115 57.0138 140.061 57.0138ZM136.573 56.5272C136.573 56.7705 136.33 57.0138 136.087 57.0138H132.843C132.518 57.0138 132.356 56.7705 132.356 56.5272V56.365C132.518 55.9595 132.681 55.3918 132.762 54.8241C133.005 53.6887 133.167 52.31 133.167 50.6068V49.7958C133.167 49.5525 133.411 49.3092 133.654 49.3092H136.087C136.33 49.3092 136.573 49.5525 136.573 49.7958V56.5272Z" fill="#041E42"/>
<path d="M154.172 46.5518H153.037C152.631 46.5518 152.307 46.714 152.145 47.0384L148.009 53.1209L147.035 54.824L147.198 53.0398V47.6872C147.198 47.0384 146.711 46.5518 146.062 46.5518H145.089C144.44 46.5518 143.954 47.0384 143.954 47.6872V58.7169C143.954 59.3657 144.44 59.8523 145.089 59.8523H146.224C146.63 59.8523 146.954 59.6901 147.117 59.3657L151.253 53.2831L152.226 51.58L152.064 53.3642V58.7169C152.064 59.3657 152.55 59.8523 153.199 59.8523H154.172C154.821 59.8523 155.308 59.3657 155.308 58.7169V47.6061C155.308 47.0384 154.821 46.5518 154.172 46.5518Z" fill="#041E42"/>
<path d="M208.185 46.5518H207.05C206.644 46.5518 206.32 46.714 206.158 47.0384L202.022 53.1209L201.048 54.824L201.211 53.0398V47.6872C201.211 47.0384 200.724 46.5518 200.075 46.5518H199.102C198.453 46.5518 197.967 47.0384 197.967 47.6872V58.7169C197.967 59.3657 198.453 59.8523 199.102 59.8523H200.237C200.643 59.8523 200.967 59.6901 201.13 59.3657L205.266 53.2831L206.239 51.58L206.077 53.3642V58.7169C206.077 59.3657 206.563 59.8523 207.212 59.8523H208.185C208.834 59.8523 209.321 59.3657 209.321 58.7169V47.6061C209.321 47.0384 208.834 46.5518 208.185 46.5518Z" fill="#041E42"/>
<path d="M222.865 46.5518H221.729C221.324 46.5518 220.999 46.714 220.837 47.0384L216.701 53.1209L215.728 54.824L215.89 53.0398V47.6872C215.89 47.0384 215.403 46.5518 214.755 46.5518H213.781C213.133 46.5518 212.646 47.0384 212.646 47.6872V58.7169C212.646 59.3657 213.133 59.8523 213.781 59.8523H214.917C215.322 59.8523 215.647 59.6901 215.809 59.3657L219.945 53.2831L220.918 51.58L220.756 53.3642V58.7169C220.756 59.3657 221.243 59.8523 221.891 59.8523H222.865C223.513 59.8523 224 59.3657 224 58.7169V47.6061C224 47.0384 223.513 46.5518 222.865 46.5518Z" fill="#041E42"/>
<path d="M168.852 57.0138H168.608V50.9313C168.608 49.4714 168.122 48.2549 167.23 47.4439C166.256 46.6329 164.959 46.2274 163.256 46.2274C161.958 46.2274 160.904 46.4707 160.093 46.9573C159.525 47.2817 159.038 47.6872 158.714 48.1738C158.552 48.4171 158.471 48.6604 158.471 48.9037C158.471 49.2281 158.633 49.5525 158.876 49.7147L159.282 50.1202C159.525 50.2824 159.768 50.4447 160.012 50.4447C160.336 50.4447 160.66 50.2824 160.823 50.0391C160.985 49.7958 161.228 49.6336 161.471 49.4714C161.877 49.2281 162.445 49.0659 163.093 49.0659C163.904 49.0659 164.472 49.2281 164.878 49.6336C165.202 49.958 165.445 50.5258 165.445 51.2557V51.9045H163.499C161.715 51.9045 160.255 52.2289 159.282 52.8777C158.308 53.5265 157.741 54.6619 157.741 55.9595C157.741 57.176 158.146 58.1492 158.876 58.9602C159.687 59.6901 160.741 60.0956 162.12 60.0956C163.093 60.0956 163.904 59.8523 164.634 59.4468C165.121 59.1224 165.526 58.7169 165.851 58.1492C166.013 58.4736 166.175 58.798 166.419 59.1224C166.824 59.609 167.473 59.8523 168.284 59.8523H168.933C169.581 59.8523 170.068 59.3657 170.068 58.7169V58.1492C169.987 57.5004 169.419 57.0138 168.852 57.0138ZM165.364 55.7162C165.364 56.2028 165.121 56.6083 164.715 56.9327C164.229 57.2571 163.661 57.4193 162.85 57.4193C162.201 57.4193 161.796 57.2571 161.471 57.0138C161.147 56.7705 161.066 56.4461 160.985 55.9595V55.554C160.985 55.0674 161.147 54.743 161.552 54.4997C161.958 54.2564 162.607 54.0942 163.418 54.0942H165.283L165.364 54.1753V55.7162Z" fill="#041E42"/>
<path d="M124.733 48.1738C124.246 47.525 123.597 47.1195 122.867 46.714C122.138 46.3896 121.245 46.2274 120.272 46.2274C119.299 46.2274 118.488 46.3896 117.758 46.714C117.028 47.0384 116.379 47.525 115.812 48.0927C115.244 48.7415 114.839 49.4714 114.595 50.2824C114.352 51.1746 114.19 52.0667 114.19 53.121C114.19 54.1753 114.352 55.0674 114.595 55.9595C114.839 56.8516 115.244 57.5815 115.812 58.1492C116.379 58.798 117.028 59.2035 117.758 59.5279C118.488 59.8523 119.38 60.0145 120.272 60.0145C121.489 60.0145 122.624 59.7712 123.516 59.2846C124.165 58.9602 124.733 58.4736 125.219 57.987C125.382 57.7437 125.463 57.5004 125.463 57.2571C125.463 56.9327 125.382 56.6894 125.138 56.4461L124.733 56.0406C124.489 55.7973 124.246 55.7162 123.922 55.7162C123.597 55.7162 123.273 55.8784 123.111 56.1217C122.867 56.365 122.624 56.6083 122.3 56.7705C121.813 57.0949 121.245 57.2571 120.516 57.2571C119.542 57.2571 118.812 56.9327 118.245 56.4461C117.839 56.0406 117.677 55.3107 117.515 54.743V54.6619C117.515 54.4186 117.758 54.1753 118.001 54.1753H124.976C125.625 54.1753 126.111 53.6887 126.111 53.0399V52.8777C126.111 51.9856 126.03 51.0935 125.706 50.3635C125.544 49.4714 125.219 48.8226 124.733 48.1738ZM117.515 51.7423C117.515 51.3368 117.596 51.0124 117.677 50.6069C117.839 50.2014 118.001 49.958 118.245 49.6336C118.488 49.3903 118.731 49.147 119.137 49.0659C119.461 48.9037 119.867 48.8226 120.272 48.8226C121.083 48.8226 121.651 49.0659 122.138 49.6336C122.543 50.1202 122.786 50.8502 122.786 51.7423H117.515Z" fill="#041E42"/>
<path d="M119.137 26.601H126.111C126.76 26.601 127.247 26.1144 127.247 25.4656V25.3034C127.247 24.4113 127.166 23.5192 126.841 22.7893C126.598 21.9783 126.193 21.2484 125.706 20.6807C125.219 20.0319 124.571 19.6264 123.841 19.2209C123.111 18.8965 122.219 18.7343 121.245 18.7343C120.272 18.7343 119.461 18.8965 118.731 19.2209C118.001 19.5453 117.353 20.0319 116.785 20.5996C116.217 21.2484 115.812 21.9783 115.568 22.7893C115.325 23.6814 115.163 24.5735 115.163 25.6278C115.163 26.6821 115.325 27.5742 115.568 28.4663C115.812 29.3584 116.217 30.0883 116.785 30.656C117.353 31.3049 118.001 31.7104 118.731 32.0348C119.461 32.3592 120.353 32.5214 121.245 32.5214C122.462 32.5214 123.597 32.2781 124.489 31.7915C125.138 31.4671 125.706 30.9804 126.193 30.4938C126.355 30.2505 126.436 30.0072 126.436 29.7639C126.436 29.4395 126.355 29.1962 126.111 28.9529L125.706 28.5474C125.463 28.3041 125.219 28.223 124.895 28.223C124.571 28.223 124.246 28.3852 124.084 28.6285C123.841 28.8718 123.597 29.1151 123.273 29.2773C122.786 29.6017 122.219 29.7639 121.489 29.7639C120.516 29.7639 119.786 29.4395 119.218 28.9529C118.812 28.5474 118.65 27.8175 118.488 27.2498V27.1687C118.65 26.7632 118.894 26.601 119.137 26.601ZM118.569 24.168C118.569 23.7625 118.65 23.4381 118.731 23.0326C118.894 22.6271 119.056 22.3838 119.299 22.0594C119.542 21.8161 119.786 21.5728 120.191 21.4917C120.516 21.3295 120.921 21.2484 121.327 21.2484C122.138 21.2484 122.705 21.4917 123.192 22.0594C123.597 22.546 123.841 23.2759 123.841 24.168H118.569Z" fill="#041E42"/>
</svg>
