<svg width="276" height="220" viewBox="0 0 276 220" fill="none" xmlns="http://www.w3.org/2000/svg">
<path d="M58.9084 15.1124C60.4586 11.2368 59.4252 6.58615 56.5831 5.03593C54.2578 4.00244 51.4157 5.03593 49.0904 7.10289V6.84452C47.5401 2.19385 43.6646 -0.648221 40.3058 0.12689C37.2053 1.16037 35.6551 4.26082 36.1718 8.39474C35.9135 8.39474 35.6551 8.39474 35.1384 8.39474C31.7795 8.39474 29.4542 11.2368 29.4542 14.0789C29.4542 14.3373 29.4542 14.5956 29.4542 15.3707C12.4018 21.0549 0 37.3322 0 56.71C0 81.2552 19.6361 100.891 44.1813 100.891C68.7265 100.891 88.3626 81.2552 88.3626 56.71C88.3626 37.5906 76.2192 21.3133 58.9084 15.1124Z" fill="#FFE3A8"/>
<circle cx="168.664" cy="24.8788" r="16.5357" fill="#83DDD2"/>
<path d="M244.16 129.054C248.811 137.838 251.394 147.398 251.394 157.991C251.394 192.096 223.49 220 189.385 220C164.582 220 143.137 205.273 133.061 184.087C124.018 192.613 111.874 197.78 98.1807 197.78C70.0183 197.78 47.2818 175.044 47.2818 146.881C47.2818 145.589 47.2818 144.814 47.2818 143.522C36.4302 129.054 28.9375 110.709 28.9375 90.2981C28.9375 43.0164 67.4346 5.03592 114.458 5.03592C153.472 5.03592 186.027 30.873 196.361 66.2697C203.854 53.8679 217.548 45.3417 233.05 45.3417C256.562 45.3417 275.681 64.4611 275.681 87.9728C275.939 107.609 262.246 124.145 244.16 129.054Z" fill="#D9F4F5"/>
<path d="M207.213 107.092C209.022 102.183 207.988 97.2741 204.371 95.2071C201.787 93.6569 198.17 94.6904 195.328 97.0157V96.7573C193.519 91.3316 189.127 87.7144 184.735 88.7479C181.118 89.7813 179.051 93.9153 179.567 98.3076C179.051 98.3076 178.792 98.3076 178.275 98.3076C174.4 98.3076 171.299 101.408 171.299 105.284C171.299 105.8 171.299 106.317 171.558 106.575C150.888 113.81 136.161 133.188 136.161 156.183C136.161 185.378 159.931 208.89 189.127 208.89C218.323 208.89 242.093 185.378 242.093 156.183C242.093 133.704 227.624 114.327 207.213 107.092Z" fill="#FFE3A8"/>
<path d="M168.199 149.982C170.783 149.982 173.108 147.915 173.108 145.073C173.108 142.489 171.041 140.164 168.199 140.164C165.357 140.164 163.29 142.231 163.29 145.073C163.29 147.915 165.357 149.982 168.199 149.982Z" fill="#FDAA6B"/>
<path d="M211.089 149.982C213.672 149.982 215.998 147.915 215.998 145.073C215.998 142.489 213.931 140.164 211.089 140.164C208.246 140.164 206.18 142.231 206.18 145.073C206.438 147.915 208.505 149.982 211.089 149.982Z" fill="#FDAA6B"/>
<path d="M197.653 146.106L189.385 160.058L181.376 146.365H197.653V146.106Z" fill="#FDAA6B"/>
<path d="M26.0954 51.2842C28.1624 51.2842 29.9709 49.4756 29.9709 47.4087C29.9709 45.3417 28.1624 43.5331 26.0954 43.5331C24.0284 43.5331 22.2198 45.3417 22.2198 47.4087C21.9615 49.4756 23.7701 51.2842 26.0954 51.2842Z" fill="#FDAA6B"/>
<path d="M62.2673 51.2842C64.3342 51.2842 66.1428 49.4756 66.1428 47.4087C66.1428 45.3417 64.3342 43.5331 62.2673 43.5331C60.2003 43.5331 58.3917 45.3417 58.3917 47.4087C58.3917 49.4756 60.2003 51.2842 62.2673 51.2842Z" fill="#FDAA6B"/>
<path d="M50.899 47.9254L44.1813 59.8104L37.4637 47.9254H50.899Z" fill="#FDAA6B"/>
</svg>
