<svg width="248" height="220" viewBox="0 0 248 220" fill="none" xmlns="http://www.w3.org/2000/svg">
<path d="M216.749 108.644C215.426 109.702 214.633 111.025 213.839 112.612C210.93 117.902 205.111 120.812 199.027 119.754C186.067 117.373 172.048 121.341 162.261 131.656C147.978 146.997 147.714 171.067 161.997 186.408C177.603 203.336 203.788 203.601 219.923 187.731C229.709 177.944 233.413 164.19 231.032 151.494C229.974 145.675 232.884 139.856 238.174 136.946C239.496 136.153 240.819 135.095 242.141 134.037C249.283 126.895 249.018 114.993 241.348 108.115C234.206 102.032 223.361 102.296 216.749 108.644Z" fill="#83DDD2"/>
<path d="M228.387 91.1873C228.387 52.8344 197.176 21.6231 158.823 21.6231C124.438 21.6231 96.1358 46.4863 90.3167 79.0202C67.305 84.0457 50.3768 104.412 50.3768 129.011C50.3768 157.313 73.3885 180.06 101.426 180.06C102.484 180.06 103.542 180.06 104.6 180.06C104.6 181.118 104.335 182.441 104.335 183.499C104.335 203.601 120.734 220 140.837 220C160.939 220 177.338 203.601 177.338 183.499C177.338 174.77 174.164 166.57 168.874 160.222C202.73 155.197 228.387 126.366 228.387 91.1873Z" fill="#D9F4F5"/>
<path d="M233.452 56.3173L234.774 59.2268C235.568 60.8138 237.155 61.8718 238.742 62.1363L241.916 62.6653C246.412 63.1943 247.999 68.7489 244.825 71.9229L242.974 74.0389C241.651 75.3615 241.122 76.9485 241.387 78.8L241.916 81.974C242.709 86.4706 237.948 89.6446 234.245 87.5286L231.336 85.9416C229.749 85.1481 227.897 85.1481 226.31 85.9416L223.401 87.5286C219.433 89.6446 214.937 86.2061 215.73 81.974L216.259 78.8C216.524 76.9485 215.995 75.3615 214.672 74.0389L212.292 71.6584C209.118 68.4844 210.969 63.1943 215.201 62.4008L218.375 61.8718C220.227 61.6073 221.549 60.5493 222.343 58.9623L223.665 56.0528C225.781 52.3497 231.6 52.3497 233.452 56.3173Z" fill="#FFE3A8"/>
<path d="M75.7691 9.72047L80.5301 19.2426C83.1751 24.5326 88.2007 27.9711 93.7552 29.0292L104.335 30.6162C118.883 32.7322 124.702 50.4539 114.122 60.7695L106.451 68.1755C102.219 72.1431 100.368 78.2266 101.426 83.7812L103.277 94.3613C105.658 108.909 90.5812 119.754 77.6206 113.141L68.0985 108.38C63.0729 105.735 56.7249 105.735 51.6993 108.38L42.1772 113.405C29.2166 120.283 14.14 109.173 16.5205 94.6258L18.372 84.0457C19.43 78.2266 17.5785 72.4076 13.3465 68.44L5.41138 60.7695C-5.16872 50.4539 0.650335 32.7322 15.198 30.6162L25.7781 29.0292C31.5971 28.2356 36.6227 24.5326 39.0032 19.2426L43.7642 9.72047C50.3768 -3.24016 69.1565 -3.24016 75.7691 9.72047Z" fill="#FFE3A8"/>
</svg>
