<svg width="247" height="220" viewBox="0 0 247 220" fill="none" xmlns="http://www.w3.org/2000/svg">
<path d="M246.923 20.3319C246.923 9.06363 237.369 0 225.366 0C217.527 0 210.913 3.91941 206.994 9.55356C202.829 8.32874 198.42 7.59385 194.011 7.59385C189.601 7.59385 184.947 8.32874 181.028 9.55356C177.108 3.67445 170.494 0 162.656 0C150.652 0 141.099 9.06363 141.099 20.3319C141.099 27.4359 145.018 33.5599 150.652 37.2344C152.367 38.2142 153.347 40.1739 153.102 42.1337C152.857 43.6034 152.857 45.3182 152.857 47.0329C152.857 68.8346 171.229 86.472 194.011 86.472C216.792 86.472 235.165 68.8346 235.165 47.0329C235.165 45.3182 235.165 43.8484 234.92 42.1337C234.675 40.1739 235.655 38.2142 237.369 37.2344C243.003 33.5599 246.923 27.4359 246.923 20.3319Z" fill="#FFE3A8"/>
<circle cx="158.654" cy="130.731" r="43.5769" fill="#83DDD2"/>
<path d="M196.95 87.2069C195.971 48.7477 164.615 17.1475 126.156 16.1676C97.4954 15.4327 72.5091 31.1104 60.016 54.6268C54.6268 64.6703 46.788 72.7541 37.2344 79.1231C22.5367 89.1666 12.7381 105.824 12.7381 124.931C12.7381 155.552 37.4794 180.293 68.0998 180.293C68.8347 180.293 69.8145 180.293 70.5494 180.293C70.5494 181.273 70.5494 182.008 70.5494 182.987C70.5494 203.809 87.9418 220.712 109.009 219.977C128.116 219.242 143.793 203.809 144.528 184.702C144.773 181.763 144.528 179.068 144.038 176.373C142.324 167.555 147.223 158.491 155.307 154.572C180.293 142.814 197.44 116.847 196.95 87.2069Z" fill="#D9F4F5"/>
<path d="M24.4963 71.2843C11.0233 71.2843 0 60.2609 0 46.788C0 33.315 11.0233 22.2917 24.4963 22.2917C37.9693 22.2917 48.9926 33.315 48.9926 46.788C48.9926 60.2609 37.9693 71.2843 24.4963 71.2843Z" fill="#FFE3A8"/>
<path d="M192.786 63.2005C200.227 63.2005 206.259 59.2522 206.259 54.3818C206.259 49.5114 200.227 45.5631 192.786 45.5631C185.345 45.5631 179.313 49.5114 179.313 54.3818C179.313 59.2522 185.345 63.2005 192.786 63.2005Z" fill="#FDAA6B"/>
<path d="M177.353 45.0732C180.6 45.0732 183.232 42.441 183.232 39.1941C183.232 35.9471 180.6 33.315 177.353 33.315C174.106 33.315 171.474 35.9471 171.474 39.1941C171.474 42.441 174.106 45.0732 177.353 45.0732Z" fill="#FDAA6B"/>
<path d="M208.464 45.0732C211.711 45.0732 214.343 42.441 214.343 39.1941C214.343 35.9471 211.711 33.315 208.464 33.315C205.217 33.315 202.585 35.9471 202.585 39.1941C202.585 42.441 205.217 45.0732 208.464 45.0732Z" fill="#FDAA6B"/>
</svg>
