<svg width="525" height="510" viewBox="0 0 525 510" fill="none" xmlns="http://www.w3.org/2000/svg">
<path d="M476.227 278.633L476.227 278.633C473.392 336.755 466.927 380.244 455.084 411.318C443.249 442.372 426.062 460.983 401.786 469.443C377.49 477.909 346.969 474.349 317.044 461.926C287.129 449.506 257.871 428.252 236.13 401.429C214.307 374.504 189.465 351.749 165.683 335.057C141.911 318.374 119.155 307.721 101.503 305.053L101.501 305.053C70.7437 300.519 48.5124 290.23 32.8286 276.53C17.1462 262.83 7.97926 245.693 3.39319 227.408L3.39307 227.407C-10.8739 170.75 29.609 123.403 81.8575 89.0018C134.072 54.6233 197.793 33.348 229.434 28.8142L229.434 28.8141C281.101 21.345 322.647 26.9514 355.827 41.1056C389.007 55.2594 413.854 77.9741 432.103 104.772C468.612 158.385 478.704 228.329 476.227 278.633Z" stroke="#FFD680" stroke-linecap="round"/>
<path d="M56.0324 87.8816L58.4223 92.6635C59.7499 95.3201 62.2725 97.0469 65.0606 97.5783L70.3713 98.3753C77.6736 99.4379 80.5944 108.338 75.2837 113.518L71.4335 117.237C69.3092 119.23 68.3798 122.285 68.9109 125.074L69.8403 130.388C71.0352 137.693 63.4674 143.139 56.9618 139.819L52.1822 137.428C49.6596 136.099 46.4732 136.099 43.9506 137.428L39.171 139.952C32.6653 143.405 25.0976 137.826 26.2925 130.52L27.2219 125.207C27.7529 122.285 26.8236 119.363 24.6993 117.37L20.7163 113.518C15.4055 108.338 18.3264 99.4379 25.6287 98.3753L30.9394 97.5783C33.8602 97.1798 36.3828 95.3201 37.5777 92.6635L39.9676 87.8816C43.2868 81.3728 52.7132 81.3728 56.0324 87.8816Z" fill="#DEF9F9"/>
<path d="M210.599 38.8842L190.843 76.9748C179.867 98.1362 159.014 111.891 135.965 116.123L92.0636 122.472C31.6985 130.936 7.55255 201.827 51.4544 243.092L83.2832 272.718C100.844 288.589 108.527 312.925 104.137 335.144L96.4537 377.467C86.5758 435.661 149.136 479.042 202.916 452.59L242.427 433.545C263.281 422.964 289.622 422.964 310.475 433.545L349.987 453.648C403.767 481.158 466.327 436.719 456.449 378.525L448.766 336.202C444.376 312.925 452.059 289.647 469.619 273.776L502.546 243.092C546.447 201.827 522.301 130.936 461.936 122.472L418.035 116.123C393.889 112.949 373.035 98.1362 363.157 76.9748L343.402 38.8842C315.963 -12.9614 238.037 -12.9614 210.599 38.8842Z" fill="#FFE5E5"/>
<path d="M346.178 374.597L350.4 383.019C352.745 387.698 357.2 390.74 362.125 391.675L371.506 393.079C384.404 394.951 389.563 410.625 380.183 419.749L373.382 426.299C369.63 429.808 367.988 435.189 368.926 440.102L370.568 449.46C372.678 462.327 359.311 471.919 347.82 466.07L339.377 461.859C334.922 459.519 329.293 459.519 324.838 461.859L316.395 466.304C304.904 472.386 291.537 462.561 293.647 449.694L295.289 440.336C296.227 435.189 294.585 430.042 290.833 426.533L283.798 419.749C274.417 410.625 279.577 394.951 292.475 393.079L301.855 391.675C307.015 390.974 311.47 387.698 313.581 383.019L317.802 374.597C323.665 363.134 340.316 363.134 346.178 374.597Z" fill="#90E6E2"/>
<path d="M380.984 19.3566L379.789 21.6651C379.125 22.9476 377.864 23.7813 376.47 24.0378L373.814 24.4225C370.163 24.9355 368.703 29.232 371.358 31.7329L373.283 33.5284C374.345 34.4903 374.81 35.9651 374.545 37.3118L374.08 39.8768C373.482 43.4037 377.266 46.0329 380.519 44.4297L382.909 43.2755C384.17 42.6342 385.763 42.6342 387.025 43.2755L389.415 44.4938C392.667 46.1611 396.451 43.4678 395.854 39.9409L395.389 37.3759C395.124 35.9651 395.588 34.5544 396.65 33.5925L398.642 31.7329C401.297 29.232 399.837 24.9355 396.186 24.4225L393.53 24.0378C392.07 23.8454 390.809 22.9476 390.211 21.6651L389.016 19.3566C387.357 16.2145 382.643 16.2145 380.984 19.3566Z" fill="#FFD680"/>
<path d="M249.747 148.226C235.13 152.809 217.872 153.337 217.872 153.337L202.374 160.564L201.493 159.154C201.493 159.154 201.669 157.92 202.902 156.334C204.487 154.395 206.072 153.69 206.072 153.69C206.072 153.69 202.726 152.632 197.619 154.571C195.506 155.452 193.216 158.273 193.216 158.273L191.807 157.215C191.807 157.215 191.631 152.632 195.33 148.755C197.619 146.463 199.732 144.877 201.141 143.996C202.022 143.467 203.078 143.114 204.135 143.291L217.167 145.406C217.167 145.406 228.966 143.467 244.816 135.888" stroke="#041E42" stroke-miterlimit="10" stroke-linecap="round" stroke-linejoin="round"/>
<path d="M252.213 367.315C258.024 360.441 260.666 354.801 260.666 350.042C260.666 346.517 259.257 343.52 256.968 341.053C254.678 338.409 251.508 336.294 247.986 334.178C243.231 331.358 234.602 327.657 225.796 323.955C218.224 320.783 210.299 317.786 204.839 315.671C200.437 319.549 188.285 329.772 173.668 338.232C165.919 342.639 160.108 345.283 155.881 347.045C162.221 353.391 172.083 360.617 181.769 369.254C187.405 374.189 193.04 379.653 197.971 385.646L177.014 413.319C177.014 413.319 177.014 413.495 176.838 413.495L193.04 425.128L210.299 406.797C216.11 421.074 219.457 435.88 221.218 447.513C222.274 454.211 222.803 459.851 222.979 463.729C223.155 465.667 223.155 467.254 223.155 468.311C223.155 469.369 223.155 469.898 223.155 469.898C223.155 469.898 223.155 469.898 223.155 470.074H243.231V469.898C243.231 469.898 243.936 464.434 243.936 454.739C243.936 439.934 242.351 415.61 234.602 386.527C236.011 385.293 240.59 381.063 252.213 367.315Z" fill="#FFD680"/>
<path d="M169.97 262.441C169.617 264.204 169.089 265.79 168.209 266.848C167.68 267.376 167.152 267.729 166.624 267.905C166.271 267.905 166.095 268.081 165.743 268.081C164.686 268.081 163.63 267.553 162.573 266.671C161.516 265.79 160.636 264.733 159.579 263.322C157.642 260.502 155.881 256.801 154.648 252.394C153.592 248.517 153.063 244.815 153.063 241.819C153.063 238.47 153.592 235.826 155 234.064C155.529 233.535 156.057 233.182 156.762 232.83C157.114 232.83 157.29 232.653 157.642 232.653C158.699 232.653 159.579 233.006 160.46 233.711C164.334 232.477 167.856 231.067 170.674 229.833C171.026 229.305 171.202 228.952 171.555 228.6C171.379 228.6 171.202 228.423 171.026 228.423C169.618 228.247 168.209 227.542 166.624 226.484C164.686 225.251 162.749 223.488 160.988 221.373C159.579 219.787 158.346 218.2 157.466 216.614C156.938 215.909 156.585 215.028 156.409 214.323C156.233 213.441 155.881 212.384 155.881 211.679C154.472 214.851 152.359 217.319 149.717 219.61C147.075 221.902 143.729 223.841 140.207 225.956L139.151 223.841C138.974 223.488 137.566 223.488 137.566 223.488C135.804 223.664 129.641 223.841 121.187 227.542C110.445 232.125 108.684 234.769 108.684 234.945C108.331 235.297 108.331 235.65 108.684 236.002L114.319 243.405C113.439 246.049 113.086 248.869 113.086 251.866C113.086 259.445 115.904 268.081 120.131 278.304C124.181 288.527 129.641 300.337 135.1 314.261C138.446 322.722 140.736 330.653 142.321 336.47C143.025 339.466 143.553 341.757 144.082 343.344C144.258 344.225 144.434 344.754 144.434 345.283C144.61 345.635 144.61 345.988 144.61 345.988C144.61 346.34 144.962 346.516 145.138 346.693C145.314 346.693 145.314 346.693 145.491 346.693C145.667 346.693 148.132 346.693 153.063 345.635C155.881 344.93 161.34 343.168 169.441 339.114C181.241 333.121 206.072 316.2 206.072 316.2C206.248 315.847 199.028 310.207 185.291 291.171C177.19 280.948 171.907 267.905 169.97 262.441Z" fill="#00B7BD"/>
<path d="M134.396 170.787C133.515 165.676 130.521 163.913 127.527 163.56C125.414 163.737 123.653 164.442 123.653 164.442C123.653 164.442 123.477 164.089 123.301 163.56C121.54 163.913 120.307 164.442 120.307 164.442C120.307 164.442 119.074 159.507 114.319 158.625C114.143 158.625 114.143 158.625 113.967 158.625C106.218 160.212 103.4 168.496 101.815 171.845C100.23 175.194 77.8645 186.298 96.1799 206.92C101.992 213.618 106.746 216.614 109.564 218.024C110.621 216.614 112.206 213.97 112.03 210.622C111.854 205.686 109.036 209.211 104.985 205.157C102.344 202.514 102.344 197.755 106.042 196.345C107.451 195.816 108.508 195.992 109.564 196.345C110.093 196.168 110.621 196.168 111.149 196.168L106.923 184.535C106.923 184.535 108.331 184.535 110.269 184.711V184.535C110.269 184.535 111.501 184.535 113.439 184.711C116.256 184.711 119.602 184.535 121.892 183.83C126.999 182.42 135.628 178.366 134.396 170.787Z" fill="#041E42"/>
<path d="M246.225 205.51C236.011 211.503 225.797 214.675 218.4 216.438C214.702 217.319 211.532 217.848 209.242 218.024C208.186 218.201 207.305 218.201 206.777 218.201C206.953 217.143 207.129 215.028 207.129 212.031C207.129 204.276 205.72 190.704 198.323 174.488C194.097 165.323 186.172 153.161 185.291 155.1C182.121 161.622 180.36 168.319 180.36 174.665C180.36 178.895 181.065 182.773 182.65 186.474L177.895 189.647C177.543 189.823 183.178 187.708 183.178 187.708C183.706 188.942 184.411 189.999 185.291 191.057C183.706 192.291 181.769 193.524 180.008 194.758C178.951 194.053 178.071 193.524 177.014 192.643C170.498 187.179 167.328 178.719 167.328 169.377C167.328 157.744 172.259 144.701 181.769 133.42C182.121 132.891 183.002 132.01 183.882 131.129C184.411 131.834 185.115 132.891 186.172 133.949C187.933 135.712 190.575 137.474 194.097 137.474C195.858 137.474 197.795 136.945 199.908 135.888C201.67 135.006 203.078 133.773 203.783 132.363C204.487 131.129 204.839 129.719 204.839 128.309C204.839 125.136 203.255 122.492 202.374 121.082C203.431 120.906 205.016 120.73 206.777 120.73C208.009 120.73 209.418 120.73 211.003 121.082C214.702 121.611 219.28 121.787 223.507 121.787C226.501 121.787 229.319 121.611 231.432 121.435C239.357 120.377 245.697 118.262 247.458 117.733L251.156 123.197C249.571 124.255 244.464 127.604 233.369 130.6C227.558 132.186 218.752 133.949 218.752 133.949C221.922 138.003 224.74 142.586 227.382 147.168C231.784 154.747 235.835 162.679 240.942 169.201C253.093 184.359 262.78 189.999 265.597 191.409C264.012 193.172 258.729 198.107 246.225 205.51Z" fill="white"/>
<path d="M178.775 134.301C179.304 133.773 180.184 132.715 181.417 131.481C181.417 131.305 181.593 131.129 181.769 131.129C181.945 130.952 182.121 130.776 182.297 130.6C183.53 125.841 183.178 120.906 181.593 116.323C181.593 116.147 181.417 115.971 181.417 115.794C180.536 116.147 179.304 116.323 178.071 116.323C177.19 116.323 176.134 116.147 175.077 115.794C174.196 115.442 173.492 114.737 172.964 113.855C172.435 112.974 172.259 112.093 172.259 111.035C172.259 110.154 172.611 109.096 173.14 108.391C174.372 106.981 175.957 106.629 177.014 106.453C176.838 105.395 176.662 103.809 176.662 101.87C176.662 99.5785 176.838 96.9346 177.719 93.9382C178.423 91.2943 179.656 88.4742 180.889 86.1828C181.065 86.1828 181.769 86.1828 182.474 86.0066C183.354 84.4202 184.235 83.3627 184.235 83.3627C184.411 83.0102 184.939 83.0102 185.115 83.1864C185.467 83.3627 185.467 83.8915 185.291 84.0677C185.291 84.0677 185.291 84.0677 185.115 84.244C184.939 84.4202 184.763 84.5965 184.587 84.949C184.235 85.3015 183.882 86.0066 183.53 86.5353C184.058 86.5353 184.587 86.3591 185.467 86.3591C186.172 86.3591 186.876 86.3591 187.581 86.5353H187.757C187.933 86.5353 188.109 86.5353 188.285 86.7116C188.461 86.7116 188.461 86.7116 188.637 86.7116C189.518 86.8879 190.398 87.2404 191.455 87.5929C191.983 87.7691 192.512 88.1217 192.864 88.2979C192.688 87.0641 192.512 85.1253 191.807 83.8915C190.751 81.7764 189.166 79.485 185.643 78.2512C184.587 77.8987 183.354 77.7224 181.945 77.7224C181.417 77.7224 180.889 77.7224 180.36 77.7224C180.184 77.7224 180.184 77.7224 180.008 77.7224C175.605 78.2512 170.146 80.5425 165.743 84.949C160.636 90.0605 156.762 97.9921 156.585 109.625V109.978C156.585 118.262 159.403 123.373 161.516 126.194C162.045 126.546 162.221 126.899 162.397 127.075C162.573 127.251 162.749 127.427 162.749 127.604C163.101 127.956 163.454 128.309 163.454 128.309C163.63 128.485 163.63 128.661 163.63 128.837C163.63 129.014 163.63 129.19 163.454 129.366L163.278 129.542L162.925 129.895C162.573 130.071 162.221 130.6 161.693 130.952C160.812 132.01 159.403 133.42 158.17 135.183C155.529 138.708 153.063 143.819 153.063 149.46C153.063 149.812 153.063 150.165 153.063 150.517C153.239 153.69 153.944 156.157 155 158.096C155.881 159.154 156.938 159.859 157.994 160.388C160.636 161.798 163.278 162.15 164.334 162.15C166.624 153.337 171.203 143.291 178.775 134.301Z" fill="#041E42"/>
<path d="M401.378 125.312C400.673 124.255 399.616 123.021 397.679 121.611C393.981 118.791 388.698 117.557 387.465 117.204C387.289 117.204 387.113 117.204 387.113 117.204C386.937 117.204 386.76 117.028 386.584 117.028C386.584 117.028 383.062 113.503 371.615 100.283C365.803 93.5857 360.872 87.9454 355.413 83.7152C349.954 79.3087 344.142 76.1361 336.745 74.5497C333.223 73.8447 329.877 73.4922 326.883 73.4922C319.311 73.4922 313.675 75.2548 311.386 76.1361L312.971 78.0749L313.147 78.2512C313.147 78.4274 314.732 81.4238 314.908 89.3555V89.708C314.908 92.5281 314.379 95.5245 313.499 97.9921C312.618 100.46 311.21 102.575 309.625 103.985C308.568 104.866 307.159 105.395 305.75 105.395C305.574 105.395 305.222 105.395 305.046 105.395C303.461 105.219 302.228 103.985 301.347 102.751C300.467 101.517 299.939 99.7547 299.41 98.3446C298.706 95.7008 298.354 93.2331 298.354 92.5281L298.001 92.1756C297.825 92.3518 297.473 92.7044 297.121 92.8806C296.064 93.7619 294.479 94.9957 292.718 96.5821C289.196 99.7547 284.441 103.985 279.686 108.391C270.352 117.381 265.773 122.14 258.553 126.722C252.565 130.424 246.049 134.125 243.936 135.183L249.219 148.755C249.571 148.578 250.276 148.402 250.98 148.226C252.565 147.697 255.031 146.639 258.024 145.229C263.836 142.233 271.585 137.474 279.686 129.542C286.202 123.197 291.661 120.729 295.888 120.729C298.706 120.729 300.819 121.963 302.052 123.726C303.285 125.665 303.813 126.722 304.517 127.427C305.046 128.132 305.574 128.661 306.807 129.895C308.04 131.129 309.096 131.481 309.096 131.481C309.448 131.834 309.977 132.186 310.681 132.539C308.216 137.122 305.222 141.704 301.7 145.934C300.819 146.816 299.762 148.226 299.058 148.931C298.177 149.812 297.473 150.693 296.592 151.575L306.455 160.211C315.26 153.337 322.481 145.406 328.116 136.945C328.116 136.945 329.349 136.769 333.399 140.294C337.274 143.819 343.261 149.107 347.312 153.69C349.601 156.157 351.186 158.273 351.891 159.859C352.947 162.326 354.004 164.089 355.061 165.499C356.294 166.733 357.35 167.438 358.759 167.438C359.287 167.438 359.64 167.438 360.168 167.262C360.872 167.085 362.105 166.204 363.514 164.618C364.923 163.208 366.332 161.269 367.917 159.154C371.087 154.924 374.433 150.165 377.779 146.816C380.244 144.348 383.943 141.88 387.641 139.589C391.339 137.298 395.214 135.183 398.031 133.244C399.793 132.01 401.201 130.776 401.73 130.071C402.082 129.366 402.61 128.661 402.61 127.78C402.258 127.251 402.082 126.37 401.378 125.312Z" fill="#FFD680"/>
<path d="M430.612 235.297L454.21 230.186L452.625 213.265L419.517 216.79C410.887 200.751 406.837 188.589 406.837 188.589C406.837 188.413 406.837 188.06 407.013 187.884L407.189 187.708C407.365 187.531 407.541 187.179 407.718 186.826C408.07 185.945 408.774 184.887 409.302 183.301C410.359 180.305 411.592 175.898 411.592 170.434C411.592 167.085 411.24 163.384 410.007 159.33C406.661 147.344 397.855 139.765 395.742 138.003C394.333 138.884 392.748 139.765 391.163 140.823C386.584 143.467 381.477 146.639 378.659 149.459C376.546 151.575 374.081 154.747 371.791 157.92C369.502 161.093 367.212 164.089 365.275 166.204C363.866 167.614 362.633 168.672 361.401 169.2C361.048 170.434 355.061 189.47 354.004 195.639C351.715 207.801 349.249 221.902 349.249 228.776C349.249 228.952 349.249 229.305 349.249 229.481C349.249 233.887 349.777 237.765 351.186 240.761C352.595 243.758 354.885 246.049 358.759 247.459C361.225 248.341 364.571 248.869 368.797 248.869C371.615 248.869 374.785 248.693 378.483 248.164C390.459 246.578 398.031 245.344 402.434 244.463C436.071 280.772 468.651 297.164 473.582 299.455L482.564 284.826C477.281 281.477 449.103 262.617 430.612 235.297Z" fill="#DDDDDD"/>
<path d="M272.289 103.28C271.409 101.87 271.585 100.107 271.585 98.6971C271.585 95.1719 272.642 91.6467 272.642 88.1216C272.642 87.064 272.465 86.0065 272.289 84.9489C271.585 81.9525 269.824 79.4849 267.71 77.1935C265.597 74.9022 263.308 72.9633 261.371 70.672C258.377 67.3231 254.854 61.6828 254.854 54.985C254.854 52.8699 255.207 50.5785 256.087 48.1109C258.377 42.2943 261.723 38.0641 265.949 35.244C270.176 32.4239 275.107 31.1901 280.038 31.1901C289.724 31.1901 299.762 36.1253 305.222 44.5857C308.568 49.6972 310.857 53.0461 313.323 55.3375C314.556 56.395 315.964 57.2763 317.373 57.8051C318.958 58.3339 320.543 58.5101 322.657 58.5101C323.537 58.5101 324.418 58.5101 325.474 58.3339C332.343 57.8051 337.098 55.8663 342.029 55.8663C344.494 55.8663 347.136 56.395 350.13 57.8051C352.595 59.0389 354.18 60.6252 355.061 62.7403C356.117 64.8554 356.47 67.3231 356.47 69.9669C356.47 74.9022 348.897 78.4273 333.575 74.1971C330.229 73.3158 326.883 73.1396 323.889 73.1396C320.367 73.1396 317.197 73.4921 314.732 74.0209C310.505 74.9022 306.102 73.3158 303.285 69.9669L300.291 66.2655C301.347 65.208 302.052 63.9741 302.58 62.5641C303.108 61.154 303.285 59.9202 303.285 58.5101C303.285 56.9238 302.932 55.3375 302.228 54.1037C301.523 52.8699 300.291 51.8123 298.882 51.2835C298.177 50.931 297.473 50.931 296.769 50.931C293.951 50.931 291.133 52.8699 289.548 55.69C289.372 55.8663 288.844 56.0425 288.139 56.2188C285.85 56.9238 281.271 57.6288 275.107 57.8051C274.05 57.8051 272.818 57.8051 271.937 57.8051C267.006 57.8051 264.012 57.4526 262.251 56.9238C262.251 56.9238 262.075 56.9238 261.899 56.9238C261.194 56.7475 260.842 56.5713 260.666 56.5713L260.314 56.395C259.962 56.2188 259.433 56.395 259.257 56.7475C259.081 57.1001 259.081 57.6288 259.609 57.9814C259.609 57.9814 259.786 58.1576 259.962 58.1576C260.138 58.1576 260.666 58.3339 261.194 58.5101C261.899 60.449 264.54 67.6756 269.824 74.9022C273.346 79.8374 276.164 83.1863 278.629 85.3014C281.095 87.4165 283.208 88.2978 285.145 88.2978C285.497 88.2978 285.85 88.2978 286.026 88.2978C287.082 88.1216 288.315 87.5928 289.372 86.8878C290.076 86.5352 290.605 86.0065 291.309 85.4777L296.769 92.528C294.479 94.8194 278.101 112.974 272.289 103.28Z" fill="#041E42"/>
<path d="M249.395 124.078C251.332 123.021 252.565 122.316 252.565 122.316L262.956 120.729V119.672C262.956 119.672 262.427 118.967 261.194 118.79C259.786 118.438 258.729 118.438 258.729 118.438C258.729 118.438 260.138 116.675 263.308 115.97C264.717 115.618 266.83 116.323 266.83 116.323L267.182 115.265C267.182 115.265 265.597 112.798 262.427 112.269C260.49 111.916 258.905 111.74 257.848 111.74C257.144 111.74 256.616 111.916 256.087 112.445L250.1 117.909C250.1 117.909 248.691 118.614 246.225 119.319M185.115 128.661C183.354 130.424 180.184 133.596 179.304 134.83C161.869 155.452 159.932 182.42 174.725 195.11C175.781 195.992 177.014 196.873 178.071 197.578C180.008 196.168 182.297 194.582 184.235 193.172C176.486 182.772 177.719 166.028 187.229 151.575M203.959 204.276C202.902 196.873 200.789 187.355 195.858 176.603C190.927 166.38 183.53 157.92 183.53 157.92M249.571 181.362C258.729 190.351 265.069 192.995 265.069 192.995C265.069 192.995 260.666 198.636 244.816 207.801C232.489 215.028 220.161 218.2 212.412 219.61M210.651 128.132C223.683 138.884 229.495 157.92 239.709 170.434C240.237 171.139 240.766 171.668 241.118 172.197M198.852 122.668C200.613 122.139 204.135 121.611 209.242 122.139C215.406 123.021 224.916 123.021 229.495 122.492C238.829 121.258 245.873 118.614 245.873 118.614L250.276 125.136C250.276 125.136 245.345 129.19 231.784 133.067C225.973 134.654 221.57 135.535 218.576 136.064M258.729 188.589C251.508 196.168 238.829 205.334 217.343 209.387M224.212 217.143C232.489 241.819 200.085 250.808 200.085 250.808C200.085 250.808 197.619 249.398 195.153 249.927C193.216 250.279 191.631 251.689 192.512 255.038C193.392 258.387 194.273 260.15 194.449 264.204C194.625 266.319 193.392 269.139 194.801 274.074C196.034 278.657 199.38 279.362 200.261 279.186C201.141 279.009 201.493 278.657 201.317 276.013C201.141 273.369 206.601 256.625 206.601 256.625M206.248 257.506C224.211 251.513 245.873 237.765 238.829 211.326M246.049 207.096C248.162 208.154 249.923 209.211 252.037 210.269C268.239 218.905 280.919 229.305 287.435 238.294C287.435 238.294 286.202 241.466 287.435 244.286C288.315 246.402 290.429 247.988 294.127 246.225C297.825 244.286 297.649 243.405 302.404 242.171C304.87 241.643 308.392 242.348 314.027 239.351C319.134 236.707 319.134 232.653 318.782 231.772C318.43 230.891 317.902 230.362 314.732 231.243C311.562 232.125 294.127 233.711 293.246 233.182C287.963 223.664 274.755 207.625 260.842 196.873M184.059 193.172C184.059 193.172 187.757 195.992 189.518 198.812C190.751 200.751 190.399 204.452 189.694 205.686C188.99 206.92 184.939 207.272 184.939 207.272C184.939 207.272 184.763 205.157 181.065 201.103C179.304 199.164 178.599 197.049 178.599 197.049M181.945 131.834C181.945 131.834 187.405 142.409 197.619 137.121C206.777 132.362 199.38 122.668 199.38 122.668M189.166 115.618C189.166 115.618 194.097 117.204 199.908 114.913C204.487 112.974 205.72 109.625 205.72 105.395C205.544 100.459 202.198 96.5818 202.198 96.5818C202.198 96.5818 202.55 89.884 200.965 90.589C200.437 90.7653 198.147 91.8228 197.619 91.6466C196.034 91.6466 194.449 90.0602 191.279 88.8264C186.524 86.8876 183.002 87.9451 183.002 87.9451M184.587 84.0675C184.587 84.0675 180.536 89.884 178.951 95.1718C177.014 102.398 178.599 107.862 178.599 107.862C178.599 107.862 175.957 106.452 173.492 109.272C171.907 111.035 172.964 114.736 175.253 115.441C178.775 116.675 182.65 114.913 182.65 114.913C182.65 114.913 185.82 121.611 185.82 124.607C185.82 130.247 183.178 132.539 183.178 132.539M200.437 124.254L197.971 124.078L195.33 116.147M206.072 121.963C206.072 121.963 207.305 120.2 206.953 117.909C206.248 113.15 203.431 112.621 203.431 112.621M195.33 90.9416C195.33 90.9416 196.738 81.4236 186.348 78.251C177.014 75.4308 154.648 83.1862 154.472 109.449C154.472 122.668 162.221 128.132 162.221 128.132C162.221 128.132 150.246 137.298 151.126 149.283C152.007 163.913 165.391 163.56 165.391 163.56M201.67 105.395C201.67 107.686 199.556 109.449 196.915 109.449C195.153 109.449 193.569 108.568 192.688 107.334M185.996 92.5281C184.235 93.0569 182.826 94.8195 182.121 96.9346C181.945 97.4634 181.945 97.9921 181.945 98.5209M189.166 96.2295L191.103 98.8733M181.593 188.412L176.31 191.761" stroke="#041E42" stroke-miterlimit="10" stroke-linecap="round" stroke-linejoin="round"/>
<path d="M296.769 93.0568C296.769 93.0568 287.611 100.636 278.805 109.096C270 117.557 265.773 122.139 259.081 126.193C252.389 130.424 244.64 134.654 244.64 134.654L250.1 148.931C250.1 148.931 264.541 145.229 280.038 130.247C290.076 120.553 297.473 120.906 299.762 124.607C302.052 128.485 302.052 128.308 304.341 130.6C305.574 132.01 306.807 132.362 306.807 132.362M253.622 143.819C253.622 143.819 255.911 142.762 259.257 140.999M276.164 111.564C274.403 110.33 272.466 108.215 271.409 105.219C269.119 98.3446 272.818 92.528 271.409 86.8878C270 81.2475 264.717 77.5461 260.666 72.9633C256.616 68.3806 251.508 59.5677 255.207 49.521C264.188 25.5498 294.303 28.1937 305.926 45.8195C313.323 57.1001 315.084 60.0965 325.474 59.3914C335.689 58.6864 341.5 54.6325 350.658 59.0389C360.872 63.9742 358.231 79.3087 353.476 86.5352M295.712 82.6575C295.712 82.6575 289.548 89.1791 286.026 89.7079C282.504 90.2367 278.277 87.4165 270.528 76.841C264.541 68.3806 261.899 60.0965 261.899 60.0965M285.85 72.2584C286.202 73.1397 286.378 74.021 286.378 74.9023C286.378 77.5462 284.969 79.6613 283.032 80.7188M291.485 86.359L297.648 94.2906C297.648 94.2906 298.705 105.395 303.284 105.924C307.863 106.452 311.737 99.2259 311.561 91.823C311.385 84.4202 309.976 81.7763 309.976 81.7763L298.881 68.2044C299.938 67.1468 300.995 65.913 301.523 64.3267C303.108 59.9202 301.699 55.5138 298.353 54.1037C295.359 52.8699 291.661 54.8087 289.9 58.3339C288.667 59.2152 283.384 60.449 274.93 60.6253C265.42 60.9778 261.018 59.744 260.137 59.3915M280.39 62.9166L282.152 65.3843M269.824 69.6145L271.233 71.7296M277.044 76.3121C275.635 76.3121 274.403 75.0783 274.403 73.6682C274.403 72.2582 275.635 71.5531 277.044 71.5531L272.994 65.9128M293.951 150.87L304.341 160.035M304.341 160.035C297.473 165.499 290.429 169.729 283.032 172.902C270.704 177.661 259.962 177.308 259.962 177.308L247.634 182.067C246.577 182.42 245.521 182.42 244.464 182.067C242.879 181.539 240.414 180.481 237.772 178.719C233.369 175.898 232.489 171.316 232.489 171.316L233.721 169.906C233.721 169.906 236.539 172.197 238.829 172.549C244.288 173.254 247.282 171.492 247.282 171.492C247.282 171.492 245.697 170.963 243.76 169.553C241.999 168.319 241.646 167.085 241.646 167.085L242.351 165.499L258.905 169.201C258.905 169.201 263.132 170.258 268.591 168.143C274.579 165.499 280.567 161.974 286.202 157.567C305.574 142.233 315.965 120.729 315.084 101.694M304.341 160.035C327.764 141.704 340.444 115.794 339.211 92.7044M297.473 146.992L305.75 154.218M307.863 79.1324C307.863 79.1324 319.134 73.8446 333.575 77.1935C348.016 80.3662 356.117 89.3554 367.036 101.87C377.955 114.384 381.125 117.557 381.125 117.557C381.125 117.557 387.289 118.614 391.515 121.963C397.503 126.546 396.27 129.366 395.214 131.129C392.748 135.006 378.483 140.999 372.496 146.992C366.684 152.985 359.64 165.323 355.589 166.38C351.539 167.438 348.897 164.441 346.608 158.977C344.318 153.69 325.474 137.65 325.474 137.65M354.885 166.733C354.885 166.733 355.413 195.111 386.584 232.301C426.561 279.891 468.299 298.574 468.299 298.574L478.161 282.535C478.161 282.535 445.933 262.441 425.681 232.477C409.831 208.682 402.434 186.474 402.434 186.474C402.434 186.474 410.359 174.488 405.428 157.039C401.554 142.938 390.283 135.006 390.283 135.006M355.941 176.074C355.941 176.074 348.193 217.848 348.016 231.948C347.84 246.049 351.539 255.743 373.728 252.218C395.918 248.693 399.969 246.93 399.969 246.93M428.675 236.531L455.091 230.891L453.33 212.384L416.347 216.262M453.682 214.852C453.682 214.852 462.312 214.675 466.01 213.618C469.708 212.384 474.287 209.564 477.281 206.567C480.275 203.571 482.388 203.219 484.325 204.276C486.439 205.51 486.967 211.855 488.2 217.496C489.432 223.136 491.898 225.956 493.131 228.247C498.062 237.589 493.835 245.521 492.25 244.992C490.665 244.463 489.961 240.057 486.967 236.179C478.337 225.075 470.941 224.017 470.941 224.017L454.563 227.895M475.696 286.413L482.036 289.409C482.036 289.409 486.086 286.941 490.313 287.999C493.483 288.704 496.124 290.995 494.716 296.459C493.307 301.923 491.722 302.1 491.369 308.621C491.193 312.146 493.131 316.729 490.665 325.013C488.376 332.592 482.916 333.65 481.507 333.474C480.098 333.297 479.394 332.768 479.746 328.186C480.098 323.779 479.746 312.675 478.866 308.092C477.985 303.51 477.105 301.042 476.048 299.808C474.991 298.574 469.884 295.754 469.884 295.754" stroke="#041E42" stroke-miterlimit="10" stroke-linecap="round" stroke-linejoin="round"/>
<path d="M123.477 219.434C123.477 219.434 134.396 218.376 137.566 215.204C140.736 212.031 141.088 205.862 136.685 190.704C135.276 186.121 133.515 181.891 131.93 178.542M120.835 202.161C121.364 203.042 122.068 203.923 122.948 204.628C125.414 206.567 128.584 206.92 131.05 205.686M111.501 231.243L108.684 218.905M130.345 218.2L132.987 225.251M116.08 189.999L116.961 193.348M130.345 184.535L131.402 187.708M131.578 196.697C132.635 195.287 132.458 193.348 131.05 192.29C129.641 191.233 128.056 191.761 126.999 193.172L124.533 185.064M176.31 420.193C176.31 420.193 171.907 427.595 169.089 430.239C166.271 432.883 161.516 435.527 157.29 436.585C153.063 437.642 151.83 439.228 151.83 441.696C151.83 443.987 157.114 447.865 161.34 451.567C165.567 455.444 166.8 458.969 168.209 461.261C173.844 470.074 182.826 470.426 183.178 468.84C183.53 467.254 180.008 464.257 178.247 460.027C172.964 447.16 175.605 440.11 175.605 440.11L187.052 427.772M197.267 320.254C205.544 329.419 217.167 345.459 225.973 371.369C246.049 430.063 240.59 475.538 240.59 475.538L221.746 475.714C221.746 475.714 221.218 437.818 205.896 405.034C193.744 379.124 164.334 362.027 151.83 348.808C150.774 347.574 149.893 346.693 149.013 345.459M199.204 318.139C210.475 322.545 236.363 332.416 245.697 338.056C258.024 345.283 264.364 353.391 249.747 370.488C235.13 387.585 231.608 390.229 231.608 390.229M208.185 409.617L189.518 429.358L174.549 418.254L196.21 389.524M226.501 475.714L225.796 482.764C225.796 482.764 221.746 484.879 220.337 489.11C219.28 492.106 219.809 495.631 225.444 497.218C230.904 498.804 231.784 497.57 237.596 500.743C240.766 502.505 243.583 506.383 252.037 508.498C259.786 510.437 263.484 506.207 264.012 505.149C264.54 503.915 264.364 503.034 260.49 500.919C256.616 498.804 247.282 492.987 243.76 489.815C240.237 486.642 238.652 484.703 238.124 483.117C237.772 481.531 237.772 475.714 237.772 475.714M168.913 259.973C168.913 259.973 171.202 272.312 180.712 289.409C188.461 303.509 200.613 316.376 200.613 316.376C200.613 316.376 192.336 326.952 177.895 334.178C152.711 346.869 139.855 346.869 139.855 346.869C139.855 346.869 137.213 331.887 130.697 314.79C117.841 281.124 104.985 259.621 110.797 243.934L104.985 236.179C104.985 236.179 108.86 231.948 114.671 229.657C120.483 227.366 134.043 225.251 134.043 225.251L135.804 228.776C135.804 228.776 132.282 235.297 126.118 236.179C117.665 237.412 116.256 241.29 116.256 241.29M153.063 212.384C150.069 219.61 143.553 223.841 135.804 228.247M164.158 161.797C165.215 167.614 164.863 173.959 164.51 180.305C163.806 193.524 159.403 206.391 153.239 215.556M168.737 228.599C173.492 219.786 176.838 209.387 177.895 197.93M167.152 232.125C168.032 230.891 168.561 230.01 169.265 228.776M155.705 209.916C150.422 211.855 153.063 216.79 157.466 222.078C161.869 227.366 167.152 230.186 169.265 228.423M156.233 233.887C148.837 235.826 141.264 237.412 136.509 237.941M160.812 263.675C163.63 262.617 166.271 261.207 169.089 259.973C201.493 243.581 220.513 215.204 221.746 189.294C221.746 187.355 221.746 185.945 221.746 185.945L226.149 173.43C226.501 172.373 226.501 171.315 226.149 170.258C225.444 168.671 224.388 166.204 222.45 163.56C219.456 159.154 214.878 158.448 214.878 158.448L213.293 159.859C213.293 159.859 215.758 162.502 216.11 164.794C216.991 170.258 215.406 173.254 215.406 173.254C215.406 173.254 214.878 171.668 213.293 169.729C212.06 168.143 210.827 167.79 210.827 167.79L209.242 168.495L213.645 184.887C213.645 184.887 213.821 185.769 213.997 187.002C207.481 204.452 191.983 220.139 172.083 230.186C168.032 232.301 161.693 234.416 155 236.355M160.284 234.768C159.051 233.887 157.994 233.358 156.938 233.711C153.592 234.592 152.887 242.876 155.353 252.042C157.818 261.207 162.749 267.905 166.271 267.024M166.271 267.024C168.209 266.495 169.265 263.675 169.265 259.797M166.271 267.024L148.837 272.311M111.677 197.402L106.923 184.535C106.923 184.535 116.785 185.064 121.892 183.83C126.999 182.596 135.628 178.542 134.396 170.963C132.458 159.682 120.483 164.618 120.483 164.618C120.483 164.618 118.546 157.391 110.797 158.801C103.048 160.387 100.23 168.672 98.6454 172.021C97.0604 175.369 74.6945 186.297 93.0099 206.92C102.344 217.319 108.86 218.905 108.86 218.905C108.86 218.905 112.382 215.38 112.03 210.445C111.854 205.51 109.036 209.035 104.985 204.981C102.344 202.337 102.344 197.578 106.042 196.168C109.212 194.934 111.677 197.402 111.677 197.402Z" stroke="#041E42" stroke-miterlimit="10" stroke-linecap="round" stroke-linejoin="round"/>
</svg>
