<svg width="137" height="37" viewBox="0 0 137 37" fill="none" xmlns="http://www.w3.org/2000/svg">
<path d="M60.541 27.2687C56.6715 27.2687 54.5879 25.1777 54.5879 21.2114V16.0991C54.5879 12.1254 56.6343 10.0195 60.541 10.0195H66.5462C70.4157 10.0195 72.4546 12.1254 72.4546 16.0991V21.2114C72.4546 25.1777 70.4157 27.2687 66.5462 27.2687H60.541ZM60.541 13.8742C59.1048 13.8742 58.6211 14.1718 58.6211 15.9726V21.323C58.6211 23.0866 59.1271 23.3992 60.541 23.3992H66.5462C67.9601 23.3992 68.4586 23.0866 68.4586 21.323V15.9801C68.4586 14.1718 68.0047 13.8816 66.5462 13.8816L60.541 13.8742Z" fill="#1D2025"/>
<path d="M90.5818 27.2688C90.3531 27.2811 90.1271 27.2136 89.9426 27.0779C89.758 26.9422 89.6263 26.7467 89.5698 26.5247L86.5188 16.263L83.4529 26.5098C83.3949 26.7324 83.2617 26.9281 83.0759 27.0637C82.8901 27.1993 82.6632 27.2665 82.4335 27.254H80.149C79.92 27.259 79.6958 27.189 79.5104 27.0546C79.325 26.9202 79.1886 26.7289 79.1221 26.5098L73.9949 11.1136C73.9385 10.9795 73.9151 10.8337 73.9267 10.6887C73.9384 10.5436 73.9848 10.4035 74.0619 10.2801C74.1523 10.1728 74.2669 10.0885 74.3963 10.0342C74.5257 9.97983 74.6661 9.95701 74.8061 9.9676H77.0385C77.2675 9.95391 77.4941 10.0208 77.679 10.1568C77.8638 10.2927 77.9953 10.489 78.0505 10.7117L81.2652 21.2413L84.3906 10.7043C84.4471 10.4823 84.5788 10.2868 84.7634 10.1511C84.9479 10.0154 85.1738 9.94792 85.4026 9.96016H87.635C87.8638 9.94792 88.0897 10.0154 88.2742 10.1511C88.4588 10.2868 88.5905 10.4823 88.647 10.7043L91.7501 21.2339L94.9871 10.6969C95.0423 10.4742 95.1738 10.2778 95.3586 10.1419C95.5435 10.0059 95.7701 9.93903 95.9991 9.95272H98.2315C98.3715 9.94213 98.5119 9.96494 98.6413 10.0193C98.7707 10.0736 98.8853 10.1579 98.9757 10.2653C99.0511 10.3893 99.0965 10.5293 99.1081 10.674C99.1198 10.8188 99.0973 10.9642 99.0427 11.0987L93.923 26.4801C93.8584 26.7018 93.7214 26.8955 93.534 27.0303C93.3465 27.1652 93.1194 27.2334 92.8886 27.2242L90.5818 27.2688Z" fill="#1D2025"/>
<path d="M114.707 27.269C114.487 27.2774 114.269 27.2185 114.083 27.1002C113.897 26.9819 113.751 26.8098 113.665 26.6067L112.631 24.4487H103.701L102.652 26.6067C102.56 26.8051 102.413 26.9728 102.228 27.0902C102.043 27.2075 101.829 27.2696 101.61 27.269H99.2514C99.1001 27.2798 98.9486 27.2511 98.8117 27.1859C98.6748 27.1207 98.5571 27.0212 98.4701 26.897C98.3963 26.7691 98.3574 26.6241 98.3574 26.4765C98.3574 26.3289 98.3963 26.1839 98.4701 26.0561L105.911 10.6524C106.001 10.4591 106.146 10.2963 106.327 10.1839C106.508 10.0715 106.718 10.0145 106.931 10.0199H109.409C109.621 10.015 109.83 10.0723 110.01 10.1847C110.189 10.2971 110.332 10.4597 110.421 10.6524L117.825 26.0561C117.899 26.1839 117.938 26.3289 117.938 26.4765C117.938 26.6241 117.899 26.7691 117.825 26.897C117.742 27.0162 117.63 27.1126 117.5 27.1776C117.37 27.2426 117.226 27.274 117.081 27.269H114.707ZM111.113 21.0034L108.211 14.6782L105.234 21.0034H111.113Z" fill="#1D2025"/>
<path d="M120.66 27.2693C120.531 27.2808 120.402 27.2639 120.28 27.2196C120.159 27.1753 120.049 27.1049 119.958 27.0132C119.867 26.9215 119.797 26.8109 119.754 26.6893C119.711 26.5676 119.695 26.4379 119.707 26.3093V10.9801C119.695 10.8515 119.711 10.7218 119.754 10.6002C119.797 10.4785 119.867 10.3679 119.958 10.2762C120.049 10.1845 120.159 10.1141 120.28 10.0698C120.402 10.0255 120.531 10.0086 120.66 10.0201H130.683C134.65 10.0201 136.577 12.1707 136.577 16.5909V20.7953C136.577 25.208 134.702 27.2693 130.683 27.2693H120.66ZM130.334 23.437C131.934 23.437 132.648 23.0426 132.648 20.7506V16.6132C132.648 15.2142 132.365 14.6412 132.127 14.3808C131.621 13.977 130.977 13.7897 130.334 13.8599H123.636V23.437H130.334Z" fill="#1D2025"/>
<path d="M4.96861 4.88574C3.19527 6.72368 1.79747 8.88989 0.853516 11.263L4.87931 15.1325C8.07911 18.2133 7.93028 20.0736 5.28858 22.8195L1.38185 26.8825C2.39266 29.0023 3.77648 30.9229 5.46719 32.5528L5.65322 32.724L10.4231 27.7606C16.3763 21.547 15.833 15.3335 9.85016 9.57382L4.96861 4.88574Z" fill="#DD0B15"/>
<path d="M15.1339 4.46886L11.1081 0.636543C8.78697 1.66094 6.68876 3.1297 4.93175 4.95999L4.89453 4.9972L9.76866 9.68528C15.7218 15.4524 21.98 15.7872 27.9629 9.56622L32.7402 4.60281L32.5616 4.43165C30.8712 2.79946 28.8998 1.48606 26.7425 0.554688L22.8283 4.61769C20.2015 7.3338 18.3337 7.5496 15.1339 4.46886Z" fill="#DD0B15"/>
<path d="M33.4166 32.4038C33.4166 32.4038 33.4166 32.4038 33.4538 32.4038C35.2142 30.5772 36.5997 28.4232 37.5317 26.0638L33.5505 22.2166C30.3061 19.0986 30.4251 17.2755 33.104 14.4924L37.0108 10.4294C35.9998 8.3078 34.6132 6.38672 32.918 4.75904L32.7394 4.58789L27.962 9.56618C22.0089 15.7872 22.5521 21.9933 28.5797 27.7902L33.4166 32.4038Z" fill="#DD0B15"/>
<path d="M10.4154 27.7606L5.64551 32.724L5.82409 32.8951C7.51453 34.5273 9.48591 35.8407 11.6433 36.7721L15.5575 32.7091C18.2661 29.8888 20.0223 29.7325 23.2965 32.8579L27.2702 36.6902C29.5947 35.6679 31.6957 34.1989 33.454 32.3668L28.6245 27.7159C22.6268 21.8819 16.4058 21.547 10.4154 27.7606Z" fill="#DD0B15"/>
</svg>
