<svg width="8" height="13" viewBox="0 0 8 13" fill="none" xmlns="http://www.w3.org/2000/svg">
<path d="M0.114286 0.632714C-0.09338 1.02827 -0.0134816 1.51358 0.310029 1.82169L4.09233 5.42388C4.50613 5.81797 4.50613 6.47807 4.09233 6.87216L0.310029 10.4744C-0.0134821 10.7825 -0.0933795 11.2678 0.114286 11.6633L0.165477 11.7608C0.474161 12.3488 1.25965 12.4781 1.74053 12.0201L7.14591 6.87216C7.5597 6.47807 7.5597 5.81797 7.14591 5.42388L1.74053 0.275903C1.25965 -0.182079 0.47416 -0.0527617 0.165476 0.535208L0.114286 0.632714Z" fill="#222222"/>
<path d="M1.39551 0.637695C1.15508 0.409009 0.762736 0.4738 0.608398 0.767578L0.556641 0.865234C0.452955 1.06297 0.493579 1.30597 0.655273 1.45996L4.4375 5.06152C5.05812 5.65263 5.05808 6.64324 4.4375 7.23438L0.655273 10.8359C0.49361 10.9899 0.453027 11.2329 0.556641 11.4307L0.608398 11.5283C0.76271 11.8222 1.15506 11.887 1.39551 11.6582L6.80078 6.50977C7.00767 6.31272 7.00768 5.98318 6.80078 5.78613L1.39551 0.637695Z" stroke="#6750A4" stroke-opacity="0.08"/>
</svg>
