<svg width="8" height="13" viewBox="0 0 8 13" fill="none" xmlns="http://www.w3.org/2000/svg">
<path d="M7.34275 0.632714C7.55041 1.02827 7.47051 1.51358 7.147 1.82169L3.3647 5.42388C2.9509 5.81797 2.9509 6.47807 3.3647 6.87216L7.147 10.4744C7.47051 10.7825 7.55041 11.2678 7.34275 11.6633L7.29155 11.7608C6.98287 12.3488 6.19738 12.4781 5.7165 12.0201L0.311125 6.87216C-0.102668 6.47807 -0.102667 5.81797 0.311126 5.42388L5.7165 0.275903C6.19738 -0.182079 6.98287 -0.0527617 7.29155 0.535208L7.34275 0.632714Z" fill="#222222"/>
<path d="M6.06152 0.637695C6.30195 0.409009 6.69429 0.4738 6.84863 0.767578L6.90039 0.865234C7.00408 1.06297 6.96345 1.30597 6.80176 1.45996L3.01953 5.06152C2.39891 5.65263 2.39896 6.64324 3.01953 7.23438L6.80176 10.8359C6.96342 10.9899 7.004 11.2329 6.90039 11.4307L6.84863 11.5283C6.69432 11.8222 6.30197 11.887 6.06152 11.6582L0.65625 6.50977C0.449359 6.31272 0.449354 5.98318 0.65625 5.78613L6.06152 0.637695Z" stroke="#6750A4" stroke-opacity="0.08"/>
</svg>
