<svg width="1440" height="1320" viewBox="0 0 1440 1320" fill="none" xmlns="http://www.w3.org/2000/svg">
<line x1="61.0391" y1="1.00012" x2="61.0391" y2="1142.13" stroke="white" stroke-opacity="0.07"/>
<line x1="199.875" y1="1.00012" x2="199.875" y2="1142.13" stroke="white" stroke-opacity="0.07"/>
<line x1="338.707" y1="1.00012" x2="338.707" y2="1142.13" stroke="white" stroke-opacity="0.07"/>
<line x1="477.543" y1="1.00012" x2="477.543" y2="1142.13" stroke="white" stroke-opacity="0.07"/>
<line x1="616.375" y1="1.00012" x2="616.375" y2="1142.13" stroke="white" stroke-opacity="0.07"/>
<line x1="755.211" y1="1.00012" x2="755.211" y2="1142.13" stroke="white" stroke-opacity="0.07"/>
<line x1="894.047" y1="1.00012" x2="894.047" y2="1142.13" stroke="white" stroke-opacity="0.07"/>
<line x1="1032.88" y1="1.00012" x2="1032.88" y2="1142.13" stroke="white" stroke-opacity="0.07"/>
<line x1="1171.71" y1="1.00012" x2="1171.71" y2="1142.13" stroke="white" stroke-opacity="0.07"/>
<line x1="1310.55" y1="1.00012" x2="1310.55" y2="1142.13" stroke="white" stroke-opacity="0.07"/>
<line x1="130.457" y1="1.00012" x2="130.457" y2="1142.13" stroke="white" stroke-opacity="0.07"/>
<line x1="269.289" y1="1.00012" x2="269.289" y2="1142.13" stroke="white" stroke-opacity="0.07"/>
<line x1="408.125" y1="1.00012" x2="408.125" y2="1142.13" stroke="white" stroke-opacity="0.07"/>
<line x1="546.961" y1="1.00012" x2="546.961" y2="1142.13" stroke="white" stroke-opacity="0.07"/>
<line x1="685.793" y1="1.00012" x2="685.793" y2="1142.13" stroke="white" stroke-opacity="0.07"/>
<line x1="824.629" y1="1.00012" x2="824.629" y2="1142.13" stroke="white" stroke-opacity="0.07"/>
<line x1="963.465" y1="1.00012" x2="963.465" y2="1142.13" stroke="white" stroke-opacity="0.07"/>
<line x1="1102.3" y1="1.00012" x2="1102.3" y2="1142.13" stroke="white" stroke-opacity="0.07"/>
<line x1="1241.13" y1="1.00012" x2="1241.13" y2="1142.13" stroke="white" stroke-opacity="0.07"/>
<line x1="1379.96" y1="1.00012" x2="1379.96" y2="1142.13" stroke="white" stroke-opacity="0.07"/>
<line x1="-200.465" y1="1319.43" x2="1640.47" y2="1319.43" stroke="white" stroke-opacity="0.07"/>
<line x1="-200.465" y1="1180.59" x2="1640.47" y2="1180.59" stroke="white" stroke-opacity="0.07"/>
<line x1="-200.465" y1="1041.76" x2="1640.47" y2="1041.76" stroke="white" stroke-opacity="0.07"/>
<line x1="-200.465" y1="902.924" x2="1640.47" y2="902.924" stroke="white" stroke-opacity="0.07"/>
<line x1="-200.465" y1="764.09" x2="1640.47" y2="764.09" stroke="white" stroke-opacity="0.07"/>
<line x1="-200.465" y1="625.255" x2="1640.47" y2="625.255" stroke="white" stroke-opacity="0.07"/>
<line x1="-200.465" y1="486.421" x2="1640.47" y2="486.421" stroke="white" stroke-opacity="0.07"/>
<line x1="-200.465" y1="347.586" x2="1640.47" y2="347.586" stroke="white" stroke-opacity="0.07"/>
<line x1="-200.465" y1="208.752" x2="1640.47" y2="208.752" stroke="white" stroke-opacity="0.07"/>
<line x1="-200.465" y1="69.9172" x2="1640.47" y2="69.9173" stroke="white" stroke-opacity="0.07"/>
<line x1="-200.465" y1="1250.01" x2="1640.47" y2="1250.01" stroke="white" stroke-opacity="0.07"/>
<line x1="-200.465" y1="1111.18" x2="1640.47" y2="1111.18" stroke="white" stroke-opacity="0.07"/>
<line x1="-200.465" y1="972.341" x2="1640.47" y2="972.341" stroke="white" stroke-opacity="0.07"/>
<line x1="-200.465" y1="833.507" x2="1640.47" y2="833.507" stroke="white" stroke-opacity="0.07"/>
<line x1="-200.465" y1="694.672" x2="1640.47" y2="694.672" stroke="white" stroke-opacity="0.07"/>
<line x1="-200.465" y1="555.838" x2="1640.47" y2="555.838" stroke="white" stroke-opacity="0.07"/>
<line x1="-200.465" y1="417.003" x2="1640.47" y2="417.004" stroke="white" stroke-opacity="0.07"/>
<line x1="-200.465" y1="278.169" x2="1640.47" y2="278.169" stroke="white" stroke-opacity="0.07"/>
<line x1="-200.465" y1="139.334" x2="1640.47" y2="139.335" stroke="white" stroke-opacity="0.07"/>
<line x1="-200.465" y1="0.5" x2="1640.47" y2="0.50008" stroke="white" stroke-opacity="0.07"/>
</svg>
