<svg width="95" height="95" viewBox="0 0 95 95" fill="none" xmlns="http://www.w3.org/2000/svg">
<path d="M47.5 0C73.7335 0 95 21.2665 95 47.5C95 73.7335 73.7335 95 47.5 95C21.2665 95 0 73.7335 0 47.5C0 21.2665 21.2665 0 47.5 0ZM40.1133 31.2568C39.5284 30.9073 38.7715 30.8879 38.168 31.1914C37.5535 31.4983 37.174 32.0854 37.1738 32.7246V64.1592C37.174 64.7984 37.5535 65.3854 38.168 65.6924C38.451 65.834 38.7681 65.9053 39.0811 65.9053C39.4387 65.9053 39.8004 65.8128 40.1133 65.627L66.8154 49.9102C67.359 49.5897 67.6903 49.0356 67.6904 48.4424C67.6904 47.849 67.3592 47.2944 66.8154 46.9736L40.1133 31.2568ZM62.2559 48.4424L40.9883 60.959V35.9248L62.2559 48.4424Z" fill="#F2C94C"/>
</svg>
