<svg width="1440" height="8939" viewBox="0 0 1440 8939" fill="none" xmlns="http://www.w3.org/2000/svg">
<g opacity="0.7">
<line x1="60.5" y1="0.312378" x2="60.4998" y2="16155.2" stroke="black" stroke-opacity="0.07"/>
<line x1="199.336" y1="0.312378" x2="199.336" y2="16155.2" stroke="black" stroke-opacity="0.07"/>
<line x1="338.168" y1="0.312378" x2="338.168" y2="16155.2" stroke="black" stroke-opacity="0.07"/>
<line x1="477.004" y1="0.312378" x2="477.004" y2="16155.2" stroke="black" stroke-opacity="0.07"/>
<line x1="615.836" y1="0.312378" x2="615.836" y2="16155.2" stroke="black" stroke-opacity="0.07"/>
<line x1="754.672" y1="0.312378" x2="754.672" y2="16155.2" stroke="black" stroke-opacity="0.07"/>
<line x1="893.508" y1="0.312378" x2="893.508" y2="16155.2" stroke="black" stroke-opacity="0.07"/>
<line x1="1032.34" y1="0.312378" x2="1032.34" y2="16155.2" stroke="black" stroke-opacity="0.07"/>
<line x1="1171.18" y1="0.312378" x2="1171.18" y2="16155.2" stroke="black" stroke-opacity="0.07"/>
<line x1="1310.01" y1="0.312378" x2="1310.01" y2="16155.2" stroke="black" stroke-opacity="0.07"/>
<line x1="129.918" y1="0.312378" x2="129.918" y2="16155.2" stroke="black" stroke-opacity="0.07"/>
<line x1="268.75" y1="0.312378" x2="268.75" y2="16155.2" stroke="black" stroke-opacity="0.07"/>
<line x1="407.586" y1="0.312378" x2="407.586" y2="16155.2" stroke="black" stroke-opacity="0.07"/>
<line x1="546.422" y1="0.312378" x2="546.422" y2="16155.2" stroke="black" stroke-opacity="0.07"/>
<line x1="685.254" y1="0.312378" x2="685.254" y2="16155.2" stroke="black" stroke-opacity="0.07"/>
<line x1="824.09" y1="0.312378" x2="824.09" y2="16155.2" stroke="black" stroke-opacity="0.07"/>
<line x1="962.926" y1="0.312378" x2="962.926" y2="16155.2" stroke="black" stroke-opacity="0.07"/>
<line x1="1101.76" y1="0.312378" x2="1101.76" y2="16155.2" stroke="black" stroke-opacity="0.07"/>
<line x1="1240.59" y1="0.312378" x2="1240.59" y2="16155.2" stroke="black" stroke-opacity="0.07"/>
<line x1="1379.43" y1="0.312378" x2="1379.43" y2="16155.2" stroke="black" stroke-opacity="0.07"/>
<line x1="-123.242" y1="1318.74" x2="1717.69" y2="1318.74" stroke="black" stroke-opacity="0.07"/>
<line x1="-123.242" y1="1179.91" x2="1717.69" y2="1179.91" stroke="black" stroke-opacity="0.07"/>
<line x1="-123.242" y1="1041.07" x2="1717.69" y2="1041.07" stroke="black" stroke-opacity="0.07"/>
<line x1="-123.242" y1="902.236" x2="1717.69" y2="902.236" stroke="black" stroke-opacity="0.07"/>
<line x1="-123.242" y1="763.402" x2="1717.69" y2="763.402" stroke="black" stroke-opacity="0.07"/>
<line x1="-123.242" y1="624.567" x2="1717.69" y2="624.568" stroke="black" stroke-opacity="0.07"/>
<line x1="-123.242" y1="485.733" x2="1717.69" y2="485.733" stroke="black" stroke-opacity="0.07"/>
<line x1="-123.242" y1="346.898" x2="1717.69" y2="346.899" stroke="black" stroke-opacity="0.07"/>
<line x1="-123.242" y1="208.064" x2="1717.69" y2="208.064" stroke="black" stroke-opacity="0.07"/>
<line x1="-123.242" y1="69.2296" x2="1717.69" y2="69.2297" stroke="black" stroke-opacity="0.07"/>
<line x1="-123.242" y1="1249.32" x2="1717.69" y2="1249.32" stroke="black" stroke-opacity="0.07"/>
<line x1="-123.242" y1="1110.49" x2="1717.69" y2="1110.49" stroke="black" stroke-opacity="0.07"/>
<line x1="-123.242" y1="971.654" x2="1717.69" y2="971.654" stroke="black" stroke-opacity="0.07"/>
<line x1="-123.242" y1="832.819" x2="1717.69" y2="832.819" stroke="black" stroke-opacity="0.07"/>
<line x1="-123.242" y1="693.985" x2="1717.69" y2="693.985" stroke="black" stroke-opacity="0.07"/>
<line x1="-123.242" y1="555.15" x2="1717.69" y2="555.15" stroke="black" stroke-opacity="0.07"/>
<line x1="-123.242" y1="416.316" x2="1717.69" y2="416.316" stroke="black" stroke-opacity="0.07"/>
<line x1="-123.242" y1="277.481" x2="1717.69" y2="277.481" stroke="black" stroke-opacity="0.07"/>
<line x1="-123.242" y1="138.647" x2="1717.69" y2="138.647" stroke="black" stroke-opacity="0.07"/>
<line x1="-123.242" y1="-0.187622" x2="1717.69" y2="-0.187542" stroke="black" stroke-opacity="0.07"/>
<line x1="-123.242" y1="2706.67" x2="1717.69" y2="2706.67" stroke="black" stroke-opacity="0.07"/>
<line x1="-123.242" y1="2567.83" x2="1717.69" y2="2567.83" stroke="black" stroke-opacity="0.07"/>
<line x1="-123.242" y1="2429" x2="1717.69" y2="2429" stroke="black" stroke-opacity="0.07"/>
<line x1="-123.242" y1="2290.16" x2="1717.69" y2="2290.16" stroke="black" stroke-opacity="0.07"/>
<line x1="-123.242" y1="2151.33" x2="1717.69" y2="2151.33" stroke="black" stroke-opacity="0.07"/>
<line x1="-123.242" y1="2012.5" x2="1717.69" y2="2012.5" stroke="black" stroke-opacity="0.07"/>
<line x1="-123.242" y1="1873.66" x2="1717.69" y2="1873.66" stroke="black" stroke-opacity="0.07"/>
<line x1="-123.242" y1="1734.83" x2="1717.69" y2="1734.83" stroke="black" stroke-opacity="0.07"/>
<line x1="-123.242" y1="1595.99" x2="1717.69" y2="1595.99" stroke="black" stroke-opacity="0.07"/>
<line x1="-123.242" y1="1457.16" x2="1717.69" y2="1457.16" stroke="black" stroke-opacity="0.07"/>
<line x1="-123.242" y1="2637.25" x2="1717.69" y2="2637.25" stroke="black" stroke-opacity="0.07"/>
<line x1="-123.242" y1="2498.42" x2="1717.69" y2="2498.42" stroke="black" stroke-opacity="0.07"/>
<line x1="-123.242" y1="2359.58" x2="1717.69" y2="2359.58" stroke="black" stroke-opacity="0.07"/>
<line x1="-123.242" y1="2220.75" x2="1717.69" y2="2220.75" stroke="black" stroke-opacity="0.07"/>
<line x1="-123.242" y1="2081.91" x2="1717.69" y2="2081.91" stroke="black" stroke-opacity="0.07"/>
<line x1="-123.242" y1="1943.08" x2="1717.69" y2="1943.08" stroke="black" stroke-opacity="0.07"/>
<line x1="-123.242" y1="1804.24" x2="1717.69" y2="1804.24" stroke="black" stroke-opacity="0.07"/>
<line x1="-123.242" y1="1665.41" x2="1717.69" y2="1665.41" stroke="black" stroke-opacity="0.07"/>
<line x1="-123.242" y1="1526.57" x2="1717.69" y2="1526.57" stroke="black" stroke-opacity="0.07"/>
<line x1="-123.242" y1="1387.74" x2="1717.69" y2="1387.74" stroke="black" stroke-opacity="0.07"/>
<line x1="-123.242" y1="4094.6" x2="1717.69" y2="4094.6" stroke="black" stroke-opacity="0.07"/>
<line x1="-123.242" y1="3955.76" x2="1717.69" y2="3955.76" stroke="black" stroke-opacity="0.07"/>
<line x1="-123.242" y1="3816.93" x2="1717.69" y2="3816.93" stroke="black" stroke-opacity="0.07"/>
<line x1="-123.242" y1="3678.09" x2="1717.69" y2="3678.09" stroke="black" stroke-opacity="0.07"/>
<line x1="-123.242" y1="3539.26" x2="1717.69" y2="3539.26" stroke="black" stroke-opacity="0.07"/>
<line x1="-123.242" y1="3400.42" x2="1717.69" y2="3400.42" stroke="black" stroke-opacity="0.07"/>
<line x1="-123.242" y1="3261.59" x2="1717.69" y2="3261.59" stroke="black" stroke-opacity="0.07"/>
<line x1="-123.242" y1="3122.75" x2="1717.69" y2="3122.75" stroke="black" stroke-opacity="0.07"/>
<line x1="-123.242" y1="2983.92" x2="1717.69" y2="2983.92" stroke="black" stroke-opacity="0.07"/>
<line x1="-123.242" y1="2845.08" x2="1717.69" y2="2845.08" stroke="black" stroke-opacity="0.07"/>
<line x1="-123.242" y1="4025.18" x2="1717.69" y2="4025.18" stroke="black" stroke-opacity="0.07"/>
<line x1="-123.242" y1="3886.34" x2="1717.69" y2="3886.34" stroke="black" stroke-opacity="0.07"/>
<line x1="-123.242" y1="3747.51" x2="1717.69" y2="3747.51" stroke="black" stroke-opacity="0.07"/>
<line x1="-123.242" y1="3608.67" x2="1717.69" y2="3608.67" stroke="black" stroke-opacity="0.07"/>
<line x1="-123.242" y1="3469.84" x2="1717.69" y2="3469.84" stroke="black" stroke-opacity="0.07"/>
<line x1="-123.242" y1="3331.01" x2="1717.69" y2="3331.01" stroke="black" stroke-opacity="0.07"/>
<line x1="-123.242" y1="3192.17" x2="1717.69" y2="3192.17" stroke="black" stroke-opacity="0.07"/>
<line x1="-123.242" y1="3053.34" x2="1717.69" y2="3053.34" stroke="black" stroke-opacity="0.07"/>
<line x1="-123.242" y1="2914.5" x2="1717.69" y2="2914.5" stroke="black" stroke-opacity="0.07"/>
<line x1="-123.242" y1="2775.67" x2="1717.69" y2="2775.67" stroke="black" stroke-opacity="0.07"/>
<line x1="-123.242" y1="5482.52" x2="1717.69" y2="5482.52" stroke="black" stroke-opacity="0.07"/>
<line x1="-123.242" y1="5343.69" x2="1717.69" y2="5343.69" stroke="black" stroke-opacity="0.07"/>
<line x1="-123.242" y1="5204.85" x2="1717.69" y2="5204.85" stroke="black" stroke-opacity="0.07"/>
<line x1="-123.242" y1="5066.02" x2="1717.69" y2="5066.02" stroke="black" stroke-opacity="0.07"/>
<line x1="-123.242" y1="4927.18" x2="1717.69" y2="4927.18" stroke="black" stroke-opacity="0.07"/>
<line x1="-123.242" y1="4788.35" x2="1717.69" y2="4788.35" stroke="black" stroke-opacity="0.07"/>
<line x1="-123.242" y1="4649.52" x2="1717.69" y2="4649.52" stroke="black" stroke-opacity="0.07"/>
<line x1="-123.242" y1="4510.68" x2="1717.69" y2="4510.68" stroke="black" stroke-opacity="0.07"/>
<line x1="-123.242" y1="4371.85" x2="1717.69" y2="4371.85" stroke="black" stroke-opacity="0.07"/>
<line x1="-123.242" y1="4233.01" x2="1717.69" y2="4233.01" stroke="black" stroke-opacity="0.07"/>
<line x1="-123.242" y1="5413.1" x2="1717.69" y2="5413.1" stroke="black" stroke-opacity="0.07"/>
<line x1="-123.242" y1="5274.27" x2="1717.69" y2="5274.27" stroke="black" stroke-opacity="0.07"/>
<line x1="-123.242" y1="5135.44" x2="1717.69" y2="5135.44" stroke="black" stroke-opacity="0.07"/>
<line x1="-123.242" y1="4996.6" x2="1717.69" y2="4996.6" stroke="black" stroke-opacity="0.07"/>
<line x1="-123.242" y1="4857.77" x2="1717.69" y2="4857.77" stroke="black" stroke-opacity="0.07"/>
<line x1="-123.242" y1="4718.93" x2="1717.69" y2="4718.93" stroke="black" stroke-opacity="0.07"/>
<line x1="-123.242" y1="4580.1" x2="1717.69" y2="4580.1" stroke="black" stroke-opacity="0.07"/>
<line x1="-123.242" y1="4441.26" x2="1717.69" y2="4441.26" stroke="black" stroke-opacity="0.07"/>
<line x1="-123.242" y1="4302.43" x2="1717.69" y2="4302.43" stroke="black" stroke-opacity="0.07"/>
<line x1="-123.242" y1="4163.59" x2="1717.69" y2="4163.59" stroke="black" stroke-opacity="0.07"/>
<line x1="-123.242" y1="6870.45" x2="1717.69" y2="6870.45" stroke="black" stroke-opacity="0.07"/>
<line x1="-123.242" y1="6731.62" x2="1717.69" y2="6731.62" stroke="black" stroke-opacity="0.07"/>
<line x1="-123.242" y1="6592.78" x2="1717.69" y2="6592.78" stroke="black" stroke-opacity="0.07"/>
<line x1="-123.242" y1="6453.95" x2="1717.69" y2="6453.95" stroke="black" stroke-opacity="0.07"/>
<line x1="-123.242" y1="6315.11" x2="1717.69" y2="6315.11" stroke="black" stroke-opacity="0.07"/>
<line x1="-123.242" y1="6176.28" x2="1717.69" y2="6176.28" stroke="black" stroke-opacity="0.07"/>
<line x1="-123.242" y1="6037.44" x2="1717.69" y2="6037.44" stroke="black" stroke-opacity="0.07"/>
<line x1="-123.242" y1="5898.61" x2="1717.69" y2="5898.61" stroke="black" stroke-opacity="0.07"/>
<line x1="-123.242" y1="5759.77" x2="1717.69" y2="5759.77" stroke="black" stroke-opacity="0.07"/>
<line x1="-123.242" y1="5620.94" x2="1717.69" y2="5620.94" stroke="black" stroke-opacity="0.07"/>
<line x1="-123.242" y1="6801.03" x2="1717.69" y2="6801.03" stroke="black" stroke-opacity="0.07"/>
<line x1="-123.242" y1="6662.2" x2="1717.69" y2="6662.2" stroke="black" stroke-opacity="0.07"/>
<line x1="-123.242" y1="6523.36" x2="1717.69" y2="6523.36" stroke="black" stroke-opacity="0.07"/>
<line x1="-123.242" y1="6384.53" x2="1717.69" y2="6384.53" stroke="black" stroke-opacity="0.07"/>
<line x1="-123.242" y1="6245.69" x2="1717.69" y2="6245.69" stroke="black" stroke-opacity="0.07"/>
<line x1="-123.242" y1="6106.86" x2="1717.69" y2="6106.86" stroke="black" stroke-opacity="0.07"/>
<line x1="-123.242" y1="5968.03" x2="1717.69" y2="5968.03" stroke="black" stroke-opacity="0.07"/>
<line x1="-123.242" y1="5829.19" x2="1717.69" y2="5829.19" stroke="black" stroke-opacity="0.07"/>
<line x1="-123.242" y1="5690.36" x2="1717.69" y2="5690.36" stroke="black" stroke-opacity="0.07"/>
<line x1="-123.242" y1="5551.52" x2="1717.69" y2="5551.52" stroke="black" stroke-opacity="0.07"/>
<line x1="-123.242" y1="8258.38" x2="1717.69" y2="8258.38" stroke="black" stroke-opacity="0.07"/>
<line x1="-123.242" y1="8119.54" x2="1717.69" y2="8119.54" stroke="black" stroke-opacity="0.07"/>
<line x1="-123.242" y1="7980.71" x2="1717.69" y2="7980.71" stroke="black" stroke-opacity="0.07"/>
<line x1="-123.242" y1="7841.87" x2="1717.69" y2="7841.87" stroke="black" stroke-opacity="0.07"/>
<line x1="-123.242" y1="7703.04" x2="1717.69" y2="7703.04" stroke="black" stroke-opacity="0.07"/>
<line x1="-123.242" y1="7564.21" x2="1717.69" y2="7564.21" stroke="black" stroke-opacity="0.07"/>
<line x1="-123.242" y1="7425.37" x2="1717.69" y2="7425.37" stroke="black" stroke-opacity="0.07"/>
<line x1="-123.242" y1="7286.54" x2="1717.69" y2="7286.54" stroke="black" stroke-opacity="0.07"/>
<line x1="-123.242" y1="7147.7" x2="1717.69" y2="7147.7" stroke="black" stroke-opacity="0.07"/>
<line x1="-123.242" y1="7008.87" x2="1717.69" y2="7008.87" stroke="black" stroke-opacity="0.07"/>
<line x1="-123.242" y1="8188.96" x2="1717.69" y2="8188.96" stroke="black" stroke-opacity="0.07"/>
<line x1="-123.242" y1="8050.13" x2="1717.69" y2="8050.13" stroke="black" stroke-opacity="0.07"/>
<line x1="-123.242" y1="7911.29" x2="1717.69" y2="7911.29" stroke="black" stroke-opacity="0.07"/>
<line x1="-123.242" y1="7772.46" x2="1717.69" y2="7772.46" stroke="black" stroke-opacity="0.07"/>
<line x1="-123.242" y1="7633.62" x2="1717.69" y2="7633.62" stroke="black" stroke-opacity="0.07"/>
<line x1="-123.242" y1="7494.79" x2="1717.69" y2="7494.79" stroke="black" stroke-opacity="0.07"/>
<line x1="-123.242" y1="7355.95" x2="1717.69" y2="7355.95" stroke="black" stroke-opacity="0.07"/>
<line x1="-123.242" y1="7217.12" x2="1717.69" y2="7217.12" stroke="black" stroke-opacity="0.07"/>
<line x1="-123.242" y1="7078.29" x2="1717.69" y2="7078.29" stroke="black" stroke-opacity="0.07"/>
<line x1="-123.242" y1="6939.45" x2="1717.69" y2="6939.45" stroke="black" stroke-opacity="0.07"/>
<line x1="-123.242" y1="8813.3" x2="1717.69" y2="8813.3" stroke="black" stroke-opacity="0.07"/>
<line x1="-123.242" y1="8674.46" x2="1717.69" y2="8674.46" stroke="black" stroke-opacity="0.07"/>
<line x1="-123.242" y1="8535.63" x2="1717.69" y2="8535.63" stroke="black" stroke-opacity="0.07"/>
<line x1="-123.242" y1="8396.8" x2="1717.69" y2="8396.8" stroke="black" stroke-opacity="0.07"/>
<line x1="-123.242" y1="8882.72" x2="1717.69" y2="8882.72" stroke="black" stroke-opacity="0.07"/>
<line x1="-123.242" y1="8743.88" x2="1717.69" y2="8743.88" stroke="black" stroke-opacity="0.07"/>
<line x1="-123.242" y1="8605.05" x2="1717.69" y2="8605.05" stroke="black" stroke-opacity="0.07"/>
<line x1="-123.242" y1="8466.21" x2="1717.69" y2="8466.21" stroke="black" stroke-opacity="0.07"/>
<line x1="-123.242" y1="8327.38" x2="1717.69" y2="8327.38" stroke="black" stroke-opacity="0.07"/>
</g>
</svg>
