<svg width="30" height="30" viewBox="0 0 30 30" fill="none" xmlns="http://www.w3.org/2000/svg">
<g clip-path="url(#clip0_4015_13734)">
<path d="M0.468748 15C0.468748 6.97266 6.97265 0.46875 15 0.46875C23.0273 0.46875 29.5312 6.97266 29.5312 15C29.5312 23.0273 23.0273 29.5313 15 29.5313C6.97265 29.5313 0.468748 23.0273 0.468748 15ZM15 27.6563C21.9551 27.6563 27.6562 22.0254 27.6562 15C27.6562 8.04492 22.0254 2.34375 15 2.34375C8.04492 2.34375 2.34375 7.97461 2.34375 15C2.34375 21.9551 7.97461 27.6563 15 27.6563ZM15.7324 22.2363L22.4766 15.498C22.752 15.2227 22.752 14.7773 22.4766 14.502L15.7324 7.76367C15.457 7.48828 15.0117 7.48828 14.7363 7.76367L14.332 8.16797C14.0566 8.44336 14.0566 8.90039 14.3437 9.16992L19.3535 14.0039H8.20312C7.8164 14.0039 7.5 14.3203 7.5 14.707V15.293C7.5 15.6797 7.8164 15.9961 8.20312 15.9961H19.3535L14.3379 20.8301C14.0566 21.1055 14.0508 21.5566 14.3262 21.832L14.7305 22.2363C15.0117 22.5117 15.457 22.5117 15.7324 22.2363Z" fill="white"/>
</g>
<defs>
<clipPath id="clip0_4015_13734">
<rect width="30" height="30" fill="white" transform="matrix(-1 0 0 1 30 0)"/>
</clipPath>
</defs>
</svg>
