<svg width="27" height="28" viewBox="0 0 27 28" fill="none" xmlns="http://www.w3.org/2000/svg">
<path d="M23.3972 2.73188C22.7159 2.08989 19.9628 0.0488029 13.8305 0.021073C13.8305 0.021073 6.59892 -0.424285 3.07364 2.87809C1.11127 4.88262 0.420943 7.81568 0.348126 11.4521C0.275308 15.0885 0.181097 21.9033 6.61332 23.7511H6.61949L6.61538 26.5707C6.61538 26.5707 6.57424 27.7123 7.31023 27.945C8.2005 28.2274 8.72297 27.3598 9.57292 26.4245C10.0395 25.9111 10.6837 25.1569 11.1692 24.5805C15.5682 24.9586 18.9516 24.0944 19.3358 23.9666C20.224 23.6725 25.2501 23.0146 26.0676 16.2006C26.9113 9.17696 25.6594 4.73431 23.3972 2.73188ZM24.1426 15.6968C23.4527 21.3865 19.3762 21.744 18.6245 21.9903C18.3049 22.0953 15.3333 22.8503 11.5966 22.6011C11.5966 22.6011 8.81225 26.0317 7.94255 26.9236C7.80679 27.0631 7.64717 27.1194 7.54061 27.0917C7.39086 27.0543 7.34972 26.8732 7.35137 26.6085C7.35384 26.2304 7.37523 21.923 7.37523 21.923C7.37194 21.923 7.37523 21.923 7.37523 21.923C1.93407 20.3802 2.25126 14.5801 2.31297 11.5428C2.37468 8.50556 2.93336 6.01744 4.59294 4.34399C7.57476 1.58571 13.7174 1.99787 13.7174 1.99787C18.9047 2.02098 21.3904 3.61629 21.9667 4.15072C23.8806 5.82417 24.8556 9.82862 24.1426 15.6952V15.6968Z" fill="white"/>
<path fill-rule="evenodd" clip-rule="evenodd" d="M13.9341 9.08574C13.9441 8.8904 14.1072 8.7403 14.2985 8.75049C15.0141 8.78862 15.6095 9.00985 16.0336 9.45762C16.456 9.90368 16.6631 10.5268 16.6994 11.2752C16.7089 11.4706 16.5615 11.6368 16.3702 11.6465C16.1789 11.6562 16.0162 11.5057 16.0067 11.3103C15.9755 10.6697 15.8034 10.2336 15.535 9.95009C15.2682 9.66834 14.861 9.4898 14.2623 9.4579C14.0711 9.44771 13.9241 9.28109 13.9341 9.08574Z" fill="white"/>
<path fill-rule="evenodd" clip-rule="evenodd" d="M13.4111 7.17698C13.4251 6.98189 13.5913 6.83532 13.7823 6.84959C15.2387 6.95845 16.4109 7.46666 17.2648 8.41856L17.2649 8.41869C18.1095 9.36123 18.511 10.5337 18.4818 11.909C18.4777 12.1046 18.3191 12.2597 18.1276 12.2555C17.9361 12.2512 17.7842 12.0893 17.7884 11.8937C17.8141 10.6809 17.4648 9.69101 16.7532 8.89693C16.0438 8.10614 15.0521 7.65477 13.7317 7.55608C13.5406 7.5418 13.3971 7.37207 13.4111 7.17698Z" fill="white"/>
<path fill-rule="evenodd" clip-rule="evenodd" d="M12.7969 5.36344C12.7982 5.16783 12.9546 5.01037 13.1461 5.01173C15.1588 5.02604 16.86 5.71032 18.2259 7.07018C19.6032 8.44141 20.2843 10.3082 20.3016 12.6267C20.3031 12.8224 20.149 12.9821 19.9574 12.9836C19.7659 12.9851 19.6095 12.8277 19.608 12.6321C19.5918 10.4596 18.9589 8.78926 17.7417 7.57742C16.5131 6.3542 14.9875 5.73321 13.1413 5.72008C12.9497 5.71872 12.7955 5.55904 12.7969 5.36344Z" fill="white"/>
<path d="M14.3495 16.0361C14.3495 16.0361 14.837 16.0781 15.0995 15.7478L15.6113 15.0903C15.8581 14.7643 16.4538 14.5563 17.0372 14.8882C17.4743 15.1428 17.8988 15.4196 18.3088 15.7176C18.6959 16.0083 19.4887 16.6839 19.4912 16.6839C19.8688 17.0095 19.9561 17.4877 19.6989 17.9918C19.6989 17.9948 19.6969 17.9998 19.6969 18.0023C19.4137 18.5037 19.0542 18.9559 18.6318 19.3418C18.6268 19.3443 18.6268 19.3468 18.6223 19.3493C18.2553 19.6625 17.8948 19.8405 17.5407 19.8834C17.4886 19.8927 17.4356 19.8961 17.3828 19.8934C17.2266 19.895 17.0713 19.8706 16.9228 19.8212L16.9113 19.8039C16.3658 19.6468 15.4549 19.2536 13.9381 18.399C13.0604 17.9103 12.2247 17.3465 11.4401 16.7138C11.0468 16.3968 10.6717 16.057 10.3166 15.6961L10.2787 15.6575L10.2409 15.6188L10.203 15.5802C10.1903 15.5676 10.1779 15.5546 10.1652 15.5415C9.81183 15.1788 9.47914 14.7957 9.16877 14.3941C8.54929 13.5929 7.99728 12.7396 7.51865 11.8434C6.68186 10.2939 6.2968 9.3645 6.14293 8.80654L6.12606 8.79478C6.07783 8.64313 6.05408 8.48449 6.05572 8.32505C6.05284 8.27108 6.05601 8.21695 6.06518 8.16372C6.10933 7.80267 6.2839 7.4342 6.58889 7.0583C6.59136 7.05368 6.59383 7.05368 6.59629 7.04864C6.97408 6.61728 7.41682 6.25022 7.90783 5.96129C7.9103 5.96129 7.91524 5.95877 7.91812 5.95877C8.4118 5.69618 8.87997 5.78525 9.19839 6.16885C9.20086 6.17137 9.86116 6.981 10.1446 7.37636C10.4364 7.79555 10.7074 8.22941 10.9567 8.6763C11.2817 9.27165 11.0781 9.88129 10.7588 10.1325L10.115 10.6552C9.78998 10.9233 9.83277 11.4211 9.83277 11.4211C9.83277 11.4211 10.7864 15.1071 14.3495 16.0361Z" fill="white"/>
</svg>
