<svg width="31" height="22" viewBox="0 0 31 22" fill="none" xmlns="http://www.w3.org/2000/svg">
<path d="M2.25323 9.47095C10.3958 6.36626 15.8254 4.31946 18.5421 3.33055C26.2989 0.507005 27.9107 0.0165256 28.9612 0.000157016C29.1923 -0.00323241 29.7089 0.0468815 30.0436 0.284527C30.3262 0.48519 30.4039 0.756258 30.4411 0.946508C30.4783 1.13676 30.5246 1.57015 30.4878 1.9088C30.0675 5.77401 28.2486 15.1539 27.3233 19.483C26.9318 21.3148 26.1609 21.929 25.4145 21.9891C23.7925 22.1197 22.5608 21.051 20.9898 20.1497C18.5315 18.7395 17.1427 17.8615 14.7565 16.4854C11.9988 14.895 13.7865 14.0209 15.3581 12.5923C15.7694 12.2185 22.916 6.52954 23.0543 6.01346C23.0716 5.94892 23.0877 5.70833 22.9244 5.58129C22.7611 5.45425 22.52 5.4977 22.3461 5.53225C22.0995 5.58122 18.1723 7.85289 10.5645 12.3473C9.44979 13.0172 8.44011 13.3435 7.53548 13.3264C6.53819 13.3076 4.6198 12.833 3.19368 12.4273C1.44449 11.9296 0.0542598 11.6666 0.175317 10.8215C0.238371 10.3813 0.931008 9.93111 2.25323 9.47095Z" fill="white"/>
</svg>
