<svg width="64" height="60" viewBox="0 0 64 60" fill="none" xmlns="http://www.w3.org/2000/svg">
<path d="M16.0408 27.9613C25.7787 20.2243 35.4766 12.521 45.1711 4.81351C46.5452 3.72108 47.9531 2.66369 49.2582 1.49396C52.055 -1.01288 55.5076 0.0020256 57.6367 1.85407C60.0115 3.91993 60.7629 7.1408 59.5215 9.70436C59.0679 10.6412 58.2602 11.2997 57.622 12.1161C57.8606 12.3561 58.1491 12.3758 58.4265 12.4424C62.3912 13.3951 64.6763 18.0955 62.8769 21.5821C62.5603 22.1955 62.1314 22.7227 61.6362 23.1966C56.9173 27.7136 52.0643 32.0868 47.2253 36.4752C44.0293 39.3737 40.8445 42.2847 37.6781 45.2151C32.9194 49.6191 28.1205 53.9806 23.4678 58.4973C21.8326 60.0848 19.8737 60.3639 17.7713 59.5726C15.6894 58.7891 14.104 57.3823 12.9022 55.5344C12.7588 55.3139 12.6227 55.0887 12.5191 54.9229C12.2937 54.8596 12.1973 54.9394 12.109 55.0214C10.2149 56.7783 8.06357 56.8639 5.86655 55.7892C3.0563 54.4145 1.19831 52.1802 0.629415 49.0839C0.262785 47.0884 0.634277 45.1818 2.27157 43.7602C3.74331 42.4824 5.26419 41.26 6.77733 40.03C7.12942 39.7438 7.25559 39.4814 7.1963 38.9881C6.92135 36.7011 7.66625 34.7786 9.47393 33.3016C11.6452 31.5275 13.8242 29.7626 16.0408 27.9613ZM18.4034 38.7647C17.2221 36.57 15.4068 35.2389 12.9445 34.761C11.4758 34.4759 10.332 34.9844 9.64126 36.2954C9.34275 36.8619 9.1842 37.4721 9.16825 38.1111C9.09719 40.9588 11.6635 44.0553 14.7338 44.8352C16.3433 45.2441 17.7282 44.6347 18.4608 43.1601C19.1695 41.7335 19.0451 40.2948 18.4034 38.7647ZM22.1818 51.341C21.1115 49.6866 19.595 48.6723 17.6763 48.2321C15.4974 47.7323 13.766 49.0652 13.7152 51.2841C13.6476 54.2313 16.0882 57.2515 19.0789 57.9219C20.7723 58.3015 22.4418 57.3414 22.9685 55.6699C23.4514 54.1371 22.9609 52.7622 22.1818 51.341ZM4.40756 52.3813C5.25596 53.282 6.25732 53.9457 7.43703 54.345C9.96231 55.1996 11.664 53.0404 11.7135 51.2261C11.8113 47.6384 8.87372 45.2192 6.15938 44.6544C4.18846 44.2444 2.68338 45.5256 2.54647 47.5432C2.41997 49.4075 3.13761 50.9425 4.40756 52.3813ZM28.3008 34.0668C28.3247 33.6689 28.2031 33.2976 28.0672 32.9352C27.0327 30.1754 23.6662 27.7892 20.696 27.7126C20.5336 27.7084 20.3513 27.7509 20.2084 27.8274C19.1793 28.3777 18.3161 29.1375 17.4188 29.9654C19.254 30.4982 20.9073 31.1652 22.3014 32.3826C23.6836 33.5896 24.617 35.0855 25.2875 36.921C26.3774 35.9364 27.5041 35.2527 28.3008 34.0668ZM23.6777 24.8379C23.2788 25.2505 22.7436 25.525 22.3046 26.1494C26.0612 27.0643 28.7266 29.1619 30.0176 32.9134C30.9566 32.0914 31.7294 31.3524 32.5711 30.7013C33.0816 30.3064 33.0871 29.9299 32.8851 29.3888C31.8193 26.5333 29.7145 24.8645 26.8298 24.0573C25.669 23.7324 24.6092 23.7996 23.6777 24.8379ZM26.3002 40.9734C25.758 40.8477 25.1421 40.5519 24.6684 40.8382C23.6614 41.4468 22.8195 42.2838 21.8966 43.1833C23.6131 43.8037 25.1362 44.4721 26.3975 45.6474C27.667 46.8302 28.5362 48.2463 29.1331 49.9962C30.1352 49.0766 31.0289 48.2597 31.9183 47.4382C32.1559 47.2187 32.0759 46.9649 31.9959 46.6968C31.1389 43.824 29.2466 41.9588 26.3002 40.9734ZM28.3264 22.5872C31.4484 23.611 33.5295 25.7237 34.7182 28.8904C35.6488 28.1028 36.4258 27.4114 37.2411 26.768C37.7189 26.3909 37.8012 26.0127 37.5815 25.447C36.5013 22.6665 34.4766 20.9812 31.6035 20.257C29.9505 19.8404 28.133 20.6573 27.2768 22.1965C27.5578 22.4027 27.9039 22.4369 28.3264 22.5872ZM28.2767 37.7235C27.8394 38.198 27.245 38.5161 26.8075 39.1457C30.2959 40.1609 32.5681 42.3936 33.7367 45.8311C34.6933 44.9603 35.5328 44.1871 36.3835 43.4263C36.7153 43.1295 36.6686 42.8004 36.5568 42.4296C35.7645 39.8008 34.0024 38.09 31.503 37.0245C30.271 36.4993 29.2097 36.4832 28.2767 37.7235ZM33.6521 32.9765C32.9409 33.6185 32.2297 34.2605 31.4026 35.0071C34.923 36.0331 37.1564 38.2063 38.2632 41.6534C39.156 40.8432 39.8936 40.1049 40.7066 39.4606C41.2414 39.0367 41.327 38.6125 41.1038 38.0129C39.9851 35.0085 37.7562 33.3324 34.6775 32.6637C34.3324 32.5887 33.9929 32.6071 33.6521 32.9765ZM41.5668 20.4046C40.4685 18.4936 38.8555 17.2311 36.7088 16.6949C35.9392 16.5027 35.0909 16.0924 34.357 16.4236C33.4479 16.8339 32.7302 17.5982 31.8511 18.4168C35.5398 19.3348 38.1426 21.297 39.3447 24.8298C40.0717 24.4243 40.5145 23.932 41.0155 23.5156C42.5041 22.2785 42.5049 22.2489 41.5668 20.4046ZM43.4616 19.9844C43.6446 20.2888 43.6625 20.6863 44.0154 20.9437C44.9384 20.3098 45.7237 19.5127 46.5728 18.7936C46.8801 18.5333 46.8061 18.1919 46.6819 17.8532C45.6659 15.0829 43.6421 13.459 40.79 12.8695C40.1607 12.7394 39.4265 12.4046 38.8004 12.8384C38.0538 13.3557 37.3138 13.9021 36.6795 14.6503C38.1372 15.1134 39.4991 15.6253 40.6753 16.5344C41.8527 17.4443 42.786 18.5398 43.4616 19.9844ZM44.6796 35.7924C45.8437 34.7583 45.8799 34.6401 45.2091 33.2667C43.9769 30.7439 41.8784 29.3471 39.1829 28.75C38.9236 28.6925 38.6393 28.664 38.4124 28.8603C37.6261 29.5405 36.8454 30.227 35.9534 31.0064C39.342 32.0602 41.7763 33.9784 42.7956 37.5119C43.5008 36.8684 44.0519 36.3656 44.6796 35.7924ZM49.9137 29.8814C48.7237 27.0085 46.5085 25.424 43.5002 24.8324C43.2999 24.7931 43.1035 24.7707 42.9417 24.9065C42.133 25.5852 41.3303 26.2711 40.3914 27.0682C43.8126 28.0667 46.1974 29.9642 47.2448 33.3806C48.1282 32.591 48.8683 31.8914 49.6519 31.2437C50.0996 30.8737 50.2206 30.4903 49.9137 29.8814ZM42.3063 9.9553C41.9497 10.2654 41.5051 10.4917 41.2551 11.0263C44.7661 11.7555 47.048 13.9023 48.424 17.102C49.3704 16.4875 50.0608 15.7611 50.8452 15.1516C51.2825 14.8118 51.3375 14.4687 51.134 13.9604C50.1921 11.6077 48.4408 10.1268 46.0782 9.35316C44.7956 8.93321 43.4549 8.61502 42.3063 9.9553ZM53.8719 12.5441C54.3496 12.1274 54.813 11.6927 55.3095 11.2994C55.7198 10.9744 55.7852 10.627 55.5902 10.1518C54.4863 7.46134 52.4601 6.05237 49.6107 5.47914C47.7446 5.1037 46.8791 6.24872 45.6349 7.33363C49.1594 8.11552 51.5195 10.0908 52.8592 13.1882C53.0044 13.1631 53.0631 13.1699 53.0973 13.1443C53.3313 12.9693 53.56 12.7876 53.8719 12.5441ZM53.308 24.1906C52.0547 22.5137 50.3535 21.5426 48.3365 21.0645C47.9742 20.9786 47.5531 20.854 47.2711 21.0824C46.4919 21.7138 45.7719 22.4172 44.895 23.2134C48.2177 24.2218 50.572 26.0718 51.7108 29.2656C52.7396 28.5092 53.4722 27.7234 54.275 27.017C54.5604 26.7659 54.4735 26.496 54.367 26.2207C54.1031 25.5386 53.7741 24.8884 53.308 24.1906ZM56.8247 19.3821C55.4969 18.1339 53.8707 17.5371 52.1039 17.2522C51.9898 17.2339 51.8371 17.2283 51.7524 17.2875C50.9058 17.8795 50.128 18.5476 49.3572 19.3876C52.5893 20.3902 54.8902 22.2583 56.0648 25.434C56.9798 24.6156 57.7785 23.9062 58.5708 23.1899C58.8428 22.944 58.8282 22.6489 58.7153 22.321C58.3363 21.2207 57.7272 20.2692 56.8247 19.3821ZM23.3884 37.1589C22.2864 34.0967 19.9146 32.5688 16.8976 31.7563C15.6402 31.4177 14.7313 31.801 13.8608 32.8328C15.7661 33.3007 17.3555 34.1764 18.6152 35.5986C19.862 37.0064 20.5971 38.6589 20.9401 40.6146C21.6839 39.9855 22.2716 39.4398 22.9105 38.9617C23.5231 38.5033 23.7319 37.9756 23.3884 37.1589ZM20.4694 47.1864C23.0397 48.5233 24.4539 50.7193 25.0703 53.516C25.8462 53.0318 26.3361 52.4077 26.9493 51.9319C27.4078 51.5762 27.4895 51.1862 27.3278 50.6573C26.4061 47.6425 24.3265 45.8578 21.3303 45.0393C20.0213 44.6817 19.1988 45.0428 18.5169 46.2937C19.1368 46.576 19.7542 46.8572 20.4694 47.1864ZM60.6042 16.2094C59.8073 15.2001 58.7845 14.5317 57.5377 14.201C55.7522 13.7274 54.797 14.0948 53.8592 15.6799C56.9572 16.5471 59.1884 18.4208 60.3338 21.3929C60.7509 21.2844 60.8621 21.0556 60.9885 20.8532C61.9843 19.2577 61.6535 17.7511 60.6042 16.2094ZM54.6366 5.64509C55.8481 6.59427 56.6508 7.8501 57.279 9.27913C58.0109 8.64054 58.2369 7.86499 58.1966 7.05875C58.086 4.84157 56.5852 2.93979 54.4617 2.21195C52.7218 1.61558 51.3083 2.08027 50.1673 3.67972C51.7762 4.02107 53.2705 4.57067 54.6366 5.64509ZM8.17804 42.1075C7.39026 41.6313 7.42716 42.4837 6.92312 42.7436C7.70411 43.0642 8.31891 43.3166 9.1105 43.6415C8.74925 43.0474 8.48918 42.6197 8.17804 42.1075ZM13.5284 47.2842C13.6557 47.1237 13.8906 47.0349 13.8793 46.7436C13.2689 46.5296 12.7063 46.1746 11.9471 46.0333C12.3147 46.6377 12.6232 47.1451 12.9145 47.6239C13.1993 47.6398 13.3179 47.4725 13.5284 47.2842Z" fill="#363636"/>
</svg>
