<svg width="68" height="64" viewBox="0 0 68 64" fill="none" xmlns="http://www.w3.org/2000/svg">
<path d="M45.5862 2.08248C45.3743 2.12101 44.6037 2.31364 43.8525 2.46775C41.1556 3.08417 38.3047 4.76007 34.6447 7.89998C33.7008 8.7283 32.6027 9.65294 32.1982 9.96115C31.7937 10.2886 31.0039 10.9436 30.4453 11.4444C26.843 14.5265 23.3371 17.4931 20.0624 20.2477C8.29253 30.1105 5.59568 32.8652 3.97756 36.66C2.97587 38.9716 2.72545 40.1467 2.59061 42.8243C2.49429 44.8662 2.55208 45.5404 2.91808 47.2548C3.63082 50.6451 4.86367 53.1301 7.13674 55.8462C9.14011 58.2156 13.0506 60.6428 16.1134 61.394C16.8647 61.5674 17.6352 61.76 17.8471 61.8178C18.059 61.8756 19.2726 61.9527 20.544 61.9912C23.3179 62.0682 25.6102 61.6444 28.1529 60.5464C31.2543 59.198 31.3892 59.1017 44.2763 46.6576C55.3912 35.9473 61.9021 29.3785 62.7305 28.0686C63.6744 26.5853 64.599 24.5434 65.0613 22.9638C65.62 21.0183 65.5622 16.8381 64.9843 14.6806C64.2137 11.926 62.7112 9.28694 60.6308 7.01387C58.9549 5.18386 55.6031 3.29607 52.675 2.52554C51.2303 2.14027 46.5493 1.85132 45.5862 2.08248ZM52.0008 3.91249C54.9674 4.5867 57.3368 5.81955 59.3016 7.74588C63.8477 12.1379 65.331 18.514 63.1543 24.293C61.8251 27.7797 61.1124 28.5887 49.1499 40.0118C45.5091 43.5177 41.4831 47.3896 40.1925 48.6225C38.9211 49.8553 37.8616 50.857 37.8424 50.8185C37.8231 50.7992 38.0735 49.9709 38.401 48.9692C38.9789 47.2163 38.9981 47.0044 38.9981 43.8645C39.0174 40.7824 38.9789 40.4934 38.478 38.9523C36.7829 33.8476 33.9319 30.2839 29.6555 27.9916C25.3212 25.6414 19.7927 25.025 15.7089 26.4312C14.3797 26.8935 14.2641 26.8935 14.7842 26.4698C15.0154 26.2964 16.7298 24.8324 18.5984 23.2528C22.4125 20.0166 23.6646 18.9764 24.7819 18.0517C27.2861 15.9905 27.941 15.4512 30.7342 13.024C34.0282 10.2116 38.035 6.95609 39.133 6.20482C40.5585 5.24166 42.6967 4.23997 44.0451 3.89323C45.2202 3.60428 47.917 3.39238 49.3425 3.46944C49.9204 3.50796 51.1147 3.7006 52.0008 3.91249ZM25.5139 27.6833C30.9846 29.2629 35.1648 33.2697 36.9948 38.6634C38.3047 42.5546 37.9772 47.5052 36.1472 51.2423C34.1245 55.3454 29.8674 58.8705 25.4561 60.1419C23.6453 60.662 20.2935 60.8547 18.3287 60.5464C9.9877 59.2365 3.88125 52.1669 3.88125 43.7682C3.88125 39.8192 5.2682 35.9665 7.71463 33.0385C10.1996 30.0912 14.476 27.7026 18.2324 27.1825C20.3128 26.9128 23.6453 27.1247 25.5139 27.6833Z" fill="#363636"/>
<path d="M17.9811 30.785C15.265 31.3822 12.9148 32.6535 11.027 34.5413C8.61914 36.9685 7.59818 39.3572 7.40555 42.9979C7.30923 44.8857 7.36702 45.4636 7.73303 46.9469C8.38798 49.5667 9.44746 51.4545 11.316 53.3037C13.5505 55.5383 15.6502 56.5785 19.0983 57.1757C21.8723 57.6572 24.9929 57.0216 27.8246 55.3842C29.5005 54.4018 31.7543 52.0709 32.6211 50.4143C33.8155 48.1027 34.2007 46.5038 34.22 43.8648C34.22 41.8228 34.1622 41.3605 33.6614 39.8387C32.2166 35.4274 28.1328 31.6711 23.8178 30.7657C22.1612 30.419 19.5992 30.419 17.9811 30.785ZM24.8773 32.4994C26.7459 33.1929 27.998 34.002 29.3464 35.4275C31.6002 37.8161 32.7175 40.1662 32.9101 42.9016C33.1605 46.7157 31.735 50.3565 28.9997 52.7836C27.7475 53.9009 25.3011 55.1915 23.6252 55.6153C18.559 56.8867 12.3562 54.0165 10.0639 49.3355C9.04293 47.2551 8.69619 45.7911 8.67693 43.7492C8.65766 38.105 12.2406 33.6552 17.9425 32.2297C20.1 31.6904 22.9703 31.806 24.8773 32.4994Z" fill="#363636"/>
</svg>
