<svg width="96" height="64" viewBox="0 0 96 64" fill="none" xmlns="http://www.w3.org/2000/svg">
<path d="M29.6206 2.02335C27.1952 2.47931 27.6108 3.47172 26.5707 5.77701C2.79323 58.4784 26.5706 5.77701 2.79323 58.4784C1.7576 60.7738 4.57478 61.921 6.22637 61.9965C6.38245 62.0037 6.53913 61.9975 6.69554 61.9975C26.4022 61.9975 46.109 61.9964 65.8157 61.9996C67.3589 61.9998 68.6595 61.5425 69.4441 60.1163C69.6566 59.73 69.1697 61.0044 69.1695 60.5488C92.8103 5.98013 69.6944 58.8304 93.4296 4.9559C93.4293 3.43147 92.0905 2.14884 90.5003 2.14422C86.7076 2.13317 82.9147 2.14065 79.122 2.14065C71.1845 2.14065 63.2471 2.14962 55.3097 2.13527C52.8854 2.13089 50.4577 1.96087 48.0376 2.0437C42.3283 2.23911 35.4465 1.95216 29.7379 2.00713C29.35 2.01087 30.1079 2.27172 29.7379 2.02335" stroke="#363636" stroke-width="1.5" stroke-linecap="round" stroke-linejoin="round"/>
</svg>
