<svg width="60" height="60" viewBox="0 0 60 60" fill="none" xmlns="http://www.w3.org/2000/svg">
<path d="M49.0819 0.349316C48.2806 0.90411 43.5545 4.64384 42.3833 5.65068C41.397 6.49315 41.2737 6.55479 40.6367 6.34932C38.9518 5.87671 34.9655 5.30137 32.0271 5.11644C27.0956 4.82877 22.6573 5.30137 18.7737 6.5137C16.6367 7.19178 12.445 9.02055 10.6573 10.0685C6.9381 12.2466 3.4655 15.863 1.63673 19.4589C0.321665 22.0274 0.239473 22.8288 0.0956375 32.4863C-0.0276501 40.7055 -0.0071022 41.3219 0.362761 42.7808C1.39016 46.7877 4.88331 51.5753 8.49975 53.8767C12.6915 56.589 19.1436 58.9521 23.808 59.4863C24.4244 59.5479 25.534 59.6918 26.2737 59.7945C27.0134 59.9178 29.0066 60 30.7121 60C39.7326 60 45.7532 57.863 52.8833 52.089C56.4998 49.1507 58.3902 46.3151 59.4587 42.2055C59.9724 40.2534 59.9724 40.0479 59.9724 33C59.9724 29.0342 59.9107 25.3151 59.8491 24.7603C59.2532 19.0685 54.3011 12.863 47.2737 9C46.4724 8.54795 45.8354 8.09589 45.897 8.0137C45.9587 7.91096 46.945 7.06849 48.1162 6.14384C49.2669 5.21918 50.6436 4.04795 51.1984 3.5137C52.0614 2.69178 52.1641 2.4863 52.1641 1.70548C52.1641 0.554794 51.5888 0 50.4176 0C49.9655 0 49.3491 0.164383 49.0819 0.349316ZM50.7258 1.72603C50.7258 2.07534 50.2943 2.54795 49.1641 3.5137C48.3011 4.21233 46.9039 5.42466 46.0819 6.20548C45.2395 6.96576 44.4997 7.60274 44.4176 7.58219C44.3148 7.58219 43.945 7.4589 43.5751 7.31507L42.8765 7.06849L45.7121 4.93151C47.2737 3.73973 48.9587 2.42466 49.4724 1.99315C50.5614 1.10959 50.7258 1.06849 50.7258 1.72603ZM34.3902 6.65754C36.7121 7.00685 40.2258 7.70548 40.3491 7.84932C40.4107 7.91096 40.3285 8.42466 40.1847 9.02055C39.9792 9.92466 39.8765 10.0685 39.5271 9.9863C36.6299 9.26712 31.123 8.75343 27.7121 8.89726C22.9244 9.10274 18.7737 10.1096 14.8491 12.0411C9.85591 14.5069 5.66413 19.0274 4.59564 23.137C4.18468 24.6986 4.20523 27.8425 4.61619 29.4658C5.74632 33.863 9.62988 37.8904 15.445 40.7055C17.7874 41.8356 21.5888 42.9863 24.5066 43.4589C28.5134 44.0959 34.3491 43.8288 38.4998 42.8219C40.3285 42.3699 44.1299 41.1164 45.0751 40.6438C47.7874 39.2877 51.1367 36.8425 52.6367 35.1164C55.1641 32.2397 56.3765 27.5959 55.5545 23.9178C54.5066 19.1712 51.3011 15.411 46.0614 12.8219C44.9518 12.2671 44.0271 11.8151 44.0066 11.7945C43.9039 11.774 44.6025 9.76027 44.7874 9.57534C45.0134 9.32877 48.0956 11.0548 50.1299 12.5548C51.0545 13.2534 52.6573 14.6507 53.6847 15.6781C55.1847 17.1986 55.76 17.9384 56.5203 19.4384C58.308 22.8904 58.8833 26.5274 58.123 29.5068C57.1367 33.3699 53.4998 38.3425 49.8833 40.8288C48.7326 41.6096 46.0408 42.9658 44.0682 43.7671C41.9313 44.6096 37.3902 45.9452 35.3148 46.3356C27.9176 47.7329 19.8217 46.1096 11.3559 41.5479C9.13673 40.3562 7.34906 38.8151 5.86961 36.8836C1.78057 31.4589 0.67098 26.2397 2.56139 21.2055C3.26002 19.3562 5.12988 16.5616 6.83536 14.8973C10.7806 10.9726 18.3628 7.5 24.7326 6.67808C27.5682 6.30822 32.0477 6.30822 34.3902 6.65754ZM43.3491 8.75343C43.4518 8.81507 43.3902 9.08219 43.2052 9.34932C43.0203 9.63699 42.7943 10.2123 42.6915 10.6233C42.445 11.6918 42.445 22.5411 42.7121 23.4041C42.8148 23.7945 42.8765 24.1644 42.8148 24.2055C42.6093 24.4315 41.4587 23.7534 41.3559 23.3425C41.2943 23.0959 41.2737 19.8493 41.3148 16.1096C41.3765 10.0479 41.4176 9.26712 41.7463 8.77397C42.0545 8.30137 42.1573 8.26027 42.6299 8.44521C42.9381 8.54795 43.2669 8.69178 43.3491 8.75343ZM35.7258 10.726C38.0066 11.0753 38.1915 11.1164 38.9724 11.3836C39.8765 11.6918 39.9998 12.0205 40.0203 14.3425C40.0408 15.8836 39.9998 16.0479 39.6915 15.9452C39.0751 15.7603 35.5614 15.2466 33.0751 14.9795C28.8422 14.5274 23.5819 15.1233 19.1847 16.5411C14.0477 18.2055 7.63673 22.6233 6.13673 25.5205L5.68468 26.4041L5.78742 25.274C5.97235 23.137 6.81482 21.2671 8.66413 18.9452C12.4655 14.137 19.3902 10.9521 27.3011 10.3973C29.0271 10.274 34.2258 10.4795 35.7258 10.726ZM45.5477 14.363C50.397 16.8082 53.6847 21.0205 54.3011 25.5822L54.445 26.6096L54.0545 25.7877C52.7395 23.0342 49.8422 20.5479 44.8902 17.9589L43.7395 17.363V15.4521C43.7395 14.4247 43.7806 13.5616 43.8422 13.5616C43.9039 13.5616 44.6641 13.9315 45.5477 14.363ZM33.9792 16.4589C34.6573 16.5616 36.26 16.8082 37.534 16.9932L39.8354 17.363V19.5822C39.8354 21.8014 39.8354 21.8219 39.3833 21.7192C36.2189 20.9384 27.671 20.589 24.4861 21.1233C22.5751 21.4315 20.1299 22.2123 17.5203 23.3219C12.7121 25.3767 10.6778 26.6712 7.76002 29.5274C6.5066 30.7603 6.17783 30.9863 6.05454 30.7192C5.5203 29.3014 6.99975 26.0753 9.21893 23.8356C10.4929 22.5822 11.9313 21.637 14.7669 20.2192C18.0545 18.5753 21.9381 17.1781 24.4244 16.726C24.8148 16.6644 25.5545 16.5411 26.0682 16.4384C27.3217 16.2329 32.4587 16.2329 33.9792 16.4589ZM45.5682 19.9521C48.9381 21.7808 51.5066 24.1233 52.9039 26.6301C53.8902 28.3973 54.4655 29.9589 54.3217 30.4315C54.1984 30.7808 53.8696 30.5137 52.1847 28.8082C50.1504 26.7534 47.2532 24.637 44.9313 23.5069L43.7395 22.9315V21.0205C43.7395 19.9726 43.8011 19.1096 43.8833 19.1096C43.945 19.1096 44.7052 19.5 45.5682 19.9521ZM35.0066 22.4178C37.1025 22.6849 39.0751 23.0548 39.3833 23.1986C39.5271 23.2808 39.7943 23.6712 39.9998 24.0616C40.4107 24.8836 41.1915 25.3151 42.5271 25.4384C43.308 25.5 43.534 25.4589 43.76 25.1096C44.0477 24.6986 44.0682 24.6986 45.0751 25.1918C47.3354 26.3219 51.9176 30.0205 52.9244 31.5616C53.2121 32.0137 53.1915 32.0959 52.4929 33.0616C52.0819 33.6164 50.9313 34.8493 49.9244 35.7945C48.5066 37.1507 47.6436 37.7671 46.0614 38.589C42.7737 40.274 38.5614 41.6096 34.3902 42.2877C33.26 42.4726 26.8285 42.4726 25.5545 42.2877C23.9518 42.0411 21.4039 41.3836 18.8559 40.5616C14.5819 39.1849 12.6299 37.9726 9.21893 34.5616L6.87646 32.1986L8.49975 30.6575C10.3285 28.9726 13.6367 26.6712 15.6299 25.726C17.8285 24.6575 21.9587 23.1986 24.1162 22.7055C25.8422 22.2945 26.7463 22.2329 29.8696 22.2329C31.9039 22.2329 34.2258 22.3151 35.0066 22.4178ZM58.5545 35.0753C58.1025 37.5822 55.76 41.4247 52.8833 44.3014C49.6367 47.589 43.9861 50.3425 36.7532 52.1507C34.7806 52.6438 34.2463 52.6849 30.3833 52.6849C26.5203 52.6849 25.9655 52.6438 23.6025 52.1301C20.171 51.3493 15.3833 49.7466 13.0614 48.5753C8.45865 46.2534 4.98605 42.8836 2.84906 38.6301C1.86276 36.6781 1.4929 35.4041 1.43125 33.9041L1.39016 32.5685L2.45865 34.3562C4.55454 37.8493 6.42441 40.089 8.64358 41.7329C11.7874 44.0753 19.5956 47.0753 24.4244 47.7945C24.8148 47.8356 25.6162 47.9795 26.171 48.1027C27.4244 48.3699 31.6367 48.3493 33.5682 48.0822C39.4861 47.2808 46.6984 44.7945 50.3148 42.3288C52.9039 40.5616 55.7395 37.4384 57.6093 34.274C58.5956 32.589 58.6367 32.5479 58.6984 33.2055C58.7395 33.5753 58.6573 34.4178 58.5545 35.0753ZM4.20523 43.1918C7.4929 47.1986 12.034 50.4041 16.2052 51.6575C24.2189 54.0616 30.8354 54.7603 36.034 53.7329C40.4929 52.8493 47.4792 50.3014 49.8217 48.6781C52.3902 46.911 55.7395 43.4384 57.7121 40.5411C58.1025 39.9452 58.4929 39.4521 58.5545 39.4521C58.8011 39.4521 58.2874 41.8356 57.7737 43.1301C55.9039 47.7945 51.7121 51.9658 45.3833 55.4178C40.986 57.8219 33.3011 59.0342 26.5819 58.3767C20.171 57.7397 14.1504 55.7877 9.79427 52.8699C7.88331 51.6164 5.08879 48.9452 4.04084 47.3836C2.5203 45.1849 1.20523 41.5685 1.20523 39.6781V38.9384L2.15043 40.3767C2.66413 41.1575 3.58879 42.4315 4.20523 43.1918Z" fill="#363636"/>
</svg>
