<svg width="62" height="62" viewBox="0 0 62 62" fill="none" xmlns="http://www.w3.org/2000/svg">
<path d="M53.6993 41.9676C53.1991 41.8654 52.7421 42.1331 52.247 42.1265C49.4192 42.0887 46.5906 42.0922 43.7638 42.0225C43.2759 42.0104 42.7951 42.0538 42.311 42.0441" stroke="#363636" stroke-linecap="round" stroke-linejoin="round"/>
<path d="M42.2344 19.1912C28.8844 19.1912 15.5345 19.1906 2.18452 19.1944C1.85331 19.1945 1.52212 19.2421 1.19092 19.2676" stroke="#363636" stroke-linecap="round" stroke-linejoin="round"/>
<path d="M7.9917 7.95508C7.9917 15.5219 7.9917 23.0888 7.9917 30.6556" stroke="#363636" stroke-linecap="round" stroke-linejoin="round"/>
<path d="M56.3701 53.4343C55.2237 53.4343 54.0773 53.4343 52.931 53.4343C42.0785 53.4343 31.2261 53.4343 20.3737 53.4343C16.6543 53.4343 12.935 53.4343 9.21559 53.4343C6.79545 53.4343 4.37531 53.432 1.95518 53.4376C1.70037 53.4382 1.44567 53.4852 1.19092 53.5107" stroke="#363636" stroke-linecap="round" stroke-linejoin="round"/>
<path d="M42.2344 30.6564C31.2028 30.6564 20.1713 30.6564 9.13974 30.6564C6.79586 30.6564 4.45197 30.6536 2.1081 30.6598C1.80231 30.6606 1.49664 30.7073 1.19092 30.7328" stroke="#363636" stroke-linecap="round" stroke-linejoin="round"/>
<path d="M53.6952 7.80273C53.364 7.82821 53.0329 7.87522 52.7017 7.87582C49.5937 7.88146 46.4857 7.87917 43.3778 7.87917C36.6778 7.87917 29.9775 7.91899 23.278 7.8625C19.8898 7.83393 16.5015 7.80204 13.1133 7.80724C9.39389 7.81295 5.67453 7.85229 1.9552 7.88223C1.70026 7.88428 1.44567 7.93013 1.19092 7.95561" stroke="#363636" stroke-linecap="round" stroke-linejoin="round"/>
<path d="M42.1579 41.9678C41.9129 42.0903 41.6496 42.0422 41.3936 42.0424C38.5657 42.0453 35.7377 42.0442 32.9098 42.0442C25.1648 42.0442 17.4197 42.0656 9.67481 42.0326C6.97449 42.021 4.27209 42.1662 1.57275 41.9722C1.44785 41.9632 1.3183 42.0187 1.19092 42.0442" stroke="#363636" stroke-linecap="round" stroke-linejoin="round"/>
<path d="M53.7764 1.07617C53.8219 3.41989 53.822 5.76651 53.8071 8.1077C53.796 9.86398 53.8316 11.6239 53.8001 13.3823C53.7262 17.5083 53.7764 21.6366 53.7764 25.764C53.7764 29.3563 53.7764 32.9487 53.7764 36.541C53.7764 41.662 53.7764 46.783 53.7764 51.904C53.7764 54.1715 53.788 56.4391 53.7688 58.7065C53.7637 59.3184 54.0045 59.9295 53.7764 60.5409" stroke="#363636" stroke-linecap="round" stroke-linejoin="round"/>
<path d="M30.9204 1.15308C30.9204 20.9237 30.9204 40.6943 30.9204 60.465" stroke="#363636" stroke-linecap="round" stroke-linejoin="round"/>
<path d="M19.4547 1.15283C19.3804 3.57272 19.3624 6.00025 19.3728 8.41365C19.3834 10.8806 19.4215 13.3568 19.4435 15.828C19.4831 20.2863 19.4547 24.7451 19.4547 29.2037C19.4547 31.5222 19.4547 33.8406 19.4547 36.1591C19.4547 41.382 19.4547 46.6049 19.4547 51.8278C19.4547 54.1972 19.4603 56.5667 19.4512 58.9361C19.4485 59.624 19.4037 60.3119 19.3782 60.9998" stroke="#363636" stroke-linecap="round" stroke-linejoin="round"/>
<path d="M42.3853 30.5796C42.6145 30.6051 42.8438 30.6524 43.0731 30.6527C46.3851 30.6575 49.6972 30.6575 53.0092 30.6527C53.2385 30.6524 53.4678 30.6051 53.697 30.5796" stroke="#363636" stroke-linecap="round" stroke-linejoin="round"/>
<path d="M42.2681 1C42.2808 1.25478 42.3046 1.50955 42.3047 1.76433C42.3068 7.31845 42.3063 12.8726 42.3063 18.4267C42.3063 22.2738 42.3063 26.1209 42.3063 29.9681C42.3063 33.5859 42.3063 37.2037 42.3063 40.8215C42.3063 47.4202 42.3063 54.0189 42.3063 60.6176" stroke="#363636" stroke-linecap="round" stroke-linejoin="round"/>
<path d="M42.3853 19.1147C42.7165 19.1402 43.0476 19.1876 43.3789 19.1879C48.4997 19.1926 53.6206 19.1883 58.7415 19.1946C59.4294 19.1954 60.1172 19.2421 60.8051 19.2676" stroke="#363636" stroke-linecap="round" stroke-linejoin="round"/>
<path d="M8.06828 30.8086C8.0428 31.1398 7.99531 31.471 7.9951 31.8022C7.99077 38.5283 7.99036 45.2544 7.99513 51.9805C7.99546 52.4391 8.0428 52.8977 8.06828 53.3563" stroke="#363636" stroke-linecap="round" stroke-linejoin="round"/>
<path d="M8.06968 53.5093C7.94417 56.0061 7.94558 58.5029 8.06968 60.9997" stroke="#363636" stroke-linecap="round" stroke-linejoin="round"/>
<path d="M60.8087 30.7325C58.4919 30.5676 56.1717 30.6977 53.8535 30.656" stroke="#363636" stroke-linecap="round" stroke-linejoin="round"/>
<path d="M60.8087 7.95563C58.4919 7.79073 56.1717 7.92082 53.8535 7.87919" stroke="#363636" stroke-linecap="round" stroke-linejoin="round"/>
<path d="M60.8087 42.0461C58.4903 42.2406 56.1719 42.0615 53.8535 42.0461" stroke="#363636" stroke-linecap="round" stroke-linejoin="round"/>
<path d="M7.99391 1.15308C7.99391 2.91103 7.99906 4.66901 7.99042 6.42692C7.98816 6.88564 7.94296 7.34414 7.91748 7.80273" stroke="#363636" stroke-linecap="round" stroke-linejoin="round"/>
<path d="M56.3731 53.2053C56.3712 53.7185 56.7648 53.4979 56.9847 53.5014C58.2582 53.5212 59.5322 53.5111 60.8061 53.5111" stroke="#363636" stroke-linecap="round" stroke-linejoin="round"/>
</svg>
