<svg width="104" height="64" viewBox="0 0 104 64" fill="none" xmlns="http://www.w3.org/2000/svg">
<path d="M48.8663 5.46919C48.4916 5.2601 48.0921 5.13408 47.6628 5.20442C45.4415 5.56841 44.053 4.4349 42.6638 2.83653C41.342 1.31582 39.3195 2.38448 37.6285 2.13213C36.8428 2.01488 36.6084 2.64703 36.2846 3.19084C33.8901 7.2118 31.4941 11.232 29.0644 15.2318C24.5146 22.7217 20.0634 30.2703 15.4611 37.7299C11.744 43.7547 8.06027 49.8078 4.52843 55.9415C3.42012 57.8663 2.09733 59.6206 0.976562 61.5172" stroke="#363636" stroke-linecap="round" stroke-linejoin="round"/>
<path d="M67.0559 57.6384C68.1829 58.1483 69.3768 57.8962 70.5336 57.8812C71.8236 57.8645 72.7961 58.2505 73.4852 59.3722C74.0178 60.2392 74.5431 61.1329 75.477 61.6506C76.6107 61.0425 76.9949 59.8488 77.4538 58.8261C79.2033 54.9278 81.2483 51.1794 83.1125 47.3405C88.1388 36.9899 93.1789 26.646 98.2285 16.3068C99.6724 13.3504 101.142 10.4057 102.654 7.48393C103.133 6.55771 103.235 5.92717 102.421 5.02384C101.565 4.07427 100.392 3.49153 99.6743 2.40723C99.4853 2.12154 99.0233 2.09885 98.6252 2.11657C97.9132 2.14829 97.193 2.18334 96.4865 2.11345C95.025 1.96886 94.0919 2.42337 93.3678 3.84366C91.6729 7.1677 90.1726 10.5829 88.4729 13.904C84.2394 22.176 80.0672 30.4794 75.8878 38.779C73.0178 44.4782 70.0589 50.1376 67.3911 55.9306C66.5221 57.8176 65.2861 59.3856 64.2436 61.1145C63.8106 61.8327 63.2091 62.0735 62.3677 61.8047C62.0035 61.6884 61.5713 61.7817 61.17 61.7858C60.0811 61.7971 59.2573 61.4859 58.6006 60.4653C56.9307 57.8702 56.8749 57.9199 53.8127 57.8969C52.9626 57.8905 52.0796 58.0942 51.271 57.6384" stroke="#363636" stroke-linecap="round" stroke-linejoin="round"/>
<path d="M100.238 3.46338C99.7431 3.78145 99.5445 4.3087 99.3027 4.80169C96.0011 11.5336 92.7221 18.2767 89.3967 24.9969C86.2128 31.4308 82.9881 37.8446 79.7687 44.2609C77.4168 48.9484 75.0444 53.6257 72.6812 58.3075" stroke="#363636" stroke-linecap="round" stroke-linejoin="round"/>
<path d="M57.443 3.46251C56.0023 4.80292 55.348 6.65057 54.3832 8.28894C51.321 13.4889 48.2963 18.7129 45.3063 23.9529C41.9019 29.9194 38.4755 35.8744 35.0877 41.8508C32.1227 47.0813 29.1421 52.3036 26.0908 57.4838C25.7131 58.125 25.7076 58.4782 26.1205 58.9801C26.244 59.1303 26.3028 59.3332 26.3937 59.5107C27.4148 61.5062 28.9178 62.3239 31.2223 61.8361C32.2108 61.6269 33.0308 61.4542 33.3428 60.4441C34.1027 57.9842 35.878 57.443 38.1722 57.7622C38.6536 57.8291 39.1552 57.8061 39.6425 57.7649C40.7044 57.675 41.4888 58.0653 42.0594 58.9711C42.4676 59.6192 42.9215 60.2422 43.3957 60.8444C44.1202 61.7644 47.0478 62.3375 48.0723 61.7807C48.1786 61.7229 48.2826 61.6218 48.3379 61.5151C49.251 59.7518 50.6715 58.3277 51.4644 56.4528C52.4403 54.1456 53.7342 51.9722 54.9013 49.7465C57.7082 44.3939 60.4761 39.0202 63.3423 33.6996C67.5909 25.8129 71.6333 17.8167 75.9997 9.99128C76.7445 8.6564 77.4039 7.2123 78.0242 5.78183C78.5099 4.66189 79.2682 3.48289 80.1818 2.51383C80.5107 2.16499 80.8462 2.11471 81.2656 2.1205C82.2469 2.1341 83.229 2.14589 84.2097 2.11817C84.9885 2.09616 85.4546 2.4461 85.9811 3.03311C87.0966 4.27687 88.1629 5.73506 90.2367 5.35869C90.8335 5.25039 91.4816 5.42443 92.1061 5.46902" stroke="#363636" stroke-linecap="round" stroke-linejoin="round"/>
<path d="M42.8464 3.73022C40.9592 6.28344 39.4281 9.06383 37.7789 11.7658C35.1338 16.0996 32.6068 20.5052 30.001 24.8632C25.1975 32.8964 20.396 40.9311 15.5457 48.9361C13.6675 52.0359 11.9176 55.218 9.80518 58.173" stroke="#363636" stroke-linecap="round" stroke-linejoin="round"/>
<path d="M71.7413 3.46338C70.1719 5.41647 69.2192 7.73156 68.0116 9.89303C62.2686 20.1732 56.5377 30.4606 50.8901 40.7933C47.741 46.5549 44.6477 52.3465 41.3755 58.0399" stroke="#363636" stroke-linecap="round" stroke-linejoin="round"/>
<path d="M85.9202 3.72998C84.2731 5.91806 83.205 8.43879 81.9323 10.833C76.877 20.3424 71.9144 29.9012 66.9266 39.4464C64.0633 44.9259 61.2155 50.4134 58.3657 55.8998C57.9626 56.6759 57.5924 57.4698 56.8921 58.039" stroke="#363636" stroke-linecap="round" stroke-linejoin="round"/>
<path d="M77.7601 5.73633C77.3588 5.60256 76.9252 5.29547 76.5614 5.36322C74.2415 5.79521 72.9332 4.42657 71.738 2.7953C71.4128 2.35156 70.926 2.14622 70.4026 2.1343C69.1101 2.10487 67.8165 2.12138 66.5234 2.12576C65.6356 2.12878 65.4473 2.92199 65.0566 3.46564C63.3458 5.84612 62.2892 8.59376 60.7931 11.1C59.3113 13.5821 58.0279 16.1819 56.6203 18.7094C52.8422 25.4935 49.0234 32.2551 45.2609 39.0479C42.5056 44.0223 39.8004 49.0246 37.1045 54.0315C36.5004 55.1535 35.4956 56.1007 35.4888 57.5038" stroke="#363636" stroke-linecap="round" stroke-linejoin="round"/>
<path d="M63.3423 5.46994C62.9284 5.21963 62.4676 5.11234 62.0055 5.21C59.8416 5.66738 58.4846 4.45275 57.3387 2.91424C56.8947 2.31816 56.4237 2.0694 55.7132 2.1185C55.1804 2.15532 54.6382 2.17215 54.1086 2.11742C52.2153 1.92184 51.0305 2.42444 49.9958 4.34777C48.4113 7.2934 46.7961 10.2477 45.0299 13.1088C41.5867 18.6862 38.4406 24.4422 35.1599 30.1158C32.0821 35.4384 28.9586 40.74 25.9896 46.128C24.3215 49.155 22.3893 52.0425 20.8315 55.122C19.8499 57.0627 18.6618 58.8544 17.5832 60.7228C17.2615 61.2801 17.0017 61.6637 16.2332 61.681C14.5327 61.7192 12.7363 62.3046 11.5454 60.45C11.4789 60.3463 11.3367 60.2856 11.2856 60.1783C10.1569 57.8098 8.16311 57.3348 5.79245 57.6306C5.24772 57.6985 4.68556 57.6842 4.1875 57.3715" stroke="#363636" stroke-linecap="round" stroke-linejoin="round"/>
<path d="M19.9731 57.6382C20.9623 58.1456 22.0245 57.8137 23.05 57.9044C23.8954 57.9791 24.7567 57.7581 25.5915 58.0395" stroke="#363636" stroke-linecap="round" stroke-linejoin="round"/>
</svg>
