<svg width="70" height="64" viewBox="0 0 70 64" fill="none" xmlns="http://www.w3.org/2000/svg">
<path d="M50.3284 2.18232C49.8301 2.30617 49.145 2.55387 48.8024 2.72416C48.3041 2.98735 42.6208 7.44596 28.716 18.5151C28.4201 18.7628 27.0188 19.862 25.6018 20.9611C19.9807 25.3578 17.2091 27.5562 16.0102 28.5624C13.8147 30.4202 12.8804 32.2779 12.7403 35.1265C12.6936 35.9935 12.6313 36.8449 12.6001 37.0307C12.5534 37.2165 11.4167 38.3002 9.9998 39.5232C3.86487 44.7559 3.69359 44.9571 3.02405 47.3877C1.88737 51.4902 4.39428 56.5836 8.55171 58.6271C11.5413 60.0823 14.6555 59.9585 17.1935 58.271C18.4236 57.466 19.2489 56.4907 20.0119 54.9271C20.37 54.2304 20.7126 53.6576 20.7593 53.6576C20.8216 53.6576 21.0395 54.1685 21.2264 54.8032C21.7091 56.3823 22.5188 57.6827 23.8112 58.9987C26.7073 61.9556 30.9893 62.838 34.3682 61.1506C35.1623 60.748 37.1865 59.2154 37.4045 58.8438C37.5135 58.6581 41.562 54.4472 46.4668 49.4003C47.7124 48.1153 49.4564 46.304 50.3595 45.3751C51.247 44.4308 52.6484 42.9755 53.4581 42.124C66.4598 28.516 66.3819 28.6089 66.9581 26.6892C67.3473 25.3888 67.3473 22.8344 66.9581 21.5339C66.5376 20.0942 65.7902 18.8402 64.7626 17.8184C63.6414 16.7038 62.6916 16.1774 61.0255 15.713C60.3404 15.5427 59.7643 15.3724 59.7332 15.3414C59.702 15.3259 59.9511 14.6912 60.2781 13.9326C60.8543 12.6012 60.8698 12.4929 60.8698 10.7744C60.8543 9.33467 60.792 8.8238 60.5117 8.06521C59.593 5.60369 57.2418 3.26601 54.7972 2.39906C53.6138 1.96558 51.5585 1.8727 50.3284 2.18232ZM54.8283 4.50452C58.3318 6.22294 59.92 10.0468 58.4719 13.2514C57.7868 14.7996 57.5065 15.0628 46.2332 25.172C33.652 36.4579 31.6589 38.2073 31.4409 38.1144C31.254 38.0525 31.2229 37.8048 31.3007 36.9069C31.6589 32.4792 28.2177 28.0825 23.4842 26.875C22.8146 26.7047 22.2385 26.5189 22.1918 26.4725C22.0205 26.3177 22.4876 25.9151 26.8475 22.4628C29.2921 20.5276 32.3751 18.0971 33.6987 17.0289C35.0222 15.9762 38.5256 13.1895 41.4685 10.8518C47.2609 6.23842 47.9616 5.66561 48.2419 5.43339C48.6778 5.0154 49.5654 4.47355 50.2816 4.14845C50.9512 3.8543 51.247 3.80785 52.3526 3.86978C53.4737 3.91623 53.8318 4.00911 54.8283 4.50452ZM60.8231 17.5862C63.2366 18.3293 64.7314 20.0477 65.2452 22.6641C65.6345 24.6766 65.2297 26.5034 63.9996 28.1444C63.6259 28.6553 62.4425 29.9558 61.3837 31.024C60.3249 32.1077 58.9079 33.5784 58.2228 34.306C50.6553 42.3408 39.9737 53.3635 39.5689 53.5647C39.2108 53.7505 38.9928 53.4718 38.9928 52.7752C38.9928 51.7534 38.4945 49.9731 37.8717 48.7036C36.5637 46.0563 33.9945 44.1211 30.8492 43.4554C30.0862 43.2851 29.4322 43.1149 29.3855 43.0839C29.2298 42.9136 29.6658 42.4801 32.9045 39.6316C36.0032 36.9223 38.4166 34.7704 45.0654 28.8101C46.4823 27.5407 48.8958 25.3423 50.4374 23.9335C56.401 18.4532 57.1951 17.772 57.8647 17.5398C58.7989 17.2147 59.6553 17.2301 60.8231 17.5862ZM23.7333 28.903C28.6848 30.3273 31.036 36.5972 28.2021 40.8236C26.8008 42.9291 24.0914 44.0437 21.5222 43.5948C18.6883 43.0994 16.0257 40.7462 15.0292 37.8977C14.6243 36.7056 14.5776 34.4763 14.9513 33.2068C15.4652 31.4729 16.7887 29.9867 18.5482 29.1507C20.1987 28.3921 21.7247 28.3147 23.7333 28.903ZM14.2351 40.6688C14.5776 41.2107 14.7956 41.7061 14.7178 41.7835C14.6399 41.8609 14.0482 41.7989 13.4098 41.6751C12.7558 41.5358 12.0552 41.4274 11.8372 41.4274C11.1209 41.4274 11.2143 41.0868 12.1953 40.1424C13.3164 39.0742 13.2385 39.0588 14.2351 40.6688ZM13.5032 43.5793C15.6365 44.3069 17.287 45.7931 18.2991 47.8831C18.8441 48.9977 18.953 49.3693 19.0153 50.4685C19.0776 51.258 19.0309 52.0785 18.9063 52.5894C18.4236 54.602 17.0378 56.4133 15.3562 57.1873C14.5465 57.5589 14.2974 57.6053 12.6624 57.6053H10.8562L9.5171 56.9396C5.65552 55.0354 3.67802 50.6697 5.06383 47.0935C5.70224 45.437 7.52403 43.8889 9.33025 43.44C10.3112 43.1923 12.6001 43.2697 13.5032 43.5793ZM22.1451 45.6073C22.7056 45.6073 22.7056 45.9944 22.1762 46.7684C21.9115 47.1555 21.5534 47.7902 21.3821 48.1618C20.9617 49.0906 20.8216 49.1371 20.6191 48.363C20.5101 47.9915 20.1831 47.2019 19.8562 46.6136C19.0309 45.0655 19.0932 44.9571 20.588 45.3132C21.242 45.4835 21.9427 45.6073 22.1451 45.6073ZM31.036 45.3751C34.5395 46.304 37.1243 49.586 37.1243 53.1158C37.1087 55.3141 36.3924 57.1564 35.0689 58.3949C32.344 60.9183 28.1243 60.6242 25.1347 57.6982C23.3596 55.9488 22.5188 53.7041 22.6901 51.1342C22.8769 48.2392 24.2783 46.3659 27.0032 45.3596C27.735 45.0965 30.0084 45.0965 31.036 45.3751Z" fill="#363636"/>
</svg>
