<svg width="76" height="64" viewBox="0 0 76 64" fill="none" xmlns="http://www.w3.org/2000/svg">
<path d="M69.6057 35.5101C62.9402 42.2384 56.3148 48.9268 49.6867 55.6125C47.9597 57.3544 46.1919 59.0581 44.5075 60.8394C43.7935 61.5945 43.0568 61.9178 41.9936 61.9053C37.2247 61.8491 32.4547 61.8738 27.6852 61.8858C26.5883 61.8885 25.4918 61.9678 24.3947 61.991C23.4394 62.0113 23.1536 61.7295 23.0871 60.8029C23.0595 60.4179 22.9899 60.0359 22.9236 59.5332C22.3646 60.0698 21.8518 60.4815 21.6973 61.1164C21.5467 61.7357 21.1943 61.8915 20.6021 61.8889C16.7169 61.8724 12.8314 61.8691 8.94618 61.8866C7.31304 61.894 5.68037 61.975 4.04713 61.9994C2.96529 62.0156 2.67186 61.7111 2.67174 60.629C2.67117 55.5312 2.68528 50.4334 2.66702 45.3357C2.66359 44.3791 2.99646 43.6965 3.77823 43.1039C7.60706 40.2013 11.397 37.2483 15.2153 34.332C15.6559 33.9955 15.767 33.6051 15.77 33.0964C15.7853 30.4952 15.8497 27.8939 15.8325 25.2931C15.8273 24.5063 16.1289 24.0043 16.74 23.5636C21.3954 20.2062 26.0399 16.8339 30.6879 13.4663C35.7035 9.83222 40.722 6.20207 45.7306 2.55846C46.2512 2.17969 46.7858 1.99833 47.4373 2.00001C53.4931 2.01561 59.5489 2.00916 65.6046 2.01148C66.883 2.01197 67.1028 2.22967 67.1035 3.49179C67.1057 7.20893 67.1247 10.9263 67.0885 14.6431C67.0808 15.4315 67.247 15.7494 68.1283 15.7911C69.4137 15.8521 70.6971 15.8541 71.9815 15.8727C73.009 15.8876 73.3178 16.1725 73.3252 17.2061C73.3378 18.9583 73.3231 20.7107 73.3232 22.4631C73.3234 25.1978 73.3184 27.9326 73.3336 30.6673C73.3375 31.3697 73.1309 31.9307 72.6066 32.4362C71.5894 33.4167 70.6289 34.4549 69.6057 35.5101ZM45.7608 42.8766C45.1118 43.4716 44.4657 44.0699 43.8123 44.6601C43.5379 44.908 43.4143 45.1919 43.4162 45.5708C43.4372 49.7926 43.4431 54.0145 43.4605 58.2363C43.4614 58.4585 43.3615 58.7148 43.5907 58.9049C43.8984 58.812 44.0638 58.5542 44.2656 58.3508C53.1305 49.4125 61.9902 40.4693 70.8589 31.5347C71.2057 31.1852 71.3478 30.821 71.3456 30.3343C71.3297 26.8291 71.3379 23.3238 71.3287 19.8186C71.3282 19.6033 71.4399 19.3431 71.1213 19.1194C62.7382 27.0522 54.3575 34.9958 45.7608 42.8766ZM41.0168 22.0774C48.3826 16.1055 55.7483 10.1336 63.2407 4.05915C62.8843 4.03552 62.727 4.01616 62.5697 4.01597C57.5856 4.0097 52.6016 4.00959 47.6176 3.99314C47.1781 3.99169 46.8543 4.17351 46.5248 4.41237C43.8654 6.33977 41.1994 8.25834 38.5412 10.1874C32.5766 14.516 26.6147 18.8482 20.6551 23.1837C20.4142 23.359 20.1209 23.5083 20.0271 23.8404C20.4414 24.079 20.8532 23.9969 21.2464 23.9975C26.0965 24.0051 30.9496 23.906 35.7954 24.0499C37.8651 24.1113 39.575 23.737 41.0168 22.0774ZM38.0483 30.8269C38.0476 29.4468 38.0242 28.0661 38.0565 26.6867C38.0712 26.0573 37.8304 25.8596 37.2096 25.8611C30.9953 25.876 24.781 25.8768 18.5668 25.8589C17.7994 25.8566 17.5559 26.1293 17.5613 26.893C17.5908 31.085 17.8426 35.2744 17.7245 39.4671C17.7059 40.1279 17.9738 40.2856 18.5776 40.2634C20.236 40.2025 21.8959 40.158 23.5554 40.1503C27.7071 40.1312 31.8589 40.1348 36.0107 40.1339C36.3311 40.1338 36.6532 40.1549 36.9715 40.1914C37.9662 40.3054 38.0442 40.2502 38.0459 39.2672C38.0508 36.5069 38.048 33.7466 38.0483 30.8269ZM56.9957 11.6268C51.5245 16.0701 46.0559 20.5163 40.5777 24.951C40.1292 25.3141 39.8856 25.6968 39.9223 26.2998C40.134 29.774 40.0476 33.2526 40.0367 36.73C40.0361 36.9293 39.9808 37.1654 40.2273 37.2855C40.4402 37.2804 40.5708 37.14 40.712 37.0196C43.027 35.0455 45.3465 33.0766 47.6556 31.0958C53.3275 26.2301 58.9917 21.3557 64.6699 16.4974C65.0402 16.1807 65.1368 15.8313 65.1356 15.3824C65.1284 12.6206 65.1379 9.85867 65.1376 7.09678C65.1375 6.42797 65.2728 5.75111 65.0605 5.03244C62.3688 7.23288 59.7259 9.39341 56.9957 11.6268ZM24.9661 53.1346C24.9661 55.099 24.9985 57.0643 24.9496 59.0275C24.9307 59.7869 25.15 60.0272 25.9358 60.0216C30.758 59.9872 35.5805 60.0026 40.4029 60.0019C41.5421 60.0018 41.5829 59.9698 41.5838 58.8477C41.5872 54.7595 41.5694 50.6712 41.6001 46.5832C41.6057 45.8353 41.3962 45.5599 40.6104 45.5644C35.681 45.5927 30.7514 45.5887 25.8219 45.5705C25.1606 45.568 24.9387 45.7851 24.9493 46.4449C24.9844 48.6212 24.9648 50.7984 24.9661 53.1346ZM5.29499 45.4815C4.59956 45.4414 4.54477 45.8754 4.54607 46.4132C4.5562 50.6066 4.57079 54.8003 4.53487 58.9934C4.52801 59.7938 4.75688 60.0299 5.57648 60.0311C10.0747 60.0376 14.5757 59.8694 19.0706 60.161C19.6615 60.1993 19.8822 59.9961 19.8823 59.4016C19.8827 55.0756 19.8946 50.7494 19.9331 46.4235C19.9394 45.7139 19.6036 45.5911 18.9978 45.5927C15.4087 45.6023 11.8194 45.5958 8.23026 45.5797C7.29392 45.5755 6.35781 45.5176 5.29499 45.4815ZM49.4463 36.8064C56.2363 30.4672 63.0264 24.128 69.8164 17.7888C68.6247 17.6207 67.5383 17.6088 66.4528 17.6341C66.2959 17.6377 66.1287 17.8036 65.9906 17.9222C61.92 21.4146 57.8624 24.922 53.7817 28.4028C49.5384 32.0223 45.2762 35.62 41.0145 39.2181C40.3711 39.7614 39.7755 40.2599 39.8947 41.2531C39.9881 42.0313 39.3618 42.2467 38.7194 42.2095C35.4798 42.0217 32.2349 42.2453 28.9993 42.0844C27.7491 42.0222 26.9906 42.515 26.3582 43.5128C26.5021 43.5297 26.6047 43.5507 26.7076 43.5524C31.6889 43.6331 36.6724 43.5456 41.652 43.752C42.0426 43.7682 42.3007 43.5551 42.5575 43.3125C44.8259 41.1691 47.0962 39.0278 49.4463 36.8064ZM16.4757 43.5906C17.5463 43.5914 18.6232 43.5212 19.6859 43.6132C20.7358 43.7041 21.3084 43.164 21.8958 42.3119C21.5189 42.294 21.2361 42.2747 20.953 42.2682C19.5367 42.2357 18.1215 42.2962 16.7031 42.1516C15.9242 42.0722 15.687 41.7388 15.6973 41.0398C15.7147 39.873 15.7109 38.7057 15.6949 37.539C15.6908 37.2381 15.8066 36.902 15.4864 36.5763C12.5666 38.8235 9.64962 41.0686 6.73259 43.3137C6.75622 43.4058 6.77985 43.4978 6.80347 43.5899C9.97393 43.5899 13.1444 43.5899 16.4757 43.5906ZM21.7568 49.1511C21.7568 52.0291 21.7568 54.9071 21.7568 57.9599C22.4466 57.3261 23.1127 56.9918 23.1051 56.076C23.0733 52.2531 23.0909 48.4298 23.0845 44.6067C23.0842 44.4328 23.1533 44.2385 22.985 44.0575C22.2031 44.6717 21.6097 45.3293 21.737 46.4451C21.8326 47.284 21.7566 48.1421 21.7568 49.1511Z" fill="#363636"/>
</svg>
