<svg width="82" height="64" viewBox="0 0 82 64" fill="none" xmlns="http://www.w3.org/2000/svg">
<path d="M41.0595 51.8437C37.9451 54.991 34.8838 58.0643 31.8528 61.1674C31.2802 61.7536 30.6808 62.0041 29.8543 61.9999C21.2212 61.9568 12.5879 61.9484 3.95475 61.9268C2.79287 61.9239 2.25945 61.4214 2.2511 60.2467C2.23139 57.4671 2.25522 54.6871 2.2364 51.9074C2.23211 51.2745 2.42162 50.7631 2.86276 50.3195C7.22489 45.933 11.6122 41.5728 16.0473 37.2592C20.6339 32.7982 25.1113 28.225 29.6369 23.7012C35.2954 18.045 40.9632 12.3981 46.6062 6.72652C47.8786 5.44776 49.0691 4.08733 50.2892 2.75706C50.7152 2.29261 51.2113 2.10172 51.8536 2.10372C60.1492 2.12945 68.4455 2.27573 76.7402 2.01053C77.2443 1.99442 77.7553 1.98914 78.2539 2.05205C79.1565 2.16594 79.7441 2.66352 79.7509 3.6188C79.7716 6.4826 79.7589 9.34663 79.7639 12.2106C79.7652 12.954 79.3445 13.4601 78.8459 13.937C76.8985 15.7998 74.8809 17.5964 73.0242 19.5459C63.4095 29.6414 53.3566 39.3018 43.6054 49.2614C42.7808 50.1037 41.9506 50.9407 41.0595 51.8437ZM66.7872 14.0103C69.8937 10.8538 73.0002 7.6973 76.2201 4.42559C75.818 4.34772 75.6565 4.2892 75.495 4.28909C67.9556 4.28385 60.4161 4.28874 52.8767 4.27459C52.1777 4.27328 51.6999 4.58252 51.2329 5.0531C46.2488 10.0748 41.2602 15.0921 36.2586 20.0963C28.8163 27.5425 21.4115 35.0262 13.822 42.3245C11.0951 44.9468 8.45799 47.6624 5.72061 50.3946C6.90649 50.8966 7.9961 50.5309 9.06411 50.5343C15.7612 50.5556 22.4584 50.5315 29.1555 50.5553C30.02 50.5584 30.6553 50.3018 31.2699 49.6832C43.0546 37.8227 54.8576 25.9804 66.7872 14.0103ZM39.4998 50.4082C46.7096 43.1544 53.9198 35.901 61.1291 28.6467C66.3804 23.3626 71.6299 18.0768 76.8821 12.7936C77.3009 12.3723 77.771 11.9542 77.7838 11.3242C77.817 9.7001 77.7949 8.07487 77.7949 6.40175C77.1904 6.55409 76.9531 6.97975 76.64 7.29304C66.3733 17.5643 56.1068 27.8357 45.8555 38.1222C41.4585 42.5342 36.9078 46.794 32.7006 51.3941C32.3347 51.7942 31.7972 52.1304 31.7863 52.7136C31.7545 54.4089 31.6018 56.1149 31.9418 57.912C34.4807 55.3883 36.9241 52.9595 39.4998 50.4082ZM20.4023 52.3847C15.4336 52.385 10.4647 52.4045 5.49616 52.3694C4.51007 52.3624 4.14618 52.6871 4.18251 53.6843C4.24379 55.3664 4.22382 57.0529 4.18511 58.7364C4.16653 59.5447 4.46406 59.8722 5.28332 59.8706C12.989 59.8558 20.6948 59.8539 28.4006 59.8718C29.2849 59.8739 29.5775 59.5199 29.5549 58.6614C29.5104 56.9783 29.4851 55.2902 29.5688 53.61C29.617 52.6445 29.2895 52.3542 28.3606 52.3697C25.7927 52.4124 23.2237 52.3848 20.4023 52.3847Z" fill="#363636"/>
</svg>
