<svg width="66" height="60" viewBox="0 0 66 60" fill="none" xmlns="http://www.w3.org/2000/svg">
<path d="M28.5761 0.124043C18.6871 0.994892 11.0236 3.89774 5.95327 8.6971C4.0761 10.4969 2.91497 12.045 1.94735 14.0577C0.708805 16.6896 0.689453 16.7864 0.689453 31.0103C0.689453 39.564 0.766862 44.1698 0.902328 44.8472C2.29569 51.5624 11.4687 57.3681 24.2025 59.5549C26.4086 59.9419 27.415 59.9806 32.524 60C38.7554 60 40.052 59.8839 44.8127 58.8195C47.7929 58.1422 50.2894 57.3487 52.7858 56.2263C58.0109 53.8847 62.6748 49.7239 64.5907 45.66L65.2293 44.3247L65.2874 30.7781C65.3454 18.6442 65.3067 17.096 65.0164 15.8768C64.1456 12.1999 61.5717 8.87127 57.5658 6.1813C53.3664 3.37523 47.3672 1.34324 40.439 0.375622C37.8265 0.0272789 31.2854 -0.127537 28.5761 0.124043ZM40.2649 2.52372C46.7285 3.37523 52.5536 5.3298 56.7143 8.05848C58.7076 9.35508 61.0105 11.658 61.9007 13.2642C62.7329 14.7737 63.3909 17.0379 63.3909 18.3926C63.3715 21.5277 61.6491 24.7788 58.398 27.7978C52.8245 32.9262 44.4837 35.9838 34.7882 36.4289L32.0208 36.545L32.0789 34.0486L32.1369 31.5521L35.33 31.436C43.3999 31.1264 49.3604 28.9783 53.5599 24.8756C54.8565 23.5984 55.3984 22.9017 55.8822 21.876C56.4821 20.5988 56.5208 20.4052 56.5208 18.3926C56.5208 16.3219 56.5014 16.2251 55.7854 14.735C55.2242 13.5352 54.721 12.8578 53.4631 11.6193C50.928 9.1035 48.0832 7.65208 43.1484 6.37483C35.8138 4.49766 28.1697 4.74924 21.1835 7.07151C17.4292 8.31005 14.6618 9.85824 12.6492 11.8322C9.30122 15.1027 8.54648 19.0893 10.6172 22.534C11.9525 24.7401 15.0488 27.0818 18.571 28.4945C20.8739 29.404 24.5508 30.4297 26.9892 30.8168C28.1697 30.9909 29.1373 31.2038 29.1373 31.2619C29.1373 31.436 26.2151 35.0356 26.0796 35.0356C23.9122 34.9775 19.7708 34.1647 16.7325 33.1777C11.1784 31.3973 5.66299 27.4108 3.94064 23.9661C3.03108 22.1663 2.76015 20.7536 2.85691 18.6829C3.03108 15.7026 4.17286 13.4578 6.97895 10.6323C11.7783 5.77491 19.2483 3.00753 29.8146 2.15603C31.7499 2.00121 38.0007 2.21409 40.2649 2.52372ZM39.7811 7.82625C43.9418 8.56163 47.6187 9.81953 49.883 11.3097C52.5923 13.0707 54.4307 15.6252 54.6243 17.9281C54.7984 19.7085 54.6243 19.844 53.7147 18.7022C52.1665 16.7477 48.5864 14.5802 44.9288 13.361C39.6456 11.5999 32.1369 11.1355 26.1958 12.1999C20.6997 13.1868 15.3391 15.722 12.6685 18.6442L11.5267 19.9021V18.9345C11.5267 13.4191 18.0485 9.02609 28.46 7.55532C31.1887 7.16827 36.8589 7.30374 39.7811 7.82625ZM38.6586 13.9609C45.6642 14.9092 51.3537 17.7153 53.3857 21.1793L53.7341 21.7599L53.018 22.5533C52.631 22.9791 52.2246 23.3274 52.1278 23.3274C52.0311 23.3274 51.586 23.0758 51.1409 22.7662C49.8636 21.8954 47.4059 20.7149 45.4513 20.0569C41.4647 18.6829 37.4781 18.1797 31.9434 18.3539C25.3056 18.5474 20.332 19.9408 16.0165 22.8049C15.2811 23.3081 14.5844 23.7145 14.4876 23.7145C14.3909 23.7145 13.9264 23.3274 13.462 22.8436L12.6105 21.9728L12.9394 21.3148C13.6748 19.7473 16.3261 17.6379 19.1515 16.38C21.6867 15.2382 25.4797 14.2512 28.7503 13.8642C31.2274 13.5932 36.2977 13.6319 38.6586 13.9609ZM38.0007 20.4439C40.2649 20.6955 42.9742 21.2567 44.9868 21.8954C46.4383 22.3598 49.5927 23.8499 50.3087 24.3918C50.657 24.6627 50.657 24.6821 50.2119 25.0498C49.3411 25.7852 46.7285 27.0431 46.3028 26.9463C46.0706 26.8882 44.8514 26.5786 43.5935 26.269C39.8972 25.3014 36.8976 25.0111 32.1563 25.1272C27.8214 25.2239 25.9248 25.4755 22.9833 26.3657C20.3514 27.1592 20.4675 27.1592 18.2033 26.0561C17.0808 25.5142 16.1713 24.9917 16.1713 24.9143C16.1713 24.7208 17.5259 23.908 19.1709 23.0758C21.4932 21.9341 25.5571 20.831 28.9438 20.4439C31.0725 20.2117 35.8332 20.1924 38.0007 20.4439ZM63.1973 27.5656C63.0812 28.3203 62.6168 29.5976 62.0942 30.6813C61.3202 32.2875 60.9525 32.7713 59.2495 34.4743C57.082 36.6224 55.1855 37.9578 52.2633 39.3705C48.8379 41.0348 44.9481 42.1765 40.5552 42.7765C38.0587 43.1442 28.6341 43.4151 28.3632 43.1442C28.2665 43.0474 28.9631 42.0024 29.9308 40.7832L31.6725 38.6157H33.4529C38.1942 38.6157 45.0255 37.2611 49.7475 35.3839C55.4758 33.1003 60.2558 29.6363 62.52 26.0948L63.2941 24.8756L63.3521 25.5916C63.3909 25.9787 63.3134 26.8689 63.1973 27.5656ZM3.06978 26.0755C3.36007 26.8302 5.15983 28.8815 6.41773 29.8878C10.9268 33.5261 16.7712 35.8096 25.1314 37.1643L25.8474 37.2804V39.951C25.8474 41.4218 25.8087 42.6604 25.7507 42.7184C25.6152 42.8539 22.5769 42.2733 20.1191 41.6347C11.5461 39.4672 5.2953 35.1517 3.37942 30.1201C2.99237 29.0751 2.56662 25.8432 2.83756 25.8432C2.91497 25.8432 3.01173 25.9593 3.06978 26.0755ZM37.8652 27.1979C40.0133 27.4108 43.0322 27.9139 43.3419 28.1268C43.6902 28.3397 39.6069 29.0944 36.8589 29.346C33.1432 29.675 29.9308 29.3847 24.6476 28.2236C24.3379 28.1655 24.1057 28.0494 24.1057 27.972C24.1057 27.8559 27.0086 27.3721 29.0405 27.1205C30.3952 26.9657 36.0267 27.0237 37.8652 27.1979ZM63.1973 35.7129C62.7716 37.6868 61.7266 39.4866 59.83 41.4605C55.4371 46.0664 48.5864 49.066 39.2973 50.4593C36.6653 50.8464 28.46 50.7883 25.7507 50.3626C17.2937 49.0466 10.2882 45.9889 6.20485 41.8282C3.92128 39.5253 2.8182 37.0869 2.8182 34.455L2.83756 33.4874L3.24395 34.0679C4.83084 36.2548 8.14008 38.9447 10.9849 40.3768C17.4485 43.6473 24.7637 45.2342 33.3948 45.2729C38.0587 45.2923 40.0133 45.0794 44.4256 44.0924C49.0702 43.0668 53.7341 41.1509 57.2949 38.7899C59.1914 37.532 61.7072 35.1517 62.6168 33.739L63.2941 32.6939L63.3521 33.6615C63.3909 34.2034 63.3134 35.1323 63.1973 35.7129ZM30.2984 35.2871V37.203L29.0986 38.7899L27.8794 40.3574L27.8214 38.3254L27.7633 36.2741L28.8857 34.842C29.505 34.0486 30.0662 33.41 30.163 33.3906C30.2404 33.3906 30.2984 34.2421 30.2984 35.2871ZM63.0232 44.015C62.5006 45.718 61.3202 47.4791 59.4236 49.3562C57.4884 51.2915 55.5145 52.6461 52.7084 54.0008C49.0702 55.7425 44.832 56.981 40.0907 57.6971C37.362 58.1035 30.55 58.2583 27.6859 57.9874C16.539 56.9036 6.49514 52.0075 3.68906 46.2792C3.03108 44.9439 2.64403 43.0861 2.64403 41.325V40.6477L3.05043 41.2283C3.90193 42.3894 6.05004 44.4795 7.50146 45.5826C11.8944 48.8918 18.9774 51.485 26.428 52.472C29.6985 52.8977 35.7751 52.9171 39.007 52.472C46.3995 51.485 52.4568 49.4917 56.7917 46.6082C58.6302 45.3697 61.475 42.7378 62.5781 41.2476L63.2941 40.2607L63.3521 41.4992C63.3909 42.3314 63.2747 43.1442 63.0232 44.015Z" fill="#363636"/>
</svg>
