<svg width="60" height="64" viewBox="0 0 60 64" fill="none" xmlns="http://www.w3.org/2000/svg">
<path d="M24.7801 2.09584C24.5852 2.18443 22.8312 3.67274 20.8822 5.39137C18.9332 7.11 16.5413 9.21843 15.5668 10.0512C14.6101 10.9016 12.856 12.4608 11.7043 13.5416C9.29469 15.7563 7.4166 17.3687 4.47543 19.7429C3.34148 20.6642 2.34928 21.5501 2.27841 21.7273C2.10123 22.1525 2.1721 58.1552 2.34928 58.3324C2.49103 58.4741 7.5229 59.0234 16.1869 59.8739C18.1891 60.0688 20.8113 60.3522 22.0338 60.494C25.4357 60.8838 36.2967 62 36.8106 62C37.1649 62 38.1926 61.1318 41.3109 58.1552C43.5256 56.0468 46.5377 53.2474 47.9905 51.9362C49.4611 50.6074 52.2606 47.9674 54.245 46.0362L57.824 42.5458L57.8063 38.8604C57.7708 34.2892 57.7531 34.1298 56.9381 33.9703C56.6014 33.8994 52.6149 33.5096 48.0791 33.1199C39.3974 32.358 34.0111 31.791 33.515 31.6138C33.3556 31.543 33.0898 31.2949 32.9303 31.0646C32.6646 30.6571 32.6469 29.2396 32.6469 16.6599C32.6646 5.78116 32.6114 2.6451 32.4342 2.50336C32.3279 2.41476 31.1408 2.29074 29.8297 2.21987C28.5186 2.149 26.924 2.06041 26.2861 2.02497C25.6483 1.97182 24.975 2.00726 24.7801 2.09584ZM28.0225 3.90307C29.0147 3.92078 29.8297 3.99166 29.812 4.04481C29.812 4.09797 29.3868 4.48776 28.8907 4.87755C28.3769 5.28506 25.418 7.81872 22.2996 10.5296C19.1813 13.2404 15.0353 16.8371 13.0863 18.5026L9.54274 21.5324L7.45203 21.4261L5.36132 21.3375L7.7178 19.2999C9.01121 18.1837 11.4386 16.0221 13.0863 14.4984C14.7518 12.9746 17.0551 10.9193 18.2245 9.94487C19.3939 8.95266 21.5023 7.16316 22.9197 5.94062C24.7624 4.34602 25.5951 3.74361 25.8432 3.79676C26.0381 3.8322 27.0126 3.88535 28.0225 3.90307ZM30.9814 18.3786V31.4367L27.5441 34.5373C25.6483 36.2382 21.1657 40.2956 17.5689 43.5203C13.9899 46.7626 11.031 49.4203 10.9956 49.4203C10.9602 49.4203 10.8716 43.786 10.8007 36.9115C10.7298 30.0192 10.6413 24.066 10.5881 23.6585L10.4818 22.9321L12.9446 20.8591C14.2911 19.7251 18.8623 15.774 23.0969 12.0533C27.3315 8.35025 30.8396 5.3205 30.8928 5.30278C30.9459 5.30278 30.9814 11.1851 30.9814 18.3786ZM6.4244 23.1801C7.70008 23.251 8.79859 23.3573 8.86946 23.4282C8.94033 23.499 9.08208 29.7535 9.17067 37.3367L9.36556 51.1035L9.79079 51.6882C10.3578 52.4323 11.474 52.9462 12.9446 53.1588C14.4329 53.3537 25.3117 54.4876 27.2606 54.6471C28.554 54.7534 33.4973 55.3026 35.2868 55.5507L36.031 55.6393V57.9426C36.031 59.2006 36.0133 60.2282 35.9955 60.2282C35.9601 60.2282 32.3988 59.8739 28.0579 59.4309C11.4917 57.7654 4.17422 56.9504 3.97933 56.7732C3.92617 56.7024 3.8553 50.6251 3.8553 43.2545C3.83758 35.8838 3.81987 28.3183 3.80215 26.4756C3.78443 24.6153 3.76671 23.0384 3.78443 22.9675C3.78443 22.8789 3.8553 22.8789 3.96161 22.9321C4.0502 22.9852 5.16643 23.0915 6.4244 23.1801ZM34.0466 33.2262C36.2436 33.5628 45.386 34.5727 50.5596 35.0688C52.7567 35.2814 54.7765 35.5118 55.0423 35.5649C55.5206 35.6889 55.3789 35.8307 51.7645 39.0908C49.6915 40.9512 45.3329 45.0617 42.0905 48.2332C38.1926 52.0071 36.0664 53.9561 35.8892 53.9206C35.7121 53.8852 30.2904 53.2828 23.8056 52.5918C17.3209 51.9008 11.9701 51.2807 11.8992 51.2098C11.8106 51.1389 13.1395 49.8633 14.805 48.3572C17.8701 45.611 25.9672 38.258 29.8829 34.679C31.0345 33.616 32.0622 32.8009 32.1508 32.8718C32.2393 32.925 33.0898 33.0844 34.0466 33.2262ZM55.3966 42.7407C54.936 43.219 53.554 44.4947 52.3314 45.5755C51.1089 46.6563 47.7248 49.7747 44.8013 52.5209C41.8779 55.2672 39.0607 57.8895 38.5646 58.3501L37.6256 59.2183V57.0744V54.9483L42.7461 49.9164C45.5632 47.1347 49.7092 43.1659 51.9594 41.0752C54.2095 39.0022 56.0699 37.2127 56.0876 37.1064C56.1053 37.0178 56.1585 38.0454 56.1762 39.392L56.2471 41.8725L55.3966 42.7407Z" fill="#363636"/>
</svg>
