<svg width="52" height="64" viewBox="0 0 52 64" fill="none" xmlns="http://www.w3.org/2000/svg">
<path d="M30.6627 2.23932C30.3892 2.37606 28.7311 3.65812 26.9875 5.11111C25.2439 6.547 19.0901 11.6068 13.3123 16.3419C7.53451 21.0769 2.66271 25.094 2.50886 25.2821C2.21827 25.6068 2.20117 26.7179 2.20117 43.5556V61.4701L2.57724 61.7265C2.91912 61.9658 4.14989 62 12.5089 62H22.0644L23.3807 60.7521C24.0986 60.0684 27.1755 57.1282 30.2354 54.2222C33.2952 51.3162 36.8337 47.9316 38.0986 46.7009C39.3636 45.4701 42.4576 42.5128 44.9704 40.1368C47.5516 37.6752 49.6029 35.5897 49.7054 35.3333C49.7909 35.0598 49.8251 33.641 49.7738 32.0171C49.6713 29.3675 49.6542 29.1453 49.3123 28.9744C49.073 28.8376 47.9277 28.8205 45.62 28.8889C41.9106 29.0085 41.7054 28.9744 41.0559 28C40.6627 27.4188 40.6627 27.3504 40.6627 22.0684V16.7179L44.0473 13.6752C45.8935 12.0171 47.8422 10.2735 48.355 9.81196C48.8678 9.35043 49.3807 8.76923 49.5003 8.51282C49.6371 8.22222 49.7054 7.07692 49.7225 5.29914C49.7225 3.00854 49.6713 2.49572 49.449 2.2735C49.2097 2.03418 48.1499 2 40.1841 2C33.0046 2.01709 31.073 2.06837 30.6627 2.23932ZM46.5602 3.86324C46.5089 3.94872 45.0217 5.28205 43.261 6.82051C41.5003 8.34188 36.7653 12.4957 32.714 16.0171C28.6798 19.5556 24.714 22.9915 23.9277 23.6752L22.4918 24.906H13.9277C6.71399 24.906 5.41485 24.8718 5.61998 24.6667C5.75673 24.547 7.72254 22.9573 9.96186 21.1282C12.2183 19.2991 17.9448 14.6496 22.6969 10.7692L31.3465 3.72649L39.0046 3.7094C43.7054 3.7094 46.6285 3.77777 46.5602 3.86324ZM48.1841 6.25641V7.96581L45.1584 10.6667C43.4832 12.1367 40.8849 14.4786 39.3807 15.8462C35.449 19.4017 23.7396 29.7607 23.5516 29.8291C23.4661 29.8632 23.3978 29.094 23.3978 28.0171V26.1538L24.4747 25.2308C26.0302 23.8803 44.2012 8.01709 46.3037 6.17094C47.2952 5.29914 48.1157 4.58119 48.1499 4.5641C48.167 4.5641 48.1841 5.33333 48.1841 6.25641ZM39.2952 22.9744C39.2952 25.5897 39.3465 27.8803 39.3978 28.0855C39.5003 28.4786 38.0644 29.8462 23.0559 43.6068C15.4832 50.5812 13.5003 52.3932 12.1841 53.6752L10.7995 54.9915L10.355 54.6496C10.1157 54.4444 9.8251 54 9.72254 53.6581C9.61998 53.265 9.5516 49.4701 9.5516 43.4017C9.5516 32.9573 9.5516 32.9402 10.4918 32.3248C10.9191 32.0513 11.261 32.0342 15.8422 32.2393C18.5431 32.3419 21.1755 32.4786 21.6884 32.5299C22.4063 32.5983 22.7311 32.547 23.0901 32.3077C23.3294 32.1368 27.0217 28.906 31.2781 25.1111C35.5516 21.3333 39.0901 18.2393 39.1584 18.2393C39.2439 18.2393 39.2952 20.3761 39.2952 22.9744ZM21.5858 26.547C21.808 26.6325 21.8593 26.9915 21.8593 28.8034V30.9402L19.8593 30.8376C18.7482 30.7692 16.2183 30.6667 14.2525 30.6154C10.7995 30.4957 10.6285 30.5128 9.94476 30.8547C8.93621 31.3675 8.37211 32.188 8.18408 33.3846C8.09861 33.9487 8.04733 38.7179 8.08151 44.2222C8.1328 53.8291 8.14989 54.0855 8.49177 54.7692C8.93621 55.6239 9.5516 56.1197 10.4747 56.3761C11.1584 56.5641 15.0388 56.5128 19.1755 56.2393L20.8337 56.1368V58.3077V60.4615H12.2866L3.73963 60.4444V43.4359V26.4444H12.526C17.3636 26.4444 21.4319 26.4957 21.5858 26.547ZM44.2696 30.3761H47.073L46.0473 31.3675C41.4661 35.7265 29.0217 47.4017 22.5431 53.4017L21.2097 54.6496L18.167 54.8205C13.3978 55.094 12.9704 55.094 12.9704 54.9915C12.9704 54.9231 13.6371 54.2735 14.4576 53.5214C15.2952 52.7863 17.0388 51.1624 18.355 49.9487C19.6884 48.7179 22.6114 46.0342 24.8507 43.9487C27.1072 41.8803 31.5174 37.812 34.6456 34.9231L40.3379 29.6752L40.902 30.0171C41.4148 30.3419 41.7567 30.3761 44.2696 30.3761ZM48.355 33.1453L48.3379 34.906L42.526 40.4615C39.3123 43.5214 33.5003 49.0769 29.5858 52.8034L22.4576 59.5897L22.4063 57.6239L22.355 55.6581L24.1157 53.9829C25.0901 53.0769 29.3465 49.0769 33.6029 45.1111C37.8593 41.1453 42.8507 36.4273 44.714 34.6496C46.5772 32.8718 48.1499 31.4188 48.2354 31.4017C48.3037 31.4017 48.355 32.188 48.355 33.1453Z" fill="#363636"/>
</svg>
