<svg width="54" height="64" viewBox="0 0 54 64" fill="none" xmlns="http://www.w3.org/2000/svg">
<path d="M27.062 2.18358C26.7231 2.3022 26.3334 2.48859 26.2147 2.57332C25.198 3.36974 19.1994 8.18217 5.84666 18.9085C3.7624 20.586 2.67791 21.5688 2.50846 21.9586C2.30512 22.3653 2.20345 23.3142 2.11872 25.2459C2.01705 27.7877 2.03399 27.9911 2.35595 28.3808L2.69486 28.8044L6.47363 28.8892C10.981 28.9908 11.2691 29.0925 12.1164 30.7362C12.3875 31.2615 12.4044 31.9393 12.3197 38.7851C12.2689 43.1909 12.1672 46.5291 12.0655 46.9358C11.8283 47.8169 10.4388 49.0539 5.01634 53.1546C1.98316 55.4422 1.96621 55.4761 2.11872 58.7296C2.23734 60.8647 2.28817 61.1697 2.62707 61.5594L2.99987 62L14.8445 61.9492L26.6892 61.8983L28.7226 60.2716C29.841 59.3735 31.5694 57.8993 32.5861 57.0181C33.5859 56.137 34.8059 55.0694 35.2973 54.6627C36.5005 53.663 41.6009 49.3589 45.2442 46.2579C46.8878 44.8515 48.7687 43.2587 49.4466 42.7164C50.1074 42.1572 50.9377 41.3608 51.2936 40.9202L51.9375 40.1407L51.8528 37.4634C51.785 35.0741 51.7341 34.7691 51.4461 34.5488C51.0225 34.2438 50.7513 34.2099 46.3964 33.9388C43.0921 33.7185 42.6854 33.6677 42.4482 33.3796C42.2787 33.1593 42.211 32.8374 42.2787 32.4476C42.3296 32.1257 42.4143 28.2961 42.4821 23.9412L42.5838 16.0447L45.0239 14.0621C46.3625 12.9607 48.1248 11.5543 48.9382 10.9273C49.7516 10.3003 50.7344 9.43611 51.1411 8.99554L51.8528 8.21606V5.67429C51.8528 3.13251 51.8528 3.13251 51.3952 2.6411L50.9208 2.14969L39.3133 2.04802C29.6546 1.96329 27.6042 1.98024 27.062 2.18358ZM48.7179 3.64087C48.9043 3.72559 48.9721 3.79337 48.8535 3.79337C48.5993 3.81032 47.159 4.99648 44.5663 7.28408C43.3971 8.30079 42.0246 9.48695 41.5162 9.91058C41.0079 10.3342 39.9403 11.2492 39.1439 11.944C38.3475 12.6387 36.5852 14.1469 35.1957 15.2822C33.8231 16.4345 31.6202 18.2645 30.2985 19.366C28.9599 20.4844 27.7229 21.4502 27.5365 21.535C27.3331 21.6197 22.5207 21.6536 16.0307 21.6027L4.84689 21.518L6.2025 20.3996C6.93115 19.7896 8.3037 18.6882 9.23569 17.9426C10.1677 17.197 13.0992 14.8416 15.7596 12.6896C21.6904 7.91105 25.9606 4.53896 26.8587 3.92893L27.5365 3.47141L37.9577 3.48836C43.6852 3.48836 48.5315 3.55614 48.7179 3.64087ZM50.3277 6.25042V8.01272L49.3618 8.84303C48.8196 9.30055 47.2437 10.5884 45.8542 11.6898C44.4647 12.8082 42.5499 14.401 41.6179 15.2483C40.669 16.0786 38.9067 17.6037 37.7036 18.6373C36.4835 19.654 34.162 21.6536 32.5353 23.06C30.8916 24.4665 29.3496 25.7543 29.0954 25.9068L28.6379 26.2118V24.4495C28.6379 23.1617 28.7057 22.6025 28.8921 22.3314C29.0276 22.128 30.2985 21.0435 31.705 19.9082C35.2296 17.0614 41.2451 12.0118 44.3122 9.31749C47.2776 6.72488 50.0057 4.48812 50.1921 4.48812C50.2599 4.48812 50.3277 5.28455 50.3277 6.25042ZM41.0079 25.9576C41.0079 33.3796 40.974 34.0913 40.7029 34.498C40.3809 34.9725 37.1952 37.6837 31.4338 42.3606C27.6551 45.4276 25.8081 46.9527 24.0796 48.4269C23.5543 48.8844 22.5885 49.6639 21.9107 50.1723C21.2498 50.6806 19.9281 51.7821 18.9961 52.6124C17.4371 54.0188 17.2846 54.1036 17.1999 53.7647C17.1491 53.5444 17.1152 48.3083 17.1491 42.1064C17.1999 30.8548 17.1999 30.8378 17.5727 30.2448C18.3013 29.0756 18.5725 29.0078 23.2493 28.8553C25.9267 28.7705 27.5873 28.6519 27.8415 28.5333C28.0448 28.4147 28.5532 28.0588 28.9768 27.7199C30.756 26.2796 35.094 22.6364 36.2632 21.5858C38.4153 19.654 40.5673 17.8917 40.8045 17.8748C40.957 17.8748 41.0079 19.6032 41.0079 25.9576ZM27.0789 25.1951L27.1298 27.3302L23.4357 27.398C20.0467 27.4658 19.657 27.4997 18.725 27.8555C17.3524 28.3977 16.3865 29.3806 16.0307 30.5667C15.7935 31.3801 15.7596 32.9052 15.7596 42.9197V54.3408L16.1324 55.0016C16.3696 55.4253 16.7593 55.7811 17.1999 56.0014C17.8438 56.3064 18.2505 56.3403 22.1479 56.3403H26.4011L26.5028 56.8656C26.6723 57.7298 26.6045 59.6107 26.3842 60.1191L26.1808 60.5766L14.8784 60.6274C3.71157 60.6613 3.576 60.6613 3.49128 60.3224C3.28794 59.6277 3.38961 56.7301 3.60989 56.5437C3.72851 56.442 5.18579 56.3403 7.11754 56.3064C10.7438 56.2386 10.7438 56.2556 11.9977 55.0864C13.3364 53.8494 13.4211 53.5105 13.5736 48.2914C13.6414 45.7665 13.7262 40.8524 13.76 37.3617C13.8109 31.1768 13.7939 30.9904 13.455 30.2448C13.2517 29.8211 12.7942 29.1942 12.4383 28.8214C11.2013 27.5844 10.676 27.4488 7.11754 27.4319C5.38914 27.4319 3.83018 27.398 3.66073 27.398C3.35572 27.3641 3.33877 27.2455 3.44044 25.4323C3.50822 24.3648 3.60989 23.365 3.66073 23.2295C3.7624 22.9753 4.89773 22.9584 15.4037 22.9922L27.0281 23.0431L27.0789 25.1951ZM48.7518 35.6842L49.1754 35.8367L48.701 36.2095C48.4298 36.4298 47.5317 37.1584 46.6845 37.8701C45.8542 38.5818 44.9222 39.3443 44.6341 39.5646C43.7191 40.2932 40.1267 43.3434 39.1269 44.2245C37.5002 45.6818 34.7212 48.105 33.1284 49.4267C32.2981 50.1214 30.6883 51.5279 29.5699 52.5446C28.4515 53.5613 27.3501 54.5441 27.1467 54.7136C26.7909 55.0186 26.5028 55.0355 22.8427 55.0016C20.6737 54.9847 18.8097 54.9 18.6911 54.8322C18.5216 54.7475 18.6233 54.595 19.013 54.3069C19.3181 54.0866 20.2162 53.358 21.0126 52.6971C21.809 52.0362 24.2152 50.0367 26.3503 48.2744C28.5023 46.5121 31.9253 43.6653 33.9756 41.9369C36.026 40.2255 38.5847 38.0734 39.6522 37.1753C40.7198 36.2772 41.7196 35.4978 41.8551 35.43C42.2279 35.2775 48.2604 35.4978 48.7518 35.6842ZM50.4972 38.192C50.4972 39.0224 50.4463 39.8188 50.3955 39.9713C50.3446 40.1069 49.6329 40.7847 48.8365 41.4625C48.0232 42.1233 46.4473 43.462 45.3289 44.4109C44.2105 45.3599 42.4821 46.8171 41.4993 47.6305C40.5165 48.4608 38.3814 50.2909 36.7546 51.6804C35.1279 53.0868 33.1284 54.7983 32.2811 55.4931C31.4508 56.1878 30.1799 57.2723 29.4682 57.8993C28.7565 58.5262 28.1295 59.0515 28.0787 59.0515C28.0109 59.0515 27.9601 58.306 27.9601 57.4079V55.7642L28.6887 55.1203C29.5021 54.3747 34.7212 49.8503 39.72 45.5293C44.99 40.9711 50.1413 36.6839 50.3277 36.6839C50.4294 36.6839 50.4972 37.294 50.4972 38.192ZM12.2011 51.0365C12.2011 52.2904 12.1333 52.5954 11.7775 53.2224C11.5572 53.6121 10.998 54.1713 10.5574 54.4594C9.77793 54.9847 9.77793 54.9847 7.38867 54.9847C6.08389 54.9847 5.08412 54.9169 5.18579 54.8491C5.27052 54.7644 6.52446 53.7816 7.9648 52.6463C9.40514 51.5279 10.8624 50.3756 11.1844 50.0876C12.1164 49.2911 12.2011 49.3589 12.2011 51.0365Z" fill="#363636"/>
</svg>
