<svg width="70" height="60" viewBox="0 0 70 60" fill="none" xmlns="http://www.w3.org/2000/svg">
<path d="M69.0594 27.0858C68.8899 27.6581 63.7821 34.0374 62.8708 34.864C62.7224 34.97 61.4084 36.5595 59.9037 38.361C58.3989 40.1625 56.5974 42.3031 55.8768 43.1296C54.6264 44.5708 50.3452 49.7209 46.5515 54.3412C43.1393 58.4952 42.1643 59.5761 41.6981 59.7457C41.4649 59.8304 32.733 59.9152 22.3056 59.9364L3.37945 60L2.42573 59.5337C0.560661 58.6224 0.666631 59.5549 0.666631 44.3377L0.666631 30.9007L1.78991 29.8622C2.38334 29.29 4.46034 27.4249 6.38899 25.7082C8.31764 24.0127 10.8397 21.745 12.0054 20.6641C13.171 19.6044 15.0785 17.8877 16.2442 16.8492C17.4098 15.8107 18.9358 14.4331 19.6352 13.7972C27.4346 6.6125 34.1318 0.699398 34.8312 0.360294C35.5306 0.0423851 37.0354 -3.8147e-06 51.744 -3.8147e-06H67.8938L68.6144 0.720592L69.3349 1.44118L69.3138 13.9244C69.2926 22.1053 69.2078 26.6196 69.0594 27.0858ZM67.4699 4.47192L67.3215 3.30625L64.7783 6.16743C63.3795 7.73578 61.3236 9.96114 60.2216 11.1268C56.9789 14.5602 55.9828 15.6411 53.6514 18.2268C52.4434 19.562 51.0658 21.088 50.5783 21.6178C48.5649 23.7796 44.5169 28.2515 43.6055 29.3112L42.6518 30.4345L42.8637 42.9177C42.9909 49.7845 43.0969 55.4433 43.1393 55.4857C43.1816 55.5069 45.6825 52.5609 48.6921 48.9156C51.7228 45.2702 54.8595 41.5189 55.6649 40.5864C58.526 37.3649 66.7281 27.4461 67.1944 26.7043C67.6394 25.9837 67.6394 25.8142 67.6182 15.7895C67.597 10.1943 67.5335 5.10773 67.4699 4.47192ZM36.3572 1.80148C35.4459 1.94984 35.0856 2.24656 28.8334 7.94772C25.7602 10.7453 22.6235 13.6065 21.8606 14.2847C21.0976 14.9841 19.6776 16.2769 18.6815 17.1671C13.3618 21.9781 9.4833 25.4539 7.72421 26.9799L5.73198 28.7178L22.8567 28.8449C32.2668 28.9297 40.2569 29.0569 40.596 29.1416C41.0623 29.2688 41.2742 29.2264 41.4649 28.9721C41.5921 28.7813 42.8002 27.4461 44.1566 26.0261C45.4918 24.5849 48.0562 21.7874 49.8365 19.8163C53.4395 15.8107 56.4914 12.4832 59.0559 9.7492C59.9884 8.75309 61.9807 6.57011 63.4854 4.8746L66.2406 1.80148L51.6168 1.7379C43.5843 1.71671 36.7175 1.7379 36.3572 1.80148ZM41.0199 35.4786C40.9563 33.2533 40.8079 31.3034 40.702 31.1339C40.5536 30.8795 37.5229 30.8372 21.8818 30.7736C3.42184 30.7312 3.2099 30.7312 2.78602 31.1551C2.36214 31.5789 2.36214 31.8333 2.36214 44.3589L2.36214 57.16L2.91319 57.6687L3.46423 58.1773H22.1149C32.3727 58.1773 40.8503 58.1349 40.9351 58.0714C41.0411 58.0078 41.1682 57.4779 41.2106 56.9057C41.3166 55.6129 41.1894 41.0738 41.0199 35.4786Z" fill="#363636"/>
<path d="M38.6261 55.0189C38.5201 55.2732 38.3293 55.5275 38.2446 55.5911C37.8843 55.803 19.4668 55.9514 12.3668 55.7818C5.66951 55.6335 5.26682 55.6123 4.9913 55.2096C4.73698 54.8493 4.69459 53.175 4.73698 44.2523C4.80056 34.0157 4.82175 33.6978 5.22444 33.3163C5.62712 32.956 6.34771 32.9348 21.7133 33.0196C36.2523 33.1043 37.7995 33.1467 38.2022 33.4646C38.6261 33.8037 38.6261 34.0581 38.732 44.1888C38.7956 50.5045 38.7532 54.7433 38.6261 55.0189ZM31.8864 34.8846L26.8634 34.7363L24.7652 36.8133C19.6999 41.8362 8.29756 53.5989 8.29756 53.8108C8.29756 53.9803 12.388 54.0439 22.6035 54.0439H36.9094V44.5491V35.033L31.8864 34.8846ZM15.1856 34.7575H6.3901L6.3901 43.6589C6.3901 50.5257 6.45368 52.5604 6.64443 52.5604C6.79279 52.5604 8.38233 51.0132 10.205 49.1269C12.0065 47.2407 15.8426 43.2986 18.725 40.3738C21.6285 37.4703 23.9811 35.0118 23.9811 34.9058C23.9811 34.821 20.0178 34.7575 15.1856 34.7575Z" fill="#363636"/>
</svg>
