<svg width="30" height="30" viewBox="0 0 30 30" fill="none" xmlns="http://www.w3.org/2000/svg">
<path d="M15 0C23.2843 0 30 6.71573 30 15C30 23.2843 23.2843 30 15 30C6.71573 30 0 23.2843 0 15C0 6.71573 6.71573 0 15 0Z" fill="#7360F2"/>
<path d="M21.2907 7.95681C20.8649 7.55557 19.1442 6.27989 15.3115 6.26256C15.3115 6.26256 10.7918 5.98421 8.58851 8.04819C7.36202 9.30103 6.93057 11.1342 6.88506 13.4069C6.83955 15.6797 6.78067 19.9389 10.8008 21.0938H10.8047L10.8021 22.8561C10.8021 22.8561 10.7764 23.5696 11.2364 23.715C11.7928 23.8915 12.1193 23.3492 12.6506 22.7647C12.9421 22.4438 13.3448 21.9725 13.6482 21.6122C16.3976 21.8485 18.5122 21.3084 18.7524 21.2285C19.3075 21.0447 22.4488 20.6335 22.9597 16.3748C23.4871 11.985 22.7046 9.20833 21.2907 7.95681ZM21.7566 16.0599C21.3254 19.6159 18.7776 19.8394 18.3078 19.9933C18.108 20.0589 16.2508 20.5308 13.9154 20.3751C13.9154 20.3751 12.1751 22.5192 11.6316 23.0767C11.5467 23.1638 11.447 23.199 11.3804 23.1817C11.2868 23.1583 11.2611 23.0452 11.2621 22.8797C11.2636 22.6434 11.277 19.9513 11.277 19.9513C11.2749 19.9513 11.277 19.9513 11.277 19.9513C7.87627 18.987 8.07452 15.3619 8.11308 13.4637C8.15165 11.5654 8.50083 10.0103 9.53807 8.96438C11.4017 7.24046 15.2408 7.49806 15.2408 7.49806C18.4829 7.5125 20.0365 8.50957 20.3967 8.84359C21.5928 9.8895 22.2022 12.3923 21.7566 16.0589V16.0599Z" fill="white"/>
<path fill-rule="evenodd" clip-rule="evenodd" d="M15.3773 11.9286C15.3835 11.8065 15.4855 11.7127 15.605 11.7191C16.0523 11.7429 16.4244 11.8812 16.6894 12.161C16.9535 12.4398 17.0829 12.8293 17.1056 13.297C17.1115 13.4191 17.0194 13.523 16.8999 13.5291C16.7803 13.5351 16.6786 13.441 16.6726 13.3189C16.6532 12.9185 16.5456 12.646 16.3778 12.4688C16.2111 12.2927 15.9566 12.1811 15.5824 12.1612C15.4629 12.1548 15.371 12.0507 15.3773 11.9286Z" fill="white"/>
<path fill-rule="evenodd" clip-rule="evenodd" d="M15.0489 10.7355C15.0577 10.6136 15.1615 10.522 15.2809 10.5309C16.1912 10.5989 16.9238 10.9165 17.4575 11.5115L17.4576 11.5116C17.9855 12.1006 18.2363 12.8335 18.2181 13.693C18.2155 13.8152 18.1164 13.9122 17.9967 13.9095C17.877 13.9069 17.7821 13.8057 17.7847 13.6834C17.8008 12.9254 17.5825 12.3068 17.1378 11.8105C16.6944 11.3162 16.0746 11.0341 15.2493 10.9724C15.1299 10.9635 15.0402 10.8574 15.0489 10.7355Z" fill="white"/>
<path fill-rule="evenodd" clip-rule="evenodd" d="M14.666 9.60166C14.6669 9.47941 14.7646 9.38099 14.8843 9.38184C16.1422 9.39079 17.2055 9.81846 18.0591 10.6684C18.92 11.5254 19.3457 12.6921 19.3565 14.1412C19.3574 14.2635 19.2611 14.3633 19.1414 14.3643C19.0217 14.3652 18.9239 14.2669 18.923 14.1446C18.9129 12.7867 18.5173 11.7428 17.7565 10.9854C16.9886 10.2209 16.0352 9.83277 14.8813 9.82456C14.7616 9.82371 14.6652 9.72391 14.666 9.60166Z" fill="white"/>
<path d="M15.6369 16.273C15.6369 16.273 15.9416 16.2993 16.1056 16.0929L16.4255 15.6819C16.5798 15.4782 16.9521 15.3482 17.3167 15.5556C17.5899 15.7148 17.8552 15.8878 18.1115 16.074C18.3534 16.2557 18.8489 16.6779 18.8504 16.6779C19.0865 16.8814 19.141 17.1803 18.9803 17.4954C18.9803 17.4972 18.979 17.5004 18.979 17.502C18.802 17.8153 18.5773 18.0979 18.3133 18.3391C18.3102 18.3407 18.3102 18.3423 18.3074 18.3438C18.078 18.5395 17.8527 18.6508 17.6314 18.6776C17.5988 18.6834 17.5657 18.6855 17.5327 18.6839C17.4351 18.6849 17.338 18.6696 17.2452 18.6387L17.238 18.628C16.8971 18.5297 16.3278 18.284 15.3798 17.7498C14.8312 17.4444 14.3089 17.0921 13.8185 16.6966C13.5727 16.4985 13.3383 16.2861 13.1163 16.0606L13.0927 16.0364L13.069 16.0123L13.0454 15.9881C13.0374 15.9802 13.0297 15.9721 13.0217 15.9639C12.8008 15.7373 12.5929 15.4978 12.3989 15.2468C12.0118 14.7461 11.6668 14.2128 11.3676 13.6526C10.8446 12.6842 10.604 12.1033 10.5078 11.7546L10.4972 11.7472C10.4671 11.6524 10.4523 11.5533 10.4533 11.4536C10.4515 11.4199 10.4535 11.3861 10.4592 11.3528C10.4868 11.1272 10.5959 10.8969 10.7865 10.6619C10.7881 10.659 10.7896 10.659 10.7911 10.6559C11.0273 10.3863 11.304 10.1569 11.6109 9.9763C11.6124 9.9763 11.6155 9.97472 11.6173 9.97472C11.9258 9.8106 12.2184 9.86627 12.4175 10.106C12.419 10.1076 12.8317 10.6136 13.0088 10.8607C13.1912 11.1227 13.3606 11.3939 13.5164 11.6732C13.7195 12.0453 13.5923 12.4263 13.3927 12.5833L12.9903 12.91C12.7872 13.0775 12.8139 13.3887 12.8139 13.3887C12.8139 13.3887 13.41 15.6924 15.6369 16.273Z" fill="white"/>
</svg>
