<svg width="32" height="40" viewBox="0 0 32 40" fill="none" xmlns="http://www.w3.org/2000/svg">
<path d="M28.1001 39.8591H3.90014C2.90344 39.8581 1.94784 39.4618 1.24295 38.7572C0.538066 38.0525 0.14146 37.097 0.140137 36.1003V3.90035C0.14146 2.90366 0.538066 1.94819 1.24295 1.24353C1.94784 0.538883 2.90344 0.142594 3.90014 0.141602H28.1001C29.0967 0.142594 30.0522 0.538923 30.7569 1.24361C31.4616 1.9483 31.8579 2.90377 31.8589 3.90035V36.1003C31.8579 37.0969 31.4616 38.0524 30.7569 38.7571C30.0522 39.4618 29.0967 39.8581 28.1001 39.8591ZM3.90014 2.6416C3.56628 2.64193 3.24617 2.77462 3.00999 3.01057C2.7738 3.24653 2.6408 3.5665 2.64014 3.90035V36.1003C2.6408 36.4342 2.7738 36.7542 3.00999 36.9901C3.24617 37.2261 3.56628 37.3588 3.90014 37.3591H28.1001C28.4339 37.3588 28.7538 37.2261 28.9898 36.9901C29.2258 36.7541 29.3586 36.4341 29.3589 36.1003V3.90035C29.3586 3.56661 29.2258 3.24664 28.9898 3.01065C28.7538 2.77466 28.4339 2.64193 28.1001 2.6416H3.90014Z" fill="#E5E5E5"/>
<path d="M26.3527 11.7881H5.66016C5.4944 11.7881 5.33542 11.7222 5.21821 11.605C5.101 11.4878 5.03516 11.3288 5.03516 11.1631V5.53809C5.03516 5.37233 5.101 5.21335 5.21821 5.09614C5.33542 4.97893 5.4944 4.91309 5.66016 4.91309H26.3527C26.5184 4.91309 26.6774 4.97893 26.7946 5.09614C26.9118 5.21335 26.9777 5.37233 26.9777 5.53809V11.1631C26.9777 11.3288 26.9118 11.4878 26.7946 11.605C26.6774 11.7222 26.5184 11.7881 26.3527 11.7881ZM6.28516 10.5381H25.7277V6.16309H6.28516V10.5381Z" fill="#E5E5E5"/>
<path d="M8.81891 17.5484H5.66016C5.4944 17.5484 5.33542 17.4826 5.21821 17.3653C5.101 17.2481 5.03516 17.0892 5.03516 16.9234V13.7646C5.03516 13.5989 5.101 13.4399 5.21821 13.3227C5.33542 13.2055 5.4944 13.1396 5.66016 13.1396H8.81891C8.98467 13.1396 9.14364 13.2055 9.26085 13.3227C9.37806 13.4399 9.44391 13.5989 9.44391 13.7646V16.9234C9.44391 17.0892 9.37806 17.2481 9.26085 17.3653C9.14364 17.4826 8.98467 17.5484 8.81891 17.5484ZM6.28516 16.2984H8.19391V14.3896H6.28516V16.2984Z" fill="#E5E5E5"/>
<path d="M14.6637 17.5484H11.5C11.3342 17.5484 11.1753 17.4826 11.0581 17.3653C10.9408 17.2481 10.875 17.0892 10.875 16.9234V13.7646C10.875 13.5989 10.9408 13.4399 11.0581 13.3227C11.1753 13.2055 11.3342 13.1396 11.5 13.1396H14.6588C14.8245 13.1396 14.9835 13.2055 15.1007 13.3227C15.2179 13.4399 15.2838 13.5989 15.2838 13.7646V16.9234C15.2838 17.0883 15.2186 17.2465 15.1025 17.3636C14.9863 17.4806 14.8286 17.5471 14.6637 17.5484ZM12.13 16.2984H14.0387V14.3896H12.125L12.13 16.2984Z" fill="#E5E5E5"/>
<path d="M20.5091 17.5484H17.3491C17.1834 17.5484 17.0244 17.4826 16.9072 17.3653C16.79 17.2481 16.7241 17.0892 16.7241 16.9234V13.7646C16.7241 13.5989 16.79 13.4399 16.9072 13.3227C17.0244 13.2055 17.1834 13.1396 17.3491 13.1396H20.5091C20.6749 13.1396 20.8339 13.2055 20.9511 13.3227C21.0683 13.4399 21.1341 13.5989 21.1341 13.7646V16.9234C21.1341 17.0892 21.0683 17.2481 20.9511 17.3653C20.8339 17.4826 20.6749 17.5484 20.5091 17.5484ZM17.9741 16.2984H19.8841V14.3896H17.9741V16.2984Z" fill="#E5E5E5"/>
<path d="M26.3526 17.5484H23.1938C23.0281 17.5484 22.8691 17.4826 22.7519 17.3653C22.6347 17.2481 22.5688 17.0892 22.5688 16.9234V13.7646C22.5688 13.5989 22.6347 13.4399 22.7519 13.3227C22.8691 13.2055 23.0281 13.1396 23.1938 13.1396H26.3526C26.5184 13.1396 26.6773 13.2055 26.7945 13.3227C26.9118 13.4399 26.9776 13.5989 26.9776 13.7646V16.9234C26.9776 17.0892 26.9118 17.2481 26.7945 17.3653C26.6773 17.4826 26.5184 17.5484 26.3526 17.5484ZM23.8188 16.2984H25.7276V14.3896H23.8188V16.2984Z" fill="#E5E5E5"/>
<path d="M8.80621 23.3963H5.64746C5.4817 23.3963 5.32273 23.3305 5.20552 23.2133C5.08831 23.0961 5.02246 22.9371 5.02246 22.7713V19.6113C5.02246 19.4456 5.08831 19.2866 5.20552 19.1694C5.32273 19.0522 5.4817 18.9863 5.64746 18.9863H8.80621C8.97197 18.9863 9.13094 19.0522 9.24815 19.1694C9.36536 19.2866 9.43121 19.4456 9.43121 19.6113V22.7713C9.43121 22.8534 9.41505 22.9347 9.38364 23.0105C9.35223 23.0863 9.30619 23.1552 9.24815 23.2133C9.19012 23.2713 9.12122 23.3173 9.04539 23.3487C8.96956 23.3802 8.88829 23.3963 8.80621 23.3963ZM6.27246 22.1463H8.18121V20.2363H6.27246V22.1463Z" fill="#E5E5E5"/>
<path d="M14.6512 23.3963H11.4912C11.3254 23.3963 11.1665 23.3305 11.0493 23.2133C10.9321 23.0961 10.8662 22.9371 10.8662 22.7713V19.6113C10.8662 19.4456 10.9321 19.2866 11.0493 19.1694C11.1665 19.0522 11.3254 18.9863 11.4912 18.9863H14.6512C14.817 18.9863 14.9759 19.0522 15.0931 19.1694C15.2104 19.2866 15.2762 19.4456 15.2762 19.6113V22.7713C15.2762 22.9371 15.2104 23.0961 15.0931 23.2133C14.9759 23.3305 14.817 23.3963 14.6512 23.3963ZM12.1162 22.1463H14.0262V20.2363H12.1162V22.1463Z" fill="#E5E5E5"/>
<path d="M20.5002 23.3963H17.3364C17.1707 23.3963 17.0117 23.3305 16.8945 23.2133C16.7773 23.0961 16.7114 22.9371 16.7114 22.7713V19.6113C16.7114 19.4456 16.7773 19.2866 16.8945 19.1694C17.0117 19.0522 17.1707 18.9863 17.3364 18.9863H20.5002C20.6659 18.9863 20.8249 19.0522 20.9421 19.1694C21.0593 19.2866 21.1252 19.4456 21.1252 19.6113V22.7713C21.1252 22.9371 21.0593 23.0961 20.9421 23.2133C20.8249 23.3305 20.6659 23.3963 20.5002 23.3963ZM17.9664 22.1463H19.8752V20.2363H17.9614L17.9664 22.1463Z" fill="#E5E5E5"/>
<path d="M26.3399 23.3963H23.1812C23.0154 23.3963 22.8564 23.3305 22.7392 23.2133C22.622 23.0961 22.5562 22.9371 22.5562 22.7713V19.6113C22.5562 19.4456 22.622 19.2866 22.7392 19.1694C22.8564 19.0522 23.0154 18.9863 23.1812 18.9863H26.3399C26.5057 18.9863 26.6646 19.0522 26.7818 19.1694C26.8991 19.2866 26.9649 19.4456 26.9649 19.6113V22.7713C26.9649 22.9371 26.8991 23.0961 26.7818 23.2133C26.6646 23.3305 26.5057 23.3963 26.3399 23.3963ZM23.8062 22.1463H25.7149V20.2363H23.8062V22.1463Z" fill="#E5E5E5"/>
<path d="M8.81891 29.242H5.66016C5.4944 29.242 5.33542 29.1762 5.21821 29.059C5.101 28.9418 5.03516 28.7828 5.03516 28.617V25.457C5.03516 25.2913 5.101 25.1323 5.21821 25.0151C5.33542 24.8979 5.4944 24.832 5.66016 24.832H8.81891C8.98467 24.832 9.14364 24.8979 9.26085 25.0151C9.37806 25.1323 9.44391 25.2913 9.44391 25.457V28.617C9.44391 28.7828 9.37806 28.9418 9.26085 29.059C9.14364 29.1762 8.98467 29.242 8.81891 29.242ZM6.28516 27.992H8.19391V26.082H6.28516V27.992Z" fill="#E5E5E5"/>
<path d="M14.6637 29.242H11.5C11.3342 29.242 11.1753 29.1762 11.0581 29.059C10.9408 28.9418 10.875 28.7828 10.875 28.617V25.457C10.875 25.2913 10.9408 25.1323 11.0581 25.0151C11.1753 24.8979 11.3342 24.832 11.5 24.832H14.6588C14.8245 24.832 14.9835 24.8979 15.1007 25.0151C15.2179 25.1323 15.2838 25.2913 15.2838 25.457V28.617C15.2838 28.7819 15.2186 28.9402 15.1025 29.0572C14.9863 29.1743 14.8286 29.2407 14.6637 29.242ZM12.13 27.992H14.0387V26.082H12.125L12.13 27.992Z" fill="#E5E5E5"/>
<path d="M20.5091 29.242H17.3491C17.1834 29.242 17.0244 29.1762 16.9072 29.059C16.79 28.9418 16.7241 28.7828 16.7241 28.617V25.457C16.7241 25.2913 16.79 25.1323 16.9072 25.0151C17.0244 24.8979 17.1834 24.832 17.3491 24.832H20.5091C20.6749 24.832 20.8339 24.8979 20.9511 25.0151C21.0683 25.1323 21.1341 25.2913 21.1341 25.457V28.617C21.1341 28.7828 21.0683 28.9418 20.9511 29.059C20.8339 29.1762 20.6749 29.242 20.5091 29.242ZM17.9741 27.992H19.8841V26.082H17.9741V27.992Z" fill="#E5E5E5"/>
<path d="M26.3526 29.242H23.1938C23.0281 29.242 22.8691 29.1762 22.7519 29.059C22.6347 28.9418 22.5688 28.7828 22.5688 28.617V25.457C22.5688 25.2913 22.6347 25.1323 22.7519 25.0151C22.8691 24.8979 23.0281 24.832 23.1938 24.832H26.3526C26.5184 24.832 26.6773 24.8979 26.7945 25.0151C26.9118 25.1323 26.9776 25.2913 26.9776 25.457V28.617C26.9776 28.7828 26.9118 28.9418 26.7945 29.059C26.6773 29.1762 26.5184 29.242 26.3526 29.242ZM23.8188 27.992H25.7276V26.082H23.8188V27.992Z" fill="#E5E5E5"/>
<path d="M8.81891 35.0884H5.66016C5.4944 35.0884 5.33542 35.0226 5.21821 34.9054C5.101 34.7882 5.03516 34.6292 5.03516 34.4634V31.3047C5.03516 31.1389 5.101 30.98 5.21821 30.8627C5.33542 30.7455 5.4944 30.6797 5.66016 30.6797H8.81891C8.98467 30.6797 9.14364 30.7455 9.26085 30.8627C9.37806 30.98 9.44391 31.1389 9.44391 31.3047V34.4634C9.44391 34.6292 9.37806 34.7882 9.26085 34.9054C9.14364 35.0226 8.98467 35.0884 8.81891 35.0884ZM6.28516 33.8384H8.19391V31.9297H6.28516V33.8384Z" fill="#E5E5E5"/>
<path d="M14.6637 35.0884H11.5C11.3342 35.0884 11.1753 35.0226 11.0581 34.9054C10.9408 34.7882 10.875 34.6292 10.875 34.4634V31.3047C10.875 31.1389 10.9408 30.98 11.0581 30.8627C11.1753 30.7455 11.3342 30.6797 11.5 30.6797H14.6588C14.8245 30.6797 14.9835 30.7455 15.1007 30.8627C15.2179 30.98 15.2838 31.1389 15.2838 31.3047V34.4634C15.2838 34.6283 15.2186 34.7866 15.1025 34.9036C14.9863 35.0207 14.8286 35.0871 14.6637 35.0884ZM12.13 33.8384H14.0387V31.9297H12.125L12.13 33.8384Z" fill="#E5E5E5"/>
<path d="M26.3525 35.0884H17.3525C17.1868 35.0884 17.0278 35.0226 16.9106 34.9054C16.7934 34.7882 16.7275 34.6292 16.7275 34.4634V31.3047C16.7275 31.1389 16.7934 30.98 16.9106 30.8627C17.0278 30.7455 17.1868 30.6797 17.3525 30.6797H26.3525C26.5183 30.6797 26.6773 30.7455 26.7945 30.8627C26.9117 30.98 26.9775 31.1389 26.9775 31.3047V34.4634C26.9775 34.6292 26.9117 34.7882 26.7945 34.9054C26.6773 35.0226 26.5183 35.0884 26.3525 35.0884ZM17.9775 33.8384H25.7275V31.9297H17.9775V33.8384Z" fill="#E5E5E5"/>
<path d="M24.2876 9.97461C24.1218 9.97461 23.9629 9.90876 23.8457 9.79155C23.7284 9.67434 23.6626 9.51537 23.6626 9.34961V7.34961C23.6626 7.18385 23.7284 7.02488 23.8457 6.90767C23.9629 6.79046 24.1218 6.72461 24.2876 6.72461C24.4534 6.72461 24.6123 6.79046 24.7295 6.90767C24.8468 7.02488 24.9126 7.18385 24.9126 7.34961V9.34961C24.9126 9.51537 24.8468 9.67434 24.7295 9.79155C24.6123 9.90876 24.4534 9.97461 24.2876 9.97461Z" fill="#E5E5E5"/>
</svg>
