<svg width="214" height="56" viewBox="0 0 214 56" fill="none" xmlns="http://www.w3.org/2000/svg">
<rect width="66" height="56" fill="white"/>
<rect x="32" y="9.5" width="182" height="37" rx="3" fill="#161E4C"/>
<path d="M52.2656 35.5V20.0312H56.9766L58.2773 29.4619L59.5693 20.0312H64.3242V35.5H61.4941V24.3555L59.7188 35.5H56.9414L55.0605 24.3555V35.5H52.2656ZM70.1953 35.5V20.0312H76.3828V23.0195H73.3418V26.0342H76.2598V28.9434H73.3418V32.4854H76.585V35.5H70.1953ZM83.4404 35.5V23.002H81.6035V20.0312H88.3711V23.002H86.5342V35.5H83.4404ZM93.082 35.5L94.5762 20.0312H99.8232L101.291 35.5H98.3643L98.1445 33.0039H96.2812L96.0879 35.5H93.082ZM96.501 30.5342H97.9072L97.2305 22.668H97.0898L96.501 30.5342ZM106.74 35.5V20.0312H109.834V32.8633H113.016V35.5H106.74ZM126.955 31.0264V28.9873H131.49V31.0264H126.955ZM147.152 35.5L145.491 20.0312H148.515L149.367 29.7959L150.237 20.0312H153.12L153.946 29.7959L154.772 20.0312H157.831L156.144 35.5H152.435L151.661 28.0557L150.923 35.5H147.152ZM163.254 35.5V20.0312H169.441V23.0195H166.4V26.0342H169.318V28.9434H166.4V32.4854H169.644V35.5H163.254ZM178.846 35.6406C177.434 35.6406 176.414 35.2891 175.787 34.5859C175.166 33.8828 174.855 32.7637 174.855 31.2285V29.7168H177.914V31.6504C177.914 32.0078 177.967 32.2891 178.072 32.4941C178.184 32.6934 178.374 32.793 178.644 32.793C178.925 32.793 179.118 32.7109 179.224 32.5469C179.335 32.3828 179.391 32.1133 179.391 31.7383C179.391 31.2637 179.344 30.8682 179.25 30.5518C179.156 30.2295 178.992 29.9248 178.758 29.6377C178.529 29.3447 178.21 29.0049 177.8 28.6182L176.411 27.2998C175.374 26.3213 174.855 25.2021 174.855 23.9424C174.855 22.624 175.16 21.6191 175.77 20.9277C176.385 20.2363 177.272 19.8906 178.433 19.8906C179.851 19.8906 180.855 20.2686 181.447 21.0244C182.045 21.7803 182.344 22.9287 182.344 24.4697H179.197V23.4062C179.197 23.1953 179.136 23.0312 179.013 22.9141C178.896 22.7969 178.734 22.7383 178.529 22.7383C178.283 22.7383 178.102 22.8086 177.984 22.9492C177.873 23.084 177.817 23.2598 177.817 23.4766C177.817 23.6934 177.876 23.9277 177.993 24.1797C178.11 24.4316 178.342 24.7217 178.688 25.0498L180.472 26.7637C180.829 27.1035 181.157 27.4639 181.456 27.8447C181.755 28.2197 181.995 28.6592 182.177 29.1631C182.358 29.6611 182.449 30.2705 182.449 30.9912C182.449 32.4443 182.18 33.584 181.641 34.4102C181.107 35.2305 180.176 35.6406 178.846 35.6406ZM189.313 35.5V23.002H187.477V20.0312H194.244V23.002H192.407V35.5H189.313Z" fill="white"/>
<path d="M23.0912 3.9831C16.9136 7.15311 10.2418 9.29989 4.22895 10.0422L2.21094 10.283V12.7107C2.21094 20.1943 4.08481 28.1193 7.4207 34.9007C10.8802 41.963 16.4812 48.1024 23.0294 52.0549C25.2533 53.3991 24.9033 53.4593 28.3421 51.2523C34.252 47.4604 38.8646 42.3843 42.2211 35.9641C45.8247 29.1024 47.575 22.2809 47.8633 14.1352L47.9869 10.3031L45.2893 9.94192C39.4618 9.17951 32.6664 6.95248 26.8183 3.88279C25.8917 3.40127 25.0886 3 25.0474 3C25.0062 3 24.1208 3.44139 23.0912 3.9831Z" fill="white"/>
<path d="M23.0912 3.9831C16.9136 7.15311 10.2418 9.29989 4.22895 10.0422L2.21094 10.283V12.7107C2.21094 20.1943 4.08481 28.1193 7.4207 34.9007C10.8802 41.963 16.4812 48.1024 23.0294 52.0549C25.2533 53.3991 24.9033 53.4593 28.3421 51.2523C34.252 47.4604 38.8646 42.3843 42.2211 35.9641C45.8247 29.1024 47.575 22.2809 47.8633 14.1352L47.9869 10.3031L45.2893 9.94192C39.4618 9.17951 32.6664 6.95248 26.8183 3.88279C25.8917 3.40127 25.0886 3 25.0474 3C25.0062 3 24.1208 3.44139 23.0912 3.9831ZM33.6137 8.67793C37.6085 10.1426 43.6831 11.6272 45.7217 11.6272H46.2777V13.4329C46.2777 15.6399 45.9894 18.3685 45.4335 21.4984C44.0332 29.4635 40.5532 37.0475 35.7552 42.6452C33.2018 45.6346 28.7746 49.2861 25.8711 50.831L24.9239 51.3326L23.0912 50.189C12.301 43.3674 5.27914 30.9884 4.06421 16.6029C3.96125 15.359 3.85829 13.7339 3.85829 12.9715V11.6272H4.55842C5.67039 11.6272 9.25339 10.905 12.0745 10.1225C15.4104 9.17951 19.1993 7.73495 22.3911 6.17001L24.965 4.90602L28.0538 6.33051C29.763 7.13305 32.2546 8.17635 33.6137 8.67793Z" fill="#161E4C"/>
<path d="M22.9062 7.85569C17.9641 10.3034 11.9513 12.2897 7.19453 13.0521L5.71191 13.2929V14.7775C5.71191 21.9602 8.65656 31.3699 12.8573 37.7099C15.9255 42.3245 19.6321 45.956 24.1829 48.805L25.0478 49.3467L27.2717 47.9021C30.4429 45.8155 34.5201 41.8229 36.6616 38.673C39.4827 34.5199 41.9949 28.8821 43.1893 23.9866C43.8482 21.3182 44.4248 17.1851 44.4248 15.0986V13.2527L43.2511 13.1123C39.4004 12.6709 32.4609 10.4037 27.2305 7.89581C25.995 7.29391 24.986 6.81239 24.9654 6.83245C24.9654 6.83245 24.0388 7.29391 22.9062 7.85569ZM28.1777 11.2665C28.9396 11.4872 28.9808 11.5273 28.8573 12.1492C28.7543 12.711 28.7955 12.8113 29.2279 12.9317C29.8663 13.1323 30.6694 13.7543 30.9782 14.296C31.2871 14.8377 31.3283 16.1619 31.04 16.3425C30.9371 16.4027 30.8341 16.3625 30.8341 16.2622C30.8341 16.1418 30.6488 15.861 30.4223 15.6403C29.7839 15.0183 28.0954 15.0785 27.3952 15.7606C26.9422 16.202 26.8804 16.4027 26.9834 17.0848C27.1481 18.2886 28.4042 20.636 29.8045 22.3414C30.4634 23.164 31.1224 23.8863 31.2459 23.9665C31.6372 24.2073 32.5844 22.6223 33.2434 20.6561C33.717 19.2517 33.8199 15.1989 33.4493 13.6339C33.264 12.9116 33.1404 12.3097 33.161 12.2897C33.1816 12.2696 34.4171 12.6508 35.8997 13.1524C37.3823 13.6339 39.5445 14.2158 40.6976 14.4565L42.798 14.8979L42.6539 16.2221C42.5921 16.9444 42.4891 17.5864 42.4274 17.6466C42.2832 17.8071 38.9267 17.0648 37.1146 16.4629C36.1468 16.1418 35.3643 15.9412 35.3643 16.0415C35.3643 16.2823 37.9795 17.5463 40.2034 18.3488C41.336 18.7501 42.2832 19.1112 42.3038 19.1313C42.345 19.1514 42.2626 19.7332 42.1391 20.4354C41.9126 21.6593 41.892 21.6793 41.3566 21.559C40.6359 21.3784 37.3412 19.9539 36.2498 19.3319C35.7556 19.051 35.3643 18.9106 35.3643 19.0109C35.3643 19.2717 38.1442 21.2379 39.9357 22.221C40.8212 22.7026 41.5419 23.2041 41.5419 23.3045C41.5419 23.4048 41.3978 23.9866 41.2124 24.5885L40.883 25.692L39.9357 25.1503C38.3708 24.2675 35.9203 22.6424 35.3231 22.1007C34.2524 21.1376 34.7466 22.0405 36.0027 23.3446C36.9293 24.3277 39.4827 26.4143 40.4917 27.0162C40.5329 27.0362 40.3064 27.6983 39.9769 28.4808L39.4209 29.8852L38.8856 29.4438C38.5973 29.2031 37.3 27.9993 36.0027 26.7754C34.5201 25.3509 33.7787 24.7891 33.9847 25.1703C34.623 26.3742 36.5587 28.9222 37.6912 30.0457L38.8444 31.2094L38.206 32.5537C37.856 33.296 37.4853 33.8979 37.4029 33.8979C37.197 33.8979 34.9319 31.1292 33.6964 29.3636C33.1404 28.541 32.6256 27.8789 32.5638 27.8789C32.1726 27.8789 34.4171 32.2928 35.6938 34.0384L36.6204 35.3023L35.9821 36.4058C35.632 37.0077 35.2614 37.5093 35.1996 37.5093C34.7672 37.4692 32.3991 33.6973 31.3283 31.3499C30.7311 30.0658 30.6282 29.9254 30.7311 30.5875C31.1018 32.6941 32.7697 36.7268 33.9641 38.372C34.1906 38.693 34.3141 38.994 34.2524 39.0542C34.1906 39.1344 33.6552 38.9739 33.0786 38.693C31.7401 38.0911 30.4017 36.6466 29.5162 34.8609L28.8161 33.4565L28.6719 34.8609C28.569 35.8441 28.6102 36.4058 28.7955 36.7268C29.3721 37.8303 30.8959 39.5156 31.7607 40.0373C32.2755 40.3583 32.6874 40.6593 32.6874 40.7194C32.6874 41.0204 30.7929 42.6054 30.6694 42.4248C29.1456 40.258 28.3013 38.994 27.7453 38.031C27.3541 37.3689 27.0246 36.9275 26.9834 37.0479C26.8804 37.3488 28.0954 40.6191 28.9396 42.2643L29.6604 43.7089L29.1662 44.1101C27.6218 45.3942 26.5098 46.1566 26.3451 46.0563C26.2421 45.9961 26.0774 45.1133 26.0156 44.0901C25.8714 42.2643 25.3772 38.9137 25.1095 37.9106C25.0066 37.4892 24.9654 37.5695 24.8212 38.4122C24.4094 40.8599 24.0388 44.1302 24.0388 45.1735C24.0388 45.8155 23.977 46.3372 23.9152 46.3372C23.8534 46.3372 23.0297 45.7553 22.0825 45.0331L20.3734 43.749L21.0529 42.485C21.6913 41.2812 22.7826 38.5125 23.0915 37.2084C23.1739 36.8673 22.6385 37.5695 21.8766 38.8134C20.744 40.6191 19.9615 41.7828 19.3644 42.5051C19.282 42.6255 17.4493 40.8799 17.4493 40.6793C17.4493 40.5991 17.717 40.3984 18.0259 40.2379C18.8084 39.8367 20.2704 38.3921 20.9911 37.3287C21.5883 36.4058 21.6913 35.5431 21.3824 34.1989C21.2382 33.617 21.2177 33.617 20.5793 34.9211C20.2292 35.6434 19.5703 36.6466 19.1173 37.1482C18.2936 38.051 16.152 39.3351 15.9049 39.0742C15.8226 38.994 15.9667 38.6529 16.1932 38.3319C17.3258 36.8071 19.1379 32.2527 19.385 30.3868C19.4467 29.9454 19.4467 29.7649 19.3644 29.9856C18.9114 31.5505 16.7286 35.3826 15.2872 37.2084C14.9577 37.6096 14.9577 37.6096 14.587 37.1482C14.4017 36.8873 14.0722 36.3858 13.8663 36.0246L13.5163 35.3625L14.4223 34.0785C15.4519 32.654 16.1314 31.3699 17.1816 28.9824C17.9847 27.1366 17.9435 27.1767 16.3168 29.484C14.587 31.9718 12.9191 33.918 12.6926 33.7775C12.569 33.7173 12.2396 33.1355 11.9101 32.5135L11.3541 31.3699L12.4661 30.1661C13.0632 29.5241 14.0105 28.3404 14.5459 27.578C16.6874 24.4882 16.6051 24.4481 13.6604 27.2569C12.116 28.7216 10.7981 29.9053 10.7569 29.8451C10.6334 29.7247 9.60379 27.0362 9.66557 26.9961C10.3657 26.635 13.2074 24.3076 14.1546 23.3245C15.5343 21.9 15.6578 21.4586 14.4017 22.4217C13.9693 22.7627 12.6514 23.6455 11.4571 24.3678L9.31551 25.692L9.0684 25.1302C8.94485 24.8092 8.78012 24.2474 8.69775 23.8462L8.5742 23.144L10.3863 22.1007C13.7428 20.1545 16.2962 18.0278 13.5163 19.4924C12.0748 20.2348 8.73893 21.6593 8.43005 21.6593C8.22413 21.6593 8.14176 21.3784 7.87407 19.8335L7.72993 19.1112L9.35669 18.5494C11.21 17.9074 14.4635 16.3625 14.69 16.0215C14.793 15.8409 14.7312 15.8208 14.4429 15.9412C12.4661 16.7237 7.93585 17.8874 7.68874 17.6466C7.64756 17.5864 7.5446 16.9644 7.46223 16.2422L7.31809 14.918L9.76853 14.3763C11.8071 13.9148 15.5549 12.7712 17.0787 12.1292C17.3876 12.0088 17.3876 12.1292 16.9757 13.1725C16.3168 14.8979 16.3168 18.9708 16.9963 20.9571C17.4699 22.3615 18.376 23.8662 18.829 24.0067C19.1585 24.1271 19.2202 23.806 19.7968 19.5526C20.0851 17.446 20.4146 15.4196 20.5587 15.0384C21.1765 13.2929 22.7209 11.6477 24.1623 11.2263C25.0478 10.9856 27.2717 10.9856 28.1777 11.2665Z" fill="#161E4C"/>
<path d="M25.1709 12.6098C24.8208 12.7503 24.862 12.8105 25.521 13.0111C25.9328 13.1516 26.3652 13.3722 26.5094 13.5328C26.6947 13.7535 26.8183 13.7133 27.2301 13.3121C27.4978 13.0512 27.8273 12.8305 27.9508 12.8305C28.0538 12.8305 28.1567 12.7302 28.1567 12.6299C28.1567 12.3891 25.7887 12.3891 25.1709 12.6098Z" fill="#161E4C"/>
<path d="M27.333 23.0833C27.333 23.5648 27.786 24.0664 28.2391 24.0664C29.001 24.0664 29.001 23.8457 28.2391 23.3441C27.436 22.8024 27.333 22.7824 27.333 23.0833Z" fill="#161E4C"/>
<path d="M21.8351 23.4645C21.1144 23.8457 21.135 24.0664 21.8969 24.0664C22.1646 24.0664 22.4734 23.8858 22.597 23.6852C22.9882 22.9629 22.8647 22.9228 21.8351 23.4645Z" fill="#161E4C"/>
<path d="M24.0381 23.1437C24.0381 23.1838 24.2646 23.6051 24.5323 24.0666C25.0265 24.9093 25.0265 24.9093 25.2942 24.4478C25.4177 24.187 25.6854 23.7656 25.8502 23.5048C26.1385 23.0634 26.1385 23.0634 25.0883 23.0634C24.5117 23.0634 24.0381 23.1035 24.0381 23.1437Z" fill="#161E4C"/>
<path d="M19.8993 26.0329C20.0022 26.2134 20.2699 26.5344 20.4964 26.7351C20.8877 27.0762 20.9083 27.0762 21.2377 26.5946C21.7525 25.8322 21.6496 25.6717 20.6406 25.6717C19.7963 25.6717 19.7139 25.7118 19.8993 26.0329Z" fill="#161E4C"/>
<path d="M22.7819 26.4135C23.5438 27.8179 23.5438 27.8179 24.1203 26.7144L24.6557 25.6711H23.5232H22.3906L22.7819 26.4135Z" fill="#161E4C"/>
<path d="M25.4795 25.8524C25.4795 25.9527 25.706 26.4142 25.9737 26.8756L26.4473 27.6982L27.0033 26.7954C27.2916 26.3139 27.5387 25.8524 27.5387 25.7922C27.5387 25.732 27.0857 25.6718 26.5091 25.6718C25.9531 25.6718 25.4795 25.7521 25.4795 25.8524Z" fill="#161E4C"/>
<path d="M28.3623 25.932C28.3623 26.0925 28.5888 26.4135 28.8565 26.6543L29.3507 27.0957L29.7831 26.554C30.4009 25.7916 30.3391 25.6712 29.2889 25.6712C28.6506 25.6712 28.3623 25.7515 28.3623 25.932Z" fill="#161E4C"/>
<path d="M21.1553 28.4404C21.1553 28.5407 21.4024 28.8216 21.6907 29.1025L22.2261 29.584L22.6173 29.1025C23.1939 28.4203 23.1115 28.2799 22.0819 28.2799C21.5671 28.2799 21.1553 28.3601 21.1553 28.4404Z" fill="#161E4C"/>
<path d="M24.0381 28.38C24.0381 28.5405 24.9441 29.8848 25.0677 29.8848C25.1295 29.8848 25.3766 29.5236 25.6443 29.0822L26.1179 28.2797H25.0677C24.5117 28.2797 24.0381 28.3198 24.0381 28.38Z" fill="#161E4C"/>
<path d="M26.9209 28.4203C26.9209 28.5206 27.1062 28.8015 27.3327 29.0824L27.724 29.584L28.4035 28.9219L29.0831 28.2799H27.9917C27.4151 28.2799 26.9209 28.3401 26.9209 28.4203Z" fill="#161E4C"/>
<path d="M22.5967 30.9485C22.5967 31.109 22.8438 31.43 23.1321 31.7109L23.6469 32.1924L24.0381 31.6908C24.6765 30.9083 24.5529 30.6876 23.5233 30.6876C22.885 30.6876 22.5967 30.7679 22.5967 30.9485Z" fill="#161E4C"/>
<path d="M25.4795 30.8077C25.4795 31.0084 26.1796 32.0918 26.3032 32.0918C26.4473 32.0918 27.1886 31.3093 27.4151 30.9281C27.5181 30.7476 27.2916 30.6874 26.5297 30.6874C25.9531 30.6874 25.4795 30.7476 25.4795 30.8077Z" fill="#161E4C"/>
</svg>
