<svg width="84" height="64" viewBox="0 0 84 64" fill="none" xmlns="http://www.w3.org/2000/svg">
<path d="M44.9977 39.8727C44.9977 33.4956 44.9978 27.1184 44.9975 20.7413C44.9975 19.9509 44.8875 19.8376 44.0933 19.8376C30.6201 19.8367 17.1469 19.8367 3.67368 19.8375C2.90803 19.8376 2.83941 19.9067 2.83937 20.6718C2.83866 34.168 2.84069 47.6643 2.83399 61.1606C2.83361 61.9156 2.91872 62.0004 3.67369 62.0002C26.9561 61.9944 50.2385 61.9956 73.521 61.9949C74.3004 61.9949 74.3537 61.94 74.3553 61.1606C74.3574 60.1403 74.3574 59.1199 74.3553 58.0996C74.3537 57.3202 74.3004 57.2655 73.521 57.2653C68.3497 57.2643 63.1784 57.2652 58.0071 57.2639C57.6539 57.2639 57.2946 57.3072 56.9623 57.128C56.8897 57.0888 56.7917 57.0429 56.7214 57.0614C55.0308 57.5053 53.3109 57.2045 51.6064 57.2515C49.5672 57.3078 47.5253 57.2597 45.4847 57.2694C45.1159 57.2712 44.769 57.2255 44.4411 57.0561" stroke="#363636" stroke-width="1.5" stroke-linecap="round" stroke-linejoin="round"/>
<path d="M7.98735 24.8454C7.73487 24.8042 7.54923 24.8583 7.42433 25.1206C7.2726 25.4392 7.29226 25.767 7.29223 26.0976C7.29153 35.93 7.303 45.7623 7.27541 55.5946C7.27241 56.6634 7.72759 57.2591 8.96132 57.26C18.8401 57.2677 28.7189 57.2648 38.5977 57.2636C39.6482 57.2634 40.1272 56.7417 40.1274 55.5946C40.129 47.5943 40.1282 39.5939 40.1282 31.5935C40.1282 29.8543 40.0723 28.1126 40.1483 26.3768C40.1973 25.2586 39.7751 24.563 38.3194 24.5641C30.2031 24.5703 22.0867 24.5671 13.9703 24.5671C12.3702 24.5671 10.7701 24.5721 9.17004 24.5636C8.76928 24.5614 8.38729 24.5899 8.05692 24.8454" stroke="#363636" stroke-width="1.5" stroke-linecap="round" stroke-linejoin="round"/>
<path d="M68.0936 19.5584C70.3198 17.3554 72.6085 15.2113 74.7522 12.9307C76.4388 11.1363 78.2105 9.43071 79.9258 7.66765C80.4231 7.1566 80.805 6.59023 81.0308 5.92214C81.5072 4.51218 80.6603 3.00966 79.5704 2.37849C78.5036 1.76065 77.0773 1.88351 76.0951 2.86309C73.6569 5.2947 71.2375 7.74536 68.7845 10.1619C67.1835 11.739 65.7349 13.4647 64.0607 14.9693C63.9517 15.0672 63.873 15.1988 63.7803 15.3148" stroke="#363636" stroke-width="1.5" stroke-linecap="round" stroke-linejoin="round"/>
<path d="M39.6405 56.6385C39.1119 56.4102 38.8436 55.9041 38.4609 55.5223C33.7718 50.8429 29.0884 46.1576 24.4074 41.4701C24.2101 41.2725 24.0495 41.0383 23.8396 40.7817C23.3144 41.3085 22.8861 41.7389 22.4568 42.1682C17.8886 46.7367 13.3195 51.3043 8.75331 55.8748C8.46357 56.1648 8.19527 56.4762 7.91699 56.7777" stroke="#363636" stroke-width="1.5" stroke-linecap="round" stroke-linejoin="round"/>
<path d="M8.05762 24.915C8.14979 25.238 8.38814 25.4545 8.61407 25.6804C13.484 30.5501 18.3546 35.4191 23.2206 40.2927C23.3947 40.467 23.524 40.686 23.7046 40.9242C24.2905 40.3373 24.7655 39.861 25.2412 39.3853C29.7167 34.9097 34.193 30.4348 38.6665 25.9571C38.9562 25.6671 39.2245 25.3556 39.5028 25.0542" stroke="#363636" stroke-width="1.5" stroke-linecap="round" stroke-linejoin="round"/>
<path d="M60.9993 21.2979C58.9586 23.2921 56.9493 25.3199 54.8669 27.2697C53.3144 28.7233 52.6792 30.5548 52.3722 32.5679C52.213 33.6119 52.0481 34.655 51.8857 35.6985" stroke="#363636" stroke-width="1.5" stroke-linecap="round" stroke-linejoin="round"/>
<path d="M62.6678 22.8975C61.9257 23.6163 61.1803 24.3318 60.4423 25.0548C59.0484 26.4204 57.6819 27.815 56.26 29.1507C55.1597 30.1844 54.7912 31.486 54.5807 32.9128C54.419 34.0079 54.4151 35.1401 53.9717 36.185" stroke="#363636" stroke-width="1.5" stroke-linecap="round" stroke-linejoin="round"/>
<path d="M51.8835 35.7676C50.9923 35.9247 50.96 36.0365 50.8287 37.2273C50.6671 38.6934 50.4557 40.1562 50.2028 41.6094C50.0174 42.6748 50.4317 43.2472 51.5356 43.281C52.5762 43.3128 52.5874 43.3163 52.9244 42.2366C53.4445 40.5701 53.9455 38.8976 54.4586 37.2288C54.6327 36.6625 54.3681 36.2919 53.7619 36.2531C53.1276 36.2125 52.4844 36.1959 51.953 35.7676" stroke="#363636" stroke-width="1.5" stroke-linecap="round" stroke-linejoin="round"/>
<path d="M60.3032 50.4468C58.2161 50.4468 56.1291 50.4468 54.042 50.4468" stroke="#363636" stroke-width="1.5" stroke-linecap="round" stroke-linejoin="round"/>
<path d="M58.4928 42.9336C58.4843 43.0647 58.4706 43.1767 58.3577 43.2856C56.7517 44.8332 55.1494 46.3847 53.5595 47.9488C53.3971 48.1086 53.2378 48.067 53.0664 48.0817" stroke="#363636" stroke-width="1.5" stroke-linecap="round" stroke-linejoin="round"/>
<path d="M64.825 24.7064C66.0132 23.787 67.0418 22.6988 68.0125 21.565C68.6146 20.8617 68.3918 20.0149 67.6854 19.3412C66.4278 18.1421 65.211 16.8996 63.9936 15.6592C63.3594 15.013 62.0605 14.8577 61.4244 15.4625C60.5337 16.3093 59.6991 17.2152 58.8426 18.0979C58.5507 18.3988 58.6778 18.7125 58.9185 18.9244C59.8439 19.7389 60.5928 20.7229 61.5388 21.5257C62.4723 22.3179 63.2894 23.2521 64.1177 24.1605C64.3499 24.4151 64.7741 24.4955 64.825 24.9151" stroke="#363636" stroke-width="1.5" stroke-linecap="round" stroke-linejoin="round"/>
<path d="M43.0489 42.6553C43.0274 42.8171 43.0761 42.9607 43.1892 43.0715C44.8526 44.7011 46.3794 46.4672 48.1275 48.012" stroke="#363636" stroke-width="1.5" stroke-linecap="round" stroke-linejoin="round"/>
<path d="M48.8946 52.5337C48.4699 52.519 48.2547 52.8438 47.9899 53.0899C46.9085 54.0949 45.9825 55.2621 44.7914 56.1532C44.6545 56.2556 44.5554 56.3913 44.5091 56.568C44.3692 57.1029 43.9242 57.2386 43.4678 57.2546C42.5414 57.2871 41.613 57.2665 40.6854 57.2632C40.3624 57.262 40.087 57.133 39.8506 56.9165" stroke="#363636" stroke-width="1.5" stroke-linecap="round" stroke-linejoin="round"/>
<path d="M53.0664 52.7432C54.0033 53.9774 55.2268 54.9473 56.2057 56.1449C56.4232 56.4109 56.6221 56.6725 56.7536 56.9868" stroke="#363636" stroke-width="1.5" stroke-linecap="round" stroke-linejoin="round"/>
<path d="M51.329 43.3511C51.1017 44.7296 50.9744 46.1285 50.4941 47.4556" stroke="#363636" stroke-width="1.5" stroke-linecap="round" stroke-linejoin="round"/>
<path d="M50.6318 53.3682C50.6318 54.5972 50.6318 55.8263 50.6318 57.0553" stroke="#363636" stroke-width="1.5" stroke-linecap="round" stroke-linejoin="round"/>
<path d="M47.0835 50.3428C46.0686 50.5369 45.0428 50.4116 44.0225 50.4471" stroke="#363636" stroke-width="1.5" stroke-linecap="round" stroke-linejoin="round"/>
</svg>
