<svg width="86" height="64" viewBox="0 0 86 64" fill="none" xmlns="http://www.w3.org/2000/svg">
<path d="M37.1934 37.6373C39.6587 37.6373 42.124 37.6373 44.5871 37.6373C44.5871 27.694 44.592 17.8781 44.58 8.06229C44.5787 7.00124 45.0691 6.37707 46.2444 6.3821C55.8051 6.42294 65.366 6.40569 74.9269 6.40372C75.6068 6.40358 76.2593 6.61401 76.9747 6.43823C77.6159 6.28068 78.3263 6.40506 79.0062 6.40506C80.2597 6.40506 81.5133 6.40786 82.7668 6.40389C83.4011 6.40188 83.4642 6.33821 83.4668 5.70393C83.471 4.68412 83.4489 3.66376 83.4762 2.64467C83.4893 2.15714 83.2954 1.95338 82.8309 2.00957C81.8123 2.13276 80.7907 2.06639 79.7711 2.06683C66.1097 2.07275 52.4483 2.07079 38.7868 2.07079C37.3846 2.07079 37.3846 2.07079 37.3846 3.47306C37.3846 4.28042 37.3971 5.08806 37.3794 5.89504C37.3702 6.31647 37.5368 6.49559 37.9584 6.47162C38.5314 6.43904 39.1054 6.41187 39.6792 6.40797C41.0177 6.39887 42.3563 6.4153 43.6947 6.39928C44.1378 6.39397 44.5431 6.46173 44.9058 6.72376" stroke="#363636" stroke-width="1.5" stroke-linecap="round" stroke-linejoin="round"/>
<path d="M34.3896 57.4597C35.1389 57.8564 35.3047 58.6773 35.7218 59.3124C36.2512 60.1183 36.7693 60.9029 37.6346 61.4212C39.1699 62.3409 42.0476 62.1914 43.5726 60.7791C44.5284 59.8939 45.224 58.8111 45.9923 57.78C48.2596 54.7373 50.5388 51.7034 52.8076 48.6617C53.0636 48.3184 53.3792 48.0845 53.7626 47.8914C55.6461 46.9426 56.7639 45.4042 56.9339 43.3081C57.096 41.3089 55.6273 39.3831 53.958 39.0052C53.8432 38.9792 53.7355 38.9321 53.6389 39.0391" stroke="#363636" stroke-width="1.5" stroke-linecap="round" stroke-linejoin="round"/>
<path d="M58.0352 37.5732C58.2362 37.7082 58.4614 37.6324 58.6726 37.6326C63.8354 37.6382 68.9996 37.7017 74.1604 37.5985C75.7588 37.5665 77.3466 37.7166 78.9421 37.6482C80.2357 37.5928 81.5339 37.651 82.8296 37.6297C83.3083 37.6218 83.486 37.7955 83.4742 38.2746C83.4503 39.2513 83.4541 40.2293 83.4714 41.2063C83.4837 41.8984 83.3939 41.9765 82.7022 41.9758C75.0747 41.9686 67.4473 41.9704 59.8199 41.9756C59.6087 41.9757 59.3836 41.9 59.1825 42.035" stroke="#363636" stroke-width="1.5" stroke-linecap="round" stroke-linejoin="round"/>
<path d="M79.707 6.59619C79.7283 16.8795 79.7495 27.1627 79.7708 37.446" stroke="#363636" stroke-width="1.5" stroke-linecap="round" stroke-linejoin="round"/>
<path d="M41.1455 6.59619C41.1455 16.8795 41.1455 27.1627 41.1455 37.446" stroke="#363636" stroke-width="1.5" stroke-linecap="round" stroke-linejoin="round"/>
<path d="M76.0732 6.72363C76.4553 7.69693 76.3238 8.71593 76.3245 9.71938C76.3308 18.7066 76.3287 27.6938 76.3255 36.6811C76.3254 36.936 76.2857 37.191 76.2645 37.446" stroke="#363636" stroke-width="1.5" stroke-linecap="round" stroke-linejoin="round"/>
<path d="M33.6236 39.105C33.4529 39.3386 33.4971 39.6089 33.4969 39.8699C33.4956 42.1433 33.5031 44.4167 33.4931 46.69C33.4884 47.7832 33.5377 48.8621 34.0054 49.8773C34.1169 50.1194 34.1401 50.3779 34.1342 50.6419C34.095 52.4051 34.2153 54.1705 34.0676 55.932C34.0345 56.3259 34.4177 56.6064 34.3272 57.0163C34.0019 58.4912 34.173 59.9893 34.1375 61.4776C34.129 61.8351 33.9818 62.004 33.6236 61.9883C33.4964 61.9828 33.3687 61.9874 33.2412 61.9874C25.9749 61.9874 18.7087 61.9874 11.4424 61.9874C8.72289 61.9874 6.00335 61.9883 3.28382 61.9869C2.50593 61.9865 2.44012 61.9128 2.58477 61.1592C2.72641 60.4213 2.6638 59.6708 2.74677 58.9249C2.90459 57.5062 3.01565 56.0728 3.09689 54.654C3.18206 53.1668 3.28933 51.6788 3.42657 50.1971C3.57498 48.5947 3.63478 46.981 4.09981 45.4115C4.80541 43.03 6.2499 41.2878 8.37787 40.0524C9.04003 39.668 9.70284 39.2725 10.4273 39.0571C11.6967 38.6796 12.9229 38.1017 14.249 37.9795C15.1884 37.893 16.0949 37.5541 17.0515 37.639" stroke="#363636" stroke-width="1.5" stroke-linecap="round" stroke-linejoin="round"/>
<path d="M31.9029 22.7863C31.6864 22.649 31.445 22.6575 31.2018 22.6576C25.2953 22.6592 19.3887 22.644 13.4824 22.6796C12.8229 22.6836 12.1653 22.6433 11.5063 22.6545C10.8984 22.6648 10.6221 22.3748 10.6148 21.7665C10.6105 21.4053 10.6127 21.0441 10.6143 20.6829C10.6174 20.0091 11.231 19.4333 11.8806 19.6268C12.2719 19.7434 12.6115 19.6515 12.9725 19.6591C14.757 19.6966 16.5404 19.7187 18.3268 19.6789C20.4075 19.6325 22.4923 19.7641 24.5724 19.7077C26.1472 19.6651 27.7204 19.834 29.2885 19.7123C30.2506 19.6377 31.2018 19.7329 32.1579 19.733C32.5403 19.733 32.8918 19.5615 33.3132 19.7027C33.8076 19.8684 34.0873 20.0829 34.0721 20.6192C34.0613 21.0014 34.0735 21.3841 34.0692 21.7665C34.063 22.3269 33.7563 22.6367 33.1776 22.657C32.7703 22.6713 32.3563 22.6106 31.9666 22.7863" stroke="#363636" stroke-width="1.5" stroke-linecap="round" stroke-linejoin="round"/>
<path d="M76.0104 6.97852C75.6917 7.23348 75.3454 7.46085 75.0589 7.74791C73.3076 9.50233 71.5792 11.2796 69.8254 13.0314C67.5402 15.3142 65.2158 17.5583 62.956 19.8657C62.1445 20.6942 61.2799 21.4616 60.444 22.3656C60.1486 22.0556 59.8945 21.7779 59.6286 21.5119C55.0406 16.9215 50.4516 12.3321 45.8604 7.74475C45.5948 7.47927 45.3094 7.23347 45.0332 6.97852" stroke="#363636" stroke-width="1.5" stroke-linecap="round" stroke-linejoin="round"/>
<path d="M50.26 43.4072C51.0052 43.0757 51.3184 42.2775 51.9725 41.8331C52.441 41.5148 52.8217 41.0698 53.2589 40.7021C53.5578 40.4507 53.5863 40.1865 53.5281 39.8033C53.3996 38.9577 53.3633 38.099 53.1991 37.255C53.146 36.9823 53.4013 36.8278 53.5795 36.6892C54.0123 36.3527 54.3458 35.924 54.7309 35.5448C54.9196 35.359 54.9579 35.1584 54.902 34.9649C54.804 34.6255 54.8061 34.286 54.7794 33.9424C54.7248 33.2401 54.4153 32.6838 53.7674 32.3452C53.6491 32.2833 53.5619 32.1635 53.4454 32.0962C53.0056 31.8421 52.7325 31.25 52.1732 31.2825C51.3162 31.3324 50.4394 31.3636 49.6835 31.8982C48.4793 32.7498 48.0158 34.2287 48.5469 35.7877C48.901 36.8272 49.9663 37.4771 51.0881 37.5238C51.7935 37.5532 52.4514 37.3654 53.1283 37.2564" stroke="#363636" stroke-width="1.5" stroke-linecap="round" stroke-linejoin="round"/>
<path d="M53.6393 29.4787C53.6315 29.3344 53.6491 29.2083 53.7647 29.0941C55.9984 26.8874 58.2285 24.677 60.458 22.466C60.4687 22.4555 60.4594 22.4249 60.4594 22.3398C61.649 23.5295 62.807 24.6875 63.965 25.8455C67.3219 29.2025 70.6815 32.5568 74.0327 35.9194C74.48 36.3682 75.0994 36.682 75.2468 37.3823" stroke="#363636" stroke-width="1.5" stroke-linecap="round" stroke-linejoin="round"/>
<path d="M11.3154 48.2179C12.5492 48.282 13.7832 48.4013 15.0129 48.1569C15.2977 48.1003 15.5458 48.2927 15.8409 48.2917C20.2176 48.2771 24.5944 48.2816 28.9712 48.2816C30.2035 48.2816 31.4358 48.2849 32.668 48.2787C32.9018 48.2776 33.1354 48.2391 33.3692 48.2179" stroke="#363636" stroke-width="1.5" stroke-linecap="round" stroke-linejoin="round"/>
<path d="M12.7178 22.8496C12.6781 24.8844 12.769 26.8865 13.4631 28.848C14.1826 30.8817 15.343 32.5708 16.9211 34.0078C17.231 34.2899 17.6228 34.5046 17.2774 35.1071C17.0706 35.4679 17.1595 36.0438 17.2141 36.4855C17.2837 37.0482 17.1081 37.5796 17.2213 38.1514C17.6128 40.1292 18.871 41.281 20.6906 41.8258C22.6615 42.4158 24.4955 42.074 26.1093 40.704C27.0521 39.9036 27.5992 38.8146 27.5629 37.7031C27.5301 36.6993 27.7824 35.6235 27.3141 34.6414" stroke="#363636" stroke-width="1.5" stroke-linecap="round" stroke-linejoin="round"/>
<path d="M27.6953 37.6387C28.3597 37.7367 29.0461 37.8934 29.6775 37.9456C30.4853 38.0123 31.2489 38.2012 32.0283 38.3467C32.6243 38.4579 33.1503 38.8813 33.6973 38.9865C34.3109 39.1046 34.8714 39.3002 35.4022 39.5621C38.2926 40.9887 40.0856 43.304 40.822 46.4355C41.0156 47.2586 41.1919 48.0878 41.3215 48.9227C41.3683 49.2239 41.4064 49.5034 41.5904 49.7491" stroke="#363636" stroke-width="1.5" stroke-linecap="round" stroke-linejoin="round"/>
<path d="M19.9193 9.97412C18.5052 10.0108 17.2827 10.6343 16.1709 11.3941C13.6519 13.1154 12.2889 15.589 11.8276 18.5794C11.779 18.8943 11.8865 19.2233 11.7607 19.535" stroke="#363636" stroke-width="1.5" stroke-linecap="round" stroke-linejoin="round"/>
<path d="M50.1957 39.2324C48.7897 39.3986 47.6208 40.7383 47.5828 42.2282C47.5796 42.3556 47.5824 42.4831 47.5824 42.6106C47.5824 44.7104 47.5624 44.6866 45.932 46.0606C44.771 47.0389 43.6578 48.0759 42.5502 49.1154C40.1392 51.3779 37.7394 53.6526 35.3523 55.9402C35.0657 56.2149 34.8326 56.5389 34.4521 56.697" stroke="#363636" stroke-width="1.5" stroke-linecap="round" stroke-linejoin="round"/>
<path d="M24.7012 9.91064C28.6256 10.543 31.9874 13.9214 32.6789 18.1313C32.7557 18.5991 32.864 19.0586 32.8598 19.5353" stroke="#363636" stroke-width="1.5" stroke-linecap="round" stroke-linejoin="round"/>
<path d="M31.9658 22.8496C31.993 24.4344 31.9642 26.0139 31.5845 27.5666C31.0417 29.7868 30.0672 31.7668 28.3975 33.3676C28.0505 33.7003 27.6723 34.0138 27.3896 34.396C27.1303 34.7468 26.7279 34.6983 26.4108 34.8792C25.0985 35.6279 23.6806 36.0232 22.1499 35.9846C20.7882 35.9504 19.5155 35.6124 18.3282 34.9556C18.0625 34.8085 17.8181 34.631 17.4971 34.6414" stroke="#363636" stroke-width="1.5" stroke-linecap="round" stroke-linejoin="round"/>
<path d="M15.0127 38.021C15.1193 38.4179 15.1447 38.8211 15.1436 39.232C15.1368 41.8029 15.1331 44.3737 15.1479 46.9444C15.1501 47.3272 14.9691 47.7094 15.1402 48.0918" stroke="#363636" stroke-width="1.5" stroke-linecap="round" stroke-linejoin="round"/>
<path d="M29.7356 38.083C29.6006 38.2841 29.6767 38.5092 29.6763 38.7204C29.6698 41.8436 29.6718 44.9668 29.6718 48.0901" stroke="#363636" stroke-width="1.5" stroke-linecap="round" stroke-linejoin="round"/>
<path d="M11.1237 39.041C11.145 39.2747 11.1843 39.5084 11.1847 39.7422C11.1891 42.3342 11.1701 44.9265 11.2009 47.5182C11.2078 48.0998 11.1734 48.6475 10.9323 49.1754C10.6446 49.8052 10.6175 50.4695 10.6029 51.1512C10.5783 52.2986 10.6395 53.444 10.5355 54.5978C10.4834 55.1756 10.6036 55.8251 10.6087 56.4419C10.6233 58.2265 10.6138 60.0112 10.6138 61.7959" stroke="#363636" stroke-width="1.5" stroke-linecap="round" stroke-linejoin="round"/>
<path d="M10.4232 54.5918C8.02238 54.5918 5.62154 54.5918 3.2207 54.5918" stroke="#363636" stroke-width="1.5" stroke-linecap="round" stroke-linejoin="round"/>
<path d="M24.5079 14.245C24.4423 12.8202 24.3391 11.3966 24.5671 9.97377C24.7063 9.10494 24.3247 8.69971 23.4243 8.69971C22.7232 8.69971 22.0221 8.69971 21.3209 8.69971C20.217 8.69971 19.8794 8.93583 20.0069 9.97147C20.1907 11.4638 20.038 12.9498 20.1099 14.4362" stroke="#363636" stroke-width="1.5" stroke-linecap="round" stroke-linejoin="round"/>
<path d="M50.3242 37.6387C50.3455 38.5523 50.3573 39.4662 50.3926 40.3793C50.4067 40.7416 50.5561 41.1163 50.4966 41.4598C50.3991 42.0227 50.7091 42.2853 51.0891 42.5466" stroke="#363636" stroke-width="1.5" stroke-linecap="round" stroke-linejoin="round"/>
</svg>
