<svg width="78" height="64" viewBox="0 0 78 64" fill="none" xmlns="http://www.w3.org/2000/svg">
<path d="M55.3944 3.60619C66.8104 9.02212 75.3059 13.1637 75.6245 13.4823C75.8236 13.6814 75.8369 15.6858 75.8369 37.5487C75.8369 58.9336 75.8104 61.4425 75.6245 61.708L75.4254 62H49.7528H24.0803L23.1113 61.1637C21.89 60.1018 16.859 55.9336 8.86789 49.3363C5.42984 46.5088 2.52276 44.0664 2.39002 43.9204C2.17763 43.6681 2.16435 42.4867 2.16435 23.0796C2.16435 9.15487 2.20418 2.42478 2.2971 2.25221C2.44311 2 2.85462 2 27.2263 2H52.0095L55.3944 3.60619ZM49.3015 2.9823C49.3281 3.00885 50.8812 3.75221 52.7396 4.62832C54.598 5.50442 59.0449 7.66814 62.629 9.43363C66.1997 11.1991 69.5051 12.8186 69.9564 13.031C70.713 13.4027 70.859 13.4292 72.0803 13.3894L73.3812 13.3496L69.5316 11.4381C67.4077 10.3894 62.5759 8.03982 58.7794 6.23451L51.8767 2.94248H50.5626C49.8325 2.9292 49.275 2.95575 49.3015 2.9823ZM9.47851 2.9823C9.50506 3.00885 10.7528 3.65929 12.2396 4.44248L14.9475 5.84956H31.0493H47.1643V4.38938V2.9292H28.2882C17.9077 2.9292 9.45196 2.95575 9.47851 2.9823ZM4.62011 3.14159C4.76612 3.24779 5.84134 3.83186 7.00949 4.44248C8.17763 5.0531 11.1909 6.61947 13.713 7.93363C16.2351 9.24779 19.5803 10.9867 21.1732 11.8097L24.0405 13.2965L25.6467 13.2566L27.2661 13.2168L23.9077 11.5044C20.1776 9.59292 9.58471 4.0708 8.33692 3.38053C7.55373 2.94248 7.51391 2.9292 5.94754 2.9292C4.50064 2.94248 4.38117 2.95575 4.62011 3.14159ZM48.0006 4.34956C48.0537 4.85398 48.0936 5.42478 48.0936 5.62389C48.0936 5.94248 48.1865 6.0354 48.7971 6.31416C49.1953 6.48673 52.0626 7.88053 55.1688 9.42035L60.8236 12.2212L63.452 12.208H66.0803L60.5714 9.46018C55.1555 6.75221 48.2794 3.46018 48.0405 3.46018C47.9741 3.46018 47.9608 3.84513 48.0006 4.34956ZM3.19975 4.81416V6.04867L12.744 11.2257C17.9874 14.0796 22.5537 16.5619 22.8989 16.7478C23.244 16.9469 23.5493 17.0664 23.5891 17.0265C23.629 16.9867 23.6688 16.3097 23.6688 15.5265V14.0929L21.4387 12.9646C20.2174 12.3407 15.6378 9.9646 11.2573 7.66814C6.87674 5.38496 3.26612 3.52655 3.25285 3.53982C3.2263 3.5531 3.19975 4.12389 3.19975 4.81416ZM16.9652 6.84513C17.098 6.9646 19.1024 8.01327 21.4121 9.19469C23.7086 10.3628 25.8856 11.4912 26.2573 11.7035L26.921 12.0619L37.036 12.1416L47.1643 12.2212V9.43363V6.64602H31.9254C18.452 6.65929 16.7263 6.67257 16.9652 6.84513ZM48.067 9.61947L48.1068 12.2212H49.8192H51.5449V10.4292V8.62389L49.8458 7.78761C48.9166 7.33628 48.1334 6.9646 48.0936 6.99115C48.0537 7.00442 48.0405 8.18584 48.067 9.61947ZM3.09356 22.8407V38.6372H4.55373H6.01391V23.5973V8.5708L4.64665 7.82743C3.90329 7.41593 3.25285 7.0708 3.18648 7.05752C3.13338 7.05752 3.09356 14.146 3.09356 22.8407ZM52.4475 10.6549C52.4741 11.4779 52.5139 12.1681 52.5272 12.1947C52.5537 12.208 53.9343 12.208 55.6068 12.1947L58.6466 12.1549L55.6599 10.6681C54.0139 9.84513 52.6068 9.18142 52.5405 9.18142C52.4608 9.16814 52.421 9.72566 52.4475 10.6549ZM6.96966 23.7965L7.00949 38.4381L14.2042 38.4779L21.4121 38.5044V27.7124V16.9204L19.3148 15.8053C18.1732 15.1814 14.9608 13.4425 12.1865 11.9292C9.41214 10.4159 7.10241 9.16814 7.03603 9.16814C6.98294 9.16814 6.95639 15.7522 6.96966 23.7965ZM28.6201 13.1637C28.9785 13.3761 68.5228 13.5088 68.3369 13.2965C68.2307 13.1903 64.7794 13.1372 56.1245 13.1106C49.4741 13.0973 40.5139 13.0708 36.213 13.0575C30.598 13.031 28.4475 13.0708 28.6201 13.1637ZM29.244 15.9381V17.6637H49.7528H70.2617V16.0044V14.3451L55.0891 14.3053C46.7528 14.292 37.5272 14.2655 34.5803 14.2389L29.244 14.2124V15.9381ZM24.4652 15.9381V17.6637H26.3502H28.2484V15.9381V14.2124H26.3502H24.4652V15.9381ZM71.0582 16.0044V17.6637H72.9829H74.9077V16.0044V14.3451H72.9829H71.0582V16.0044ZM22.3413 35.969V54.4204L22.9254 54.885C23.2307 55.1504 23.5493 55.3628 23.6024 55.3628C23.6688 55.3628 23.6688 50.7832 23.629 45.1681C23.5759 39.5664 23.536 31.177 23.536 26.531V18.0619L23.0316 17.8097C22.7661 17.6637 22.5006 17.5442 22.4343 17.531C22.3812 17.531 22.3413 25.8274 22.3413 35.969ZM24.4652 37.5885V56.5575H26.39H28.3148V37.5752V18.6062L26.4829 18.5664C25.4874 18.5398 24.6245 18.5398 24.5582 18.5664C24.5051 18.5929 24.4652 27.1416 24.4652 37.5885ZM70.9254 37.5752V56.5575H72.9166H74.9077V37.5752V18.5929H72.9166H70.9254V37.5752ZM52.4741 26.9558C52.4741 31.5487 52.4874 35.3186 52.5139 35.3186C52.5272 35.3186 56.3104 31.5487 60.9033 26.9558L69.2661 18.5929H60.8635H52.4741V26.9558ZM48.0936 27.646V36.6991L48.7838 37.4027C49.1688 37.7876 49.5405 38.1062 49.6068 38.1062C49.6865 38.1062 50.1511 37.708 50.6422 37.2168L51.5449 36.3274V27.4602V18.5929H49.8192H48.0936V27.646ZM38.4829 27.115C43.1422 31.8142 47.0051 35.6637 47.0582 35.6903C47.1245 35.7168 47.1643 31.8805 47.1643 27.1681V18.5929H38.5759H30.0006L38.4829 27.115ZM52.421 37.7743L52.3413 38.8496L56.3502 41.5177C58.567 42.9779 62.536 45.6195 65.1909 47.385C67.8325 49.1504 70.036 50.5841 70.0626 50.5841C70.1024 50.5841 70.1289 43.4956 70.1289 34.8274V19.0575L61.3148 27.885L52.5006 36.7124L52.421 37.7743ZM29.244 28.8142V38.5044H37.9254H46.6201L46.8856 38.1593C47.0449 37.9602 47.1643 37.6549 47.1643 37.469C47.1643 37.2035 45.3192 35.2788 38.2307 28.1372C33.3325 23.1991 29.2971 19.1504 29.2705 19.1372C29.2573 19.1239 29.244 23.4779 29.244 28.8142ZM29.1776 39.5664C29.2307 39.6593 32.4564 39.6991 38.4166 39.6991C44.4962 39.6991 47.5493 39.6593 47.4962 39.5664C47.4431 39.4735 44.2174 39.4336 38.2573 39.4336C32.1776 39.4336 29.1245 39.4735 29.1776 39.5664ZM8.07143 39.5664C8.12453 39.646 10.5006 39.6991 14.7882 39.6991C19.1157 39.6991 21.4121 39.6593 21.4121 39.5664C21.4121 39.4735 19.0891 39.4336 14.6953 39.4336C10.2617 39.4336 8.01834 39.4735 8.07143 39.5664ZM51.1467 39.6726C51.1467 39.7257 51.8767 40.4956 52.7661 41.385C54.3723 42.9779 54.5183 43.0841 62.0847 48.1283C66.3192 50.9558 69.8635 53.292 69.9564 53.3319C70.1024 53.385 70.1289 53.2257 70.1024 52.5619L70.0626 51.7124L61.036 45.6593C54.0405 40.9602 51.9166 39.5929 51.5714 39.5796C51.3458 39.5796 51.1467 39.6062 51.1467 39.6726ZM4.07586 39.6726C4.12895 39.7655 13.1953 47.0796 21.0272 53.3584L21.4254 53.6637L21.3856 52.3628L21.3458 51.0487L19.0228 49.2168C17.7484 48.2212 14.8148 45.9381 12.5183 44.1593C10.2219 42.3805 7.95196 40.6283 7.47409 40.2566L6.61126 39.5796H5.31037C4.59356 39.5664 4.03603 39.6195 4.07586 39.6726ZM3.09356 41.7832L3.10683 43.4823L7.69975 47.2655C10.2351 49.3496 14.8148 53.1327 17.8812 55.6947C20.9608 58.2434 23.5095 60.354 23.5626 60.3805C23.629 60.4071 23.6688 59.5841 23.6688 58.5619V56.6903L21.7705 55.1239C20.7351 54.2611 16.3944 50.7566 12.1201 47.3186C7.84577 43.8938 4.08913 40.8673 3.75727 40.6018C3.42541 40.3363 3.14665 40.1106 3.12011 40.1106C3.10683 40.0973 3.09356 40.854 3.09356 41.7832ZM47.1643 42.0221L45.6378 43.5487H47.2042H48.7573V42.0221C48.7573 41.1858 48.744 40.4956 48.7174 40.4956C48.7042 40.4956 48.0006 41.1858 47.1643 42.0221ZM9.39887 40.615C9.47851 40.6814 10.3679 41.3717 11.3767 42.1416L13.2219 43.5487H17.3104H21.4121V42.0885V40.6283L15.4652 40.5885C12.1998 40.5752 9.47851 40.5487 9.39887 40.5221C9.31922 40.5088 9.31922 40.5354 9.39887 40.615ZM29.2174 42.0885L29.2573 43.5487H36.7838H44.3104L45.6776 42.1814C46.421 41.4381 47.0316 40.7743 47.0316 40.7212C47.0316 40.6681 43.0095 40.6283 38.098 40.6283H29.1776L29.2174 42.0885ZM49.6599 42.2743L49.6997 43.7743L52.1157 45.4867C53.4431 46.4292 56.5891 48.6726 59.098 50.4912C61.6068 52.2965 63.6776 53.7566 63.7042 53.7301C63.7307 53.7035 61.2617 51.208 58.2086 48.1681C53.5228 43.5088 52.4608 42.5265 51.2794 41.7168C50.5095 41.1991 49.8192 40.7743 49.7528 40.7743C49.6732 40.7611 49.6334 41.3186 49.6599 42.2743ZM39.3989 49.6549L34.0891 54.9646H48.9564C57.2927 54.9646 63.7573 54.9115 63.6909 54.8451C63.6113 54.792 60.3325 52.4292 56.3767 49.615L49.1953 44.4912L47.0847 44.4381C45.9298 44.4248 44.921 44.385 44.8413 44.3717C44.775 44.3584 42.3192 46.7345 39.3989 49.6549ZM29.244 49.6549V54.9646L30.9962 54.9513H32.7617L38.0714 49.7212L43.3812 44.4779L36.3458 44.4513C32.4697 44.4248 29.2971 44.3982 29.2705 44.3717C29.2573 44.3584 29.244 46.7345 29.244 49.6549ZM14.3767 44.4912C14.3767 44.5442 14.4564 44.6106 14.536 44.6504C14.629 44.6903 16.1953 45.885 18.0272 47.3053L21.3458 49.8938L21.3856 47.292C21.3989 45.8584 21.3989 44.6239 21.359 44.5442C21.3059 44.3982 14.3767 44.3451 14.3767 44.4912ZM61.8856 50.5973L66.3325 54.9646H68.244C69.7042 54.9646 70.1422 54.9248 70.1024 54.792C70.0095 54.5398 57.8767 46.2168 57.5847 46.2168C57.5051 46.2168 59.4431 48.1814 61.8856 50.5973ZM29.1909 56.1062C29.1511 56.2257 29.1378 56.3717 29.1909 56.4381C29.2307 56.5044 37.567 56.5575 49.6997 56.5575H70.1289V56.2257V55.8938H49.6997C31.1555 55.8938 29.2705 55.9071 29.1909 56.1062ZM70.952 59.3053L70.9918 61.1372H72.9166H74.8413L74.8812 59.4912C74.8944 58.5752 74.8812 57.7522 74.8546 57.6593C74.8015 57.5265 74.3236 57.4867 72.8502 57.4867H70.9121L70.952 59.3053ZM29.2705 59.3053L29.3104 61.1372H49.6865H70.0626L70.1024 59.3053L70.1422 57.4867H49.6865H29.2307L29.2705 59.3053ZM24.4918 59.3053L24.5316 61.1372H26.3767H28.2086L28.1953 59.3451C28.1953 58.3628 28.1821 57.5398 28.1821 57.5133C28.1821 57.5 27.3458 57.4867 26.3236 57.4867H24.452L24.4918 59.3053Z" fill="#363636" stroke="#363636" stroke-width="0.25"/>
</svg>
