<svg width="70" height="64" viewBox="0 0 70 64" fill="none" xmlns="http://www.w3.org/2000/svg">
<path d="M18.0253 2.25183C17.7625 2.39416 16.1421 3.27007 14.4231 4.18978C12.7041 5.10949 9.50705 6.81752 7.30632 8C5.10559 9.17153 3.22238 10.2117 3.12384 10.2993C2.93771 10.4526 2.92676 11.8102 2.92676 35.7664C2.92676 51.9927 2.97055 61.2007 3.03625 61.4416C3.09099 61.6496 3.20048 61.8577 3.27712 61.9124C3.35377 61.9562 15.7698 62 30.8684 62C52.6895 62 58.3392 61.9672 58.4377 61.8686C58.5034 61.792 59.653 60.1277 60.9888 58.1679C62.3246 56.208 63.7917 54.062 64.2516 53.4051C64.7005 52.7372 65.5216 51.5547 66.0581 50.7774L67.0326 49.354L67.0654 25.9343C67.0873 5.0657 67.0654 2.48175 66.9231 2.25183L66.7589 2H42.6275H18.507L18.0253 2.25183ZM65.445 2.82117C65.445 2.87591 61.3392 6.92701 59.0289 9.14964L58.0435 10.1022L31.5691 10.0803L5.10559 10.0474L7.10924 8.97445C8.21508 8.39416 9.58369 7.66059 10.153 7.35402C10.7224 7.04745 11.9815 6.37956 12.945 5.86497C13.9085 5.35037 14.8939 4.81387 15.1348 4.68248C16.9852 3.66424 18.2771 3.0292 18.6932 2.91971C19.0764 2.81022 24.5289 2.77737 42.3209 2.77737C55.0326 2.76643 65.445 2.78832 65.445 2.82117ZM66.1129 49.1898C66.0581 49.3431 65.1165 50.7664 64.0216 52.365C62.9268 53.9635 61.2844 56.3613 60.3757 57.6971L58.7114 60.1387L58.6786 35.3832L58.6567 10.6387L62.4012 6.93796L66.1567 3.23723L66.1895 26.0766C66.2005 39.1825 66.1676 49.0365 66.1129 49.1898ZM57.2333 10.9453C57.2333 10.9891 56.5764 11.6788 55.7881 12.4781L54.3319 13.9343H30.7917H7.25157L5.71873 12.4015L4.18588 10.8686H30.7151C45.299 10.8686 57.2333 10.9015 57.2333 10.9453ZM57.8903 36.1277C57.8903 49.6606 57.8465 60.6861 57.8027 60.6314C57.6384 60.4343 55.6457 58.0146 55.2297 57.5L54.8246 56.9964V35.7774V14.5584L56.2808 13.0474C57.0691 12.2263 57.7589 11.5474 57.8136 11.5365C57.8574 11.5255 57.8903 22.5949 57.8903 36.1277ZM5.30267 13.0803L6.75887 14.5365V35.6679V56.7993L5.83917 57.8613C5.33552 58.4526 4.68953 59.2518 4.39391 59.646C4.09829 60.0292 3.82457 60.3577 3.76982 60.3577C3.72603 60.3577 3.69318 49.3978 3.69318 35.9964C3.69318 22.5949 3.73698 11.635 3.76982 11.635C3.81362 11.635 4.5034 12.292 5.30267 13.0803ZM18.1567 30.7956V46.8358L16.6457 48.1387C15.8136 48.8504 13.4377 50.8869 11.3574 52.6606L7.58004 55.8905L7.5472 35.438C7.53625 24.1825 7.5472 14.9088 7.58004 14.8321C7.62384 14.7226 8.70778 14.7007 12.8903 14.7226L18.1457 14.7555L18.1567 30.7956ZM48.6713 14.7993C48.6494 14.854 46.4924 17.208 43.8647 20.0219C41.237 22.8467 38.5983 25.6715 38.018 26.3066C36.956 27.4453 34.4596 30.0949 32.7625 31.8905C32.2698 32.4051 31.2844 33.4562 30.5727 34.2445C27.2771 37.8139 24.4414 40.8139 21.8465 43.4416L19.0326 46.2883L19.0216 30.5V14.7007H33.8684C42.0691 14.7117 48.6932 14.7555 48.6713 14.7993ZM50.6421 32.7445L50.664 50.7226H50.4012C50.2589 50.7226 49.3063 50.6022 48.2881 50.4599C47.2808 50.3066 45.4632 50.0547 44.2589 49.9015C43.0545 49.7482 40.1202 49.354 37.7443 49.0255C35.3684 48.708 33.1457 48.4124 32.8173 48.3796C32.4888 48.3358 31.8976 48.2591 31.5034 48.2044C30.6384 48.073 26.9596 47.5803 26.1932 47.4927C25.8976 47.4599 25.1749 47.3613 24.6056 47.2737C24.0362 47.1861 22.7114 47.0109 21.6713 46.8796L19.7771 46.6387L22.1092 44.2737C23.3903 42.9708 24.9122 41.4161 25.4815 40.8139C27.8246 38.3723 28.3282 37.8248 29.007 37.0912C30.3319 35.6569 32.9596 32.8212 35.1603 30.4781C37.1968 28.2993 41.5764 23.6131 42.9888 22.0912C43.3282 21.7299 44.3465 20.646 45.2443 19.6825C46.153 18.719 47.5326 17.2409 48.31 16.3978C49.0873 15.5547 49.799 14.8321 49.8866 14.7883C49.9851 14.7445 50.1822 14.7336 50.3355 14.7445L50.6092 14.7774L50.6421 32.7445ZM53.9486 31.9672V49.2445L52.6895 49.8796L51.4304 50.5036V32.6241V14.7445L52.6895 14.7226L53.9486 14.6898V31.9672ZM20.4231 47.4927C20.6202 47.5146 20.9596 47.5693 21.1895 47.6022C21.4085 47.6241 21.8136 47.6788 22.0873 47.7117C22.3611 47.7445 24.5508 48.0401 26.9596 48.3686C29.3684 48.6971 33.2114 49.2117 35.4997 49.5073C40.6567 50.1971 40.4377 50.1642 41.0289 50.2409C41.3027 50.2737 42.9012 50.4927 44.5873 50.7226C46.2735 50.9635 48.4085 51.2591 49.3392 51.3796L51.0253 51.5985L52.4815 50.8321L53.9486 50.0547V53.3175V56.5803H31.0216C11.2151 56.5803 8.10559 56.5584 8.21508 56.427C8.29172 56.3394 10.0435 54.8175 12.1238 53.0438C16.7005 49.1241 17.9815 48.0401 18.4633 47.6241C18.8574 47.2847 18.8903 47.2847 20.4231 47.4927ZM55.3939 58.9343C56.1165 59.8102 56.8282 60.6642 56.9815 60.8285C57.1238 61.0036 57.2333 61.1679 57.2005 61.1898C57.1786 61.2117 45.2224 61.2226 30.6494 61.2117L4.13114 61.1788L4.70048 60.4672C5.00705 60.073 5.71873 59.208 6.26617 58.5511L7.27347 57.3467H30.6822H54.091L55.3939 58.9343Z" fill="#363636" stroke="#363636" stroke-width="0.5"/>
<path d="M48.3095 19.5183C48.1891 19.6825 47.3788 20.5804 46.5029 21.511C45.627 22.4417 44.6088 23.5366 44.2256 23.9526C43.8423 24.3796 43.2292 25.0366 42.8569 25.4307C39.0248 29.4599 29.3241 39.7847 27.6818 41.5694C27.2329 42.0621 26.2256 43.1241 25.4372 43.9344L24.0029 45.4125L24.7146 45.4891C25.1088 45.522 25.7438 45.5877 26.138 45.6205C26.5321 45.6643 27.419 45.7628 28.1088 45.8504C28.7985 45.938 29.6416 46.0366 29.9701 46.0694C30.2985 46.1023 31.3606 46.2227 32.3241 46.3431C34.9956 46.6716 36.7475 46.8796 37.4153 46.9453C37.7438 46.9782 38.5869 47.0767 39.2767 47.1643C39.9664 47.2519 40.8314 47.3504 41.1927 47.3833C41.554 47.4161 42.5942 47.5366 43.492 47.657C46.5358 48.0402 48.4628 48.2482 48.5285 48.1935C48.5613 48.1606 48.5723 41.6241 48.5613 33.6643L48.5285 19.2008L48.3095 19.5183ZM47.773 47.3066C47.7402 47.3285 47.2146 47.2957 46.5905 47.23C45.9664 47.1533 45.2438 47.0767 44.9701 47.0548C44.6964 47.022 44.3022 46.9782 44.0942 46.9453C43.8861 46.9234 43.4701 46.8687 43.1635 46.8358C42.3752 46.7592 38.9263 46.3541 37.9628 46.2336C37.5139 46.1789 36.846 46.1023 36.4847 46.0694C36.1234 46.0256 35.0942 45.9052 34.1854 45.7957C33.2876 45.6862 32.2256 45.5658 31.8314 45.522C31.4372 45.4891 30.5832 45.3906 29.9153 45.303C29.2584 45.2154 28.3934 45.1169 27.9993 45.084C26.9482 44.9855 25.908 44.8322 25.8423 44.7665C25.8095 44.7336 26.5431 43.9015 27.4628 42.9271C29.2365 41.0439 30.7803 39.3906 33.6489 36.3139C34.6015 35.2847 36.7256 33.0512 38.346 31.3431C39.9774 29.6351 41.6197 27.8942 42.0029 27.4672C42.3971 27.0402 43.1088 26.2738 43.6015 25.7592C46.0869 23.1424 47.4007 21.719 47.5759 21.4782C47.7511 21.2263 47.7621 21.8614 47.7949 34.2336C47.8058 41.3942 47.7949 47.2738 47.773 47.3066Z" fill="#363636" stroke="#363636" stroke-width="0.5"/>
</svg>
