<svg width="68" height="64" viewBox="0 0 68 64" fill="none" xmlns="http://www.w3.org/2000/svg">
<path d="M11.4845 2.05113C10.4128 2.134 8.23708 2.53798 7.26286 2.82802C5.47679 3.37702 4.18865 4.09176 3.01958 5.16905L2.5 5.64554V9.34354V13.0415L4.15618 14.4296C5.05462 15.1857 6.05049 16.0144 6.35358 16.2527L6.90564 16.6981L6.98142 29.812C7.04636 40.4916 7.08966 42.9777 7.20873 43.1952C7.55512 43.8375 8.64842 44.5211 10.0015 44.9251C10.3371 45.0287 10.6185 45.1426 10.6185 45.1737C10.6185 45.2151 10.4453 46.0956 10.2288 47.1418C9.88243 48.8613 9.86078 49.0478 10.0231 49.2032C10.1097 49.3068 10.6726 49.5657 11.2572 49.7729L12.3396 50.1665L12.4154 50.7466C12.4479 51.0781 12.5778 51.6167 12.686 51.9482L12.8809 52.5593L11.9608 53.4916C11.4628 53.9992 11.0515 54.4964 11.0515 54.6C11.0515 54.8279 13.4004 58.1115 13.6169 58.1944C13.7144 58.2358 14.2664 58.0286 14.8834 57.7386L15.9767 57.2103L16.4097 57.5729C16.6478 57.7593 17.1783 58.1115 17.5788 58.3498L18.3257 58.7745L18.2499 59.945C18.1741 61.1155 18.1741 61.1155 18.4231 61.2294C18.8236 61.3848 22.5148 62.0581 22.688 61.996C22.7638 61.9649 23.0452 61.4573 23.2942 60.8565C23.7272 59.8725 23.7813 59.7792 24.0519 59.7792C24.2035 59.7792 24.8205 59.6653 25.405 59.5203L26.4767 59.2613L27.3426 60.09C27.8189 60.5458 28.2952 60.9187 28.4034 60.9187C28.5766 60.9187 31.4127 59.137 31.9215 58.7123C32.2462 58.4223 32.2246 58.2255 31.6833 57.086L31.207 56.102L31.6725 55.5322C31.9215 55.2215 32.257 54.7553 32.4086 54.4964L32.69 54.0199L33.9673 53.9992C34.9199 53.9785 35.2771 53.9267 35.3637 53.8231C35.5477 53.5848 36.2189 49.8247 36.0998 49.6486C36.0457 49.5657 35.5153 49.3171 34.9199 49.0892C34.3245 48.8613 33.8266 48.6645 33.805 48.6438C33.7941 48.6335 33.7292 48.3434 33.6751 48.0119C33.6209 47.6701 33.491 47.1522 33.3936 46.8621L33.2096 46.3131L34.0972 45.4327C34.5735 44.9355 34.974 44.459 34.974 44.3554C34.974 44.1171 32.755 40.9681 32.4952 40.8335C32.2895 40.7195 32.2029 40.761 30.7849 41.5068L30.1137 41.8693L29.54 41.4239C29.2261 41.1753 28.6849 40.8438 28.3493 40.6677C27.8189 40.3984 27.7431 40.3259 27.7756 40.098C27.9163 39.2383 27.9272 37.9331 27.7973 37.8295C27.7215 37.7777 26.7581 37.5395 25.6648 37.3012C23.2942 36.8144 23.5215 36.7315 22.8071 38.3371C22.2767 39.5283 22.32 39.4972 21.1509 39.6319L20.5231 39.694L20.5556 28.051L20.5772 16.3977L21.8004 15.4758C22.4607 14.9786 23.4349 14.2224 23.9653 13.8081L24.9071 13.0622V9.34354V5.62482L24.1169 4.91008C22.3308 3.32523 19.8195 2.43439 16.204 2.09256C15.0999 1.98898 12.6211 1.96826 11.4845 2.05113ZM16.3339 2.92125C20.2092 3.31487 23.1751 4.59933 23.1751 5.85271C23.1751 6.8057 21.4648 7.80011 18.7478 8.41127C15.6845 9.11565 11.3329 9.09493 8.3345 8.35948C5.59586 7.69653 4.23195 6.84713 4.23195 5.80092C4.23195 5.32443 4.66493 4.8065 5.37936 4.40252C6.4943 3.781 8.85408 3.15949 11.0515 2.92125C12.2314 2.79694 15.1216 2.78658 16.3339 2.92125ZM6.05049 8.94991L7.69584 10.3172L7.76079 13.3109C7.82574 16.2527 7.82574 16.2941 7.62007 16.1595C7.501 16.0766 6.4943 15.2686 5.39019 14.3571L3.36597 12.6997V9.71644V6.72283L3.88556 7.14753C4.167 7.38577 5.14122 8.19374 6.05049 8.94991ZM23.6947 12.9379C23.5107 13.0933 22.6447 13.7459 21.7787 14.3985C20.9128 15.0511 20.0143 15.714 19.7978 15.8798L19.3865 16.1905V13.3005V10.4208L20.7721 9.36425C21.5298 8.78418 22.5581 7.95549 23.0669 7.53079L23.987 6.76426L24.0195 9.71644L24.0411 12.6583L23.6947 12.9379ZM16.6262 10.2654C17.5788 10.4312 18.3906 10.5762 18.4447 10.5762C18.488 10.5762 18.5205 11.9746 18.5205 13.6838V16.7913H15.0241C13.0974 16.7913 10.8566 16.7602 10.0448 16.7188L8.56182 16.6567V13.6216V10.5866L8.91903 10.5244C12.7834 9.83039 13.9633 9.78895 16.6262 10.2654ZM19.419 23.7523C18.2607 24.9124 14.2123 25.565 11.4845 25.0264C10.3804 24.8088 8.89738 24.3323 8.26955 23.9801L7.80409 23.7212V22.0949C7.80409 21.2041 7.77162 19.7331 7.72832 18.8216L7.66337 17.1849L8.02058 17.361C8.35615 17.5268 8.81079 17.5371 13.7901 17.4853C19.1375 17.4336 19.1916 17.4336 19.4298 17.216L19.6571 16.9881L19.6896 20.2304L19.7112 23.4622L19.419 23.7523ZM19.3107 26.3937C17.3839 27.9475 13.9309 28.6518 10.8025 28.1236C9.49274 27.906 8.69171 27.6056 8.21543 27.1499L7.80409 26.7562V25.71V24.6638L8.26955 24.8813C10.4345 25.9483 13.6711 26.3108 16.3989 25.8032C17.8169 25.5339 18.5205 25.2957 19.17 24.8399L19.6571 24.4877L19.6896 25.275L19.7221 26.0622L19.3107 26.3937ZM19.7112 28.2893V29.5323L19.2566 29.8534C17.6978 30.9411 15.5546 31.5004 12.9783 31.5004C10.4237 31.5004 8.48605 30.8996 7.96646 29.9467C7.81492 29.6566 7.72832 27.9785 7.85821 27.9785C7.89069 27.9785 8.1613 28.1028 8.4644 28.2479C10.218 29.0973 13.736 29.3044 16.1824 28.7036C17.2216 28.4447 18.8994 27.6885 19.2674 27.3156C19.419 27.1706 19.5705 27.0463 19.6246 27.0463C19.6679 27.0463 19.7112 27.6056 19.7112 28.2893ZM19.7112 31.5522V32.6295L19.2025 33.0024C17.4705 34.2662 14.5154 34.9809 12.0474 34.7116C10.1855 34.5148 8.86491 34.059 8.18295 33.365C7.86904 33.0542 7.85821 32.9921 7.82574 32.008C7.80409 31.4486 7.81492 30.9825 7.85821 30.9825C7.89069 30.9825 8.08553 31.0965 8.28038 31.2415C9.1247 31.8526 11.2247 32.3291 13.1082 32.3291C15.3814 32.3291 18.1417 31.5937 19.2782 30.6821C19.4298 30.5682 19.5813 30.4749 19.6355 30.4646C19.6788 30.4646 19.7112 30.9514 19.7112 31.5522ZM19.2133 36.0375C18.1633 36.9594 16.0308 37.7259 13.9633 37.9331C11.5711 38.161 8.92986 37.4773 8.07471 36.3897C7.90151 36.1618 7.84739 35.9132 7.82574 35.1052L7.78244 34.0901L8.4211 34.463C9.96903 35.3538 12.6102 35.7474 14.8726 35.4263C16.4205 35.2088 18.2066 34.5769 19.2782 33.8518L19.6571 33.5929L19.6896 34.5976L19.7221 35.5921L19.2133 36.0375ZM19.7545 38.2749L19.7978 39.9219L18.8561 39.0207C18.3473 38.5339 17.8386 38.1299 17.7303 38.1299C17.4922 38.1299 14.5587 39.9116 14.2231 40.2534C14.0824 40.4088 14.0175 40.5849 14.0499 40.7092C14.1257 40.9992 13.801 41.0614 12.4046 41.051C10.5644 41.0406 8.94068 40.5538 8.18295 39.7873C7.86904 39.4765 7.85821 39.4247 7.82574 38.3371L7.78244 37.1976L8.4211 37.6016C10.2505 38.7721 13.303 39.0415 16.1174 38.2749C17.1783 37.9952 19.1267 37.1148 19.4298 36.7937C19.5489 36.6693 19.6571 36.5865 19.6679 36.6072C19.6896 36.6279 19.7221 37.3737 19.7545 38.2749ZM25.2318 37.9745C25.8596 38.1195 26.5416 38.2853 26.7473 38.3371L27.1261 38.4303L27.0612 39.549C27.0287 40.1602 27.0287 40.7299 27.0504 40.8024C27.072 40.8749 27.3535 41.0614 27.6565 41.2064C28.187 41.4653 29.0854 42.0351 29.6808 42.4908L29.9622 42.7084L31.0663 42.1801C31.6725 41.8797 32.2137 41.6725 32.257 41.7036C32.3653 41.7657 33.7941 43.7546 33.9998 44.1275C34.1189 44.3554 34.0756 44.4279 33.2313 45.2359L32.3328 46.106L32.4627 46.541C32.5818 46.9347 32.7008 47.4733 33.0039 48.8924C33.0797 49.2342 33.1122 49.255 34.1297 49.5864C34.7034 49.7729 35.223 49.949 35.2771 49.9801C35.3312 50.0111 35.2446 50.7673 35.0931 51.6581L34.8117 53.2741L33.5127 53.2844L32.2246 53.3052L31.7483 54.082C31.4885 54.5067 31.088 55.0765 30.8498 55.3458C30.6225 55.6151 30.4277 55.9155 30.4277 56.0294C30.4277 56.133 30.6225 56.651 30.8606 57.1792C31.0988 57.6972 31.2936 58.1737 31.2936 58.2255C31.2936 58.2772 30.655 58.7227 29.8756 59.2199L28.4576 60.1211L27.6241 59.2717C27.1694 58.8159 26.7689 58.4326 26.7256 58.4326C26.6823 58.4326 26.2277 58.5466 25.7189 58.6916C25.2102 58.8262 24.4849 58.9713 24.0952 59.0127C23.6622 59.0541 23.3375 59.1474 23.2509 59.2509C23.1643 59.3442 22.937 59.8207 22.7313 60.3179C22.4391 61.0533 22.32 61.2294 22.1468 61.2191C22.0277 61.2191 21.27 61.0844 20.469 60.929L19.0076 60.6597L19.0509 59.541C19.0726 58.7537 19.0509 58.3912 18.9535 58.2772C18.8777 58.1944 18.5313 57.9768 18.185 57.8008C17.8386 57.6247 17.254 57.2207 16.886 56.9203C16.5071 56.6095 16.1607 56.3609 16.0958 56.3609C16.0308 56.3609 15.5221 56.5992 14.9592 56.8788C14.4071 57.1689 13.9092 57.3968 13.8659 57.3968C13.7793 57.3968 11.9175 54.745 11.9175 54.6207C11.9175 54.5793 12.1448 54.3306 12.4154 54.082C12.686 53.8231 13.0974 53.3984 13.3355 53.1394L13.7468 52.6629L13.5303 52.0725C13.4113 51.741 13.2706 51.0988 13.2056 50.6327C13.1407 50.1665 13.0324 49.7315 12.9675 49.6589C12.8917 49.5968 12.3505 49.3586 11.7551 49.1307C11.1597 48.9131 10.6835 48.6852 10.6835 48.6335C10.6943 48.5817 10.835 47.8566 11.0082 47.0072L11.3113 45.4845L11.701 45.4948C11.9066 45.4948 12.4695 45.5363 12.9458 45.5777C13.4221 45.6191 13.8767 45.6398 13.9525 45.6088C14.0175 45.588 14.2556 45.2566 14.4613 44.8733C14.6669 44.5004 15.0566 43.91 15.3272 43.5681C15.5979 43.2263 15.8143 42.9052 15.8143 42.8534C15.8143 42.8016 15.5979 42.3044 15.3272 41.7347C15.0566 41.165 14.8401 40.6885 14.8401 40.6574C14.8401 40.6056 17.3298 39.0518 17.5355 38.9793C17.6329 38.9482 18.0118 39.259 18.5746 39.8391L19.4623 40.761L20.4798 40.5331C21.0427 40.4088 21.7787 40.2845 22.1251 40.2534C22.8504 40.1705 22.872 40.1602 23.4457 38.8032C23.9004 37.7466 23.922 37.7156 24.0195 37.7156C24.0628 37.7156 24.604 37.8295 25.2318 37.9745ZM8.26955 40.761C8.72419 41.0924 9.60099 41.4136 10.5319 41.6C11.3438 41.7657 13.3571 41.8072 13.985 41.6622L14.3855 41.5793L14.6778 42.1801L14.9808 42.7705L14.6561 43.1745C14.4829 43.392 14.169 43.8375 13.9633 44.1793L13.5953 44.7801L12.5669 44.7283C10.9432 44.6558 8.59429 43.8375 8.02058 43.1331C7.83656 42.9052 7.80409 42.7084 7.80409 41.6932C7.80409 41.0406 7.83656 40.5124 7.86904 40.5124C7.90151 40.5124 8.08553 40.6263 8.26955 40.761Z" fill="#363636" stroke="#363636"/>
<path d="M21.3356 43.4648C18.3372 44.1692 16.248 46.7381 16.248 49.742C16.248 52.4456 17.9692 54.8177 20.6429 55.8121C21.6387 56.1747 23.5222 56.2679 24.583 55.9986C26.8238 55.4496 28.5665 53.8958 29.3567 51.7309C29.6706 50.8815 29.7464 49.1827 29.5191 48.2401C29.0645 46.3962 27.733 44.801 25.9578 43.9931C25.4165 43.7445 24.7021 43.4855 24.3882 43.4233C23.6197 43.268 22.0717 43.299 21.3356 43.4648ZM24.8753 44.366C25.6655 44.6353 26.7696 45.319 27.3109 45.8576C28.231 46.8002 28.8263 48.2711 28.8371 49.6799C28.8588 52.3731 26.9861 54.652 24.2475 55.2735C21.2166 55.9572 18.1857 54.2066 17.2656 51.2337C16.5187 48.7891 17.8176 45.9094 20.2207 44.6871C21.6063 43.9723 23.3707 43.8584 24.8753 44.366Z" fill="#363636" stroke="#363636"/>
<path d="M47.2063 26.5592C44.3811 29.2525 41.0471 32.4118 39.7914 33.572L37.5182 35.6955L37.4858 43.9512C37.4533 51.9273 37.4641 52.2173 37.659 52.4038C37.7672 52.5074 38.0595 52.6317 38.2868 52.6628C39.9538 52.9114 50.7352 54.289 50.8434 54.2683C50.995 54.2372 53.398 51.8859 61.3 44.0652L65.5 39.901V38.109C65.5 37.1249 65.4567 36.2548 65.4026 36.172C65.3268 36.058 64.1794 35.913 60.7696 35.5815C58.28 35.3433 56.2449 35.1361 56.2449 35.1361C56.2449 35.1258 56.2557 32.1943 56.2774 28.6206C56.3099 23.0166 56.2882 22.0947 56.1583 21.9808C56.0176 21.8772 53.896 21.67 52.781 21.6597C52.3589 21.6597 52.2723 21.7322 47.2063 26.5592ZM55.0001 22.5609C55.0434 22.6023 51.7743 25.7409 44.7924 32.3186L41.0363 35.8612L40.246 35.7887C39.8239 35.7576 39.2935 35.6955 39.077 35.654L38.6981 35.5919L45.68 28.9935L52.6728 22.3951L53.8094 22.4573C54.4372 22.4883 54.9676 22.5401 55.0001 22.5609ZM55.4872 29.4078L55.4006 35.5194L48.5486 42.0763L41.6857 48.6436L41.6641 43.9512C41.6424 41.3823 41.6316 38.5959 41.6316 37.7775V36.2756L48.5594 29.7497C52.3589 26.1553 55.498 23.2445 55.5197 23.2652C55.5413 23.2859 55.5305 26.0517 55.4872 29.4078ZM59.9253 36.2652C61.8196 36.4309 63.5516 36.5759 63.7789 36.5759C64.017 36.5759 64.2011 36.6174 64.2011 36.6692C64.2011 36.7831 61.2892 39.6628 55.1949 45.5672L50.3563 50.2699L49.3496 50.1456C47.4012 49.9177 42.8223 49.3169 42.5084 49.2548C42.2053 49.1926 42.4868 48.913 49.1115 42.5735C53.9393 37.9433 56.0934 35.9544 56.2557 35.9544C56.3856 35.9544 58.031 36.0891 59.9253 36.2652ZM39.9538 36.4516L40.8739 36.5242L40.9064 42.9982C40.928 48.1775 40.9713 49.5034 41.0795 49.607C41.2094 49.7313 42.6383 49.9592 48.5377 50.7775L50.2372 51.0157V52.2381C50.2372 53.2221 50.2048 53.4604 50.0857 53.4604C49.8259 53.4604 39.51 52.1241 38.8821 52.0102C38.5682 51.9584 38.2868 51.9066 38.2651 51.9066C38.2435 51.9066 38.2218 48.395 38.2218 44.0962V36.2859L38.6332 36.3377C38.8497 36.3584 39.445 36.4102 39.9538 36.4516ZM64.7423 38.5648V39.7353L62.4908 41.9106C61.2459 43.1018 58.3341 45.9711 56.0068 48.2811C53.6795 50.591 51.6011 52.642 51.3846 52.8285L50.995 53.191V51.9791V50.7775L53.0733 48.7265C61.0619 40.8333 64.5799 37.4046 64.6557 37.4046C64.699 37.4046 64.7423 37.9329 64.7423 38.5648Z" fill="#363636" stroke="#363636"/>
</svg>
