<svg width="68" height="68" viewBox="0 0 68 68" fill="none" xmlns="http://www.w3.org/2000/svg">
<path d="M19.3514 1.62446C19.2601 1.73605 19.2398 3.20707 19.2601 7.38678L19.2906 12.9969L19.5442 13.4534C19.6862 13.6969 19.9906 14.0418 20.234 14.2143L20.6804 14.5187L22.3746 14.5491L24.079 14.5795L24.1398 17.1563C24.1804 18.5665 24.2514 19.8447 24.3021 19.9868C24.4442 20.352 25.0732 21.0114 25.4587 21.194C25.6819 21.3056 26.1587 21.3563 27.0413 21.3766L28.2891 21.3969L28.2688 23.7404C28.2485 25.0288 28.2485 26.165 28.2485 26.2563C28.279 26.4998 28.8572 26.6419 29.8007 26.6419H30.5819L30.6224 27.0172C30.6529 27.2201 30.663 28.194 30.663 29.1781L30.6529 30.9534L29.7703 31.0042C28.9688 31.0549 28.8572 31.0853 28.6036 31.339L28.3195 31.6129L28.2891 38.9476C28.2688 44.3245 28.2992 46.3433 28.3804 46.5563C28.5427 46.9419 28.979 47.1549 29.4558 47.0737C29.7906 47.023 29.8514 47.0433 29.9427 47.2563C30.0949 47.6013 30.3688 47.5911 31.6065 47.1955C32.2253 46.9926 32.7732 46.8303 32.834 46.8303C32.8848 46.8303 32.9355 46.9419 32.9355 47.0839C32.9355 47.2563 33.0166 47.3781 33.1891 47.4592C33.4021 47.5505 33.6456 47.5201 34.5992 47.2563C35.2282 47.0737 35.7659 46.9317 35.7964 46.9317C35.8268 46.9317 35.8877 47.0433 35.9181 47.1853C36.0195 47.5911 36.3746 47.6013 37.5311 47.2361C38.3529 46.9723 38.6369 46.8303 38.9413 46.5259L39.3268 46.1404V38.9781C39.3268 33.8955 39.2963 31.7346 39.2152 31.5824C39.0326 31.2274 38.6978 31.0042 38.3123 31.0042C38.1195 31.0042 37.7137 30.9737 37.4297 30.9433L36.892 30.8723V28.7621V26.6419H37.9471C39.2253 26.6419 39.3674 26.5505 39.3572 25.7694C39.3572 25.7187 39.3268 24.7042 39.2862 23.5274L39.205 21.3868L40.6152 21.3462C41.9645 21.3158 42.0558 21.3056 42.4514 21.0418C42.6746 20.8897 42.9992 20.5447 43.1514 20.281L43.4355 19.794L43.4659 17.1766L43.5065 14.5694H45.0384C46.7427 14.5694 47.1181 14.4679 47.6761 13.8998C48.3355 13.2404 48.305 13.5346 48.3355 7.4375C48.3558 3.54185 48.3253 1.82736 48.2543 1.67518C48.1732 1.53316 48.0616 1.48243 47.8688 1.50272L47.5949 1.53316L47.5442 7.18388C47.4935 12.6926 47.4935 12.8346 47.2804 13.1187C47.1688 13.2708 46.9152 13.4839 46.7224 13.5853C46.3978 13.7476 45.6166 13.7578 33.6253 13.7375L20.8833 13.7071L20.6094 13.4534C20.0514 12.9361 20.0514 12.9868 20.0514 7.13315C20.0514 3.06504 20.021 1.69547 19.9297 1.60417C19.7674 1.44185 19.4935 1.452 19.3514 1.62446ZM42.6746 16.9737C42.6746 19.1245 42.6442 19.439 42.4819 19.8143C42.0963 20.6563 42.634 20.6056 33.7978 20.5752C25.205 20.5346 25.6717 20.565 25.1848 19.9158C24.9819 19.6418 24.9717 19.4795 24.9413 17.0955L24.9108 14.5694H33.7877H42.6746V16.9737ZM34.0717 21.4578L38.3935 21.4679L38.4543 22.2998C38.4848 22.7665 38.5253 23.7505 38.5558 24.481L38.5963 25.8303H33.7674H28.9485L29.0094 24.2274C29.05 23.3549 29.0804 22.3505 29.0804 22.0056V21.3868L29.4152 21.4071C29.5877 21.4274 31.6877 21.4476 34.0717 21.4578ZM36.0804 28.7621V30.8824L33.8587 30.9534C32.6311 30.994 31.5862 30.994 31.5253 30.9636C31.4543 30.9129 31.4137 30.1926 31.4137 28.7621V26.6419H33.7471H36.0804V28.7621ZM38.4949 35.0926C38.5152 38.0346 38.4949 38.4505 38.3529 38.7448C38.2514 38.9172 37.7036 40.5911 37.1355 42.4578C36.5572 44.3245 36.05 45.8766 36.0094 45.9274C35.9079 46.0288 33.9398 46.5462 33.879 46.4853C33.8181 46.4245 34.4674 44.223 36.1514 38.765C38.0181 32.7491 37.8659 33.2868 37.7137 33.094C37.379 32.6882 37.0746 33.0027 36.75 34.0781C34.3152 42.123 33.1587 45.8361 33.0674 45.9172C32.9761 45.9984 30.7848 46.6375 30.7442 46.6071C30.7239 46.5766 31.3935 44.3752 33.4021 37.9129C34.1529 35.4882 34.7616 33.4187 34.7413 33.2969C34.7007 33.0433 34.2442 32.952 34.0819 33.1549C34.021 33.2259 33.7572 33.9969 33.5036 34.8592C31.8601 40.3578 30.0442 46.039 29.9021 46.11C29.8108 46.1607 29.5877 46.2317 29.4152 46.2723L29.0804 46.3433V44.1926V42.0419L30.5007 37.6998C31.3021 35.2752 31.9007 33.2969 31.8601 33.1955C31.8195 33.1042 31.6877 33.0332 31.505 33.0332C31.1703 33.0332 31.3326 32.6578 29.9935 36.6853L29.1007 39.3737L29.0906 35.6607C29.0804 32.8911 29.1108 31.9274 29.2021 31.8361C29.2935 31.7447 30.4297 31.7143 33.8992 31.7346L38.4645 31.765L38.4949 35.0926ZM38.5355 43.3201C38.5152 45.3187 38.4746 45.9274 38.3732 46.0085C38.1195 46.2216 36.7906 46.6274 36.7906 46.4955C36.7906 46.2926 38.4543 40.7433 38.5152 40.7433C38.5456 40.7433 38.5558 41.8998 38.5355 43.3201Z" fill="#363636" stroke="#363636"/>
<path d="M44.3986 36.6953C44.0333 36.8677 43.0594 37.304 42.2174 37.6692C40.4928 38.4301 40.4217 38.4706 40.4623 38.7446C40.5333 39.2417 40.7464 39.2011 42.9986 38.1866L45.1594 37.2127L54.4217 37.1721C59.5043 37.1518 63.6739 37.1721 63.6739 37.2127C63.6739 37.2533 63.6333 37.2938 63.5725 37.2938C63.4812 37.2938 60.0014 39.1402 49.0145 45.0344C42.471 48.5344 36.8507 51.5373 34.1522 52.9677C33.1174 53.5054 31.5652 54.3373 30.6928 54.804L29.1101 55.6562L16.8754 55.6764C10.1493 55.6967 4.67101 55.6764 4.71159 55.646C4.79275 55.575 15.9826 50.2895 19.1377 48.8286C20.3348 48.2808 21.3797 47.7735 21.4507 47.7127C21.5217 47.6518 21.5725 47.4895 21.5522 47.3475C21.5217 47.1243 21.471 47.0837 21.2174 47.104C21.0551 47.1141 18.2449 48.3822 14.9783 49.9243C11.7116 51.4764 7.74493 53.3533 6.15217 54.104C4.55942 54.8446 3.08841 55.575 2.87536 55.717L2.5 55.9605V61.1141C2.5 64.9895 2.53043 66.2982 2.62174 66.3895C2.71304 66.4808 5.81739 66.5112 15.9623 66.5112H29.1913L29.6072 66.2982C29.8406 66.1764 30.6928 65.6793 31.5043 65.1924C32.3261 64.7054 35.1971 62.9909 37.9058 61.388C40.6145 59.7851 43.6478 57.9793 44.6522 57.3808C45.6565 56.7822 48.0507 55.362 49.9783 54.2359C53.1942 52.3489 61.1072 47.662 64.029 45.9272C64.6986 45.5315 65.3072 45.1257 65.3783 45.0344C65.4696 44.9025 65.5 43.8982 65.5 40.8446C65.5 37.375 65.4797 36.7967 65.3377 36.604L65.1855 36.3808H55.1217H45.058L44.3986 36.6953ZM64.6884 41.1185L64.6783 44.6489L62.7304 45.8054C59.3623 47.7938 50.2725 53.1706 46.7826 55.2301C41.9536 58.0808 29.9826 65.1924 29.7087 65.375L29.4855 65.517L29.5058 60.9214L29.5362 56.3257L30.1449 55.9808C30.4797 55.788 32.3565 54.7938 34.3043 53.7591C38.4942 51.5373 42.8261 49.2243 51.6014 44.5272C62.8116 38.5214 64.5362 37.5982 64.6174 37.5982C64.658 37.5982 64.6884 39.1808 64.6884 41.1185ZM28.6739 61.0837V65.6996L15.9928 65.7199L3.31159 65.7504V61.104V56.4678H15.9928H28.6739V61.0837Z" fill="#363636" stroke="#363636"/>
<path d="M20.8723 40.824C20.6897 41.1689 20.8419 41.3211 21.5622 41.5443C23.1346 42.0211 24.4027 43.3095 24.9201 44.953C25.0723 45.44 25.2955 45.7139 25.539 45.7139C25.8737 45.7139 25.9448 45.3791 25.7419 44.7805C25.1433 43.0458 24.1288 41.8486 22.6578 41.1385C21.5824 40.6211 21.0346 40.5298 20.8723 40.824Z" fill="#363636" stroke="#363636"/>
<path d="M20.2942 45.0446C20.142 45.4504 20.284 45.5519 21.1666 45.6736C22.1101 45.8055 22.4145 45.9069 23.0739 46.3533C23.6014 46.7084 23.9464 46.6881 23.9869 46.3127C24.0275 45.9577 23.4898 45.5113 22.6174 45.1562C21.8565 44.8519 20.3956 44.7809 20.2942 45.0446Z" fill="#363636" stroke="#363636"/>
</svg>
