<svg width="52" height="52" viewBox="0 0 52 52" fill="none" xmlns="http://www.w3.org/2000/svg">
<rect width="52" height="52" rx="8" fill="#F57612"/>
<path d="M32.0577 42.4617C30.4428 42.486 28.8862 42.5157 27.3295 42.523C23.5717 42.5405 19.8136 42.5272 16.0561 42.5696C14.7019 42.5849 13.3407 41.6373 13.3636 39.9543C13.4337 34.7995 13.4289 29.6429 13.3719 24.4878C13.3525 22.7258 14.3863 21.6395 16.2784 21.5706C16.8175 21.5509 17.3579 21.5636 17.8977 21.5635C26.3897 21.5623 34.8816 21.5601 43.3735 21.5619C44.6817 21.5622 45.619 22.2313 45.9272 23.3785C45.9843 23.5911 45.9959 23.8204 45.9961 24.0421C45.9999 29.32 46.0017 34.598 45.9981 39.876C45.9971 41.4325 44.973 42.4368 43.3897 42.4404C39.6317 42.4489 35.8738 42.4518 32.0577 42.4617ZM14.8912 41.027C15.2317 41.405 15.6904 41.4222 16.1521 41.4173C16.8578 41.41 17.5634 41.384 18.269 41.3835C26.5104 41.3782 34.7519 41.3765 42.9933 41.373C44.3267 41.3724 44.9102 40.8171 44.9109 39.531C44.9138 34.478 44.9134 29.4251 44.9109 24.3721C44.9103 23.1963 44.4091 22.7061 43.2032 22.7073C34.2353 22.7166 25.2675 22.7281 16.2996 22.7417C15.0637 22.7436 14.4749 23.325 14.4742 24.5463C14.471 29.6604 14.4749 34.7745 14.4689 39.8886C14.4684 40.2929 14.543 40.6556 14.8912 41.027Z" fill="white"/>
<path d="M30.3601 15.5717C32.0672 14.9193 33.7306 14.2859 35.3883 13.6385C36.1944 13.3236 36.2196 13.2451 35.9271 12.4683C35.8408 12.2391 35.7494 12.0112 35.6762 11.7779C35.3875 10.8577 34.653 10.2861 33.4453 10.7737C31.1432 11.7033 28.8149 12.5704 26.4986 13.4663C21.0943 15.5567 15.6906 17.6487 10.2867 19.7402C9.61123 20.0016 8.93463 20.2603 8.26136 20.5271C7.25336 20.9266 6.98297 21.5046 7.34074 22.4893C7.49393 22.9109 7.66571 23.3262 7.81125 23.7503C7.94015 24.1259 8.15248 24.1989 8.52569 24.0484C9.58095 23.623 10.6458 23.2204 11.7105 22.818C12.0146 22.7031 12.328 22.5546 12.676 22.778C12.7133 23.3123 12.5486 23.6775 11.9717 23.8833C10.7876 24.3059 9.62601 24.7891 8.42565 25.259C8.63781 26.0825 8.95377 26.8105 9.25079 27.5439C9.38534 27.8762 9.62996 27.7626 9.87272 27.6676C10.6967 27.3454 11.524 27.0313 12.357 26.7115C12.618 27.6694 12.5572 27.7929 11.7354 28.1088C11.2911 28.2796 10.8553 28.4758 10.4021 28.6194C9.89347 28.7807 9.78141 29.0441 9.97249 29.5392C10.729 31.4993 11.4448 33.4745 12.1993 35.4354C12.4539 36.0971 12.5736 36.7514 12.4083 37.4528C11.8403 37.487 11.6079 37.1408 11.4486 36.7191C10.4033 33.9517 9.35842 31.1841 8.32013 28.4141C7.61845 26.5421 6.91772 24.6696 6.23524 22.7908C5.65614 21.1966 6.1408 20.1649 7.74958 19.5419C13.2686 17.4043 18.7896 15.2716 24.3106 13.1389C27.3602 11.9609 30.4106 10.7849 33.4621 9.61154C34.729 9.12438 36.0509 9.64407 36.5319 10.8961C37.7243 14.0001 38.8732 17.1202 40.0376 20.2345C40.0721 20.3268 40.0844 20.427 40.106 20.5189C39.2796 20.8493 39.0233 20.7442 38.742 19.9895C38.5639 19.5116 38.3388 19.0465 38.2078 18.5568C38.0695 18.0396 37.8238 17.9841 37.3544 18.1697C35.43 18.9307 33.4775 19.6254 31.5703 20.4251C30.4771 20.8834 29.3841 20.6693 28.2928 20.7391C28.2358 20.4422 28.4371 20.4614 28.5517 20.4166C31.3087 19.3414 34.0666 18.268 36.8268 17.2006C37.5953 16.9034 37.6002 16.9074 37.304 16.1533C37.1623 15.7923 37.0301 15.4278 36.888 15.067C36.5997 14.3354 36.597 14.3333 35.8208 14.6353C34.162 15.2807 32.5064 15.9338 30.8461 16.5755C27.41 17.9036 23.9739 19.2317 20.5329 20.5474C19.6188 20.8969 18.676 20.7209 17.7443 20.693C17.7281 20.6283 17.7118 20.5637 17.6956 20.4991C21.9017 18.861 26.1079 17.2229 30.3601 15.5717Z" fill="white"/>
<path d="M20.5405 32.4065C18.2379 32.4155 17.8775 32.0646 17.8776 29.8726C17.8776 29.2623 17.8695 28.6518 17.8818 28.0417C17.8977 27.2553 18.3869 26.7261 19.1941 26.7131C20.8725 26.6862 22.5521 26.6851 24.2305 26.7121C25.1273 26.7265 25.7335 27.343 25.7862 28.3007C25.8342 29.1727 25.8277 30.0511 25.7829 30.9236C25.7334 31.884 25.1462 32.3812 24.0842 32.3997C22.9239 32.4199 21.7629 32.4055 20.5405 32.4065ZM23.3047 31.3399C23.5961 31.3439 23.8827 31.33 24.1659 31.241C24.5351 31.1251 24.7033 30.892 24.6928 30.5134C24.676 29.9026 24.675 29.2914 24.6598 28.6805C24.6419 27.9627 24.4586 27.7759 23.7239 27.7724C22.3755 27.766 21.027 27.7705 19.6787 27.781C19.2015 27.7847 18.957 28.0335 18.9611 28.5122C18.9659 29.0624 18.9592 29.6128 18.9614 30.1631C18.9651 31.068 19.2311 31.3374 20.1355 31.3406C21.153 31.3443 22.1706 31.3405 23.3047 31.3399Z" fill="white"/>
<path d="M21.7842 37.0268C20.7053 37.0363 19.6886 37.0431 18.672 37.0537C18.222 37.0584 17.7766 36.9856 17.7914 36.441C17.805 35.94 18.2403 35.8725 18.6615 35.8726C20.612 35.8729 22.5625 35.8753 24.5129 35.8721C24.9077 35.8714 25.2564 35.9734 25.2631 36.4125C25.27 36.8652 24.9121 36.9411 24.5206 36.9481C23.6291 36.9639 22.7378 36.9986 21.7842 37.0268Z" fill="white"/>
<path d="M34.369 36.022C34.6253 36.6767 34.4864 36.9207 33.8651 36.9342C31.8366 36.9784 29.8064 36.8768 27.7785 37.0147C27.38 37.0418 27.004 36.9283 26.9943 36.4386C26.9843 35.9301 27.3639 35.872 27.7664 35.8721C29.7755 35.8723 31.7846 35.8718 33.7937 35.8731C33.9787 35.8733 34.1695 35.8579 34.369 36.022Z" fill="white"/>
</svg>
