<svg width="52" height="52" viewBox="0 0 52 52" fill="none" xmlns="http://www.w3.org/2000/svg">
<rect width="52" height="52" rx="8" fill="#F57612"/>
<path d="M42.4875 33.9201C43.1978 33.9201 43.9081 33.9192 44.6184 33.9206C44.9257 33.9211 45.2189 33.8568 45.5 33.736C45.8215 33.5979 45.9817 33.3322 45.9719 33.0018C45.9464 32.1446 46.0581 31.2846 45.9104 30.4288C45.8775 30.2382 45.9862 30.0458 45.9824 29.842C45.97 29.1687 45.9331 28.4912 45.9891 27.8224C46.058 27.0002 45.7895 26.2908 45.3852 25.6199C44.7734 24.6043 44.2015 23.5671 43.6242 22.5322C42.8494 21.1433 42.083 19.7488 41.2663 18.3847C40.7593 17.5381 39.9322 17.1736 38.9605 17.1701C36.4623 17.161 33.964 17.167 31.4658 17.167C30.927 17.167 30.6214 17.4704 30.6212 18.012C30.6202 20.1919 30.6208 22.3718 30.6208 24.5516C30.6208 26.9152 30.6208 29.2787 30.6208 31.6423C30.6208 32.3648 30.6208 33.0874 30.6208 33.8099" stroke="white" stroke-width="0.75" stroke-linecap="round" stroke-linejoin="round"/>
<path d="M42.4506 24.8082C42.3354 24.2229 41.9497 23.7714 41.6734 23.2683C41.0424 22.1194 40.3856 20.9847 39.73 19.8495C39.4068 19.2898 38.9083 19.0635 38.2623 19.0715C36.8542 19.0889 35.4457 19.0761 34.0374 19.0772C33.5177 19.0776 33.2667 19.3283 33.2663 19.8484C33.2651 21.4159 33.2705 22.9835 33.2622 24.551C33.2605 24.8926 33.3285 24.9594 33.67 24.9587C36.4377 24.9524 39.2054 24.9505 41.973 24.9644C42.1813 24.9655 42.3504 24.7898 42.5609 24.8817" stroke="white" stroke-width="0.75" stroke-linecap="round" stroke-linejoin="round"/>
<path d="M21.1053 17.9026C21.0158 17.7294 20.9912 17.5463 20.9926 17.3515C20.9984 16.531 20.9875 15.7104 20.9993 14.89C21.0032 14.6141 20.9033 14.5176 20.6276 14.5185C18.4478 14.5258 16.2679 14.527 14.0881 14.5176C13.7763 14.5162 13.7145 14.6513 13.7163 14.9267C13.7257 16.3473 13.7207 17.7679 13.7207 19.1885" stroke="white" stroke-width="0.75" stroke-linecap="round" stroke-linejoin="round"/>
<path d="M30.5104 32.1564C26.5548 32.1564 22.5992 32.1562 18.6436 32.1573C18.4818 32.1574 18.3127 32.1239 18.166 32.2299" stroke="white" stroke-width="0.75" stroke-linecap="round" stroke-linejoin="round"/>
<path d="M34.4784 33.9196C33.3762 33.9196 32.274 33.9196 31.1718 33.9196C27.057 33.9196 22.9423 33.9198 18.8275 33.9185C18.6924 33.9185 18.5535 33.9448 18.4233 33.8828" stroke="white" stroke-width="0.75" stroke-linecap="round" stroke-linejoin="round"/>
<path d="M34.5156 33.9577C34.7023 34.2488 34.688 34.5994 34.8019 34.9157C35.316 36.344 36.2922 37.2211 37.7852 37.5222C39.8908 37.9469 41.812 36.4902 42.2741 34.6206C42.5155 33.6439 42.3397 32.7531 41.8618 31.9012C41.3136 30.9244 40.5133 30.3075 39.4053 30.014C37.2914 29.454 35.1395 30.8442 34.6708 33.0042C34.6056 33.3044 34.5937 33.6195 34.5156 33.921" stroke="white" stroke-width="0.75" stroke-linecap="round" stroke-linejoin="round"/>
<path d="M14.3449 32.0834C13.5463 32.1077 13.027 32.5652 12.8019 33.4427C12.6441 34.0578 13.0098 34.8271 13.6094 35.1707C14.604 35.7407 15.8162 35.2303 16.0534 34.1368C16.3212 32.9017 15.3938 31.978 14.3817 32.0834" stroke="white" stroke-width="0.75" stroke-linecap="round" stroke-linejoin="round"/>
<path d="M10.4511 33.9209C9.15301 33.9209 7.8549 33.9215 6.55678 33.9205C6.11297 33.9201 5.99455 33.8111 6.00926 33.3699C6.02192 32.99 5.9537 32.6085 6.07014 32.2281C6.11832 32.0707 5.999 31.8978 6.00001 31.7165C6.00956 30.002 6.00525 28.2875 6.006 26.573C6.0062 26.1416 6.01594 26.1494 6.44637 26.1282C6.93783 26.1039 7.43473 26.214 7.92366 26.0026C8.0709 25.9389 8.30723 26.1213 8.50409 26.1253C9.25139 26.1406 10.0095 26.2017 10.7077 25.837C10.8589 25.758 10.9943 25.7573 11.1505 25.8356C11.952 26.2371 12.802 26.2006 13.645 26.0455C13.9212 25.9947 14.1303 26.1464 14.3824 26.1371C14.8471 26.1198 15.3129 26.1321 15.7783 26.1321C16.7335 26.1321 17.6888 26.1339 18.644 26.1305C18.8154 26.1298 18.9867 26.1057 19.1583 26.0958C19.4778 26.0774 19.7779 25.9772 20.1223 26.1094C20.358 26.1999 20.6779 26.1755 20.9614 26.066C21.1879 25.9785 21.4143 26.1416 21.6566 26.1405C24.6079 26.1276 27.5593 26.1321 30.5107 26.1321" stroke="white" stroke-width="0.75" stroke-linecap="round" stroke-linejoin="round"/>
<path d="M18.1302 32.2301C17.7517 31.8947 17.5874 31.3973 17.2159 31.05C16.5755 30.4513 15.8618 30.0595 14.9719 29.9426C13.2441 29.7158 12.006 30.4107 11.0673 31.82C10.7077 32.3598 10.5859 32.943 10.5685 33.5529C10.5066 35.7243 11.8176 37.0545 13.5077 37.4952C14.8043 37.8333 16.0341 37.501 17.0686 36.5695C17.8634 35.8539 18.2268 34.9397 18.3364 33.9185C18.3761 33.5484 18.2781 33.1549 18.1925 32.7837C18.1521 32.6088 18.1328 32.4414 18.1302 32.2668" stroke="white" stroke-width="0.75" stroke-linecap="round" stroke-linejoin="round"/>
<path d="M10.8924 23.2291C10.4638 23.0332 10.0299 22.8478 9.6088 22.6369C9.39607 22.5303 9.3782 22.2653 9.24573 22.0854C8.82537 21.5144 8.78999 20.8676 9.10425 20.2595C9.4335 19.6224 9.9975 19.2753 10.7455 19.2982C10.954 19.3046 11.1731 19.2542 11.3683 19.3388C11.7602 19.5089 12.1291 19.2988 12.509 19.2985C14.1132 19.2973 15.7175 19.2948 17.3218 19.2995C18.0647 19.3017 18.5915 19.6872 18.8921 20.3312C19.1865 20.962 19.1503 21.6006 18.6794 22.1622C18.5684 22.2945 18.463 22.422 18.4607 22.6046" stroke="white" stroke-width="0.75" stroke-linecap="round" stroke-linejoin="round"/>
<path d="M45.8667 28.2627C45.438 28.2749 45.0094 28.2863 44.5808 28.2997C44.3012 28.3085 44.1517 28.4482 44.1427 28.7404C44.1313 29.1074 44.1379 29.4751 44.1405 29.8425C44.1428 30.1596 44.2942 30.3075 44.6175 30.3204C45.0338 30.337 45.4522 30.2808 45.8667 30.3568" stroke="white" stroke-width="0.75" stroke-linecap="round" stroke-linejoin="round"/>
<path d="M19.782 25.9849C19.7843 25.8023 19.8968 25.6792 19.9997 25.542C20.824 24.4422 20.1544 22.8606 18.8299 22.7222C18.3939 22.6767 17.9943 22.7618 17.5776 22.756C16.6103 22.7428 15.6427 22.7506 14.6753 22.7526C14.4016 22.7531 14.1207 22.7106 13.8673 22.8625C13.8529 22.8711 13.8373 22.8995 13.831 22.8969C13.2753 22.6743 12.6593 22.8603 12.1035 22.6416" stroke="white" stroke-width="0.75" stroke-linecap="round" stroke-linejoin="round"/>
<path d="M10.7085 32.2303C10.5784 32.1802 10.4471 32.1538 10.3043 32.1543C9.05523 32.1587 7.80609 32.1558 6.55697 32.1585C6.42223 32.1588 6.28754 32.1814 6.15283 32.1936" stroke="white" stroke-width="0.75" stroke-linecap="round" stroke-linejoin="round"/>
<path d="M9.45849 22.6416C9.18089 22.8456 8.84351 22.7156 8.53672 22.8152C7.42275 23.1767 6.93946 24.4981 7.66183 25.5415C7.75886 25.6817 7.87639 25.8023 7.8787 25.9849" stroke="white" stroke-width="0.75" stroke-linecap="round" stroke-linejoin="round"/>
<path d="M11.9205 19.4824C11.9429 19.6663 12.067 19.7872 12.1743 19.9259C12.6468 20.5364 12.7317 21.2586 12.3472 22.0287C12.0554 22.613 11.5997 22.8963 11.0743 23.154C10.9583 23.2109 10.8851 23.2599 10.8873 23.4136C10.8974 24.1482 10.8913 24.8831 10.8934 25.6179C10.8935 25.6547 10.9163 25.6914 10.9285 25.7281" stroke="white" stroke-width="0.75" stroke-linecap="round" stroke-linejoin="round"/>
<path d="M13.8311 22.9355C13.8535 23.0981 13.9416 23.222 14.0502 23.3409C14.5392 23.8759 14.6472 24.8593 14.1223 25.542C14.0176 25.6782 13.9068 25.8024 13.9045 25.9849" stroke="white" stroke-width="0.75" stroke-linecap="round" stroke-linejoin="round"/>
<path d="M33.6333 26.8848C34.3681 26.8909 35.1029 26.897 35.8377 26.9031" stroke="white" stroke-width="0.75" stroke-linecap="round" stroke-linejoin="round"/>
<path d="M24.8888 14.4854C25.1885 14.7649 25.5468 14.9928 25.6931 15.3723C25.3933 16.0125 24.8756 16.4384 24.4118 16.9107C24.1944 17.1321 23.9783 17.2511 23.6351 17.1453C23.3891 17.0695 23.0798 17.1961 22.8356 17.1176C22.2324 16.9239 21.9249 17.2815 21.5298 17.6269C21.2039 17.9117 21.0066 18.1137 21.0383 18.6021C21.068 19.0617 20.9351 19.5298 21.0967 19.999C21.162 20.1884 20.9624 20.3688 20.9905 20.5846C21.0603 21.1211 20.8678 21.6776 21.1292 22.2066C21.1682 22.2856 20.9977 22.4473 21.0024 22.5677C21.0223 23.0821 20.9014 23.6064 21.0759 24.1083C21.1123 24.2131 21.0818 24.2884 21.0638 24.3673C20.9399 24.9079 20.984 25.4459 21.0679 25.9847" stroke="white" stroke-width="0.75" stroke-linecap="round" stroke-linejoin="round"/>
<path d="M22.9433 22.4209C22.9507 22.5777 22.8629 22.686 22.7599 22.7886C22.355 23.192 21.9479 23.5933 21.5493 24.0027C21.4332 24.122 21.2882 24.1668 21.1431 24.2211" stroke="white" stroke-width="0.75" stroke-linecap="round" stroke-linejoin="round"/>
<path d="M24.834 14.375C24.7336 14.6959 24.42 14.8311 24.2258 15.0714C23.726 15.6896 23.0593 16.1321 22.5006 16.6891C22.4176 16.7718 22.3359 16.8519 22.3541 16.9835" stroke="white" stroke-width="0.75" stroke-linecap="round" stroke-linejoin="round"/>
<path d="M27.4603 17.8281C27.1377 18.4244 26.6697 18.8897 26.1381 19.2983C26.0717 19.3493 25.989 19.4067 25.9195 19.3673C25.4639 19.1086 24.9478 19.3819 24.4806 19.1973C24.3978 19.1646 24.2336 19.2299 24.1589 19.3029C23.7563 19.696 23.3713 20.1072 22.9765 20.5085C22.9283 20.5574 22.9488 20.6069 22.9414 20.6571" stroke="white" stroke-width="0.75" stroke-linecap="round" stroke-linejoin="round"/>
<path d="M24.4862 20.8779C24.4976 20.9634 24.4662 21.0338 24.413 21.0986C24.0484 21.5423 23.628 21.9312 23.1946 22.3041C23.1132 22.3741 22.9654 22.4404 22.8331 22.3473C22.6257 22.2015 22.3829 22.2525 22.1738 22.287C21.9078 22.331 21.671 22.3848 21.4323 22.2066C21.3773 22.1655 21.2654 22.2005 21.1797 22.2005" stroke="white" stroke-width="0.75" stroke-linecap="round" stroke-linejoin="round"/>
<path d="M25.9546 19.4082C25.9472 19.4584 25.9677 19.5078 25.9195 19.5568C25.5491 19.9334 25.1883 20.3197 24.8128 20.6911C24.6847 20.8178 24.5365 20.9049 24.3344 20.7731C24.1685 20.6648 23.97 20.7726 23.7871 20.7759C23.5116 20.7808 23.2409 20.8648 22.9733 20.7031C22.9123 20.6663 22.7475 20.7106 22.6904 20.7727C22.2621 21.2384 21.7249 21.6037 21.3989 22.1636" stroke="white" stroke-width="0.75" stroke-linecap="round" stroke-linejoin="round"/>
<path d="M23.9339 17.2402C23.9094 17.3015 23.9009 17.3787 23.858 17.4215C23.3983 17.8803 23.0375 18.4409 22.4644 18.7833" stroke="white" stroke-width="0.75" stroke-linecap="round" stroke-linejoin="round"/>
<path d="M26.9644 16.3594C27.2409 16.746 27.6976 16.9742 27.9043 17.4201C27.8049 17.5894 27.666 17.7073 27.4841 17.7989C27.1877 17.545 26.8613 17.7362 26.5419 17.7564C26.4436 17.7626 26.3204 17.8243 26.2522 17.785C25.8316 17.5424 25.6103 17.8338 25.3655 18.0854C25.1361 18.3213 24.9072 18.5584 24.6654 18.7811C24.5508 18.8868 24.4924 19.0118 24.4478 19.1516" stroke="white" stroke-width="0.75" stroke-linecap="round" stroke-linejoin="round"/>
<path d="M21.105 18.5635C21.3746 18.5716 21.6346 18.6502 21.915 18.6143C22.0783 18.5934 22.2925 18.6207 22.4762 18.8324C22.0984 19.312 21.7245 19.7953 21.1417 20.0698" stroke="white" stroke-width="0.75" stroke-linecap="round" stroke-linejoin="round"/>
<path d="M24.0068 15.4775C24.2215 15.6451 24.4666 15.5989 24.7046 15.5671C24.9676 15.5319 25.2281 15.4823 25.4764 15.6245" stroke="white" stroke-width="0.75" stroke-linecap="round" stroke-linejoin="round"/>
<path d="M26.9838 16.4697C26.6544 16.8734 26.1274 17.1043 25.9551 17.6454" stroke="white" stroke-width="0.75" stroke-linecap="round" stroke-linejoin="round"/>
<path d="M38.1514 32.0833C37.2176 32.3595 36.7902 33.0313 36.8641 33.9571C36.9221 34.6832 37.5711 35.3534 38.2985 35.386C39.1561 35.4245 39.7198 35.1015 40.0193 34.3588C40.4818 33.2118 39.5534 32.0221 38.5555 32.0823C38.4334 32.0896 38.3106 32.0833 38.1881 32.0833" stroke="white" stroke-width="0.75" stroke-linecap="round" stroke-linejoin="round"/>
</svg>
