<svg width="68" height="64" viewBox="0 0 68 64" fill="none" xmlns="http://www.w3.org/2000/svg">
<path d="M63.4122 40.1416C57.4401 45.3352 51.5097 50.482 45.5932 55.6448C45.1228 56.0552 44.6409 56.224 44.0232 56.2215C39.7321 56.2042 35.4409 56.2132 31.1497 56.2131C30.9468 56.2131 30.7415 56.2247 30.5416 56.1981C30.1384 56.1444 29.8 55.9911 29.8089 55.5059C29.8182 55.0009 30.1777 54.8934 30.5854 54.8897C31.6871 54.8797 32.7889 54.881 33.8907 54.8807C36.9641 54.8798 40.0376 54.8641 43.1108 54.8929C43.8038 54.8994 44.0815 54.7284 44.0704 53.9741C44.0371 51.7147 44.0667 51.75 41.8317 51.7019C37.9172 51.6177 34.0094 51.8977 30.0966 51.8685C29.8069 51.8663 29.5142 51.882 29.2281 51.8468C28.8149 51.796 28.6213 51.4976 28.6332 51.1179C28.6449 50.7472 28.9082 50.5643 29.2743 50.5441C29.4189 50.5361 29.564 50.5358 29.709 50.534C34.4032 50.4771 39.0974 50.4122 43.7918 50.3744C44.3521 50.3699 44.7777 50.2068 45.1989 49.8441C50.8419 44.9852 56.4963 40.1394 62.1463 35.2885C62.2044 35.2387 62.2413 35.1641 62.3349 35.0382C61.1882 34.9298 60.1041 34.9368 59.0135 34.9346C53.7089 34.924 48.4043 34.8743 43.1 34.8182C42.3911 34.8108 41.8353 34.8265 41.8562 35.7784C41.8653 36.1923 41.573 36.5181 41.0901 36.5907C40.5479 36.6722 40.0067 36.8871 39.4724 36.8652C38.6689 36.8323 38.4512 37.2712 38.2599 37.916C37.2979 41.158 35.5594 43.9165 33.0486 46.1921C29.3739 49.5225 24.9769 50.1822 20.4946 48.0533C20.2329 47.929 19.9786 47.7867 19.7106 47.678C17.7002 46.8633 16.4252 45.3702 15.6943 43.3637C15.5768 43.0411 15.4119 42.7358 15.1925 42.2552C11.8691 44.8237 8.72625 47.4625 5.61481 50.1397C5.63965 50.212 5.6645 50.2843 5.68935 50.3566C6.78017 50.3566 7.871 50.3564 8.96182 50.3566C10.4985 50.3569 12.0353 50.3501 13.5719 50.3631C13.9823 50.3665 14.5295 50.2364 14.5608 50.8976C14.5927 51.5698 14.0419 51.6022 13.586 51.6101C10.9775 51.655 8.36849 51.6739 5.75964 51.7011C5.49871 51.7038 5.23753 51.6965 4.97684 51.7052C3.87043 51.742 3.78973 51.8258 3.79764 52.9053C3.81212 54.88 3.81212 54.88 5.77422 54.8802C6.84701 54.8804 7.91985 54.8862 8.99257 54.878C9.46031 54.8744 9.93736 54.9273 9.96005 55.4944C9.98306 56.0692 9.44502 56.1788 9.03139 56.1951C7.93168 56.2382 6.8289 56.2034 5.72735 56.1997C5.4664 56.1988 5.20544 56.199 4.9445 56.1971C2.29861 56.1776 2.80846 56.3793 2.5068 53.8319C2.27552 51.8788 2.85529 50.4614 4.48392 49.217C7.77435 46.7029 10.8976 43.9707 14.1155 41.3601C14.6746 40.9065 14.9265 40.4245 14.818 39.7257C14.335 36.6147 15.0054 33.6356 15.8634 30.6788C15.9103 30.5171 15.9554 30.3549 16.0158 30.1423C15.1558 29.6588 14.2355 29.4048 13.3455 29.0842C12.7097 28.8552 12.4167 28.4923 12.7599 27.8348C13.7934 25.855 14.8397 23.8794 16.3085 22.1753C18.1628 20.024 20.5736 18.68 23.211 17.8178C24.6556 17.3455 26.2443 17.3709 27.7645 17.7038C28.8714 17.9462 29.8109 17.7706 30.8044 17.16C38.285 12.5631 45.8594 8.11567 53.2733 3.41464C56.4363 1.40901 59.978 1.63141 62.1554 3.4802C63.9237 4.9816 64.9097 6.94428 65.394 9.19083C65.9418 11.7317 64.9342 13.6515 63.0324 15.2202C59.5002 18.1337 55.8392 20.8817 52.1853 23.6388C49.0395 26.0125 45.9002 28.3948 42.7592 30.7748C42.2157 31.1866 41.8339 32.7044 42.1414 33.262C42.339 33.6203 42.7044 33.5012 43.0048 33.5019C46.0202 33.5086 49.0388 33.4144 52.0502 33.5235C55.873 33.662 59.695 33.6431 63.5175 33.6731C64.325 33.6795 64.7312 33.9253 64.7419 34.8315C64.7499 35.5168 64.8211 36.2164 64.892 36.9044C65.0327 38.2693 64.6675 39.3622 63.4122 40.1416ZM57.0511 3.24852C55.9797 3.44366 55.0129 3.88073 54.1098 4.48346C53.0981 5.15873 52.0789 5.82333 51.0507 6.47321C45.0264 10.2809 38.8424 13.824 32.7433 17.5078C32.311 17.7689 31.8211 17.9676 31.4856 18.5113C36.7886 20.4767 40.4905 23.9326 41.9612 29.423C42.3657 29.3965 42.556 29.203 42.7606 29.0515C49.3972 24.1387 55.8953 19.0464 62.3425 13.8893C63.5612 12.9144 64.4399 11.6846 64.212 10.0036C64.0194 8.58211 63.5457 7.23486 62.6869 6.07413C61.3292 4.23889 59.6274 3.00472 57.0511 3.24852ZM36.4661 27.1826C34.1454 23.6797 29.9203 23.3074 26.6928 25.5174C24.6841 26.8928 23.2412 28.7603 21.9723 30.7832C21.6468 31.302 21.3723 31.7776 20.6525 31.6775C20.3346 31.6334 20.193 31.8453 20.1015 32.1188C19.0164 35.3622 18.2879 38.6313 19.1636 42.0668C20.5561 47.5305 25.344 49.5857 30.1664 46.6535C34.1859 44.2095 36.3387 40.3942 37.4208 35.934C38.1402 32.9684 38.1968 30.0288 36.4661 27.1826ZM17.0363 29.144C17.6486 29.4603 17.9278 28.9992 18.2474 28.6272C19.6801 26.959 21.0978 25.2748 22.7965 23.8622C25.3167 21.7665 28.0299 20.1223 31.475 20.2287C31.5715 20.2316 31.7182 20.2603 31.7162 20.029C30.6927 19.5082 29.5635 19.266 28.4327 19.0728C26.4842 18.7399 24.5691 18.6092 22.6448 19.4196C18.9566 20.9728 16.4073 23.6217 14.682 27.1681C14.3928 27.7625 14.3861 28.1097 15.0685 28.3494C15.695 28.5694 16.2987 28.8544 17.0363 29.144ZM40.7934 31.5047C40.6236 29.3947 40.1337 27.3746 38.8693 25.6398C37.58 23.8708 36.1569 22.2211 33.8872 21.6706C31.9409 21.1985 30.0207 21.3965 28.177 22.1031C24.3367 23.5748 21.7255 26.5023 19.3677 29.7076C19.3407 29.7444 19.3643 29.8184 19.3646 29.875C20.3326 30.5307 20.4747 30.5067 21.0634 29.6144C21.3185 29.2277 21.5749 28.8408 21.8514 28.4694C23.9629 25.6341 26.3748 23.2849 30.1727 22.9485C32.6668 22.7276 34.8378 23.3901 36.5934 25.1397C38.6055 27.1449 39.228 29.7048 39.1524 32.4669C39.1243 33.4962 39.0264 34.5236 38.9604 35.5509C40.3417 35.6206 40.5745 35.5477 40.7002 34.8389C40.8865 33.7878 41.0535 32.7265 40.7934 31.5047ZM48.9966 50.8621C53.4875 46.9839 57.9482 43.0698 62.4904 39.2527C63.6277 38.297 63.6904 37.2343 63.5331 35.8152C61.9998 37.1255 60.571 38.3381 59.1514 39.5612C55.0084 43.1307 50.9074 46.7505 46.704 50.2473C45.4877 51.2592 45.1435 52.3442 45.4918 53.9423C46.6675 52.9072 47.7843 51.9239 48.9966 50.8621ZM18.8434 31.637C18.8966 30.8906 18.2393 30.9972 17.8411 30.8521C17.4542 30.7111 17.1851 30.9635 17.0578 31.3417C15.6885 35.4094 15.3478 39.4738 17.2262 43.4841C17.6659 44.4229 18.1117 45.4334 19.2313 45.8618C19.2313 45.7723 19.2476 45.7128 19.2285 45.6686C19.1484 45.4831 19.0667 45.2971 18.9694 45.1202C17.8816 43.143 17.5385 40.9738 17.5119 38.7737C17.4827 36.3659 17.939 34.0133 18.8434 31.637Z" fill="#363636"/>
<path d="M16.2533 54.7393C14.6676 56.8494 13.1194 58.91 11.5679 60.968C11.4463 61.1292 11.314 61.287 11.1641 61.4211C10.868 61.686 10.4951 61.7107 10.2062 61.4881C9.88874 61.2436 9.91467 60.8825 10.1577 60.5574C12.4102 57.543 14.6608 54.5273 16.9173 51.5159C17.2198 51.1122 17.6728 50.9796 18.0667 51.2626C18.5386 51.6015 18.2806 52.0145 17.9986 52.3862C17.4209 53.1477 16.8586 53.9208 16.2533 54.7393Z" fill="#363636"/>
<path d="M21.1588 55.4395C20.7606 57.3131 20.3802 59.1159 19.9984 60.9183C19.9627 61.0867 19.9271 61.256 19.8758 61.42C19.749 61.8255 19.5049 62.0757 19.0438 61.9796C18.5533 61.8773 18.4946 61.4875 18.56 61.1058C18.6914 60.3402 18.8788 59.5843 19.0394 58.8237C19.4318 56.9654 19.8217 55.1066 20.2136 53.2482C20.2493 53.0792 20.3011 52.9133 20.3301 52.7434C20.4211 52.2111 20.7358 51.9866 21.2539 52.1121C21.7946 52.2431 21.7681 52.6945 21.6928 53.0926C21.5483 53.8565 21.3514 54.6105 21.1588 55.4395Z" fill="#363636"/>
<path d="M24.3837 53.3218C24.3231 52.7799 24.4727 52.4625 25.0044 52.4254C25.4973 52.391 25.6372 52.7085 25.7324 53.1075C26.1665 54.9271 26.5399 56.7615 27.0914 58.5528C27.1894 58.8712 27.2474 59.2465 26.9956 59.5486C26.8398 59.7354 26.619 59.8182 26.3728 59.7657C26.0122 59.6889 25.8696 59.4177 25.7894 59.09C25.3241 57.1889 24.856 55.2885 24.3837 53.3218Z" fill="#363636"/>
<path d="M25.8018 33.8963C26.3627 32.9251 26.9272 32.0308 28.0377 31.7488C29.8734 31.2827 31.5119 32.5155 31.6025 34.5255C31.6751 36.1361 31.2495 37.6242 30.007 38.7807C29.0039 39.7143 27.7635 39.9522 26.6548 39.3934C25.7003 38.9123 25.0037 37.5575 25.1452 36.3811C25.2455 35.5481 25.4073 34.7239 25.8018 33.8963ZM30.3064 35.3109C30.327 34.7894 30.3229 34.2743 30.0824 33.7882C29.651 32.9163 28.7888 32.6711 27.9885 33.2022C26.8338 33.9684 26.1231 36.3019 26.662 37.5569C27.0923 38.559 27.8571 38.7844 28.7458 38.1586C29.6801 37.5007 30.0854 36.5319 30.3064 35.3109Z" fill="#363636"/>
</svg>
