<svg width="68" height="64" viewBox="0 0 68 64" fill="none" xmlns="http://www.w3.org/2000/svg">
<path d="M47.3556 5.56652C48.404 4.5258 49.3887 3.52379 50.4015 2.55097C51.1755 1.80744 51.7493 1.81524 52.5248 2.58173C53.865 3.90626 55.1923 5.24424 56.5064 6.59469C57.3742 7.48651 57.3441 8.0663 56.4526 8.95495C45.7757 19.598 35.0988 30.2409 24.4258 40.8879C24.1155 41.1974 23.7725 41.4726 23.6017 41.9179C22.8399 43.9044 23.6871 45.2085 25.7991 45.2095C38.2712 45.216 50.7434 45.2125 63.2156 45.2134C65.0731 45.2135 65.1248 45.2676 65.1217 47.1174C65.1206 47.7685 65.1199 48.4195 65.1169 49.0705C65.1098 50.6215 64.9055 50.8269 63.317 50.845C62.4262 50.8551 61.5353 50.8492 60.6444 50.8492C48.8233 50.8491 37.0021 50.8511 25.181 50.847C20.9902 50.8455 18.3708 48.2503 18.3474 44.0703C18.3329 41.4663 18.3514 38.8621 18.3496 36.258C18.3489 35.2907 18.6467 34.4795 19.3525 33.7702C26.095 26.9953 32.8188 20.2018 39.5503 13.4159C42.1318 10.8135 44.7192 8.21699 47.3556 5.56652ZM22.7731 32.7006C22.1296 33.3646 21.5162 34.0616 20.8344 34.6836C20.1193 35.336 19.8691 36.0851 19.8924 37.052C19.9507 39.4829 19.9005 41.9162 19.9158 44.3483C19.934 47.2156 22.0638 49.3241 24.9328 49.3246C37.3338 49.327 49.7348 49.3251 62.1358 49.3242C62.4098 49.3242 62.684 49.323 62.9577 49.3122C63.2604 49.3002 63.4527 49.1714 63.5458 48.8516C63.9557 47.4431 63.5004 46.8125 62.0448 46.8124C49.8836 46.8118 37.7224 46.8121 25.5612 46.811C25.1503 46.8109 24.736 46.8305 24.3289 46.7876C22.6897 46.6149 21.954 45.7209 21.81 44.0955C21.6295 42.0596 22.1158 40.3758 23.8647 39.1746C24.0871 39.0219 24.2601 38.7967 24.4538 38.6029C34.1623 28.8874 43.8711 19.1723 53.5769 9.45428C54.1033 8.92731 54.6043 8.37507 55.1359 7.8147C54.2781 6.67268 53.295 5.77001 52.3403 4.84347C51.3846 3.91596 51.3653 3.91644 50.3899 4.88941C48.3049 6.96919 46.2271 9.05632 44.1528 11.1468C37.059 18.2956 29.968 25.4473 22.7731 32.7006Z" fill="#363636"/>
<path d="M3.11339 55.986C3.11375 55.164 3.14243 54.4432 3.1074 53.7254C3.06394 52.8344 3.50907 52.4765 4.34074 52.4732C4.58054 52.4722 4.82035 52.4678 5.06015 52.4678C24.4515 52.467 43.8429 52.4662 63.2343 52.4663C64.8922 52.4663 65.1256 52.7057 65.1244 54.377C65.123 56.3299 65.1238 58.2828 65.1214 60.2356C65.1195 61.7363 64.8701 61.9999 63.4184 61.9998C43.8557 61.9993 24.293 61.9975 4.73029 61.9933C3.2969 61.9929 3.11956 61.8123 3.11482 60.4055C3.10997 58.9665 3.11354 57.5275 3.11339 55.986ZM40.7115 54.1259C29.0287 54.1222 17.3457 54.1265 5.66295 54.0967C4.87085 54.0947 4.65181 54.3433 4.67928 55.0925C4.72695 56.3927 4.75241 57.6995 4.67361 58.9966C4.61231 60.0058 4.98162 60.2706 5.95851 60.2649C12.5706 60.226 19.183 60.2414 25.7953 60.2412C37.9921 60.2408 50.1888 60.2342 62.3856 60.2578C63.2683 60.2595 63.6222 60.0133 63.5815 59.0953C63.5209 57.7276 63.5327 56.354 63.5792 54.9851C63.6048 54.2295 63.2968 54.0922 62.6039 54.095C55.3751 54.1251 48.1461 54.1207 40.7115 54.1259Z" fill="#363636"/>
<path d="M11.1038 41.5079C11.2946 41.6659 11.4267 41.7748 11.5561 41.8868C11.9594 42.2358 12.0179 42.674 11.6981 43.0624C11.379 43.4498 10.9499 43.3236 10.5907 43.0594C9.04716 41.9244 7.5085 40.7826 5.97201 39.638C5.2313 39.0862 4.49898 38.5232 3.76369 37.9641C3.60045 37.84 3.43594 37.7169 3.28025 37.5837C2.8549 37.2197 2.74129 36.7382 3.05454 36.3037C3.4052 35.8172 3.85061 36.0863 4.22112 36.3621C5.70252 37.4646 7.17711 38.5763 8.65568 39.6827C9.45022 40.2772 10.2477 40.8678 11.1038 41.5079Z" fill="#363636"/>
<path d="M9.56083 45.4683C11.0276 45.4722 12.3922 45.4595 13.7559 45.4885C14.3099 45.5003 14.935 45.5798 14.9223 46.3279C14.9107 47.0075 14.3223 47.1064 13.8034 47.1104C11.4505 47.1283 9.09725 47.1228 6.74423 47.1079C6.23749 47.1047 5.79817 46.9687 5.76104 46.3189C5.72112 45.6199 6.21841 45.5361 6.69692 45.5116C7.61568 45.4645 8.53762 45.4793 9.56083 45.4683Z" fill="#363636"/>
<path d="M9.44434 34.5377C9.74431 33.5473 10.3066 33.3586 10.8416 34.0773C12.4326 36.2145 13.9694 38.3923 15.5165 40.5621C15.8142 40.9797 15.8071 41.4214 15.3527 41.7267C14.9412 42.0033 14.5505 41.8557 14.2823 41.4768C12.6663 39.1936 10.9173 37.0035 9.44434 34.5377Z" fill="#363636"/>
</svg>
