<svg width="62" height="64" viewBox="0 0 62 64" fill="none" xmlns="http://www.w3.org/2000/svg">
<path d="M20.7947 2.24511C20.6286 2.4112 20.5732 5.16088 20.5732 13.5022C20.5732 24.2057 20.5917 24.5378 20.9239 24.7224C21.1269 24.8146 22.2895 24.9069 23.5075 24.9069H25.7404V31.3105L25.7589 37.7326L28.0288 40.2055C29.2836 41.5711 30.4647 42.7522 30.6493 42.826C30.8338 42.8813 31.1475 42.8813 31.3136 42.7891C31.4797 42.6968 32.6239 41.5342 33.8418 40.2055L36.0748 37.7695V31.2552V24.7408L38.7138 24.6855L41.3343 24.6301L41.3896 13.576C41.4081 5.56687 41.3712 2.4481 41.2235 2.28202C40.9283 1.93139 21.1453 1.89448 20.7947 2.24511ZM40.1347 13.4284V23.5228L30.9999 23.5967L21.865 23.652V13.4837V3.31545H30.9999H40.1347V13.4284ZM34.0079 38.1755C33.5835 38.6369 32.7161 39.578 32.0887 40.2608L30.9261 41.4973L28.9884 39.3566L27.0322 37.2159V31.0706V24.9069L30.8707 24.87L34.6907 24.8146L34.7461 31.0706L34.783 37.3082L34.0079 38.1755Z" fill="#363636"/>
<path d="M2.9866 26.1429C2.91278 26.1983 2.85742 27.527 2.85742 29.0587C2.85742 31.0887 2.93124 31.9191 3.09733 32.0667C3.20805 32.1775 4.29685 32.2882 5.47792 32.3251C7.30489 32.362 7.71088 32.4358 8.15379 32.768C8.4306 32.971 11.5863 36.7172 15.1664 41.0724C18.7465 45.4276 22.2159 49.5798 22.8803 50.318C24.3012 51.8681 25.8514 52.9385 27.3462 53.4183C27.9367 53.6028 28.5642 53.7874 28.7487 53.8612C28.9333 53.9166 23.9506 53.9535 17.6946 53.9166C9.24259 53.8796 6.253 53.9166 6.06846 54.0826C5.71783 54.3595 5.68092 61.4274 6.03155 61.7781C6.19764 61.9441 12.0107 61.9995 31.037 61.9995C55.3413 61.9995 55.8026 61.9995 56.0056 61.6489C56.1163 61.4274 56.1902 59.8773 56.1902 57.8842C56.1902 54.8024 56.1532 54.4702 55.8395 54.1749C55.5258 53.8796 54.6215 53.8612 44.2318 53.9166C38.0496 53.9535 33.0116 53.9166 33.0485 53.8612C33.0855 53.7874 33.4361 53.6951 33.8052 53.6213C34.7832 53.4737 36.7209 52.514 37.902 51.6098C38.5664 51.0931 40.5225 48.8232 43.7151 44.8371C51.3367 35.3147 53.2375 33.0263 53.8649 32.6388C54.3447 32.3435 54.7876 32.2882 56.4854 32.2882C59.2166 32.2882 59.1428 32.3804 59.1428 29.0402C59.1428 27.2686 59.069 26.3828 58.9214 26.2352C58.7737 26.0876 57.8695 26.0137 56.0794 26.0137C52.9791 26.0137 51.6504 26.3459 50.1925 27.4532C49.602 27.8961 46.8523 31.144 42.4971 36.5327C34.6725 46.2211 33.9343 47.07 33.0301 47.4945C32.1074 47.9374 30.5572 48.0666 29.6899 47.7897C28.5642 47.4207 27.9183 46.8486 25.5008 43.9513C22.3266 40.1312 15.2587 31.4946 14.2621 30.1659C12.6197 28.0068 10.9957 26.8073 9.03959 26.309C7.93234 26.0137 3.22651 25.8846 2.9866 26.1429ZM9.79621 27.8961C10.3129 28.1729 10.9957 28.6158 11.3095 28.8741C11.6416 29.151 15.0557 33.2478 18.9311 37.9721C22.8064 42.7148 26.3127 46.9593 26.7372 47.3838C28.7487 49.506 32.052 49.8566 34.3588 48.1773C35.0601 47.6606 37.8651 44.3019 45.7635 34.5027C50.2479 28.948 50.6908 28.4681 52.0379 27.8407C53.0714 27.3424 53.2928 27.3055 55.5073 27.3055H57.851V29.151V30.9964H56.061C53.5881 31.0148 53.0898 31.2547 51.3736 33.3401C50.617 34.2259 47.3137 38.3043 44.0473 42.4011C38.3634 49.4875 37.1085 50.8531 35.6506 51.6098C31.8859 53.5475 27.217 52.92 24.3566 50.0965C23.8399 49.5798 21.8099 47.1808 19.8353 44.7448C13.5609 36.994 10.3683 33.1371 9.48249 32.2697C8.48596 31.2732 7.61861 30.9964 5.49638 30.9964H4.05695V29.1325V27.2686L6.456 27.3424C8.61514 27.3978 8.94732 27.4532 9.79621 27.8961ZM54.7138 57.9396V60.7077H30.9079H7.1019V57.9396V55.1714H30.9079H54.7138V57.9396Z" fill="#363636"/>
</svg>
