<svg width="46" height="62" viewBox="0 0 46 62" fill="none" xmlns="http://www.w3.org/2000/svg">
<path d="M38.4111 43.6861C37.4056 43.5016 36.3905 43.6468 35.3813 43.5974C35.0632 43.5819 34.7329 43.5891 34.4315 43.5037C33.6514 43.2827 33.276 43.5456 33.2138 44.3784C33.1405 45.3605 33.0243 46.3397 32.9639 47.3224C32.9215 48.0111 32.471 48.3642 32.0275 48.8158C31.1979 49.6607 30.2524 50.2623 29.1441 50.5982C28.5352 50.7827 27.8988 50.8864 27.2436 50.8795C25.1661 50.8575 23.0879 50.8438 21.0108 50.8774C17.3253 50.937 13.2487 47.555 12.7603 43.9493C12.5362 42.2948 12.6783 40.6558 12.6234 39.011C12.5741 37.5344 11.9153 36.9681 10.4521 36.8187C8.34562 36.6037 6.69175 37.1216 5.40024 38.9045C4.69102 39.8835 3.73977 40.7056 2.81733 41.5059C2.10139 42.127 1.73719 42.9667 1.18422 43.6844C0.978922 43.9509 1.014 44.2528 1.01394 44.5518C1.01291 49.6882 1.01555 54.8247 1.00782 59.9611C1.00731 60.2967 1.05821 60.6088 1.21444 60.9574C1.5026 60.9707 1.8206 60.9981 2.1386 60.9981C13.912 61.0003 25.6854 61.0001 37.4588 60.9998C38.6269 60.9997 38.9843 60.5858 38.6547 59.5333C38.5685 59.2584 38.5907 59.0069 38.5903 58.7492C38.582 54.1033 38.6418 49.4561 38.5402 44.8124C38.5173 43.7661 38.8334 43.1374 39.5229 42.4602C41.1239 40.8878 42.653 39.2422 44.2112 37.6262" stroke="#363636" stroke-width="1.5" stroke-linecap="round" stroke-linejoin="round"/>
<path d="M31.7444 12.6942C32.4215 12.2387 33.1844 12.4612 33.9088 12.444C35.3467 12.4098 35.8084 12.0441 35.9824 10.6161C36.1927 8.88941 36.0327 7.15361 36.0685 5.42226C36.0917 4.29734 36.0748 3.17154 36.0722 2.04615C36.0699 1.06314 36.0133 1.0084 34.9474 1.00807C29.5224 1.00642 24.0974 1.00731 18.6724 1.00731C17.2873 1.00731 15.9019 1.02358 14.5172 1.0004C13.8305 0.988915 13.5467 1.21996 13.5494 1.95963C13.5595 4.672 13.5005 7.38455 13.4807 10.0971C13.4679 11.8362 14.0765 12.439 15.8156 12.433C17.0565 12.4287 18.2948 12.5128 19.5388 12.4481C20.7475 12.3853 21.9621 12.4345 23.174 12.4345C24.4148 12.4345 25.6557 12.4345 26.8965 12.4345C28.1085 12.4345 29.3204 12.4375 30.5324 12.4327C30.9184 12.4312 31.3024 12.4216 31.6578 12.6076" stroke="#363636" stroke-width="1.5" stroke-linecap="round" stroke-linejoin="round"/>
<path d="M6.12012 43.6865C6.3225 44.0087 6.2883 44.3686 6.2953 44.7253C6.32361 46.1692 6.23223 47.6126 6.45753 49.0552C7.10295 53.1878 9.81224 55.8361 14.001 56.2045C17.4777 56.5103 20.9801 56.3468 24.4732 56.2539C26.6813 56.1952 28.5854 55.4528 30.2724 54.0743C31.7606 52.8583 32.4587 51.1856 32.9549 49.3996C33.0481 49.0639 32.7735 48.8259 32.6969 48.5344" stroke="#363636" stroke-width="1.5" stroke-linecap="round" stroke-linejoin="round"/>
<path d="M33.9961 43.2531C34.1622 42.7889 34.3989 42.3872 34.7678 42.0333C36.3435 40.5221 37.9092 38.9994 39.4372 37.4404C39.8007 37.0695 40.1994 36.8787 40.6624 36.859C41.613 36.8187 42.569 36.8032 43.518 36.8593C44.4586 36.9149 44.9859 37.6023 44.9885 38.6649C44.9944 41.06 44.9904 43.455 44.9904 45.8501C44.9904 48.3895 44.9918 50.9289 44.9886 53.4683C44.9882 53.7787 45.0141 54.0601 44.7418 54.3446C43.1894 55.9674 41.6725 57.6242 40.142 59.268C39.7974 59.6381 39.4513 60.009 38.9305 60.1341" stroke="#363636" stroke-width="1.5" stroke-linecap="round" stroke-linejoin="round"/>
<path d="M27.5024 20.8322C27.4411 22.1877 27.3307 23.5855 27.4944 24.8911C27.6774 26.3505 27.7158 27.7979 27.6306 29.2267C27.5472 30.6242 27.6207 32.0108 27.7153 33.382C27.843 35.2337 27.0135 36.7688 26.4534 38.4023C26.3159 38.8032 25.9854 38.945 25.5112 38.9415C23.5957 38.9273 23.653 38.922 22.8076 37.2037C22.2395 36.0491 22.2587 34.8788 22.1305 33.654C21.9812 32.2269 21.9528 30.8091 22.0021 29.404C22.048 28.0988 21.9076 26.8067 21.9522 25.5066C21.9968 24.2096 21.9593 22.9098 21.9641 21.6113C21.9652 21.3214 21.9099 21.0232 22.0486 20.7456" stroke="#363636" stroke-width="1.5" stroke-linecap="round" stroke-linejoin="round"/>
<path d="M31.7455 12.7812C31.7743 13.7624 31.8171 14.7433 31.8285 15.7247C31.843 16.9653 31.8363 18.2063 31.8306 19.4471C31.8265 20.3418 31.6045 20.5723 30.7066 20.5698C28.1382 20.5626 25.5699 20.6558 23.0013 20.4961C21.6198 20.4101 20.2316 20.4032 18.8467 20.4099C18.1481 20.4132 17.8673 20.1855 17.8803 19.4469C17.9194 17.2256 17.8944 15.0032 17.8944 12.7812" stroke="#363636" stroke-width="1.5" stroke-linecap="round" stroke-linejoin="round"/>
<path d="M11.6605 37.7993C9.98687 39.5307 8.29077 41.2413 6.65381 43.0067C6.19041 43.5065 5.7041 43.6332 5.08097 43.6066C4.36087 43.5759 3.63763 43.5786 2.91736 43.6073C2.48036 43.6246 2.08914 43.5193 1.70508 43.3398" stroke="#363636" stroke-width="1.5" stroke-linecap="round" stroke-linejoin="round"/>
<path d="M27.3306 30.6143C26.0286 31.0602 25.0842 32.0641 23.9535 32.777C23.4284 33.1081 22.9842 33.5957 22.3096 33.6442" stroke="#363636" stroke-width="1.5" stroke-linecap="round" stroke-linejoin="round"/>
<path d="M27.3306 24.9004C26.0838 25.3568 25.2344 26.4034 24.1235 27.0578C23.5226 27.4117 23.1012 28.0821 22.3096 28.1035" stroke="#363636" stroke-width="1.5" stroke-linecap="round" stroke-linejoin="round"/>
<path d="M13.6523 31.3501C14.2006 31.7685 14.7513 32.1838 15.2963 32.6064C15.6685 32.895 16.0511 33.1617 16.5091 33.2979" stroke="#363636" stroke-width="1.5" stroke-linecap="round" stroke-linejoin="round"/>
<path d="M15.5564 29.4019C15.3595 30.1664 16.339 30.3717 16.3432 31.0466C16.3435 31.1047 16.4531 31.1601 16.5084 31.2201C17.1987 31.9699 17.1807 32.7204 16.5087 33.4706" stroke="#363636" stroke-width="1.5" stroke-linecap="round" stroke-linejoin="round"/>
</svg>
