<svg width="86" height="50" viewBox="0 0 86 50" fill="none" xmlns="http://www.w3.org/2000/svg">
<path d="M77.04 41.3525C78.5064 41.3525 79.9729 41.3506 81.4393 41.3534C82.0738 41.3546 82.679 41.2218 83.2593 40.9724C83.9232 40.6871 84.254 40.1387 84.2337 39.4566C84.1811 37.6867 84.4117 35.9112 84.1067 34.1444C84.0388 33.7508 84.2631 33.3536 84.2554 32.9328C84.2298 31.5427 84.1536 30.1441 84.2693 28.7632C84.4114 27.0658 83.8571 25.6012 83.0225 24.2159C81.7593 22.1193 80.5787 19.9777 79.3868 17.8412C77.7871 14.9738 76.2049 12.0946 74.5186 9.2784C73.472 7.53044 71.7644 6.77795 69.7583 6.77063C64.6006 6.75181 59.4427 6.76434 54.2849 6.76434C53.1726 6.76434 52.5417 7.3907 52.5412 8.50892C52.5392 13.0094 52.5404 17.5099 52.5404 22.0104C52.5404 26.8902 52.5404 31.77 52.5404 36.6497C52.5404 38.1415 52.5404 39.6332 52.5404 41.1249" stroke="#363636" stroke-width="1.5" stroke-linecap="round" stroke-linejoin="round"/>
<path d="M76.9632 22.5421C76.7254 21.3336 75.9291 20.4015 75.3586 19.3628C74.0559 16.9909 72.6998 14.6481 71.3463 12.3045C70.679 11.149 69.6499 10.6817 68.3162 10.6982C65.409 10.7341 62.5011 10.7078 59.5936 10.71C58.5206 10.7109 58.0024 11.2284 58.0016 12.3021C57.9991 15.5385 58.0102 18.7748 57.9932 22.0111C57.9895 22.7163 58.13 22.8543 58.8351 22.8527C64.5491 22.8398 70.2632 22.8359 75.9771 22.8646C76.4072 22.8668 76.7562 22.504 77.1908 22.6938" stroke="#363636" stroke-width="1.5" stroke-linecap="round" stroke-linejoin="round"/>
<path d="M32.8936 8.28207C32.7089 7.92458 32.6581 7.54644 32.6609 7.14427C32.6731 5.45035 32.6505 3.75606 32.6748 2.0624C32.6829 1.49272 32.4766 1.29347 31.9075 1.29537C27.4071 1.31044 22.9066 1.3129 18.4063 1.29348C17.7625 1.2907 17.635 1.5696 17.6388 2.13818C17.6581 5.07097 17.6477 8.00395 17.6477 10.9369" stroke="#363636" stroke-width="1.5" stroke-linecap="round" stroke-linejoin="round"/>
<path d="M52.3109 37.712C44.1443 37.712 35.9778 37.7115 27.8112 37.7139C27.4771 37.714 27.128 37.6449 26.8252 37.8637" stroke="#363636" stroke-width="1.5" stroke-linecap="round" stroke-linejoin="round"/>
<path d="M60.504 41.3527C58.2284 41.3527 55.9529 41.3527 53.6774 41.3527C45.1822 41.3527 36.687 41.3532 28.1918 41.3506C27.9128 41.3505 27.6262 41.4048 27.3574 41.2769" stroke="#363636" stroke-width="1.5" stroke-linecap="round" stroke-linejoin="round"/>
<path d="M60.5801 41.4291C60.9655 42.0301 60.936 42.754 61.1711 43.4069C62.2325 46.3558 64.2478 48.1667 67.3304 48.7884C71.6774 49.6651 75.6438 46.6577 76.5978 42.7977C77.0963 40.7812 76.7334 38.9421 75.7466 37.1834C74.615 35.1665 72.9626 33.8929 70.6751 33.2869C66.3109 32.1309 61.8681 35.001 60.9004 39.4606C60.7659 40.0804 60.7413 40.7308 60.5801 41.3532" stroke="#363636" stroke-width="1.5" stroke-linecap="round" stroke-linejoin="round"/>
<path d="M18.9373 37.5599C17.2884 37.6102 16.2165 38.5545 15.7516 40.3664C15.4258 41.6363 16.181 43.2245 17.4189 43.9339C19.4723 45.1108 21.975 44.0569 22.4645 41.7994C23.0175 39.2494 21.1027 37.3423 19.0132 37.5599" stroke="#363636" stroke-width="1.5" stroke-linecap="round" stroke-linejoin="round"/>
<path d="M10.8976 41.353C8.21759 41.353 5.53755 41.3544 2.85751 41.3522C1.94125 41.3515 1.69676 41.1264 1.72713 40.2155C1.75327 39.4312 1.61241 38.6435 1.85282 37.8581C1.95228 37.5332 1.70594 37.1763 1.70802 36.8018C1.72775 33.2622 1.71884 29.7225 1.7204 26.1827C1.7208 25.2922 1.74093 25.3082 2.62956 25.2643C3.64421 25.2142 4.67009 25.4416 5.67952 25.0051C5.98349 24.8737 6.47142 25.2502 6.87786 25.2585C8.4207 25.2901 9.98587 25.4161 11.4273 24.6632C11.7395 24.5002 12.0191 24.4988 12.3415 24.6603C13.9962 25.4892 15.751 25.4139 17.4916 25.0937C18.0618 24.9888 18.4935 25.302 19.014 25.2827C19.9734 25.2471 20.9351 25.2725 21.8959 25.2725C23.868 25.2725 25.8401 25.2762 27.8122 25.2691C28.1663 25.2678 28.5199 25.2179 28.8742 25.1975C29.5337 25.1596 30.1533 24.9527 30.8643 25.2256C31.351 25.4124 32.0115 25.362 32.5967 25.136C33.0644 24.9554 33.5317 25.2921 34.032 25.2899C40.1252 25.2632 46.2185 25.2725 52.3118 25.2725" stroke="#363636" stroke-width="1.5" stroke-linecap="round" stroke-linejoin="round"/>
<path d="M26.7507 37.863C25.9692 37.1706 25.6301 36.1438 24.863 35.4266C23.5408 34.1906 22.0675 33.3816 20.2301 33.1405C16.663 32.6722 14.1069 34.1069 12.1689 37.0163C11.4265 38.1309 11.175 39.335 11.1391 40.5941C11.0112 45.0771 13.7178 47.8235 17.2072 48.7334C19.8841 49.4314 22.4231 48.7452 24.5589 46.8222C26.1998 45.3447 26.95 43.4574 27.1763 41.349C27.2583 40.5849 27.0561 39.7725 26.8793 39.0061C26.796 38.645 26.7559 38.2993 26.7507 37.9389" stroke="#363636" stroke-width="1.5" stroke-linecap="round" stroke-linejoin="round"/>
<path d="M11.8093 19.2801C10.9244 18.8756 10.0285 18.4929 9.15916 18.0573C8.71995 17.8373 8.68308 17.2903 8.40959 16.9188C7.54172 15.7399 7.46867 14.4045 8.11749 13.149C8.79723 11.8336 9.96165 11.1171 11.5059 11.1644C11.9364 11.1776 12.3889 11.0734 12.7917 11.2483C13.6009 11.5994 14.3624 11.1657 15.1467 11.1651C18.4589 11.1626 21.771 11.1573 25.0831 11.167C26.6169 11.1715 27.7044 11.9675 28.325 13.297C28.9328 14.5993 28.8582 15.9178 27.8859 17.0774C27.6569 17.3505 27.4392 17.6138 27.4345 17.9906" stroke="#363636" stroke-width="1.5" stroke-linecap="round" stroke-linejoin="round"/>
<path d="M84.0159 29.6714C83.131 29.6967 82.246 29.7202 81.3612 29.7479C80.7839 29.766 80.4752 30.0544 80.4566 30.6576C80.4332 31.4154 80.4468 32.1745 80.4522 32.933C80.4569 33.5877 80.7695 33.893 81.437 33.9197C82.2964 33.9539 83.1602 33.8379 84.0159 33.9949" stroke="#363636" stroke-width="1.5" stroke-linecap="round" stroke-linejoin="round"/>
<path d="M30.1623 24.9689C30.167 24.592 30.3993 24.3378 30.6117 24.0544C32.3135 21.7838 30.931 18.5185 28.1965 18.2328C27.2964 18.1388 26.4715 18.3145 25.6111 18.3027C23.6141 18.2753 21.6165 18.2915 19.6191 18.2955C19.054 18.2966 18.4741 18.2088 17.951 18.5225C17.9212 18.5403 17.8891 18.5988 17.8761 18.5936C16.7288 18.134 15.457 18.518 14.3096 18.0664" stroke="#363636" stroke-width="1.5" stroke-linecap="round" stroke-linejoin="round"/>
<path d="M11.4289 37.864C11.1604 37.7605 10.8892 37.706 10.5945 37.707C8.01562 37.7162 5.43669 37.71 2.8578 37.7157C2.57962 37.7163 2.30155 37.7629 2.02344 37.7882" stroke="#363636" stroke-width="1.5" stroke-linecap="round" stroke-linejoin="round"/>
<path d="M8.84802 18.0664C8.27489 18.4876 7.57836 18.2192 6.94497 18.4247C4.64511 19.1712 3.64733 21.8992 5.13871 24.0536C5.33903 24.3429 5.58169 24.592 5.58646 24.9689" stroke="#363636" stroke-width="1.5" stroke-linecap="round" stroke-linejoin="round"/>
<path d="M13.9311 11.5435C13.9773 11.9231 14.2335 12.1727 14.4551 12.459C15.4307 13.7195 15.6058 15.2106 14.8121 16.8005C14.2097 18.0068 13.2688 18.5917 12.1842 19.1238C11.9447 19.2413 11.7936 19.3423 11.7979 19.6597C11.8189 21.1764 11.8062 22.6936 11.8105 24.2106C11.8108 24.2865 11.8579 24.3623 11.8832 24.4382" stroke="#363636" stroke-width="1.5" stroke-linecap="round" stroke-linejoin="round"/>
<path d="M17.875 18.6733C17.9213 19.0089 18.1033 19.2648 18.3274 19.5101C19.337 20.6148 19.5599 22.6452 18.4764 24.0546C18.2602 24.3358 18.0315 24.5921 18.0267 24.969" stroke="#363636" stroke-width="1.5" stroke-linecap="round" stroke-linejoin="round"/>
<path d="M58.7578 26.8271C60.2748 26.8398 61.7918 26.8524 63.3088 26.8651" stroke="#363636" stroke-width="1.5" stroke-linecap="round" stroke-linejoin="round"/>
<path d="M40.7058 1.22754C41.3244 1.80473 42.0643 2.27521 42.3663 3.05879C41.7473 4.38053 40.6785 5.25979 39.7209 6.23491C39.2721 6.69196 38.826 6.93773 38.1175 6.71929C37.6095 6.56268 36.9709 6.82408 36.4667 6.66211C35.2214 6.26207 34.5866 7.00038 33.7708 7.71345C33.0979 8.30157 32.6908 8.71852 32.756 9.72684C32.8175 10.6757 32.5431 11.6423 32.8767 12.6109C33.0114 13.0019 32.5995 13.3744 32.6574 13.8199C32.8015 14.9275 32.4042 16.0766 32.9438 17.1688C33.0243 17.3319 32.6724 17.6656 32.682 17.9142C32.7232 18.9762 32.4735 20.0587 32.8338 21.0948C32.909 21.3112 32.846 21.4668 32.8087 21.6296C32.5531 22.7458 32.644 23.8565 32.8173 24.969" stroke="#363636" stroke-width="1.5" stroke-linecap="round" stroke-linejoin="round"/>
<path d="M36.6883 17.6108C36.7036 17.9345 36.5225 18.1581 36.3097 18.37C35.4738 19.2027 34.6334 20.0313 33.8104 20.8767C33.5706 21.123 33.2713 21.2154 32.9717 21.3276" stroke="#363636" stroke-width="1.5" stroke-linecap="round" stroke-linejoin="round"/>
<path d="M40.592 1C40.3847 1.66262 39.7372 1.94171 39.3362 2.43773C38.3044 3.71409 36.9279 4.62766 35.7745 5.7776C35.6031 5.94845 35.4345 6.11377 35.4721 6.38544" stroke="#363636" stroke-width="1.5" stroke-linecap="round" stroke-linejoin="round"/>
<path d="M46.0141 8.12988C45.3481 9.36098 44.3818 10.3216 43.2844 11.1651C43.1473 11.2705 42.9765 11.389 42.833 11.3076C41.8923 10.7736 40.8269 11.3377 39.8622 10.9567C39.6913 10.8892 39.3525 11.0239 39.1981 11.1746C38.3669 11.9864 37.5721 12.8353 36.757 13.6636C36.6575 13.7647 36.6998 13.8668 36.6846 13.9704" stroke="#363636" stroke-width="1.5" stroke-linecap="round" stroke-linejoin="round"/>
<path d="M39.8734 14.4253C39.8969 14.6017 39.8322 14.747 39.7222 14.8808C38.9695 15.797 38.1016 16.5998 37.2068 17.3698C37.0388 17.5144 36.7335 17.6511 36.4604 17.459C36.0323 17.158 35.531 17.2631 35.0993 17.3345C34.5501 17.4253 34.0613 17.5363 33.5685 17.1685C33.4548 17.0836 33.2239 17.1559 33.0469 17.1559" stroke="#363636" stroke-width="1.5" stroke-linecap="round" stroke-linejoin="round"/>
<path d="M42.9054 11.3916C42.8902 11.4952 42.9325 11.5973 42.833 11.6984C42.0682 12.476 41.3234 13.2735 40.5481 14.0403C40.2837 14.3018 39.9777 14.4817 39.5606 14.2095C39.2179 13.9859 38.8082 14.2085 38.4306 14.2152C37.8616 14.2255 37.303 14.3989 36.7503 14.065C36.6245 13.989 36.2843 14.0806 36.1663 14.2088C35.282 15.1701 34.1729 15.9244 33.5 17.0804" stroke="#363636" stroke-width="1.5" stroke-linecap="round" stroke-linejoin="round"/>
<path d="M38.7342 6.9165C38.6836 7.04292 38.666 7.20231 38.5774 7.29069C37.6284 8.23805 36.8835 9.39534 35.7002 10.1023" stroke="#363636" stroke-width="1.5" stroke-linecap="round" stroke-linejoin="round"/>
<path d="M44.9897 5.0957C45.5606 5.89385 46.5034 6.36498 46.9301 7.2857C46.7249 7.63528 46.4381 7.87862 46.0626 8.06768C45.4508 7.54357 44.7769 7.93828 44.1175 7.97998C43.9145 7.99282 43.6601 8.12016 43.5192 8.03893C42.651 7.53821 42.1941 8.13978 41.6888 8.65931C41.2151 9.14624 40.7425 9.63573 40.2433 10.0957C40.0066 10.3137 39.8861 10.5718 39.7939 10.8604" stroke="#363636" stroke-width="1.5" stroke-linecap="round" stroke-linejoin="round"/>
<path d="M32.8926 9.64746C33.4492 9.66416 33.986 9.8265 34.565 9.75235C34.9021 9.70918 35.3444 9.76568 35.7236 10.2026C34.9435 11.1928 34.1716 12.1907 32.9684 12.7574" stroke="#363636" stroke-width="1.5" stroke-linecap="round" stroke-linejoin="round"/>
<path d="M38.8848 3.27539C39.328 3.62133 39.8339 3.52591 40.3253 3.46025C40.8684 3.38769 41.4061 3.28517 41.9188 3.5788" stroke="#363636" stroke-width="1.5" stroke-linecap="round" stroke-linejoin="round"/>
<path d="M45.031 5.32324C44.3509 6.15668 43.263 6.63327 42.9072 7.75048" stroke="#363636" stroke-width="1.5" stroke-linecap="round" stroke-linejoin="round"/>
<path d="M68.0866 37.5598C66.1588 38.13 65.2763 39.5172 65.429 41.4285C65.5488 42.9275 66.8885 44.3112 68.3904 44.3786C70.1608 44.458 71.3247 43.7912 71.943 42.2578C72.8978 39.8898 70.9812 37.4336 68.9208 37.5577C68.6689 37.5729 68.4153 37.5598 68.1625 37.5598" stroke="#363636" stroke-width="1.5" stroke-linecap="round" stroke-linejoin="round"/>
</svg>
