<svg width="88" height="80" viewBox="0 0 88 80" fill="none" xmlns="http://www.w3.org/2000/svg">
<path d="M67.8733 77.6858C68.3469 78.0853 68.9135 78.064 69.4817 78.0635C74.1832 78.06 78.8847 78.0591 83.5862 78.065C84.0992 78.0656 84.6039 78.064 85.0614 77.7949C85.2458 77.3214 85.1939 76.8123 85.194 76.3083C85.1948 59.5696 85.181 42.8308 85.2235 26.0922C85.2265 24.9018 84.8449 24.2468 83.8421 23.6971C76.2795 19.5516 68.7437 15.3561 61.1907 11.1928C55.7131 8.17336 50.2166 5.18908 44.7446 2.15934C44.1511 1.83074 43.7678 1.77188 43.1121 2.14413C37.9451 5.07752 32.732 7.92758 27.5401 10.8161C21.9271 13.939 16.3232 17.0787 10.7119 20.205C8.44844 21.466 6.19406 22.7461 3.89877 23.9454C3.02217 24.4034 2.77601 25.0119 2.77735 25.9669C2.80088 42.7474 2.79422 59.5279 2.79504 76.3083C2.79507 76.8123 2.74314 77.3214 2.92758 77.7949C3.38508 78.064 3.8898 78.0656 4.40278 78.065C9.02181 78.0591 13.6439 78.1582 18.2583 78.0111C19.9589 77.9568 21.6422 78.2183 23.3325 78.0603C26.2198 77.7903 29.105 78.1495 31.9936 78.0771C34.8375 78.0057 37.693 78.2006 40.528 78.0254C43.8779 77.8184 47.2103 78.144 50.5522 78.0764C53.8914 78.0088 57.233 78.0615 60.5735 78.0615C62.4706 78.0615 64.3678 78.0531 66.2648 78.0671C66.7803 78.0709 67.2776 78.0338 67.7495 77.8111" stroke="#363636" stroke-width="1.5" stroke-linecap="round" stroke-linejoin="round"/>
<path d="M67.8751 77.559C67.8751 63.4499 67.8751 49.3408 67.8751 35.3266C67.2844 34.9792 66.7796 34.9782 66.2667 34.9784C51.3373 34.9824 36.4079 34.9856 21.4785 34.9751C20.1021 34.9741 19.9862 35.0913 19.9873 36.4844C19.9983 49.7168 19.9946 62.9491 19.9905 76.1815C19.9903 76.642 20.0788 77.1153 19.8701 77.559" stroke="#363636" stroke-width="1.5" stroke-linecap="round" stroke-linejoin="round"/>
<path d="M62.4297 77.6853C62.4297 72.551 62.4315 67.4167 62.4286 62.2823C62.4277 60.7438 62.3414 60.6582 60.8212 60.6554C58.6355 60.6514 56.4497 60.6544 54.2639 60.6544C51.8306 60.6544 49.3974 60.6544 46.9641 60.6544C44.2422 60.6544 41.5169 60.5698 38.7994 60.6798C36.4071 60.7766 34.0195 60.616 31.614 60.7739C29.7697 60.8949 27.8285 60.8032 25.8506 60.6133C25.6999 66.3709 25.967 71.9696 25.6836 77.5601" stroke="#363636" stroke-width="1.5" stroke-linecap="round" stroke-linejoin="round"/>
<path d="M52.4142 60.2792C52.4142 54.8514 52.4142 49.4235 52.4142 43.8232C50.5171 43.9554 48.874 43.8 47.2152 43.9744C46.281 44.0726 45.3209 43.8866 44.3721 43.8801C41.8977 43.8631 39.4231 43.8685 36.9487 43.8767C35.6026 43.8811 35.468 44.0147 35.4663 45.3771C35.4604 50.3653 35.464 55.3535 35.464 60.3418" stroke="#363636" stroke-width="1.5" stroke-linecap="round" stroke-linejoin="round"/>
<path d="M45.2314 61.0312C45.2314 66.583 45.2314 72.1348 45.2314 77.6865" stroke="#363636" stroke-width="1.5" stroke-linecap="round" stroke-linejoin="round"/>
<path d="M50.9277 61.0312C50.9277 62.8897 50.9277 64.7482 50.9277 66.6388C52.842 66.9265 54.6387 66.7159 56.4859 66.8276C56.7391 64.7963 56.5645 62.9099 56.619 61.0312" stroke="#363636" stroke-width="1.5" stroke-linecap="round" stroke-linejoin="round"/>
<path d="M43 61.0312C43 66.5413 43 72.0513 43 77.5613" stroke="#363636" stroke-width="1.5" stroke-linecap="round" stroke-linejoin="round"/>
<path d="M41.1426 44.249C41.1426 46.0866 41.1426 47.9243 41.1426 49.8843C42.8726 49.8843 44.4844 49.9348 46.0904 49.8594C46.7341 49.8293 46.8442 49.2204 46.8385 48.6319C46.8244 47.1711 46.8339 45.71 46.8339 44.249" stroke="#363636" stroke-width="1.5" stroke-linecap="round" stroke-linejoin="round"/>
<path d="M37.0617 61.0312C37.081 62.534 36.7896 64.0292 37.0434 65.5426C37.1703 66.2995 36.7169 66.7883 35.9483 66.7805C34.5667 66.7664 33.1789 66.9155 31.7294 66.6537C31.4978 64.7963 31.6725 62.9099 31.6179 61.0312" stroke="#363636" stroke-width="1.5" stroke-linecap="round" stroke-linejoin="round"/>
</svg>
