<svg width="138" height="80" viewBox="0 0 138 80" fill="none" xmlns="http://www.w3.org/2000/svg">
<path d="M72.1442 30.9841C72.2016 31.3691 72.0609 31.6939 71.8657 32.0173C68.5435 37.5231 71.8535 44.8604 77.9572 46.181C80.2876 46.6852 82.5049 46.4644 84.6165 45.3316C89.0306 42.9635 90.2591 39.0596 89.8335 35.5832C89.3036 31.2549 86.3909 28.1897 82.169 27.2758C78.9799 26.5854 76.0729 27.5204 73.6461 29.7665C73.3543 30.0366 73.0956 30.3432 72.7968 30.6046C72.5024 30.8621 72.1669 31.0113 71.7683 30.7981C71.472 30.6397 71.1454 30.705 70.8314 30.7049C63.7669 30.7021 56.7025 30.7021 49.638 30.7048C49.2935 30.7049 48.9491 30.7345 48.5127 30.7546C48.5127 46.4256 48.5127 62.0547 48.5127 77.6349C48.9731 77.8164 49.3544 77.7771 49.7318 77.7771C58.9531 77.7778 68.1744 77.7756 77.3957 77.7812C78.1846 77.7817 78.7263 77.5399 79.4182 77.0021C81.1597 75.6484 82.3952 73.8317 84.0587 72.4383C84.7701 71.8424 84.9631 70.8284 85.8217 70.3448C85.9523 70.2712 85.9252 69.8693 85.9254 69.6192C85.9302 61.8047 85.928 53.9901 85.9333 46.1756C85.9336 45.7976 85.8693 45.4531 85.648 45.144" stroke="#363636" stroke-linecap="round" stroke-linejoin="round"/>
<path d="M78.6182 48.4751C77.8838 48.4912 77.2144 48.5807 76.6346 49.1643C75.7797 50.0248 74.5172 49.9787 73.4519 50.3744C70.413 51.5029 67.3302 52.5131 64.2795 53.6109C64.099 53.6759 63.9577 53.6748 63.8015 53.6754C61.9886 53.682 60.1755 53.6832 58.3626 53.6754C58.1124 53.6743 57.7997 53.7022 57.6226 53.5719C56.5393 52.7745 55.4698 53.4862 54.4293 53.6256C53.585 53.7386 53.8667 54.6074 53.8793 55.1796C53.891 55.7094 54.3259 55.8243 54.7989 55.8414C55.8004 55.8776 56.8167 55.6912 57.7991 56.0263C57.8366 56.0391 57.8624 56.0865 57.9874 56.2115C57.9874 57.9922 58.1094 59.8797 57.9334 61.7391C57.8517 62.6024 57.4097 63.5794 56.2076 63.7286C55.6651 63.7959 55.1394 64.0152 54.6126 64.1857C54.167 64.3299 53.8791 64.5791 53.8501 65.1195C53.7762 66.4938 53.8737 66.6205 55.2679 66.6205C57.4248 66.6205 59.5819 66.6402 61.7384 66.6118C62.7419 66.5985 63.6887 66.7416 64.6135 65.8398C65.3092 65.1613 66.3715 64.7241 67.2681 64.1771C70.6227 62.1304 73.8967 59.9534 77.2945 57.9747C77.7345 57.7184 78.304 57.4436 78.3539 56.6501C77.0377 56.1675 75.865 55.7494 74.3733 56.6386C70.6983 58.8292 66.8967 60.8074 63.1445 62.8683C62.6706 63.1286 62.2214 63.4034 62.1136 63.9948" stroke="#363636" stroke-linecap="round" stroke-linejoin="round"/>
<path d="M37.4446 14.3853C38.0087 13.2564 38.8792 12.3026 39.3206 11.1975C37.7103 9.5872 36.1474 8.02428 34.5451 6.42204C33.6627 6.66545 32.8695 7.26858 32.0094 7.73431C31.506 8.00685 31.0381 8.09945 30.5025 7.82642C29.6058 7.36943 28.7026 6.92218 27.7818 6.51709C27.2208 6.27026 26.9723 5.86538 26.837 5.29178C26.6283 4.4068 26.3025 3.54832 26.1146 2.65994C26.0017 2.12562 25.7225 2.00217 25.2537 2.00406C23.4095 2.01147 21.5651 2.01855 19.721 2.00012C19.1674 1.99459 18.8712 2.18093 18.7734 2.75562C18.6232 3.63721 18.4343 4.51452 18.211 5.38053C18.0697 5.92829 17.7767 6.44964 17.1857 6.58823C16.2854 6.79938 15.5469 7.32602 14.7623 7.74868C14.2632 8.01753 13.9243 8.02265 13.4274 7.74628C12.5006 7.23078 11.5111 6.82816 10.6886 6.44432C9.07813 8.05475 7.53067 9.6022 5.91748 11.2154C6.14084 11.9203 6.73354 12.6626 7.2525 13.4451C7.66223 14.0629 7.7298 14.677 7.34248 15.3231C7.15504 15.6357 6.83765 15.9339 6.80128 16.2632C6.59268 18.1514 5.16728 18.5868 3.68511 18.9798C3.43598 19.0459 3.17403 19.0779 2.93727 19.1734C2.40041 19.39 2.14914 19.7487 2.16798 20.3874C2.21772 22.0739 2.20002 23.763 2.17637 25.4506C2.16837 26.0217 2.31829 26.3487 2.93105 26.4986C3.82181 26.7164 4.68547 27.0451 5.56077 27.3262C5.98681 27.463 6.28525 27.6229 6.43724 28.161C6.69389 29.0697 7.11403 29.9415 7.54491 30.7884C7.8171 31.3233 7.85205 31.7178 7.44966 32.2134C6.8828 32.9115 6.40829 33.6846 5.87789 34.4493C6.23898 35.0709 6.74929 35.5297 7.26102 35.9381C8.30535 36.7716 9.26926 37.6925 10.1317 38.6938C10.7061 39.3607 11.2312 39.1494 11.7343 38.8354C12.0789 38.6203 12.4577 38.445 12.7754 38.1964C13.6753 37.4921 14.5787 37.6556 15.5007 38.1109C16.1274 38.4204 16.7231 38.882 17.384 39.0093C18.1313 39.1532 18.2684 39.6062 18.4099 40.1729C18.5898 40.8938 18.8107 41.6055 18.9622 42.332C19.0872 42.9317 19.4261 43.0986 20.0024 43.0898C21.7212 43.0636 23.4418 43.0455 25.1594 43.0967C25.9008 43.1187 26.2367 42.803 26.3802 42.1429C26.534 41.4351 26.8555 40.7643 26.9964 40.0717C27.127 39.4295 27.4755 39.1718 27.9737 38.9555C28.8472 38.5762 29.7184 38.1909 30.6012 37.8346C31.0384 37.6581 31.4202 37.6215 31.9311 37.8854C32.7599 38.3133 33.5149 39.2185 34.4335 39.076C35.3345 38.9362 35.8216 37.8935 36.5002 37.2592C37.3716 36.4446 38.2086 35.5915 39.0278 34.7241C39.2041 34.5375 39.3776 34.4535 39.6014 34.4062" stroke="#363636" stroke-linecap="round" stroke-linejoin="round"/>
<path d="M22.2559 51.8027C22.8866 55.0611 23.9102 58.1649 25.5191 61.0968C27.9046 65.4437 31.0875 68.9721 35.3765 71.5089C37.3997 72.7056 39.4968 73.6748 41.7512 74.3425C42.1145 74.4501 42.4491 74.433 42.7928 74.4962" stroke="#363636" stroke-linecap="round" stroke-linejoin="round"/>
<path d="M131.978 40.9233C131.386 41.7753 130.401 41.7801 129.54 42.0472C128.347 42.4171 127.118 42.4313 125.883 42.4276C122.226 42.4168 118.568 42.4185 114.911 42.4299C114.414 42.4314 113.888 42.4387 113.52 42.1243C113.11 41.7748 112.745 42.0409 112.38 42.0642C111.033 42.1501 109.693 42.342 108.346 42.4067C107.595 42.4428 107.349 42.7402 107.403 43.4557C107.548 45.3904 107.552 47.353 107.532 49.2681C107.51 51.3829 107.541 53.5224 107.409 55.646" stroke="#363636" stroke-linecap="round" stroke-linejoin="round"/>
<path d="M75.9877 14.3379C74.1122 14.166 72.2366 13.995 70.3612 13.822C68.1105 13.6143 65.8683 13.6329 63.607 13.7884C61.2711 13.9489 58.968 14.2624 56.67 14.667C54.5554 15.0393 52.5398 15.7774 50.484 16.3659C50.2404 16.4356 50.043 16.6667 49.8242 16.823" stroke="#363636" stroke-linecap="round" stroke-linejoin="round"/>
<path d="M37.1738 14.3408C38.0166 15.0835 38.3356 16.1537 38.7222 17.1254C39.0281 17.8943 39.4786 18.2776 40.1754 18.5114C40.8595 18.741 41.5378 19.0121 42.2411 19.1535C42.9732 19.3006 43.2003 19.6816 43.1861 20.3895C43.1529 22.0455 43.1555 23.703 43.1861 25.3591C43.1971 25.9537 42.9594 26.253 42.4323 26.4996C41.5531 26.911 40.583 27.0058 39.6896 27.3843C39.2932 27.5522 39.0716 27.6492 38.9387 28.0735C38.7559 28.6572 38.5416 29.2664 38.1885 29.7546C37.2852 31.0037 37.4832 32.0961 38.4885 33.1409C38.8515 33.5183 39.0567 33.978 39.2369 34.4555" stroke="#363636" stroke-linecap="round" stroke-linejoin="round"/>
<path d="M77.2214 48.6132C76.8102 48.1079 76.2395 47.9791 75.6298 47.8508C73.3942 47.3806 71.3363 48.0081 69.2447 48.6892C65.6352 49.8646 62.0389 51.0866 58.376 52.0959C57.8117 52.2514 57.3041 52.5926 56.9658 53.1144" stroke="#363636" stroke-linecap="round" stroke-linejoin="round"/>
<path d="M120.067 16.4509C120.641 15.7073 120.387 14.8363 120.442 14.0128C120.503 13.1103 120.22 12.1556 120.979 11.3625C121.122 11.2142 120.95 10.833 120.665 10.5117C118.992 8.62069 116.562 8.33936 114.43 7.47523C110.121 5.72904 105.744 4.15408 101.411 2.46597C100.242 2.01054 99.2114 2.34833 98.3298 2.97346C96.879 4.00221 95.4722 5.13712 94.0282 6.13838C92.6108 7.12117 91.1821 8.15046 89.6842 9.04321C89.1897 9.33793 88.8052 9.73684 88.5586 10.2618" stroke="#363636" stroke-linecap="round" stroke-linejoin="round"/>
<path d="M102.522 55.647C102.522 54.6468 102.565 53.644 102.507 52.6471C102.468 51.986 102.918 51.2209 102.484 50.7091C102.062 50.2113 101.248 50.6377 100.651 50.4727C99.261 50.0886 97.904 50.6455 96.5177 50.5156C95.2163 50.3936 93.8939 50.5108 92.5818 50.4808C91.8801 50.4647 91.6625 50.8095 91.7409 51.4268C91.884 52.5535 91.8784 53.6761 91.7424 54.8036C91.6481 55.5852 91.9453 55.9193 92.7691 55.9231C95.7074 55.9366 98.6487 56.0063 101.583 55.8941C102.966 55.8413 104.334 55.9567 105.71 55.9479C112.431 55.9048 119.151 55.9311 125.872 55.9268C127.99 55.9254 130.026 55.4088 132.062 54.8982C132.966 54.6713 133.868 54.4238 134.783 54.2513C135.555 54.1056 135.867 53.7369 135.828 52.9268C135.768 51.6481 135.897 50.3571 135.788 49.0849C135.685 47.8873 135.82 46.7072 135.814 45.5194C135.808 44.3316 135.818 43.1437 135.809 41.956C135.807 41.5326 135.963 40.9625 135.518 40.765C134.921 40.4992 134.241 40.0784 133.571 40.4717C132.817 40.9144 132.19 40.9439 131.487 40.3764C131.075 40.0443 130.503 40.1474 129.999 40.18C126.968 40.3759 123.897 40.5181 120.915 40.1622C118.884 39.9199 117.204 40.6405 115.371 40.9384C114.666 41.053 113.833 40.9657 113.4 41.7684" stroke="#363636" stroke-linecap="round" stroke-linejoin="round"/>
<path d="M127.479 49.269C120.884 49.269 114.288 49.269 107.692 49.269" stroke="#363636" stroke-linecap="round" stroke-linejoin="round"/>
<path d="M109.844 60.9912C107.788 64.6447 105.353 67.9873 102.065 70.6558C99.6951 72.5791 97.1548 74.1903 94.2793 75.2515C93.6377 75.4883 93.0265 75.8076 92.4014 76.0889" stroke="#363636" stroke-linecap="round" stroke-linejoin="round"/>
<path d="M64.0814 53.8643C64.1127 53.958 64.1604 54.0497 64.1727 54.1459C64.3449 55.4874 64.0519 55.8159 62.6748 55.8335C60.2366 55.8648 60.2366 55.8648 60.2366 58.2717C60.2366 59.8971 60.2218 61.5227 60.2423 63.1479C60.2541 64.0795 60.6473 64.4341 61.5404 64.1508C62.2245 63.9338 62.6829 64.5043 63.3362 64.3971C64.2339 64.2498 64.0469 65.2718 64.4565 65.6799" stroke="#363636" stroke-linecap="round" stroke-linejoin="round"/>
<path d="M84.9 71.0255C84.2826 70.5137 83.5432 70.6617 82.8369 70.6534C81.8368 70.6417 80.8359 70.6684 79.8363 70.6428C79.3398 70.6301 79.0086 70.8077 79.0009 71.307C78.977 72.8695 78.9797 74.4329 79.0047 75.9954C79.0087 76.2469 79.1797 76.4957 79.2735 76.7458" stroke="#363636" stroke-linecap="round" stroke-linejoin="round"/>
<path d="M105.442 16.7305C105.007 17.1168 105.068 17.6362 105.068 18.1371C105.066 19.7313 105.044 21.3259 105.078 22.9194C105.093 23.624 104.833 23.8759 104.129 23.8681C101.629 23.8405 99.1279 23.8462 96.6274 23.8668C96.1335 23.8709 95.7428 23.6398 95.3145 23.4822" stroke="#363636" stroke-linecap="round" stroke-linejoin="round"/>
<path d="M131.972 16.6341C131.845 16.2572 131.719 15.8927 131.413 15.5981C129.935 14.1703 128.453 12.744 127.013 11.2783C126.595 10.8539 126.176 10.6809 125.594 10.7183C124.187 10.8087 122.786 10.4695 121.375 10.6352C121.279 10.6465 121.188 10.6951 121.094 10.7264" stroke="#363636" stroke-linecap="round" stroke-linejoin="round"/>
<path d="M99.5283 2.66406C99.7656 3.04353 99.7145 3.46826 99.7149 3.88313C99.7171 5.94617 99.7136 8.00922 99.7168 10.0723C99.7185 11.1962 99.9605 11.3552 100.938 10.9222C101.17 10.8193 101.435 10.7396 101.685 10.7371C103.311 10.7207 104.936 10.7336 106.562 10.7257C107.037 10.7234 107.382 11.0199 107.781 11.1976" stroke="#363636" stroke-linecap="round" stroke-linejoin="round"/>
<path d="M94.7458 42.3315C94.533 42.6774 94.3642 43.0292 94.3662 43.4569C94.376 45.5199 94.3682 47.5829 94.3747 49.646C94.3753 49.8336 94.4332 50.0211 94.4644 50.2086" stroke="#363636" stroke-linecap="round" stroke-linejoin="round"/>
<path d="M135.449 47.5825C133.511 47.6995 131.716 48.47 129.829 48.8346C129.111 48.9732 128.397 49.1673 127.666 49.2705" stroke="#363636" stroke-linecap="round" stroke-linejoin="round"/>
<path d="M94.9367 23.5747C94.7429 24.0584 94.6024 24.5112 94.7183 25.0814C94.8444 25.7019 94.2907 26.2586 94.3571 26.9522C94.515 28.6022 94.3952 30.265 94.4776 31.9248C94.5347 33.0742 94.4103 34.2964 94.3853 35.4843C94.3495 37.18 94.1998 38.9119 94.786 40.5346C95.0057 41.1428 94.2125 41.8519 95.1132 42.3497C95.694 42.6707 95.9645 43.3113 96.2677 43.9147C96.8954 45.1639 97.6233 46.3629 98.315 47.5797C98.3916 47.7145 98.4733 47.8875 98.5983 47.9471C99.5482 48.4006 99.6156 49.2867 99.7193 50.1598" stroke="#363636" stroke-linecap="round" stroke-linejoin="round"/>
<path d="M126.72 34.8291C126.303 35.5761 125.541 35.8564 124.847 36.2399C123.401 37.0388 121.972 37.8669 120.529 38.6705C120.063 38.9297 119.855 39.3818 119.593 39.7992" stroke="#363636" stroke-linecap="round" stroke-linejoin="round"/>
<path d="M94.8359 25.3584C95.4777 25.6544 95.8672 26.1926 96.2494 26.7605C96.9126 27.7459 97.644 28.6861 98.291 29.6815C98.5076 30.0147 98.7152 30.3568 99.0628 30.499C99.4703 30.6657 99.4807 30.9617 99.4217 31.2644C99.2714 32.0357 99.3294 32.9124 99.5062 33.5426C100.076 35.5752 99.7113 37.5962 99.785 39.6129C99.874 42.0478 99.8001 44.4884 99.8106 46.9265C99.8129 47.4859 99.7495 48.0068 99.3372 48.427" stroke="#363636" stroke-linecap="round" stroke-linejoin="round"/>
<path d="M127.946 17.1982C127.946 19.5114 127.946 21.8245 127.946 24.1376" stroke="#363636" stroke-linecap="round" stroke-linejoin="round"/>
<path d="M98.7708 17.5758C97.5761 19.5599 96.3813 21.544 95.1552 23.5803C94.5321 23.1081 94.3581 22.555 94.3582 21.8894C94.3587 18.7621 94.3802 15.6357 94.5491 12.5119C94.6008 11.5544 93.6658 10.7759 92.3939 10.7351C91.582 10.7091 90.7686 10.732 89.9559 10.7294C89.632 10.7284 89.3303 10.7046 89.0112 10.5576C88.2478 10.2058 87.5398 10.5574 87.5438 11.3866C87.552 13.0905 87.2854 14.8169 87.774 16.5132C90.9889 17.1727 94.2359 16.9539 97.459 17.0805C98.1331 17.107 98.6566 17.6156 99.3335 17.482" stroke="#363636" stroke-linecap="round" stroke-linejoin="round"/>
<path d="M99.3372 33.6089C98.0414 34.3953 97.615 35.8358 96.8181 36.9937C96.4011 37.5997 96.1543 38.3209 95.7587 38.9445C95.5505 39.2728 95.2657 39.6007 94.8359 39.7042" stroke="#363636" stroke-linecap="round" stroke-linejoin="round"/>
<path d="M99.8077 23.9502C99.8077 25.6694 99.7998 27.3887 99.8123 29.1078C99.8163 29.6672 99.7512 30.1881 99.3389 30.6082" stroke="#363636" stroke-linecap="round" stroke-linejoin="round"/>
<path d="M114.452 11.1964C114.032 10.7841 113.511 10.7151 112.951 10.7231C111.889 10.7383 110.819 10.803 109.766 10.7016C109.037 10.6314 108.51 11.0569 107.901 11.2399C107.455 11.3735 107.272 11.9903 107.333 12.5083C107.495 13.8864 107.411 15.26 107.325 16.6353" stroke="#363636" stroke-linecap="round" stroke-linejoin="round"/>
<path d="M127.568 42.7046C127.568 46.6744 127.566 50.6442 127.57 54.614C127.57 54.928 127.511 55.251 127.661 55.5517" stroke="#363636" stroke-linecap="round" stroke-linejoin="round"/>
<path d="M84.9929 34.1719C82.9666 36.2403 80.9403 38.3087 78.8358 40.457C77.5211 39.4062 76.4465 38.1243 75.2402 36.9851" stroke="#363636" stroke-linecap="round" stroke-linejoin="round"/>
<path d="M100.658 11.3843C101.846 12.7941 103.261 13.9706 104.592 15.2345C104.879 15.5079 105.24 15.734 105.349 16.1662C105.51 16.8028 106.042 16.8993 106.566 16.9087C107.941 16.9333 109.317 16.9318 110.692 16.9106C111.356 16.9003 112.027 17.0259 112.675 16.6599C112.936 16.5127 113.378 16.5489 113.688 16.6506C115.08 17.1065 116.55 17.0969 117.903 16.8597C120.159 16.4642 122.349 17.179 124.573 16.935C125.177 16.8687 125.782 16.8761 126.353 16.6357" stroke="#363636" stroke-linecap="round" stroke-linejoin="round"/>
<path d="M105.058 17.0123C103.182 17.1333 101.265 16.6284 99.2734 17.2299C99.7656 18.004 99.828 18.6638 99.8149 19.3569C99.787 20.8255 99.8064 22.295 99.8064 23.7641" stroke="#363636" stroke-linecap="round" stroke-linejoin="round"/>
<path d="M126.256 31.5474C125.852 32.486 125.594 33.3885 126.426 34.2833C126.69 34.5681 126.875 34.8075 127.287 34.737C128.161 34.5878 128.683 34.9599 129.3 35.6336C130.295 36.7197 131.56 37.5613 132.73 38.4816C133.327 38.9505 133.76 39.4952 133.852 40.2684" stroke="#363636" stroke-linecap="round" stroke-linejoin="round"/>
<path d="M75.4297 50.0195C75.7153 50.4253 75.599 50.8893 75.6158 51.3324C75.6739 52.8635 75.5054 54.3992 75.711 55.9273" stroke="#363636" stroke-linecap="round" stroke-linejoin="round"/>
<path d="M100.095 11.2915C99.7993 11.8162 99.6879 12.3734 99.7135 12.9797C99.7702 14.3228 99.6332 15.6711 99.8138 17.0118" stroke="#363636" stroke-linecap="round" stroke-linejoin="round"/>
<path d="M127.941 27.8901C127.941 28.359 127.961 28.8289 127.936 29.2965C127.894 30.1079 127.879 30.8641 128.875 31.1819C129.716 31.4501 129.805 32.222 129.91 32.954" stroke="#363636" stroke-linecap="round" stroke-linejoin="round"/>
<path d="M121.374 11.5723C122.655 12.8613 123.995 14.0835 125.401 15.2355C125.655 15.4432 125.873 15.71 126.058 15.9833C126.682 16.9095 127.222 17.095 128.409 16.9328C129.148 16.8318 129.902 17.1184 130.661 16.929C130.967 16.8526 131.291 16.9211 131.602 16.7401C132.117 16.4392 132.186 16.7836 132.158 17.1987" stroke="#363636" stroke-linecap="round" stroke-linejoin="round"/>
<path d="M93.5258 11.3843C92.1817 12.6971 90.8349 14.0073 89.4952 15.3246C89.1387 15.6751 88.7223 15.9912 88.6494 16.5419" stroke="#363636" stroke-linecap="round" stroke-linejoin="round"/>
<path d="M120.07 10.3535C118.937 10.9954 117.698 10.6422 116.506 10.7243C116.022 10.7577 115.567 10.7661 115.089 10.9851C114.346 11.325 114.062 11.8428 114.067 12.6041C114.073 13.4481 114.056 14.2923 114.073 15.1359C114.083 15.6313 114.034 16.1045 113.787 16.5426" stroke="#363636" stroke-linecap="round" stroke-linejoin="round"/>
<path d="M108.336 11.3843C109.469 12.7774 110.716 14.0643 111.997 15.3187C112.362 15.6759 112.677 16.0517 112.837 16.5419" stroke="#363636" stroke-linecap="round" stroke-linejoin="round"/>
<path d="M114.908 11.3843C116.127 12.6971 117.345 14.0108 118.566 15.3223C118.907 15.6884 119.337 15.9912 119.409 16.5419" stroke="#363636" stroke-linecap="round" stroke-linejoin="round"/>
<path d="M127.951 24.2324C127.533 24.4901 126.746 24.2544 126.671 24.8927C126.578 25.6889 126.416 26.5823 126.775 27.3055C127.021 27.7995 127.756 27.8122 128.324 27.6909C128.804 27.5885 129.376 27.5153 129.27 26.7635C129.232 26.4876 129.264 26.2017 129.264 25.9204C129.264 24.6162 129.264 24.6162 128.045 24.2324" stroke="#363636" stroke-linecap="round" stroke-linejoin="round"/>
<path d="M94.5645 10.729C96.2524 10.729 97.9404 10.729 99.6284 10.729" stroke="#363636" stroke-linecap="round" stroke-linejoin="round"/>
<path d="M26.0966 54.3332C25.4089 53.6768 24.7176 53.0242 24.0343 52.3631C22.8301 51.198 21.417 51.525 20.8479 53.1152C20.5816 53.8595 20.3609 54.6204 20.0875 55.362C19.9693 55.6826 19.854 56.0854 19.3447 55.9274" stroke="#363636" stroke-linecap="round" stroke-linejoin="round"/>
<path d="M95.0264 40.9233C96.5268 40.9233 98.0272 40.9233 99.5276 40.9233" stroke="#363636" stroke-linecap="round" stroke-linejoin="round"/>
<path d="M94.0859 6.32129C94.4293 6.6236 94.474 7.01726 94.4659 7.44668C94.4495 8.3216 94.4375 9.19795 94.4709 10.0719C94.4878 10.5152 94.4139 10.8901 94.0859 11.1976" stroke="#363636" stroke-linecap="round" stroke-linejoin="round"/>
<path d="M92.4922 76.1836C93.1671 77.3344 94.451 77.2927 95.5053 77.6474C95.9546 77.7986 96.4431 78.1617 96.9934 77.9184" stroke="#363636" stroke-linecap="round" stroke-linejoin="round"/>
<path d="M93.909 71.8706C93.5026 72.6208 93.1393 73.3988 92.6771 74.1129C92.2622 74.7541 92.1858 75.3888 92.4086 76.0905" stroke="#363636" stroke-linecap="round" stroke-linejoin="round"/>
<path d="M71.6711 10.3535C72.4213 11.1037 73.1369 11.893 73.93 12.5947C75.0369 13.5738 74.8045 14.9429 73.7347 15.6995C72.8566 16.3206 71.9836 16.949 71.1084 17.5742" stroke="#363636" stroke-linecap="round" stroke-linejoin="round"/>
<path d="M99.2503 31.8276C97.7216 32.0067 96.1869 31.8873 94.6553 31.9214" stroke="#363636" stroke-linecap="round" stroke-linejoin="round"/>
<path d="M21.3176 12.2296C19.6597 12.6173 18.079 13.0984 16.6113 14.0788C10.7555 17.9905 10.6261 26.1054 15.0351 30.4213C18.1287 33.4496 21.8913 34.2866 25.8942 33.0802C29.7595 31.9154 32.2337 29.1243 33.0297 25.0747C34.1094 19.5821 31.1635 14.4716 25.7163 12.6305C24.351 12.169 22.8688 12.1296 21.4113 12.2296" stroke="#363636" stroke-linecap="round" stroke-linejoin="round"/>
</svg>
