<svg width="70" height="80" viewBox="0 0 70 80" fill="none" xmlns="http://www.w3.org/2000/svg">
<mask id="path-1-outside-1_4015_30184" maskUnits="userSpaceOnUse" x="2.21582" y="37.8281" width="66" height="41" fill="black">
<rect fill="white" x="2.21582" y="37.8281" width="66" height="41"/>
<path d="M63.0224 47.86C64.2124 50.2763 65.3848 52.6553 66.5555 55.0352C66.9606 55.8588 66.8437 56.2067 66.0534 56.6293C64.0207 57.7163 61.9913 58.8094 59.9605 59.9001C59.8961 59.9347 59.832 59.9701 59.7669 60.0036C58.809 60.4972 58.6155 60.4466 57.9913 59.4795C56.7439 60.3558 55.4992 61.2302 54.2324 62.1201C55.2473 63.6042 55.489 65.1083 54.4266 66.5576C53.4677 67.8656 52.0744 68.1274 50.5062 67.7673C50.4955 68.9862 50.2568 70.1085 49.2278 70.8843C48.2372 71.6312 47.135 71.7749 45.9198 71.3724C45.7711 72.5711 45.4879 73.6588 44.422 74.3276C43.3932 74.9732 42.3017 75.0431 41.1786 74.6151C41.0024 74.8958 40.9926 75.1688 40.9519 75.4366C40.6643 77.3282 38.9052 78.4216 37.0878 77.8371C35.9121 77.4591 34.8789 76.782 33.7864 76.2311C33.3966 76.0346 33.1485 76.0468 32.8389 76.375C32.2091 77.0425 31.5256 77.6743 30.5991 77.895C28.7499 78.3355 27.2475 77.3626 26.8333 75.4913C26.7712 75.2106 26.7124 74.9293 26.6542 74.6587C23.6144 74.8467 23.1997 74.5599 22.2213 71.5819C21.1187 71.7845 20.0581 71.6824 19.1686 70.8796C18.2943 70.0906 18.0174 69.0468 17.9322 67.8981C17.1837 67.9037 16.4974 67.7752 15.8697 67.4017C14.426 66.5428 13.5835 64.3022 14.5941 62.5359C14.8509 62.087 14.7803 61.8581 14.3697 61.5679C13.5369 60.9793 12.7472 60.3297 11.948 59.7116C11.1547 60.4529 11.0746 60.4555 10.1536 59.9602C8.07511 58.8425 5.99291 57.7318 3.91121 56.6202C3.15787 56.2179 3.04738 55.8862 3.43172 55.1175C5.98442 50.0119 8.53834 44.9069 11.0922 39.8018C11.1659 39.6546 11.2393 39.5069 11.3197 39.3633C11.6365 38.7979 11.9511 38.6932 12.5398 38.9893C14.321 39.8852 16.0978 40.7899 17.8761 41.6914C18.4635 41.9892 19.0494 42.2901 19.6385 42.5847C19.8901 42.7106 20.173 42.8468 20.1739 43.153C20.175 43.5752 20.4122 43.6511 20.7486 43.7188C22.8137 44.1346 24.8904 44.3936 27.0041 44.3332C27.5148 44.3186 27.7457 43.9798 28.0181 43.6777C28.8602 42.7442 29.7618 41.8957 30.9842 41.4834C32.0439 41.1259 33.1479 40.9744 34.2486 40.8103C34.8464 40.7212 35.4502 40.7284 36.0502 40.6852C37.2915 40.5959 38.4323 40.9305 39.5706 41.3606C41.7767 42.1941 43.9251 43.1752 46.1687 43.9133C47.4621 44.3388 48.7748 44.4261 50.1071 44.2765C50.1278 44.2248 50.1587 44.1871 50.1507 44.1618C49.7684 42.9558 49.7724 42.9499 50.9189 42.3726C53.0268 41.3113 55.1318 40.2442 57.2411 39.1857C58.3408 38.6338 58.4488 38.6729 58.9946 39.7682C60.3323 42.4527 61.6678 45.1381 63.0224 47.86ZM44.8972 71.9997C45.0536 71.2636 44.8556 70.7221 44.1893 70.275C42.2755 68.9909 40.3996 67.6504 38.5099 66.3306C37.9251 65.9222 37.3418 65.5114 36.7615 65.0967C36.4754 64.8923 36.2247 64.6302 36.4729 64.2761C36.7131 63.9335 37.0215 64.1152 37.2905 64.2947C37.5187 64.447 37.7433 64.6048 37.9689 64.7611C40.6002 66.585 43.2356 68.4032 45.8611 70.2354C47.4378 71.3356 49.2114 70.1983 49.4851 68.816C49.6142 68.1638 49.7785 67.4297 49.1075 66.952C47.0811 65.5091 45.0322 64.0977 42.9948 62.6702C41.7515 61.7991 40.5122 60.9222 39.2736 60.0444C39.0247 59.8681 38.7775 59.6564 39.0074 59.3249C39.2327 58.9999 39.535 59.0622 39.8251 59.261C39.9307 59.3334 40.0344 59.4086 40.1395 59.4819C43.5161 61.8366 46.8941 64.1893 50.2678 66.5481C50.7014 66.8513 51.1741 67.0659 51.6955 67.0312C52.8344 66.9553 53.7586 66.2389 54.055 65.2701C54.3755 64.2227 54.0578 63.218 53.0923 62.456C51.7861 61.425 50.4533 60.4273 49.1278 59.4207C44.6407 56.0131 40.1521 52.6073 35.6631 49.2022C34.7678 48.5231 34.7703 48.5333 33.8409 49.127C32.0801 50.2517 30.4499 51.5567 28.778 52.8025C27.5197 53.7401 26.135 54.0749 24.5992 53.9549C23.3044 53.8538 22.6162 53.2418 22.4102 51.9958C22.2444 50.993 22.5463 50.1205 23.1203 49.3227C23.9771 48.1319 24.9897 47.0723 25.963 45.9798C26.1348 45.7869 26.3676 45.6253 26.4246 45.319C26.3128 45.2999 26.2422 45.2759 26.1722 45.2776C24.1682 45.3278 22.2067 44.9887 20.2572 44.5896C19.8154 44.4991 19.6292 44.6186 19.4438 44.9791C18.2634 47.2726 17.0667 49.5577 15.8792 51.8476C14.776 53.9748 13.6755 56.1034 12.5808 58.235C12.4806 58.4303 12.2613 58.6578 12.5292 58.8712C13.4828 59.6309 14.4472 60.3771 15.437 61.1514C15.8713 60.482 16.2923 59.907 16.7916 59.3963C18.5804 57.5664 21.3897 58.1973 22.2159 60.62C22.3363 60.9733 22.3895 61.3495 22.489 61.7811C23.6764 61.1016 24.8601 61.0079 26.0249 61.7593C27.184 62.5071 27.5375 63.6657 27.5788 64.9575C30.7383 64.7399 31.9828 66.1261 31.6255 69.4783C33.0481 69.5837 34.1217 70.2859 34.731 71.5691C35.3653 72.905 35.0589 74.1308 33.9369 75.2465C35.2776 75.8226 36.3726 76.647 37.6789 77.0249C38.2639 77.1941 38.8336 77.0319 39.3032 76.5908C39.9224 76.0092 40.1331 75.2911 40.1237 74.4629C40.1192 74.0684 39.9823 73.8264 39.6516 73.6158C38.263 72.7316 36.8873 71.8269 35.5117 70.9224C35.2013 70.7182 34.7397 70.5219 35.0534 70.0451C35.3592 69.5802 35.7274 69.9155 36.0558 70.0957C36.1359 70.1396 36.2122 70.1907 36.2884 70.2412C37.9359 71.332 39.6236 72.3678 41.2182 73.5311C42.617 74.5515 44.5944 73.6249 44.8972 71.9997ZM38.7644 50.3046C38.882 50.3917 39.0005 50.4775 39.1171 50.5659C43.7076 54.0483 48.3016 57.5261 52.8822 61.0216C53.2936 61.3356 53.5901 61.3921 54.0286 61.0641C55.068 60.2868 56.1425 59.5557 57.2151 58.8239C57.4929 58.6344 57.5568 58.481 57.3919 58.1599C55.2789 54.044 53.1756 49.923 51.0874 45.7944C50.8837 45.3917 50.6431 45.2302 50.1946 45.2731C47.992 45.484 45.9176 44.9817 43.8977 44.1399C42.2447 43.451 40.5713 42.811 38.9096 42.143C38.0371 41.7923 37.131 41.5366 36.1957 41.5745C35.0684 41.6201 33.9475 41.7828 32.8355 42.0023C31.441 42.2775 30.1899 42.7714 29.1986 43.8602C27.5237 45.7 25.8261 47.5187 24.2576 49.452C23.8276 49.9821 23.4854 50.5562 23.3328 51.2364C23.1377 52.1061 23.5846 52.8624 24.4605 52.9736C25.4119 53.0944 26.3679 53.0681 27.2328 52.566C27.7064 52.2911 28.1693 51.9935 28.6144 51.6746C30.3975 50.3972 32.0814 48.9808 33.9824 47.8688C34.6684 47.4675 34.9794 47.4706 35.6279 47.9538C36.6547 48.7188 37.6777 49.4891 38.7644 50.3046ZM64.1488 52.272C62.1054 48.1509 60.062 44.0298 58.0051 39.8815C55.7974 40.9869 53.6794 42.0578 51.55 43.1057C51.0827 43.3356 51.019 43.5657 51.2614 44.0374C53.7772 48.9318 56.2695 53.8383 58.7731 58.739C58.86 58.9091 58.8992 59.129 59.1764 59.222C61.3612 58.0522 63.5771 56.8658 65.8325 55.6583C65.2572 54.5038 64.7199 53.4254 64.1488 52.272ZM13.8233 53.6887C15.4943 50.4566 17.1582 47.2208 18.8445 43.9967C19.0755 43.555 19.0327 43.3234 18.5703 43.1026C17.4985 42.5905 16.4482 42.0335 15.3868 41.4995C14.3135 40.9595 13.2373 40.4253 12.1303 39.8725C12.0109 40.0806 11.9137 40.2322 11.8335 40.3924C9.3786 45.2976 6.93295 50.2075 4.46035 55.1037C4.20842 55.6026 4.3419 55.787 4.78382 56.0157C6.66712 56.9903 8.53955 57.9866 10.4017 59.0011C10.7891 59.2122 10.9811 59.2132 11.1968 58.7821C12.0393 57.0983 12.9187 55.4329 13.8233 53.6887ZM19.2141 69.4088C19.4115 69.7893 19.6855 70.1058 20.0309 70.3568C20.8048 70.9191 21.6506 70.9771 22.1871 70.4035C23.561 68.9347 24.9125 67.4431 26.1797 65.8801C26.6321 65.3221 26.7288 64.6494 26.5277 63.9589C25.9808 62.0814 23.9962 61.5787 22.5418 62.9461C21.4581 63.965 20.5873 65.1695 19.621 66.2912C18.8045 67.2391 18.6763 68.2257 19.2141 69.4088ZM25.5012 68.21C24.9474 68.8194 24.4084 69.4432 23.8353 70.034C23.348 70.5364 23.1747 71.1206 23.2767 71.7918C23.4038 72.6286 23.7516 73.3481 24.5713 73.6972C25.3982 74.0493 26.2147 73.9523 26.8624 73.3101C28.0444 72.1382 29.2137 70.9504 30.3309 69.7172C31.2076 68.7494 31.0142 67.2155 29.9893 66.3306C29.0027 65.4786 27.8548 65.5817 26.8922 66.6252C26.4334 67.1226 25.9986 67.6421 25.5012 68.21ZM19.9051 64.3776C20.2803 63.9063 20.6781 63.4508 21.0245 62.9592C21.3627 62.4792 21.6275 61.9578 21.4802 61.3304C21.2338 60.2816 20.6322 59.538 19.5641 59.2985C18.5956 59.0812 17.8717 59.5988 17.2709 60.2832C16.5216 61.1367 15.8888 62.0794 15.3498 63.0772C14.5805 64.5012 15.4661 66.4771 17.04 66.9008C17.5478 67.0374 17.9582 66.932 18.2873 66.4791C18.7916 65.7852 19.332 65.1175 19.9051 64.3776ZM33.449 71.3322C32.2636 70.1426 31.3937 70.1361 30.2261 71.317C29.5056 72.0457 28.7948 72.7841 28.0761 73.5145C27.8925 73.7012 27.7415 73.9061 27.6823 74.1623C27.4616 75.1175 27.9519 76.3285 28.7472 76.8079C29.5179 77.2725 30.5841 77.128 31.3895 76.4286C32.1089 75.804 32.7708 75.1192 33.3987 74.4034C34.38 73.2847 34.3991 72.5736 33.449 71.3322Z"/>
</mask>
<path d="M63.0224 47.86C64.2124 50.2763 65.3848 52.6553 66.5555 55.0352C66.9606 55.8588 66.8437 56.2067 66.0534 56.6293C64.0207 57.7163 61.9913 58.8094 59.9605 59.9001C59.8961 59.9347 59.832 59.9701 59.7669 60.0036C58.809 60.4972 58.6155 60.4466 57.9913 59.4795C56.7439 60.3558 55.4992 61.2302 54.2324 62.1201C55.2473 63.6042 55.489 65.1083 54.4266 66.5576C53.4677 67.8656 52.0744 68.1274 50.5062 67.7673C50.4955 68.9862 50.2568 70.1085 49.2278 70.8843C48.2372 71.6312 47.135 71.7749 45.9198 71.3724C45.7711 72.5711 45.4879 73.6588 44.422 74.3276C43.3932 74.9732 42.3017 75.0431 41.1786 74.6151C41.0024 74.8958 40.9926 75.1688 40.9519 75.4366C40.6643 77.3282 38.9052 78.4216 37.0878 77.8371C35.9121 77.4591 34.8789 76.782 33.7864 76.2311C33.3966 76.0346 33.1485 76.0468 32.8389 76.375C32.2091 77.0425 31.5256 77.6743 30.5991 77.895C28.7499 78.3355 27.2475 77.3626 26.8333 75.4913C26.7712 75.2106 26.7124 74.9293 26.6542 74.6587C23.6144 74.8467 23.1997 74.5599 22.2213 71.5819C21.1187 71.7845 20.0581 71.6824 19.1686 70.8796C18.2943 70.0906 18.0174 69.0468 17.9322 67.8981C17.1837 67.9037 16.4974 67.7752 15.8697 67.4017C14.426 66.5428 13.5835 64.3022 14.5941 62.5359C14.8509 62.087 14.7803 61.8581 14.3697 61.5679C13.5369 60.9793 12.7472 60.3297 11.948 59.7116C11.1547 60.4529 11.0746 60.4555 10.1536 59.9602C8.07511 58.8425 5.99291 57.7318 3.91121 56.6202C3.15787 56.2179 3.04738 55.8862 3.43172 55.1175C5.98442 50.0119 8.53834 44.9069 11.0922 39.8018C11.1659 39.6546 11.2393 39.5069 11.3197 39.3633C11.6365 38.7979 11.9511 38.6932 12.5398 38.9893C14.321 39.8852 16.0978 40.7899 17.8761 41.6914C18.4635 41.9892 19.0494 42.2901 19.6385 42.5847C19.8901 42.7106 20.173 42.8468 20.1739 43.153C20.175 43.5752 20.4122 43.6511 20.7486 43.7188C22.8137 44.1346 24.8904 44.3936 27.0041 44.3332C27.5148 44.3186 27.7457 43.9798 28.0181 43.6777C28.8602 42.7442 29.7618 41.8957 30.9842 41.4834C32.0439 41.1259 33.1479 40.9744 34.2486 40.8103C34.8464 40.7212 35.4502 40.7284 36.0502 40.6852C37.2915 40.5959 38.4323 40.9305 39.5706 41.3606C41.7767 42.1941 43.9251 43.1752 46.1687 43.9133C47.4621 44.3388 48.7748 44.4261 50.1071 44.2765C50.1278 44.2248 50.1587 44.1871 50.1507 44.1618C49.7684 42.9558 49.7724 42.9499 50.9189 42.3726C53.0268 41.3113 55.1318 40.2442 57.2411 39.1857C58.3408 38.6338 58.4488 38.6729 58.9946 39.7682C60.3323 42.4527 61.6678 45.1381 63.0224 47.86ZM44.8972 71.9997C45.0536 71.2636 44.8556 70.7221 44.1893 70.275C42.2755 68.9909 40.3996 67.6504 38.5099 66.3306C37.9251 65.9222 37.3418 65.5114 36.7615 65.0967C36.4754 64.8923 36.2247 64.6302 36.4729 64.2761C36.7131 63.9335 37.0215 64.1152 37.2905 64.2947C37.5187 64.447 37.7433 64.6048 37.9689 64.7611C40.6002 66.585 43.2356 68.4032 45.8611 70.2354C47.4378 71.3356 49.2114 70.1983 49.4851 68.816C49.6142 68.1638 49.7785 67.4297 49.1075 66.952C47.0811 65.5091 45.0322 64.0977 42.9948 62.6702C41.7515 61.7991 40.5122 60.9222 39.2736 60.0444C39.0247 59.8681 38.7775 59.6564 39.0074 59.3249C39.2327 58.9999 39.535 59.0622 39.8251 59.261C39.9307 59.3334 40.0344 59.4086 40.1395 59.4819C43.5161 61.8366 46.8941 64.1893 50.2678 66.5481C50.7014 66.8513 51.1741 67.0659 51.6955 67.0312C52.8344 66.9553 53.7586 66.2389 54.055 65.2701C54.3755 64.2227 54.0578 63.218 53.0923 62.456C51.7861 61.425 50.4533 60.4273 49.1278 59.4207C44.6407 56.0131 40.1521 52.6073 35.6631 49.2022C34.7678 48.5231 34.7703 48.5333 33.8409 49.127C32.0801 50.2517 30.4499 51.5567 28.778 52.8025C27.5197 53.7401 26.135 54.0749 24.5992 53.9549C23.3044 53.8538 22.6162 53.2418 22.4102 51.9958C22.2444 50.993 22.5463 50.1205 23.1203 49.3227C23.9771 48.1319 24.9897 47.0723 25.963 45.9798C26.1348 45.7869 26.3676 45.6253 26.4246 45.319C26.3128 45.2999 26.2422 45.2759 26.1722 45.2776C24.1682 45.3278 22.2067 44.9887 20.2572 44.5896C19.8154 44.4991 19.6292 44.6186 19.4438 44.9791C18.2634 47.2726 17.0667 49.5577 15.8792 51.8476C14.776 53.9748 13.6755 56.1034 12.5808 58.235C12.4806 58.4303 12.2613 58.6578 12.5292 58.8712C13.4828 59.6309 14.4472 60.3771 15.437 61.1514C15.8713 60.482 16.2923 59.907 16.7916 59.3963C18.5804 57.5664 21.3897 58.1973 22.2159 60.62C22.3363 60.9733 22.3895 61.3495 22.489 61.7811C23.6764 61.1016 24.8601 61.0079 26.0249 61.7593C27.184 62.5071 27.5375 63.6657 27.5788 64.9575C30.7383 64.7399 31.9828 66.1261 31.6255 69.4783C33.0481 69.5837 34.1217 70.2859 34.731 71.5691C35.3653 72.905 35.0589 74.1308 33.9369 75.2465C35.2776 75.8226 36.3726 76.647 37.6789 77.0249C38.2639 77.1941 38.8336 77.0319 39.3032 76.5908C39.9224 76.0092 40.1331 75.2911 40.1237 74.4629C40.1192 74.0684 39.9823 73.8264 39.6516 73.6158C38.263 72.7316 36.8873 71.8269 35.5117 70.9224C35.2013 70.7182 34.7397 70.5219 35.0534 70.0451C35.3592 69.5802 35.7274 69.9155 36.0558 70.0957C36.1359 70.1396 36.2122 70.1907 36.2884 70.2412C37.9359 71.332 39.6236 72.3678 41.2182 73.5311C42.617 74.5515 44.5944 73.6249 44.8972 71.9997ZM38.7644 50.3046C38.882 50.3917 39.0005 50.4775 39.1171 50.5659C43.7076 54.0483 48.3016 57.5261 52.8822 61.0216C53.2936 61.3356 53.5901 61.3921 54.0286 61.0641C55.068 60.2868 56.1425 59.5557 57.2151 58.8239C57.4929 58.6344 57.5568 58.481 57.3919 58.1599C55.2789 54.044 53.1756 49.923 51.0874 45.7944C50.8837 45.3917 50.6431 45.2302 50.1946 45.2731C47.992 45.484 45.9176 44.9817 43.8977 44.1399C42.2447 43.451 40.5713 42.811 38.9096 42.143C38.0371 41.7923 37.131 41.5366 36.1957 41.5745C35.0684 41.6201 33.9475 41.7828 32.8355 42.0023C31.441 42.2775 30.1899 42.7714 29.1986 43.8602C27.5237 45.7 25.8261 47.5187 24.2576 49.452C23.8276 49.9821 23.4854 50.5562 23.3328 51.2364C23.1377 52.1061 23.5846 52.8624 24.4605 52.9736C25.4119 53.0944 26.3679 53.0681 27.2328 52.566C27.7064 52.2911 28.1693 51.9935 28.6144 51.6746C30.3975 50.3972 32.0814 48.9808 33.9824 47.8688C34.6684 47.4675 34.9794 47.4706 35.6279 47.9538C36.6547 48.7188 37.6777 49.4891 38.7644 50.3046ZM64.1488 52.272C62.1054 48.1509 60.062 44.0298 58.0051 39.8815C55.7974 40.9869 53.6794 42.0578 51.55 43.1057C51.0827 43.3356 51.019 43.5657 51.2614 44.0374C53.7772 48.9318 56.2695 53.8383 58.7731 58.739C58.86 58.9091 58.8992 59.129 59.1764 59.222C61.3612 58.0522 63.5771 56.8658 65.8325 55.6583C65.2572 54.5038 64.7199 53.4254 64.1488 52.272ZM13.8233 53.6887C15.4943 50.4566 17.1582 47.2208 18.8445 43.9967C19.0755 43.555 19.0327 43.3234 18.5703 43.1026C17.4985 42.5905 16.4482 42.0335 15.3868 41.4995C14.3135 40.9595 13.2373 40.4253 12.1303 39.8725C12.0109 40.0806 11.9137 40.2322 11.8335 40.3924C9.3786 45.2976 6.93295 50.2075 4.46035 55.1037C4.20842 55.6026 4.3419 55.787 4.78382 56.0157C6.66712 56.9903 8.53955 57.9866 10.4017 59.0011C10.7891 59.2122 10.9811 59.2132 11.1968 58.7821C12.0393 57.0983 12.9187 55.4329 13.8233 53.6887ZM19.2141 69.4088C19.4115 69.7893 19.6855 70.1058 20.0309 70.3568C20.8048 70.9191 21.6506 70.9771 22.1871 70.4035C23.561 68.9347 24.9125 67.4431 26.1797 65.8801C26.6321 65.3221 26.7288 64.6494 26.5277 63.9589C25.9808 62.0814 23.9962 61.5787 22.5418 62.9461C21.4581 63.965 20.5873 65.1695 19.621 66.2912C18.8045 67.2391 18.6763 68.2257 19.2141 69.4088ZM25.5012 68.21C24.9474 68.8194 24.4084 69.4432 23.8353 70.034C23.348 70.5364 23.1747 71.1206 23.2767 71.7918C23.4038 72.6286 23.7516 73.3481 24.5713 73.6972C25.3982 74.0493 26.2147 73.9523 26.8624 73.3101C28.0444 72.1382 29.2137 70.9504 30.3309 69.7172C31.2076 68.7494 31.0142 67.2155 29.9893 66.3306C29.0027 65.4786 27.8548 65.5817 26.8922 66.6252C26.4334 67.1226 25.9986 67.6421 25.5012 68.21ZM19.9051 64.3776C20.2803 63.9063 20.6781 63.4508 21.0245 62.9592C21.3627 62.4792 21.6275 61.9578 21.4802 61.3304C21.2338 60.2816 20.6322 59.538 19.5641 59.2985C18.5956 59.0812 17.8717 59.5988 17.2709 60.2832C16.5216 61.1367 15.8888 62.0794 15.3498 63.0772C14.5805 64.5012 15.4661 66.4771 17.04 66.9008C17.5478 67.0374 17.9582 66.932 18.2873 66.4791C18.7916 65.7852 19.332 65.1175 19.9051 64.3776ZM33.449 71.3322C32.2636 70.1426 31.3937 70.1361 30.2261 71.317C29.5056 72.0457 28.7948 72.7841 28.0761 73.5145C27.8925 73.7012 27.7415 73.9061 27.6823 74.1623C27.4616 75.1175 27.9519 76.3285 28.7472 76.8079C29.5179 77.2725 30.5841 77.128 31.3895 76.4286C32.1089 75.804 32.7708 75.1192 33.3987 74.4034C34.38 73.2847 34.3991 72.5736 33.449 71.3322Z" fill="#363636"/>
<path d="M63.0224 47.86C64.2124 50.2763 65.3848 52.6553 66.5555 55.0352C66.9606 55.8588 66.8437 56.2067 66.0534 56.6293C64.0207 57.7163 61.9913 58.8094 59.9605 59.9001C59.8961 59.9347 59.832 59.9701 59.7669 60.0036C58.809 60.4972 58.6155 60.4466 57.9913 59.4795C56.7439 60.3558 55.4992 61.2302 54.2324 62.1201C55.2473 63.6042 55.489 65.1083 54.4266 66.5576C53.4677 67.8656 52.0744 68.1274 50.5062 67.7673C50.4955 68.9862 50.2568 70.1085 49.2278 70.8843C48.2372 71.6312 47.135 71.7749 45.9198 71.3724C45.7711 72.5711 45.4879 73.6588 44.422 74.3276C43.3932 74.9732 42.3017 75.0431 41.1786 74.6151C41.0024 74.8958 40.9926 75.1688 40.9519 75.4366C40.6643 77.3282 38.9052 78.4216 37.0878 77.8371C35.9121 77.4591 34.8789 76.782 33.7864 76.2311C33.3966 76.0346 33.1485 76.0468 32.8389 76.375C32.2091 77.0425 31.5256 77.6743 30.5991 77.895C28.7499 78.3355 27.2475 77.3626 26.8333 75.4913C26.7712 75.2106 26.7124 74.9293 26.6542 74.6587C23.6144 74.8467 23.1997 74.5599 22.2213 71.5819C21.1187 71.7845 20.0581 71.6824 19.1686 70.8796C18.2943 70.0906 18.0174 69.0468 17.9322 67.8981C17.1837 67.9037 16.4974 67.7752 15.8697 67.4017C14.426 66.5428 13.5835 64.3022 14.5941 62.5359C14.8509 62.087 14.7803 61.8581 14.3697 61.5679C13.5369 60.9793 12.7472 60.3297 11.948 59.7116C11.1547 60.4529 11.0746 60.4555 10.1536 59.9602C8.07511 58.8425 5.99291 57.7318 3.91121 56.6202C3.15787 56.2179 3.04738 55.8862 3.43172 55.1175C5.98442 50.0119 8.53834 44.9069 11.0922 39.8018C11.1659 39.6546 11.2393 39.5069 11.3197 39.3633C11.6365 38.7979 11.9511 38.6932 12.5398 38.9893C14.321 39.8852 16.0978 40.7899 17.8761 41.6914C18.4635 41.9892 19.0494 42.2901 19.6385 42.5847C19.8901 42.7106 20.173 42.8468 20.1739 43.153C20.175 43.5752 20.4122 43.6511 20.7486 43.7188C22.8137 44.1346 24.8904 44.3936 27.0041 44.3332C27.5148 44.3186 27.7457 43.9798 28.0181 43.6777C28.8602 42.7442 29.7618 41.8957 30.9842 41.4834C32.0439 41.1259 33.1479 40.9744 34.2486 40.8103C34.8464 40.7212 35.4502 40.7284 36.0502 40.6852C37.2915 40.5959 38.4323 40.9305 39.5706 41.3606C41.7767 42.1941 43.9251 43.1752 46.1687 43.9133C47.4621 44.3388 48.7748 44.4261 50.1071 44.2765C50.1278 44.2248 50.1587 44.1871 50.1507 44.1618C49.7684 42.9558 49.7724 42.9499 50.9189 42.3726C53.0268 41.3113 55.1318 40.2442 57.2411 39.1857C58.3408 38.6338 58.4488 38.6729 58.9946 39.7682C60.3323 42.4527 61.6678 45.1381 63.0224 47.86ZM44.8972 71.9997C45.0536 71.2636 44.8556 70.7221 44.1893 70.275C42.2755 68.9909 40.3996 67.6504 38.5099 66.3306C37.9251 65.9222 37.3418 65.5114 36.7615 65.0967C36.4754 64.8923 36.2247 64.6302 36.4729 64.2761C36.7131 63.9335 37.0215 64.1152 37.2905 64.2947C37.5187 64.447 37.7433 64.6048 37.9689 64.7611C40.6002 66.585 43.2356 68.4032 45.8611 70.2354C47.4378 71.3356 49.2114 70.1983 49.4851 68.816C49.6142 68.1638 49.7785 67.4297 49.1075 66.952C47.0811 65.5091 45.0322 64.0977 42.9948 62.6702C41.7515 61.7991 40.5122 60.9222 39.2736 60.0444C39.0247 59.8681 38.7775 59.6564 39.0074 59.3249C39.2327 58.9999 39.535 59.0622 39.8251 59.261C39.9307 59.3334 40.0344 59.4086 40.1395 59.4819C43.5161 61.8366 46.8941 64.1893 50.2678 66.5481C50.7014 66.8513 51.1741 67.0659 51.6955 67.0312C52.8344 66.9553 53.7586 66.2389 54.055 65.2701C54.3755 64.2227 54.0578 63.218 53.0923 62.456C51.7861 61.425 50.4533 60.4273 49.1278 59.4207C44.6407 56.0131 40.1521 52.6073 35.6631 49.2022C34.7678 48.5231 34.7703 48.5333 33.8409 49.127C32.0801 50.2517 30.4499 51.5567 28.778 52.8025C27.5197 53.7401 26.135 54.0749 24.5992 53.9549C23.3044 53.8538 22.6162 53.2418 22.4102 51.9958C22.2444 50.993 22.5463 50.1205 23.1203 49.3227C23.9771 48.1319 24.9897 47.0723 25.963 45.9798C26.1348 45.7869 26.3676 45.6253 26.4246 45.319C26.3128 45.2999 26.2422 45.2759 26.1722 45.2776C24.1682 45.3278 22.2067 44.9887 20.2572 44.5896C19.8154 44.4991 19.6292 44.6186 19.4438 44.9791C18.2634 47.2726 17.0667 49.5577 15.8792 51.8476C14.776 53.9748 13.6755 56.1034 12.5808 58.235C12.4806 58.4303 12.2613 58.6578 12.5292 58.8712C13.4828 59.6309 14.4472 60.3771 15.437 61.1514C15.8713 60.482 16.2923 59.907 16.7916 59.3963C18.5804 57.5664 21.3897 58.1973 22.2159 60.62C22.3363 60.9733 22.3895 61.3495 22.489 61.7811C23.6764 61.1016 24.8601 61.0079 26.0249 61.7593C27.184 62.5071 27.5375 63.6657 27.5788 64.9575C30.7383 64.7399 31.9828 66.1261 31.6255 69.4783C33.0481 69.5837 34.1217 70.2859 34.731 71.5691C35.3653 72.905 35.0589 74.1308 33.9369 75.2465C35.2776 75.8226 36.3726 76.647 37.6789 77.0249C38.2639 77.1941 38.8336 77.0319 39.3032 76.5908C39.9224 76.0092 40.1331 75.2911 40.1237 74.4629C40.1192 74.0684 39.9823 73.8264 39.6516 73.6158C38.263 72.7316 36.8873 71.8269 35.5117 70.9224C35.2013 70.7182 34.7397 70.5219 35.0534 70.0451C35.3592 69.5802 35.7274 69.9155 36.0558 70.0957C36.1359 70.1396 36.2122 70.1907 36.2884 70.2412C37.9359 71.332 39.6236 72.3678 41.2182 73.5311C42.617 74.5515 44.5944 73.6249 44.8972 71.9997ZM38.7644 50.3046C38.882 50.3917 39.0005 50.4775 39.1171 50.5659C43.7076 54.0483 48.3016 57.5261 52.8822 61.0216C53.2936 61.3356 53.5901 61.3921 54.0286 61.0641C55.068 60.2868 56.1425 59.5557 57.2151 58.8239C57.4929 58.6344 57.5568 58.481 57.3919 58.1599C55.2789 54.044 53.1756 49.923 51.0874 45.7944C50.8837 45.3917 50.6431 45.2302 50.1946 45.2731C47.992 45.484 45.9176 44.9817 43.8977 44.1399C42.2447 43.451 40.5713 42.811 38.9096 42.143C38.0371 41.7923 37.131 41.5366 36.1957 41.5745C35.0684 41.6201 33.9475 41.7828 32.8355 42.0023C31.441 42.2775 30.1899 42.7714 29.1986 43.8602C27.5237 45.7 25.8261 47.5187 24.2576 49.452C23.8276 49.9821 23.4854 50.5562 23.3328 51.2364C23.1377 52.1061 23.5846 52.8624 24.4605 52.9736C25.4119 53.0944 26.3679 53.0681 27.2328 52.566C27.7064 52.2911 28.1693 51.9935 28.6144 51.6746C30.3975 50.3972 32.0814 48.9808 33.9824 47.8688C34.6684 47.4675 34.9794 47.4706 35.6279 47.9538C36.6547 48.7188 37.6777 49.4891 38.7644 50.3046ZM64.1488 52.272C62.1054 48.1509 60.062 44.0298 58.0051 39.8815C55.7974 40.9869 53.6794 42.0578 51.55 43.1057C51.0827 43.3356 51.019 43.5657 51.2614 44.0374C53.7772 48.9318 56.2695 53.8383 58.7731 58.739C58.86 58.9091 58.8992 59.129 59.1764 59.222C61.3612 58.0522 63.5771 56.8658 65.8325 55.6583C65.2572 54.5038 64.7199 53.4254 64.1488 52.272ZM13.8233 53.6887C15.4943 50.4566 17.1582 47.2208 18.8445 43.9967C19.0755 43.555 19.0327 43.3234 18.5703 43.1026C17.4985 42.5905 16.4482 42.0335 15.3868 41.4995C14.3135 40.9595 13.2373 40.4253 12.1303 39.8725C12.0109 40.0806 11.9137 40.2322 11.8335 40.3924C9.3786 45.2976 6.93295 50.2075 4.46035 55.1037C4.20842 55.6026 4.3419 55.787 4.78382 56.0157C6.66712 56.9903 8.53955 57.9866 10.4017 59.0011C10.7891 59.2122 10.9811 59.2132 11.1968 58.7821C12.0393 57.0983 12.9187 55.4329 13.8233 53.6887ZM19.2141 69.4088C19.4115 69.7893 19.6855 70.1058 20.0309 70.3568C20.8048 70.9191 21.6506 70.9771 22.1871 70.4035C23.561 68.9347 24.9125 67.4431 26.1797 65.8801C26.6321 65.3221 26.7288 64.6494 26.5277 63.9589C25.9808 62.0814 23.9962 61.5787 22.5418 62.9461C21.4581 63.965 20.5873 65.1695 19.621 66.2912C18.8045 67.2391 18.6763 68.2257 19.2141 69.4088ZM25.5012 68.21C24.9474 68.8194 24.4084 69.4432 23.8353 70.034C23.348 70.5364 23.1747 71.1206 23.2767 71.7918C23.4038 72.6286 23.7516 73.3481 24.5713 73.6972C25.3982 74.0493 26.2147 73.9523 26.8624 73.3101C28.0444 72.1382 29.2137 70.9504 30.3309 69.7172C31.2076 68.7494 31.0142 67.2155 29.9893 66.3306C29.0027 65.4786 27.8548 65.5817 26.8922 66.6252C26.4334 67.1226 25.9986 67.6421 25.5012 68.21ZM19.9051 64.3776C20.2803 63.9063 20.6781 63.4508 21.0245 62.9592C21.3627 62.4792 21.6275 61.9578 21.4802 61.3304C21.2338 60.2816 20.6322 59.538 19.5641 59.2985C18.5956 59.0812 17.8717 59.5988 17.2709 60.2832C16.5216 61.1367 15.8888 62.0794 15.3498 63.0772C14.5805 64.5012 15.4661 66.4771 17.04 66.9008C17.5478 67.0374 17.9582 66.932 18.2873 66.4791C18.7916 65.7852 19.332 65.1175 19.9051 64.3776ZM33.449 71.3322C32.2636 70.1426 31.3937 70.1361 30.2261 71.317C29.5056 72.0457 28.7948 72.7841 28.0761 73.5145C27.8925 73.7012 27.7415 73.9061 27.6823 74.1623C27.4616 75.1175 27.9519 76.3285 28.7472 76.8079C29.5179 77.2725 30.5841 77.128 31.3895 76.4286C32.1089 75.804 32.7708 75.1192 33.3987 74.4034C34.38 73.2847 34.3991 72.5736 33.449 71.3322Z" stroke="#363636" mask="url(#path-1-outside-1_4015_30184)"/>
<path d="M34.9521 1.75C35.2489 1.75116 35.5333 1.83787 35.8281 1.98828C38.9183 3.56475 42.089 4.95802 45.3564 6.12305C48.6211 7.28708 51.9462 8.19961 55.3721 8.70312C55.6352 8.74183 55.8859 8.82093 56.0732 8.99707C56.268 9.18029 56.3578 9.43318 56.3682 9.74121C56.4334 11.6896 56.3668 13.6322 56.2734 15.5693C56.2063 16.9627 56.0901 18.348 55.9346 19.7334C55.6043 22.6751 55.045 25.5679 54.1367 28.3945C52.9476 32.0948 51.1413 35.4513 48.5088 38.3467C47.598 39.3484 46.5936 40.248 45.5996 41.1377C45.4677 41.2558 45.2824 41.4045 45.0693 41.4541C44.9553 41.4805 44.8294 41.4791 44.7031 41.4297C44.5787 41.3809 44.473 41.2926 44.3838 41.1758C44.2994 41.0653 44.2441 40.9466 44.2266 40.8203C44.2089 40.6932 44.2312 40.5754 44.2754 40.4717C44.3587 40.2762 44.5247 40.1185 44.6631 39.999C47.1189 37.8799 49.2334 35.4895 50.7842 32.5898C52.5473 29.2719 53.5759 25.7583 54.1543 22.0879C54.4659 20.1107 54.6947 18.1301 54.8154 16.1328C54.8725 15.188 54.9006 14.2418 54.9258 13.292C54.951 12.3434 54.9726 11.39 55.0186 10.4375C55.0272 10.2574 54.9936 10.1868 54.9658 10.1543C54.9361 10.1195 54.8677 10.0744 54.6895 10.0479C50.9636 9.49252 47.3859 8.40367 43.873 7.11719C40.9558 6.04879 38.1262 4.78192 35.3516 3.40039C35.1905 3.32024 35.066 3.28981 34.9531 3.29004C34.8398 3.29035 34.7152 3.32191 34.5547 3.40137C30.5251 5.39612 26.391 7.15184 22.0713 8.45312C19.8594 9.11942 17.6181 9.68772 15.3262 10.0488C15.1302 10.0797 15.046 10.1319 15.0059 10.1797C14.9675 10.2255 14.9299 10.3146 14.9414 10.5156C15.1232 13.6781 15.0455 16.7831 15.4639 19.8994C15.8528 22.7962 16.37 25.639 17.3008 28.3955C18.7606 32.7187 21.2425 36.3595 24.6338 39.4014C25.0153 39.7436 25.399 40.0913 25.7695 40.4531C25.9121 40.5924 26.0295 40.7721 26.0547 40.9805C26.0812 41.2011 25.9989 41.4103 25.8232 41.583C25.6421 41.7612 25.4314 41.8202 25.2197 41.7715C25.0343 41.7287 24.8764 41.609 24.7578 41.5049C22.4017 39.4358 20.2221 37.1965 18.5596 34.4766C16.7469 31.511 15.5835 28.3025 14.832 24.9453C14.2984 22.5611 14.0257 20.1398 13.8018 17.7197C13.5589 15.0946 13.6287 12.4623 13.5967 9.8623C13.5945 9.68734 13.5976 9.52897 13.624 9.39355C13.6518 9.25148 13.7078 9.11985 13.8184 9.01172C13.924 8.90843 14.0585 8.84746 14.2031 8.80371C14.3479 8.75997 14.5274 8.72626 14.7383 8.69141C20.0303 7.81674 25.0749 6.13385 29.9658 3.94434C31.3492 3.32504 32.7227 2.6846 34.0645 1.99023C34.3667 1.83384 34.6549 1.74887 34.9521 1.75Z" fill="#363636" stroke="#363636" stroke-width="0.5"/>
<path d="M44.5557 15.54C44.6904 15.5564 44.8155 15.6189 44.9316 15.7129C45.0418 15.8021 45.1255 15.9061 45.1729 16.0264C45.2207 16.1479 45.2245 16.2694 45.2031 16.3818C45.1629 16.5931 45.0294 16.7823 44.917 16.9238C42.4723 20.0038 40.0302 23.0854 37.5859 26.166C36.5288 27.4984 35.4704 28.8306 34.4092 30.1602C34.2885 30.3113 34.1694 30.439 34.0469 30.5303C33.922 30.6232 33.7785 30.6892 33.6162 30.6895C33.4547 30.6896 33.3117 30.6247 33.1855 30.5332C33.0611 30.4429 32.9387 30.3159 32.8135 30.165C30.8397 27.7859 28.8683 25.4037 26.8701 22.9932L26.8643 22.9863C26.7986 22.9011 26.727 22.8244 26.6406 22.7227C26.5616 22.6295 26.4735 22.5185 26.4121 22.3975C26.3491 22.2734 26.3045 22.1192 26.3408 21.9482C26.377 21.7779 26.4846 21.6332 26.6387 21.5088C26.7823 21.3928 26.9385 21.3257 27.1045 21.3291C27.2685 21.3326 27.4019 21.4039 27.5029 21.4844C27.6022 21.5635 27.6861 21.6631 27.7539 21.75C27.8307 21.8483 27.8773 21.9174 27.9365 21.9883C29.7536 24.1646 31.5635 26.3483 33.377 28.5264C33.4804 28.6507 33.5354 28.7357 33.6113 28.7998C34.2856 27.9562 34.9699 27.1035 35.6504 26.2471C38.3578 22.8399 41.0643 19.4317 43.7705 16.0234C43.8666 15.9024 44.0111 15.7136 44.1953 15.6133C44.2968 15.558 44.4185 15.5234 44.5557 15.54Z" fill="#363636" stroke="#363636" stroke-width="0.5"/>
</svg>
