<svg width="84" height="80" viewBox="0 0 84 80" fill="none" xmlns="http://www.w3.org/2000/svg">
<path d="M79.2882 42.4515C79.9773 42.441 80.6665 42.4174 81.3553 42.4249C81.8031 42.4298 82.0109 42.2413 81.9826 41.7937C81.9773 41.7105 81.9818 41.6268 81.9818 41.5432C81.9818 31.1454 81.9818 20.7476 81.9819 10.3498C81.9819 9.91574 81.9653 9.55233 81.5013 9.25296C81.2033 9.06069 81.102 8.57608 80.7993 8.27505C79.0089 6.49502 77.2628 4.67012 75.4547 2.90863C74.895 2.36334 74.2279 1.99733 73.3373 2.00001C63.3774 2.03005 53.4174 2.01898 43.4575 2.01898C42.4497 2.01898 42.3926 2.07605 42.3926 3.08382C42.3926 7.17613 42.3926 11.2684 42.3926 15.3608C42.3926 15.6113 42.3926 15.8619 42.3926 16.1124" stroke="#363636" stroke-width="1.5" stroke-linecap="round" stroke-linejoin="round"/>
<path d="M40.8867 28.1398C41.5284 25.5438 41.8875 22.9379 41.0707 20.3113C40.6702 19.0236 39.8981 18.0098 38.6903 17.3736C38.4011 17.2213 38.2348 17.0021 38.0622 16.7435C36.7772 14.8182 34.9064 13.8417 32.6819 13.414C30.9148 13.0743 29.1309 12.9878 27.358 13.1857C23.5298 13.6133 20.342 15.1137 18.5877 18.8074C18.0425 19.9554 17.8238 21.1876 17.7123 22.44C17.5494 24.2702 17.7916 26.0801 18.026 27.8888C18.0426 28.0173 18.1062 28.1398 18.148 28.265" stroke="#363636" stroke-width="1.5" stroke-linecap="round" stroke-linejoin="round"/>
<path d="M75.0341 51.3783C74.7801 50.8656 74.9562 50.3386 74.9616 49.8122C74.9848 47.5575 74.9669 45.3024 74.9776 43.0475C74.9788 42.7821 74.8975 42.5448 74.8268 42.2733C75.0469 41.7866 75.5449 41.5643 75.9215 41.2433C77.4892 39.9071 78.4467 38.1999 78.7656 36.2157C79.1582 33.7736 78.631 31.4817 77.0351 29.5207C75.6858 27.8628 73.9131 26.8104 71.8346 26.4785C69.3599 26.0833 67.0166 26.598 65.0157 28.2076C63.4613 29.4581 62.3882 31.0748 62.0279 33.0298C61.5062 35.8601 62.1737 38.4358 64.1415 40.5983C64.617 41.1209 65.1694 41.5757 65.7051 42.0401C65.9202 42.2266 66.0256 42.4023 65.8888 42.6718C65.7871 42.872 65.8276 43.0883 65.8273 43.298C65.8249 45.2607 65.8633 47.2244 65.8073 49.1854C65.7851 49.9612 66.0137 50.731 65.8259 51.5036" stroke="#363636" stroke-width="1.5" stroke-linecap="round" stroke-linejoin="round"/>
<path d="M70.3922 53.6328C70.2659 55.26 70.3519 56.89 70.3307 58.5186C70.2891 61.7168 69.2932 64.5885 67.3167 67.0951C65.153 69.8391 62.3401 71.5862 58.9288 72.3609C57.9187 72.5903 56.8931 72.7269 55.8595 72.73C54.398 72.7345 52.9348 72.7956 51.4746 72.6746" stroke="#363636" stroke-width="1.5" stroke-linecap="round" stroke-linejoin="round"/>
<path d="M19.407 48.0593C18.5219 48.0379 17.7692 48.5057 16.9709 48.7691C14.0929 49.7185 11.2157 50.6827 8.39014 51.7755C5.78983 52.7811 4.24748 54.7599 3.74854 57.5179C3.40512 59.4162 3.06367 61.3151 2.7494 63.2184C2.51565 64.634 2.3296 66.0576 2.11335 67.4762C2.09429 67.6013 1.94395 67.7054 2.05543 67.8527" stroke="#363636" stroke-width="1.5" stroke-linecap="round" stroke-linejoin="round"/>
<path d="M39.4454 33.7139C39.287 34.9093 39.0187 36.0784 38.6332 37.2223C38.1086 38.7787 37.3465 40.2056 36.3069 41.4756C36.0255 41.8194 35.8808 42.1151 36.1154 42.5511C36.2885 42.8728 36.1834 43.256 36.1831 43.6106C36.1826 44.1577 36.2727 44.5437 36.7859 44.9611C37.8215 45.8036 38.6964 46.8443 39.6287 47.8118C39.7113 47.8975 39.7028 48.0176 39.8806 48.0691C43.6253 49.1524 47.2884 50.4885 50.9593 51.7876C53.1222 52.553 54.508 54.2523 55.2318 56.451C55.6411 57.694 55.7483 58.9953 55.983 60.2721C56.1903 61.3999 56.4428 62.5213 56.5982 63.6561C56.788 65.0421 57.0307 66.4169 57.2981 67.7887" stroke="#363636" stroke-width="1.5" stroke-linecap="round" stroke-linejoin="round"/>
<path d="M74.1491 13.2959C66.2563 13.2959 58.3635 13.2959 50.4707 13.2959" stroke="#363636" stroke-width="1.5" stroke-linecap="round" stroke-linejoin="round"/>
<path d="M26.0535 53.0703C26.4711 53.8637 26.814 54.7105 27.3303 55.4334C27.7314 55.9949 27.8302 56.4852 27.6959 57.1445C27.2422 59.3713 26.8317 61.6072 26.4339 63.8448C26.0782 65.8453 25.7669 67.8537 25.4248 69.8568C25.2283 71.0072 25.0295 72.1581 24.79 73.3C24.7035 73.7127 24.8005 73.9739 25.1084 74.248C26.2619 75.2749 27.5007 76.1971 28.6755 77.1963C28.9905 77.4643 29.4445 77.5743 29.624 78" stroke="#363636" stroke-width="1.5" stroke-linecap="round" stroke-linejoin="round"/>
<path d="M42.4533 39.2266C42.4324 40.02 42.402 40.8133 42.3933 41.6068C42.3849 42.3763 42.4353 42.4204 43.205 42.4205C49.1559 42.4215 55.1068 42.4211 61.0577 42.4211" stroke="#363636" stroke-width="1.5" stroke-linecap="round" stroke-linejoin="round"/>
<path d="M35.7496 20.8125C34.7798 20.838 33.9167 21.2896 32.9973 21.5174C31.357 21.9237 29.7118 22.3231 28.0415 22.5418C26.6984 22.7177 25.34 22.8793 23.973 22.8184C21.5131 22.7087 20.6975 24.0356 20.2851 25.9505C20.1441 26.6052 20.0514 27.2776 20.095 27.9528C20.1144 28.2531 19.953 28.4935 19.9014 28.7675" stroke="#363636" stroke-width="1.5" stroke-linecap="round" stroke-linejoin="round"/>
<path d="M33.0634 53.0703C32.5475 53.8429 32.3484 54.8066 31.7295 55.4967C31.2494 56.0321 31.2929 56.5415 31.4304 57.1427C31.899 59.1924 32.1959 61.2741 32.5681 63.3418C32.8735 65.0382 33.2508 66.7216 33.5589 68.4175C33.8766 70.1668 34.1487 71.9243 34.4423 73.6779C34.4657 73.8174 34.5145 73.933 34.6921 73.8346" stroke="#363636" stroke-width="1.5" stroke-linecap="round" stroke-linejoin="round"/>
<path d="M66.761 18.8369C66.072 18.8474 65.3829 18.8664 64.6939 18.8668C60.2046 18.8696 55.7153 18.8687 51.226 18.8669C51.0172 18.8668 50.8084 18.8474 50.5996 18.8369" stroke="#363636" stroke-width="1.5" stroke-linecap="round" stroke-linejoin="round"/>
<path d="M35.8819 42.1709C35.5099 42.1985 35.2699 42.4667 35.008 42.6759C33.1519 44.1583 31.0339 44.8338 28.6797 44.598C26.9475 44.4244 25.3864 43.7318 24.0521 42.5984C23.8137 42.3959 23.5699 42.2684 23.291 42.1709" stroke="#363636" stroke-width="1.5" stroke-linecap="round" stroke-linejoin="round"/>
<path d="M74.806 42.2968C74.2348 42.1727 73.8027 42.5745 73.3448 42.7619C71.1296 43.6688 68.9708 43.4751 66.8246 42.5968C66.5477 42.4834 66.3013 42.3766 66.0049 42.4221" stroke="#363636" stroke-width="1.5" stroke-linecap="round" stroke-linejoin="round"/>
<path d="M19.7856 33.7139C19.8331 34.8509 20.0948 35.9579 20.4311 37.0276C20.948 38.6713 21.7388 40.1919 22.9172 41.4813C23.2036 41.7947 23.3134 42.1217 23.1154 42.5503C22.9351 42.9407 23.0593 43.381 23.0468 43.7986C23.0305 44.3419 22.8862 44.6935 22.3846 45.0901C21.3028 45.9455 20.3902 47.0148 19.4326 47.9723C20.5178 50.4167 21.8102 52.6328 23.3737 54.684C23.4931 54.8407 23.43 54.9512 23.4814 55.0732" stroke="#363636" stroke-width="1.5" stroke-linecap="round" stroke-linejoin="round"/>
<path d="M35.8497 20.4346C35.8446 21.2459 36.228 21.9443 36.5882 22.6172C37.0345 23.4511 37.6425 24.1968 38.1279 25.012C38.5945 25.7956 38.8828 26.653 38.9535 27.575C38.9829 27.9587 39.0811 28.3274 39.3262 28.6401" stroke="#363636" stroke-width="1.5" stroke-linecap="round" stroke-linejoin="round"/>
<path d="M36.3786 44.7393C35.0191 47.0079 32.9035 48.4358 30.7434 49.8168C30.495 49.9756 30.2822 50.1896 30.0514 50.3762C29.9703 50.4418 29.8937 50.5314 29.7998 50.56C28.7161 50.8912 27.1272 51.9229 26.2168 52.6774C25.3477 53.3977 24.5388 54.2076 23.5371 54.7613" stroke="#363636" stroke-width="1.5" stroke-linecap="round" stroke-linejoin="round"/>
<path d="M74.718 2.52148C74.6078 2.78194 74.5226 3.03995 74.5244 3.33581C74.5357 5.15222 74.528 6.96875 74.5313 8.78523C74.5324 9.40856 74.5964 9.47203 75.2192 9.47315C76.9731 9.47629 78.7271 9.46924 80.481 9.47914C80.7755 9.4808 81.0384 9.41188 81.2953 9.28633" stroke="#363636" stroke-width="1.5" stroke-linecap="round" stroke-linejoin="round"/>
<path d="M22.8535 44.9883C24.2019 47.052 26.1446 48.4503 28.1764 49.7513C28.5265 49.9754 28.9214 50.1566 29.1176 50.563" stroke="#363636" stroke-width="1.5" stroke-linecap="round" stroke-linejoin="round"/>
<path d="M20.0595 29.579C19.9764 29.3349 20.1455 28.982 19.8944 28.8426C19.5388 28.6451 19.2015 28.3762 18.7752 28.3274C18.0513 28.2446 17.5539 28.5584 17.2719 29.2658C16.737 30.608 17.4347 32.99 18.5818 33.8458C18.9161 34.0952 19.2609 34.171 19.6523 34.1515" stroke="#363636" stroke-width="1.5" stroke-linecap="round" stroke-linejoin="round"/>
<path d="M39.1074 29.5797C39.2805 29.2902 39.0571 28.8274 39.3975 28.6564C39.8229 28.4427 40.3013 28.3176 40.7699 28.2128C41.0607 28.1477 41.7426 28.9405 41.8947 29.4545C42.1826 30.4268 41.9754 31.3582 41.639 32.2711C41.5267 32.5759 41.3797 32.876 41.2003 33.1463C40.8017 33.7468 40.2521 34.1359 39.5146 34.2149" stroke="#363636" stroke-width="1.5" stroke-linecap="round" stroke-linejoin="round"/>
<path d="M39.6946 37.8594C38.7199 40.187 37.3832 42.3019 35.8608 44.3014C35.6767 44.5433 35.7079 44.7594 35.6855 45" stroke="#363636" stroke-width="1.5" stroke-linecap="round" stroke-linejoin="round"/>
<path d="M74.6559 32.4609C74.3491 32.4229 74.2096 32.6156 74.0195 32.8278C72.6391 34.3686 71.2347 35.888 69.829 37.4059C69.6287 37.6222 69.4523 37.8817 69.1013 37.9957C68.1777 37.2502 67.4631 36.2701 66.5752 35.4675" stroke="#363636" stroke-width="1.5" stroke-linecap="round" stroke-linejoin="round"/>
<path d="M34.4346 73.9277C33.4027 74.9554 32.2249 75.8114 31.1093 76.7401C30.6518 77.121 30.2423 77.5757 29.6738 77.8113" stroke="#363636" stroke-width="1.5" stroke-linecap="round" stroke-linejoin="round"/>
<path d="M74.712 50.6286C74.0009 50.5807 73.5626 50.0315 73.0289 49.6767C72.2863 49.1829 71.603 48.6005 70.8899 48.0617C70.5615 47.8136 70.2823 47.7137 69.8765 48.0456C68.9759 48.7823 67.9938 49.4187 67.078 50.138C66.7453 50.3993 66.3901 50.5605 66.0049 50.6912" stroke="#363636" stroke-width="1.5" stroke-linecap="round" stroke-linejoin="round"/>
<path d="M29.9941 50.5635C30.5966 51.2025 31.4323 51.5013 32.1164 52.0142C33.0652 52.7257 33.9578 53.5119 34.8827 54.2559C35.1164 54.4439 35.3813 54.5931 35.6319 54.7602" stroke="#363636" stroke-width="1.5" stroke-linecap="round" stroke-linejoin="round"/>
<path d="M31.1812 56.2023C30.0954 56.1006 29.0096 56.1006 27.9238 56.2023" stroke="#363636" stroke-width="1.5" stroke-linecap="round" stroke-linejoin="round"/>
<path d="M53.4739 70.6723C53.1285 70.5854 52.9887 70.8713 52.7837 71.0467C52.2215 71.5279 51.5533 71.9001 51.3901 72.7361C51.3262 73.0635 51.4114 73.2993 51.6021 73.4834C52.0381 73.9042 52.5272 74.2699 52.9658 74.6884C53.1346 74.8495 53.3027 74.7812 53.4739 74.8064" stroke="#363636" stroke-width="1.5" stroke-linecap="round" stroke-linejoin="round"/>
</svg>
