<svg width="136" height="80" viewBox="0 0 136 80" fill="none" xmlns="http://www.w3.org/2000/svg">
<path d="M98.2728 66.3228C100.408 66.3228 102.543 66.3352 104.678 66.3192C106.716 66.3039 107.7 65.4127 107.639 63.4721C107.57 61.2859 107.924 59.0919 107.399 56.9051C107.241 56.2482 107.674 55.5163 107.673 54.7753C107.652 38.856 107.657 22.9367 107.658 7.01742C107.658 6.09082 107.743 5.09869 107.183 4.32661C106.469 3.3408 105.453 2.85681 104.082 2.85939C85.3133 2.89465 66.5443 2.88134 47.7754 2.88508C44.9195 2.88565 43.7535 4.01346 43.7535 6.73229C43.7535 8.25295 43.9 9.78946 43.7223 11.2909C43.3779 14.2012 43.8997 17.0883 43.7792 19.9914C43.6611 22.8382 43.7535 25.6929 43.7535 28.5441C43.7535 31.4429 43.7535 34.3416 43.7535 37.2403C43.7535 40.0916 43.7535 42.9428 43.7535 45.794C43.7535 48.6927 43.7535 51.5915 43.7535 54.4902C43.7535 56.3922 43.5301 56.5577 41.5198 56.6435C39.9608 56.7101 38.2857 56.1843 36.9014 57.3414" stroke="#363636" stroke-width="1.5" stroke-linecap="round" stroke-linejoin="round"/>
<path d="M15.158 36.8109C16.1003 37.2437 17.0801 37.4054 18.1373 37.3965C22.5064 37.3598 26.8815 37.2554 31.2437 37.425C34.1854 37.5394 35.9191 35.867 36.0829 33.3847C36.3104 29.935 36.4009 26.4411 35.9888 22.985C35.7487 20.9711 34.2891 19.5987 31.6907 19.4456C29.4648 19.3144 27.2237 19.4227 24.9893 19.4168C23.7153 19.4134 22.9542 19.6738 22.3736 21.098C20.9398 24.6145 19.0612 27.9635 17.4011 31.3974C16.6542 32.9427 15.9159 34.5018 15.3432 36.1099C15.0559 36.9166 14.603 37.4471 13.8156 37.5C11.0339 37.687 8.23894 37.9965 5.47559 37.3098" stroke="#363636" stroke-width="1.5" stroke-linecap="round" stroke-linejoin="round"/>
<path d="M73.2507 66.1807C72.6052 66.2282 71.9597 66.3165 71.3142 66.3171C61.5822 66.3259 51.8501 66.326 42.1181 66.3171C41.4726 66.3165 40.8271 66.2282 40.1816 66.1807" stroke="#363636" stroke-width="1.5" stroke-linecap="round" stroke-linejoin="round"/>
<path d="M43.7607 56.0575C44.4681 56.5809 45.2862 56.6356 46.1441 56.6346C55.4789 56.6236 64.8137 56.6277 74.1485 56.6277C74.4961 56.6277 74.9114 56.508 75.1801 56.6473C76.8152 57.4952 77.9661 56.559 79.2195 55.7818C83.2546 53.2798 87.6505 53.3836 91.7213 55.4952C92.2506 55.7698 92.7147 56.1584 93.2163 56.4838C94.0061 56.9961 94.8061 57.4114 95.7536 56.7784C95.9104 56.6736 96.1459 56.6305 96.3434 56.6344C99.9678 56.7059 103.597 56.4573 107.218 56.7703" stroke="#363636" stroke-width="1.5" stroke-linecap="round" stroke-linejoin="round"/>
<path d="M18.288 57.7701C17.8916 59.299 16.5858 60.4278 16.325 62.043C16.107 63.3927 15.5972 64.6973 15.3307 66.0426C15.1669 66.8694 15.862 67.5361 16.0926 68.309C17.7537 73.8764 22.2492 76.8787 27.0789 77.1164C32.5859 77.3873 37.4598 73.9559 39.3226 68.6147C40.4978 65.2449 39.5052 62.4001 37.8429 59.4595C35.8669 55.9642 32.664 54.5829 28.8616 54.0814C25.5604 53.6461 22.5899 54.5144 20.0869 56.6419C19.2284 57.3715 18.4006 57.95 17.2522 57.3307C16.7947 57.084 16.3485 57.2128 15.9046 57.2102C12.6773 57.191 9.44969 57.2099 6.22233 57.1933C5.32833 57.1887 4.43477 57.1048 3.54102 57.0573" stroke="#363636" stroke-width="1.5" stroke-linecap="round" stroke-linejoin="round"/>
<path d="M76.6678 57.1978C76.0223 58.3858 75.2993 59.5416 74.7447 60.7673C72.3555 66.0482 73.5885 70.5081 77.8866 74.133C85.5513 80.5968 95.255 75.7256 97.3994 68.1818C98.3502 64.8372 97.4816 61.9592 95.6029 59.1829C95.235 58.6393 95.0891 57.9581 94.8408 57.3403" stroke="#363636" stroke-width="1.5" stroke-linecap="round" stroke-linejoin="round"/>
<path d="M43.1615 13.5762C42.8139 13.5286 42.4664 13.44 42.1188 13.4396C34.8198 13.4316 27.5207 13.4236 20.2217 13.4385C17.3062 13.4444 14.8629 16.0082 15.0081 18.8509" stroke="#363636" stroke-width="1.5" stroke-linecap="round" stroke-linejoin="round"/>
<path d="M90.2272 65.1819C89.6898 62.9123 88.0655 61.3002 86.2053 61.1902C83.6679 61.0402 82.076 62.0559 81.2896 64.3266C80.5585 66.4374 81.569 68.7093 83.8307 69.7261C85.4902 70.4721 87.9561 70.1134 89.3534 68.189C90.0024 67.2952 90.3529 66.3965 90.2272 65.3245" stroke="#363636" stroke-width="1.5" stroke-linecap="round" stroke-linejoin="round"/>
<path d="M3.3877 51.9226C5.0759 51.9226 6.76413 51.9267 8.45232 51.9215C10.6075 51.9149 11.7193 50.8488 11.7288 48.7862C11.7326 47.9784 11.7539 47.1697 11.7223 46.3629C11.6928 45.6062 11.4174 44.9381 10.5362 44.804C8.21737 44.4512 5.87872 44.4164 3.53665 44.5094" stroke="#363636" stroke-width="1.5" stroke-linecap="round" stroke-linejoin="round"/>
<path d="M22.6018 19.9892C21.7207 19.5156 20.7832 19.3622 19.7709 19.4066C18.2757 19.4723 16.7551 19.5103 15.3121 19.1035C14.5619 18.892 14.4612 19.3773 14.0991 19.6915C13.4525 20.2525 13.1613 21.0189 12.7941 21.7114C10.5127 26.0129 8.30272 30.3491 6.0661 34.6724C5.71385 35.3533 5.29772 36.0242 5.3391 36.8106C5.35623 37.1361 5.19601 37.3179 5.02305 37.523C3.359 39.4968 2.42372 41.6439 3.2333 44.2256C3.43768 44.8774 2.87815 45.4326 2.93583 46.0781C3.10115 47.9279 2.74029 49.7814 3.17648 51.6506C3.37944 52.5204 2.90842 53.5173 2.91949 54.4891C2.93571 55.9139 3.2226 57.3153 2.98751 58.7729C2.76294 60.1653 2.93413 61.617 2.94023 63.0426C2.94952 65.2121 4.10943 66.3486 6.36502 66.314C9.29458 66.2692 12.2288 66.4844 15.1538 66.1789" stroke="#363636" stroke-width="1.5" stroke-linecap="round" stroke-linejoin="round"/>
<path d="M114.656 37.312C116.891 37.3358 119.125 37.3737 121.359 37.3802C125.282 37.3914 129.205 37.3833 133.127 37.3833" stroke="#363636" stroke-width="1.5" stroke-linecap="round" stroke-linejoin="round"/>
<path d="M114.656 22.4854C117.933 22.5091 121.211 22.5217 124.488 22.5605C126.772 22.5875 129.061 22.4363 131.34 22.6992" stroke="#363636" stroke-width="1.5" stroke-linecap="round" stroke-linejoin="round"/>
<path d="M125.386 29.9692C121.86 29.9692 118.335 29.9692 114.81 29.9692" stroke="#363636" stroke-width="1.5" stroke-linecap="round" stroke-linejoin="round"/>
<path d="M39.289 44.9375C35.8663 44.6671 32.4368 44.8468 29.0107 44.7949" stroke="#363636" stroke-width="1.5" stroke-linecap="round" stroke-linejoin="round"/>
<path d="M27.0692 61.1898C25.324 61.6872 23.9019 62.4993 23.3338 64.3228C22.5928 66.7012 23.9826 69.4938 26.4825 69.9857C28.8167 70.4449 31.378 69.6863 32.124 66.6049C32.8792 63.4855 30.3835 61.0445 27.2181 61.1898" stroke="#363636" stroke-width="1.5" stroke-linecap="round" stroke-linejoin="round"/>
</svg>
