<svg width="68" height="80" viewBox="0 0 68 80" fill="none" xmlns="http://www.w3.org/2000/svg">
<path d="M55.9616 32.9321C55.9723 32.2512 55.9918 31.5703 55.9921 30.8894C55.9948 26.0381 56.0016 21.1868 55.9837 16.3356C55.9814 15.7095 56.2746 14.9249 55.3552 14.6121C55.2771 13.7198 54.4431 13.4297 53.935 12.904C51.8023 10.6973 49.6103 8.54798 47.44 6.37767C46.3335 5.27124 45.2712 4.11527 44.104 3.0771C43.4128 2.46226 42.6692 1.99449 41.5672 2.00005C29.7797 2.05955 17.9918 2.05251 6.20413 2.01696C4.77345 2.01265 3.25523 3.17048 3.26771 4.90952C3.26817 4.97335 3.26777 5.03719 3.26777 5.10102C3.26777 23.7827 3.27124 42.4644 3.26172 61.1461C3.26089 62.7845 4.17768 63.9724 5.62694 64.2861C5.84726 64.3338 6.05644 64.3333 6.26791 64.3334C15.7577 64.3384 25.2475 64.3377 34.7373 64.3377" stroke="#363636" stroke-width="1.5" stroke-linecap="round" stroke-linejoin="round"/>
<path d="M58.4817 60.2538C58.9809 59.4076 59.8067 58.8567 60.4133 58.0967C61.9748 56.1404 63.0082 53.9459 63.436 51.5044C63.7003 49.9957 63.6757 48.4514 63.4701 46.9115C62.8785 42.4805 60.6425 39.0788 57.0055 36.5836C54.907 35.1438 52.5269 34.4254 49.9922 34.2078C47.4098 33.9862 44.945 34.4526 42.5898 35.4921C39.7525 36.7442 37.5894 38.7608 36.0108 41.422C35.0231 43.087 34.4187 44.8974 34.1177 46.7883C33.8648 48.3773 33.9579 49.9792 34.2783 51.5747C34.8949 54.6454 36.3373 57.2485 38.5684 59.4214C40.7303 61.5269 43.3082 62.8051 46.2883 63.3257C50.5267 64.0662 54.3344 63.1014 57.7822 60.5765C57.9722 60.4373 58.1497 60.2493 58.4179 60.2538" stroke="#363636" stroke-width="1.5" stroke-linecap="round" stroke-linejoin="round"/>
<path d="M46.6753 24.6987C46.474 24.8339 46.2485 24.7582 46.037 24.7583C34.7812 24.7631 23.5254 24.7626 12.2695 24.7626" stroke="#363636" stroke-width="1.5" stroke-linecap="round" stroke-linejoin="round"/>
<path d="M43.3572 2.74023C43.1217 3.0193 43.0992 3.35142 43.0997 3.69773C43.1036 6.44253 43.1208 9.18752 43.0939 11.9321C43.0805 13.299 44.1849 14.9381 46.0387 14.8879C48.8028 14.813 51.5703 14.8655 54.3364 14.8722C54.6741 14.8731 54.9942 14.838 55.2939 14.6769" stroke="#363636" stroke-width="1.5" stroke-linecap="round" stroke-linejoin="round"/>
<path d="M31.7977 31.4346C31.67 31.4452 31.5424 31.4651 31.4147 31.4652C25.2017 31.4667 18.9886 31.4667 12.7756 31.4652C12.6479 31.4651 12.5202 31.4452 12.3926 31.4346" stroke="#363636" stroke-width="1.5" stroke-linecap="round" stroke-linejoin="round"/>
<path d="M27.1356 17.9326C22.2418 17.9326 17.3479 17.9326 12.4541 17.9326" stroke="#363636" stroke-width="1.5" stroke-linecap="round" stroke-linejoin="round"/>
<path d="M58.4844 60.3174C59.1347 61.2552 59.4428 62.3502 59.8861 63.3825C61.1913 66.422 62.4859 69.4661 63.7799 72.5105C63.8848 72.7574 64.0363 73.0253 64.0208 73.2744C63.9863 73.8292 64.287 73.9868 64.74 74.0414" stroke="#363636" stroke-width="1.5" stroke-linecap="round" stroke-linejoin="round"/>
<path d="M39.1998 60.3174C38.5563 61.4073 38.1626 62.6085 37.6706 63.7655C36.9577 65.4419 36.2682 67.1282 35.5598 68.8065C34.9927 70.1501 34.4019 71.4838 33.8493 72.8333C33.7672 73.0337 33.8378 73.2967 33.8378 73.5307" stroke="#363636" stroke-width="1.5" stroke-linecap="round" stroke-linejoin="round"/>
<path d="M48.7763 63.7007C48.7763 63.8922 48.7472 64.0891 48.7819 64.2741C48.8725 64.7563 48.8089 65.1271 48.4836 65.5712C47.8356 66.4558 47.5563 67.5508 47.1335 68.559C46.3587 70.4062 45.622 72.2695 44.822 74.1068C44.4829 74.8855 44.2631 75.7293 43.8331 76.4505C43.5291 76.9601 43.3439 77.4246 43.4143 77.9992" stroke="#363636" stroke-width="1.5" stroke-linecap="round" stroke-linejoin="round"/>
<path d="M48.9043 65.2964C49.6315 65.8108 49.6997 66.6927 50.0328 67.4123C50.6976 68.8485 51.2306 70.3451 51.8446 71.8057C52.4649 73.2814 53.1382 74.7351 53.7396 76.2183C53.8753 76.553 54.0507 76.7884 54.3301 76.9778" stroke="#363636" stroke-width="1.5" stroke-linecap="round" stroke-linejoin="round"/>
<path d="M56.4448 43.5625C56.1195 43.6762 55.9108 43.9379 55.6792 44.1693C52.9338 46.9135 50.1876 49.6569 47.4478 52.4067C47.2459 52.6093 47.0919 52.8597 46.8861 53.065C46.4948 52.8916 46.266 52.7101 46.0305 52.4768C44.6195 51.079 43.3283 49.5617 41.8271 48.2542" stroke="#363636" stroke-width="1.5" stroke-linecap="round" stroke-linejoin="round"/>
<path d="M54.3281 77.9999C54.3318 77.4663 54.2872 76.9585 54.7558 76.5117C55.0692 76.2129 55.2023 75.7241 55.4129 75.3187C56.0097 74.1702 56.6167 73.0269 57.1944 71.8688C57.4085 71.4396 57.6403 71.3531 58.0988 71.5417C59.6187 72.1669 61.161 72.7374 62.6884 73.3447C63.1039 73.5098 63.5193 73.6202 63.9669 73.5954" stroke="#363636" stroke-width="1.5" stroke-linecap="round" stroke-linejoin="round"/>
<path d="M43.3513 76.9455C42.745 76.5385 42.6086 75.8305 42.2642 75.255C41.618 74.1754 41.1514 73.0029 40.5031 71.9201C40.2022 71.4176 40.013 71.4189 39.5145 71.5963C37.9271 72.161 36.4129 72.9122 34.8035 73.421C34.6131 73.4812 34.4038 73.5931 34.2246 73.5779C33.8846 73.5491 33.6178 73.6642 33.4714 73.9215C33.3469 74.1402 33.1986 73.9887 33.0742 74.0411" stroke="#363636" stroke-width="1.5" stroke-linecap="round" stroke-linejoin="round"/>
</svg>
