<svg width="78" height="81" viewBox="0 0 78 81" fill="none" xmlns="http://www.w3.org/2000/svg">
<path d="M9.45208 43.2569C8.9899 41.894 8.52062 40.5916 8.10754 39.2716C7.92866 38.7 7.61313 38.3157 7.11958 37.9807C2.62266 34.9284 1.41535 28.5493 4.51418 24.0846C6.3339 21.4628 8.86715 20.0247 12.0663 19.8181C12.3369 19.8006 12.5624 19.7117 12.7828 19.5683C19.6587 15.0933 26.5344 10.6179 33.4162 6.15203C33.7842 5.91322 34.0414 5.60061 34.2848 5.25198C35.8064 3.07253 38.4854 2.07848 41.2289 2.6666C43.7813 3.21376 45.8534 5.27322 46.2053 7.87359C46.3668 9.06685 46.8703 9.92221 47.6477 10.7809C51.6472 15.1984 55.6006 19.6579 59.5644 24.1077C59.9853 24.5802 60.3739 25.0819 60.7697 25.5763C61.0854 25.9708 61.0594 26.3382 60.6803 26.6918C60.2386 27.1038 59.7452 27.4665 59.3499 28.0165C60.4778 29.2836 61.5602 30.5774 62.7273 31.7892C63.9443 33.0528 64.722 34.485 64.8816 36.25C65.005 37.6145 64.6058 38.9007 64.3194 40.1971C63.7034 42.9865 63.0237 45.7618 62.3736 48.5437C62.2591 49.0336 62.102 49.4452 61.467 49.3862C61.0966 49.3518 61.0258 49.6483 60.956 49.9369C60.6915 51.0291 60.4176 52.1191 60.1461 53.2096C60.0437 53.621 59.8988 54.0275 59.3611 53.8788C58.8285 53.7315 58.9134 53.3117 59.0181 52.9004C59.2898 51.8334 59.5425 50.7614 59.8231 49.6968C59.9036 49.3915 59.9579 49.148 59.5701 49.0344C58.9813 48.8621 58.9396 48.4604 59.067 47.9271C59.8336 44.7168 60.5238 41.4869 61.3591 38.295C61.7265 36.8908 61.4329 35.738 60.5512 34.71C59.3314 33.2878 58.0429 31.9247 56.8139 30.5696C56.694 30.5793 56.6355 30.5659 56.6051 30.5892C55.6233 31.3408 55.6183 31.3471 54.7262 30.5028C49.8535 25.8912 44.9761 21.2845 40.1238 16.6515C39.5976 16.1491 39.2741 16.0967 38.6849 16.5816C33.6689 20.7093 28.6279 24.8066 23.5791 28.8939C23.0119 29.3531 22.6055 29.8175 22.7284 30.5973C22.7526 30.7514 22.7046 30.9269 22.6548 31.0811C22.2665 32.2835 22.5327 33.3433 23.0661 34.488C27.129 43.2077 31.1295 51.9566 35.1271 60.7067C35.3739 61.247 35.6776 61.4528 36.2464 61.4086C37.7067 61.295 39.0499 61.5579 40.0847 62.7162C40.3589 63.0231 40.5901 62.8075 40.8157 62.6413C42.8162 61.1668 44.8151 59.6903 46.8141 58.2139C46.8706 58.1721 46.9271 58.1292 46.9777 58.0806C48.5903 56.5352 50.4667 56.0865 52.7176 56.131C59.7929 56.2708 66.8728 56.1823 73.9508 56.1824C75.1095 56.1824 75.1944 56.2656 75.1963 57.4188C75.1984 58.6401 75.1784 59.8619 75.2069 61.0825C75.2185 61.5816 75.037 61.9135 74.6556 62.218C69.7257 66.1538 64.8038 70.0997 59.881 74.0442C58.2157 75.3786 56.5469 76.7089 54.8943 78.059C54.5275 78.3586 54.1506 78.5004 53.6781 78.5C45.2876 78.4921 36.897 78.4949 28.5064 78.4914C27.5466 78.491 27.429 78.3622 27.4269 77.3806C27.4244 76.2063 27.4619 75.0307 27.4177 73.858C27.3857 73.0105 27.4187 72.2474 28.3642 71.769C27.9927 71.769 27.6213 71.7687 27.2499 71.769C22.164 71.7729 17.0781 71.7774 11.9922 71.7805C10.7536 71.7812 10.7009 71.726 10.7002 70.4543C10.6993 68.8102 10.6961 67.166 10.7014 65.522C10.709 63.129 12.2858 61.5418 14.652 61.5311C14.9485 61.5298 15.2546 61.5757 15.6561 61.4117C13.5863 55.3574 11.5271 49.3339 9.45208 43.2569ZM26.5638 61.5261C29.0538 61.4824 31.5438 61.4387 34.1434 61.393C29.9709 52.3078 25.8582 43.3529 21.7358 34.3769C18.8146 39.176 14.6739 40.6939 9.3992 39.2687C9.32726 39.5776 9.463 39.7861 9.53663 40.0018C11.9134 46.9654 14.2998 53.9256 16.6652 60.893C16.8296 61.3773 17.0596 61.5458 17.5672 61.5418C20.5191 61.5187 23.4712 61.5281 26.5638 61.5261ZM31.314 71.1368C30.8947 71.4616 30.4753 71.7864 30.0398 72.1236C30.2692 72.3217 30.4877 72.2519 30.6872 72.2519C38.1866 72.2525 45.686 72.2451 53.1854 72.2549C53.6659 72.2556 54.0227 72.0974 54.3914 71.8084C60.2959 67.1804 66.2102 62.5648 72.1188 57.942C72.2874 57.81 72.5231 57.7149 72.5685 57.4138C72.3721 57.3992 72.2125 57.377 72.0528 57.3769C64.8815 57.3729 57.7102 57.3727 50.5389 57.3637C50.1432 57.3632 49.8234 57.4776 49.5049 57.713C43.4718 62.1723 37.4325 66.6232 31.314 71.1368ZM37.7054 15.4684C37.537 15.3876 37.3692 15.3055 37.2001 15.226C34.8311 14.1127 33.4483 12.3054 33.1568 9.65353C33.096 9.10027 33.3801 8.50291 32.9813 7.85208C26.7951 11.8659 20.668 15.8414 14.454 19.8733C18.9476 20.9117 21.6103 23.6664 22.7138 28.0499C24.3246 26.7401 25.8145 25.5291 27.3037 24.3174C30.5755 21.6553 33.8513 18.9979 37.1106 16.3205C37.3696 16.1077 37.7887 15.9741 37.7054 15.4684ZM21.4366 31.5078C21.5652 30.6079 21.6629 29.7262 21.5575 28.795C21.0845 24.6177 17.6124 21.2042 13.4068 20.9133C7.61493 20.5126 3.25489 25.6788 4.01131 30.867C4.64283 35.1986 8.39429 38.6324 12.775 38.6978C16.8546 38.7587 20.5468 35.7319 21.4366 31.5078ZM14.6617 62.623C12.8866 62.725 11.8734 63.7916 11.8707 65.5699C11.8686 66.908 11.8738 68.2461 11.8778 69.5842C11.8809 70.6107 11.8824 70.6113 12.8843 70.609C17.6867 70.5982 22.4902 70.5216 27.2908 70.6085C29.173 70.6425 30.7423 70.3083 32.2388 69.0456C34.312 67.2963 36.5867 65.7872 38.771 64.1697C39.3542 63.7378 39.343 63.5805 38.7658 63.1228C38.2875 62.7434 37.756 62.5727 37.1404 62.5745C29.691 62.5966 22.2415 62.6082 14.6617 62.623ZM41.8931 15.3742C41.588 15.472 41.2591 15.5138 40.9863 15.7513C41.0556 16.002 41.2517 16.1364 41.4188 16.294C44.1989 18.9155 46.9809 21.5349 49.757 24.1605C51.5624 25.8679 53.3582 27.5853 55.1606 29.2959C55.3916 29.5151 55.6073 29.8328 55.9767 29.4831C57.1817 28.3422 58.3889 27.2036 59.6785 25.9854C55.1688 20.9403 50.7037 15.9451 46.1688 10.8719C45.3925 13.0931 44.104 14.6134 41.8931 15.3742ZM34.299 73.4582C32.5886 73.4575 30.878 73.467 29.1678 73.4494C28.6938 73.4445 28.4877 73.5952 28.5045 74.097C28.5336 74.9648 28.5277 75.8346 28.5071 76.7029C28.4962 77.1632 28.6828 77.3273 29.1323 77.318C30.0925 77.2981 31.0535 77.3112 32.0141 77.3115C38.9028 77.3133 45.7914 77.3097 52.68 77.3276C53.2607 77.3291 53.4833 77.1497 53.4531 76.561C53.4157 75.8351 53.4456 75.1057 53.445 74.3778C53.4443 73.4621 53.4436 73.4576 52.5048 73.4575C46.4831 73.4565 40.4614 73.4577 34.299 73.4582ZM34.95 6.42978C33.8859 8.50698 33.9985 10.5209 35.4217 12.3687C36.7734 14.1236 38.5839 14.8384 40.8038 14.465C43.8038 13.9603 45.9039 10.6859 45.037 7.73813C44.2903 5.19935 42.4919 3.81413 39.909 3.65216C37.7908 3.51932 36.1225 4.49982 34.95 6.42978ZM67.9151 66.0927C69.7258 64.6435 71.539 63.1975 73.3444 61.7418C73.5925 61.5417 73.9625 61.3918 73.9737 61.0269C74.0034 60.0597 73.9837 59.091 73.9837 58.0104C73.6693 58.2354 73.476 58.3636 73.2936 58.5058C69.5983 61.3859 65.8996 64.2617 62.2115 67.151C59.8329 69.0144 57.4686 70.8962 55.1023 72.7753C54.8503 72.9754 54.5436 73.1608 54.5407 73.5405C54.533 74.5658 54.5381 75.5911 54.5381 76.8007C59.0684 73.1752 63.4534 69.6661 67.9151 66.0927ZM63.7123 37.2335C63.8549 35.4859 63.239 34.0372 62.0451 32.7783C60.9982 31.6743 59.9973 30.5257 58.9968 29.3786C58.6813 29.0169 58.4522 28.8007 57.9793 29.2103C57.4914 29.633 57.7868 29.8635 58.0643 30.1683C59.1676 31.3802 60.3311 32.5369 61.3644 33.813C62.5086 35.226 63.0227 36.7525 62.451 38.5794C62.0959 39.7141 61.8785 40.8925 61.6117 42.0542C61.5339 42.393 61.4195 42.774 61.9217 42.91C62.3927 43.0376 62.5493 42.7421 62.6341 42.3619C63.0053 40.6981 63.4688 39.0543 63.7123 37.2335ZM62.0063 45.1285C62.0167 45.0589 62.0183 44.9865 62.0391 44.9201C62.1556 44.548 62.2918 44.1826 61.7295 44.0389C61.1774 43.8979 61.1011 44.2919 61.0162 44.6589C60.8054 45.5699 60.6185 46.4865 60.4045 47.3967C60.3289 47.7182 60.2564 48.0109 60.6862 48.1143C61.0985 48.2135 61.2907 47.9965 61.3818 47.623C61.5758 46.8278 61.7785 46.0348 62.0063 45.1285Z" fill="#363636"/>
<path d="M70.131 51.2583C70.0659 51.681 69.7609 51.7776 69.4831 51.8965C67.244 52.8552 65.004 53.8118 62.7633 54.7669C62.3607 54.9385 61.9061 55.1133 61.6833 54.5705C61.4794 54.0737 61.8868 53.8691 62.272 53.705C64.5344 52.7415 66.7933 51.7699 69.0609 50.8189C69.4982 50.6355 69.9964 50.4537 70.131 51.2583Z" fill="#363636"/>
<path d="M51.4259 52.1097C50.9996 51.8567 50.6192 51.6277 50.2366 51.4023C49.8602 51.1806 49.4397 50.9315 49.751 50.4277C50.0608 49.9262 50.4877 50.2035 50.8545 50.4139C52.1722 51.1697 53.4851 51.934 54.8006 52.6936C55.1852 52.9157 55.572 53.1339 55.9585 53.3525C56.352 53.5752 56.8343 53.8048 56.5141 54.3561C56.1956 54.9044 55.7401 54.5979 55.3565 54.379C54.0575 53.6376 52.7655 52.8841 51.4259 52.1097Z" fill="#363636"/>
<path d="M56.6247 48.3515C57.0693 48.3403 57.2492 48.566 57.3446 48.9243C57.6681 50.1397 57.9975 51.3538 58.3454 52.5623C58.4563 52.9478 58.4613 53.2905 58.0357 53.4219C57.5828 53.5618 57.3534 53.2779 57.2394 52.8612C56.9072 51.6473 56.5743 50.4335 56.2245 49.2247C56.1096 48.8276 56.169 48.5368 56.6247 48.3515Z" fill="#363636"/>
<path d="M8.9966 27.5848C10.1281 25.5815 12.8731 24.8406 14.9216 25.9739C16.5257 26.8613 17.3547 28.5754 17.1041 30.4851C16.8932 32.0919 15.5911 33.5529 13.9359 33.9806C12.16 34.4395 10.6179 33.9707 9.45886 32.5642C8.2217 31.0629 8.11762 29.3773 8.9966 27.5848ZM15.886 30.5714C16.0663 30.0197 16.0414 29.4725 15.8823 28.9177C15.5119 27.6252 14.2896 26.666 12.8624 26.565C11.7369 26.4853 10.3609 27.3832 9.85482 28.5277C9.31734 29.7431 9.60626 31.1155 10.5982 32.0588C12.3549 33.7293 14.8177 33.083 15.886 30.5714Z" fill="#363636"/>
<path d="M40.6089 6.37004C42.0203 6.96952 42.6755 7.97939 42.5714 9.33687C42.4796 10.5339 41.6577 11.4747 40.3967 11.7917C39.3178 12.063 38.3901 11.7291 37.6667 10.9303C36.8449 10.0229 36.7827 8.93316 37.209 7.83587C37.6068 6.81193 38.4482 6.34422 39.5127 6.27947C39.8582 6.25846 40.2089 6.32308 40.6089 6.37004ZM41.0515 8.03481C40.8907 7.90043 40.7435 7.74402 40.5668 7.63557C39.8829 7.21553 39.0771 7.33977 38.5267 7.9335C37.992 8.51034 37.9319 9.27432 38.3693 9.93392C38.8711 10.6906 39.8173 10.9205 40.5885 10.4731C41.4141 9.99415 41.6271 9.04159 41.0515 8.03481Z" fill="#363636"/>
</svg>
