<svg width="60" height="50" viewBox="0 0 60 50" fill="none" xmlns="http://www.w3.org/2000/svg">
<path d="M35.8074 4.73435C36.6112 3.93646 37.3661 3.16825 38.1426 2.42241C38.736 1.85237 39.1759 1.85835 39.7705 2.44599C40.798 3.46147 41.8155 4.48726 42.823 5.52262C43.4883 6.20635 43.4653 6.65086 42.7818 7.33216C34.5962 15.4918 26.4105 23.6515 18.2279 31.8142C17.99 32.0515 17.727 32.2625 17.5961 32.6039C17.012 34.1269 17.6616 35.1267 19.2807 35.1275C28.8427 35.1325 38.4047 35.1298 47.9667 35.1305C49.3908 35.1306 49.4304 35.172 49.428 36.5902C49.4272 37.0894 49.4267 37.5885 49.4244 38.0876C49.419 39.2767 49.2623 39.4342 48.0444 39.448C47.3615 39.4558 46.6785 39.4513 45.9955 39.4513C36.9326 39.4512 27.8697 39.4527 18.8069 39.4496C15.5939 39.4485 13.5857 37.4588 13.5678 34.2541C13.5566 32.2577 13.5708 30.2611 13.5694 28.2646C13.5689 27.523 13.7972 26.9011 14.3383 26.3573C19.5076 21.1632 24.6625 15.9548 29.8233 10.7522C31.8024 8.75707 33.7861 6.76639 35.8074 4.73435ZM16.9608 25.5373C16.4675 26.0464 15.9972 26.5807 15.4745 27.0576C14.9262 27.5578 14.7344 28.1321 14.7522 28.8734C14.797 30.737 14.7585 32.6026 14.7702 34.4673C14.7841 36.6655 16.417 38.282 18.6166 38.2824C28.124 38.2843 37.6314 38.2828 47.1389 38.2821C47.3489 38.2821 47.5592 38.2812 47.769 38.2729C48.001 38.2637 48.1485 38.165 48.2199 37.9197C48.5341 36.8399 48.1851 36.3564 47.0691 36.3564C37.7455 36.3559 28.422 36.3561 19.0984 36.3553C18.7833 36.3553 18.4657 36.3703 18.1536 36.3374C16.8968 36.205 16.3329 35.5195 16.2224 34.2734C16.084 32.7126 16.4569 31.4216 17.7977 30.5007C17.9682 30.3836 18.1009 30.211 18.2494 30.0624C25.6925 22.6138 33.136 15.1655 40.5771 7.71498C40.9806 7.31097 41.3647 6.88758 41.7723 6.45796C41.1146 5.58241 40.3609 4.89036 39.629 4.18001C38.8963 3.46891 38.8815 3.46928 38.1337 4.21523C36.5352 5.80974 34.9422 7.40988 33.3519 9.01257C27.9133 14.4934 22.4769 19.9763 16.9608 25.5373Z" fill="#363636"/>
<path d="M1.88866 43.3894C1.88893 42.7592 1.91092 42.2065 1.88407 41.6562C1.85075 40.9731 2.19201 40.6987 2.82963 40.6962C3.01347 40.6954 3.19732 40.6921 3.38117 40.6921C18.2479 40.6914 33.1146 40.6908 47.9813 40.6909C49.2524 40.6909 49.4313 40.8744 49.4304 42.1558C49.4293 43.653 49.43 45.1502 49.4281 46.6474C49.4267 47.798 49.2354 48 48.1225 48C33.1244 47.9996 18.1263 47.9982 3.12828 47.995C2.02935 47.9947 1.89339 47.8562 1.88975 46.7777C1.88604 45.6744 1.88877 44.5712 1.88866 43.3894ZM30.7139 41.9633C21.757 41.9604 12.8001 41.9637 3.84332 41.9409C3.23604 41.9394 3.06811 42.1299 3.08918 42.7043C3.12572 43.7012 3.14524 44.703 3.08483 45.6975C3.03783 46.4712 3.32097 46.6743 4.06991 46.6699C9.13918 46.6401 14.2087 46.6519 19.2781 46.6517C28.629 46.6514 37.9798 46.6463 47.3306 46.6644C48.0074 46.6657 48.2788 46.477 48.2476 45.7732C48.201 44.7246 48.2102 43.6715 48.2457 42.622C48.2654 42.0427 48.0293 41.9374 47.4981 41.9396C41.956 41.9627 36.4137 41.9593 30.7139 41.9633Z" fill="#363636"/>
<path d="M8.01452 32.2894C8.1608 32.4106 8.2621 32.4941 8.36132 32.5799C8.67049 32.8475 8.71538 33.1835 8.47016 33.4812C8.22553 33.7782 7.89653 33.6814 7.62117 33.4789C6.43778 32.6087 5.25814 31.7334 4.08017 30.8559C3.51229 30.4328 2.95085 30.0011 2.38712 29.5725C2.26197 29.4774 2.13585 29.383 2.01649 29.2808C1.69038 29.0018 1.60329 28.6326 1.84344 28.2995C2.11228 27.9266 2.45376 28.1329 2.73782 28.3443C3.87356 29.1896 5.00408 30.0419 6.13765 30.8901C6.7468 31.3459 7.3582 31.7987 8.01452 32.2894Z" fill="#363636"/>
<path d="M6.83141 35.3257C7.95595 35.3287 9.00212 35.319 10.0476 35.3412C10.4724 35.3502 10.9516 35.4112 10.9418 35.9848C10.933 36.5057 10.4819 36.5816 10.0841 36.5846C8.28014 36.5984 6.47599 36.5942 4.67201 36.5828C4.28351 36.5803 3.94669 36.4761 3.91823 35.9779C3.88763 35.442 4.26888 35.3777 4.63573 35.3589C5.34012 35.3228 6.04694 35.3341 6.83141 35.3257Z" fill="#363636"/>
<path d="M6.74219 26.9453C6.97217 26.186 7.40326 26.0413 7.81343 26.5923C9.03321 28.2309 10.2114 29.9005 11.3975 31.564C11.6258 31.8842 11.6203 32.2228 11.272 32.4569C10.9564 32.6689 10.6569 32.5558 10.4513 32.2653C9.21234 30.5148 7.87149 28.8358 6.74219 26.9453Z" fill="#363636"/>
</svg>
