<svg width="60" height="50" viewBox="0 0 60 50" fill="none" xmlns="http://www.w3.org/2000/svg">
<path d="M15.7689 2.18812C15.6416 2.31546 15.5991 4.42355 15.5991 10.8186C15.5991 19.0245 15.6133 19.2792 15.8679 19.4207C16.0236 19.4914 16.9149 19.5622 17.8487 19.5622H19.5606V24.4716L19.5748 29.3952L21.315 31.2911C22.2771 32.3381 23.1826 33.2435 23.3241 33.3001C23.4655 33.3426 23.7061 33.3426 23.8334 33.2718C23.9607 33.2011 24.8379 32.3098 25.7717 31.2911L27.4836 29.4235V24.4292V19.4348L29.5068 19.3924L31.5159 19.35L31.5583 10.8752C31.5725 4.73481 31.5442 2.34376 31.431 2.21642C31.2046 1.94761 16.0377 1.91931 15.7689 2.18812ZM30.5963 10.762V18.5011L23.5929 18.5577L16.5895 18.6001V10.8044V3.00872H23.5929H30.5963V10.762ZM25.899 29.7348C25.5736 30.0885 24.9087 30.81 24.4276 31.3335L23.5363 32.2815L22.0507 30.6403L20.551 28.9991V24.2877V19.5622L23.4938 19.5339L26.4225 19.4914L26.465 24.2877L26.4933 29.0698L25.899 29.7348Z" fill="#363636"/>
<path d="M2.11613 20.5099C2.05953 20.5524 2.01709 21.5711 2.01709 22.7454C2.01709 24.3017 2.07368 24.9383 2.20102 25.0515C2.28591 25.1364 3.12065 25.2213 4.02614 25.2496C5.42682 25.2779 5.73808 25.3345 6.07764 25.5892C6.28986 25.7448 8.70921 28.6169 11.454 31.9559C14.1987 35.2949 16.8586 38.4782 17.3679 39.0442C18.4573 40.2326 19.6458 41.0532 20.7918 41.4211C21.2446 41.5625 21.7256 41.704 21.8671 41.7606C22.0086 41.8031 18.1885 41.8314 13.3923 41.8031C6.91238 41.7748 4.62037 41.8031 4.47888 41.9304C4.21007 42.1426 4.18177 47.5614 4.45059 47.8302C4.57792 47.9576 9.03462 48 23.6215 48C42.2547 48 42.6084 48 42.764 47.7312C42.8489 47.5614 42.9055 46.373 42.9055 44.8449C42.9055 42.4822 42.8772 42.2275 42.6367 42.0011C42.3962 41.7748 41.7029 41.7606 33.7374 41.8031C28.9978 41.8314 25.1353 41.8031 25.1636 41.7606C25.1919 41.704 25.4607 41.6333 25.7437 41.5767C26.4935 41.4635 27.9791 40.7278 28.8846 40.0345C29.3939 39.6384 30.8937 37.8981 33.3413 34.8421C39.1845 27.5416 40.6418 25.7872 41.1228 25.4901C41.4907 25.2638 41.8302 25.2213 43.1319 25.2213C45.2258 25.2213 45.1692 25.2921 45.1692 22.7312C45.1692 21.373 45.1126 20.6939 44.9995 20.5807C44.8863 20.4675 44.193 20.4109 42.8206 20.4109C40.4437 20.4109 39.425 20.6656 38.3073 21.5145C37.8546 21.854 35.7465 24.3441 32.4075 28.4754C26.4087 35.9032 25.8427 36.5541 25.1495 36.8795C24.4421 37.219 23.2536 37.3181 22.5886 37.1058C21.7256 36.8229 21.2304 36.3843 19.377 34.163C16.9435 31.2343 11.5247 24.6129 10.7607 23.5943C9.50151 21.9389 8.25646 21.0193 6.75675 20.6373C5.90786 20.4109 2.30005 20.3119 2.11613 20.5099ZM7.33683 21.854C7.73298 22.0662 8.25646 22.4058 8.49698 22.6039C8.75165 22.8161 11.3691 25.957 14.3402 29.579C17.3113 33.2151 19.9995 36.4692 20.3249 36.7946C21.8671 38.4216 24.3996 38.6904 26.1681 37.403C26.7058 37.0068 28.8563 34.4318 34.9118 26.9191C38.3498 22.6605 38.6893 22.2926 39.7222 21.8116C40.5145 21.4296 40.6842 21.4013 42.382 21.4013H44.1789V22.8161V24.2309H42.8065C40.9106 24.2451 40.5286 24.429 39.2128 26.0278C38.6327 26.7069 36.1002 29.8336 33.596 32.9746C29.2383 38.4075 28.2762 39.4545 27.1585 40.0345C24.2723 41.5201 20.6928 41.0391 18.4998 38.8744C18.1036 38.4782 16.5473 36.639 15.0335 34.7714C10.2231 28.8291 7.77542 25.8721 7.09631 25.2072C6.3323 24.4432 5.66734 24.2309 4.04029 24.2309H2.93673V22.802V21.373L4.776 21.4296C6.43134 21.472 6.68601 21.5145 7.33683 21.854ZM41.7737 44.8874V47.0096H23.5224H5.27119V44.8874V42.7651H23.5224H41.7737V44.8874Z" fill="#363636"/>
</svg>
