<svg width="60" height="50" viewBox="0 0 60 50" fill="none" xmlns="http://www.w3.org/2000/svg">
<path d="M48.6857 31.2419C44.107 35.2237 39.5604 39.1696 35.0244 43.1277C34.6638 43.4424 34.2943 43.5717 33.8207 43.5698C30.5309 43.5565 27.241 43.5635 23.9511 43.5634C23.7955 43.5634 23.6381 43.5723 23.4849 43.5519C23.1757 43.5107 22.9163 43.3932 22.9231 43.0212C22.9302 42.634 23.2058 42.5516 23.5184 42.5488C24.3631 42.5411 25.2078 42.5421 26.0525 42.5419C28.4088 42.5412 30.7652 42.5292 33.1212 42.5512C33.6525 42.5562 33.8654 42.4251 33.8569 41.8468C33.8314 40.1146 33.8541 40.1417 32.1406 40.1048C29.1395 40.0403 26.1435 40.2549 23.1437 40.2325C22.9216 40.2309 22.6972 40.2428 22.4779 40.2159C22.1611 40.1769 22.0126 39.9482 22.0218 39.6571C22.0307 39.3728 22.2326 39.2326 22.5133 39.2171C22.6241 39.211 22.7354 39.2108 22.8465 39.2094C26.4454 39.1658 30.0443 39.116 33.6434 39.087C34.0729 39.0836 34.3992 38.9586 34.7221 38.6805C39.0485 34.9553 43.3835 31.2402 47.7151 27.5212C47.7597 27.483 47.788 27.4258 47.8597 27.3293C46.9806 27.2462 46.1495 27.2515 45.3133 27.2499C41.2464 27.2418 37.1796 27.2036 33.1129 27.1607C32.5695 27.1549 32.1434 27.167 32.1594 27.8968C32.1663 28.2141 31.9423 28.4638 31.572 28.5195C31.1563 28.582 30.7414 28.7468 30.3318 28.73C29.7158 28.7047 29.5489 29.0412 29.4022 29.5356C28.6647 32.0211 27.3318 34.136 25.4069 35.8806C22.5896 38.4339 19.2186 38.9397 15.7822 37.3075C15.5815 37.2122 15.3866 37.1031 15.1811 37.0198C13.6398 36.3952 12.6623 35.2505 12.1019 33.7122C12.0118 33.4649 11.8854 33.2308 11.7172 32.8623C9.16926 34.8315 6.75975 36.8546 4.37431 38.9071C4.39336 38.9626 4.41241 39.018 4.43146 39.0734C5.26776 39.0734 6.10406 39.0732 6.94036 39.0734C8.1185 39.0737 9.29668 39.0684 10.4747 39.0784C10.7894 39.081 11.2089 38.9812 11.2329 39.4882C11.2573 40.0035 10.8351 40.0284 10.4856 40.0344C8.4857 40.0689 6.48547 40.0833 4.48535 40.1042C4.28531 40.1063 4.08507 40.1007 3.8852 40.1073C3.03696 40.1355 2.97509 40.1998 2.98116 41.0274C2.99225 42.5413 2.99225 42.5413 4.49653 42.5415C5.31901 42.5416 6.14151 42.5461 6.96393 42.5398C7.32253 42.5371 7.68827 42.5776 7.70567 43.0124C7.72331 43.453 7.31081 43.5371 6.9937 43.5496C6.15058 43.5826 5.30512 43.556 4.46059 43.5531C4.26053 43.5524 4.06047 43.5525 3.86042 43.5511C1.8319 43.5362 2.22278 43.6908 1.99151 41.7378C1.8142 40.2404 2.25868 39.1538 3.5073 38.1997C6.02996 36.2722 8.42446 34.1776 10.8915 32.1761C11.3202 31.8283 11.5133 31.4588 11.4301 30.923C11.0598 28.5379 11.5738 26.254 12.2316 23.987C12.2675 23.8631 12.3021 23.7387 12.3484 23.5757C11.6891 23.2051 10.9835 23.0103 10.3012 22.7646C9.81373 22.589 9.5891 22.3108 9.85223 21.8067C10.6446 20.2888 11.4467 18.7742 12.5728 17.4677C13.9945 15.8184 15.8427 14.788 17.8648 14.127C18.9723 13.7649 20.1903 13.7843 21.3558 14.0396C22.2044 14.2254 22.9246 14.0908 23.6863 13.6227C29.4215 10.0984 35.2285 6.68868 40.9125 3.08456C43.3375 1.54691 46.0527 1.71742 47.7221 3.13482C49.0778 4.28589 49.8338 5.79061 50.2051 7.51297C50.625 9.46094 49.8525 10.9328 48.3945 12.1355C45.6864 14.3692 42.8797 16.4759 40.0784 18.5897C37.6666 20.4096 35.2598 22.236 32.8517 24.0607C32.435 24.3764 32.1423 25.5401 32.378 25.9676C32.5295 26.2422 32.8097 26.151 33.04 26.1515C35.3518 26.1566 37.6661 26.0844 39.9748 26.168C42.9056 26.2742 45.8358 26.2597 48.7663 26.2827C49.3855 26.2876 49.6969 26.476 49.7051 27.1708C49.7112 27.6962 49.7658 28.2326 49.8202 28.76C49.9281 29.8065 49.6481 30.6443 48.6857 31.2419ZM43.8088 2.9572C42.9874 3.10681 42.2462 3.44189 41.5538 3.90399C40.7782 4.42169 39.9968 4.93122 39.2085 5.42946C34.5899 8.34872 29.8488 11.065 25.1728 13.8893C24.8414 14.0895 24.4658 14.2418 24.2086 14.6586C28.2742 16.1655 31.1123 18.815 32.2398 23.0243C32.55 23.004 32.6959 22.8556 32.8528 22.7395C37.9408 18.973 42.9227 15.0689 47.8655 11.1152C48.7999 10.3677 49.4735 9.42485 49.2989 8.13607C49.1512 7.04629 48.788 6.01339 48.1296 5.1235C47.0887 3.71649 45.7839 2.77029 43.8088 2.9572ZM28.027 21.3067C26.2478 18.6211 23.0085 18.3357 20.5341 20.03C18.9941 21.0845 17.8879 22.5162 16.915 24.0672C16.6655 24.4649 16.455 24.8295 15.9032 24.7528C15.6595 24.7189 15.5509 24.8814 15.4808 25.0911C14.6489 27.5777 14.0904 30.084 14.7617 32.7179C15.8293 36.9067 19.5 38.4824 23.1972 36.2343C26.2788 34.3606 27.9293 31.4355 28.7589 28.016C29.3105 25.7425 29.3538 23.4887 28.027 21.3067ZM13.1308 22.8104C13.6002 23.0529 13.8143 22.6994 14.0593 22.4142C15.1577 21.1353 16.2446 19.844 17.547 18.761C19.4791 17.1543 21.5592 15.8938 24.2004 15.9753C24.2744 15.9776 24.3869 15.9995 24.3854 15.8222C23.6007 15.4229 22.7349 15.2373 21.868 15.0891C20.3742 14.8339 18.906 14.7337 17.4306 15.355C14.603 16.5458 12.6485 18.5767 11.3258 21.2956C11.1041 21.7513 11.099 22.0175 11.6222 22.2012C12.1025 22.3699 12.5653 22.5884 13.1308 22.8104ZM31.3445 24.6203C31.2144 23.0026 30.8388 21.4539 29.8694 20.1239C28.881 18.7676 27.7899 17.5029 26.0499 17.0808C24.5577 16.7189 23.0855 16.8707 21.672 17.4124C18.7278 18.5407 16.7258 20.7851 14.9182 23.2425C14.8975 23.2707 14.9156 23.3274 14.9158 23.3708C15.658 23.8735 15.7669 23.8551 16.2182 23.1711C16.4138 22.8746 16.6104 22.5779 16.8224 22.2932C18.4412 20.1195 20.2903 18.3184 23.202 18.0605C25.1142 17.8911 26.7786 18.3991 28.1246 19.7405C29.6672 21.2778 30.1444 23.2403 30.0865 25.3579C30.0649 26.1471 29.9899 26.9348 29.9393 27.7224C30.9982 27.7758 31.1768 27.7199 31.2731 27.1765C31.4159 26.3707 31.544 25.557 31.3445 24.6203ZM37.6337 39.4609C41.0767 36.4876 44.4966 33.4868 47.979 30.5604C48.8509 29.8277 48.8989 29.013 48.7783 27.925C47.6028 28.9295 46.5074 29.8592 45.419 30.7969C42.2427 33.5335 39.0986 36.3087 35.8761 38.9896C34.9435 39.7654 34.6796 40.5972 34.9467 41.8224C35.848 41.0289 36.7043 40.275 37.6337 39.4609ZM14.5162 24.7217C14.557 24.1495 14.0531 24.2312 13.7478 24.1199C13.4512 24.0119 13.2448 24.2054 13.1473 24.4953C12.0975 27.6139 11.8363 30.7299 13.2764 33.8045C13.6135 34.5243 13.9553 35.2989 14.8137 35.6274C14.8137 35.5588 14.8261 35.5132 14.8115 35.4793C14.75 35.337 14.6874 35.1945 14.6128 35.0588C13.7789 33.543 13.5158 31.8799 13.4954 30.1932C13.4731 28.3472 13.8229 26.5435 14.5162 24.7217Z" fill="#363636"/>
<path d="M12.5302 42.4334C11.3146 44.0512 10.1276 45.6309 8.93809 47.2087C8.84492 47.3323 8.74351 47.4533 8.62858 47.5561C8.40154 47.7592 8.11565 47.7781 7.89418 47.6075C7.65077 47.42 7.67065 47.1432 7.85694 46.8939C9.58386 44.5829 11.3094 42.2709 13.0393 39.9622C13.2712 39.6527 13.6185 39.551 13.9206 39.7679C14.2823 40.0278 14.0845 40.3444 13.8683 40.6294C13.4255 41.2132 12.9943 41.8059 12.5302 42.4334Z" fill="#363636"/>
<path d="M16.291 42.9701C15.9856 44.4066 15.694 45.7887 15.4013 47.1705C15.374 47.2996 15.3467 47.4295 15.3073 47.5552C15.2101 47.8661 15.023 48.0579 14.6694 47.9842C14.2934 47.9058 14.2484 47.6069 14.2986 47.3143C14.3992 46.7273 14.543 46.1478 14.6661 45.5647C14.9669 44.14 15.2659 42.7149 15.5663 41.2901C15.5936 41.1606 15.6334 41.0334 15.6556 40.9031C15.7254 40.495 15.9666 40.3229 16.3638 40.4191C16.7784 40.5195 16.7581 40.8656 16.7003 41.1708C16.5895 41.7565 16.4386 42.3346 16.291 42.9701Z" fill="#363636"/>
<path d="M18.7641 41.3466C18.7176 40.9312 18.8323 40.6879 19.2399 40.6594C19.6179 40.633 19.7251 40.8765 19.798 41.1824C20.1308 42.5774 20.4172 43.9838 20.8399 45.3571C20.9151 45.6012 20.9595 45.889 20.7665 46.1206C20.6471 46.2638 20.4778 46.3272 20.289 46.287C20.0126 46.2281 19.9032 46.0202 19.8418 45.769C19.4851 44.3115 19.1262 42.8545 18.7641 41.3466Z" fill="#363636"/>
<path d="M19.8499 26.4543C20.2799 25.7097 20.7127 25.0241 21.5641 24.8079C22.9714 24.4506 24.2277 25.3957 24.2971 26.9367C24.3528 28.1714 24.0265 29.3123 23.0739 30.199C22.3048 30.9148 21.3538 31.0972 20.5039 30.6687C19.7721 30.2999 19.238 29.2612 19.3465 28.3593C19.4234 27.7207 19.5475 27.0888 19.8499 26.4543ZM23.3035 27.5388C23.3192 27.139 23.3161 26.7441 23.1317 26.3714C22.8009 25.703 22.1399 25.5149 21.5264 25.9221C20.6411 26.5096 20.0962 28.2986 20.5094 29.2608C20.8393 30.029 21.4256 30.2018 22.1069 29.7221C22.8233 29.2177 23.134 28.4749 23.3035 27.5388Z" fill="#363636"/>
</svg>
