<svg width="60" height="50" viewBox="0 0 60 50" fill="none" xmlns="http://www.w3.org/2000/svg">
<path d="M51.2168 35.6839C52.1749 35.6839 53.133 35.6827 54.0911 35.6844C54.5056 35.6852 54.901 35.5985 55.2802 35.4356C55.7139 35.2492 55.93 34.8909 55.9167 34.4452C55.8824 33.2889 56.033 32.1289 55.8338 30.9746C55.7894 30.7174 55.936 30.458 55.9309 30.1831C55.9142 29.2748 55.8644 28.3611 55.94 27.4589C56.0329 26.35 55.6707 25.3931 55.1254 24.488C54.3002 23.1182 53.5288 21.7191 52.75 20.3232C51.705 18.4499 50.6712 16.5689 49.5695 14.7289C48.8857 13.5869 47.77 13.0953 46.4594 13.0905C43.0896 13.0782 39.7198 13.0864 36.35 13.0864C35.6233 13.0864 35.211 13.4956 35.2107 14.2262C35.2094 17.1665 35.2102 20.1068 35.2102 23.0471C35.2102 26.2352 35.2102 29.4233 35.2102 32.6114C35.2102 33.586 35.2102 34.5606 35.2102 35.5352" stroke="#363636" stroke-width="0.75" stroke-linecap="round" stroke-linejoin="round"/>
<path d="M51.1674 23.394C51.012 22.6045 50.4917 21.9955 50.119 21.3169C49.2679 19.7673 48.3819 18.2366 47.4976 16.7055C47.0616 15.9506 46.3893 15.6453 45.5179 15.656C43.6185 15.6795 41.7187 15.6623 39.819 15.6638C39.118 15.6643 38.7795 16.0024 38.7789 16.704C38.7773 18.8183 38.7846 20.9328 38.7735 23.0471C38.7711 23.5079 38.8628 23.598 39.3235 23.597C43.0567 23.5885 46.79 23.586 50.5231 23.6047C50.8041 23.6061 51.0321 23.3691 51.3161 23.4931" stroke="#363636" stroke-width="0.75" stroke-linecap="round" stroke-linejoin="round"/>
<path d="M22.3749 14.0773C22.2542 13.8438 22.221 13.5967 22.2229 13.334C22.2308 12.2273 22.2161 11.1204 22.2319 10.0138C22.2373 9.64166 22.1025 9.51148 21.7307 9.51273C18.7904 9.52257 15.85 9.52418 12.9097 9.51149C12.4891 9.50967 12.4058 9.69189 12.4083 10.0634C12.4209 11.9794 12.4141 13.8956 12.4141 15.8118" stroke="#363636" stroke-width="0.75" stroke-linecap="round" stroke-linejoin="round"/>
<path d="M35.061 33.3053C29.7255 33.3053 24.3899 33.3049 19.0544 33.3065C18.8361 33.3066 18.608 33.2614 18.4102 33.4044" stroke="#363636" stroke-width="0.75" stroke-linecap="round" stroke-linejoin="round"/>
<path d="M40.4133 35.6838C38.9267 35.6838 37.44 35.6838 35.9533 35.6838C30.403 35.6838 24.8527 35.6841 19.3024 35.6825C19.1202 35.6824 18.9329 35.7179 18.7573 35.6343" stroke="#363636" stroke-width="0.75" stroke-linecap="round" stroke-linejoin="round"/>
<path d="M40.4639 35.7338C40.7157 36.1264 40.6964 36.5994 40.85 37.0259C41.5435 38.9526 42.8602 40.1357 44.8741 40.5418C47.7142 41.1146 50.3056 39.1498 50.9289 36.6279C51.2546 35.3105 51.0175 34.1089 50.3728 32.9599C49.6335 31.6423 48.5539 30.8102 47.0593 30.4143C44.2081 29.659 41.3054 31.5341 40.6731 34.4477C40.5853 34.8526 40.5692 35.2775 40.4639 35.6842" stroke="#363636" stroke-width="0.75" stroke-linecap="round" stroke-linejoin="round"/>
<path d="M13.2564 33.2061C12.1791 33.239 11.4787 33.856 11.175 35.0397C10.9622 35.8694 11.4556 36.907 12.2643 37.3705C13.6059 38.1394 15.241 37.4508 15.5609 35.9759C15.9221 34.3099 14.6711 33.064 13.306 33.2061" stroke="#363636" stroke-width="0.75" stroke-linecap="round" stroke-linejoin="round"/>
<path d="M8.00397 35.6839C6.25299 35.6839 4.502 35.6848 2.75102 35.6834C2.15238 35.6829 1.99265 35.5358 2.01249 34.9407C2.02957 34.4283 1.93754 33.9137 2.09461 33.4006C2.15959 33.1883 1.99865 32.9551 2.00001 32.7105C2.0129 30.3979 2.00708 28.0853 2.0081 25.7727C2.00836 25.1908 2.02151 25.2013 2.60209 25.1727C3.265 25.1399 3.93525 25.2885 4.59476 25.0033C4.79336 24.9174 5.11214 25.1634 5.37768 25.1689C6.38568 25.1895 7.40827 25.2718 8.35002 24.78C8.55398 24.6734 8.73669 24.6725 8.94732 24.778C10.0284 25.3196 11.1749 25.2704 12.3121 25.0612C12.6846 24.9926 12.9667 25.1973 13.3067 25.1847C13.9336 25.1614 14.5619 25.178 15.1896 25.178C16.4781 25.178 17.7665 25.1804 19.055 25.1758C19.2863 25.1749 19.5174 25.1423 19.7488 25.129C20.1797 25.1042 20.5845 24.9691 21.049 25.1473C21.367 25.2694 21.7985 25.2365 22.1809 25.0888C22.4864 24.9708 22.7917 25.1908 23.1186 25.1893C27.0996 25.1719 31.0806 25.178 35.0616 25.178" stroke="#363636" stroke-width="0.75" stroke-linecap="round" stroke-linejoin="round"/>
<path d="M18.3617 33.4041C17.8511 32.9518 17.6296 32.2809 17.1284 31.8123C16.2646 31.0048 15.302 30.4763 14.1016 30.3187C11.771 30.0128 10.101 30.9501 8.83484 32.8509C8.34981 33.5791 8.18549 34.3658 8.16202 35.1884C8.07846 38.1173 9.84681 39.9116 12.1265 40.506C13.8755 40.9621 15.5343 40.5138 16.9297 39.2574C18.0018 38.2921 18.492 37.0591 18.6398 35.6816C18.6934 35.1824 18.5612 34.6516 18.4457 34.1509C18.3913 33.915 18.3652 33.6892 18.3617 33.4537" stroke="#363636" stroke-width="0.75" stroke-linecap="round" stroke-linejoin="round"/>
<path d="M8.59936 21.2628C8.0212 20.9985 7.43589 20.7485 6.8679 20.4639C6.58095 20.3202 6.55685 19.9628 6.37817 19.7201C5.81116 18.9499 5.76343 18.0774 6.18733 17.2572C6.63143 16.3978 7.3922 15.9297 8.40113 15.9606C8.68236 15.9692 8.97799 15.9012 9.2412 16.0154C9.76984 16.2448 10.2674 15.9614 10.7798 15.961C12.9438 15.9594 15.1077 15.9559 17.2717 15.9623C18.2738 15.9653 18.9843 16.4853 19.3897 17.3539C19.7869 18.2047 19.7381 19.0661 19.1029 19.8237C18.9532 20.0021 18.811 20.1741 18.8079 20.4204" stroke="#363636" stroke-width="0.75" stroke-linecap="round" stroke-linejoin="round"/>
<path d="M55.775 28.0522C55.1969 28.0688 54.6187 28.0841 54.0406 28.1022C53.6634 28.114 53.4618 28.3025 53.4496 28.6966C53.4343 29.1917 53.4432 29.6876 53.4467 30.1831C53.4498 30.6109 53.654 30.8104 54.0901 30.8278C54.6516 30.8501 55.2159 30.7743 55.775 30.8769" stroke="#363636" stroke-width="0.75" stroke-linecap="round" stroke-linejoin="round"/>
<path d="M20.5901 24.9798C20.5933 24.7336 20.745 24.5675 20.8838 24.3824C21.9956 22.8989 21.0924 20.7656 19.3058 20.579C18.7177 20.5175 18.1788 20.6323 17.6167 20.6246C16.312 20.6067 15.0068 20.6173 13.7018 20.6199C13.3327 20.6206 12.9538 20.5632 12.612 20.7682C12.5925 20.7798 12.5716 20.818 12.563 20.8146C11.8135 20.5143 10.9826 20.7652 10.2329 20.4702" stroke="#363636" stroke-width="0.75" stroke-linecap="round" stroke-linejoin="round"/>
<path d="M8.35101 33.4046C8.17559 33.337 7.99845 33.3013 7.80588 33.302C6.121 33.308 4.43608 33.304 2.75118 33.3076C2.56943 33.308 2.38776 33.3385 2.20605 33.355" stroke="#363636" stroke-width="0.75" stroke-linecap="round" stroke-linejoin="round"/>
<path d="M6.66504 20.4702C6.29059 20.7454 5.83552 20.57 5.4217 20.7043C3.9191 21.192 3.26721 22.9743 4.2416 24.3818C4.37247 24.5709 4.53101 24.7336 4.53413 24.9798" stroke="#363636" stroke-width="0.75" stroke-linecap="round" stroke-linejoin="round"/>
<path d="M9.98556 16.2085C10.0157 16.4566 10.1831 16.6196 10.3279 16.8067C10.9653 17.6302 11.0797 18.6043 10.5611 19.643C10.1676 20.4312 9.55281 20.8133 8.84423 21.1609C8.68774 21.2377 8.589 21.3037 8.59186 21.5111C8.60553 22.502 8.59727 23.4932 8.60009 24.4843C8.60023 24.5339 8.63102 24.5834 8.64754 24.633" stroke="#363636" stroke-width="0.75" stroke-linecap="round" stroke-linejoin="round"/>
<path d="M12.5625 20.8665C12.5928 21.0857 12.7117 21.2529 12.8581 21.4132C13.5177 22.1349 13.6633 23.4614 12.9554 24.3822C12.8142 24.5659 12.6647 24.7334 12.6616 24.9796" stroke="#363636" stroke-width="0.75" stroke-linecap="round" stroke-linejoin="round"/>
<path d="M39.2734 26.1938C40.2646 26.2021 41.2557 26.2104 42.2468 26.2186" stroke="#363636" stroke-width="0.75" stroke-linecap="round" stroke-linejoin="round"/>
<path d="M27.4785 9.46851C27.8827 9.8456 28.3661 10.153 28.5634 10.6649C28.159 11.5284 27.4607 12.1029 26.8351 12.74C26.5419 13.0386 26.2504 13.1991 25.7875 13.0564C25.4556 12.9541 25.0384 13.1249 24.709 13.0191C23.8954 12.7577 23.4806 13.2401 22.9476 13.7059C22.508 14.0902 22.242 14.3626 22.2847 15.0214C22.3248 15.6413 22.1455 16.2728 22.3635 16.9056C22.4515 17.161 22.1824 17.4044 22.2202 17.6955C22.3143 18.4191 22.0548 19.1698 22.4073 19.8834C22.4599 19.9899 22.23 20.208 22.2363 20.3704C22.2632 21.0642 22.1001 21.7714 22.3354 22.4484C22.3846 22.5897 22.3434 22.6914 22.3191 22.7977C22.152 23.527 22.2115 24.2527 22.3247 24.9795" stroke="#363636" stroke-width="0.75" stroke-linecap="round" stroke-linejoin="round"/>
<path d="M24.854 20.1726C24.864 20.3841 24.7457 20.5302 24.6067 20.6686C24.0605 21.2126 23.5115 21.754 22.9737 22.3063C22.8171 22.4672 22.6216 22.5275 22.4258 22.6008" stroke="#363636" stroke-width="0.75" stroke-linecap="round" stroke-linejoin="round"/>
<path d="M27.4042 9.32007C27.2687 9.75298 26.8457 9.93532 26.5837 10.2594C25.9096 11.0933 25.0102 11.6901 24.2567 12.4414C24.1447 12.553 24.0345 12.661 24.0591 12.8385" stroke="#363636" stroke-width="0.75" stroke-linecap="round" stroke-linejoin="round"/>
<path d="M30.9475 13.978C30.5123 14.7823 29.881 15.4099 29.164 15.961C29.0744 16.0299 28.9629 16.1073 28.8691 16.0541C28.2545 15.7052 27.5584 16.0738 26.9282 15.8249C26.8165 15.7808 26.5951 15.8688 26.4942 15.9673C25.9512 16.4976 25.4319 17.0522 24.8994 17.5934C24.8344 17.6594 24.862 17.7261 24.8521 17.7938" stroke="#363636" stroke-width="0.75" stroke-linecap="round" stroke-linejoin="round"/>
<path d="M26.9351 18.0913C26.9505 18.2066 26.9082 18.3015 26.8364 18.3889C26.3446 18.9875 25.7775 19.512 25.193 20.015C25.0832 20.1095 24.8837 20.1988 24.7053 20.0733C24.4256 19.8767 24.098 19.9453 23.816 19.992C23.4572 20.0513 23.1379 20.1238 22.8159 19.8835C22.7416 19.8281 22.5907 19.8753 22.4751 19.8753" stroke="#363636" stroke-width="0.75" stroke-linecap="round" stroke-linejoin="round"/>
<path d="M28.916 16.1091C28.906 16.1768 28.9336 16.2435 28.8687 16.3096C28.369 16.8176 27.8823 17.3387 27.3758 17.8396C27.2031 18.0105 27.0031 18.128 26.7306 17.9502C26.5067 17.8041 26.2391 17.9495 25.9923 17.9539C25.6206 17.9606 25.2556 18.0739 24.8946 17.8558C24.8124 17.8061 24.5901 17.8659 24.513 17.9497C23.9353 18.5777 23.2106 19.0705 22.771 19.8258" stroke="#363636" stroke-width="0.75" stroke-linecap="round" stroke-linejoin="round"/>
<path d="M26.1907 13.1855C26.1577 13.2681 26.1462 13.3723 26.0883 13.43C25.4683 14.049 24.9816 14.805 24.2085 15.2669" stroke="#363636" stroke-width="0.75" stroke-linecap="round" stroke-linejoin="round"/>
<path d="M30.2779 11.9961C30.6509 12.5175 31.2669 12.8253 31.5457 13.4269C31.4116 13.6553 31.2242 13.8143 30.9789 13.9378C30.5792 13.5954 30.1389 13.8532 29.7081 13.8805C29.5754 13.8889 29.4092 13.9721 29.3172 13.919C28.7499 13.5919 28.4514 13.9849 28.1213 14.3243C27.8118 14.6424 27.5031 14.9622 27.1769 15.2627C27.0222 15.4052 26.9435 15.5738 26.8833 15.7623" stroke="#363636" stroke-width="0.75" stroke-linecap="round" stroke-linejoin="round"/>
<path d="M22.3745 14.9697C22.7382 14.9806 23.0889 15.0867 23.4672 15.0383C23.6874 15.01 23.9764 15.047 24.2241 15.3324C23.7145 15.9793 23.2101 16.6313 22.4241 17.0015" stroke="#363636" stroke-width="0.75" stroke-linecap="round" stroke-linejoin="round"/>
<path d="M26.2891 10.8066C26.5786 11.0327 26.9092 10.9703 27.2302 10.9274C27.5851 10.88 27.9363 10.813 28.2713 11.0049" stroke="#363636" stroke-width="0.75" stroke-linecap="round" stroke-linejoin="round"/>
<path d="M30.3046 12.1448C29.8602 12.6893 29.1494 13.0007 28.917 13.7306" stroke="#363636" stroke-width="0.75" stroke-linecap="round" stroke-linejoin="round"/>
<path d="M45.368 33.2062C44.1084 33.5787 43.5319 34.485 43.6316 35.7337C43.7099 36.7131 44.5852 37.6171 45.5664 37.6611C46.7231 37.713 47.4836 37.2774 47.8875 36.2755C48.5113 34.7285 47.2591 33.1237 45.913 33.2049C45.7484 33.2148 45.5827 33.2062 45.4175 33.2062" stroke="#363636" stroke-width="0.75" stroke-linecap="round" stroke-linejoin="round"/>
</svg>
