<svg width="60" height="50" viewBox="0 0 60 50" fill="none" xmlns="http://www.w3.org/2000/svg">
<path d="M30.7486 34.7261C29.9777 34.5847 29.1995 34.696 28.4257 34.6581C28.1819 34.6462 27.9287 34.6517 27.6976 34.5863C27.0995 34.4168 26.8117 34.6184 26.764 35.2569C26.7078 36.0098 26.6187 36.7605 26.5724 37.5139C26.5399 38.042 26.1945 38.3127 25.8545 38.6589C25.2185 39.3067 24.4936 39.7678 23.6439 40.0254C23.1771 40.1669 22.6892 40.2463 22.1868 40.241C20.5941 40.2242 19.0008 40.2137 17.4084 40.2394C14.5828 40.2852 11.4574 37.6922 11.083 34.9279C10.9112 33.6595 11.0202 32.4029 10.9781 31.1419C10.9403 30.0098 10.4351 29.5756 9.3134 29.4611C7.6984 29.2962 6.43044 29.6933 5.44028 31.0602C4.89655 31.8108 4.16725 32.4411 3.46005 33.0546C2.91117 33.5308 2.63195 34.1745 2.208 34.7248C2.0506 34.9292 2.0775 35.1606 2.07745 35.3898C2.07666 39.3277 2.07869 43.2657 2.07276 47.2036C2.07237 47.4609 2.11139 47.7002 2.23116 47.9674C2.45209 47.9776 2.69589 47.9986 2.93969 47.9987C11.966 48.0003 20.9922 48.0002 30.0185 47.9999C30.914 47.9999 31.1881 47.6825 30.9353 46.8757C30.8693 46.6648 30.8863 46.4721 30.886 46.2744C30.8796 42.7126 30.9255 39.1498 30.8476 35.5896C30.83 34.7874 31.0723 34.3055 31.601 33.7863C32.8284 32.5808 34.0007 31.3191 35.1954 30.0802" stroke="#363636" stroke-linecap="round" stroke-linejoin="round"/>
<path d="M25.6386 10.9655C26.1577 10.6164 26.7425 10.787 27.298 10.7737C28.4004 10.7475 28.7543 10.4671 28.8877 9.37231C29.049 8.04855 28.9262 6.71777 28.9537 5.3904C28.9715 4.52796 28.9586 3.66485 28.9566 2.80205C28.9548 2.04841 28.9114 2.00644 28.0942 2.00619C23.9351 2.00492 19.7759 2.0056 15.6167 2.0056C14.5548 2.0056 13.4927 2.01808 12.4311 2.00031C11.9046 1.9915 11.687 2.16864 11.6891 2.73572C11.6968 4.8152 11.6516 6.89482 11.6364 8.97446C11.6266 10.3078 12.0932 10.7699 13.4265 10.7653C14.3778 10.762 15.3272 10.8265 16.281 10.7769C17.2076 10.7287 18.1388 10.7664 19.068 10.7664C20.0193 10.7664 20.9706 10.7664 21.9219 10.7664C22.851 10.7664 23.7802 10.7687 24.7094 10.7651C25.0053 10.7639 25.2997 10.7565 25.5722 10.8992" stroke="#363636" stroke-linecap="round" stroke-linejoin="round"/>
<path d="M5.99268 34.7258C6.14784 34.9728 6.12162 35.2487 6.12698 35.5222C6.14869 36.6292 6.07863 37.7359 6.25136 38.8418C6.74618 42.0101 8.8233 44.0405 12.0347 44.323C14.7002 44.5574 17.3853 44.432 20.0634 44.3608C21.7563 44.3158 23.216 43.7466 24.5095 42.6898C25.6504 41.7575 26.1856 40.4751 26.566 39.1059C26.6375 38.8485 26.427 38.6661 26.3682 38.4425" stroke="#363636" stroke-linecap="round" stroke-linejoin="round"/>
<path d="M27.3638 34.3943C27.4911 34.0384 27.6726 33.7304 27.9554 33.4591C29.1634 32.3005 30.3638 31.1331 31.5353 29.9379C31.814 29.6535 32.1196 29.5073 32.4746 29.4922C33.2034 29.4612 33.9364 29.4493 34.6639 29.4924C35.385 29.535 35.7893 30.062 35.7913 30.8767C35.7958 32.7129 35.7927 34.5491 35.7927 36.3854C35.7927 38.3322 35.7938 40.2791 35.7913 42.2259C35.791 42.4639 35.8109 42.6796 35.6022 42.8978C34.412 44.1419 33.249 45.4121 32.0757 46.6724C31.8114 46.9562 31.5461 47.2404 31.1468 47.3364" stroke="#363636" stroke-linecap="round" stroke-linejoin="round"/>
<path d="M22.386 17.2046C22.3389 18.2438 22.2543 19.3154 22.3798 20.3164C22.5201 21.4353 22.5495 22.545 22.4842 23.6404C22.4203 24.7118 22.4767 25.7749 22.5492 26.8261C22.6471 28.2457 22.0112 29.4226 21.5817 30.675C21.4763 30.9823 21.2229 31.0911 20.8594 31.0884C19.3908 31.0775 19.4348 31.0734 18.7866 29.7561C18.3511 28.8709 18.3658 27.9737 18.2675 27.0346C18.153 25.9405 18.1312 24.8536 18.1691 23.7763C18.2043 22.7756 18.0966 21.785 18.1308 20.7883C18.165 19.7939 18.1362 18.7974 18.14 17.8019C18.1408 17.5796 18.0983 17.351 18.2047 17.1382" stroke="#363636" stroke-linecap="round" stroke-linejoin="round"/>
<path d="M25.6376 11.0317C25.6597 11.7839 25.6925 12.536 25.7013 13.2883C25.7124 14.2395 25.7072 15.1909 25.7029 16.1422C25.6997 16.8282 25.5296 17.0048 24.8412 17.0029C22.8721 16.9975 20.903 17.0689 18.9338 16.9464C17.8746 16.8806 16.8103 16.8752 15.7486 16.8803C15.2129 16.8829 14.9977 16.7083 15.0077 16.142C15.0376 14.4391 15.0184 12.7352 15.0184 11.0317" stroke="#363636" stroke-linecap="round" stroke-linejoin="round"/>
<path d="M10.2404 30.2129C8.95728 31.5403 7.65694 32.8517 6.40194 34.2052C6.04667 34.5884 5.67383 34.6855 5.1961 34.6652C4.64402 34.6416 4.08953 34.6437 3.53732 34.6656C3.2023 34.679 2.90236 34.5982 2.60791 34.4606" stroke="#363636" stroke-linecap="round" stroke-linejoin="round"/>
<path d="M22.2528 24.7041C21.2546 25.046 20.5306 25.8156 19.6636 26.3622C19.2611 26.616 18.9205 26.9898 18.4033 27.027" stroke="#363636" stroke-linecap="round" stroke-linejoin="round"/>
<path d="M22.2528 20.3237C21.2969 20.6736 20.6457 21.476 19.794 21.9777C19.3333 22.2491 19.0103 22.7631 18.4033 22.7794" stroke="#363636" stroke-linecap="round" stroke-linejoin="round"/>
<path d="M11.7671 25.2683C12.1874 25.5891 12.6096 25.9075 13.0275 26.2315C13.3128 26.4527 13.6061 26.6572 13.9573 26.7616" stroke="#363636" stroke-linecap="round" stroke-linejoin="round"/>
<path d="M13.2271 23.7751C13.0761 24.3613 13.8271 24.5187 13.8302 25.0361C13.8305 25.0807 13.9146 25.1231 13.9569 25.1691C14.4862 25.744 14.4723 26.3193 13.9572 26.8945" stroke="#363636" stroke-linecap="round" stroke-linejoin="round"/>
</svg>
