<svg width="34" height="34" viewBox="0 0 34 34" fill="none" xmlns="http://www.w3.org/2000/svg">
<path d="M6 29C6.76862 28.1392 10.3684 24.1778 11.4233 24.1778H22.5773C24.106 24.1778 27.2266 27.4615 28 28.619M33 17C33 25.8365 25.8365 33 17 33C8.16344 33 1 25.8365 1 17C1 8.16344 8.16344 1 17 1C25.8365 1 33 8.16344 33 17ZM22.7314 11.5466C22.7314 8.49408 20.1545 6 17.0005 6C13.8465 6 11.2696 8.49408 11.2696 11.5466C11.2696 14.5991 13.8465 17.0932 17.0005 17.0932C20.1544 17.0932 22.7314 14.5991 22.7314 11.5466Z" stroke="#161E4C"/>
</svg>
