<svg width="104" height="80" viewBox="0 0 104 80" fill="none" xmlns="http://www.w3.org/2000/svg">
<g filter="url(#filter0_d_4062_21006)">
<rect x="22.1354" y="21.3229" width="59.8542" height="37.3542" rx="14.5521" fill="white" stroke="#D9D9D9" stroke-width="2.64583"/>
<path fill-rule="evenodd" clip-rule="evenodd" d="M39.7866 47.0981H36.0003L33.1611 36.9883C33.0263 36.5232 32.7401 36.1121 32.3192 35.9183C31.2688 35.4314 30.1113 35.0438 28.8486 34.8484V34.4591H34.948C35.7899 34.4591 36.4212 35.0438 36.5264 35.7229L37.9996 43.0154L41.784 34.4591H45.4651L39.7866 47.0981ZM47.5708 47.0981H43.995L46.9395 34.4591H50.5153L47.5708 47.0981ZM55.1385 37.96C55.2438 37.2793 55.8751 36.8901 56.6117 36.8901C57.7692 36.7924 59.0301 36.9878 60.0823 37.4731L60.7137 34.7519C59.6614 34.3626 58.5039 34.1672 57.4535 34.1672C53.9829 34.1672 51.4575 35.9179 51.4575 38.3476C51.4575 40.196 53.2463 41.1665 54.509 41.7512C55.8751 42.3342 56.4013 42.7234 56.296 43.3064C56.296 44.1809 55.2438 44.5701 54.1934 44.5701C52.9306 44.5701 51.6679 44.2787 50.5123 43.7917L49.8809 46.5146C51.1437 46.9999 52.5097 47.1953 53.7725 47.1953C57.664 47.2914 60.0823 45.5424 60.0823 42.9172C60.0823 39.6113 55.1385 39.4175 55.1385 37.96ZM72.5982 47.0981L69.759 34.4591H66.7093C66.0779 34.4591 65.4466 34.8484 65.2361 35.4314L59.9785 47.0981H63.6596L64.3943 45.2513H68.9172L69.3381 47.0981H72.5982ZM67.2366 37.862L68.287 42.6254H65.3425L67.2366 37.862Z" fill="#172B85"/>
</g>
<defs>
<filter id="filter0_d_4062_21006" x="0.8125" y="0" width="102.5" height="80" filterUnits="userSpaceOnUse" color-interpolation-filters="sRGB">
<feFlood flood-opacity="0" result="BackgroundImageFix"/>
<feColorMatrix in="SourceAlpha" type="matrix" values="0 0 0 0 0 0 0 0 0 0 0 0 0 0 0 0 0 0 127 0" result="hardAlpha"/>
<feOffset/>
<feGaussianBlur stdDeviation="10"/>
<feComposite in2="hardAlpha" operator="out"/>
<feColorMatrix type="matrix" values="0 0 0 0 0 0 0 0 0 0 0 0 0 0 0 0 0 0 0.07 0"/>
<feBlend mode="normal" in2="BackgroundImageFix" result="effect1_dropShadow_4062_21006"/>
<feBlend mode="normal" in="SourceGraphic" in2="effect1_dropShadow_4062_21006" result="shape"/>
</filter>
</defs>
</svg>
