<svg width="21" height="22" viewBox="0 0 21 22" fill="none" xmlns="http://www.w3.org/2000/svg">
<path d="M14.875 16.8182H11.375L7.48124 19.4081C6.90374 19.7931 6.125 19.3819 6.125 18.6819V16.8182C3.5 16.8182 1.75 15.0682 1.75 12.4432V7.19312C1.75 4.56812 3.5 2.81812 6.125 2.81812H14.875C17.5 2.81812 19.25 4.56812 19.25 7.19312V12.4432C19.25 15.0682 17.5 16.8182 14.875 16.8182Z" stroke="#F57612" stroke-miterlimit="10" stroke-linecap="round" stroke-linejoin="round"/>
<path d="M10.5 10.6318V10.4481C10.5 9.85312 10.8675 9.53811 11.235 9.28436C11.5938 9.03936 11.9525 8.72437 11.9525 8.14687C11.9525 7.34187 11.305 6.69434 10.5 6.69434C9.69502 6.69434 9.04755 7.34187 9.04755 8.14687" stroke="#F57612" stroke-linecap="round" stroke-linejoin="round"/>
<path d="M10.4961 12.7231H10.5039" stroke="#F57612" stroke-linecap="round" stroke-linejoin="round"/>
</svg>
