<svg width="20" height="20" viewBox="0 0 20 20" fill="none" xmlns="http://www.w3.org/2000/svg">
<g clip-path="url(#clip0_267_3282)">
<path fill-rule="evenodd" clip-rule="evenodd" d="M10 19C14.9706 19 19 14.9707 19 10C19 5.02944 14.9707 0.999979 10 0.999979C5.02944 0.999979 0.999979 5.02944 0.999979 10C0.999979 14.9706 5.02944 19 10 19ZM10 20C15.5228 20 20 15.5228 20 10C20 4.47711 15.5228 0 10 0C4.47711 0 0 4.47711 0 10C0 15.5228 4.47711 20 10 20Z" fill="url(#paint0_linear_267_3282)"/>
<path fill-rule="evenodd" clip-rule="evenodd" d="M14 10C14 10.2761 13.7761 10.5 13.5001 10.5H6.49999C6.22382 10.5 6 10.2761 6 10C6 9.72394 6.22382 9.50001 6.49999 9.50001H13.4999C13.7761 9.50001 14 9.72394 14 10Z" fill="url(#paint1_linear_267_3282)"/>
<path fill-rule="evenodd" clip-rule="evenodd" d="M9.99999 14C9.72393 14 9.5 13.7761 9.5 13.5V6.49997C9.5 6.2238 9.72393 5.99998 9.99999 5.99998C10.276 5.99998 10.5 6.2238 10.5 6.49997V13.4999C10.5 13.7761 10.276 14 9.99999 14Z" fill="url(#paint2_linear_267_3282)"/>
</g>
<defs>
<linearGradient id="paint0_linear_267_3282" x1="10" y1="0" x2="10" y2="20" gradientUnits="userSpaceOnUse">
<stop stop-color="#FF5200"/>
<stop offset="1" stop-color="#FF00A8"/>
</linearGradient>
<linearGradient id="paint1_linear_267_3282" x1="10" y1="9.50001" x2="10" y2="10.5" gradientUnits="userSpaceOnUse">
<stop stop-color="#FF5200"/>
<stop offset="1" stop-color="#FF00A8"/>
</linearGradient>
<linearGradient id="paint2_linear_267_3282" x1="9.99999" y1="5.99998" x2="9.99999" y2="14" gradientUnits="userSpaceOnUse">
<stop stop-color="#FF5200"/>
<stop offset="1" stop-color="#FF00A8"/>
</linearGradient>
<clipPath id="clip0_267_3282">
<rect width="20" height="20" fill="white"/>
</clipPath>
</defs>
</svg>
