<svg width="20" height="20" viewBox="0 0 20 20" fill="none" xmlns="http://www.w3.org/2000/svg">
<g clip-path="url(#clip0_212_1931)">
<path d="M10.0458 0C10.0405 0.00535859 10.0298 0.00535859 10.0137 0.00535859C4.59079 0.00535859 0.180664 4.41548 0.180664 9.83837C0.180664 12.0515 0.936225 14.2003 2.31874 15.9311L0.887998 19.2534C0.770109 19.5267 0.898715 19.8429 1.16664 19.9554C1.2631 19.9983 1.37027 20.009 1.47208 19.9929L6.71815 19.0712C7.76843 19.4517 8.8723 19.6446 9.98689 19.6392C15.4098 19.6392 19.8199 15.2291 19.8199 9.80622C19.8306 4.3994 15.4527 0.00535859 10.0458 0ZM9.99224 18.5729C8.95804 18.5729 7.93455 18.3853 6.96464 18.0209C6.87354 17.9834 6.77709 17.9781 6.68064 17.9941L2.26516 18.7658L3.43333 16.049C3.51371 15.8614 3.48156 15.6417 3.34759 15.4863C2.71528 14.7522 2.21157 13.9163 1.8579 13.0107C1.46137 11.9979 1.25774 10.9208 1.25774 9.83302C1.25774 4.99957 5.19095 1.07172 10.019 1.07172C14.8364 1.061 18.7482 4.9567 18.7535 9.77407C18.7535 9.78479 18.7535 9.7955 18.7535 9.80622C18.7535 14.645 14.8203 18.5729 9.99224 18.5729Z" fill="#D9D9D9"/>
<path d="M9.57403 7.86108H6.68039C6.38567 7.86108 6.14453 8.10222 6.14453 8.39694C6.14453 8.69167 6.38567 8.9328 6.68039 8.9328H9.57403C9.86875 8.9328 10.1099 8.69167 10.1099 8.39694C10.1099 8.10222 9.86875 7.86108 9.57403 7.86108Z" fill="#D9D9D9"/>
<path d="M13.325 10.5404H6.68039C6.38567 10.5404 6.14453 10.7815 6.14453 11.0763C6.14453 11.371 6.38567 11.6121 6.68039 11.6121H13.325C13.6198 11.6121 13.8609 11.371 13.8609 11.0763C13.8609 10.7815 13.6198 10.5404 13.325 10.5404Z" fill="#D9D9D9"/>
</g>
<defs>
<clipPath id="clip0_212_1931">
<rect width="20" height="20" fill="white"/>
</clipPath>
</defs>
</svg>
