<svg width="20" height="20" viewBox="0 0 20 20" fill="none" xmlns="http://www.w3.org/2000/svg">
<path d="M9.99984 18.3334C5.39746 18.3334 1.6665 14.6024 1.6665 10C1.6665 5.39765 5.39746 1.66669 9.99984 1.66669C14.6022 1.66669 18.3332 5.39765 18.3332 10C18.3332 14.6024 14.6022 18.3334 9.99984 18.3334ZM9.99984 17.5C14.142 17.5 17.4998 14.1422 17.4998 10C17.4998 5.85789 14.142 2.50002 9.99984 2.50002C5.8577 2.50002 2.49984 5.85789 2.49984 10C2.49984 14.1422 5.8577 17.5 9.99984 17.5ZM12.6218 7.62206C12.7846 7.45934 13.0484 7.45934 13.2112 7.62206C13.3738 7.78478 13.3738 8.0486 13.2112 8.21131L9.0445 12.378C8.88175 12.5407 8.61792 12.5407 8.45517 12.378L6.78855 10.7114C6.62582 10.5486 6.62582 10.2848 6.78855 10.122C6.95126 9.95935 7.21508 9.95935 7.3778 10.122L8.74984 11.4941L12.6218 7.62206Z" fill="url(#paint0_linear_21_2137)"/>
<defs>
<linearGradient id="paint0_linear_21_2137" x1="0.175276" y1="1.66669" x2="21.947" y2="7.92198" gradientUnits="userSpaceOnUse">
<stop stop-color="#FF5200"/>
<stop offset="1" stop-color="#FF00A8"/>
</linearGradient>
</defs>
</svg>
