<svg width="20" height="20" viewBox="0 0 20 20" fill="none" xmlns="http://www.w3.org/2000/svg">
<path d="M9.99968 9.41076L13.455 5.95539C13.6178 5.79266 13.8816 5.79266 14.0443 5.95539C14.207 6.1181 14.207 6.38192 14.0443 6.54464L10.5889 10L14.0443 13.4553C14.207 13.6181 14.207 13.8819 14.0443 14.0447C13.8816 14.2073 13.6178 14.2073 13.455 14.0447L9.99968 10.5893L6.5443 14.0447C6.38158 14.2073 6.11777 14.2073 5.95505 14.0447C5.79233 13.8819 5.79233 13.6181 5.95505 13.4553L9.41043 10L5.95505 6.54464C5.79233 6.38192 5.79233 6.1181 5.95505 5.95539C6.11777 5.79266 6.38158 5.79266 6.5443 5.95539L9.99968 9.41076Z" fill="#1E212B"/>
</svg>
