<svg width="15" height="15" viewBox="0 0 15 15" fill="none" xmlns="http://www.w3.org/2000/svg">
<g clip-path="url(#clip0_113_830)">
<path d="M14.8577 14.1839L10.9849 10.3731C11.9991 9.27122 12.6222 7.81401 12.6222 6.21051C12.6217 2.78032 9.79636 0 6.31085 0C2.82535 0 0 2.78032 0 6.21051C0 9.6407 2.82535 12.421 6.31085 12.421C7.81683 12.421 9.19808 11.9001 10.283 11.0341L14.1708 14.86C14.3603 15.0466 14.6678 15.0466 14.8572 14.86C15.0471 14.6734 15.0471 14.3705 14.8577 14.1839ZM6.31085 11.4655C3.36173 11.4655 0.971014 9.11277 0.971014 6.21051C0.971014 3.30825 3.36173 0.955524 6.31085 0.955524C9.26 0.955524 11.6507 3.30825 11.6507 6.21051C11.6507 9.11277 9.26 11.4655 6.31085 11.4655Z" fill="#D9D9D9"/>
</g>
<defs>
<clipPath id="clip0_113_830">
<rect width="15" height="15" fill="white"/>
</clipPath>
</defs>
</svg>
