<svg width="20" height="20" viewBox="0 0 20 20" fill="none" xmlns="http://www.w3.org/2000/svg">
<g clip-path="url(#clip0_212_1941)">
<path d="M12.7594 7.24609C12.5007 7.24609 12.291 7.45577 12.291 7.71448V16.5669C12.291 16.8254 12.5007 17.0353 12.7594 17.0353C13.0181 17.0353 13.2278 16.8254 13.2278 16.5669V7.71448C13.2278 7.45577 13.0181 7.24609 12.7594 7.24609Z" fill="url(#paint0_linear_212_1941)"/>
<path d="M7.23205 7.24609C6.97335 7.24609 6.76367 7.45577 6.76367 7.71448V16.5669C6.76367 16.8254 6.97335 17.0353 7.23205 17.0353C7.49076 17.0353 7.70044 16.8254 7.70044 16.5669V7.71448C7.70044 7.45577 7.49076 7.24609 7.23205 7.24609Z" fill="url(#paint1_linear_212_1941)"/>
<path d="M3.20431 5.9542V17.4942C3.20431 18.1762 3.45442 18.8168 3.89133 19.2764C4.32623 19.7373 4.93147 19.9989 5.56488 20H14.4268C15.0604 19.9989 15.6657 19.7373 16.1004 19.2764C16.5373 18.8168 16.7874 18.1762 16.7874 17.4942V5.9542C17.6559 5.72366 18.2187 4.8846 18.1025 3.99339C17.9862 3.10237 17.2271 2.43584 16.3284 2.43565H13.9303V1.85017C13.933 1.35782 13.7383 0.885049 13.3898 0.537238C13.0413 0.18961 12.5677 -0.00396362 12.0754 6.15417e-05H7.91631C7.42396 -0.00396362 6.95045 0.18961 6.60191 0.537238C6.25337 0.885049 6.0587 1.35782 6.06144 1.85017V2.43565H3.66336C2.76465 2.43584 2.00554 3.10237 1.88918 3.99339C1.773 4.8846 2.33579 5.72366 3.20431 5.9542ZM14.4268 19.0632H5.56488C4.76406 19.0632 4.14107 18.3753 4.14107 17.4942V5.99536H15.8506V17.4942C15.8506 18.3753 15.2277 19.0632 14.4268 19.0632ZM6.99821 1.85017C6.9951 1.60629 7.09097 1.37155 7.26405 1.19938C7.43695 1.02721 7.67224 0.932619 7.91631 0.936827H12.0754C12.3195 0.932619 12.5548 1.02721 12.7277 1.19938C12.9007 1.37136 12.9966 1.60629 12.9935 1.85017V2.43565H6.99821V1.85017ZM3.66336 3.37242H16.3284C16.794 3.37242 17.1714 3.74987 17.1714 4.21551C17.1714 4.68115 16.794 5.0586 16.3284 5.0586H3.66336C3.19772 5.0586 2.82027 4.68115 2.82027 4.21551C2.82027 3.74987 3.19772 3.37242 3.66336 3.37242Z" fill="url(#paint2_linear_212_1941)"/>
<path d="M9.99573 7.24609C9.73702 7.24609 9.52734 7.45577 9.52734 7.71448V16.5669C9.52734 16.8254 9.73702 17.0353 9.99573 17.0353C10.2544 17.0353 10.4641 16.8254 10.4641 16.5669V7.71448C10.4641 7.45577 10.2544 7.24609 9.99573 7.24609Z" fill="url(#paint3_linear_212_1941)"/>
</g>
<defs>
<linearGradient id="paint0_linear_212_1941" x1="12.2072" y1="7.24609" x2="13.5309" y2="7.28249" gradientUnits="userSpaceOnUse">
<stop stop-color="#FF5200"/>
<stop offset="1" stop-color="#FF00A8"/>
</linearGradient>
<linearGradient id="paint1_linear_212_1941" x1="6.67986" y1="7.24609" x2="8.00357" y2="7.28249" gradientUnits="userSpaceOnUse">
<stop stop-color="#FF5200"/>
<stop offset="1" stop-color="#FF00A8"/>
</linearGradient>
<linearGradient id="paint2_linear_212_1941" x1="0.420643" y1="6.95403e-07" x2="22.2052" y2="5.08343" gradientUnits="userSpaceOnUse">
<stop stop-color="#FF5200"/>
<stop offset="1" stop-color="#FF00A8"/>
</linearGradient>
<linearGradient id="paint3_linear_212_1941" x1="9.44353" y1="7.24609" x2="10.7672" y2="7.28249" gradientUnits="userSpaceOnUse">
<stop stop-color="#FF5200"/>
<stop offset="1" stop-color="#FF00A8"/>
</linearGradient>
<clipPath id="clip0_212_1941">
<rect width="20" height="20" fill="white"/>
</clipPath>
</defs>
</svg>
