<svg width="20" height="20" viewBox="0 0 20 20" fill="none" xmlns="http://www.w3.org/2000/svg">
<g clip-path="url(#clip0_212_1899)">
<path d="M17.2181 1.37335C16.2101 0.367087 14.5777 0.367087 13.5697 1.37335L12.6564 2.29164L2.93451 12.0084L2.91385 12.0292C2.90884 12.0342 2.90884 12.0395 2.90352 12.0395C2.89318 12.055 2.87769 12.0703 2.86752 12.0858C2.86752 12.091 2.86219 12.091 2.86219 12.0962C2.85186 12.1117 2.84686 12.122 2.83637 12.1375C2.83136 12.1427 2.83136 12.1477 2.8262 12.153C2.82103 12.1685 2.81587 12.1788 2.81054 12.1943C2.81054 12.1993 2.80554 12.1993 2.80554 12.2046L0.648544 18.691C0.585269 18.8756 0.633371 19.0801 0.772349 19.2172C0.870005 19.3135 1.00172 19.3674 1.13876 19.367C1.19477 19.366 1.2503 19.3573 1.30389 19.3411L7.7852 17.179C7.7902 17.179 7.7902 17.179 7.79553 17.174C7.81183 17.1691 7.82749 17.1622 7.84186 17.1531C7.84589 17.1527 7.84944 17.1509 7.85235 17.1481C7.86768 17.1378 7.88834 17.1273 7.90384 17.117C7.91917 17.1068 7.93483 17.0913 7.95033 17.081C7.95549 17.0757 7.9605 17.0757 7.9605 17.0707C7.96582 17.0655 7.97615 17.0605 7.98132 17.05L18.6165 6.41483C19.6228 5.4068 19.6228 3.7744 18.6165 2.76653L17.2181 1.37335ZM7.62007 15.9663L4.02858 12.3749L13.0176 3.38588L16.6091 6.9772L7.62007 15.9663ZM3.5227 13.3295L6.6603 16.467L1.94891 18.0356L3.5227 13.3295ZM17.889 5.69234L17.342 6.24454L13.7503 2.65289L14.3027 2.10085C14.9068 1.49716 15.8861 1.49716 16.4905 2.10085L17.894 3.50435C18.4937 4.11128 18.4914 5.08832 17.889 5.69234Z" fill="#D9D9D9"/>
</g>
<defs>
<clipPath id="clip0_212_1899">
<rect width="20" height="20" fill="white"/>
</clipPath>
</defs>
</svg>
