<svg width="157" height="48" viewBox="0 0 157 48" fill="none" xmlns="http://www.w3.org/2000/svg">
<path d="M16.7732 18.9733C16.2892 17.8933 15.792 16.8133 15.2687 15.7599C17.1527 15.3733 19.0236 14.8799 20.8422 14.2666C21.7972 13.9466 22.7392 13.5999 23.6682 13.2266C25.0681 11.8399 26.3633 10.3733 27.567 8.85327C25.1989 10.1466 22.7262 11.2266 20.1487 12.0799C17.4405 12.9866 14.6668 13.6266 11.8408 14.0133C12.9137 16.0399 13.9211 18.1199 14.8631 20.2399C15.5042 19.8266 16.1452 19.4133 16.7732 18.9733Z" fill="white"/>
<path d="M32.198 29.0266C32.6821 30.1066 33.1793 31.1866 33.7026 32.2533C31.8186 32.64 29.9477 33.1333 28.1291 33.7466C27.174 34.0666 26.232 34.4133 25.3031 34.7866C23.9032 36.1733 22.608 37.64 21.4043 39.16C23.7724 37.8667 26.2451 36.7866 28.8225 35.9333C31.5308 35.0266 34.3045 34.3866 37.1305 34C36.0576 31.9733 35.0502 29.8933 34.1082 27.7733C33.4671 28.1733 32.826 28.5866 32.198 29.0266Z" fill="white"/>
<path d="M28.0117 13.1467C28.7836 15.2 29.7911 17.1067 31.034 18.8933C32.2376 20.6133 33.6376 22.16 35.2206 23.5067C32.6301 24.9067 30.1312 26.56 27.7501 28.4533C25.2904 30.4 23.027 32.5467 20.9729 34.8533C20.201 32.8 19.1936 30.8933 17.9506 29.1067C16.747 27.3867 15.3471 25.84 13.764 24.4933C16.3545 23.0933 18.8534 21.44 21.2346 19.5467C23.6942 17.6 25.9576 15.4533 28.0117 13.1467ZM29.4771 6.23999C26.7296 10.2533 23.3017 13.9333 19.3375 17.08C15.5956 20.04 11.566 22.3733 7.43164 24C10.6371 25.64 13.3584 27.96 15.4386 30.92C17.6366 34.0667 18.9973 37.7467 19.4814 41.76C22.2289 37.7467 25.6567 34.0667 29.621 30.92C33.3628 27.96 37.3925 25.6267 41.5268 24C38.3214 22.36 35.6001 20.04 33.5198 17.08C31.3349 13.9333 29.9742 10.2533 29.4771 6.23999Z" fill="#F26522"/>
<path d="M36.5024 13.9733C37.0388 14.7333 37.3659 15.6133 37.4836 16.5866C38.1509 15.6133 38.9751 14.7333 39.9302 13.9733C40.8329 13.2533 41.8011 12.6933 42.7954 12.3066C42.0235 11.9066 41.3694 11.3466 40.8722 10.6399C40.3358 9.87995 40.0087 8.99994 39.8909 8.02661C39.2237 8.99994 38.3994 9.87995 37.4444 10.6399C36.5416 11.3599 35.5734 11.9199 34.5791 12.3066C35.3379 12.7066 35.9921 13.2666 36.5024 13.9733Z" fill="#F26522"/>
<path d="M46.1582 23.32L48.945 14.5466H51.8495L49.0496 23.32H46.1582ZM53.0924 23.32L54.0475 20.2933H50.0178L52.0326 18.2666H54.7016L55.8791 14.5466H58.7836L55.9838 23.32H53.0924Z" fill="white"/>
<path d="M60.0133 14.5333H62.9178L60.118 23.3067H57.2266L60.0133 14.5333Z" fill="white"/>
<path d="M73.2793 16.3733C73.2793 16.68 73.2139 17.0266 73.0961 17.3866L72.7429 18.48L72.6513 18.76C72.2849 19.9333 71.5523 20.6133 70.4533 20.7866L71.8139 23.32H68.9225L67.588 20.8266H65.0499L64.2518 23.32H61.3604L62.7995 18.8L62.8649 18.6266L66.4105 16.5866L65.6909 18.8H68.7917C69.158 18.8 69.4197 18.7466 69.6029 18.6266C69.7729 18.52 69.9168 18.3066 70.0084 18L70.2047 17.3866C70.2178 17.2666 70.2309 17.1866 70.2309 17.1466C70.2309 16.9466 70.1654 16.8 70.0215 16.7066C69.8776 16.6133 69.6552 16.5733 69.3543 16.5733H63.506L64.1471 14.5466H71.0551C71.7616 14.5466 72.3111 14.7066 72.6905 15.0266C73.083 15.3466 73.2793 15.7866 73.2793 16.3733Z" fill="white"/>
<path d="M76.3414 20.36C76.3414 20.64 76.4329 20.8666 76.6292 21.04C76.8254 21.2133 77.1002 21.2933 77.4534 21.2933H82.2943L81.6532 23.32H75.3732C74.6667 23.32 74.1303 23.16 73.7378 22.84C73.3584 22.52 73.1621 22.0666 73.1621 21.4933C73.1621 21.16 73.2144 20.8266 73.3322 20.48L75.2293 14.5466H84.4399L83.7858 16.5733H77.4665L76.4199 19.8533C76.3675 20.0266 76.3414 20.1866 76.3414 20.36ZM78.4478 17.8266H82.7522L82.1111 19.8533H76.4329L78.4478 17.8266Z" fill="white"/>
<path d="M94.148 23.32L95.4955 19.0533L92.748 14.5466H95.7049L97.288 17.0533L100.271 14.5466H103.974L98.2561 19.52L97.0394 23.32H94.148Z" fill="white"/>
<path d="M113.746 16.3733C113.746 16.7066 113.694 17.04 113.576 17.3866L112.346 21.2533C112.124 21.9466 111.784 22.4666 111.326 22.8133C110.868 23.16 110.279 23.3333 109.559 23.3333H104.797C104.091 23.3333 103.554 23.1733 103.162 22.8533C102.782 22.5333 102.586 22.08 102.586 21.5066C102.586 21.1733 102.638 20.84 102.756 20.4933L103.986 16.6266C104.208 15.9333 104.548 15.4133 105.006 15.0666C105.464 14.72 106.053 14.5466 106.773 14.5466H111.548C112.255 14.5466 112.791 14.7066 113.183 15.0266C113.563 15.3466 113.746 15.7866 113.746 16.3733ZM110.292 16.8133C110.096 16.6533 109.821 16.5733 109.468 16.5733H107.95C107.244 16.5733 106.786 16.92 106.563 17.6L105.844 19.8533C105.791 20.0266 105.752 20.1866 105.752 20.36C105.752 20.6533 105.844 20.88 106.04 21.04C106.236 21.2 106.511 21.28 106.864 21.28H108.382C109.088 21.28 109.546 20.9333 109.769 20.2533L110.488 18C110.541 17.8266 110.58 17.6666 110.58 17.4933C110.58 17.2 110.475 16.9733 110.292 16.8133Z" fill="white"/>
<path d="M122.277 22.8C121.819 23.1467 121.23 23.32 120.511 23.32H115.735C115.029 23.32 114.479 23.16 114.1 22.84C113.721 22.52 113.524 22.08 113.524 21.4933C113.524 21.1867 113.59 20.84 113.708 20.4667L115.592 14.5333H118.483L116.795 19.8533C116.743 20.0267 116.704 20.2 116.704 20.3733C116.704 20.6667 116.795 20.8933 116.991 21.0533C117.188 21.2133 117.462 21.2933 117.816 21.2933H119.333C120.053 21.2933 120.511 20.9467 120.72 20.2667L122.526 14.5467H125.417L123.285 21.2533C123.075 21.9333 122.735 22.4533 122.277 22.8Z" fill="white"/>
<path d="M131.54 23.32L129.957 17.3866C129.878 17.08 129.761 16.88 129.617 16.76C129.473 16.64 129.25 16.5733 128.936 16.5733H128.923L126.778 23.32H123.873L126.673 14.5466H130.035C130.768 14.5466 131.344 14.72 131.788 15.0533C132.233 15.3866 132.547 15.9066 132.73 16.6266L133.725 20.4533L135.609 14.56H138.5L135.713 23.3333H131.54V23.32Z" fill="white"/>
<path d="M141.143 21.04C141.339 21.2 141.614 21.28 141.967 21.28H144.531L144.976 19.8533H141.954L143.969 17.8267H148.535L146.782 23.32H139.887C139.18 23.32 138.644 23.16 138.251 22.84C137.872 22.52 137.676 22.0667 137.676 21.4933C137.676 21.16 137.728 20.8267 137.846 20.48L139.076 16.6133C139.298 15.92 139.638 15.4 140.096 15.0533C140.554 14.7067 141.143 14.5333 141.862 14.5333H149.569L148.914 16.56H143.053C142.347 16.56 141.889 16.9067 141.666 17.5867L140.947 19.84C140.894 20.0133 140.855 20.1733 140.855 20.3467C140.855 20.6533 140.947 20.88 141.143 21.04Z" fill="white"/>
<path d="M51.339 26.8133L49.1802 33.56H46.2888L48.4345 26.8133H44.9805L45.6216 24.7866H54.8453L54.1911 26.8133H51.339Z" fill="white"/>
<path d="M56.7295 31.52H59.15L60.6415 26.8C60.262 26.8 59.935 26.8666 59.6602 26.9866C59.3855 27.1066 59.1107 27.32 58.849 27.6133L53.5372 33.5466H50.1094L56.1146 26.84C56.7557 26.12 57.3968 25.6 58.051 25.2666C58.7051 24.9333 59.3855 24.7733 60.105 24.7733H64.2132L61.4134 33.5466H54.924L56.7295 31.52Z" fill="white"/>
<path d="M66.8431 31.2666C67.0393 31.44 67.3141 31.52 67.6673 31.52H71.8932L71.2521 33.5466H65.5871C64.8806 33.5466 64.3441 33.3866 63.9516 33.0666C63.5722 32.7466 63.376 32.2933 63.376 31.72C63.376 31.3866 63.4283 31.0533 63.5461 30.7066L65.4431 24.7733H68.3346L66.6337 30.0933C66.5814 30.2666 66.5421 30.4266 66.5421 30.6C66.5552 30.88 66.6468 31.1066 66.8431 31.2666Z" fill="white"/>
<path d="M75.4644 30.5866C75.4644 30.8666 75.556 31.0933 75.7522 31.2666C75.9485 31.44 76.2232 31.52 76.5765 31.52H81.4173L80.7762 33.5466H74.4962C73.7897 33.5466 73.2533 33.3866 72.8608 33.0666C72.4814 32.7466 72.2852 32.2933 72.2852 31.72C72.2852 31.3866 72.3375 31.0533 72.4552 30.7066L74.3523 24.7733H83.563L82.9088 26.8H76.5896L75.5429 30.08C75.5037 30.2533 75.4644 30.4266 75.4644 30.5866ZM77.5708 28.0666H81.8752L81.2342 30.0933H75.556L77.5708 28.0666Z" fill="white"/>
<path d="M89.6727 33.5466L88.0896 27.6133C88.0111 27.3066 87.8934 27.1066 87.7494 26.9866C87.6055 26.8666 87.3831 26.8 87.0691 26.8H87.056L84.9104 33.5466H82.0059L84.8057 24.7733H88.1812C88.9139 24.7733 89.4895 24.9466 89.9344 25.28C90.3792 25.6133 90.6932 26.1333 90.8764 26.8533L91.8707 30.68L93.7547 24.7866H96.6461L93.8594 33.56H89.6727V33.5466Z" fill="white"/>
<path d="M103.28 26.8133L101.134 33.5466H98.2429L100.389 26.8H96.9346L97.5756 24.7733H106.799L106.145 26.8H103.28V26.8133Z" fill="white"/>
<path d="M109.808 27.28C109.769 27.3866 109.743 27.4933 109.743 27.6C109.743 27.92 109.965 28.0933 110.423 28.0933H113.301C114.57 28.0933 115.198 28.6266 115.198 29.68C115.198 30.0266 115.12 30.44 114.963 30.9333H114.976L114.806 31.4666C114.57 32.1733 114.23 32.6933 113.772 33.0266C113.314 33.36 112.739 33.5333 112.019 33.5333H104.954L105.595 31.5066H111.182C111.43 31.5066 111.627 31.4666 111.771 31.3866C111.914 31.3066 112.019 31.16 112.085 30.9333H112.071C112.111 30.8266 112.137 30.72 112.137 30.6133C112.137 30.2933 111.914 30.12 111.457 30.12H108.945C108.238 30.12 107.689 29.96 107.309 29.64C106.93 29.32 106.733 28.8666 106.733 28.2933C106.733 27.9733 106.799 27.64 106.917 27.28L107.047 26.84C107.283 26.1333 107.623 25.6133 108.081 25.28C108.539 24.9466 109.115 24.7733 109.834 24.7733H116.899L116.258 26.8H110.672C110.397 26.8 110.201 26.8266 110.07 26.88C109.965 26.9333 109.873 27.0666 109.808 27.28Z" fill="white"/>
</svg>
