<svg width="157" height="48" viewBox="0 0 157 48" fill="none" xmlns="http://www.w3.org/2000/svg">
<path d="M16.773 18.9733C16.2889 17.8933 15.7917 16.8133 15.2684 15.76C17.1524 15.3733 19.0233 14.88 20.8419 14.2667C21.797 13.9467 22.739 13.6 23.6679 13.2267C25.0678 11.84 26.3631 10.3733 27.5667 8.85333C25.1987 10.1467 22.7259 11.2267 20.1485 12.08C17.4402 12.9867 14.6666 13.6267 11.8406 14.0133C12.9134 16.04 13.9208 18.12 14.8628 20.24C15.5039 19.8267 16.145 19.4133 16.773 18.9733Z" fill="white"/>
<path d="M32.198 29.0266C32.6821 30.1066 33.1793 31.1866 33.7026 32.2533C31.8186 32.64 29.9477 33.1333 28.1291 33.7466C27.174 34.0666 26.232 34.4133 25.3031 34.7866C23.9032 36.1733 22.608 37.64 21.4043 39.16C23.7724 37.8667 26.2451 36.7866 28.8225 35.9333C31.5308 35.0266 34.3045 34.3866 37.1305 34C36.0576 31.9733 35.0502 29.8933 34.1082 27.7733C33.4671 28.1733 32.826 28.5866 32.198 29.0266Z" fill="white"/>
<path d="M28.0115 13.1467C28.7834 15.2 29.7908 17.1067 31.0337 18.8933C32.2374 20.6133 33.6373 22.16 35.2204 23.5067C32.6299 24.9067 30.131 26.56 27.7498 28.4533C25.2901 30.4 23.0267 32.5467 20.9726 34.8533C20.2007 32.8 19.1933 30.8933 17.9504 29.1067C16.7467 27.3867 15.3468 25.84 13.7637 24.4933C16.3542 23.0933 18.8531 21.44 21.2343 19.5467C23.694 17.6 25.9574 15.4533 28.0115 13.1467ZM29.4768 6.23999C26.7293 10.2533 23.3015 13.9333 19.3372 17.08C15.5954 20.04 11.5657 22.3733 7.4314 24C10.6368 25.64 13.3581 27.96 15.4384 30.92C17.6364 34.0667 18.9971 37.7467 19.4811 41.76C22.2286 37.7467 25.6565 34.0667 29.6207 30.92C33.3626 27.96 37.3922 25.6267 41.5266 24C38.3211 22.36 35.5998 20.04 33.5196 17.08C31.3347 13.9333 29.974 10.2533 29.4768 6.23999Z" fill="url(#paint0_linear_102_235)"/>
<path d="M36.5026 13.9733C37.039 14.7333 37.3661 15.6133 37.4838 16.5867C38.1511 15.6133 38.9753 14.7333 39.9304 13.9733C40.8332 13.2533 41.8013 12.6933 42.7957 12.3067C42.0238 11.9067 41.3696 11.3467 40.8724 10.64C40.336 9.88001 40.0089 9.00001 39.8912 8.02667C39.2239 9.00001 38.3997 9.88001 37.4446 10.64C36.5418 11.36 35.5737 11.92 34.5793 12.3067C35.3382 12.7067 35.9923 13.2667 36.5026 13.9733Z" fill="url(#paint1_linear_102_235)"/>
<path d="M46.158 23.32L48.9447 14.5466H51.8492L49.0494 23.32H46.158ZM53.0921 23.32L54.0472 20.2933H50.0175L52.0324 18.2666H54.7014L55.8789 14.5466H58.7834L55.9835 23.32H53.0921Z" fill="white"/>
<path d="M60.0133 14.5333H62.9178L60.118 23.3067H57.2266L60.0133 14.5333Z" fill="white"/>
<path d="M73.2798 16.3733C73.2798 16.68 73.2143 17.0266 73.0966 17.3866L72.7433 18.48L72.6518 18.76C72.2854 19.9333 71.5528 20.6133 70.4538 20.7866L71.8144 23.32H68.923L67.5885 20.8266H65.0503L64.2523 23.32H61.3608L62.8 18.8L62.8654 18.6266L66.411 16.5866L65.6914 18.8H68.7922C69.1585 18.8 69.4202 18.7466 69.6033 18.6266C69.7734 18.52 69.9173 18.3066 70.0089 18L70.2052 17.3866C70.2183 17.2666 70.2313 17.1866 70.2313 17.1466C70.2313 16.9466 70.1659 16.8 70.022 16.7066C69.8781 16.6133 69.6557 16.5733 69.3548 16.5733H63.5065L64.1476 14.5466H71.0556C71.7621 14.5466 72.3116 14.7066 72.691 15.0266C73.0835 15.3466 73.2798 15.7866 73.2798 16.3733Z" fill="white"/>
<path d="M76.3414 20.36C76.3414 20.64 76.4329 20.8666 76.6292 21.04C76.8254 21.2133 77.1002 21.2933 77.4534 21.2933H82.2943L81.6532 23.32H75.3732C74.6667 23.32 74.1303 23.16 73.7378 22.84C73.3584 22.52 73.1621 22.0666 73.1621 21.4933C73.1621 21.16 73.2144 20.8266 73.3322 20.48L75.2293 14.5466H84.4399L83.7858 16.5733H77.4665L76.4199 19.8533C76.3675 20.0266 76.3414 20.1866 76.3414 20.36ZM78.4478 17.8266H82.7522L82.1111 19.8533H76.4329L78.4478 17.8266Z" fill="white"/>
<path d="M94.1475 23.32L95.4951 19.0533L92.7476 14.5466H95.7044L97.2875 17.0533L100.27 14.5466H103.973L98.2556 19.52L97.0389 23.32H94.1475Z" fill="white"/>
<path d="M113.747 16.3733C113.747 16.7066 113.694 17.04 113.576 17.3866L112.347 21.2533C112.124 21.9466 111.784 22.4666 111.326 22.8133C110.868 23.16 110.279 23.3333 109.56 23.3333H104.798C104.091 23.3333 103.555 23.1733 103.162 22.8533C102.783 22.5333 102.586 22.08 102.586 21.5066C102.586 21.1733 102.639 20.84 102.757 20.4933L103.986 16.6266C104.209 15.9333 104.549 15.4133 105.007 15.0666C105.465 14.72 106.054 14.5466 106.773 14.5466H111.549C112.255 14.5466 112.791 14.7066 113.184 15.0266C113.563 15.3466 113.747 15.7866 113.747 16.3733ZM110.293 16.8133C110.096 16.6533 109.822 16.5733 109.468 16.5733H107.951C107.244 16.5733 106.786 16.92 106.564 17.6L105.844 19.8533C105.792 20.0266 105.753 20.1866 105.753 20.36C105.753 20.6533 105.844 20.88 106.04 21.04C106.237 21.2 106.511 21.28 106.865 21.28H108.382C109.089 21.28 109.547 20.9333 109.769 20.2533L110.489 18C110.541 17.8266 110.58 17.6666 110.58 17.4933C110.58 17.2 110.476 16.9733 110.293 16.8133Z" fill="white"/>
<path d="M122.277 22.8C121.819 23.1467 121.23 23.32 120.51 23.32H115.735C115.029 23.32 114.479 23.16 114.1 22.84C113.72 22.52 113.524 22.08 113.524 21.4933C113.524 21.1867 113.589 20.84 113.707 20.4667L115.591 14.5333H118.483L116.795 19.8533C116.742 20.0267 116.703 20.2 116.703 20.3733C116.703 20.6667 116.795 20.8933 116.991 21.0533C117.187 21.2133 117.462 21.2933 117.815 21.2933H119.333C120.053 21.2933 120.51 20.9467 120.72 20.2667L122.525 14.5467H125.417L123.284 21.2533C123.075 21.9333 122.735 22.4533 122.277 22.8Z" fill="white"/>
<path d="M131.54 23.32L129.957 17.3866C129.878 17.08 129.761 16.88 129.617 16.76C129.473 16.64 129.25 16.5733 128.936 16.5733H128.923L126.778 23.32H123.873L126.673 14.5466H130.035C130.768 14.5466 131.344 14.72 131.788 15.0533C132.233 15.3866 132.547 15.9066 132.73 16.6266L133.725 20.4533L135.609 14.56H138.5L135.713 23.3333H131.54V23.32Z" fill="white"/>
<path d="M141.143 21.04C141.339 21.2 141.614 21.28 141.967 21.28H144.531L144.976 19.8533H141.954L143.969 17.8267H148.535L146.782 23.32H139.887C139.18 23.32 138.644 23.16 138.251 22.84C137.872 22.52 137.676 22.0667 137.676 21.4933C137.676 21.16 137.728 20.8267 137.846 20.48L139.076 16.6133C139.298 15.92 139.638 15.4 140.096 15.0533C140.554 14.7067 141.143 14.5333 141.862 14.5333H149.569L148.914 16.56H143.053C142.347 16.56 141.889 16.9067 141.666 17.5867L140.947 19.84C140.894 20.0133 140.855 20.1733 140.855 20.3467C140.855 20.6533 140.947 20.88 141.143 21.04Z" fill="white"/>
<path d="M51.339 26.8134L49.1802 33.56H46.2888L48.4345 26.8134H44.9805L45.6216 24.7867H54.8453L54.1911 26.8134H51.339Z" fill="white"/>
<path d="M56.7293 31.52H59.1497L60.6412 26.8C60.2618 26.8 59.9347 26.8666 59.66 26.9866C59.3852 27.1066 59.1105 27.32 58.8488 27.6133L53.537 33.5466H50.1091L56.1144 26.84C56.7555 26.12 57.3965 25.6 58.0507 25.2666C58.7049 24.9333 59.3852 24.7733 60.1048 24.7733H64.213L61.4131 33.5466H54.9238L56.7293 31.52Z" fill="white"/>
<path d="M66.8428 31.2666C67.0391 31.44 67.3138 31.52 67.6671 31.52H71.893L71.2519 33.5466H65.5868C64.8803 33.5466 64.3439 33.3866 63.9514 33.0666C63.572 32.7466 63.3757 32.2933 63.3757 31.72C63.3757 31.3866 63.4281 31.0533 63.5458 30.7066L65.4429 24.7733H68.3343L66.6335 30.0933C66.5811 30.2666 66.5419 30.4266 66.5419 30.6C66.555 30.88 66.6466 31.1066 66.8428 31.2666Z" fill="white"/>
<path d="M75.4644 30.5866C75.4644 30.8666 75.556 31.0933 75.7522 31.2666C75.9485 31.44 76.2232 31.52 76.5765 31.52H81.4173L80.7762 33.5466H74.4962C73.7897 33.5466 73.2533 33.3866 72.8608 33.0666C72.4814 32.7466 72.2852 32.2933 72.2852 31.72C72.2852 31.3866 72.3375 31.0533 72.4552 30.7066L74.3523 24.7733H83.563L82.9088 26.8H76.5896L75.5429 30.08C75.5037 30.2533 75.4644 30.4266 75.4644 30.5866ZM77.5708 28.0666H81.8752L81.2342 30.0933H75.556L77.5708 28.0666Z" fill="white"/>
<path d="M89.6732 33.5466L88.0901 27.6133C88.0116 27.3066 87.8939 27.1066 87.7499 26.9866C87.606 26.8666 87.3836 26.8 87.0696 26.8H87.0565L84.9108 33.5466H82.0063L84.8062 24.7733H88.1817C88.9143 24.7733 89.49 24.9466 89.9349 25.28C90.3797 25.6133 90.6937 26.1333 90.8768 26.8533L91.8712 30.68L93.7552 24.7866H96.6466L93.8599 33.56H89.6732V33.5466Z" fill="white"/>
<path d="M103.28 26.8133L101.134 33.5466H98.2429L100.389 26.8H96.9346L97.5756 24.7733H106.799L106.145 26.8H103.28V26.8133Z" fill="white"/>
<path d="M109.809 27.28C109.769 27.3866 109.743 27.4933 109.743 27.6C109.743 27.92 109.966 28.0933 110.423 28.0933H113.302C114.571 28.0933 115.199 28.6266 115.199 29.68C115.199 30.0266 115.12 30.44 114.963 30.9333H114.976L114.806 31.4666C114.571 32.1733 114.231 32.6933 113.773 33.0266C113.315 33.36 112.739 33.5333 112.02 33.5333H104.955L105.596 31.5066H111.182C111.431 31.5066 111.627 31.4666 111.771 31.3866C111.915 31.3066 112.02 31.16 112.085 30.9333H112.072C112.111 30.8266 112.137 30.72 112.137 30.6133C112.137 30.2933 111.915 30.12 111.457 30.12H108.945C108.239 30.12 107.689 29.96 107.31 29.64C106.93 29.32 106.734 28.8666 106.734 28.2933C106.734 27.9733 106.799 27.64 106.917 27.28L107.048 26.84C107.283 26.1333 107.624 25.6133 108.082 25.28C108.539 24.9466 109.115 24.7733 109.835 24.7733H116.9L116.259 26.8H110.672C110.397 26.8 110.201 26.8266 110.07 26.88C109.966 26.9333 109.874 27.0666 109.809 27.28Z" fill="white"/>
<defs>
<linearGradient id="paint0_linear_102_235" x1="24.479" y1="6.23999" x2="24.479" y2="41.76" gradientUnits="userSpaceOnUse">
<stop stop-color="#FF5200"/>
<stop offset="1" stop-color="#FF00A8"/>
</linearGradient>
<linearGradient id="paint1_linear_102_235" x1="38.6875" y1="8.02667" x2="38.6875" y2="16.5867" gradientUnits="userSpaceOnUse">
<stop stop-color="#FF5200"/>
<stop offset="1" stop-color="#FF00A8"/>
</linearGradient>
</defs>
</svg>
