<svg width="20" height="20" viewBox="0 0 20 20" fill="none" xmlns="http://www.w3.org/2000/svg">
<g clip-path="url(#clip0_102_148)">
<path d="M16.1286 5.52973L19.8391 2.47727C20.0273 2.32242 20.0543 2.04431 19.8995 1.85607C19.7446 1.66787 19.4665 1.6408 19.2783 1.79565L15.3117 5.0588C13.6797 4.20611 11.8554 3.75777 9.99998 3.75777C7.9496 3.75777 5.93719 4.3052 4.18035 5.34086C2.47535 6.34594 1.05031 7.78269 0.0592966 9.49574C-0.0197655 9.63244 -0.0197655 9.80106 0.0592966 9.93776C1.05035 11.6508 2.47535 13.0876 4.18035 14.0926C4.20957 14.1099 4.2391 14.1266 4.26846 14.1436L0.160948 17.5227C-0.0272505 17.6776 -0.0543216 17.9557 0.100531 18.1439C0.187795 18.25 0.314187 18.3048 0.44161 18.3048C0.540258 18.3048 0.639534 18.2719 0.721734 18.2043L5.1182 14.5875C6.63777 15.3017 8.30588 15.6757 10.0001 15.6757C12.0504 15.6757 14.0628 15.1283 15.8197 14.0926C17.5246 13.0876 18.9497 11.6508 19.9407 9.93776C20.0198 9.80106 20.0198 9.63244 19.9407 9.49574C19.0101 7.88725 17.6969 6.5224 16.1286 5.52973ZM5.00073 13.5412C4.87546 13.474 4.75126 13.4047 4.62859 13.3323C3.12811 12.4478 1.86244 11.2012 0.954752 9.71675C1.86244 8.23232 3.12811 6.9857 4.62859 6.10118C6.24972 5.14553 8.10715 4.64041 9.99998 4.64041C11.5862 4.64041 13.1474 4.99534 14.5656 5.67261L12.7554 7.1618C12.0682 6.42124 11.0875 5.95659 10 5.95659C7.92666 5.95659 6.23986 7.64343 6.23986 9.71675C6.23986 10.5428 6.50829 11.307 6.96155 11.9281L5.00073 13.5412ZM12.5817 8.44759C12.7708 8.83071 12.8775 9.26143 12.8775 9.71675C12.8775 11.3034 11.5867 12.5943 10 12.5943C9.34552 12.5943 8.74166 12.3742 8.2577 12.0048L12.5817 8.44759ZM7.64438 11.3664C7.31599 10.8989 7.12245 10.3302 7.12245 9.71675C7.12245 8.13004 8.41331 6.83918 10 6.83918C10.8135 6.83918 11.5486 7.17905 12.0725 7.72357L7.64438 11.3664ZM15.3714 13.3323C13.7503 14.288 11.8929 14.7931 10 14.7931C8.57816 14.7931 7.17633 14.508 5.8796 13.9611L7.56267 12.5765C8.2196 13.1372 9.07064 13.4768 10 13.4768C12.0734 13.4768 13.7601 11.79 13.7601 9.71671C13.7601 9.04817 13.584 8.42029 13.2768 7.87573L15.4073 6.12305C16.8919 7.00627 18.1448 8.24424 19.0452 9.71671C18.1375 11.2012 16.8718 12.4478 15.3714 13.3323Z" fill="#D9D9D9"/>
</g>
<defs>
<clipPath id="clip0_102_148">
<rect width="20" height="20" fill="white"/>
</clipPath>
</defs>
</svg>
