<svg width="20" height="20" viewBox="0 0 20 20" fill="none" xmlns="http://www.w3.org/2000/svg">
<path d="M10.8337 13.3333H12.0837C12.3137 13.3333 12.5003 13.5199 12.5003 13.75C12.5003 13.9801 12.3137 14.1667 12.0837 14.1667H8.75033C8.52024 14.1667 8.33366 13.9801 8.33366 13.75C8.33366 13.5199 8.52024 13.3333 8.75033 13.3333H10.0003V9.16666H8.75033C8.52024 9.16666 8.33366 8.98007 8.33366 8.74999C8.33366 8.51991 8.52024 8.33332 8.75033 8.33332H10.417C10.6471 8.33332 10.8337 8.51991 10.8337 8.74999V13.3333ZM10.0003 18.3333C5.39795 18.3333 1.66699 14.6023 1.66699 9.99999C1.66699 5.39761 5.39795 1.66666 10.0003 1.66666C14.6027 1.66666 18.3337 5.39761 18.3337 9.99999C18.3337 14.6023 14.6027 18.3333 10.0003 18.3333ZM10.0003 17.5C14.1425 17.5 17.5003 14.1422 17.5003 9.99999C17.5003 5.85786 14.1425 2.49999 10.0003 2.49999C5.85819 2.49999 2.50033 5.85786 2.50033 9.99999C2.50033 14.1422 5.85819 17.5 10.0003 17.5ZM9.58366 5.83332H10.417C10.6471 5.83332 10.8337 6.01987 10.8337 6.24999V7.08332C10.8337 7.31344 10.6471 7.49999 10.417 7.49999H9.58366C9.35358 7.49999 9.16699 7.31344 9.16699 7.08332V6.24999C9.16699 6.01987 9.35358 5.83332 9.58366 5.83332Z" fill="#F26522"/>
</svg>
