<svg width="20" height="20" viewBox="0 0 20 20" fill="none" xmlns="http://www.w3.org/2000/svg">
<path d="M10.8332 13.3334H12.0832C12.3133 13.3334 12.4998 13.5199 12.4998 13.75C12.4998 13.9801 12.3133 14.1667 12.0832 14.1667H8.74984C8.51975 14.1667 8.33317 13.9801 8.33317 13.75C8.33317 13.5199 8.51975 13.3334 8.74984 13.3334H9.99984V9.16669H8.74984C8.51975 9.16669 8.33317 8.9801 8.33317 8.75002C8.33317 8.51994 8.51975 8.33335 8.74984 8.33335H10.4165C10.6466 8.33335 10.8332 8.51994 10.8332 8.75002V13.3334ZM9.99984 18.3334C5.39746 18.3334 1.6665 14.6024 1.6665 10C1.6665 5.39765 5.39746 1.66669 9.99984 1.66669C14.6022 1.66669 18.3332 5.39765 18.3332 10C18.3332 14.6024 14.6022 18.3334 9.99984 18.3334ZM9.99984 17.5C14.142 17.5 17.4998 14.1422 17.4998 10C17.4998 5.85789 14.142 2.50002 9.99984 2.50002C5.8577 2.50002 2.49984 5.85789 2.49984 10C2.49984 14.1422 5.8577 17.5 9.99984 17.5ZM9.58317 5.83335H10.4165C10.6466 5.83335 10.8332 6.0199 10.8332 6.25002V7.08335C10.8332 7.31347 10.6466 7.50002 10.4165 7.50002H9.58317C9.35309 7.50002 9.1665 7.31347 9.1665 7.08335V6.25002C9.1665 6.0199 9.35309 5.83335 9.58317 5.83335Z" fill="url(#paint0_linear_102_143)"/>
<defs>
<linearGradient id="paint0_linear_102_143" x1="0.175276" y1="1.66669" x2="21.947" y2="7.92198" gradientUnits="userSpaceOnUse">
<stop stop-color="#FF5200"/>
<stop offset="1" stop-color="#FF00A8"/>
</linearGradient>
</defs>
</svg>
