<svg width="20" height="20" viewBox="0 0 20 20" fill="none" xmlns="http://www.w3.org/2000/svg">
<path fill-rule="evenodd" clip-rule="evenodd" d="M0.830566 7.51067C0.830566 4.5134 3.26315 2.08081 6.26044 2.08081C7.72931 2.08081 9.04051 2.75705 10 3.69053C10.9595 2.75705 12.2707 2.08081 13.7396 2.08081C16.7369 2.08081 19.1694 4.5134 19.1694 7.51067C19.1694 8.9898 18.5761 10.3285 17.6169 11.3047L17.6144 11.3072L10.0001 18.9269L2.38399 11.3107L2.38228 11.309C1.42401 10.3282 0.830566 8.99 0.830566 7.51067ZM6.26044 2.9197C3.72644 2.9197 1.66945 4.9767 1.66945 7.51067C1.66945 8.75963 2.16907 9.88954 2.98064 10.721L9.99991 17.7403L17.0185 10.7167C17.0189 10.7163 17.0193 10.7159 17.0197 10.7155C17.8306 9.88967 18.3306 8.7601 18.3306 7.51067C18.3306 4.9767 16.2736 2.9197 13.7396 2.9197C12.3964 2.9197 11.1701 3.6121 10.3135 4.5758L10 4.92847L9.68651 4.5758C8.82991 3.6121 7.60364 2.9197 6.26044 2.9197Z" fill="url(#paint0_linear_21_2151)"/>
<defs>
<linearGradient id="paint0_linear_21_2151" x1="-0.81028" y1="2.08081" x2="22.8125" y2="9.46936" gradientUnits="userSpaceOnUse">
<stop stop-color="#FF5200"/>
<stop offset="1" stop-color="#FF00A8"/>
</linearGradient>
</defs>
</svg>
