<svg width="20" height="20" viewBox="0 0 20 20" fill="none" xmlns="http://www.w3.org/2000/svg">
<path d="M15.1217 9.3925C14.8923 9.3925 14.7058 9.57895 14.7058 9.80836V14.1208C14.7058 15.2506 13.7868 16.1697 12.657 16.1697H5.88054C4.75078 16.1697 3.83172 15.2506 3.83172 14.1208V7.34438C3.83172 6.21462 4.75078 5.29557 5.88054 5.29557H10.193C10.4231 5.29557 10.6089 5.10912 10.6089 4.87971C10.6089 4.65029 10.4224 4.46384 10.193 4.46384H5.88054C4.29194 4.46384 3 5.75579 3 7.34369V14.1202C3 15.7081 4.29194 17 5.88054 17H12.657C14.2449 17 15.5369 15.7081 15.5369 14.1202V9.80767C15.5369 9.57825 15.3504 9.39181 15.121 9.39181L15.1217 9.3925Z" fill="#F26522"/>
<path d="M16.5843 3H13.2561C13.0266 3 12.8402 3.18644 12.8402 3.41586C12.8402 3.64528 13.0266 3.83172 13.2561 3.83172H15.5807L10.2632 9.14852C10.1011 9.31001 10.1011 9.57408 10.2632 9.73627C10.3443 9.81736 10.4511 9.85826 10.5571 9.85826C10.6632 9.85826 10.7699 9.81736 10.851 9.73627L16.1678 4.41948V6.76494C16.1678 6.99435 16.3542 7.1808 16.5836 7.1808C16.8131 7.1808 16.9995 6.99435 16.9995 6.76494V3.41586C16.9995 3.18644 16.8138 3 16.5843 3Z" fill="#F26522"/>
</svg>
