<svg width="20" height="20" viewBox="0 0 20 20" fill="none" xmlns="http://www.w3.org/2000/svg">
<path d="M15.1217 9.39252C14.8923 9.39252 14.7058 9.57897 14.7058 9.80838V14.1209C14.7058 15.2506 13.7868 16.1697 12.657 16.1697H5.88054C4.75078 16.1697 3.83172 15.2506 3.83172 14.1209V7.3444C3.83172 6.21465 4.75078 5.29559 5.88054 5.29559H10.193C10.4231 5.29559 10.6089 5.10915 10.6089 4.87973C10.6089 4.65031 10.4224 4.46387 10.193 4.46387H5.88054C4.29194 4.46387 3 5.75581 3 7.34371V14.1202C3 15.7081 4.29194 17 5.88054 17H12.657C14.2449 17 15.5369 15.7081 15.5369 14.1202V9.80769C15.5369 9.57828 15.3504 9.39183 15.121 9.39183L15.1217 9.39252Z" fill="url(#paint0_linear_102_90)"/>
<path d="M16.5843 3H13.2561C13.0266 3 12.8402 3.18644 12.8402 3.41586C12.8402 3.64528 13.0266 3.83172 13.2561 3.83172H15.5807L10.2632 9.14852C10.1011 9.31001 10.1011 9.57408 10.2632 9.73627C10.3443 9.81736 10.4511 9.85826 10.5571 9.85826C10.6632 9.85826 10.7699 9.81736 10.851 9.73627L16.1678 4.41948V6.76494C16.1678 6.99435 16.3542 7.1808 16.5836 7.1808C16.8131 7.1808 16.9995 6.99435 16.9995 6.76494V3.41586C16.9995 3.18644 16.8138 3 16.5843 3Z" fill="url(#paint1_linear_102_90)"/>
<defs>
<linearGradient id="paint0_linear_102_90" x1="1.87828" y1="4.46387" x2="18.2551" y2="9.16939" gradientUnits="userSpaceOnUse">
<stop stop-color="#FF5200"/>
<stop offset="1" stop-color="#FF00A8"/>
</linearGradient>
<linearGradient id="paint1_linear_102_90" x1="9.528" y1="3" x2="18.4866" y2="5.57378" gradientUnits="userSpaceOnUse">
<stop stop-color="#FF5200"/>
<stop offset="1" stop-color="#FF00A8"/>
</linearGradient>
</defs>
</svg>
