<svg width="240" height="72" viewBox="0 0 240 72" fill="none" xmlns="http://www.w3.org/2000/svg">
<path d="M25.6401 28.46C24.9001 26.84 24.1401 25.22 23.3401 23.64C26.2201 23.06 29.0801 22.32 31.8601 21.4C33.3201 20.92 34.7601 20.4 36.1801 19.84C38.3201 17.76 40.3001 15.56 42.1401 13.28C38.5201 15.22 34.7401 16.84 30.8001 18.12C26.6601 19.48 22.4201 20.44 18.1001 21.02C19.7401 24.06 21.2801 27.18 22.7201 30.36C23.7001 29.74 24.6801 29.12 25.6401 28.46Z" fill="white"/>
<path d="M49.2202 43.54C49.9602 45.16 50.7202 46.78 51.5202 48.38C48.6402 48.96 45.7802 49.7 43.0002 50.62C41.5402 51.1 40.1002 51.62 38.6802 52.18C36.5402 54.26 34.5602 56.46 32.7202 58.74C36.3402 56.8 40.1202 55.18 44.0602 53.9C48.2002 52.54 52.4402 51.58 56.7602 51C55.1202 47.96 53.5802 44.84 52.1402 41.66C51.1602 42.26 50.1802 42.88 49.2202 43.54Z" fill="white"/>
<path d="M42.8201 19.72C44.0001 22.8 45.5401 25.66 47.4401 28.34C49.2801 30.92 51.4201 33.24 53.8401 35.26C49.8801 37.36 46.0601 39.84 42.4201 42.68C38.6601 45.6 35.2001 48.82 32.0601 52.28C30.8801 49.2 29.3401 46.34 27.4401 43.66C25.6001 41.08 23.4601 38.76 21.0401 36.74C25.0001 34.64 28.8201 32.16 32.4601 29.32C36.2201 26.4 39.6801 23.18 42.8201 19.72ZM45.0601 9.35999C40.8601 15.38 35.6201 20.9 29.5601 25.62C23.8401 30.06 17.6801 33.56 11.3601 36C16.2601 38.46 20.4201 41.94 23.6001 46.38C26.9601 51.1 29.0401 56.62 29.7801 62.64C33.9801 56.62 39.2201 51.1 45.2801 46.38C51.0001 41.94 57.1601 38.44 63.4801 36C58.5801 33.54 54.4201 30.06 51.2401 25.62C47.9001 20.9 45.8201 15.38 45.0601 9.35999Z" fill="url(#paint0_linear_101_477)"/>
<path d="M55.8001 20.96C56.6201 22.1 57.1201 23.42 57.3001 24.88C58.3201 23.42 59.5801 22.1 61.0401 20.96C62.4201 19.88 63.9001 19.04 65.4201 18.46C64.2401 17.86 63.2401 17.02 62.4801 15.96C61.6601 14.82 61.1601 13.5 60.9801 12.04C59.9601 13.5 58.7001 14.82 57.2401 15.96C55.8601 17.04 54.3801 17.88 52.8601 18.46C54.0201 19.06 55.0201 19.9 55.8001 20.96Z" fill="white"/>
<path d="M70.5601 34.9801L74.8201 21.8201H79.2601L74.9801 34.9801H70.5601ZM81.1601 34.9801L82.6201 30.4401H76.4601L79.5401 27.4001H83.6201L85.4201 21.8201H89.8601L85.5801 34.9801H81.1601Z" fill="white"/>
<path d="M91.74 21.8H96.18L91.9 34.9601H87.48L91.74 21.8Z" fill="white"/>
<path d="M112.02 24.5601C112.02 25.0201 111.92 25.5401 111.74 26.0801L111.2 27.7201L111.06 28.1401C110.5 29.9001 109.38 30.9201 107.7 31.1801L109.78 34.9801H105.36L103.32 31.2401H99.4401L98.2201 34.9801H93.8L96 28.2001L96.1 27.9401L101.52 24.8801L100.42 28.2001H105.16C105.72 28.2001 106.12 28.1201 106.4 27.9401C106.66 27.7801 106.88 27.4601 107.02 27.0001L107.32 26.0801C107.34 25.9001 107.36 25.7801 107.36 25.7201C107.36 25.4201 107.26 25.2001 107.04 25.0601C106.82 24.9201 106.48 24.8601 106.02 24.8601H97.08L98.06 21.8201H108.62C109.7 21.8201 110.54 22.0601 111.12 22.5401C111.72 23.0201 112.02 23.6801 112.02 24.5601Z" fill="white"/>
<path d="M116.7 30.5401C116.7 30.9601 116.84 31.3001 117.14 31.5601C117.44 31.8201 117.86 31.9401 118.4 31.9401H125.8L124.82 34.9801H115.22C114.14 34.9801 113.32 34.7401 112.72 34.2601C112.14 33.7801 111.84 33.1001 111.84 32.2401C111.84 31.7401 111.92 31.2401 112.1 30.7201L115 21.8201H129.08L128.08 24.8601H118.42L116.82 29.7801C116.74 30.0401 116.7 30.2801 116.7 30.5401ZM119.92 26.7401H126.5L125.52 29.7801H116.84L119.92 26.7401Z" fill="white"/>
<path d="M143.92 34.9801L145.98 28.5801L141.78 21.8201H146.3L148.72 25.5801L153.28 21.8201H158.94L150.2 29.2801L148.34 34.9801H143.92Z" fill="white"/>
<path d="M173.88 24.5601C173.88 25.0601 173.8 25.5601 173.62 26.0801L171.74 31.8801C171.4 32.9201 170.88 33.7001 170.18 34.2201C169.48 34.7401 168.58 35.0001 167.48 35.0001H160.2C159.12 35.0001 158.3 34.7601 157.7 34.2801C157.12 33.8001 156.82 33.1201 156.82 32.2601C156.82 31.7601 156.9 31.2601 157.08 30.7401L158.96 24.9401C159.3 23.9001 159.82 23.1201 160.52 22.6001C161.22 22.0801 162.12 21.8201 163.22 21.8201H170.52C171.6 21.8201 172.42 22.0601 173.02 22.5401C173.6 23.0201 173.88 23.6801 173.88 24.5601ZM168.6 25.2201C168.3 24.9801 167.88 24.8601 167.34 24.8601H165.02C163.94 24.8601 163.24 25.3801 162.9 26.4001L161.8 29.7801C161.72 30.0401 161.66 30.2801 161.66 30.5401C161.66 30.9801 161.8 31.3201 162.1 31.5601C162.4 31.8001 162.82 31.9201 163.36 31.9201H165.68C166.76 31.9201 167.46 31.4001 167.8 30.3801L168.9 27.0001C168.98 26.7401 169.04 26.5001 169.04 26.2401C169.04 25.8001 168.88 25.4601 168.6 25.2201Z" fill="white"/>
<path d="M186.92 34.2C186.22 34.72 185.32 34.98 184.22 34.98H176.92C175.84 34.98 175 34.74 174.42 34.26C173.84 33.78 173.54 33.12 173.54 32.24C173.54 31.78 173.64 31.26 173.82 30.7L176.7 21.8H181.12L178.54 29.78C178.46 30.04 178.4 30.3 178.4 30.56C178.4 31 178.54 31.34 178.84 31.58C179.14 31.82 179.56 31.94 180.1 31.94H182.42C183.52 31.94 184.22 31.42 184.54 30.4L187.3 21.82H191.72L188.46 31.88C188.14 32.9 187.62 33.68 186.92 34.2Z" fill="white"/>
<path d="M201.08 34.9801L198.66 26.0801C198.54 25.6201 198.36 25.3201 198.14 25.1401C197.92 24.9601 197.58 24.8601 197.1 24.8601H197.08L193.8 34.9801H189.36L193.64 21.8201H198.78C199.9 21.8201 200.78 22.0801 201.46 22.5801C202.14 23.0801 202.62 23.8601 202.9 24.9401L204.42 30.6801L207.3 21.8401H211.72L207.46 35.0001H201.08V34.9801Z" fill="white"/>
<path d="M215.76 31.56C216.06 31.8 216.48 31.92 217.02 31.92H220.94L221.62 29.78H217L220.08 26.74H227.06L224.38 34.98H213.84C212.76 34.98 211.94 34.74 211.34 34.26C210.76 33.78 210.46 33.1 210.46 32.24C210.46 31.74 210.54 31.24 210.72 30.72L212.6 24.92C212.94 23.88 213.46 23.1 214.16 22.58C214.86 22.06 215.76 21.8 216.86 21.8H228.64L227.64 24.84H218.68C217.6 24.84 216.9 25.36 216.56 26.38L215.46 29.76C215.38 30.02 215.32 30.26 215.32 30.52C215.32 30.98 215.46 31.32 215.76 31.56Z" fill="white"/>
<path d="M78.48 40.2201L75.18 50.3401H70.76L74.04 40.2201H68.76L69.74 37.1801H83.84L82.84 40.2201H78.48Z" fill="white"/>
<path d="M86.7201 47.28H90.4201L92.7001 40.2C92.1201 40.2 91.6201 40.3 91.2001 40.48C90.7801 40.66 90.3601 40.98 89.9601 41.42L81.8401 50.32H76.6001L85.7801 40.26C86.7601 39.18 87.7401 38.4 88.7401 37.9C89.7401 37.4 90.7801 37.16 91.8801 37.16H98.1601L93.8801 50.32H83.9601L86.7201 47.28Z" fill="white"/>
<path d="M102.18 46.9C102.48 47.16 102.9 47.28 103.44 47.28H109.9L108.92 50.32H100.26C99.1801 50.32 98.3601 50.08 97.7601 49.6C97.1801 49.12 96.8801 48.44 96.8801 47.58C96.8801 47.08 96.9601 46.58 97.1401 46.06L100.04 37.16H104.46L101.86 45.14C101.78 45.4 101.72 45.64 101.72 45.9C101.74 46.32 101.88 46.66 102.18 46.9Z" fill="white"/>
<path d="M115.36 45.88C115.36 46.3 115.5 46.64 115.8 46.9C116.1 47.16 116.52 47.28 117.06 47.28H124.46L123.48 50.32H113.88C112.8 50.32 111.98 50.08 111.38 49.6C110.8 49.12 110.5 48.44 110.5 47.58C110.5 47.08 110.58 46.58 110.76 46.06L113.66 37.16H127.74L126.74 40.2H117.08L115.48 45.12C115.42 45.38 115.36 45.64 115.36 45.88ZM118.58 42.1H125.16L124.18 45.14H115.5L118.58 42.1Z" fill="white"/>
<path d="M137.08 50.32L134.66 41.42C134.54 40.96 134.36 40.66 134.14 40.48C133.92 40.3 133.58 40.2 133.1 40.2H133.08L129.8 50.32H125.36L129.64 37.16H134.8C135.92 37.16 136.8 37.42 137.48 37.92C138.16 38.42 138.64 39.2 138.92 40.28L140.44 46.02L143.32 37.18H147.74L143.48 50.34H137.08V50.32Z" fill="white"/>
<path d="M157.88 40.22L154.6 50.32H150.18L153.46 40.2H148.18L149.16 37.16H163.26L162.26 40.2H157.88V40.22Z" fill="white"/>
<path d="M167.86 40.92C167.8 41.08 167.76 41.24 167.76 41.4C167.76 41.88 168.1 42.14 168.8 42.14H173.2C175.14 42.14 176.1 42.94 176.1 44.52C176.1 45.04 175.98 45.66 175.74 46.4H175.76L175.5 47.2C175.14 48.26 174.62 49.04 173.92 49.54C173.22 50.04 172.34 50.3 171.24 50.3H160.44L161.42 47.26H169.96C170.34 47.26 170.64 47.2 170.86 47.08C171.08 46.96 171.24 46.74 171.34 46.4H171.32C171.38 46.24 171.42 46.08 171.42 45.92C171.42 45.44 171.08 45.18 170.38 45.18H166.54C165.46 45.18 164.62 44.94 164.04 44.46C163.46 43.98 163.16 43.3 163.16 42.44C163.16 41.96 163.26 41.46 163.44 40.92L163.64 40.26C164 39.2 164.52 38.42 165.22 37.92C165.92 37.42 166.8 37.16 167.9 37.16H178.7L177.72 40.2H169.18C168.76 40.2 168.46 40.24 168.26 40.32C168.1 40.4 167.96 40.6 167.86 40.92Z" fill="white"/>
<defs>
<linearGradient id="paint0_linear_101_477" x1="37.4201" y1="9.35999" x2="37.4201" y2="62.64" gradientUnits="userSpaceOnUse">
<stop stop-color="#FF5200"/>
<stop offset="1" stop-color="#FF00A8"/>
</linearGradient>
</defs>
</svg>
