<svg width="240" height="72" viewBox="0 0 240 72" fill="none" xmlns="http://www.w3.org/2000/svg">
<path d="M25.6406 28.46C24.9006 26.84 24.1406 25.22 23.3406 23.64C26.2206 23.06 29.0806 22.32 31.8606 21.4C33.3206 20.92 34.7606 20.4 36.1806 19.84C38.3206 17.76 40.3006 15.56 42.1406 13.28C38.5206 15.22 34.7406 16.84 30.8006 18.12C26.6606 19.48 22.4206 20.44 18.1006 21.02C19.7406 24.06 21.2806 27.18 22.7206 30.36C23.7006 29.74 24.6806 29.12 25.6406 28.46Z" fill="#485068"/>
<path d="M49.2207 43.54C49.9607 45.16 50.7207 46.78 51.5207 48.38C48.6407 48.96 45.7807 49.7 43.0007 50.62C41.5407 51.1 40.1007 51.62 38.6807 52.18C36.5407 54.26 34.5607 56.46 32.7207 58.74C36.3407 56.8 40.1207 55.18 44.0607 53.9C48.2007 52.54 52.4407 51.58 56.7607 51C55.1207 47.96 53.5807 44.84 52.1407 41.66C51.1607 42.26 50.1807 42.88 49.2207 43.54Z" fill="#485068"/>
<path d="M42.8204 19.72C44.0004 22.8 45.5404 25.66 47.4403 28.34C49.2803 30.92 51.4204 33.24 53.8404 35.26C49.8804 37.36 46.0604 39.84 42.4204 42.68C38.6604 45.6 35.2004 48.82 32.0604 52.28C30.8804 49.2 29.3404 46.34 27.4404 43.66C25.6004 41.08 23.4604 38.76 21.0404 36.74C25.0004 34.64 28.8204 32.16 32.4604 29.32C36.2204 26.4 39.6804 23.18 42.8204 19.72ZM45.0604 9.35999C40.8604 15.38 35.6204 20.9 29.5604 25.62C23.8404 30.06 17.6804 33.56 11.3604 36C16.2604 38.46 20.4204 41.94 23.6004 46.38C26.9604 51.1 29.0403 56.62 29.7803 62.64C33.9804 56.62 39.2204 51.1 45.2803 46.38C51.0004 41.94 57.1604 38.44 63.4804 36C58.5804 33.54 54.4204 30.06 51.2404 25.62C47.9004 20.9 45.8204 15.38 45.0604 9.35999Z" fill="#F26522"/>
<path d="M55.8004 20.96C56.6204 22.1 57.1204 23.42 57.3004 24.88C58.3204 23.42 59.5804 22.1 61.0404 20.96C62.4204 19.88 63.9004 19.04 65.4204 18.46C64.2404 17.86 63.2404 17.02 62.4804 15.96C61.6604 14.82 61.1604 13.5 60.9804 12.04C59.9604 13.5 58.7004 14.82 57.2404 15.96C55.8604 17.04 54.3804 17.88 52.8604 18.46C54.0204 19.06 55.0204 19.9 55.8004 20.96Z" fill="#F26522"/>
<path d="M70.5596 34.98L74.8196 21.82H79.2596L74.9796 34.98H70.5596ZM81.1596 34.98L82.6196 30.44H76.4596L79.5396 27.4H83.6196L85.4196 21.82H89.8596L85.5796 34.98H81.1596Z" fill="#485068"/>
<path d="M91.7395 21.8H96.1795L91.8995 34.96H87.4795L91.7395 21.8Z" fill="#485068"/>
<path d="M112.02 24.56C112.02 25.02 111.92 25.54 111.74 26.08L111.2 27.72L111.06 28.14C110.5 29.9 109.38 30.92 107.7 31.18L109.78 34.98H105.36L103.32 31.24H99.4398L98.2198 34.98H93.7998L95.9998 28.2L96.0998 27.94L101.52 24.88L100.42 28.2H105.16C105.72 28.2 106.12 28.12 106.4 27.94C106.66 27.78 106.88 27.46 107.02 27L107.32 26.08C107.34 25.9 107.36 25.78 107.36 25.72C107.36 25.42 107.26 25.2 107.04 25.06C106.82 24.92 106.48 24.86 106.02 24.86H97.0798L98.0598 21.82H108.62C109.7 21.82 110.54 22.06 111.12 22.54C111.72 23.02 112.02 23.68 112.02 24.56Z" fill="#485068"/>
<path d="M116.7 30.54C116.7 30.96 116.84 31.3 117.14 31.56C117.44 31.82 117.86 31.94 118.4 31.94H125.8L124.82 34.98H115.22C114.14 34.98 113.32 34.74 112.72 34.26C112.14 33.78 111.84 33.1 111.84 32.24C111.84 31.74 111.92 31.24 112.1 30.72L115 21.82H129.08L128.08 24.86H118.42L116.82 29.78C116.74 30.04 116.7 30.28 116.7 30.54ZM119.92 26.74H126.5L125.52 29.78H116.84L119.92 26.74Z" fill="#485068"/>
<path d="M143.919 34.98L145.979 28.58L141.779 21.82H146.299L148.719 25.58L153.279 21.82H158.939L150.199 29.28L148.339 34.98H143.919Z" fill="#485068"/>
<path d="M173.879 24.56C173.879 25.06 173.799 25.56 173.619 26.08L171.739 31.88C171.399 32.92 170.879 33.7 170.179 34.22C169.479 34.74 168.579 35 167.479 35H160.199C159.119 35 158.299 34.76 157.699 34.28C157.119 33.8 156.819 33.12 156.819 32.26C156.819 31.76 156.899 31.26 157.079 30.74L158.959 24.94C159.299 23.9 159.819 23.12 160.519 22.6C161.219 22.08 162.119 21.82 163.219 21.82H170.519C171.599 21.82 172.419 22.06 173.019 22.54C173.599 23.02 173.879 23.68 173.879 24.56ZM168.599 25.22C168.299 24.98 167.879 24.86 167.339 24.86H165.019C163.939 24.86 163.239 25.38 162.899 26.4L161.799 29.78C161.719 30.04 161.659 30.28 161.659 30.54C161.659 30.98 161.799 31.32 162.099 31.56C162.399 31.8 162.819 31.92 163.359 31.92H165.679C166.759 31.92 167.459 31.4 167.799 30.38L168.899 27C168.979 26.74 169.039 26.5 169.039 26.24C169.039 25.8 168.879 25.46 168.599 25.22Z" fill="#485068"/>
<path d="M186.92 34.2C186.22 34.72 185.32 34.98 184.22 34.98H176.92C175.84 34.98 175 34.74 174.42 34.26C173.84 33.78 173.54 33.12 173.54 32.24C173.54 31.78 173.64 31.26 173.82 30.7L176.7 21.8H181.12L178.54 29.78C178.46 30.04 178.4 30.3 178.4 30.56C178.4 31 178.54 31.34 178.84 31.58C179.14 31.82 179.56 31.94 180.1 31.94H182.42C183.52 31.94 184.22 31.42 184.54 30.4L187.3 21.82H191.72L188.46 31.88C188.14 32.9 187.62 33.68 186.92 34.2Z" fill="#485068"/>
<path d="M201.079 34.98L198.659 26.08C198.539 25.62 198.359 25.32 198.139 25.14C197.919 24.96 197.579 24.86 197.099 24.86H197.079L193.799 34.98H189.359L193.639 21.82H198.779C199.899 21.82 200.779 22.08 201.459 22.58C202.139 23.08 202.619 23.86 202.899 24.94L204.419 30.68L207.299 21.84H211.719L207.459 35H201.079V34.98Z" fill="#485068"/>
<path d="M215.76 31.56C216.06 31.8 216.48 31.92 217.02 31.92H220.94L221.62 29.78H217L220.08 26.74H227.06L224.38 34.98H213.84C212.76 34.98 211.94 34.74 211.34 34.26C210.76 33.78 210.46 33.1 210.46 32.24C210.46 31.74 210.54 31.24 210.72 30.72L212.6 24.92C212.94 23.88 213.46 23.1 214.16 22.58C214.86 22.06 215.76 21.8 216.86 21.8H228.64L227.64 24.84H218.68C217.6 24.84 216.9 25.36 216.56 26.38L215.46 29.76C215.38 30.02 215.32 30.26 215.32 30.52C215.32 30.98 215.46 31.32 215.76 31.56Z" fill="#485068"/>
<path d="M78.4798 40.22L75.1798 50.34H70.7598L74.0398 40.22H68.7598L69.7398 37.18H83.8398L82.8398 40.22H78.4798Z" fill="#485068"/>
<path d="M86.7196 47.28H90.4196L92.6996 40.2C92.1196 40.2 91.6196 40.3 91.1996 40.48C90.7796 40.66 90.3596 40.98 89.9596 41.42L81.8396 50.32H76.5996L85.7796 40.26C86.7596 39.18 87.7396 38.4 88.7396 37.9C89.7396 37.4 90.7796 37.16 91.8796 37.16H98.1596L93.8796 50.32H83.9596L86.7196 47.28Z" fill="#485068"/>
<path d="M102.18 46.9C102.48 47.16 102.9 47.28 103.44 47.28H109.9L108.92 50.32H100.26C99.1799 50.32 98.3599 50.08 97.7599 49.6C97.1799 49.12 96.8799 48.44 96.8799 47.58C96.8799 47.08 96.9599 46.58 97.1399 46.06L100.04 37.16H104.46L101.86 45.14C101.78 45.4 101.72 45.64 101.72 45.9C101.74 46.32 101.88 46.66 102.18 46.9Z" fill="#485068"/>
<path d="M115.36 45.88C115.36 46.3 115.5 46.64 115.8 46.9C116.1 47.16 116.52 47.28 117.06 47.28H124.46L123.48 50.32H113.88C112.8 50.32 111.98 50.08 111.38 49.6C110.8 49.12 110.5 48.44 110.5 47.58C110.5 47.08 110.58 46.58 110.76 46.06L113.66 37.16H127.74L126.74 40.2H117.08L115.48 45.12C115.42 45.38 115.36 45.64 115.36 45.88ZM118.58 42.1H125.16L124.18 45.14H115.5L118.58 42.1Z" fill="#485068"/>
<path d="M137.079 50.32L134.659 41.42C134.539 40.96 134.359 40.66 134.139 40.48C133.919 40.3 133.579 40.2 133.099 40.2H133.079L129.799 50.32H125.359L129.639 37.16H134.799C135.919 37.16 136.799 37.42 137.479 37.92C138.159 38.42 138.639 39.2 138.919 40.28L140.439 46.02L143.319 37.18H147.739L143.479 50.34H137.079V50.32Z" fill="#485068"/>
<path d="M157.88 40.22L154.6 50.32H150.18L153.46 40.2H148.18L149.16 37.16H163.26L162.26 40.2H157.88V40.22Z" fill="#485068"/>
<path d="M167.859 40.92C167.799 41.08 167.759 41.24 167.759 41.4C167.759 41.88 168.099 42.14 168.799 42.14H173.199C175.139 42.14 176.099 42.94 176.099 44.52C176.099 45.04 175.979 45.66 175.739 46.4H175.759L175.499 47.2C175.139 48.26 174.619 49.04 173.919 49.54C173.219 50.04 172.339 50.3 171.239 50.3H160.439L161.419 47.26H169.959C170.339 47.26 170.639 47.2 170.859 47.08C171.079 46.96 171.239 46.74 171.339 46.4H171.319C171.379 46.24 171.419 46.08 171.419 45.92C171.419 45.44 171.079 45.18 170.379 45.18H166.539C165.459 45.18 164.619 44.94 164.039 44.46C163.459 43.98 163.159 43.3 163.159 42.44C163.159 41.96 163.259 41.46 163.439 40.92L163.639 40.26C163.999 39.2 164.519 38.42 165.219 37.92C165.919 37.42 166.799 37.16 167.899 37.16H178.699L177.719 40.2H169.179C168.759 40.2 168.459 40.24 168.259 40.32C168.099 40.4 167.959 40.6 167.859 40.92Z" fill="#485068"/>
</svg>
