<svg width="20" height="20" viewBox="0 0 20 20" fill="none" xmlns="http://www.w3.org/2000/svg">
<path d="M10.0003 11.6667C8.15938 11.6667 6.66699 10.1742 6.66699 8.33333C6.66699 6.49238 8.15938 5 10.0003 5C11.8412 5 13.3337 6.49238 13.3337 8.33333C13.3337 10.1742 11.8412 11.6667 10.0003 11.6667ZM10.0003 10.8333C11.3811 10.8333 12.5003 9.71408 12.5003 8.33333C12.5003 6.95262 11.3811 5.83333 10.0003 5.83333C8.61958 5.83333 7.50033 6.95262 7.50033 8.33333C7.50033 9.71408 8.61958 10.8333 10.0003 10.8333ZM10.2829 17.3895C10.1233 17.5368 9.87733 17.5368 9.71774 17.3895C6.02935 13.9848 4.16699 10.9764 4.16699 8.33333C4.16699 5.11168 6.77867 2.5 10.0003 2.5C13.222 2.5 15.8337 5.11168 15.8337 8.33333C15.8337 10.9764 13.9713 13.9848 10.2829 17.3895ZM15.0003 8.33333C15.0003 5.57191 12.7617 3.33333 10.0003 3.33333C7.2389 3.33333 5.00033 5.57191 5.00033 8.33333C5.00033 10.6265 6.65583 13.3628 10.0003 16.5137C13.3448 13.3628 15.0003 10.6265 15.0003 8.33333Z" fill="#F26522"/>
</svg>
