<svg width="20" height="20" viewBox="0 0 20 20" fill="none" xmlns="http://www.w3.org/2000/svg">
<path d="M9.99984 11.6667C8.15889 11.6667 6.6665 10.1742 6.6665 8.33333C6.6665 6.49238 8.15889 5 9.99984 5C11.8408 5 13.3332 6.49238 13.3332 8.33333C13.3332 10.1742 11.8408 11.6667 9.99984 11.6667ZM9.99984 10.8333C11.3806 10.8333 12.4998 9.71408 12.4998 8.33333C12.4998 6.95262 11.3806 5.83333 9.99984 5.83333C8.61909 5.83333 7.49984 6.95262 7.49984 8.33333C7.49984 9.71408 8.61909 10.8333 9.99984 10.8333ZM10.2824 17.3895C10.1228 17.5368 9.87684 17.5368 9.71725 17.3895C6.02886 13.9848 4.1665 10.9764 4.1665 8.33333C4.1665 5.11168 6.77818 2.5 9.99984 2.5C13.2215 2.5 15.8332 5.11168 15.8332 8.33333C15.8332 10.9764 13.9708 13.9848 10.2824 17.3895ZM14.9998 8.33333C14.9998 5.57191 12.7613 3.33333 9.99984 3.33333C7.23841 3.33333 4.99984 5.57191 4.99984 8.33333C4.99984 10.6265 6.65534 13.3628 9.99984 16.5137C13.3443 13.3628 14.9998 10.6265 14.9998 8.33333Z" fill="url(#paint0_linear_102_41)"/>
<defs>
<linearGradient id="paint0_linear_102_41" x1="3.12264" y1="2.5" x2="18.8362" y2="6.01144" gradientUnits="userSpaceOnUse">
<stop stop-color="#FF5200"/>
<stop offset="1" stop-color="#FF00A8"/>
</linearGradient>
</defs>
</svg>
