<svg width="20" height="18" viewBox="0 0 20 18" fill="none" xmlns="http://www.w3.org/2000/svg">
<path d="M5.61548 17.2917C4.66764 17.2919 3.74102 17.011 2.95286 16.4845C2.1647 15.958 1.55043 15.2096 1.18778 14.3338C0.825125 13.4581 0.730386 12.4945 0.915548 11.5649C1.10071 10.6353 1.55745 9.78158 2.22798 9.11165L9.29882 2.03999C9.41607 1.92274 9.57509 1.85687 9.7409 1.85687C9.90671 1.85687 10.0657 1.92274 10.183 2.03999C10.3002 2.15724 10.3661 2.31626 10.3661 2.48207C10.3661 2.64788 10.3002 2.80691 10.183 2.92415L3.11132 9.99499C2.76896 10.3208 2.49527 10.7118 2.30637 11.145C2.11748 11.5782 2.0172 12.0449 2.01144 12.5175C2.00568 12.99 2.09457 13.459 2.27286 13.8967C2.45114 14.3344 2.71523 14.7319 3.04955 15.066C3.38387 15.4 3.78167 15.6638 4.21951 15.8417C4.65734 16.0196 5.12636 16.1081 5.59893 16.102C6.07149 16.0958 6.53805 15.9951 6.97111 15.8059C7.40417 15.6166 7.79497 15.3426 8.12048 15L17.2538 5.86665C17.6723 5.43446 17.9042 4.85506 17.8994 4.25344C17.8946 3.65183 17.6534 3.07623 17.228 2.65081C16.8026 2.22539 16.227 1.98425 15.6254 1.97942C15.0237 1.97459 14.4443 2.20645 14.0122 2.62499L6.64715 9.99499C6.45177 10.1904 6.34201 10.4554 6.34201 10.7317C6.34201 11.008 6.45177 11.2729 6.64715 11.4683C6.84253 11.6637 7.10751 11.7735 7.38382 11.7735C7.66012 11.7735 7.92511 11.6637 8.12048 11.4683L12.833 6.75499C12.8906 6.69527 12.9596 6.64762 13.0358 6.61483C13.112 6.58204 13.194 6.56476 13.277 6.564C13.36 6.56324 13.4423 6.57901 13.5191 6.6104C13.596 6.64179 13.6658 6.68817 13.7245 6.74682C13.7832 6.80548 13.8296 6.87524 13.8611 6.95203C13.8925 7.02883 13.9084 7.11112 13.9077 7.19411C13.907 7.27709 13.8898 7.35911 13.8571 7.43538C13.8244 7.51165 13.7768 7.58064 13.7172 7.63832L9.00382 12.3525C8.57406 12.7824 7.99113 13.0239 7.38328 13.024C6.77543 13.0241 6.19244 12.7827 5.76257 12.3529C5.3327 11.9231 5.09115 11.3402 5.09107 10.7324C5.091 10.1245 5.33239 9.54153 5.76215 9.11165L13.1288 1.74999C13.793 1.08573 14.6938 0.712511 15.6331 0.712433C16.5724 0.712355 17.4733 1.08542 18.1376 1.74957C18.8018 2.41372 19.175 3.31454 19.1751 4.25386C19.1752 5.19318 18.8021 6.09406 18.138 6.75832L9.00465 15.8883C8.56054 16.3347 8.03234 16.6885 7.4506 16.9294C6.86885 17.1703 6.24512 17.2934 5.61548 17.2917Z" fill="white"/>
</svg>
