<svg width="30" height="30" viewBox="0 0 30 30" fill="none" xmlns="http://www.w3.org/2000/svg">
<path d="M17.8661 15H4.375C4.02983 15 3.75 14.7201 3.75 14.375C3.75 14.0299 4.02983 13.75 4.375 13.75H17.8661L13.933 9.81694C13.689 9.57286 13.689 9.17714 13.933 8.93306C14.1771 8.68897 14.5729 8.68897 14.817 8.93306L19.817 13.933C20.061 14.1771 20.061 14.5729 19.817 14.817L14.817 19.817C14.5729 20.061 14.1771 20.061 13.933 19.817C13.689 19.5729 13.689 19.1771 13.933 18.933L17.8661 15ZM13.125 5C12.7799 5 12.5 4.72018 12.5 4.375C12.5 4.02983 12.7799 3.75 13.125 3.75H23.125C24.8509 3.75 26.25 5.14911 26.25 6.875V23.125C26.25 24.8509 24.8509 26.25 23.125 26.25H13.125C12.7799 26.25 12.5 25.9701 12.5 25.625C12.5 25.2799 12.7799 25 13.125 25H23.125C24.1605 25 25 24.1605 25 23.125V6.875C25 5.83946 24.1605 5 23.125 5H13.125Z" fill="#F26522"/>
</svg>
