<svg width="20" height="20" viewBox="0 0 20 20" fill="none" xmlns="http://www.w3.org/2000/svg">
<g clip-path="url(#clip0_113_335)">
<path d="M10.0004 19.6C4.70699 19.6 0.400391 15.2934 0.400391 10C0.400391 4.70662 4.70699 0.400024 10.0004 0.400024C15.2938 0.400024 19.6004 4.70662 19.6004 10C19.6004 15.2934 15.2938 19.6 10.0004 19.6ZM10.0004 1.60002C5.36859 1.60002 1.60039 5.36822 1.60039 10C1.60039 14.6318 5.36859 18.4 10.0004 18.4C14.6322 18.4 18.4004 14.6318 18.4004 10C18.4004 5.36822 14.6322 1.60002 10.0004 1.60002ZM15.3372 12.0684C15.4846 11.7734 15.3654 11.4168 15.0718 11.2672C14.7776 11.1186 14.4176 11.2356 14.2658 11.528C14.2218 11.6124 13.156 13.6 10.0004 13.6C6.85239 13.6 5.78419 11.6222 5.73539 11.5288C5.58679 11.234 5.22699 11.1146 4.93199 11.2634C4.63559 11.4116 4.51539 11.772 4.66359 12.0684C4.71959 12.18 6.07459 14.8 10.0004 14.8C13.9262 14.8 15.2812 12.18 15.3372 12.0684ZM13.0004 8.80002C12.3386 8.80002 11.8004 8.26182 11.8004 7.60002C11.8004 6.93822 12.3386 6.40002 13.0004 6.40002C13.6622 6.40002 14.2004 6.93822 14.2004 7.60002C14.2004 8.26182 13.6622 8.80002 13.0004 8.80002ZM7.00039 8.80002C6.33859 8.80002 5.80039 8.26182 5.80039 7.60002C5.80039 6.93822 6.33859 6.40002 7.00039 6.40002C7.66219 6.40002 8.20039 6.93822 8.20039 7.60002C8.20039 8.26182 7.66219 8.80002 7.00039 8.80002Z" fill="#D9D9D9"/>
</g>
<defs>
<clipPath id="clip0_113_335">
<rect width="20" height="20" fill="white"/>
</clipPath>
</defs>
</svg>
