<svg width="20" height="20" viewBox="0 0 20 20" fill="none" xmlns="http://www.w3.org/2000/svg">
<path d="M13.75 2.5V15C13.75 17.0712 12.0712 18.75 10 18.75C7.92876 18.75 6.25 17.0712 6.25 15V3.75C6.25 2.36937 7.36937 1.25 8.75 1.25C10.1306 1.25 11.25 2.36937 11.25 3.75V15C11.25 15.6906 10.69 16.25 10 16.25C9.30937 16.25 8.75 15.6906 8.75 15V5H7.5V15C7.5 16.3806 8.61937 17.5 10 17.5C11.3806 17.5 12.5 16.3806 12.5 15V3.75C12.5 1.67876 10.8212 0 8.75 0C6.67876 0 5 1.67876 5 3.75V15.625C5.30813 18.0906 7.45063 20 10 20C12.5494 20 14.6919 18.0906 15 15.625V2.5H13.75Z" fill="#D9D9D9"/>
</svg>
