<svg width="40" height="40" viewBox="0 0 40 40" fill="none" xmlns="http://www.w3.org/2000/svg">
<circle cx="20" cy="20" r="20" fill="#FBFBFB"/>
<path d="M19.8572 19.6341C21.1808 19.6341 22.3267 19.1594 23.2633 18.2228C24.1996 17.2864 24.6744 16.1406 24.6744 14.8169C24.6744 13.4936 24.1997 12.3477 23.2631 11.411C22.3266 10.4747 21.1806 10 19.8572 10C18.5335 10 17.3878 10.4747 16.4513 11.4111C15.5149 12.3476 15.04 13.4935 15.04 14.8169C15.04 16.1406 15.5149 17.2865 16.4513 18.2229C17.3881 19.1592 18.534 19.6341 19.8572 19.6341ZM17.2802 12.2398C17.9987 11.5213 18.8416 11.172 19.8572 11.172C20.8727 11.172 21.7157 11.5213 22.4344 12.2398C23.153 12.9585 23.5024 13.8016 23.5024 14.8169C23.5024 15.8325 23.153 16.6754 22.4344 17.3941C21.7157 18.1128 20.8727 18.4621 19.8572 18.4621C18.8419 18.4621 17.999 18.1126 17.2802 17.3941C16.5615 16.6756 16.2121 15.8325 16.2121 14.8169C16.2121 13.8016 16.5615 12.9585 17.2802 12.2398Z" fill="#D9D9D9"/>
<path d="M28.2863 25.379C28.2592 24.9893 28.2046 24.5642 28.1242 24.1153C28.043 23.663 27.9385 23.2354 27.8134 22.8447C27.684 22.4408 27.5084 22.0419 27.2909 21.6597C27.0656 21.2629 26.8007 20.9175 26.5034 20.6332C26.1926 20.3358 25.812 20.0967 25.372 19.9223C24.9334 19.7488 24.4475 19.6609 23.9276 19.6609C23.7234 19.6609 23.526 19.7447 23.1447 19.9929C22.91 20.146 22.6355 20.323 22.3291 20.5188C22.0671 20.6857 21.7122 20.8421 21.2738 20.9837C20.8461 21.1221 20.4118 21.1923 19.983 21.1923C19.5546 21.1923 19.1203 21.1221 18.6923 20.9837C18.2544 20.8423 17.8993 20.6859 17.6378 20.5189C17.3343 20.325 17.0596 20.148 16.8214 19.9928C16.4404 19.7445 16.243 19.6608 16.0388 19.6608C15.5188 19.6608 15.033 19.7488 14.5946 19.9225C14.1548 20.0966 13.7741 20.3357 13.463 20.6334C13.1657 20.9178 12.9008 21.2631 12.6756 21.6597C12.4585 22.0419 12.2827 22.4406 12.1533 22.8448C12.0284 23.2356 11.9238 23.663 11.8427 24.1153C11.7621 24.5636 11.7076 24.9888 11.6806 25.3794C11.6541 25.7614 11.6406 26.1589 11.6406 26.5605C11.6406 27.6045 11.9725 28.4497 12.627 29.073C13.2733 29.6881 14.1284 29.9999 15.1686 29.9999H24.7987C25.8386 29.9999 26.6937 29.6881 27.3402 29.073C27.9948 28.4501 28.3267 27.6046 28.3267 26.5603C28.3265 26.1573 28.313 25.7598 28.2863 25.379ZM26.5321 28.2238C26.105 28.6303 25.538 28.8279 24.7986 28.8279H15.1686C14.429 28.8279 13.862 28.6303 13.4351 28.224C13.0162 27.8253 12.8127 27.281 12.8127 26.5605C12.8127 26.1857 12.825 25.8157 12.8497 25.4605C12.8738 25.112 12.9231 24.7291 12.9962 24.3223C13.0684 23.9206 13.1602 23.5435 13.2695 23.2022C13.3743 22.8749 13.5173 22.5508 13.6946 22.2386C13.8638 21.941 14.0585 21.6858 14.2734 21.4801C14.4743 21.2877 14.7276 21.1302 15.0261 21.0121C15.3021 20.9028 15.6123 20.843 15.9491 20.834C15.9901 20.8558 16.0632 20.8975 16.1816 20.9747C16.4226 21.1317 16.7003 21.3108 17.0073 21.5069C17.3534 21.7276 17.7992 21.9268 18.3319 22.0988C18.8765 22.2749 19.4319 22.3643 19.9832 22.3643C20.5345 22.3643 21.0901 22.2749 21.6343 22.099C22.1675 21.9267 22.6132 21.7276 22.9597 21.5066C23.2739 21.3058 23.5438 21.1319 23.7848 20.9747C23.9032 20.8976 23.9763 20.8558 24.0173 20.834C24.3542 20.843 24.6644 20.9028 24.9406 21.0121C25.2389 21.1302 25.4922 21.2878 25.6932 21.4801C25.908 21.6856 26.1027 21.9409 26.2719 22.2387C26.4494 22.5508 26.5925 22.875 26.6972 23.202C26.8066 23.5438 26.8986 23.9207 26.9706 24.3222C27.0436 24.7297 27.093 25.1127 27.1171 25.4606V25.4609C27.142 25.8148 27.1545 26.1846 27.1547 26.5605C27.1545 27.2811 26.951 27.8253 26.5321 28.2238Z" fill="#D9D9D9"/>
</svg>
