<svg width="20" height="20" viewBox="0 0 20 20" fill="none" xmlns="http://www.w3.org/2000/svg">
<path fill-rule="evenodd" clip-rule="evenodd" d="M19.4387 10.5833C19.6316 10.2183 19.6316 9.78167 19.4387 9.41667C19.4295 9.39875 16.4408 3.75 9.99994 3.75C3.55911 3.75 0.570358 9.39875 0.561191 9.41667C0.368275 9.78167 0.368275 10.2183 0.561191 10.5833C0.570358 10.6012 3.55911 16.25 9.99994 16.25C16.4408 16.25 19.4295 10.6012 19.4387 10.5833ZM18.7016 10.1946C18.7016 10.1946 15.9466 15.4167 9.99994 15.4167C4.05327 15.4167 1.29827 10.1946 1.29827 10.1946C1.23369 10.0729 1.23369 9.92708 1.29827 9.80541C1.36286 9.68375 4.05327 4.58333 9.99994 4.58333C15.9466 4.58333 18.7016 9.80541 18.7016 9.80541C18.7662 9.92708 18.7662 10.0729 18.7016 10.1946Z" fill="url(#paint0_linear_21_1909)"/>
<path fill-rule="evenodd" clip-rule="evenodd" d="M10 6.25C7.93042 6.25 6.25 7.93042 6.25 10C6.25 12.0696 7.93042 13.75 10 13.75C12.0696 13.75 13.75 12.0696 13.75 10C13.75 7.93042 12.0696 6.25 10 6.25ZM10 7.08333C11.6096 7.08333 12.9167 8.39042 12.9167 10C12.9167 11.6096 11.6096 12.9167 10 12.9167C8.39042 12.9167 7.08333 11.6096 7.08333 10C7.08333 8.39042 8.39042 7.08333 10 7.08333Z" fill="url(#paint1_linear_21_1909)"/>
<path fill-rule="evenodd" clip-rule="evenodd" d="M8.74984 9.99996C8.74984 9.30996 9.30984 8.74996 9.99984 8.74996C10.2298 8.74996 10.4165 8.56329 10.4165 8.33329C10.4165 8.10329 10.2298 7.91663 9.99984 7.91663C8.84984 7.91663 7.9165 8.84996 7.9165 9.99996C7.9165 10.23 8.10317 10.4166 8.33317 10.4166C8.56317 10.4166 8.74984 10.23 8.74984 9.99996Z" fill="url(#paint2_linear_21_1909)"/>
<defs>
<linearGradient id="paint0_linear_21_1909" x1="-1.29843" y1="3.75" x2="21.4006" y2="13.7501" gradientUnits="userSpaceOnUse">
<stop stop-color="#FF5200"/>
<stop offset="1" stop-color="#FF00A8"/>
</linearGradient>
<linearGradient id="paint1_linear_21_1909" x1="5.57895" y1="6.25" x2="15.3762" y2="9.06488" gradientUnits="userSpaceOnUse">
<stop stop-color="#FF5200"/>
<stop offset="1" stop-color="#FF00A8"/>
</linearGradient>
<linearGradient id="paint2_linear_21_1909" x1="7.69282" y1="7.91663" x2="10.9586" y2="8.85492" gradientUnits="userSpaceOnUse">
<stop stop-color="#FF5200"/>
<stop offset="1" stop-color="#FF00A8"/>
</linearGradient>
</defs>
</svg>
