<svg width="146" height="21" viewBox="0 0 146 21" fill="none" xmlns="http://www.w3.org/2000/svg">
<path d="M0 20.6744L8.57166 1.68217H12.9674L21.5665 20.6744H16.8961L9.8629 3.90698H11.6212L4.56056 20.6744H0ZM4.28583 16.6047L5.46718 13.2674H15.3576L16.5664 16.6047H4.28583ZM23.787 20.6744V6.07752H28.0454V14.7597L35.2434 6.07752H39.1721V20.6744H34.9137V11.9922L27.7432 20.6744H23.787ZM31.2048 4.50388C29.593 4.50388 28.3842 4.16021 27.5783 3.47287C26.7725 2.76744 26.3604 1.7093 26.342 0.298448H29.1443C29.1626 0.913437 29.3366 1.40181 29.6663 1.76357C29.996 2.12532 30.4997 2.3062 31.1773 2.3062C31.8367 2.3062 32.3404 2.12532 32.6884 1.76357C33.0547 1.40181 33.2378 0.913437 33.2378 0.298448H36.0951C36.0951 1.7093 35.683 2.76744 34.8588 3.47287C34.0346 4.16021 32.8166 4.50388 31.2048 4.50388ZM50.6275 21C49.4187 21 48.3197 20.8282 47.3307 20.4845C46.3417 20.1227 45.4808 19.5711 44.7482 18.8295C44.0339 18.0698 43.4753 17.1021 43.0723 15.9264C42.6877 14.7506 42.4954 13.3488 42.4954 11.7209C42.4954 10.5633 42.5961 9.50517 42.7976 8.54651C42.9991 7.58786 43.3013 6.71964 43.7042 5.94186C44.1072 5.14599 44.62 4.44961 45.2427 3.85271C45.8838 3.23773 46.6256 2.73127 47.4681 2.33333C48.3289 1.91731 49.2996 1.60077 50.3802 1.38372L57.4134 0L57.9903 3.63566L51.7814 4.85659C51.4151 4.92894 50.9938 5.02842 50.5176 5.15504C50.0597 5.26357 49.5927 5.4354 49.1165 5.67054C48.6586 5.90568 48.2282 6.24031 47.8252 6.67442C47.4406 7.09044 47.1292 7.64212 46.8911 8.32946C46.653 8.99871 46.534 9.83075 46.534 10.8256C46.534 11.1331 46.5431 11.3682 46.5615 11.531C46.5981 11.6938 46.6256 11.8656 46.6439 12.0465C46.6805 12.2274 46.6988 12.5078 46.6988 12.8876L45.3252 11.5581C45.7281 10.708 46.2409 9.9845 46.8637 9.3876C47.5047 8.7907 48.2373 8.3385 49.0615 8.03101C49.904 7.70543 50.8381 7.54264 51.8638 7.54264C53.2558 7.54264 54.4737 7.823 55.5177 8.38372C56.58 8.92636 57.4042 9.69509 57.9903 10.6899C58.5764 11.6848 58.8695 12.8152 58.8695 14.0814C58.8695 15.4561 58.5215 16.668 57.8255 17.7171C57.1295 18.7481 56.1588 19.553 54.9133 20.1318C53.6862 20.7106 52.2576 21 50.6275 21ZM50.8473 17.7171C51.5616 17.7171 52.1935 17.5633 52.7429 17.2558C53.2924 16.9302 53.7137 16.5052 54.0067 15.9806C54.3181 15.438 54.4737 14.832 54.4737 14.1628C54.4737 13.5116 54.3181 12.9328 54.0067 12.4264C53.7137 11.9199 53.2924 11.522 52.7429 11.2326C52.1935 10.9432 51.5524 10.7984 50.8198 10.7984C50.1055 10.7984 49.4645 10.9432 48.8967 11.2326C48.3289 11.5039 47.8893 11.8837 47.578 12.3721C47.2666 12.8605 47.1109 13.4302 47.1109 14.0814C47.1109 14.7506 47.2666 15.3656 47.578 15.9264C47.9076 16.469 48.3472 16.9031 48.8967 17.2287C49.4645 17.5543 50.1147 17.7171 50.8473 17.7171ZM68.7008 20.8915C67.1256 20.8915 65.7245 20.5659 64.4974 19.9147C63.2885 19.2636 62.327 18.3773 61.6127 17.2558C60.9167 16.1163 60.5687 14.823 60.5687 13.376C60.5687 11.9109 60.9167 10.6176 61.6127 9.49612C62.327 8.35659 63.2885 7.47028 64.4974 6.83721C65.7245 6.18605 67.1256 5.86046 68.7008 5.86046C70.2576 5.86046 71.6496 6.18605 72.8767 6.83721C74.1039 7.47028 75.0654 8.34754 75.7614 9.46899C76.4574 10.5904 76.8054 11.8928 76.8054 13.376C76.8054 14.823 76.4574 16.1163 75.7614 17.2558C75.0654 18.3773 74.1039 19.2636 72.8767 19.9147C71.6496 20.5659 70.2576 20.8915 68.7008 20.8915ZM68.7008 17.4186C69.4151 17.4186 70.0561 17.2558 70.6239 16.9302C71.1917 16.6047 71.6404 16.1434 71.9701 15.5465C72.2998 14.9315 72.4646 14.208 72.4646 13.376C72.4646 12.5258 72.2998 11.8023 71.9701 11.2054C71.6404 10.6085 71.1917 10.1473 70.6239 9.8217C70.0561 9.49612 69.4151 9.33333 68.7008 9.33333C67.9865 9.33333 67.3454 9.49612 66.7777 9.8217C66.2099 10.1473 65.752 10.6085 65.404 11.2054C65.0743 11.8023 64.9095 12.5258 64.9095 13.376C64.9095 14.208 65.0743 14.9315 65.404 15.5465C65.752 16.1434 66.2099 16.6047 66.7777 16.9302C67.3454 17.2558 67.9865 17.4186 68.7008 17.4186ZM77.6703 20.6473L77.8901 17.1744C78 17.1925 78.1099 17.2106 78.2198 17.2287C78.3297 17.2287 78.4304 17.2287 78.522 17.2287C79.0348 17.2287 79.4378 17.084 79.7308 16.7946C80.0239 16.5052 80.2437 16.1163 80.3902 15.6279C80.5367 15.1214 80.6375 14.5517 80.6924 13.9186C80.7657 13.2855 80.8206 12.6253 80.8572 11.938L81.077 6.07752H93.7147V20.6744H89.4289V8.51938L90.3905 9.55039H83.9068L84.8134 8.46512L84.6211 12.1279C84.5661 13.4302 84.4562 14.624 84.2914 15.7093C84.1449 16.7946 83.8976 17.7351 83.5496 18.531C83.2016 19.3088 82.7346 19.9147 82.1485 20.3488C81.5624 20.7649 80.8115 20.9729 79.8957 20.9729C79.566 20.9729 79.218 20.9457 78.8517 20.8915C78.4854 20.8372 78.0916 20.7558 77.6703 20.6473ZM97.8362 20.6744V6.07752H102.095V14.7597L109.293 6.07752H113.221V20.6744H108.963V11.9922L101.792 20.6744H97.8362ZM120.5 20.6744V8.57364L121.462 9.55039H115.5V6.07752H129.759V9.55039H123.797L124.759 8.57364V20.6744H120.5ZM140.038 10.7442C141.98 10.7623 143.454 11.1964 144.461 12.0465C145.487 12.8786 146 14.0633 146 15.6008C146 17.2106 145.423 18.4677 144.269 19.3721C143.115 20.2584 141.513 20.7015 139.461 20.7015L132.044 20.6744V6.07752H136.302V10.7442H140.038ZM139.077 17.6899C139.901 17.708 140.533 17.5362 140.972 17.1744C141.412 16.8127 141.632 16.27 141.632 15.5465C141.632 14.823 141.412 14.3075 140.972 14C140.533 13.6744 139.901 13.5026 139.077 13.4845L136.302 13.4574V17.6899H139.077Z" fill="#FF8501"/>
</svg>
