<svg width="35" height="35" viewBox="0 0 35 35" fill="none" xmlns="http://www.w3.org/2000/svg">
<circle cx="17.5" cy="17.5" r="17.5" fill="#E80000"/>
<g clip-path="url(#clip0_204_2)">
<path d="M25.7094 21.4101L23.4723 20.166C23.4355 20.1457 23.3949 20.1327 23.353 20.1275C23.3109 20.1223 23.2683 20.1251 23.2274 20.1359C23.1865 20.1465 23.1483 20.1649 23.1147 20.1899C23.0812 20.2148 23.0531 20.2459 23.0322 20.2813L22.6285 20.9551C22.5392 21.1035 22.592 21.2949 22.7462 21.3809L24.9833 22.625C25.02 22.6453 25.0606 22.6583 25.1026 22.6635C25.1446 22.6687 25.1873 22.6659 25.2282 22.6552C25.269 22.6445 25.3073 22.6261 25.3408 22.6012C25.3743 22.5762 25.4024 22.5451 25.4235 22.5097L25.8271 21.8359C25.9163 21.6875 25.8615 21.4961 25.7094 21.4101ZM23.0301 13.7187C23.0511 13.7541 23.0792 13.7852 23.1127 13.8102C23.1462 13.8351 23.1845 13.8535 23.2254 13.8642C23.2662 13.8749 23.3089 13.8777 23.3509 13.8725C23.3929 13.8673 23.4335 13.8543 23.4702 13.834L25.7074 12.5898C25.8615 12.5039 25.9142 12.3125 25.825 12.1641L25.4235 11.4922C25.4024 11.4568 25.3743 11.4257 25.3408 11.4008C25.3073 11.3758 25.269 11.3575 25.2282 11.3468C25.1873 11.3361 25.1446 11.3332 25.1026 11.3384C25.0606 11.3436 25.02 11.3567 24.9833 11.377L22.7462 12.6211C22.6721 12.6627 22.6181 12.7308 22.5961 12.8106C22.574 12.8904 22.5857 12.9753 22.6285 13.0469L23.0301 13.7187ZM26.5593 16.2969H23.9631C23.7846 16.2969 23.6385 16.4375 23.6385 16.6094V17.3906C23.6385 17.5625 23.7846 17.7031 23.9631 17.7031H26.5593C26.7377 17.7031 26.8837 17.5625 26.8837 17.3906V16.6094C26.8837 16.4375 26.7377 16.2969 26.5593 16.2969ZM20.3102 9.24609C20.1906 9.24609 20.0689 9.27734 19.9573 9.34961L12.7672 13.875H9.44085C9.26237 13.875 9.11633 14.0156 9.11633 14.1875V19.8125C9.11633 19.9844 9.26237 20.125 9.44085 20.125H12.7672L19.9573 24.6504C20.0689 24.7207 20.1926 24.7539 20.3102 24.7539C20.649 24.7539 20.9613 24.4941 20.9613 24.1269V9.87305C20.9613 9.50586 20.649 9.24609 20.3102 9.24609Z" fill="white"/>
</g>
<defs>
<clipPath id="clip0_204_2">
<rect width="18" height="16" fill="white" transform="translate(9 9)"/>
</clipPath>
</defs>
</svg>
