<svg width="18" height="20" viewBox="0 0 18 20" fill="none" xmlns="http://www.w3.org/2000/svg">
<path fill-rule="evenodd" clip-rule="evenodd" d="M2.04754 4.05684L11.7777 4.32711C12.6764 4.35207 13.3902 4.3719 13.9771 4.41755C13.8229 3.40553 12.9119 2.65165 11.8575 2.72697L2.92875 3.36474C2.51148 3.39454 2.16914 3.67744 2.04754 4.05684ZM16 4.92628V4.72189C16 2.40052 14.0305 0.56666 11.715 0.732051L2.78626 1.36982C1.33833 1.47324 0.191167 2.59247 0.0216284 4.00057L0 3.99997V4.3622V4.99996V12.9457C0 15.076 0 16.1412 0.406234 16.9724C0.763833 17.7041 1.33625 18.3092 2.04698 18.7068C2.85438 19.1585 3.91791 19.2176 6.04499 19.3358L11.245 19.6247C13.5965 19.7553 14.7722 19.8206 15.6762 19.4034C16.4707 19.0368 17.1231 18.4196 17.5333 17.6466C18 16.7672 18 15.5896 18 13.2345V10.7246C18 8.53999 18 7.44767 17.579 6.60417C17.2282 5.90126 16.6787 5.3181 16 4.92628ZM14 12.5C14 13.3284 13.3284 14 12.5 14C11.6716 14 11 13.3284 11 12.5C11 11.6715 11.6716 11 12.5 11C13.3284 11 14 11.6715 14 12.5Z" fill="#5D9CEC"/>
</svg>
