<svg width="34" height="37" viewBox="0 0 34 37" fill="none" xmlns="http://www.w3.org/2000/svg">
<path fill-rule="evenodd" clip-rule="evenodd" d="M11.6667 10C8.90524 10 6.66667 7.76142 6.66667 5C6.66667 2.23858 8.90524 0 11.6667 0C14.4281 0 16.6667 2.23858 16.6667 5L16.6663 10H15.0003V20H0C0 16.8937 0 15.3406 0.50747 14.1154C1.1841 12.4819 2.48192 11.1841 4.11544 10.5075C5.34058 10 6.89372 10 10 10H11.6667ZM21.6667 10C24.4281 10 26.6667 7.76142 26.6667 5C26.6667 2.23858 24.4281 0 21.6667 0C18.9052 0 16.6667 2.23858 16.6667 5L16.667 10H18.3337V20H33.3333C33.3333 16.8937 33.3333 15.3406 32.8259 14.1154C32.1492 12.4819 30.8514 11.1841 29.2179 10.5075C27.9927 10 26.4396 10 23.3333 10H21.6667ZM1.66667 23.3333L2.16538 27.323C2.57889 30.6311 2.78564 32.2851 3.56412 33.5316C4.25001 34.6297 5.24083 35.5044 6.4156 36.0488C7.74897 36.6667 9.41587 36.6667 12.7497 36.6667H15V23.3334H18.3333V36.6667H20.5837C23.9175 36.6667 25.5844 36.6667 26.9177 36.0488C28.0925 35.5044 29.0833 34.6297 29.7692 33.5316C30.5477 32.2851 30.7544 30.6311 31.168 27.323L31.6667 23.3333H1.66667Z" fill="#FF4545"/>
</svg>
