<svg width="23" height="23" viewBox="0 0 23 23" fill="none" xmlns="http://www.w3.org/2000/svg">
<g clip-path="url(#clip0_417_1863)">
<path d="M21.7184 12.9964H21.3891V10.0309C21.3891 9.56145 21.1555 9.14577 20.7986 8.8932V8.48942C20.7986 7.90371 20.3221 7.42723 19.7364 7.42723H19.4906L20.4312 6.04707C20.7464 5.58447 20.6265 4.95159 20.1639 4.63628L13.7817 0.286985C13.5577 0.134231 13.2876 0.0778563 13.021 0.12843C12.7545 0.178919 12.5237 0.330126 12.3709 0.554251L6.86231 8.63766H5.3294L5.69923 4.89379C5.7034 4.8516 5.73081 4.81503 5.76905 4.80064C6.24553 4.62099 6.65846 4.28548 6.93175 3.85597C6.95327 3.82215 6.99388 3.80282 7.0359 3.80707L9.44022 4.0446C9.61261 4.06132 9.76597 3.93576 9.78298 3.76346C9.8 3.59115 9.67414 3.43771 9.50184 3.4207L7.09752 3.18316C6.81844 3.15584 6.55229 3.28444 6.40276 3.5194C6.20184 3.83522 5.89822 4.08186 5.54789 4.21394C5.2842 4.31337 5.10312 4.55022 5.07528 4.83213L4.69939 8.63762H4.29965L4.88454 2.71635C4.9056 2.50323 5.09582 2.34665 5.3092 2.368L10.1679 2.84797C10.3402 2.86459 10.4936 2.73913 10.5106 2.56682C10.5276 2.39452 10.4018 2.24107 10.2295 2.22406L5.37082 1.7441C4.81377 1.68914 4.31564 2.09756 4.26059 2.65469L3.78914 7.42723H2.98627C2.40061 7.42723 1.92408 7.90371 1.92408 8.48942V8.76485C1.44494 8.98545 1.11133 9.46979 1.11133 10.0309V20.717C1.11133 21.4853 1.73635 22.1103 2.50468 22.1103H19.9958C20.7641 22.1103 21.3891 21.4853 21.3891 20.717V17.7516H21.7184C22.107 17.7516 22.4231 17.4355 22.4231 17.0469V13.7011C22.4231 13.3125 22.107 12.9964 21.7184 12.9964ZM19.7364 8.05423C19.9765 8.05419 20.1717 8.24944 20.1717 8.48946V8.64918C20.114 8.64187 20.0554 8.6377 19.9958 8.6377H18.6657L19.0633 8.05423H19.7364ZM12.889 0.907282C12.9475 0.821559 13.0358 0.763723 13.1377 0.744387C13.162 0.73979 13.1865 0.737469 13.2108 0.737469C13.288 0.737469 13.3634 0.760587 13.4287 0.805016L19.8109 5.15431C19.9878 5.27493 20.0337 5.51701 19.9131 5.69396L17.9071 8.63757H17.4257L18.4092 7.19438C18.5687 6.96033 18.5818 6.66247 18.4434 6.41699C18.2594 6.09086 18.1848 5.70685 18.2333 5.33564C18.2694 5.05948 18.1479 4.7899 17.9162 4.63203L14.6077 2.37737C14.376 2.21946 14.0806 2.20498 13.8368 2.3396C13.5092 2.5205 13.1245 2.59153 12.7537 2.53962C12.4787 2.50104 12.1998 2.62522 12.0426 2.85574L8.10243 8.63762H7.62101L12.889 0.907282ZM13.0271 6.23072C11.6619 6.23072 10.5413 7.29519 10.45 8.63762H8.86104L12.5606 3.20882H12.5607C12.5817 3.17792 12.6165 3.15953 12.6523 3.15953C12.6571 3.15953 12.6618 3.15988 12.6666 3.16052C13.171 3.23107 13.6941 3.13457 14.1398 2.88848C14.1749 2.86906 14.2199 2.87186 14.2546 2.89549L17.5632 5.15019C17.5978 5.17382 17.6168 5.21473 17.6117 5.25443C17.5456 5.75927 17.6471 6.28151 17.8973 6.72504C17.9174 6.76066 17.9149 6.80629 17.8911 6.84131L16.667 8.63757H15.6043C15.5129 7.29519 14.3923 6.23072 13.0271 6.23072ZM14.9756 8.63766H11.0786C11.1684 7.64126 12.0077 6.85772 13.0271 6.85772C14.0465 6.85768 14.8859 7.64126 14.9756 8.63766ZM2.55104 8.48942C2.55104 8.24939 2.74625 8.05414 2.98627 8.05414H3.72722L3.6696 8.63762H2.55104V8.48942ZM1.73829 10.0309C1.73829 9.60837 2.08208 9.26457 2.50468 9.26457H19.9958C20.4184 9.26457 20.7622 9.60837 20.7622 10.0309V10.9008H1.73829V10.0309ZM20.7622 20.717C20.7622 21.1396 20.4184 21.4834 19.9958 21.4834H2.50468C2.08208 21.4834 1.73829 21.1396 1.73829 20.717V19.8472H3.42876C3.60193 19.8472 3.74222 19.7068 3.74222 19.5337C3.74222 19.3606 3.60188 19.2203 3.42876 19.2203H1.73829V11.5277H20.7622V12.9964H17.7816H17.7816C16.8424 12.9964 16.029 13.5438 15.6429 14.3362C15.6416 14.3389 15.6401 14.3415 15.6388 14.3441C15.6355 14.3509 15.6327 14.3579 15.6295 14.3647C15.5835 14.4623 15.5436 14.5634 15.5111 14.6678C15.511 14.6681 15.5109 14.6683 15.5108 14.6686C15.4414 14.8916 15.404 15.1285 15.404 15.374C15.404 16.685 16.4706 17.7516 17.7815 17.7516H17.7816H20.7621V19.2203H5.436C5.26284 19.2203 5.12255 19.3606 5.12255 19.5337C5.12255 19.7068 5.26288 19.8472 5.436 19.8472H20.7622V20.717ZM21.7962 17.0469C21.7962 17.0897 21.7613 17.1246 21.7184 17.1246H17.7817C17.118 17.1246 16.5394 16.7534 16.2426 16.2078C16.2291 16.183 16.2162 16.1578 16.2039 16.1323C16.1793 16.0813 16.1571 16.0289 16.1374 15.9753C16.0686 15.7877 16.031 15.5851 16.031 15.374C16.031 15.1629 16.0686 14.9603 16.1374 14.7727C16.1571 14.7191 16.1793 14.6667 16.2039 14.6157C16.2162 14.5902 16.2291 14.565 16.2426 14.5402C16.5394 13.9946 17.118 13.6234 17.7817 13.6234H21.7184C21.7612 13.6234 21.7962 13.6583 21.7962 13.7011V17.0469Z" fill="#00966E"/>
<path d="M17.8559 14.1016C17.1545 14.1016 16.584 14.6721 16.584 15.3734C16.584 16.0747 17.1545 16.6453 17.8559 16.6453C18.5572 16.6453 19.1277 16.0747 19.1277 15.3734C19.1277 14.6721 18.5572 14.1016 17.8559 14.1016ZM17.8559 16.0183C17.5003 16.0183 17.2109 15.729 17.2109 15.3734C17.2109 15.0179 17.5003 14.7285 17.8559 14.7285C18.2115 14.7285 18.5008 15.0178 18.5008 15.3734C18.5008 15.729 18.2115 16.0183 17.8559 16.0183Z" fill="#00966E"/>
</g>
<defs>
<clipPath id="clip0_417_1863">
<rect width="22" height="22" fill="white" transform="translate(0.767578 0.110352)"/>
</clipPath>
</defs>
</svg>
