<svg width="20" height="19" viewBox="0 0 20 19" fill="none" xmlns="http://www.w3.org/2000/svg">
<g clip-path="url(#clip0_417_1122)">
<path d="M6.71517 12.3442H6.71603C6.71675 12.3442 6.71747 12.344 6.71819 12.344H16.7247C16.9711 12.344 17.1877 12.1806 17.2554 11.9437L19.463 4.21689C19.5106 4.05031 19.4773 3.87122 19.3731 3.73295C19.2687 3.59469 19.1056 3.51334 18.9324 3.51334H5.44231L5.04777 1.73786C4.99158 1.48532 4.76765 1.30566 4.50893 1.30566H1.19743C0.892577 1.30566 0.645508 1.55273 0.645508 1.85758C0.645508 2.16243 0.892577 2.4095 1.19743 2.4095H4.06625C4.1361 2.72412 5.95427 10.906 6.0589 11.3767C5.47235 11.6317 5.06085 12.2165 5.06085 12.8959C5.06085 13.8089 5.80364 14.5517 6.71661 14.5517H16.7247C17.0296 14.5517 17.2766 14.3046 17.2766 13.9998C17.2766 13.6949 17.0296 13.4479 16.7247 13.4479H6.71661C6.41233 13.4479 6.16469 13.2002 6.16469 12.8959C6.16469 12.5921 6.41147 12.3449 6.71517 12.3442ZM18.2007 4.61717L16.3083 11.2402H7.15929L5.68751 4.61717H18.2007Z" fill="white"/>
<path d="M6.16504 16.2075C6.16504 17.1205 6.90783 17.8633 7.82079 17.8633C8.73376 17.8633 9.47655 17.1205 9.47655 16.2075C9.47655 15.2945 8.73376 14.5518 7.82079 14.5518C6.90783 14.5518 6.16504 15.2945 6.16504 16.2075ZM7.82079 15.6556C8.12507 15.6556 8.37271 15.9032 8.37271 16.2075C8.37271 16.5118 8.12507 16.7594 7.82079 16.7594C7.51652 16.7594 7.26888 16.5118 7.26888 16.2075C7.26888 15.9032 7.51652 15.6556 7.82079 15.6556Z" fill="white"/>
<path d="M13.9648 16.2075C13.9648 17.1205 14.7076 17.8633 15.6206 17.8633C16.5336 17.8633 17.2764 17.1205 17.2764 16.2075C17.2764 15.2945 16.5336 14.5518 15.6206 14.5518C14.7076 14.5518 13.9648 15.2945 13.9648 16.2075ZM15.6206 15.6556C15.9249 15.6556 16.1725 15.9032 16.1725 16.2075C16.1725 16.5118 15.9249 16.7594 15.6206 16.7594C15.3163 16.7594 15.0687 16.5118 15.0687 16.2075C15.0687 15.9032 15.3163 15.6556 15.6206 15.6556Z" fill="white"/>
</g>
<defs>
<clipPath id="clip0_417_1122">
<rect width="18.8388" height="18.8388" fill="white" transform="translate(0.645508 0.165039)"/>
</clipPath>
</defs>
</svg>
