<svg width="23" height="23" viewBox="0 0 23 23" fill="none" xmlns="http://www.w3.org/2000/svg">
<g clip-path="url(#clip0_417_1876)">
<path d="M11.7676 6.08789C11.5304 6.08789 11.3379 6.28041 11.3379 6.51758C11.3379 6.75475 11.5304 6.94727 11.7676 6.94727C12.0047 6.94727 12.1973 6.75475 12.1973 6.51758C12.1973 6.28041 12.0047 6.08789 11.7676 6.08789Z" fill="white" fill-opacity="0.8"/>
<path d="M4.63477 13.8223C4.87193 13.8223 5.06445 13.6297 5.06445 13.3926C5.06445 13.1554 4.87193 12.9629 4.63477 12.9629C4.3976 12.9629 4.20508 13.1554 4.20508 13.3926C4.20508 13.6297 4.3976 13.8223 4.63477 13.8223Z" fill="white" fill-opacity="0.8"/>
<path d="M15.2051 1.79102C11.3367 1.79102 8.16173 4.4581 7.91617 7.81755C4.2321 8.00235 0.767578 10.6589 0.767578 14.252C0.767578 15.7535 1.36176 17.2084 2.44336 18.3612C2.65736 19.2434 2.39754 20.1785 1.75284 20.8232C1.62997 20.946 1.59322 21.1308 1.65968 21.2914C1.72615 21.4519 1.88275 21.5566 2.05664 21.5566C3.28209 21.5566 4.46306 21.0761 5.34056 20.2293C6.1954 20.5207 7.31075 20.6973 8.33008 20.6973C12.1979 20.6973 15.3726 18.0309 15.6188 14.6721C16.5185 14.6321 17.4542 14.466 18.1946 14.2137C19.0721 15.0605 20.2531 15.541 21.4785 15.541C21.6524 15.541 21.809 15.4363 21.8755 15.2758C21.9419 15.1152 21.9052 14.9304 21.7823 14.8075C21.1376 14.1628 20.8778 13.2278 21.0918 12.3456C22.1734 11.1928 22.7676 9.73788 22.7676 8.23633C22.7676 4.50291 19.0362 1.79102 15.2051 1.79102ZM8.33008 19.8379C7.31595 19.8379 6.16032 19.6388 5.38622 19.3308C5.22038 19.2647 5.03088 19.3082 4.9102 19.4399C4.39139 20.0071 3.71681 20.4025 2.98181 20.5843C3.38683 19.8083 3.49022 18.8936 3.24382 18.0268C3.22435 17.9585 3.18826 17.8961 3.13875 17.8452C2.16389 16.8412 1.62695 15.565 1.62695 14.252C1.62695 11.224 4.69653 8.66602 8.33008 8.66602C11.7612 8.66602 14.7754 11.052 14.7754 14.252C14.7754 17.3321 11.8841 19.8379 8.33008 19.8379ZM20.3964 11.8296C20.3469 11.8806 20.3108 11.9431 20.2913 12.0112C20.0449 12.878 20.1483 13.7927 20.5533 14.5687C19.8183 14.3871 19.1438 13.9915 18.625 13.4243C18.5043 13.2927 18.3148 13.2491 18.1489 13.3152C17.4781 13.5821 16.521 13.7669 15.6175 13.8115C15.4919 12.1866 14.6814 10.6594 13.2957 9.52539H18.9004C19.1377 9.52539 19.3301 9.33304 19.3301 9.0957C19.3301 8.85837 19.1377 8.66602 18.9004 8.66602H11.9755C11.0002 8.16953 9.90498 7.87999 8.77773 7.81923C9.02463 4.93327 11.8131 2.65039 15.2051 2.65039C18.8386 2.65039 21.9082 5.20837 21.9082 8.23633C21.9082 9.54939 21.3713 10.8255 20.3964 11.8296Z" fill="white" fill-opacity="0.8"/>
<path d="M11.7676 12.9629H6.35352C6.11618 12.9629 5.92383 13.1552 5.92383 13.3926C5.92383 13.6299 6.11618 13.8223 6.35352 13.8223H11.7676C12.0049 13.8223 12.1973 13.6299 12.1973 13.3926C12.1973 13.1552 12.0049 12.9629 11.7676 12.9629Z" fill="white" fill-opacity="0.8"/>
<path d="M11.7676 15.541H4.63477C4.39743 15.541 4.20508 15.7334 4.20508 15.9707C4.20508 16.208 4.39743 16.4004 4.63477 16.4004H11.7676C12.0049 16.4004 12.1973 16.208 12.1973 15.9707C12.1973 15.7334 12.0049 15.541 11.7676 15.541Z" fill="white" fill-opacity="0.8"/>
<path d="M18.9004 6.08789H13.4863C13.249 6.08789 13.0566 6.28024 13.0566 6.51758C13.0566 6.75491 13.249 6.94727 13.4863 6.94727H18.9004C19.1377 6.94727 19.3301 6.75491 19.3301 6.51758C19.3301 6.28024 19.1377 6.08789 18.9004 6.08789Z" fill="white" fill-opacity="0.8"/>
</g>
<defs>
<clipPath id="clip0_417_1876">
<rect width="22" height="22" fill="white" transform="translate(0.767578 0.673828)"/>
</clipPath>
</defs>
</svg>
