<svg width="21" height="21" viewBox="0 0 21 21" fill="none" xmlns="http://www.w3.org/2000/svg">
<path d="M17.0807 7.57812H9.58073C8.66025 7.57812 7.91406 8.32432 7.91406 9.24479V16.7448C7.91406 17.6653 8.66025 18.4115 9.58073 18.4115H17.0807C18.0012 18.4115 18.7474 17.6653 18.7474 16.7448V9.24479C18.7474 8.32432 18.0012 7.57812 17.0807 7.57812Z" stroke="#00966E" stroke-width="1.4" stroke-linecap="round" stroke-linejoin="round"/>
<path d="M4.58057 12.5785H3.74723C3.30521 12.5785 2.88128 12.4029 2.56872 12.0903C2.25616 11.7777 2.08057 11.3538 2.08057 10.9118V3.41178C2.08057 2.96976 2.25616 2.54583 2.56872 2.23327C2.88128 1.92071 3.30521 1.74512 3.74723 1.74512H11.2472C11.6893 1.74512 12.1132 1.92071 12.4257 2.23327C12.7383 2.54583 12.9139 2.96976 12.9139 3.41178V4.24512" stroke="#00966E" stroke-width="1.4" stroke-linecap="round" stroke-linejoin="round"/>
</svg>
