<svg width="104" height="61" viewBox="0 0 104 61" fill="none" xmlns="http://www.w3.org/2000/svg">
<path d="M51.6873 0.188477L57.0555 11.7171L68.4702 1.84272L67.2102 13.7763L83.4343 6.62619L75.6828 17.6715L94.9582 14.0205L81.555 22.9806L101.793 23.2244L84.1906 29.1284L103.198 33.2405L83.304 35.4485L99.0212 42.9834L78.9913 41.2562L89.7149 51.3972L71.7197 45.922L76.2878 57.5703L62.2773 48.9404L60.1948 60.8337L51.6873 49.9842L43.1799 60.8337L41.0974 48.9404L27.0869 57.5703L31.655 45.922L13.6597 51.3972L24.3834 41.2562L4.35345 42.9834L20.0706 35.4485L0.176537 33.2405L19.184 29.1284L1.58162 23.2244L21.8197 22.9806L8.41643 14.0205L27.6919 17.6715L19.9403 6.62619L36.1644 13.7763L34.9045 1.84272L46.3191 11.7171L51.6873 0.188477Z" fill="#00130E"/>
<path d="M57.3827 12.0952L67.84 3.04895L66.713 13.7238L66.6224 14.5817L67.4119 14.2338L81.9948 7.807L75.2735 17.3843L74.5664 18.3918L75.7758 18.1628L92.6407 14.9684L81.2771 22.565L79.9365 23.4612L81.549 23.4806L98.8361 23.6888L84.0316 28.6544L82.3076 29.2326L84.0849 29.6171L100.098 33.0815L83.2489 34.9516L81.5128 35.1443L83.0879 35.8994L96.3345 42.2498L79.0342 40.7581L77.6066 40.635L78.6477 41.6195L87.8272 50.3003L71.8652 45.4437L70.8771 45.143L71.2542 46.1046L75.276 56.3599L62.5395 48.5147L61.9119 48.1281L61.7848 48.8542L59.8958 59.6421L52.0808 49.6757L51.6873 49.1739L51.2939 49.6757L43.4788 59.6421L41.5899 48.8542L41.4627 48.1281L40.8351 48.5147L28.0987 56.3599L32.1204 46.1046L32.4975 45.143L31.5094 45.4437L15.5474 50.3003L24.7269 41.6195L25.768 40.635L24.3404 40.7581L7.04017 42.2498L20.2868 35.8994L21.8619 35.1443L20.1258 34.9516L3.27626 33.0815L19.2897 29.6171L21.067 29.2326L19.343 28.6544L4.5386 23.6888L21.8257 23.4806L23.4382 23.4612L22.0975 22.565L10.734 14.9684L27.5989 18.1628L28.8083 18.3918L28.1012 17.3843L21.3799 7.80701L35.9628 14.2338L36.7523 14.5817L36.6617 13.7238L35.5346 3.04895L45.992 12.0952L46.4929 12.5285L46.7724 11.9282L51.6873 1.37297L56.6023 11.9282L56.8818 12.5285L57.3827 12.0952Z" stroke="#00966E" stroke-opacity="0.38"/>
</svg>
