<svg width="166" height="61" viewBox="0 0 166 61" fill="none" xmlns="http://www.w3.org/2000/svg">
<path d="M83 0L91.6203 11.517L109.95 1.65257L107.927 13.5741L133.98 6.43122L121.532 17.4654L152.485 13.8181L130.962 22.7692L163.46 23.0127L135.194 28.9107L165.717 33.0187L133.77 35.2245L159.009 42.7517L126.845 41.0263L144.065 51.1571L115.168 45.6874L122.504 57.324L100.005 48.7027L96.6614 60.584L83 49.7455L69.3386 60.584L65.9945 48.7027L43.4964 57.324L50.8318 45.6874L21.9349 51.1571L39.1551 41.0263L6.99081 42.7517L32.2296 35.2245L0.283485 33.0187L30.8059 28.9107L2.53978 23.0127L35.0382 22.7692L13.5152 13.8181L44.4679 17.4654L32.0203 6.43122L58.0732 13.5741L56.0499 1.65257L74.3797 11.517L83 0Z" fill="#00130E"/>
<path d="M83 0.834413L91.22 11.8166L91.4781 12.1613L91.8573 11.9573L109.286 2.57782L107.434 13.4904L107.303 14.2637L108.059 14.0563L132.042 7.48101L121.2 17.0912L120.008 18.1485L121.591 17.9619L148.979 14.7347L130.77 22.3075L130.958 23.2692L158.784 23.4777L135.092 28.4213L135.127 29.4063L160.778 32.8585L133.736 34.7257L133.628 35.7036L154.829 42.0267L126.872 40.527L126.591 41.4572L141.336 50.1316L115.261 45.1961L114.133 44.9825L114.745 45.954L121.279 56.3193L100.184 48.2358L99.6727 48.0397L99.5242 48.5673L96.3836 59.7254L83.3108 49.3538L83 49.1073L82.6892 49.3538L69.6164 59.7254L66.4758 48.5673L66.3273 48.0397L65.8156 48.2358L44.7207 56.3193L51.2548 45.954L51.8672 44.9825L50.7388 45.1961L24.664 50.1316L39.4086 41.4572L39.1283 40.527L11.1711 42.0267L32.3725 35.7036L32.264 34.7257L5.2222 32.8585L30.8726 29.4063L30.908 28.4213L7.216 23.4777L35.042 23.2692L35.2302 22.3075L17.0212 14.7347L44.4094 17.9619L45.9923 18.1485L44.7996 17.0912L33.9584 7.48101L57.941 14.0563L58.6974 14.2637L58.5662 13.4904L56.7141 2.57782L74.1427 11.9573L74.5219 12.1613L74.78 11.8166L83 0.834413Z" stroke="#00966E" stroke-opacity="0.38"/>
</svg>
