<svg width="20" height="20" viewBox="0 0 20 20" fill="none" xmlns="http://www.w3.org/2000/svg">
<g clip-path="url(#clip0_417_1910)">
<path d="M15.5566 5.32422C15.5566 5.52904 15.7229 5.69531 15.9277 5.69531C16.1326 5.69531 16.2988 5.52904 16.2988 5.32422C16.2988 5.11939 16.1326 4.95312 15.9277 4.95312C15.7229 4.95312 15.5566 5.11939 15.5566 5.32422Z" fill="white" fill-opacity="0.8"/>
<path d="M17.0416 9.77734C17.0416 10.2527 16.9939 10.7271 16.8999 11.1875C16.8589 11.3883 16.9885 11.5842 17.1893 11.6253C17.2143 11.6305 17.2393 11.633 17.2639 11.633C17.4366 11.633 17.5912 11.5116 17.6272 11.3359C17.7311 10.8267 17.7837 10.3024 17.7837 9.77734C17.7837 8.60883 17.5304 7.48439 17.0304 6.43518C16.9423 6.25022 16.7209 6.17165 16.5358 6.25978C16.3507 6.34792 16.2723 6.56941 16.3604 6.75453C16.8124 7.70313 17.0416 8.72016 17.0416 9.77734Z" fill="white" fill-opacity="0.8"/>
<path d="M11.623 13.1172H11.2519V8.29297C11.2519 8.088 11.0858 7.92188 10.8809 7.92188H7.91211C7.70714 7.92188 7.54102 8.088 7.54102 8.29297V9.77734C7.54102 9.98231 7.70714 10.1484 7.91211 10.1484H8.2832V13.1172H7.91211C7.70714 13.1172 7.54102 13.2833 7.54102 13.4883V14.9726C7.54102 15.1776 7.70714 15.3437 7.91211 15.3437H11.623C11.828 15.3437 11.9941 15.1776 11.9941 14.9726V13.4883C11.9941 13.2833 11.828 13.1172 11.623 13.1172ZM11.2519 14.6016H8.2832V13.8594H8.6543C8.85927 13.8594 9.02539 13.6932 9.02539 13.4883V9.77734C9.02539 9.57237 8.85927 9.40625 8.6543 9.40625H8.2832V8.66406H10.5098V13.4883C10.5098 13.6932 10.676 13.8594 10.8809 13.8594H11.2519V14.6016Z" fill="white" fill-opacity="0.8"/>
<path d="M9.76758 7.17968C10.586 7.17968 11.2519 6.51375 11.2519 5.69531C11.2519 4.87688 10.586 4.21094 9.76758 4.21094C8.94914 4.21094 8.2832 4.87688 8.2832 5.69531C8.2832 6.51375 8.94914 7.17968 9.76758 7.17968ZM9.76758 4.95312C10.1768 4.95312 10.5098 5.28609 10.5098 5.69531C10.5098 6.10453 10.1768 6.4375 9.76758 6.4375C9.35836 6.4375 9.02539 6.10453 9.02539 5.69531C9.02539 5.28609 9.35836 4.95312 9.76758 4.95312Z" fill="white" fill-opacity="0.8"/>
<path d="M9.76758 0.277344C4.64736 0.277344 0.267594 4.64885 0.267594 9.77733C0.267594 11.5292 0.769585 13.3922 1.616 14.8013L0.286584 18.789C0.242227 18.9222 0.276872 19.0693 0.376313 19.1686C0.476189 19.2685 0.623467 19.3025 0.756104 19.2582L4.74376 17.9289C6.15276 18.7755 8.01576 19.2773 9.76758 19.2773C14.8891 19.2773 19.2676 14.9052 19.2676 9.77733C19.2676 4.65581 14.8956 0.277344 9.76758 0.277344ZM9.76758 18.5351C8.08708 18.5351 6.3009 18.0392 4.98947 17.2086C4.89655 17.1498 4.78073 17.1343 4.67346 17.1701L1.22548 18.3194L2.37485 14.8715C2.41022 14.7656 2.39602 14.6497 2.33629 14.5554C1.50568 13.2442 1.00978 11.4578 1.00978 9.77733C1.00978 5.03009 5.02034 1.01953 9.76758 1.01953C14.5148 1.01953 18.5254 5.03009 18.5254 9.77733C18.5254 14.5246 14.5148 18.5351 9.76758 18.5351Z" fill="white" fill-opacity="0.8"/>
</g>
<defs>
<clipPath id="clip0_417_1910">
<rect width="19" height="19" fill="white" transform="translate(0.267578 0.277344)"/>
</clipPath>
</defs>
</svg>
