<svg width="90" height="28" viewBox="0 0 90 28" fill="none" xmlns="http://www.w3.org/2000/svg">
<mask id="path-1-outside-1_417_1139" maskUnits="userSpaceOnUse" x="-3" y="-3.27246" width="96" height="36" fill="black">
<rect fill="white" x="-3" y="-3.27246" width="96" height="36"/>
<path d="M8.37798 2.96582V12.7275H6.14673V5.1134H3.21821V12.7275H0.986964V2.96582H8.37798ZM14.3102 2.96582C15.2678 2.96582 16.0766 3.29121 16.7367 3.94199C17.3967 4.59277 17.7268 5.38301 17.7268 6.3127C17.7268 7.24238 17.3967 8.03262 16.7367 8.6834C16.0766 9.33418 15.2678 9.65957 14.3102 9.65957H12.8459V12.7275H10.6147V2.96582H14.3102ZM14.3102 7.56777C14.6542 7.56777 14.9377 7.44691 15.1608 7.20519C15.384 6.96348 15.4955 6.66598 15.4955 6.3127C15.4955 5.95941 15.384 5.66191 15.1608 5.42019C14.9377 5.17848 14.6542 5.05762 14.3102 5.05762H12.8459V7.56777H14.3102ZM27.5856 11.4585C26.6001 12.4347 25.4008 12.9228 23.9877 12.9228C22.5746 12.9228 21.3753 12.4347 20.3898 11.4585C19.4043 10.4823 18.9116 9.2784 18.9116 7.84668C18.9116 6.41496 19.4043 5.21102 20.3898 4.23484C21.3753 3.25867 22.5746 2.77059 23.9877 2.77059C25.4008 2.77059 26.6001 3.25867 27.5856 4.23484C28.571 5.21102 29.0638 6.41496 29.0638 7.84668C29.0638 9.2784 28.571 10.4823 27.5856 11.4585ZM21.9517 9.93848C22.5002 10.4777 23.1789 10.7473 23.9877 10.7473C24.7965 10.7473 25.4705 10.4777 26.0098 9.93848C26.5583 9.39926 26.8325 8.70199 26.8325 7.84668C26.8325 6.99137 26.5583 6.2941 26.0098 5.75488C25.4705 5.21566 24.7965 4.94605 23.9877 4.94605C23.1789 4.94605 22.5002 5.21566 21.9517 5.75488C21.4125 6.2941 21.1428 6.99137 21.1428 7.84668C21.1428 8.70199 21.4125 9.39926 21.9517 9.93848ZM36.9301 7.66539C37.7297 8.17672 38.1294 8.91117 38.1294 9.86875C38.1294 10.7148 37.8273 11.4027 37.223 11.9327C36.6187 12.4626 35.8703 12.7275 34.9778 12.7275H30.8779V2.96582H34.6989C35.5728 2.96582 36.3026 3.22613 36.8883 3.74676C37.4833 4.25809 37.7808 4.92746 37.7808 5.75488C37.7808 6.53582 37.4972 7.17266 36.9301 7.66539ZM34.6989 5.05762H33.1091V6.78684H34.6989C34.9499 6.78684 35.1544 6.70781 35.3125 6.54977C35.4705 6.38242 35.5495 6.17324 35.5495 5.92223C35.5495 5.67121 35.4705 5.46668 35.3125 5.30863C35.1544 5.14129 34.9499 5.05762 34.6989 5.05762ZM34.9778 10.6357C35.2567 10.6357 35.4798 10.5521 35.6472 10.3847C35.8145 10.2081 35.8982 9.98031 35.8982 9.70141C35.8982 9.4225 35.8145 9.19937 35.6472 9.03203C35.4798 8.85539 35.2567 8.76707 34.9778 8.76707H33.1091V10.6357H34.9778ZM42.0287 10.58H45.9334V12.7275H39.7974V2.96582H45.8636V5.1134H42.0287V6.73105H45.515V8.85074H42.0287V10.58ZM51.4456 2.96582C52.4032 2.96582 53.212 3.29121 53.8721 3.94199C54.5321 4.59277 54.8622 5.38301 54.8622 6.3127C54.8622 7.24238 54.5321 8.03262 53.8721 8.6834C53.212 9.33418 52.4032 9.65957 51.4456 9.65957H49.9813V12.7275H47.7501V2.96582H51.4456ZM51.4456 7.56777C51.7896 7.56777 52.0731 7.44691 52.2962 7.20519C52.5194 6.96348 52.6309 6.66598 52.6309 6.3127C52.6309 5.95941 52.5194 5.66191 52.2962 5.42019C52.0731 5.17848 51.7896 5.05762 51.4456 5.05762H49.9813V7.56777H51.4456ZM63.2217 2.96582V12.7275H60.9905V9.52012H60.2793L58.2014 12.7275H55.6913L57.9783 9.24121C57.3833 8.9902 56.8999 8.59973 56.528 8.0698C56.1561 7.53059 55.9702 6.94488 55.9702 6.3127C55.9702 5.38301 56.2956 4.59277 56.9463 3.94199C57.5971 3.29121 58.3874 2.96582 59.317 2.96582H63.2217ZM59.317 7.56777H60.9905V5.05762H59.317C59.0102 5.05762 58.7453 5.17848 58.5222 5.42019C58.3083 5.66191 58.2014 5.95941 58.2014 6.3127C58.2014 6.66598 58.3083 6.96348 58.5222 7.20519C58.7453 7.44691 59.0102 7.56777 59.317 7.56777ZM67.1961 2.14305V0.330155H71.3797V2.14305H67.1961ZM70.8917 12.7275V7.42832L67.1264 12.7275H65.453V2.96582H67.6842V8.26504L71.4495 2.96582H73.1229V12.7275H70.8917ZM81.9074 2.96582V5.1134H79.3972V12.7275H77.166V5.1134H74.6558V2.96582H81.9074ZM85.6731 10.58H89.5778V12.7275H83.4419V2.96582H89.5081V5.1134H85.6731V6.73105H89.1595V8.85074H85.6731V10.58ZM29.3392 27.9228C27.8796 27.9228 26.6663 27.4393 25.6995 26.4725C24.7419 25.4963 24.2631 24.2877 24.2631 22.8467C24.2631 21.4057 24.7419 20.2017 25.6995 19.2348C26.6663 18.2587 27.8796 17.7706 29.3392 17.7706C30.2131 17.7706 31.0219 17.9751 31.7657 18.3842C32.5094 18.7839 33.0951 19.3325 33.5228 20.0297L31.5983 21.1454C31.3845 20.7642 31.0777 20.4713 30.6779 20.2668C30.2782 20.053 29.8319 19.9461 29.3392 19.9461C28.4746 19.9461 27.782 20.211 27.2613 20.7409C26.75 21.2709 26.4944 21.9728 26.4944 22.8467C26.4944 23.7206 26.75 24.4225 27.2613 24.9524C27.782 25.4823 28.4746 25.7473 29.3392 25.7473C29.8319 25.7473 30.2782 25.6404 30.6779 25.4266C31.087 25.2127 31.3938 24.9199 31.5983 24.548L33.5228 25.6636C33.1044 26.3609 32.5234 26.9141 31.7796 27.3231C31.0359 27.7229 30.2224 27.9228 29.3392 27.9228ZM39.6478 27.9228C38.1882 27.9228 36.975 27.4393 36.0081 26.4725C35.0505 25.4963 34.5717 24.2877 34.5717 22.8467C34.5717 21.4057 35.0505 20.2017 36.0081 19.2348C36.975 18.2587 38.1882 17.7706 39.6478 17.7706C40.5217 17.7706 41.3306 17.9751 42.0743 18.3842C42.8181 18.7839 43.4038 19.3325 43.8314 20.0297L41.907 21.1454C41.6931 20.7642 41.3863 20.4713 40.9866 20.2668C40.5868 20.053 40.1406 19.9461 39.6478 19.9461C38.7832 19.9461 38.0906 20.211 37.57 20.7409C37.0587 21.2709 36.803 21.9728 36.803 22.8467C36.803 23.7206 37.0587 24.4225 37.57 24.9524C38.0906 25.4823 38.7832 25.7473 39.6478 25.7473C40.1406 25.7473 40.5868 25.6404 40.9866 25.4266C41.3956 25.2127 41.7024 24.9199 41.907 24.548L43.8314 25.6636C43.4131 26.3609 42.832 26.9141 42.0883 27.3231C41.3445 27.7229 40.531 27.9228 39.6478 27.9228ZM45.4349 27.7275V17.9658H47.6662V21.0338H49.1304C50.088 21.0338 50.8968 21.3592 51.5569 22.01C52.217 22.6607 52.547 23.451 52.547 24.3807C52.547 25.3104 52.217 26.1006 51.5569 26.7514C50.8968 27.4021 50.088 27.7275 49.1304 27.7275H45.4349ZM53.3837 27.7275V17.9658H55.615V27.7275H53.3837ZM47.6662 25.6357H49.1304C49.4744 25.6357 49.758 25.5149 49.9811 25.2732C50.2042 25.0314 50.3158 24.7339 50.3158 24.3807C50.3158 24.0274 50.2042 23.7299 49.9811 23.4882C49.758 23.2464 49.4744 23.1256 49.1304 23.1256H47.6662V25.6357ZM57.1435 27.7275V25.6357C57.6828 25.7194 58.0872 25.6357 58.3568 25.3847C58.6264 25.1337 58.7612 24.6224 58.7612 23.8507V17.9658H65.5107V27.7275H63.2795V20.1134H60.9924V23.7671C60.9924 24.5945 60.8762 25.2964 60.6438 25.8728C60.4207 26.4492 60.1139 26.8722 59.7234 27.1418C59.3422 27.4021 58.9378 27.5788 58.5102 27.6718C58.0918 27.7647 57.6363 27.7833 57.1435 27.7275ZM75.6339 27.7275H73.0959L69.9721 23.2093V27.7275H67.7409V17.9658H69.9721V22.2052L72.9564 17.9658H75.4945L72.2034 22.7212L75.6339 27.7275ZM82.4668 27.7275V22.4283L78.7016 27.7275H77.0281V17.9658H79.2594V23.265L83.0246 17.9658H84.6981V27.7275H82.4668ZM87.2071 24.2412L86.7888 20.7549V17.9658H89.2989V20.7549L88.8806 24.2412H87.2071ZM88.9782 27.5323C88.7179 27.7926 88.4064 27.9228 88.0438 27.9228C87.6813 27.9228 87.3698 27.7926 87.1095 27.5323C86.8492 27.272 86.719 26.9605 86.719 26.598C86.719 26.2354 86.8492 25.9239 87.1095 25.6636C87.3698 25.4033 87.6813 25.2732 88.0438 25.2732C88.4064 25.2732 88.7179 25.4033 88.9782 25.6636C89.2385 25.9239 89.3686 26.2354 89.3686 26.598C89.3686 26.9605 89.2385 27.272 88.9782 27.5323Z"/>
</mask>
<path d="M8.37798 2.96582H11.378V-0.0341803H8.37798V2.96582ZM8.37798 12.7275V15.7275H11.378V12.7275H8.37798ZM6.14673 12.7275H3.14673V15.7275H6.14673V12.7275ZM6.14673 5.1134H9.14673V2.1134H6.14673V5.1134ZM3.21821 5.1134V2.1134H0.218215V5.1134H3.21821ZM3.21821 12.7275V15.7275H6.21821V12.7275H3.21821ZM0.986964 12.7275H-2.01304V15.7275H0.986964V12.7275ZM0.986964 2.96582V-0.0341803H-2.01304V2.96582H0.986964ZM5.37798 2.96582V12.7275H11.378V2.96582H5.37798ZM8.37798 9.72754H6.14673V15.7275H8.37798V9.72754ZM9.14673 12.7275V5.1134H3.14673V12.7275H9.14673ZM6.14673 2.1134H3.21821V8.1134H6.14673V2.1134ZM0.218215 5.1134V12.7275H6.21821V5.1134H0.218215ZM3.21821 9.72754H0.986964V15.7275H3.21821V9.72754ZM3.98696 12.7275V2.96582H-2.01304V12.7275H3.98696ZM0.986964 5.96582H8.37798V-0.0341803H0.986964V5.96582ZM16.7367 3.94199L18.8429 1.80568L16.7367 3.94199ZM16.7367 8.6834L14.6304 6.54709L14.6304 6.54709L16.7367 8.6834ZM12.8459 9.65957V6.65957H9.84593V9.65957H12.8459ZM12.8459 12.7275V15.7275H15.8459V12.7275H12.8459ZM10.6147 12.7275H7.61468V15.7275H10.6147V12.7275ZM10.6147 2.96582V-0.0341803H7.61468V2.96582H10.6147ZM15.1608 7.20519L12.9564 5.17035L12.9564 5.17036L15.1608 7.20519ZM15.1608 5.42019L17.3653 3.38535V3.38535L15.1608 5.42019ZM12.8459 5.05762V2.05762H9.84593V5.05762H12.8459ZM12.8459 7.56777H9.84593V10.5678H12.8459V7.56777ZM14.3102 5.96582C14.4432 5.96582 14.5003 5.98705 14.5153 5.99308C14.5284 5.99835 14.5651 6.01385 14.6304 6.0783L18.8429 1.80568C17.6011 0.581398 16.027 -0.0341803 14.3102 -0.0341803V5.96582ZM14.6304 6.0783C14.6678 6.11518 14.6877 6.14125 14.6973 6.15513C14.7065 6.16856 14.7097 6.1759 14.711 6.17891C14.7123 6.18194 14.7154 6.18991 14.7187 6.20694C14.722 6.22454 14.7268 6.2584 14.7268 6.3127H20.7268C20.7268 4.58267 20.0767 3.02213 18.8429 1.80568L14.6304 6.0783ZM14.7268 6.3127C14.7268 6.36699 14.722 6.40085 14.7187 6.41845C14.7154 6.43548 14.7123 6.44345 14.711 6.44648C14.7097 6.44949 14.7065 6.45683 14.6973 6.47025C14.6877 6.48414 14.6678 6.51021 14.6304 6.54709L18.8429 10.8197C20.0767 9.60326 20.7268 8.04272 20.7268 6.3127H14.7268ZM14.6304 6.54709C14.5651 6.61154 14.5284 6.62704 14.5153 6.63231C14.5003 6.63834 14.4432 6.65957 14.3102 6.65957V12.6596C16.027 12.6596 17.6011 12.044 18.8429 10.8197L14.6304 6.54709ZM14.3102 6.65957H12.8459V12.6596H14.3102V6.65957ZM9.84593 9.65957V12.7275H15.8459V9.65957H9.84593ZM12.8459 9.72754H10.6147V15.7275H12.8459V9.72754ZM13.6147 12.7275V2.96582H7.61468V12.7275H13.6147ZM10.6147 5.96582H14.3102V-0.0341803H10.6147V5.96582ZM14.3102 10.5678C15.4483 10.5678 16.5456 10.128 17.3653 9.24003L12.9564 5.17036C13.1128 5.00093 13.3304 4.8342 13.6045 4.71736C13.8756 4.60185 14.1248 4.56777 14.3102 4.56777V10.5678ZM17.3653 9.24004C18.1398 8.40095 18.4955 7.35922 18.4955 6.3127H12.4955C12.4955 6.16969 12.519 5.97109 12.6029 5.74741C12.6881 5.52014 12.8144 5.32423 12.9564 5.17035L17.3653 9.24004ZM18.4955 6.3127C18.4955 5.26618 18.1398 4.22444 17.3653 3.38535L12.9564 7.45503C12.8144 7.30116 12.6881 7.10525 12.6029 6.87798C12.519 6.6543 12.4955 6.4557 12.4955 6.3127H18.4955ZM17.3653 3.38535C16.5456 2.49737 15.4483 2.05762 14.3102 2.05762V8.05762C14.1248 8.05762 13.8756 8.02354 13.6045 7.90803C13.3304 7.79119 13.1128 7.62446 12.9564 7.45504L17.3653 3.38535ZM14.3102 2.05762H12.8459V8.05762H14.3102V2.05762ZM9.84593 5.05762V7.56777H15.8459V5.05762H9.84593ZM12.8459 10.5678H14.3102V4.56777H12.8459V10.5678ZM27.5856 11.4585L25.4743 9.32717L27.5856 11.4585ZM20.3898 11.4585L22.501 9.32717L20.3898 11.4585ZM20.3898 4.23484L18.2786 2.10349L20.3898 4.23484ZM21.9517 9.93848L19.8304 12.0598L19.8394 12.0689L19.8486 12.0778L21.9517 9.93848ZM26.0098 9.93848L23.9066 7.7991L23.8975 7.80809L23.8884 7.81716L26.0098 9.93848ZM26.0098 5.75488L23.8884 7.8762L23.8975 7.88527L23.9066 7.89426L26.0098 5.75488ZM21.9517 5.75488L19.8486 3.61551L19.8394 3.6245L19.8304 3.63356L21.9517 5.75488ZM25.4743 9.32717C25.0623 9.73528 24.6267 9.92277 23.9877 9.92277V15.9228C26.1749 15.9228 28.1379 15.1341 29.6968 13.5899L25.4743 9.32717ZM23.9877 9.92277C23.3487 9.92277 22.913 9.73528 22.501 9.32717L18.2786 13.5899C19.8375 15.1341 21.8005 15.9228 23.9877 15.9228V9.92277ZM22.501 9.32717C22.1045 8.93437 21.9116 8.50665 21.9116 7.84668H15.9116C15.9116 10.0501 16.7042 12.0303 18.2786 13.5899L22.501 9.32717ZM21.9116 7.84668C21.9116 7.18671 22.1045 6.75899 22.501 6.36619L18.2786 2.10349C16.7042 3.66304 15.9116 5.64321 15.9116 7.84668H21.9116ZM22.501 6.36619C22.913 5.95807 23.3487 5.77059 23.9877 5.77059V-0.229415C21.8005 -0.229415 19.8375 0.559268 18.2786 2.10349L22.501 6.36619ZM23.9877 5.77059C24.6267 5.77059 25.0623 5.95807 25.4743 6.36619L29.6968 2.10349C28.1379 0.559268 26.1749 -0.229415 23.9877 -0.229415V5.77059ZM25.4743 6.36619C25.8709 6.75899 26.0638 7.18671 26.0638 7.84668H32.0638C32.0638 5.64321 31.2712 3.66304 29.6968 2.10349L25.4743 6.36619ZM26.0638 7.84668C26.0638 8.50665 25.8709 8.93437 25.4743 9.32717L29.6968 13.5899C31.2712 12.0303 32.0638 10.0501 32.0638 7.84668H26.0638ZM19.8486 12.0778C20.9894 13.1994 22.4371 13.7473 23.9877 13.7473V7.7473C23.9525 7.7473 23.9381 7.74441 23.9405 7.74485C23.9435 7.7454 23.958 7.74844 23.9796 7.75704C24.0015 7.76572 24.0219 7.77659 24.0384 7.78746C24.0546 7.79812 24.0598 7.80405 24.0548 7.7991L19.8486 12.0778ZM23.9877 13.7473C25.5386 13.7473 26.9925 13.1984 28.1311 12.0598L23.8884 7.81716C23.8869 7.81866 23.8959 7.80957 23.916 7.79619C23.9364 7.78259 23.9605 7.76973 23.9857 7.75967C24.0106 7.74971 24.0277 7.746 24.0324 7.74514C24.0365 7.7444 24.023 7.7473 23.9877 7.7473V13.7473ZM28.1129 12.0778C29.302 10.9088 29.8325 9.40758 29.8325 7.84668H23.8325C23.8325 7.90019 23.8283 7.92872 23.8268 7.93667C23.8256 7.94393 23.8267 7.93428 23.835 7.913C23.8436 7.89127 23.8561 7.86651 23.8721 7.8425C23.888 7.81867 23.9014 7.80422 23.9066 7.7991L28.1129 12.0778ZM29.8325 7.84668C29.8325 6.28578 29.302 4.78452 28.1129 3.61551L23.9066 7.89426C23.9014 7.88914 23.888 7.87469 23.8721 7.85086C23.8561 7.82685 23.8436 7.80209 23.835 7.78035C23.8267 7.75908 23.8256 7.74943 23.8268 7.75669C23.8283 7.76463 23.8325 7.79317 23.8325 7.84668H29.8325ZM28.1311 3.63356C26.9925 2.49496 25.5386 1.94605 23.9877 1.94605V7.94605C24.023 7.94605 24.0365 7.94896 24.0324 7.94822C24.0277 7.94736 24.0106 7.94365 23.9857 7.93369C23.9605 7.92363 23.9364 7.91077 23.916 7.89717C23.8959 7.88379 23.8869 7.8747 23.8884 7.8762L28.1311 3.63356ZM23.9877 1.94605C22.4371 1.94605 20.9894 2.49397 19.8486 3.61551L24.0548 7.89426C24.0598 7.88931 24.0546 7.89524 24.0384 7.90589C24.0219 7.91677 24.0015 7.92764 23.9796 7.93632C23.958 7.94491 23.9435 7.94796 23.9405 7.94851C23.9381 7.94895 23.9525 7.94605 23.9877 7.94605V1.94605ZM19.8304 3.63356C18.6579 4.80598 18.1428 6.30143 18.1428 7.84668H24.1428C24.1428 7.79041 24.1473 7.75897 24.1492 7.74811C24.1509 7.73789 24.1506 7.74498 24.1432 7.76418C24.1356 7.78386 24.1239 7.80748 24.1084 7.83119C24.093 7.85475 24.0794 7.86983 24.073 7.8762L19.8304 3.63356ZM18.1428 7.84668C18.1428 9.39192 18.6579 10.8874 19.8304 12.0598L24.073 7.81716C24.0794 7.82353 24.093 7.83861 24.1084 7.86217C24.1239 7.88588 24.1356 7.9095 24.1432 7.92918C24.1506 7.94838 24.1509 7.95547 24.1492 7.94525C24.1473 7.93439 24.1428 7.90295 24.1428 7.84668H18.1428ZM36.9301 7.66539L34.9625 5.40077L31.9346 8.03161L35.3138 10.1927L36.9301 7.66539ZM37.223 11.9327L39.201 14.1882L37.223 11.9327ZM30.8779 12.7275H27.8779V15.7275H30.8779V12.7275ZM30.8779 2.96582V-0.0341803H27.8779V2.96582H30.8779ZM36.8883 3.74676L34.8952 5.98899L34.914 6.00566L34.933 6.02202L36.8883 3.74676ZM33.1091 5.05762V2.05762H30.1091V5.05762H33.1091ZM33.1091 6.78684H30.1091V9.78684H33.1091V6.78684ZM35.3125 6.54977L37.4338 8.67109L37.4641 8.64079L37.4935 8.60963L35.3125 6.54977ZM35.3125 5.30863L33.1314 7.3685L33.1609 7.39966L33.1912 7.42996L35.3125 5.30863ZM35.6472 10.3847L37.7685 12.506L37.7971 12.4774L37.825 12.448L35.6472 10.3847ZM35.6472 9.03203L33.4693 11.0953L33.4972 11.1247L33.5258 11.1534L35.6472 9.03203ZM33.1091 8.76707V5.76707H30.1091V8.76707H33.1091ZM33.1091 10.6357H30.1091V13.6357H33.1091V10.6357ZM35.3138 10.1927C35.3342 10.2058 35.3221 10.201 35.2936 10.1713C35.2637 10.1404 35.2273 10.0939 35.1946 10.0339C35.162 9.97405 35.1438 9.92008 35.1349 9.8822C35.1263 9.84613 35.1294 9.8384 35.1294 9.86875H41.1294C41.1294 7.89906 40.2175 6.2067 38.5465 5.13804L35.3138 10.1927ZM35.1294 9.86875C35.1294 9.90141 35.1266 9.90797 35.1293 9.89386C35.1323 9.87887 35.1398 9.84988 35.1561 9.81289C35.1724 9.77561 35.1926 9.74179 35.213 9.71441C35.2329 9.68756 35.2465 9.67574 35.245 9.67708L39.201 14.1882C40.4927 13.0555 41.1294 11.5271 41.1294 9.86875H35.1294ZM35.245 9.67708C35.2255 9.69415 35.218 9.69703 35.2072 9.70082C35.1919 9.70626 35.1249 9.72754 34.9778 9.72754V15.7275C36.5117 15.7275 37.9878 15.252 39.201 14.1882L35.245 9.67708ZM34.9778 9.72754H30.8779V15.7275H34.9778V9.72754ZM33.8779 12.7275V2.96582H27.8779V12.7275H33.8779ZM30.8779 5.96582H34.6989V-0.0341803H30.8779V5.96582ZM34.6989 5.96582C34.8358 5.96582 34.8909 5.98567 34.8938 5.98669C34.8966 5.98768 34.8945 5.9871 34.8906 5.98479C34.8868 5.98251 34.8881 5.98265 34.8952 5.98899L38.8814 1.50453C37.6821 0.438521 36.2165 -0.0341803 34.6989 -0.0341803V5.96582ZM34.933 6.02202C34.9293 6.01881 34.9104 6.00179 34.8856 5.96892C34.8603 5.93548 34.8359 5.89505 34.8162 5.8507C34.7737 5.75503 34.7808 5.70653 34.7808 5.75488H40.7808C40.7808 4.10753 40.142 2.58733 38.8436 1.4715L34.933 6.02202ZM34.7808 5.75488C34.7808 5.77561 34.7788 5.70737 34.8275 5.59794C34.8776 5.4855 34.9413 5.41917 34.9625 5.40077L38.8978 9.93001C40.1497 8.84228 40.7808 7.36538 40.7808 5.75488H34.7808ZM34.6989 2.05762H33.1091V8.05762H34.6989V2.05762ZM30.1091 5.05762V6.78684H36.1091V5.05762H30.1091ZM33.1091 9.78684H34.6989V3.78684H33.1091V9.78684ZM34.6989 9.78684C35.6386 9.78684 36.6418 9.46309 37.4338 8.67109L33.1912 4.42845C33.402 4.21763 33.6638 4.04336 33.9593 3.92917C34.2481 3.81759 34.5076 3.78684 34.6989 3.78684V9.78684ZM37.4935 8.60963C38.2273 7.8327 38.5495 6.86354 38.5495 5.92223H32.5495C32.5495 5.72965 32.5807 5.48034 32.6839 5.20717C32.7888 4.92945 32.9461 4.68612 33.1314 4.4899L37.4935 8.60963ZM38.5495 5.92223C38.5495 4.98249 38.2258 3.97932 37.4338 3.18731L33.1912 7.42996C32.9803 7.21914 32.8061 6.9573 32.6919 6.66176C32.5803 6.37297 32.5495 6.11351 32.5495 5.92223H38.5495ZM37.4935 3.24876C36.7141 2.42354 35.6922 2.05762 34.6989 2.05762V8.05762C34.4875 8.05762 34.2086 8.02137 33.9046 7.89701C33.595 7.77032 33.3333 7.58221 33.1314 7.3685L37.4935 3.24876ZM34.9778 13.6357C35.8995 13.6357 36.9389 13.3356 37.7685 12.506L33.5258 8.26341C33.7472 8.0421 34.0144 7.87146 34.3009 7.764C34.5783 7.66 34.8177 7.63574 34.9778 7.63574V13.6357ZM37.825 12.448C38.5979 11.6321 38.8982 10.6271 38.8982 9.70141H32.8982C32.8982 9.53987 32.9228 9.30989 33.0194 9.04696C33.1186 8.77704 33.2734 8.52833 33.4693 8.32149L37.825 12.448ZM38.8982 9.70141C38.8982 8.77973 38.598 7.74026 37.7685 6.91071L33.5258 11.1534C33.3045 10.932 33.1339 10.6648 33.0264 10.3783C32.9224 10.1009 32.8982 9.86154 32.8982 9.70141H38.8982ZM37.825 6.9688C37.0064 6.10468 35.9486 5.76707 34.9778 5.76707V11.7671C34.7997 11.7671 34.5423 11.7383 34.2502 11.6227C33.9494 11.5037 33.682 11.3198 33.4693 11.0953L37.825 6.9688ZM34.9778 5.76707H33.1091V11.7671H34.9778V5.76707ZM30.1091 8.76707V10.6357H36.1091V8.76707H30.1091ZM33.1091 13.6357H34.9778V7.63574H33.1091V13.6357ZM42.0287 10.58H39.0287V13.58H42.0287V10.58ZM45.9334 10.58H48.9334V7.57996H45.9334V10.58ZM45.9334 12.7275V15.7275H48.9334V12.7275H45.9334ZM39.7974 12.7275H36.7974V15.7275H39.7974V12.7275ZM39.7974 2.96582V-0.0341803H36.7974V2.96582H39.7974ZM45.8636 2.96582H48.8636V-0.0341803H45.8636V2.96582ZM45.8636 5.1134V8.1134H48.8636V5.1134H45.8636ZM42.0287 5.1134V2.1134H39.0287V5.1134H42.0287ZM42.0287 6.73105H39.0287V9.73105H42.0287V6.73105ZM45.515 6.73105H48.515V3.73105H45.515V6.73105ZM45.515 8.85074V11.8507H48.515V8.85074H45.515ZM42.0287 8.85074V5.85074H39.0287V8.85074H42.0287ZM42.0287 13.58H45.9334V7.57996H42.0287V13.58ZM42.9334 10.58V12.7275H48.9334V10.58H42.9334ZM45.9334 9.72754H39.7974V15.7275H45.9334V9.72754ZM42.7974 12.7275V2.96582H36.7974V12.7275H42.7974ZM39.7974 5.96582H45.8636V-0.0341803H39.7974V5.96582ZM42.8636 2.96582V5.1134H48.8636V2.96582H42.8636ZM45.8636 2.1134H42.0287V8.1134H45.8636V2.1134ZM39.0287 5.1134V6.73105H45.0287V5.1134H39.0287ZM42.0287 9.73105H45.515V3.73105H42.0287V9.73105ZM42.515 6.73105V8.85074H48.515V6.73105H42.515ZM45.515 5.85074H42.0287V11.8507H45.515V5.85074ZM39.0287 8.85074V10.58H45.0287V8.85074H39.0287ZM53.8721 3.94199L55.9783 1.80568L53.8721 3.94199ZM53.8721 8.6834L51.7658 6.54709V6.54709L53.8721 8.6834ZM49.9813 9.65957V6.65957H46.9813V9.65957H49.9813ZM49.9813 12.7275V15.7275H52.9813V12.7275H49.9813ZM47.7501 12.7275H44.7501V15.7275H47.7501V12.7275ZM47.7501 2.96582V-0.0341803H44.7501V2.96582H47.7501ZM52.2962 7.20519L50.0918 5.17035L50.0918 5.17036L52.2962 7.20519ZM52.2962 5.42019L54.5006 3.38535V3.38535L52.2962 5.42019ZM49.9813 5.05762V2.05762H46.9813V5.05762H49.9813ZM49.9813 7.56777H46.9813V10.5678H49.9813V7.56777ZM51.4456 5.96582C51.5785 5.96582 51.6357 5.98705 51.6507 5.99308C51.6638 5.99835 51.7005 6.01385 51.7658 6.0783L55.9783 1.80568C54.7365 0.581398 53.1624 -0.0341803 51.4456 -0.0341803V5.96582ZM51.7658 6.0783C51.8032 6.11518 51.8231 6.14125 51.8326 6.15513C51.8419 6.16856 51.8451 6.1759 51.8464 6.17891C51.8476 6.18194 51.8508 6.18991 51.854 6.20694C51.8574 6.22454 51.8622 6.2584 51.8622 6.3127H57.8622C57.8622 4.58267 57.2121 3.02213 55.9783 1.80568L51.7658 6.0783ZM51.8622 6.3127C51.8622 6.36699 51.8574 6.40085 51.854 6.41845C51.8508 6.43548 51.8476 6.44345 51.8464 6.44648C51.8451 6.44949 51.8419 6.45683 51.8326 6.47025C51.8231 6.48414 51.8032 6.51021 51.7658 6.54709L55.9783 10.8197C57.2121 9.60326 57.8622 8.04272 57.8622 6.3127H51.8622ZM51.7658 6.54709C51.7005 6.61154 51.6638 6.62704 51.6507 6.63231C51.6357 6.63834 51.5785 6.65957 51.4456 6.65957V12.6596C53.1624 12.6596 54.7365 12.044 55.9783 10.8197L51.7658 6.54709ZM51.4456 6.65957H49.9813V12.6596H51.4456V6.65957ZM46.9813 9.65957V12.7275H52.9813V9.65957H46.9813ZM49.9813 9.72754H47.7501V15.7275H49.9813V9.72754ZM50.7501 12.7275V2.96582H44.7501V12.7275H50.7501ZM47.7501 5.96582H51.4456V-0.0341803H47.7501V5.96582ZM51.4456 10.5678C52.5837 10.5678 53.681 10.128 54.5006 9.24003L50.0918 5.17036C50.2482 5.00093 50.4658 4.8342 50.7399 4.71736C51.0109 4.60185 51.2602 4.56777 51.4456 4.56777V10.5678ZM54.5006 9.24004C55.2752 8.40095 55.6309 7.35922 55.6309 6.3127H49.6309C49.6309 6.16969 49.6544 5.97109 49.7383 5.74741C49.8235 5.52014 49.9498 5.32423 50.0918 5.17035L54.5006 9.24004ZM55.6309 6.3127C55.6309 5.26618 55.2752 4.22444 54.5006 3.38535L50.0918 7.45503C49.9498 7.30116 49.8235 7.10525 49.7383 6.87798C49.6544 6.6543 49.6309 6.4557 49.6309 6.3127H55.6309ZM54.5006 3.38535C53.681 2.49737 52.5837 2.05762 51.4456 2.05762V8.05762C51.2602 8.05762 51.0109 8.02354 50.7399 7.90803C50.4658 7.79119 50.2482 7.62446 50.0918 7.45504L54.5006 3.38535ZM51.4456 2.05762H49.9813V8.05762H51.4456V2.05762ZM46.9813 5.05762V7.56777H52.9813V5.05762H46.9813ZM49.9813 10.5678H51.4456V4.56777H49.9813V10.5678ZM63.2217 2.96582H66.2217V-0.0341803H63.2217V2.96582ZM63.2217 12.7275V15.7275H66.2217V12.7275H63.2217ZM60.9905 12.7275H57.9905V15.7275H60.9905V12.7275ZM60.9905 9.52012H63.9905V6.52012H60.9905V9.52012ZM60.2793 9.52012V6.52012H58.6482L57.7614 7.889L60.2793 9.52012ZM58.2014 12.7275V15.7275H59.8325L60.7192 14.3587L58.2014 12.7275ZM55.6913 12.7275L53.1828 11.082L50.1354 15.7275H55.6913V12.7275ZM57.9783 9.24121L60.4867 10.8867L62.4614 7.8765L59.1444 6.47712L57.9783 9.24121ZM56.528 8.0698L54.0583 9.773L54.0653 9.78307L54.0723 9.79308L56.528 8.0698ZM56.9463 3.94199L54.825 1.82067V1.82067L56.9463 3.94199ZM60.9905 7.56777V10.5678H63.9905V7.56777H60.9905ZM60.9905 5.05762H63.9905V2.05762H60.9905V5.05762ZM58.5222 5.42019L56.3178 3.38535L56.2962 3.40869L56.2752 3.43247L58.5222 5.42019ZM58.5222 7.20519L56.2752 9.19292L56.2962 9.2167L56.3178 9.24003L58.5222 7.20519ZM60.2217 2.96582V12.7275H66.2217V2.96582H60.2217ZM63.2217 9.72754H60.9905V15.7275H63.2217V9.72754ZM63.9905 12.7275V9.52012H57.9905V12.7275H63.9905ZM60.9905 6.52012H60.2793V12.5201H60.9905V6.52012ZM57.7614 7.889L55.6836 11.0964L60.7192 14.3587L62.7971 11.1512L57.7614 7.889ZM58.2014 9.72754H55.6913V15.7275H58.2014V9.72754ZM58.1997 14.3731L60.4867 10.8867L55.4699 7.59568L53.1828 11.082L58.1997 14.3731ZM59.1444 6.47712C59.0698 6.44566 59.0328 6.41653 58.9837 6.34653L54.0723 9.79308C54.7669 10.7829 55.6968 11.5347 56.8122 12.0053L59.1444 6.47712ZM58.9976 6.36661C58.9826 6.34483 58.975 6.33059 58.9716 6.32393C58.9684 6.31743 58.9682 6.31584 58.969 6.31838C58.9698 6.32097 58.9704 6.32378 58.9707 6.32535C58.9709 6.32683 58.9702 6.32314 58.9702 6.3127H52.9702C52.9702 7.57619 53.3543 8.75218 54.0583 9.773L58.9976 6.36661ZM58.9702 6.3127C58.9702 6.20505 58.9874 6.16706 58.9882 6.165C58.9888 6.16355 59.0006 6.13039 59.0677 6.06331L54.825 1.82067C53.6052 3.04045 52.9702 4.59644 52.9702 6.3127H58.9702ZM59.0677 6.06331C59.1347 5.99623 59.1679 5.98449 59.1694 5.9839C59.1714 5.98305 59.2094 5.96582 59.317 5.96582V-0.0341803C57.6008 -0.0341803 56.0448 0.600892 54.825 1.82067L59.0677 6.06331ZM59.317 5.96582H63.2217V-0.0341803H59.317V5.96582ZM59.317 10.5678H60.9905V4.56777H59.317V10.5678ZM63.9905 7.56777V5.05762H57.9905V7.56777H63.9905ZM60.9905 2.05762H59.317V8.05762H60.9905V2.05762ZM59.317 2.05762C58.1075 2.05762 57.0628 2.5782 56.3178 3.38535L60.7266 7.45504C60.6026 7.58932 60.4076 7.75256 60.1332 7.87772C59.8541 8.00506 59.5698 8.05762 59.317 8.05762V2.05762ZM56.2752 3.43247C55.5287 4.27628 55.2014 5.30204 55.2014 6.3127H61.2014C61.2014 6.44156 61.1813 6.62655 61.1048 6.8392C61.0269 7.05598 60.9089 7.24994 60.7692 7.40792L56.2752 3.43247ZM55.2014 6.3127C55.2014 7.32335 55.5287 8.34912 56.2752 9.19292L60.7692 5.21747C60.9089 5.37545 61.0269 5.5694 61.1048 5.78618C61.1813 5.99884 61.2014 6.18383 61.2014 6.3127H55.2014ZM56.3178 9.24003C57.0628 10.0472 58.1075 10.5678 59.317 10.5678V4.56777C59.5698 4.56777 59.8541 4.62033 60.1332 4.74767C60.4076 4.87284 60.6026 5.03607 60.7266 5.17036L56.3178 9.24003ZM67.1961 2.14305H64.1961V5.14305H67.1961V2.14305ZM67.1961 0.330155V-2.66984H64.1961V0.330155H67.1961ZM71.3797 0.330155H74.3797V-2.66984H71.3797V0.330155ZM71.3797 2.14305V5.14305H74.3797V2.14305H71.3797ZM70.8917 12.7275H67.8917V15.7275H70.8917V12.7275ZM70.8917 7.42832H73.8917V-1.9734L68.4461 5.6907L70.8917 7.42832ZM67.1264 12.7275V15.7275H68.675L69.572 14.4652L67.1264 12.7275ZM65.453 12.7275H62.453V15.7275H65.453V12.7275ZM65.453 2.96582V-0.0341803H62.453V2.96582H65.453ZM67.6842 2.96582H70.6842V-0.0341803H67.6842V2.96582ZM67.6842 8.26504H64.6842V17.6668L70.1298 10.0027L67.6842 8.26504ZM71.4495 2.96582V-0.0341803H69.9009L69.0039 1.2282L71.4495 2.96582ZM73.1229 2.96582H76.1229V-0.0341803H73.1229V2.96582ZM73.1229 12.7275V15.7275H76.1229V12.7275H73.1229ZM70.1961 2.14305V0.330155H64.1961V2.14305H70.1961ZM67.1961 3.33016H71.3797V-2.66984H67.1961V3.33016ZM68.3797 0.330155V2.14305H74.3797V0.330155H68.3797ZM71.3797 -0.856954H67.1961V5.14305H71.3797V-0.856954ZM73.8917 12.7275V7.42832H67.8917V12.7275H73.8917ZM68.4461 5.6907L64.6809 10.9899L69.572 14.4652L73.3372 9.16594L68.4461 5.6907ZM67.1264 9.72754H65.453V15.7275H67.1264V9.72754ZM68.453 12.7275V2.96582H62.453V12.7275H68.453ZM65.453 5.96582H67.6842V-0.0341803H65.453V5.96582ZM64.6842 2.96582V8.26504H70.6842V2.96582H64.6842ZM70.1298 10.0027L73.895 4.70344L69.0039 1.2282L65.2387 6.52742L70.1298 10.0027ZM71.4495 5.96582H73.1229V-0.0341803H71.4495V5.96582ZM70.1229 2.96582V12.7275H76.1229V2.96582H70.1229ZM73.1229 9.72754H70.8917V15.7275H73.1229V9.72754ZM81.9074 2.96582H84.9074V-0.0341803H81.9074V2.96582ZM81.9074 5.1134V8.1134H84.9074V5.1134H81.9074ZM79.3972 5.1134V2.1134H76.3972V5.1134H79.3972ZM79.3972 12.7275V15.7275H82.3972V12.7275H79.3972ZM77.166 12.7275H74.166V15.7275H77.166V12.7275ZM77.166 5.1134H80.166V2.1134H77.166V5.1134ZM74.6558 5.1134H71.6558V8.1134H74.6558V5.1134ZM74.6558 2.96582V-0.0341803H71.6558V2.96582H74.6558ZM78.9074 2.96582V5.1134H84.9074V2.96582H78.9074ZM81.9074 2.1134H79.3972V8.1134H81.9074V2.1134ZM76.3972 5.1134V12.7275H82.3972V5.1134H76.3972ZM79.3972 9.72754H77.166V15.7275H79.3972V9.72754ZM80.166 12.7275V5.1134H74.166V12.7275H80.166ZM77.166 2.1134H74.6558V8.1134H77.166V2.1134ZM77.6558 5.1134V2.96582H71.6558V5.1134H77.6558ZM74.6558 5.96582H81.9074V-0.0341803H74.6558V5.96582ZM85.6731 10.58H82.6731V13.58H85.6731V10.58ZM89.5778 10.58H92.5778V7.57996H89.5778V10.58ZM89.5778 12.7275V15.7275H92.5778V12.7275H89.5778ZM83.4419 12.7275H80.4419V15.7275H83.4419V12.7275ZM83.4419 2.96582V-0.0341803H80.4419V2.96582H83.4419ZM89.5081 2.96582H92.5081V-0.0341803H89.5081V2.96582ZM89.5081 5.1134V8.1134H92.5081V5.1134H89.5081ZM85.6731 5.1134V2.1134H82.6731V5.1134H85.6731ZM85.6731 6.73105H82.6731V9.73105H85.6731V6.73105ZM89.1595 6.73105H92.1595V3.73105H89.1595V6.73105ZM89.1595 8.85074V11.8507H92.1595V8.85074H89.1595ZM85.6731 8.85074V5.85074H82.6731V8.85074H85.6731ZM85.6731 13.58H89.5778V7.57996H85.6731V13.58ZM86.5778 10.58V12.7275H92.5778V10.58H86.5778ZM89.5778 9.72754H83.4419V15.7275H89.5778V9.72754ZM86.4419 12.7275V2.96582H80.4419V12.7275H86.4419ZM83.4419 5.96582H89.5081V-0.0341803H83.4419V5.96582ZM86.5081 2.96582V5.1134H92.5081V2.96582H86.5081ZM89.5081 2.1134H85.6731V8.1134H89.5081V2.1134ZM82.6731 5.1134V6.73105H88.6731V5.1134H82.6731ZM85.6731 9.73105H89.1595V3.73105H85.6731V9.73105ZM86.1595 6.73105V8.85074H92.1595V6.73105H86.1595ZM89.1595 5.85074H85.6731V11.8507H89.1595V5.85074ZM82.6731 8.85074V10.58H88.6731V8.85074H82.6731ZM25.6995 26.4725L23.5578 28.5733L23.5679 28.5836L23.5781 28.5938L25.6995 26.4725ZM25.6995 19.2348L23.568 17.1237L23.5679 17.1238L25.6995 19.2348ZM31.7657 18.3842L30.3199 21.0128L30.3326 21.0198L30.3454 21.0267L31.7657 18.3842ZM33.5228 20.0297L35.0274 22.6251L37.688 21.0828L36.0801 18.4612L33.5228 20.0297ZM31.5983 21.1454L28.9819 22.6131L30.4706 25.2668L33.1029 23.7408L31.5983 21.1454ZM30.6779 20.2668L29.263 22.9121L29.2871 22.9251L29.3115 22.9375L30.6779 20.2668ZM27.2613 20.7409L25.1213 18.6385L25.1119 18.6481L25.1025 18.6578L27.2613 20.7409ZM27.2613 24.9524L25.1025 27.0355L25.1119 27.0452L25.1213 27.0549L27.2613 24.9524ZM30.6779 25.4266L29.2882 22.7679L29.2756 22.7745L29.263 22.7812L30.6779 25.4266ZM31.5983 24.548L33.1029 21.9526L30.4484 20.4137L28.9697 23.1023L31.5983 24.548ZM33.5228 25.6636L36.0953 27.2071L37.6622 24.5956L35.0274 23.0682L33.5228 25.6636ZM31.7796 27.3231L33.2 29.9656L33.2127 29.9587L33.2254 29.9518L31.7796 27.3231ZM29.3392 24.9228C28.6158 24.9228 28.1844 24.7147 27.8208 24.3511L23.5781 28.5938C25.1483 30.164 27.1434 30.9228 29.3392 30.9228V24.9228ZM27.8411 24.3716C27.4657 23.9889 27.2631 23.5489 27.2631 22.8467H21.2631C21.2631 25.0265 22.0181 27.0037 23.5578 28.5733L27.8411 24.3716ZM27.2631 22.8467C27.2631 22.1446 27.4651 21.7153 27.831 21.3459L23.5679 17.1238C22.0187 18.6881 21.2631 20.6667 21.2631 22.8467H27.2631ZM27.8309 21.346C28.1965 20.9769 28.6248 20.7706 29.3392 20.7706V14.7706C27.1344 14.7706 25.1362 15.5405 23.568 17.1237L27.8309 21.346ZM29.3392 20.7706C29.7232 20.7706 30.0325 20.8548 30.3199 21.0128L33.2114 15.7555C32.0113 15.0955 30.7031 14.7706 29.3392 14.7706V20.7706ZM30.3454 21.0267C30.6376 21.1837 30.8244 21.3682 30.9655 21.5982L36.0801 18.4612C35.3659 17.2967 34.3813 16.3842 33.186 15.7417L30.3454 21.0267ZM32.0182 17.4343L30.0937 18.5499L33.1029 23.7408L35.0274 22.6251L32.0182 17.4343ZM34.2148 19.6776C33.7035 18.7663 32.9549 18.0619 32.0444 17.5961L29.3115 22.9375C29.2686 22.9156 29.2046 22.875 29.1364 22.8099C29.0678 22.7444 29.0163 22.6744 28.9819 22.6131L34.2148 19.6776ZM32.0929 17.6214C31.2207 17.1549 30.2817 16.9461 29.3392 16.9461V22.9461C29.3674 22.9461 29.3664 22.9489 29.3445 22.9437C29.3213 22.9381 29.2919 22.9276 29.263 22.9121L32.0929 17.6214ZM29.3392 16.9461C27.8126 16.9461 26.2989 17.4399 25.1213 18.6385L29.4014 22.8434C29.3849 22.8602 29.3602 22.8816 29.3281 22.9026C29.2961 22.9236 29.2661 22.938 29.2432 22.9467C29.1956 22.965 29.2135 22.9461 29.3392 22.9461V16.9461ZM25.1025 18.6578C23.9527 19.8494 23.4944 21.3507 23.4944 22.8467H29.4944C29.4944 22.7016 29.5154 22.6628 29.5049 22.6915C29.4998 22.7055 29.4896 22.7287 29.4725 22.7563C29.4552 22.784 29.4366 22.8071 29.4202 22.824L25.1025 18.6578ZM23.4944 22.8467C23.4944 24.3427 23.9527 25.844 25.1025 27.0355L29.4202 22.8693C29.4366 22.8863 29.4552 22.9094 29.4725 22.9371C29.4896 22.9646 29.4998 22.9878 29.5049 23.0018C29.5154 23.0306 29.4944 22.9917 29.4944 22.8467H23.4944ZM25.1213 27.0549C26.2989 28.2534 27.8126 28.7473 29.3392 28.7473V22.7473C29.2135 22.7473 29.1956 22.7284 29.2432 22.7466C29.2661 22.7554 29.2961 22.7698 29.3281 22.7908C29.3602 22.8118 29.3849 22.8332 29.4014 22.85L25.1213 27.0549ZM29.3392 28.7473C30.2817 28.7473 31.2207 28.5384 32.0929 28.0719L29.263 22.7812C29.2919 22.7657 29.3213 22.7552 29.3445 22.7497C29.3664 22.7444 29.3674 22.7473 29.3392 22.7473V28.7473ZM32.0677 28.0852C32.9522 27.6229 33.7129 26.9284 34.227 25.9938L28.9697 23.1023C29.015 23.0199 29.075 22.9418 29.1434 22.8765C29.2103 22.8126 29.2656 22.7797 29.2882 22.7679L32.0677 28.0852ZM30.0937 27.1434L32.0182 28.2591L35.0274 23.0682L33.1029 21.9526L30.0937 27.1434ZM30.9503 24.1201C30.8172 24.342 30.634 24.5294 30.3339 24.6945L33.2254 29.9518C34.4128 29.2987 35.3917 28.3798 36.0953 27.2071L30.9503 24.1201ZM30.3593 24.6807C30.0725 24.8348 29.7503 24.9228 29.3392 24.9228V30.9228C30.6945 30.9228 31.9992 30.611 33.2 29.9656L30.3593 24.6807ZM36.0081 26.4725L33.8665 28.5733L33.8766 28.5836L33.8868 28.5938L36.0081 26.4725ZM36.0081 19.2348L33.8767 17.1237L33.8766 17.1238L36.0081 19.2348ZM42.0743 18.3842L40.6286 21.0128L40.6412 21.0198L40.654 21.0267L42.0743 18.3842ZM43.8314 20.0297L45.336 22.6251L47.9966 21.0828L46.3887 18.4612L43.8314 20.0297ZM41.907 21.1454L39.2905 22.6131L40.7792 25.2668L43.4116 23.7408L41.907 21.1454ZM40.9866 20.2668L39.5716 22.9121L39.5958 22.9251L39.6202 22.9375L40.9866 20.2668ZM37.57 20.7409L35.43 18.6385L35.4205 18.6481L35.4111 18.6578L37.57 20.7409ZM37.57 24.9524L35.4111 27.0355L35.4205 27.0452L35.43 27.0549L37.57 24.9524ZM40.9866 25.4266L39.5968 22.7679L39.5842 22.7745L39.5716 22.7812L40.9866 25.4266ZM41.907 24.548L43.4116 21.9526L40.757 20.4137L39.2783 23.1023L41.907 24.548ZM43.8314 25.6636L46.4039 27.2071L47.9708 24.5956L45.336 23.0682L43.8314 25.6636ZM42.0883 27.3231L43.5086 29.9656L43.5213 29.9587L43.534 29.9518L42.0883 27.3231ZM39.6478 24.9228C38.9244 24.9228 38.493 24.7147 38.1294 24.3511L33.8868 28.5938C35.457 30.164 37.452 30.9228 39.6478 30.9228V24.9228ZM38.1497 24.3716C37.7743 23.9889 37.5717 23.5489 37.5717 22.8467H31.5717C31.5717 25.0265 32.3268 27.0037 33.8665 28.5733L38.1497 24.3716ZM37.5717 22.8467C37.5717 22.1446 37.7738 21.7153 38.1396 21.3459L33.8766 17.1238C32.3273 18.6881 31.5717 20.6667 31.5717 22.8467H37.5717ZM38.1395 21.346C38.5052 20.9769 38.9334 20.7706 39.6478 20.7706V14.7706C37.4431 14.7706 35.4448 15.5405 33.8767 17.1237L38.1395 21.346ZM39.6478 20.7706C40.0318 20.7706 40.3412 20.8548 40.6286 21.0128L43.5201 15.7555C42.32 15.0955 41.0117 14.7706 39.6478 14.7706V20.7706ZM40.654 21.0267C40.9462 21.1837 41.133 21.3682 41.2741 21.5982L46.3887 18.4612C45.6745 17.2967 44.6899 16.3842 43.4946 15.7417L40.654 21.0267ZM42.3268 17.4343L40.4024 18.5499L43.4116 23.7408L45.336 22.6251L42.3268 17.4343ZM44.5234 19.6776C44.0122 18.7663 43.2635 18.0619 42.353 17.5961L39.6202 22.9375C39.5773 22.9156 39.5132 22.875 39.4451 22.8099C39.3764 22.7444 39.3249 22.6744 39.2905 22.6131L44.5234 19.6776ZM42.4015 17.6214C41.5293 17.1549 40.5903 16.9461 39.6478 16.9461V22.9461C39.676 22.9461 39.6751 22.9489 39.6531 22.9437C39.63 22.9381 39.6006 22.9276 39.5716 22.9121L42.4015 17.6214ZM39.6478 16.9461C38.1213 16.9461 36.6075 17.4399 35.43 18.6385L39.71 22.8434C39.6935 22.8602 39.6688 22.8816 39.6368 22.9026C39.6047 22.9236 39.5748 22.938 39.5518 22.9467C39.5042 22.965 39.5222 22.9461 39.6478 22.9461V16.9461ZM35.4111 18.6578C34.2614 19.8494 33.803 21.3507 33.803 22.8467H39.803C39.803 22.7016 39.824 22.6628 39.8136 22.6915C39.8085 22.7055 39.7983 22.7287 39.7811 22.7563C39.7639 22.784 39.7452 22.8071 39.7288 22.824L35.4111 18.6578ZM33.803 22.8467C33.803 24.3427 34.2614 25.844 35.4111 27.0355L39.7288 22.8693C39.7452 22.8863 39.7639 22.9094 39.7811 22.9371C39.7983 22.9646 39.8085 22.9878 39.8136 23.0018C39.824 23.0306 39.803 22.9917 39.803 22.8467H33.803ZM35.43 27.0549C36.6075 28.2534 38.1213 28.7473 39.6478 28.7473V22.7473C39.5222 22.7473 39.5042 22.7284 39.5518 22.7466C39.5748 22.7554 39.6047 22.7698 39.6368 22.7908C39.6688 22.8118 39.6935 22.8332 39.71 22.85L35.43 27.0549ZM39.6478 28.7473C40.5903 28.7473 41.5293 28.5384 42.4015 28.0719L39.5716 22.7812C39.6006 22.7657 39.63 22.7552 39.6531 22.7497C39.6751 22.7444 39.676 22.7473 39.6478 22.7473V28.7473ZM42.3763 28.0852C43.2609 27.6229 44.0215 26.9284 44.5356 25.9938L39.2783 23.1023C39.3236 23.0199 39.3837 22.9418 39.452 22.8765C39.5189 22.8126 39.5742 22.7797 39.5968 22.7679L42.3763 28.0852ZM40.4024 27.1434L42.3268 28.2591L45.336 23.0682L43.4116 21.9526L40.4024 27.1434ZM41.2589 24.1201C41.1258 24.342 40.9426 24.5294 40.6425 24.6945L43.534 29.9518C44.7214 29.2987 45.7003 28.3798 46.4039 27.2071L41.2589 24.1201ZM40.6679 24.6807C40.3811 24.8348 40.0589 24.9228 39.6478 24.9228V30.9228C41.0032 30.9228 42.3079 30.611 43.5086 29.9656L40.6679 24.6807ZM45.4349 27.7275H42.4349V30.7275H45.4349V27.7275ZM45.4349 17.9658V14.9658H42.4349V17.9658H45.4349ZM47.6662 17.9658H50.6662V14.9658H47.6662V17.9658ZM47.6662 21.0338H44.6662V24.0338H47.6662V21.0338ZM51.5569 22.01L49.4507 24.1463L51.5569 22.01ZM51.5569 26.7514L49.4507 24.6151V24.6151L51.5569 26.7514ZM53.3837 27.7275H50.3837V30.7275H53.3837V27.7275ZM53.3837 17.9658V14.9658H50.3837V17.9658H53.3837ZM55.615 17.9658H58.615V14.9658H55.615V17.9658ZM55.615 27.7275V30.7275H58.615V27.7275H55.615ZM47.6662 25.6357H44.6662V28.6357H47.6662V25.6357ZM49.9811 25.2732L47.7767 23.2383L47.7767 23.2383L49.9811 25.2732ZM49.9811 23.4882L47.7767 25.523L49.9811 23.4882ZM47.6662 23.1256V20.1256H44.6662V23.1256H47.6662ZM48.4349 27.7275V17.9658H42.4349V27.7275H48.4349ZM45.4349 20.9658H47.6662V14.9658H45.4349V20.9658ZM44.6662 17.9658V21.0338H50.6662V17.9658H44.6662ZM47.6662 24.0338H49.1304V18.0338H47.6662V24.0338ZM49.1304 24.0338C49.2634 24.0338 49.3206 24.055 49.3355 24.0611C49.3486 24.0663 49.3853 24.0818 49.4507 24.1463L53.6631 19.8736C52.4214 18.6494 50.8472 18.0338 49.1304 18.0338V24.0338ZM49.4507 24.1463C49.4881 24.1831 49.508 24.2092 49.5175 24.2231C49.5267 24.2365 49.53 24.2439 49.5312 24.2469C49.5325 24.2499 49.5356 24.2579 49.5389 24.2749C49.5423 24.2925 49.547 24.3264 49.547 24.3807H55.547C55.547 22.6506 54.897 21.0901 53.6631 19.8736L49.4507 24.1463ZM49.547 24.3807C49.547 24.435 49.5423 24.4688 49.5389 24.4864C49.5356 24.5035 49.5325 24.5114 49.5312 24.5144C49.53 24.5175 49.5267 24.5248 49.5175 24.5382C49.508 24.5521 49.4881 24.5782 49.4507 24.6151L53.6631 28.8877C54.897 27.6712 55.547 26.1107 55.547 24.3807H49.547ZM49.4507 24.6151C49.3853 24.6795 49.3486 24.695 49.3355 24.7003C49.3206 24.7063 49.2634 24.7275 49.1304 24.7275V30.7275C50.8472 30.7275 52.4214 30.112 53.6631 28.8877L49.4507 24.6151ZM49.1304 24.7275H45.4349V30.7275H49.1304V24.7275ZM56.3837 27.7275V17.9658H50.3837V27.7275H56.3837ZM53.3837 20.9658H55.615V14.9658H53.3837V20.9658ZM52.615 17.9658V27.7275H58.615V17.9658H52.615ZM55.615 24.7275H53.3837V30.7275H55.615V24.7275ZM47.6662 28.6357H49.1304V22.6357H47.6662V28.6357ZM49.1304 28.6357C50.2685 28.6357 51.3658 28.196 52.1855 27.308L47.7767 23.2383C47.9331 23.0689 48.1507 22.9022 48.4248 22.7853C48.6958 22.6698 48.9451 22.6357 49.1304 22.6357V28.6357ZM52.1855 27.308C52.96 26.4689 53.3158 25.4272 53.3158 24.3807H47.3158C47.3158 24.2377 47.3392 24.0391 47.4231 23.8154C47.5083 23.5881 47.6346 23.3922 47.7767 23.2383L52.1855 27.308ZM53.3158 24.3807C53.3158 23.3341 52.96 22.2924 52.1855 21.4533L47.7767 25.523C47.6346 25.3691 47.5083 25.1732 47.4231 24.9459C47.3392 24.7223 47.3158 24.5237 47.3158 24.3807H53.3158ZM52.1855 21.4533C51.3658 20.5653 50.2685 20.1256 49.1304 20.1256V26.1256C48.9451 26.1256 48.6958 26.0915 48.4248 25.976C48.1507 25.8592 47.9331 25.6924 47.7767 25.523L52.1855 21.4533ZM49.1304 20.1256H47.6662V26.1256H49.1304V20.1256ZM44.6662 23.1256V25.6357H50.6662V23.1256H44.6662ZM57.1435 27.7275H54.1435V30.4071L56.8061 30.7085L57.1435 27.7275ZM57.1435 25.6357L57.6035 22.6712L54.1435 22.1343V25.6357H57.1435ZM58.3568 25.3847L56.3125 23.189L58.3568 25.3847ZM58.7612 17.9658V14.9658H55.7612V17.9658H58.7612ZM65.5107 17.9658H68.5107V14.9658H65.5107V17.9658ZM65.5107 27.7275V30.7275H68.5107V27.7275H65.5107ZM63.2795 27.7275H60.2795V30.7275H63.2795V27.7275ZM63.2795 20.1134H66.2795V17.1134H63.2795V20.1134ZM60.9924 20.1134V17.1134H57.9924V20.1134H60.9924ZM60.6438 25.8728L57.8615 24.7509L57.8537 24.7703L57.8461 24.7898L60.6438 25.8728ZM59.7234 27.1418L61.4153 29.6192L61.4217 29.6149L61.428 29.6105L59.7234 27.1418ZM58.5102 27.6718L57.8729 24.7402L57.8594 24.7432L58.5102 27.6718ZM60.1435 27.7275V25.6357H54.1435V27.7275H60.1435ZM56.6835 28.6003C57.6796 28.7548 59.1831 28.7143 60.401 27.5804L56.3125 23.189C56.6268 22.8965 56.9748 22.7535 57.2434 22.698C57.4855 22.6479 57.626 22.6747 57.6035 22.6712L56.6835 28.6003ZM60.401 27.5804C61.0943 26.935 61.4088 26.1551 61.561 25.5777C61.7167 24.9869 61.7612 24.388 61.7612 23.8507H55.7612C55.7612 24.0851 55.7383 24.1277 55.7592 24.0482C55.7766 23.9822 55.8889 23.5835 56.3125 23.189L60.401 27.5804ZM61.7612 23.8507V17.9658H55.7612V23.8507H61.7612ZM58.7612 20.9658H65.5107V14.9658H58.7612V20.9658ZM62.5107 17.9658V27.7275H68.5107V17.9658H62.5107ZM65.5107 24.7275H63.2795V30.7275H65.5107V24.7275ZM66.2795 27.7275V20.1134H60.2795V27.7275H66.2795ZM63.2795 17.1134H60.9924V23.1134H63.2795V17.1134ZM57.9924 20.1134V23.7671H63.9924V20.1134H57.9924ZM57.9924 23.7671C57.9924 24.3303 57.9111 24.6278 57.8615 24.7509L63.4261 26.9947C63.8413 25.965 63.9924 24.8587 63.9924 23.7671H57.9924ZM57.8461 24.7898C57.8114 24.8796 57.7948 24.8928 57.8179 24.861C57.8438 24.8252 57.9076 24.75 58.0188 24.6731L61.428 29.6105C62.4436 28.9093 63.0663 27.9252 63.4415 26.9558L57.8461 24.7898ZM58.0315 24.6644C57.9517 24.719 57.9027 24.7338 57.8729 24.7402L59.1475 30.6033C59.973 30.4238 60.7328 30.0853 61.4153 29.6192L58.0315 24.6644ZM57.8594 24.7432C57.8117 24.7538 57.6945 24.7708 57.481 24.7466L56.8061 30.7085C57.578 30.7959 58.3719 30.7757 59.161 30.6003L57.8594 24.7432ZM75.6339 27.7275V30.7275H81.3264L78.1087 26.0318L75.6339 27.7275ZM73.0959 27.7275L70.6282 29.4336L71.5228 30.7275H73.0959V27.7275ZM69.9721 23.2093L72.4398 21.5032L66.9721 13.5946V23.2093H69.9721ZM69.9721 27.7275V30.7275H72.9721V27.7275H69.9721ZM67.7409 27.7275H64.7409V30.7275H67.7409V27.7275ZM67.7409 17.9658V14.9658H64.7409V17.9658H67.7409ZM69.9721 17.9658H72.9721V14.9658H69.9721V17.9658ZM69.9721 22.2052H66.9721V31.6786L72.4253 23.9321L69.9721 22.2052ZM72.9564 17.9658V14.9658H71.3995L70.5033 16.2389L72.9564 17.9658ZM75.4945 17.9658L77.9613 19.6731L81.2191 14.9658H75.4945V17.9658ZM72.2034 22.7212L69.7365 21.0139L68.5608 22.7127L69.7286 24.417L72.2034 22.7212ZM75.6339 24.7275H73.0959V30.7275H75.6339V24.7275ZM75.5636 26.0215L72.4398 21.5032L67.5045 24.9153L70.6282 29.4336L75.5636 26.0215ZM66.9721 23.2093V27.7275H72.9721V23.2093H66.9721ZM69.9721 24.7275H67.7409V30.7275H69.9721V24.7275ZM70.7409 27.7275V17.9658H64.7409V27.7275H70.7409ZM67.7409 20.9658H69.9721V14.9658H67.7409V20.9658ZM66.9721 17.9658V22.2052H72.9721V17.9658H66.9721ZM72.4253 23.9321L75.4096 19.6927L70.5033 16.2389L67.519 20.4783L72.4253 23.9321ZM72.9564 20.9658H75.4945V14.9658H72.9564V20.9658ZM73.0276 16.2586L69.7365 21.0139L74.6702 24.4284L77.9613 19.6731L73.0276 16.2586ZM69.7286 24.417L73.1592 29.4233L78.1087 26.0318L74.6781 21.0254L69.7286 24.417ZM82.4668 27.7275H79.4668V30.7275H82.4668V27.7275ZM82.4668 22.4283H85.4668V13.0266L80.0213 20.6907L82.4668 22.4283ZM78.7016 27.7275V30.7275H80.2502L81.1471 29.4652L78.7016 27.7275ZM77.0281 27.7275H74.0281V30.7275H77.0281V27.7275ZM77.0281 17.9658V14.9658H74.0281V17.9658H77.0281ZM79.2594 17.9658H82.2594V14.9658H79.2594V17.9658ZM79.2594 23.265H76.2594V32.6668L81.7049 25.0027L79.2594 23.265ZM83.0246 17.9658V14.9658H81.476L80.5791 16.2282L83.0246 17.9658ZM84.6981 17.9658H87.6981V14.9658H84.6981V17.9658ZM84.6981 27.7275V30.7275H87.6981V27.7275H84.6981ZM85.4668 27.7275V22.4283H79.4668V27.7275H85.4668ZM80.0213 20.6907L76.256 25.9899L81.1471 29.4652L84.9123 24.1659L80.0213 20.6907ZM78.7016 24.7275H77.0281V30.7275H78.7016V24.7275ZM80.0281 27.7275V17.9658H74.0281V27.7275H80.0281ZM77.0281 20.9658H79.2594V14.9658H77.0281V20.9658ZM76.2594 17.9658V23.265H82.2594V17.9658H76.2594ZM81.7049 25.0027L85.4702 19.7034L80.5791 16.2282L76.8138 21.5274L81.7049 25.0027ZM83.0246 20.9658H84.6981V14.9658H83.0246V20.9658ZM81.6981 17.9658V27.7275H87.6981V17.9658H81.6981ZM84.6981 24.7275H82.4668V30.7275H84.6981V24.7275ZM87.2071 24.2412L84.2285 24.5986L84.5456 27.2412H87.2071V24.2412ZM86.7888 20.7549H83.7888V20.9342L83.8101 21.1123L86.7888 20.7549ZM86.7888 17.9658V14.9658H83.7888V17.9658H86.7888ZM89.2989 17.9658H92.2989V14.9658H89.2989V17.9658ZM89.2989 20.7549L92.2775 21.1123L92.2989 20.9342V20.7549H89.2989ZM88.8806 24.2412V27.2412H91.5421L91.8592 24.5986L88.8806 24.2412ZM88.9782 27.5323L91.0995 29.6536L88.9782 27.5323ZM87.1095 27.5323L89.2308 25.411L87.1095 27.5323ZM87.1095 25.6636L89.2308 27.785V27.785L87.1095 25.6636ZM90.1857 23.8838L89.7674 20.3974L83.8101 21.1123L84.2285 24.5986L90.1857 23.8838ZM89.7888 20.7549V17.9658H83.7888V20.7549H89.7888ZM86.7888 20.9658H89.2989V14.9658H86.7888V20.9658ZM86.2989 17.9658V20.7549H92.2989V17.9658H86.2989ZM86.3203 20.3974L85.9019 23.8838L91.8592 24.5986L92.2775 21.1123L86.3203 20.3974ZM88.8806 21.2412H87.2071V27.2412H88.8806V21.2412ZM86.8568 25.411C86.9778 25.29 87.1563 25.1559 87.3926 25.0571C87.6298 24.958 87.8577 24.9228 88.0438 24.9228V30.9228C89.2157 30.9228 90.2863 30.4669 91.0995 29.6536L86.8568 25.411ZM88.0438 24.9228C88.2299 24.9228 88.4579 24.958 88.6951 25.0571C88.9314 25.1559 89.1098 25.29 89.2308 25.411L84.9882 29.6536C85.8014 30.4669 86.872 30.9228 88.0438 30.9228V24.9228ZM89.2308 25.411C89.3518 25.532 89.4859 25.7104 89.5847 25.9467C89.6838 26.1839 89.719 26.4119 89.719 26.598H83.719C83.719 27.7698 84.1749 28.8404 84.9882 29.6536L89.2308 25.411ZM89.719 26.598C89.719 26.7841 89.6838 27.012 89.5847 27.2492C89.4859 27.4855 89.3518 27.664 89.2308 27.785L84.9882 23.5423C84.1749 24.3555 83.719 25.4261 83.719 26.598H89.719ZM89.2308 27.785C89.1098 27.9059 88.9314 28.04 88.6951 28.1388C88.4579 28.2379 88.2299 28.2732 88.0438 28.2732V22.2732C86.872 22.2732 85.8014 22.7291 84.9882 23.5423L89.2308 27.785ZM88.0438 28.2732C87.8577 28.2732 87.6298 28.2379 87.3926 28.1388C87.1563 28.04 86.9778 27.9059 86.8568 27.785L91.0995 23.5423C90.2863 22.7291 89.2157 22.2732 88.0438 22.2732V28.2732ZM86.8568 27.785C86.7359 27.664 86.6018 27.4855 86.503 27.2492C86.4039 27.012 86.3686 26.7841 86.3686 26.598H92.3686C92.3686 25.4261 91.9127 24.3555 91.0995 23.5423L86.8568 27.785ZM86.3686 26.598C86.3686 26.4119 86.4039 26.1839 86.503 25.9467C86.6018 25.7104 86.7359 25.532 86.8568 25.411L91.0995 29.6536C91.9127 28.8404 92.3686 27.7698 92.3686 26.598H86.3686Z" fill="white" fill-opacity="0.77" mask="url(#path-1-outside-1_417_1139)"/>
</svg>
