<svg width="19" height="19" viewBox="0 0 19 19" fill="none" xmlns="http://www.w3.org/2000/svg">
<path d="M9.72794 1.01172C7.08088 1.01172 4.96324 3.12937 4.96324 5.77642V7.89407C4.06324 7.89407 3.375 8.58231 3.375 9.48231V16.3647C3.375 17.2647 4.06324 17.9529 4.96324 17.9529H14.4926C15.3926 17.9529 16.0809 17.2647 16.0809 16.3647V9.48231C16.0809 8.58231 15.3926 7.89407 14.4926 7.89407V5.77642C14.4926 3.12937 12.375 1.01172 9.72794 1.01172ZM15.0221 9.48231V16.3647C15.0221 16.6823 14.8103 16.8941 14.4926 16.8941H4.96324C4.64559 16.8941 4.43382 16.6823 4.43382 16.3647V9.48231C4.43382 9.16466 4.64559 8.9529 4.96324 8.9529H5.49265H13.9632H14.4926C14.8103 8.9529 15.0221 9.16466 15.0221 9.48231ZM6.02206 7.89407V5.77642C6.02206 3.71172 7.66324 2.07054 9.72794 2.07054C11.7926 2.07054 13.4338 3.71172 13.4338 5.77642V7.89407H6.02206Z" fill="#00966E"/>
<path d="M9.72886 10.541C8.82886 10.541 8.14062 11.2293 8.14062 12.1293C8.14062 12.8175 8.56415 13.3998 9.19945 13.6116V14.7763C9.19945 15.094 9.41121 15.3057 9.72886 15.3057C10.0465 15.3057 10.2583 15.094 10.2583 14.7763V13.6116C10.8936 13.3998 11.3171 12.8175 11.3171 12.1293C11.3171 11.2293 10.6289 10.541 9.72886 10.541ZM9.72886 12.6587C9.41121 12.6587 9.19945 12.4469 9.19945 12.1293C9.19945 11.8116 9.41121 11.5998 9.72886 11.5998C10.0465 11.5998 10.2583 11.8116 10.2583 12.1293C10.2583 12.4469 10.0465 12.6587 9.72886 12.6587Z" fill="#00966E"/>
</svg>
