<svg width="23" height="23" viewBox="0 0 23 23" fill="none" xmlns="http://www.w3.org/2000/svg">
<g clip-path="url(#clip0_417_1871)">
<path d="M21.7564 8.98761H16.8226L13.3542 2.30008C13.2298 2.06032 13.0196 1.88333 12.7621 1.80169C12.5046 1.72005 12.2308 1.7436 11.9911 1.86795C11.9077 1.91117 11.8331 1.96463 11.7676 2.02577C11.702 1.96467 11.6274 1.91117 11.5441 1.86795C11.3043 1.7436 11.0304 1.72009 10.773 1.80169C10.5155 1.88329 10.3053 2.06032 10.1809 2.30008L6.52505 9.34919C6.4007 9.58896 6.37715 9.8628 6.45879 10.1203C6.48663 10.2081 6.52642 10.29 6.57523 10.3654H1.77872C1.57655 10.3654 1.41211 10.2009 1.41211 9.99875C1.41211 9.79663 1.57659 9.63214 1.77872 9.63214H5.45276C5.63074 9.63214 5.77503 9.4879 5.77503 9.30988C5.77503 9.1319 5.63074 8.98761 5.45276 8.98761H1.77872C1.2212 8.98761 0.767578 9.44123 0.767578 9.99875C0.767578 10.4611 1.07962 10.8517 1.50411 10.9717L3.37063 20.9263C3.49072 21.567 4.05108 22.0321 4.703 22.0321H18.8322C19.4841 22.0321 20.0444 21.567 20.1646 20.9263L22.0311 10.9717C22.4555 10.8517 22.7676 10.4611 22.7676 9.99875C22.7676 9.44119 22.314 8.98761 21.7564 8.98761ZM12.2878 2.44016C12.3747 2.39509 12.474 2.38654 12.5674 2.41614C12.6607 2.4457 12.737 2.5099 12.782 2.59683L16.4379 9.64598C16.483 9.7329 16.4915 9.8322 16.4619 9.92553C16.4324 10.0189 16.3682 10.0951 16.2812 10.1402C16.1943 10.1853 16.095 10.1938 16.0016 10.1643C15.9083 10.1347 15.832 10.0705 15.787 9.98358L12.1311 2.93439C12.0381 2.75495 12.1084 2.53323 12.2878 2.44016ZM16.5792 11.0099L16.2742 14.1543H12.0898V11.0099H16.5792ZM11.7676 3.63332L15.2149 10.2802C15.2301 10.3096 15.2467 10.338 15.2644 10.3654H8.27074C8.28848 10.338 8.30507 10.3096 8.32028 10.2803L8.65643 9.63218H13.5615C13.7395 9.63218 13.8838 9.48794 13.8838 9.30992C13.8838 9.13194 13.7395 8.98765 13.5615 8.98765H8.99068L11.7676 3.63332ZM7.09722 9.64594L10.7531 2.59678C10.7982 2.50986 10.8744 2.44566 10.9678 2.4161C11.0043 2.4045 11.0417 2.39878 11.079 2.39878C11.137 2.39878 11.1945 2.4127 11.2474 2.44012C11.4268 2.53323 11.4971 2.75491 11.404 2.93435L7.74811 9.9835C7.70303 10.0704 7.62681 10.1346 7.53344 10.1642C7.44015 10.1937 7.34085 10.1852 7.25388 10.1401C7.16696 10.095 7.10276 10.0188 7.0732 9.92545C7.04359 9.83216 7.05214 9.7329 7.09722 9.64594ZM2.16703 11.0099H6.30844L6.61339 14.1543H2.7566L2.16703 11.0099ZM2.87747 14.7988H6.67591L6.98086 17.9431H3.467L2.87747 14.7988ZM4.70296 21.3876C4.36101 21.3876 4.06711 21.1436 4.00411 20.8075L3.58788 18.5876H7.04334L7.3149 21.3876H4.70296ZM11.4453 21.3876H7.96239L7.69087 18.5876H11.4453V21.3876ZM11.4453 17.9431H7.62836L7.32341 14.7988H11.4453V17.9431ZM11.4453 14.1543H7.26093L6.95598 11.0099H11.4453V14.1543ZM15.5728 21.3876H12.0898V18.5876H15.8443L15.5728 21.3876ZM15.9068 17.9432H12.0898V14.7988H16.2118L15.9068 17.9432ZM19.531 20.8075C19.4681 21.1436 19.1741 21.3876 18.8322 21.3876H16.2203L16.4918 18.5876H19.9473L19.531 20.8075ZM20.0682 17.9432H16.5543L16.8593 14.7988H20.6577L20.0682 17.9432ZM20.7786 14.1543H16.9218L17.2268 11.0099H21.3681L20.7786 14.1543ZM21.7564 10.3654H21.7512C21.751 10.3654 21.7508 10.3654 21.7506 10.3654H16.9599C17.0087 10.2901 17.0485 10.2082 17.0764 10.1203C17.1272 9.95991 17.1372 9.7931 17.1075 9.63218H21.7564C21.9586 9.63218 22.123 9.79667 22.123 9.99879C22.123 10.2009 21.9586 10.3654 21.7564 10.3654Z" fill="white" fill-opacity="0.8"/>
</g>
<defs>
<clipPath id="clip0_417_1871">
<rect width="22" height="22" fill="white" transform="translate(0.767578 0.892578)"/>
</clipPath>
</defs>
</svg>
