<svg width="20" height="48" viewBox="0 0 20 48" fill="none" xmlns="http://www.w3.org/2000/svg">
<g clip-path="url(#clip0_851_7060)">
<path d="M0.00472703 16.2965C0.00472703 13.9135 -0.00102638 11.5305 0.00472703 9.14751C0.0162338 4.08362 3.89288 0.281199 9.04679 0.284584C10.5358 0.285712 12.0282 0.198832 13.4942 0.598256C17.2742 1.62954 19.9656 5.0111 19.984 8.8643C20.007 13.7996 20.0059 18.7348 19.9863 23.6689C19.9679 28.3503 16.2685 32.1358 11.5 32.3299C9.84191 32.3976 8.17111 32.4709 6.536 32.0309C2.73875 31.0086 0.0334941 27.5876 0.00817907 23.7276C-0.00793047 21.2509 0.00472703 18.7743 0.00472703 16.2965ZM1.71579 16.2773C1.71579 18.7156 1.71579 21.155 1.71579 23.5933C1.71579 23.6306 1.71579 23.6678 1.71579 23.7062C1.75606 26.8959 3.91474 29.6851 7.08602 30.3666C8.3909 30.6476 9.78322 30.6002 11.1353 30.5912C15.0821 30.5652 18.1763 27.5989 18.2212 23.722C18.2787 18.789 18.2672 13.8548 18.2246 8.92184C18.197 5.71404 16.0406 2.96095 12.9027 2.27832C11.5081 1.9748 10.0122 1.98608 8.5704 2.04589C4.57754 2.20949 1.72615 5.20291 1.71464 9.13058C1.70774 11.5125 1.71349 13.8955 1.71464 16.2773H1.71579Z" fill="white"/>
<path d="M9.10319 44.1867V43.2174C9.10319 41.1921 9.10319 39.1679 9.10319 37.1426C9.10319 36.9925 9.09629 36.8425 9.10664 36.6924C9.14462 36.1373 9.49442 35.7615 9.97426 35.7502C10.4783 35.739 10.8718 36.1237 10.8787 36.7104C10.896 38.2292 10.8856 39.7479 10.8856 41.2666C10.8856 42.2223 10.8856 43.1768 10.8856 44.2352C11.0605 44.1054 11.179 44.0355 11.2745 43.9429C11.9937 43.2434 12.7037 42.5337 13.4275 41.8375C13.9107 41.3715 14.4757 41.332 14.8393 41.7168C15.1972 42.0959 15.1385 42.5754 14.6587 43.0482C13.3642 44.3232 12.0662 45.5971 10.7636 46.8653C10.2032 47.4103 9.7867 47.4091 9.24242 46.8777C7.94215 45.6072 6.64419 44.3345 5.34737 43.0606C4.84567 42.5675 4.78699 42.0745 5.17476 41.6897C5.5729 41.2937 6.05504 41.3546 6.57514 41.842C7.40248 42.6183 8.24018 43.3844 9.10434 44.1844L9.10319 44.1867Z" fill="white"/>
<path d="M9.1047 10.7456C9.1047 9.80911 9.0978 8.87148 9.10701 7.93498C9.11391 7.2625 9.46832 6.86308 10.0195 6.87324C10.558 6.88339 10.8814 7.25235 10.8848 7.91467C10.8929 9.82604 10.8917 11.7374 10.8848 13.6488C10.8825 14.3269 10.5385 14.7444 10.0057 14.7523C9.47177 14.7602 9.11276 14.3393 9.10585 13.6702C9.0978 12.6953 9.10355 11.7216 9.10355 10.7467L9.1047 10.7456Z" fill="white"/>
</g>
<defs>
<clipPath id="clip0_851_7060">
<rect width="20" height="47" fill="white" transform="translate(0 0.277344)"/>
</clipPath>
</defs>
</svg>
