<svg width="18" height="18" viewBox="0 0 18 18" fill="none" xmlns="http://www.w3.org/2000/svg">
<g clip-path="url(#clip0_417_1899)">
<path d="M16.7695 2.89062H14.196C13.9646 1.75534 12.9585 0.898438 11.7559 0.898438C10.5532 0.898438 9.54712 1.75534 9.31573 2.89062H0.765625C0.49057 2.89062 0.267578 3.11362 0.267578 3.38867C0.267578 3.66373 0.49057 3.88672 0.765625 3.88672H9.31573C9.54709 5.022 10.5532 5.87891 11.7559 5.87891C12.9585 5.87891 13.9646 5.022 14.196 3.88672H16.7695C17.0446 3.88672 17.2676 3.66373 17.2676 3.38867C17.2676 3.11362 17.0446 2.89062 16.7695 2.89062ZM11.7559 4.88281C10.9321 4.88281 10.262 4.21277 10.2617 3.3891C10.2617 3.38897 10.2618 3.38884 10.2618 3.38867C10.2618 3.38851 10.2617 3.38837 10.2617 3.38824C10.262 2.56457 10.9321 1.89453 11.7559 1.89453C12.5797 1.89453 13.25 2.5648 13.25 3.38867C13.25 4.21254 12.5797 4.88281 11.7559 4.88281Z" fill="white" fill-opacity="0.8"/>
<path d="M16.7695 8.90039H8.21943C7.98807 7.76511 6.98191 6.9082 5.7793 6.9082C4.57668 6.9082 3.57056 7.76511 3.33917 8.90039H0.765625C0.49057 8.90039 0.267578 9.12338 0.267578 9.39844C0.267578 9.67349 0.49057 9.89648 0.765625 9.89648H3.33917C3.57053 11.0318 4.57668 11.8887 5.7793 11.8887C6.98191 11.8887 7.98804 11.0318 8.21943 9.89648H16.7695C17.0446 9.89648 17.2676 9.67349 17.2676 9.39844C17.2676 9.12338 17.0446 8.90039 16.7695 8.90039ZM5.7793 10.8926C4.95556 10.8926 4.28539 10.2225 4.28516 9.39887C4.28516 9.39874 4.28519 9.3986 4.28519 9.39844C4.28519 9.39827 4.28516 9.39814 4.28516 9.39801C4.28539 8.57434 4.95556 7.9043 5.7793 7.9043C6.60317 7.9043 7.27344 8.57457 7.27344 9.39844C7.27344 10.2223 6.60317 10.8926 5.7793 10.8926Z" fill="white" fill-opacity="0.8"/>
<path d="M16.7695 14.9102H14.196C13.9646 13.7749 12.9585 12.918 11.7559 12.918C10.5532 12.918 9.54712 13.7749 9.31573 14.9102H0.765625C0.49057 14.9102 0.267578 15.1331 0.267578 15.4082C0.267578 15.6833 0.49057 15.9062 0.765625 15.9062H9.31573C9.54709 17.0415 10.5532 17.8984 11.7559 17.8984C12.9585 17.8984 13.9646 17.0415 14.196 15.9062H16.7695C17.0446 15.9062 17.2676 15.6833 17.2676 15.4082C17.2676 15.1331 17.0446 14.9102 16.7695 14.9102ZM11.7559 16.9023C10.9321 16.9023 10.262 16.2323 10.2617 15.4086C10.2617 15.4085 10.2618 15.4084 10.2618 15.4082C10.2618 15.408 10.2617 15.4079 10.2617 15.4078C10.262 14.5841 10.9321 13.9141 11.7559 13.9141C12.5797 13.9141 13.25 14.5843 13.25 15.4082C13.25 16.2321 12.5797 16.9023 11.7559 16.9023Z" fill="white" fill-opacity="0.8"/>
</g>
<defs>
<clipPath id="clip0_417_1899">
<rect width="17" height="17" fill="white" transform="translate(0.267578 0.898438)"/>
</clipPath>
</defs>
</svg>
