<svg width="23" height="23" viewBox="0 0 23 23" fill="none" xmlns="http://www.w3.org/2000/svg">
<g clip-path="url(#clip0_417_1884)">
<path d="M17.6113 11.8477C17.5294 11.8476 17.4501 11.8182 17.3879 11.7648L15.0779 9.78516H9.36133C8.90565 9.78461 8.4688 9.60335 8.14659 9.28114C7.82438 8.95893 7.64312 8.52208 7.64258 8.06641V2.56641C7.64312 2.11073 7.82438 1.67388 8.14659 1.35167C8.4688 1.02946 8.90565 0.848202 9.36133 0.847656H18.9863C19.442 0.848202 19.8789 1.02946 20.2011 1.35167C20.5233 1.67388 20.7045 2.11073 20.7051 2.56641V8.06641C20.7045 8.52208 20.5233 8.95893 20.2011 9.28114C19.8789 9.60335 19.442 9.78461 18.9863 9.78516H17.9551V11.5039C17.9551 11.5951 17.9189 11.6825 17.8544 11.747C17.7899 11.8114 17.7025 11.8477 17.6113 11.8477ZM9.36133 1.53516C9.08782 1.53516 8.82552 1.64381 8.63212 1.8372C8.43873 2.0306 8.33008 2.2929 8.33008 2.56641V8.06641C8.33008 8.33991 8.43873 8.60221 8.63212 8.79561C8.82552 8.98901 9.08782 9.09766 9.36133 9.09766H15.2051C15.2871 9.09756 15.3664 9.12697 15.4285 9.1805L17.2676 10.7566V9.44141C17.2676 9.35024 17.3038 9.2628 17.3683 9.19834C17.4327 9.13387 17.5202 9.09766 17.6113 9.09766H18.9863C19.2598 9.09766 19.5221 8.98901 19.7155 8.79561C19.9089 8.60221 20.0176 8.33991 20.0176 8.06641V2.56641C20.0176 2.2929 19.9089 2.0306 19.7155 1.8372C19.5221 1.64381 19.2598 1.53516 18.9863 1.53516H9.36133Z" fill="white" fill-opacity="0.8"/>
<path d="M14.1729 7.7226C14.0943 7.72182 14.0184 7.69386 13.9581 7.64348C13.8978 7.5931 13.8567 7.52339 13.842 7.44621C13.8272 7.36902 13.8396 7.2891 13.8771 7.22003C13.9146 7.15095 13.9748 7.09697 14.0476 7.06726C14.1203 7.03754 14.2011 7.03392 14.2762 7.05701C14.3513 7.0801 14.4162 7.12847 14.4597 7.19392C14.5032 7.25936 14.5227 7.33785 14.5149 7.41605C14.5071 7.49425 14.4725 7.56734 14.4169 7.62291C14.351 7.68573 14.2639 7.72133 14.1729 7.7226Z" fill="white" fill-opacity="0.8"/>
<path d="M14.1738 6.69111C14.0827 6.69111 13.9952 6.65489 13.9308 6.59042C13.8663 6.52596 13.8301 6.43852 13.8301 6.34736V5.59901C13.831 5.44842 13.8826 5.30252 13.9766 5.18484C14.0706 5.06717 14.2014 4.98457 14.3481 4.95036C14.5167 4.90636 14.6622 4.8 14.7554 4.6528C14.8486 4.50559 14.8824 4.3285 14.85 4.15733C14.8235 4.0213 14.757 3.89628 14.659 3.79829C14.561 3.7003 14.436 3.6338 14.3 3.60733C14.2006 3.58877 14.0983 3.59237 14.0005 3.61787C13.9026 3.64336 13.8116 3.69013 13.7339 3.75483C13.6562 3.81954 13.5937 3.90059 13.5509 3.9922C13.5081 4.08381 13.4861 4.18374 13.4863 4.28486C13.4863 4.37602 13.4501 4.46346 13.3856 4.52792C13.3212 4.59239 13.2337 4.62861 13.1426 4.62861C13.0514 4.62861 12.964 4.59239 12.8995 4.52792C12.835 4.46346 12.7988 4.37602 12.7988 4.28486C12.7989 4.02786 12.871 3.77603 13.0069 3.55792C13.1428 3.33982 13.3371 3.16417 13.5678 3.0509C13.7985 2.93764 14.0563 2.89129 14.312 2.91712C14.5677 2.94294 14.811 3.03991 15.0144 3.19702C15.2178 3.35413 15.3731 3.56509 15.4626 3.80597C15.5522 4.04685 15.5725 4.30801 15.5211 4.55983C15.4698 4.81164 15.3489 5.04403 15.1722 5.23062C14.9955 5.41722 14.77 5.55056 14.5214 5.61551L14.5176 6.34736C14.5176 6.43852 14.4814 6.52596 14.4169 6.59042C14.3524 6.65489 14.265 6.69111 14.1738 6.69111Z" fill="white" fill-opacity="0.8"/>
<path d="M5.92383 21.4727C5.83266 21.4727 5.74523 21.4364 5.68076 21.372C5.61629 21.3075 5.58008 21.2201 5.58008 21.1289V19.4102H4.54883C4.09315 19.4096 3.6563 19.2284 3.33409 18.9061C3.01188 18.5839 2.83062 18.1471 2.83008 17.6914V12.1914C2.83062 11.7357 3.01188 11.2989 3.33409 10.9767C3.6563 10.6545 4.09315 10.4732 4.54883 10.4727H14.1738C14.6295 10.4732 15.0664 10.6545 15.3886 10.9767C15.7108 11.2989 15.892 11.7357 15.8926 12.1914V17.6914C15.892 18.1471 15.7108 18.5839 15.3886 18.9061C15.0664 19.2284 14.6295 19.4096 14.1738 19.4102H8.45727L6.14761 21.3898C6.0853 21.4433 6.00592 21.4726 5.92383 21.4727ZM4.54883 11.1602C4.27532 11.1602 4.01302 11.2688 3.81962 11.4622C3.62623 11.6556 3.51758 11.9179 3.51758 12.1914V17.6914C3.51758 17.9649 3.62623 18.2272 3.81962 18.4206C4.01302 18.614 4.27532 18.7227 4.54883 18.7227H5.92383C6.015 18.7227 6.10243 18.7589 6.1669 18.8233C6.23136 18.8878 6.26758 18.9752 6.26758 19.0664V20.3816L8.1063 18.8055C8.16861 18.7521 8.24799 18.7227 8.33008 18.7227H14.1738C14.4473 18.7227 14.7096 18.614 14.903 18.4206C15.0964 18.2272 15.2051 17.9649 15.2051 17.6914V12.1914C15.2051 11.9179 15.0964 11.6556 14.903 11.4622C14.7096 11.2688 14.4473 11.1602 14.1738 11.1602H4.54883Z" fill="white" fill-opacity="0.8"/>
<path d="M5.92383 13.2227H5.23633C5.14516 13.2227 5.05773 13.1864 4.99326 13.122C4.92879 13.0575 4.89258 12.9701 4.89258 12.8789C4.89258 12.7877 4.92879 12.7003 4.99326 12.6358C5.05773 12.5714 5.14516 12.5352 5.23633 12.5352H5.92383C6.015 12.5352 6.10243 12.5714 6.1669 12.6358C6.23136 12.7003 6.26758 12.7877 6.26758 12.8789C6.26758 12.9701 6.23136 13.0575 6.1669 13.122C6.10243 13.1864 6.015 13.2227 5.92383 13.2227Z" fill="white" fill-opacity="0.8"/>
<path d="M13.4863 13.2227H7.29883C7.20766 13.2227 7.12023 13.1864 7.05576 13.122C6.99129 13.0575 6.95508 12.9701 6.95508 12.8789C6.95508 12.7877 6.99129 12.7003 7.05576 12.6358C7.12023 12.5714 7.20766 12.5352 7.29883 12.5352H13.4863C13.5775 12.5352 13.6649 12.5714 13.7294 12.6358C13.7939 12.7003 13.8301 12.7877 13.8301 12.8789C13.8301 12.9701 13.7939 13.0575 13.7294 13.122C13.6649 13.1864 13.5775 13.2227 13.4863 13.2227Z" fill="white" fill-opacity="0.8"/>
<path d="M5.92383 14.5977H5.23633C5.14516 14.5977 5.05773 14.5614 4.99326 14.497C4.92879 14.4325 4.89258 14.3451 4.89258 14.2539C4.89258 14.1627 4.92879 14.0753 4.99326 14.0108C5.05773 13.9464 5.14516 13.9102 5.23633 13.9102H5.92383C6.015 13.9102 6.10243 13.9464 6.1669 14.0108C6.23136 14.0753 6.26758 14.1627 6.26758 14.2539C6.26758 14.3451 6.23136 14.4325 6.1669 14.497C6.10243 14.5614 6.015 14.5977 5.92383 14.5977Z" fill="white" fill-opacity="0.8"/>
<path d="M13.4863 14.5977H7.29883C7.20766 14.5977 7.12023 14.5614 7.05576 14.497C6.99129 14.4325 6.95508 14.3451 6.95508 14.2539C6.95508 14.1627 6.99129 14.0753 7.05576 14.0108C7.12023 13.9464 7.20766 13.9102 7.29883 13.9102H13.4863C13.5775 13.9102 13.6649 13.9464 13.7294 14.0108C13.7939 14.0753 13.8301 14.1627 13.8301 14.2539C13.8301 14.3451 13.7939 14.4325 13.7294 14.497C13.6649 14.5614 13.5775 14.5977 13.4863 14.5977Z" fill="white" fill-opacity="0.8"/>
<path d="M5.92383 15.9727H5.23633C5.14516 15.9727 5.05773 15.9364 4.99326 15.872C4.92879 15.8075 4.89258 15.7201 4.89258 15.6289C4.89258 15.5377 4.92879 15.4503 4.99326 15.3858C5.05773 15.3214 5.14516 15.2852 5.23633 15.2852H5.92383C6.015 15.2852 6.10243 15.3214 6.1669 15.3858C6.23136 15.4503 6.26758 15.5377 6.26758 15.6289C6.26758 15.7201 6.23136 15.8075 6.1669 15.872C6.10243 15.9364 6.015 15.9727 5.92383 15.9727Z" fill="white" fill-opacity="0.8"/>
<path d="M13.4863 15.9727H7.29883C7.20766 15.9727 7.12023 15.9364 7.05576 15.872C6.99129 15.8075 6.95508 15.7201 6.95508 15.6289C6.95508 15.5377 6.99129 15.4503 7.05576 15.3858C7.12023 15.3214 7.20766 15.2852 7.29883 15.2852H13.4863C13.5775 15.2852 13.6649 15.3214 13.7294 15.3858C13.7939 15.4503 13.8301 15.5377 13.8301 15.6289C13.8301 15.7201 13.7939 15.8075 13.7294 15.872C13.6649 15.9364 13.5775 15.9727 13.4863 15.9727Z" fill="white" fill-opacity="0.8"/>
<path d="M5.92383 17.3477H5.23633C5.14516 17.3477 5.05773 17.3114 4.99326 17.247C4.92879 17.1825 4.89258 17.0951 4.89258 17.0039C4.89258 16.9127 4.92879 16.8253 4.99326 16.7608C5.05773 16.6964 5.14516 16.6602 5.23633 16.6602H5.92383C6.015 16.6602 6.10243 16.6964 6.1669 16.7608C6.23136 16.8253 6.26758 16.9127 6.26758 17.0039C6.26758 17.0951 6.23136 17.1825 6.1669 17.247C6.10243 17.3114 6.015 17.3477 5.92383 17.3477Z" fill="white" fill-opacity="0.8"/>
<path d="M13.4863 17.3477H7.29883C7.20766 17.3477 7.12023 17.3114 7.05576 17.247C6.99129 17.1825 6.95508 17.0951 6.95508 17.0039C6.95508 16.9127 6.99129 16.8253 7.05576 16.7608C7.12023 16.6964 7.20766 16.6602 7.29883 16.6602H13.4863C13.5775 16.6602 13.6649 16.6964 13.7294 16.7608C13.7939 16.8253 13.8301 16.9127 13.8301 17.0039C13.8301 17.0951 13.7939 17.1825 13.7294 17.247C13.6649 17.3114 13.5775 17.3477 13.4863 17.3477Z" fill="white" fill-opacity="0.8"/>
</g>
<defs>
<clipPath id="clip0_417_1884">
<rect width="22" height="22" fill="white" transform="translate(0.767578 0.160156)"/>
</clipPath>
</defs>
</svg>
