<svg width="25" height="25" viewBox="0 0 25 25" fill="none" xmlns="http://www.w3.org/2000/svg">
<g clip-path="url(#clip0_417_3458)">
<path d="M21.8583 11.173L12.6683 20.363C11.5424 21.4888 10.0154 22.1213 8.42326 22.1213C6.83107 22.1213 5.3041 21.4888 4.17826 20.363C3.05241 19.2371 2.41992 17.7102 2.41992 16.118C2.41992 14.5258 3.05241 12.9988 4.17826 11.873L13.3683 2.68297C14.1188 1.9324 15.1368 1.51074 16.1983 1.51074C17.2597 1.51074 18.2777 1.9324 19.0283 2.68297C19.7788 3.43353 20.2005 4.45151 20.2005 5.51297C20.2005 6.57442 19.7788 7.5924 19.0283 8.34297L9.82826 17.533C9.45298 17.9082 8.94399 18.1191 8.41326 18.1191C7.88253 18.1191 7.37354 17.9082 6.99826 17.533C6.62298 17.1577 6.41215 16.6487 6.41215 16.118C6.41215 15.5872 6.62298 15.0782 6.99826 14.703L15.4883 6.22297" stroke="white" stroke-width="1.4" stroke-linecap="round" stroke-linejoin="round"/>
</g>
<defs>
<clipPath id="clip0_417_3458">
<rect width="24" height="24" fill="white" transform="translate(0.417969 0.123047)"/>
</clipPath>
</defs>
</svg>
