<svg width="25" height="25" viewBox="0 0 25 25" fill="none" xmlns="http://www.w3.org/2000/svg">
<g clip-path="url(#clip0_417_3449)">
<path d="M10.4216 3.97056L1.95161 18.1106C1.77698 18.413 1.68458 18.7559 1.6836 19.1051C1.68262 19.4543 1.7731 19.7977 1.94604 20.1011C2.11897 20.4045 2.36834 20.6573 2.66932 20.8344C2.9703 21.0115 3.31241 21.1067 3.66161 21.1106H20.6016C20.9508 21.1067 21.2929 21.0115 21.5939 20.8344C21.8949 20.6573 22.1443 20.4045 22.3172 20.1011C22.4901 19.7977 22.5806 19.4543 22.5796 19.1051C22.5786 18.7559 22.4862 18.413 22.3116 18.1106L13.8416 3.97056C13.6633 3.67666 13.4123 3.43368 13.1128 3.26504C12.8133 3.0964 12.4753 3.00781 12.1316 3.00781C11.7879 3.00781 11.4499 3.0964 11.1504 3.26504C10.8509 3.43368 10.5999 3.67666 10.4216 3.97056Z" stroke="#F65857" stroke-width="2" stroke-linecap="round" stroke-linejoin="round"/>
<path d="M12.1328 9.11035V13.1104" stroke="#F65857" stroke-width="2" stroke-linecap="round" stroke-linejoin="round"/>
<path d="M12.1328 17.1104H12.1428" stroke="#F65857" stroke-width="2" stroke-linecap="round" stroke-linejoin="round"/>
</g>
<defs>
<clipPath id="clip0_417_3449">
<rect width="24" height="24" fill="white" transform="translate(0.132812 0.110352)"/>
</clipPath>
</defs>
</svg>
