<svg width="22" height="23" viewBox="0 0 22 23" fill="none" xmlns="http://www.w3.org/2000/svg">
<path fill-rule="evenodd" clip-rule="evenodd" d="M11 22.4107C4.92487 22.4107 0 17.3979 0 11.2143C0 5.03067 4.92487 0.0178566 11 0.0178566C17.0751 0.0178566 22 5.03067 22 11.2143C22 17.3979 17.0751 22.4107 11 22.4107ZM11 20.375C15.9706 20.375 20 16.2736 20 11.2143C20 6.15496 15.9706 2.05357 11 2.05357C6.02944 2.05357 2 6.15496 2 11.2143C2 16.2736 6.02944 20.375 11 20.375ZM14.2929 7.44098L9 12.8284L6.70711 10.4946L5.29289 11.934L9 15.7073L15.7071 8.88045L14.2929 7.44098Z" fill="#58BF44"/>
</svg>
