<svg width="24" height="25" viewBox="0 0 24 25" fill="none" xmlns="http://www.w3.org/2000/svg">
<path fill-rule="evenodd" clip-rule="evenodd" d="M12 23.4107C5.92487 23.4107 1 18.3979 1 12.2143C1 6.03067 5.92487 1.01786 12 1.01786C18.0751 1.01786 23 6.03067 23 12.2143C23 18.3979 18.0751 23.4107 12 23.4107ZM12 21.375C16.9706 21.375 21 17.2736 21 12.2143C21 7.15497 16.9706 3.05357 12 3.05357C7.02944 3.05357 3 7.15497 3 12.2143C3 17.2736 7.02944 21.375 12 21.375ZM8.70711 17.0055L12 13.6538L15.2929 17.0055L16.7071 15.566L13.4142 12.2143L16.7071 8.86259L15.2929 7.42313L12 10.7748L8.70711 7.42313L7.29289 8.86259L10.5858 12.2143L7.29289 15.566L8.70711 17.0055Z" fill="#FF453A"/>
</svg>
