<svg width="12" height="12" viewBox="0 0 12 12" fill="none" xmlns="http://www.w3.org/2000/svg">
<path fill-rule="evenodd" clip-rule="evenodd" d="M11.5 6C11.5 9.03757 9.03757 11.5 6 11.5C2.96243 11.5 0.5 9.03757 0.5 6C0.5 2.96243 2.96243 0.5 6 0.5C9.03757 0.5 11.5 2.96243 11.5 6ZM1.5 5.99998C1.5 8.48527 3.51472 10.5 6 10.5C8.48528 10.5 10.5 8.48527 10.5 5.99998C10.5 3.5147 8.48528 1.49998 6 1.49998C3.51472 1.49998 1.5 3.5147 1.5 5.99998ZM4 8.5V3.5C4 3.10728 4.43198 2.86786 4.765 3.076L8.765 5.576C9.07834 5.77184 9.07834 6.22817 8.765 6.424L4.765 8.924C4.43198 9.13214 4 8.89272 4 8.5ZM5 4.40209L7.5566 5.99997L5 7.59784V4.40209Z" fill="#58BF44"/>
</svg>
