<svg width="24" height="24" viewBox="0 0 24 24" fill="none" xmlns="http://www.w3.org/2000/svg">
<path fill-rule="evenodd" clip-rule="evenodd" d="M12 5.25C12.4142 5.25 12.75 5.58579 12.75 6V11.567L17.6249 14.3815C17.9836 14.5886 18.1065 15.0473 17.8994 15.406C17.6923 15.7648 17.2336 15.8877 16.8749 15.6806L12 12.866L7.125 15.6806C6.76628 15.8877 6.30759 15.7648 6.10048 15.406C5.89338 15.0473 6.01628 14.5886 6.375 14.3815L11.25 11.567V6C11.25 5.58579 11.5857 5.25 12 5.25Z" fill="#56555B"/>
<path d="M7 8C7 9.10455 6.10455 10 5 10C3.89543 10 3 9.10455 3 8C3 6.89545 3.89543 6 5 6C6.10455 6 7 6.89545 7 8Z" fill="#58BF44"/>
<path fill-rule="evenodd" clip-rule="evenodd" d="M5 6.75C4.30965 6.75 3.75 7.30966 3.75 8C3.75 8.69034 4.30965 9.25 5 9.25C5.69034 9.25 6.25 8.69034 6.25 8C6.25 7.30966 5.69034 6.75 5 6.75ZM2.25 8C2.25 6.48124 3.48121 5.25 5 5.25C6.51876 5.25 7.75 6.48124 7.75 8C7.75 9.51876 6.51876 10.75 5 10.75C3.48121 10.75 2.25 9.51876 2.25 8Z" fill="#58BF44"/>
<path d="M7 16C7 17.1045 6.10455 18 5 18C3.89543 18 3 17.1045 3 16C3 14.8954 3.89543 14 5 14C6.10455 14 7 14.8954 7 16Z" fill="#56555B"/>
<path fill-rule="evenodd" clip-rule="evenodd" d="M5 14.75C4.30965 14.75 3.75 15.3097 3.75 16C3.75 16.6903 4.30965 17.25 5 17.25C5.69034 17.25 6.25 16.6903 6.25 16C6.25 15.3097 5.69034 14.75 5 14.75ZM2.25 16C2.25 14.4812 3.48121 13.25 5 13.25C6.51876 13.25 7.75 14.4812 7.75 16C7.75 17.5188 6.51876 18.75 5 18.75C3.48121 18.75 2.25 17.5188 2.25 16Z" fill="#56555B"/>
<path d="M14 20C14 21.1045 13.1045 22 12 22C10.8954 22 10 21.1045 10 20C10 18.8954 10.8954 18 12 18C13.1045 18 14 18.8954 14 20Z" fill="#58BF44"/>
<path fill-rule="evenodd" clip-rule="evenodd" d="M12 18.75C11.3097 18.75 10.75 19.3097 10.75 20C10.75 20.6903 11.3097 21.25 12 21.25C12.6903 21.25 13.25 20.6903 13.25 20C13.25 19.3097 12.6903 18.75 12 18.75ZM9.25 20C9.25 18.4812 10.4812 17.25 12 17.25C13.5188 17.25 14.75 18.4812 14.75 20C14.75 21.5188 13.5188 22.75 12 22.75C10.4812 22.75 9.25 21.5188 9.25 20Z" fill="#58BF44"/>
<path d="M21 16C21 17.1045 20.1045 18 19 18C17.8954 18 17 17.1045 17 16C17 14.8954 17.8954 14 19 14C20.1045 14 21 14.8954 21 16Z" fill="#56555B"/>
<path fill-rule="evenodd" clip-rule="evenodd" d="M19 14.75C18.3097 14.75 17.75 15.3097 17.75 16C17.75 16.6903 18.3097 17.25 19 17.25C19.6903 17.25 20.25 16.6903 20.25 16C20.25 15.3097 19.6903 14.75 19 14.75ZM16.25 16C16.25 14.4812 17.4812 13.25 19 13.25C20.5188 13.25 21.75 14.4812 21.75 16C21.75 17.5188 20.5188 18.75 19 18.75C17.4812 18.75 16.25 17.5188 16.25 16Z" fill="#56555B"/>
<path d="M21 8C21 9.10455 20.1045 10 19 10C17.8954 10 17 9.10455 17 8C17 6.89545 17.8954 6 19 6C20.1045 6 21 6.89545 21 8Z" fill="#58BF44"/>
<path fill-rule="evenodd" clip-rule="evenodd" d="M19 6.75C18.3097 6.75 17.75 7.30966 17.75 8C17.75 8.69034 18.3097 9.25 19 9.25C19.6903 9.25 20.25 8.69034 20.25 8C20.25 7.30966 19.6903 6.75 19 6.75ZM16.25 8C16.25 6.48124 17.4812 5.25 19 5.25C20.5188 5.25 21.75 6.48124 21.75 8C21.75 9.51876 20.5188 10.75 19 10.75C17.4812 10.75 16.25 9.51876 16.25 8Z" fill="#58BF44"/>
<path d="M14 4C14 5.10455 13.1045 6 12 6C10.8954 6 10 5.10455 10 4C10 2.89543 10.8954 2 12 2C13.1045 2 14 2.89543 14 4Z" fill="#56555B"/>
<path fill-rule="evenodd" clip-rule="evenodd" d="M12 2.75C11.3097 2.75 10.75 3.30965 10.75 4C10.75 4.69034 11.3097 5.25 12 5.25C12.6903 5.25 13.25 4.69034 13.25 4C13.25 3.30965 12.6903 2.75 12 2.75ZM9.25 4C9.25 2.48121 10.4812 1.25 12 1.25C13.5188 1.25 14.75 2.48121 14.75 4C14.75 5.51876 13.5188 6.75 12 6.75C10.4812 6.75 9.25 5.51876 9.25 4Z" fill="#56555B"/>
</svg>
