<svg width="24" height="24" viewBox="0 0 24 24" fill="none" xmlns="http://www.w3.org/2000/svg">
<path d="M19.5 3H4.5C3.67157 3 3 3.67157 3 4.5V19.5C3 20.3284 3.67157 21 4.5 21H19.5C20.3284 21 21 20.3284 21 19.5V4.5C21 3.67157 20.3284 3 19.5 3Z" fill="#56555B"/>
<path fill-rule="evenodd" clip-rule="evenodd" d="M4.5 3.75C4.08579 3.75 3.75 4.08579 3.75 4.5V19.5C3.75 19.9142 4.08579 20.25 4.5 20.25H19.5C19.9142 20.25 20.25 19.9142 20.25 19.5V4.5C20.25 4.08579 19.9142 3.75 19.5 3.75H4.5ZM2.25 4.5C2.25 3.25736 3.25736 2.25 4.5 2.25H19.5C20.7426 2.25 21.75 3.25736 21.75 4.5V19.5C21.75 20.7426 20.7426 21.75 19.5 21.75H4.5C3.25736 21.75 2.25 20.7426 2.25 19.5V4.5Z" fill="#56555B"/>
<path fill-rule="evenodd" clip-rule="evenodd" d="M2.25 8C2.25 7.58579 2.58579 7.25 3 7.25H21C21.4142 7.25 21.75 7.58579 21.75 8C21.75 8.41421 21.4142 8.75 21 8.75H3C2.58579 8.75 2.25 8.41421 2.25 8Z" fill="#58BF44"/>
<path fill-rule="evenodd" clip-rule="evenodd" d="M3 5.75C3.41421 5.75 3.75 6.08579 3.75 6.5V9.5C3.75 9.91421 3.41421 10.25 3 10.25C2.58579 10.25 2.25 9.91421 2.25 9.5V6.5C2.25 6.08579 2.58579 5.75 3 5.75Z" fill="#56555B"/>
<path fill-rule="evenodd" clip-rule="evenodd" d="M21 5.75C21.4142 5.75 21.75 6.08579 21.75 6.5V9.5C21.75 9.91421 21.4142 10.25 21 10.25C20.5858 10.25 20.25 9.91421 20.25 9.5V6.5C20.25 6.08579 20.5858 5.75 21 5.75Z" fill="#56555B"/>
<path fill-rule="evenodd" clip-rule="evenodd" d="M7.75 15C7.75 14.5858 8.08579 14.25 8.5 14.25H21C21.4142 14.25 21.75 14.5858 21.75 15C21.75 15.4142 21.4142 15.75 21 15.75H8.5C8.08579 15.75 7.75 15.4142 7.75 15Z" fill="#58BF44"/>
<path fill-rule="evenodd" clip-rule="evenodd" d="M8.5 7.25C8.91421 7.25 9.25 7.58579 9.25 8V21C9.25 21.4142 8.91421 21.75 8.5 21.75C8.08579 21.75 7.75 21.4142 7.75 21V8C7.75 7.58579 8.08579 7.25 8.5 7.25Z" fill="#58BF44"/>
<path fill-rule="evenodd" clip-rule="evenodd" d="M6.25 21C6.25 20.5858 6.58579 20.25 7 20.25H10C10.4142 20.25 10.75 20.5858 10.75 21C10.75 21.4142 10.4142 21.75 10 21.75H7C6.58579 21.75 6.25 21.4142 6.25 21Z" fill="#56555B"/>
<path fill-rule="evenodd" clip-rule="evenodd" d="M21 12.75C21.4142 12.75 21.75 13.0858 21.75 13.5V16.5C21.75 16.9142 21.4142 17.25 21 17.25C20.5858 17.25 20.25 16.9142 20.25 16.5V13.5C20.25 13.0858 20.5858 12.75 21 12.75Z" fill="#56555B"/>
</svg>
