<svg width="24" height="24" viewBox="0 0 24 24" fill="none" xmlns="http://www.w3.org/2000/svg">
<path fill-rule="evenodd" clip-rule="evenodd" d="M5.699 9.22818C5.8485 9.61261 5.65949 10.0452 5.27671 10.1971L5.26837 10.2006C5.25824 10.205 5.23956 10.2133 5.21344 10.2259C5.16112 10.251 5.07941 10.293 4.97696 10.3543C4.7716 10.4774 4.48638 10.6763 4.18761 10.9713C3.59747 11.5538 2.9359 12.5276 2.74444 14.0912C2.6941 14.5023 2.31999 14.7948 1.90884 14.7445C1.4977 14.6941 1.20522 14.32 1.25556 13.9089C1.49267 11.9724 2.3311 10.6962 3.13382 9.90378C3.53147 9.51122 3.9159 9.24142 4.20607 9.06758C4.35139 8.98052 4.47393 8.91701 4.56391 8.87378C4.60893 8.85215 4.64592 8.83555 4.67367 8.82357C4.68754 8.81757 4.69912 8.81273 4.70825 8.80899L4.72009 8.8042L4.72461 8.80241L4.72651 8.80166L4.72737 8.80133C4.72777 8.80117 4.72817 8.80101 5 9.50002L4.72817 8.80101C5.11421 8.65088 5.54887 8.84213 5.699 9.22818Z" fill="#58BF44"/>
<path fill-rule="evenodd" clip-rule="evenodd" d="M18.301 9.22819C18.4511 8.84214 18.8858 8.65089 19.2718 8.80101L19 9.50002C19.2718 8.80101 19.2722 8.80117 19.2726 8.80133L19.2735 8.80166L19.2754 8.80241L19.2799 8.8042L19.2918 8.80899C19.3009 8.81273 19.3125 8.81757 19.3263 8.82357C19.3541 8.83555 19.3911 8.85215 19.4361 8.87378C19.5261 8.91701 19.6486 8.98052 19.7939 9.06758C20.0841 9.24142 20.4685 9.51122 20.8662 9.90378C21.6689 10.6962 22.5073 11.9724 22.7444 13.9089C22.7948 14.32 22.5023 14.6941 22.0912 14.7445C21.68 14.7948 21.3059 14.5023 21.2556 14.0912C21.0641 12.5276 20.4025 11.5538 19.8124 10.9713C19.5136 10.6763 19.2284 10.4774 19.023 10.3543C18.9206 10.293 18.8389 10.251 18.7866 10.2259C18.7604 10.2133 18.7418 10.205 18.7316 10.2006L18.7233 10.1971C18.3405 10.0452 18.1515 9.61261 18.301 9.22819Z" fill="#58BF44"/>
<path fill-rule="evenodd" clip-rule="evenodd" d="M8.27122 9.32285C8.36906 8.92036 8.77465 8.67338 9.17715 8.77121L9.00001 9.49999C9.17715 8.77121 9.17754 8.77131 9.17795 8.77141L9.17881 8.77162L9.1807 8.77208L9.18516 8.7732L9.19673 8.77617C9.2056 8.77849 9.21679 8.7815 9.23015 8.78526C9.25687 8.79277 9.29235 8.80329 9.33552 8.81728C9.42178 8.84524 9.53932 8.88725 9.67936 8.94716C9.9587 9.06665 10.3326 9.25952 10.7274 9.55802C11.5264 10.1622 12.3929 11.1878 12.7346 12.8489C12.8181 13.2546 12.5568 13.6511 12.1511 13.7346C11.7454 13.8181 11.3489 13.5568 11.2654 13.1511C11.0071 11.8956 10.3736 11.1711 9.82264 10.7545C9.54241 10.5426 9.27881 10.4073 9.0894 10.3263C8.99507 10.2859 8.92042 10.2596 8.87308 10.2442C8.84946 10.2366 8.83279 10.2317 8.82406 10.2292L8.81748 10.2274C8.41817 10.1273 8.17383 9.72355 8.27122 9.32285Z" fill="#58BF44"/>
<path fill-rule="evenodd" clip-rule="evenodd" d="M15.7288 9.32285C15.8262 9.72355 15.5818 10.1273 15.1825 10.2274L15.1759 10.2292C15.1672 10.2317 15.1505 10.2366 15.1269 10.2442C15.0796 10.2596 15.0049 10.2859 14.9106 10.3263C14.7212 10.4073 14.4576 10.5426 14.1774 10.7545C13.6264 11.1711 12.9929 11.8956 12.7346 13.1511C12.6512 13.5568 12.2546 13.8181 11.8489 13.7346C11.4432 13.6511 11.1819 13.2546 11.2654 12.8489C11.6071 11.1878 12.4736 10.1622 13.2726 9.55802C13.6674 9.25952 14.0413 9.06665 14.3206 8.94716C14.4607 8.88725 14.5782 8.84524 14.6645 8.81728C14.7077 8.80329 14.7431 8.79277 14.7699 8.78526C14.7832 8.7815 14.7944 8.77849 14.8033 8.77617L14.8148 8.7732L14.8193 8.77208L14.8212 8.77162L14.8221 8.77141C14.8225 8.77131 14.8229 8.77121 15 9.49999L14.8229 8.77121C15.2254 8.67338 15.6309 8.92036 15.7288 9.32285Z" fill="#58BF44"/>
<path fill-rule="evenodd" clip-rule="evenodd" d="M10.1384 17.7371C10.1384 17.7371 10.1384 17.7371 10.1384 17.7371C10.1378 17.7373 10.1367 17.7375 10.1353 17.7378C10.1292 17.7391 10.1161 17.7421 10.0967 17.7471C10.0578 17.7572 9.99448 17.7754 9.91255 17.805C9.74825 17.8644 9.51277 17.9681 9.25141 18.1411C8.73701 18.4815 8.10029 19.1033 7.70947 20.2432C7.57513 20.6351 7.14859 20.8438 6.75676 20.7095C6.36494 20.5751 6.15621 20.1486 6.29055 19.7568C6.79972 18.2717 7.663 17.3935 8.42361 16.8902C8.79974 16.6413 9.14551 16.4872 9.40308 16.3942C9.53209 16.3476 9.63983 16.316 9.71936 16.2954C9.75916 16.285 9.79201 16.2774 9.81706 16.2719C9.82959 16.2692 9.84018 16.267 9.84873 16.2654L9.86001 16.2632L9.86448 16.2624L9.86642 16.262L9.86732 16.2618C9.86774 16.2618 9.86816 16.2617 10 17L9.86816 16.2617C10.2759 16.1889 10.6655 16.4604 10.7383 16.8682C10.8107 17.2737 10.5425 17.6613 10.1384 17.7371Z" fill="#58BF44"/>
<path fill-rule="evenodd" clip-rule="evenodd" d="M13.2617 16.8682C13.3345 16.4604 13.7241 16.1889 14.1318 16.2617L14 17C14.1318 16.2617 14.1323 16.2618 14.1327 16.2618L14.1336 16.262L14.1355 16.2624L14.14 16.2632L14.1513 16.2654C14.1598 16.267 14.1704 16.2692 14.1829 16.2719C14.208 16.2774 14.2408 16.285 14.2806 16.2954C14.3602 16.316 14.4679 16.3476 14.5969 16.3942C14.8545 16.4872 15.2003 16.6413 15.5764 16.8902C16.337 17.3935 17.2003 18.2717 17.7095 19.7568C17.8438 20.1486 17.6351 20.5751 17.2432 20.7095C16.8514 20.8438 16.4249 20.6351 16.2905 20.2432C15.8997 19.1033 15.263 18.4815 14.7486 18.1411C14.4872 17.9681 14.2517 17.8644 14.0874 17.805C14.0055 17.7754 13.9422 17.7572 13.9033 17.7471C13.8839 17.7421 13.8708 17.7391 13.8647 17.7378M13.8616 17.7371C13.8616 17.7371 13.8616 17.7371 13.8616 17.7371L13.8616 17.7371Z" fill="#58BF44"/>
<path d="M12 18C13.3807 18 14.5 16.8807 14.5 15.5C14.5 14.1193 13.3807 13 12 13C10.6193 13 9.5 14.1193 9.5 15.5C9.5 16.8807 10.6193 18 12 18Z" fill="#56555B"/>
<path fill-rule="evenodd" clip-rule="evenodd" d="M12 13.75C11.0335 13.75 10.25 14.5335 10.25 15.5C10.25 16.4665 11.0335 17.25 12 17.25C12.9665 17.25 13.75 16.4665 13.75 15.5C13.75 14.5335 12.9665 13.75 12 13.75ZM8.75 15.5C8.75 13.7051 10.2051 12.25 12 12.25C13.7949 12.25 15.25 13.7051 15.25 15.5C15.25 17.2949 13.7949 18.75 12 18.75C10.2051 18.75 8.75 17.2949 8.75 15.5Z" fill="#56555B"/>
<path d="M17 10C18.6569 10 20 8.65685 20 7C20 5.34315 18.6569 4 17 4C15.3431 4 14 5.34315 14 7C14 8.65685 15.3431 10 17 10Z" fill="#56555B"/>
<path fill-rule="evenodd" clip-rule="evenodd" d="M17 4.75C15.7574 4.75 14.75 5.75736 14.75 7C14.75 8.24264 15.7574 9.25 17 9.25C18.2426 9.25 19.25 8.24264 19.25 7C19.25 5.75736 18.2426 4.75 17 4.75ZM13.25 7C13.25 4.92893 14.9289 3.25 17 3.25C19.0711 3.25 20.75 4.92893 20.75 7C20.75 9.07107 19.0711 10.75 17 10.75C14.9289 10.75 13.25 9.07107 13.25 7Z" fill="#56555B"/>
<path d="M7 10C8.65685 10 10 8.65685 10 7C10 5.34315 8.65685 4 7 4C5.34315 4 4 5.34315 4 7C4 8.65685 5.34315 10 7 10Z" fill="#56555B"/>
<path fill-rule="evenodd" clip-rule="evenodd" d="M7 4.75C5.75736 4.75 4.75 5.75736 4.75 7C4.75 8.24264 5.75736 9.25 7 9.25C8.24264 9.25 9.25 8.24264 9.25 7C9.25 5.75736 8.24264 4.75 7 4.75ZM3.25 7C3.25 4.92893 4.92893 3.25 7 3.25C9.07107 3.25 10.75 4.92893 10.75 7C10.75 9.07107 9.07107 10.75 7 10.75C4.92893 10.75 3.25 9.07107 3.25 7Z" fill="#56555B"/>
</svg>
