<svg width="24" height="24" viewBox="0 0 24 24" fill="none" xmlns="http://www.w3.org/2000/svg">
<path d="M16 3H11V21H16V3Z" fill="#56555B"/>
<path fill-rule="evenodd" clip-rule="evenodd" d="M10.25 3C10.25 2.58579 10.5858 2.25 11 2.25H16C16.4142 2.25 16.75 2.58579 16.75 3V21C16.75 21.4142 16.4142 21.75 16 21.75H11C10.5858 21.75 10.25 21.4142 10.25 21V3ZM11.75 3.75V20.25H15.25V3.75H11.75Z" fill="#56555B"/>
<path d="M21 3H16V21H21V3Z" fill="#56555B"/>
<path fill-rule="evenodd" clip-rule="evenodd" d="M15.25 3C15.25 2.58579 15.5858 2.25 16 2.25H21C21.4142 2.25 21.75 2.58579 21.75 3V21C21.75 21.4142 21.4142 21.75 21 21.75H16C15.5858 21.75 15.25 21.4142 15.25 21V3ZM16.75 3.75V20.25H20.25V3.75H16.75Z" fill="#56555B"/>
<path d="M5 3L9 3.5L7.25 21L3 20.5L5 3Z" fill="#56555B"/>
<path fill-rule="evenodd" clip-rule="evenodd" d="M4.53643 2.41043C4.69388 2.28663 4.89429 2.23095 5.09303 2.25579L9.09303 2.75579C9.49689 2.80628 9.78678 3.16965 9.74628 3.57463L7.99628 21.0746C7.97627 21.2748 7.87667 21.4586 7.71986 21.5846C7.56305 21.7106 7.36218 21.7684 7.16238 21.7449L2.91238 21.2449C2.50196 21.1966 2.20794 20.8254 2.25486 20.4148L4.25486 2.91484C4.2776 2.71585 4.37899 2.53423 4.53643 2.41043ZM5.65909 3.83823L3.83003 19.8425L6.57967 20.166L8.18092 4.15345L5.65909 3.83823Z" fill="#56555B"/>
<path fill-rule="evenodd" clip-rule="evenodd" d="M18.5 6.75C18.9142 6.75 19.25 7.08579 19.25 7.5V9C19.25 9.41421 18.9142 9.75 18.5 9.75C18.0858 9.75 17.75 9.41421 17.75 9V7.5C17.75 7.08579 18.0858 6.75 18.5 6.75Z" fill="#58BF44"/>
<path fill-rule="evenodd" clip-rule="evenodd" d="M13.5 6.75C13.9142 6.75 14.25 7.08579 14.25 7.5V9C14.25 9.41421 13.9142 9.75 13.5 9.75C13.0858 9.75 12.75 9.41421 12.75 9V7.5C12.75 7.08579 13.0858 6.75 13.5 6.75Z" fill="#58BF44"/>
</svg>
