<svg width="24" height="24" viewBox="0 0 24 24" fill="none" xmlns="http://www.w3.org/2000/svg">
<path d="M22 2.5H2V15.5H22V2.5Z" fill="#56555B"/>
<path fill-rule="evenodd" clip-rule="evenodd" d="M1.25 2.5C1.25 2.08579 1.58579 1.75 2 1.75H22C22.4142 1.75 22.75 2.08579 22.75 2.5V15.5C22.75 15.9142 22.4142 16.25 22 16.25H2C1.58579 16.25 1.25 15.9142 1.25 15.5V2.5ZM2.75 3.25V14.75H21.25V3.25H2.75Z" fill="#56555B"/>
<path d="M11 7L14 9L11 11V7Z" fill="#58BF44"/>
<path fill-rule="evenodd" clip-rule="evenodd" d="M10.6461 6.33875C10.89 6.20823 11.1859 6.22254 11.416 6.37596L14.416 8.37596C14.6247 8.51506 14.75 8.74924 14.75 9C14.75 9.25077 14.6247 9.48494 14.416 9.62404L11.416 11.624C11.1859 11.7775 10.89 11.7918 10.6461 11.6613C10.4022 11.5307 10.25 11.2766 10.25 11V7C10.25 6.7234 10.4022 6.46926 10.6461 6.33875ZM11.75 8.40139V9.59861L12.6479 9L11.75 8.40139Z" fill="#58BF44"/>
<path fill-rule="evenodd" clip-rule="evenodd" d="M2.25 20C2.25 19.5858 2.58579 19.25 3 19.25H5.5C5.91421 19.25 6.25 19.5858 6.25 20C6.25 20.4142 5.91421 20.75 5.5 20.75H3C2.58579 20.75 2.25 20.4142 2.25 20Z" fill="#56555B"/>
<path fill-rule="evenodd" clip-rule="evenodd" d="M7.75 20C7.75 19.5858 8.08579 19.25 8.5 19.25H21C21.4142 19.25 21.75 19.5858 21.75 20C21.75 20.4142 21.4142 20.75 21 20.75H8.5C8.08579 20.75 7.75 20.4142 7.75 20Z" fill="#56555B"/>
<path fill-rule="evenodd" clip-rule="evenodd" d="M7 19.25C6.58576 19.25 6.25 19.5858 6.25 20C6.25 20.4142 6.58576 20.75 7 20.75C7.41424 20.75 7.75 20.4142 7.75 20C7.75 19.5858 7.41424 19.25 7 19.25ZM4.75 20C4.75 18.7573 5.75734 17.75 7 17.75C8.24266 17.75 9.25 18.7573 9.25 20C9.25 21.2427 8.24266 22.25 7 22.25C5.75734 22.25 4.75 21.2427 4.75 20Z" fill="#56555B"/>
</svg>
