<svg width="15" height="15" viewBox="0 0 15 15" fill="none" xmlns="http://www.w3.org/2000/svg">
<path d="M11.1351 2.79378C11.0845 2.7939 11.0348 2.78095 10.9912 2.75628C9.79113 2.13753 8.75354 1.87503 7.50961 1.87503C6.27191 1.87503 5.09668 2.16878 4.02772 2.75628C3.87655 2.83857 3.69024 2.78128 3.60262 2.63024C3.56351 2.55734 3.55469 2.47283 3.57795 2.39389C3.6012 2.31495 3.65479 2.2475 3.72782 2.20524C4.88071 1.57554 6.18421 1.24631 7.50961 1.25003C8.84088 1.25003 10.0037 1.54378 11.279 2.20003C11.3534 2.23943 11.4088 2.30534 11.4333 2.38362C11.4578 2.46191 11.4495 2.54633 11.4101 2.61878C11.3864 2.67021 11.348 2.71404 11.2992 2.74505C11.2505 2.77607 11.1935 2.79298 11.1351 2.79378ZM2.18996 6.07502C2.12501 6.07457 2.06177 6.05494 2.00878 6.01877C1.93984 5.96943 1.89347 5.89625 1.87945 5.81464C1.86543 5.73303 1.88484 5.64937 1.9336 5.58127C2.55259 4.70627 3.33977 4.01877 4.27785 3.53753C6.24054 2.52607 8.75354 2.51878 10.7224 3.53128C11.6603 4.01252 12.4477 4.69377 13.0667 5.56252C13.1153 5.63068 13.1346 5.71429 13.1205 5.79584C13.1065 5.87739 13.0603 5.95056 12.9915 6.00002C12.9582 6.02403 12.92 6.0412 12.8795 6.05046C12.839 6.05971 12.7969 6.06086 12.7559 6.05383C12.7149 6.0468 12.6758 6.03174 12.6411 6.00959C12.6063 5.98743 12.5767 5.95865 12.554 5.92502C11.9915 5.13752 11.279 4.51877 10.435 4.08752C8.64104 3.16878 6.34682 3.16878 4.55909 4.09377C3.70889 4.53127 2.99634 5.15627 2.43387 5.94273C2.40962 5.98411 2.37407 6.01832 2.33108 6.04163C2.28808 6.06495 2.23928 6.0765 2.18996 6.07502ZM6.09668 13.6198C6.05537 13.6202 6.01446 13.612 5.97671 13.5958C5.93897 13.5797 5.90527 13.5559 5.87791 13.526C5.3341 12.9813 5.03935 12.6302 4.62155 11.875C4.18889 11.1063 3.96525 10.1688 3.96525 9.16251C3.96525 7.30627 5.55287 5.79377 7.5034 5.79377C9.45392 5.79377 11.0426 7.30627 11.0426 9.16251C11.0439 9.20277 11.0367 9.24286 11.0215 9.28041C11.0064 9.31795 10.9836 9.35218 10.9544 9.38108C10.9253 9.40998 10.8904 9.43295 10.8519 9.44864C10.8134 9.46432 10.772 9.47241 10.7302 9.47241C10.6883 9.47241 10.6469 9.46432 10.6084 9.44864C10.5699 9.43295 10.535 9.40998 10.5059 9.38108C10.4767 9.35218 10.4539 9.31795 10.4388 9.28041C10.4236 9.24286 10.4165 9.20277 10.4177 9.16251C10.4177 7.65002 9.11103 6.41877 7.50475 6.41877C5.89847 6.41877 4.59046 7.65002 4.59046 9.16251C4.59046 10.0625 4.79029 10.8938 5.17158 11.5688C5.5718 12.2875 5.84763 12.5938 6.32816 13.0813C6.38515 13.1419 6.4167 13.2208 6.4167 13.3026C6.4167 13.3844 6.38515 13.4633 6.32816 13.524C6.26681 13.5836 6.18382 13.6179 6.09668 13.6198ZM10.5789 12.4635C9.83494 12.4635 9.17863 12.276 8.64104 11.9073C8.18303 11.5981 7.80886 11.1875 7.55003 10.71C7.2912 10.2326 7.15529 9.70218 7.15375 9.16355C7.15199 9.12297 7.15878 9.08246 7.1737 9.04446C7.18862 9.00646 7.21136 8.97177 7.24056 8.94245C7.26976 8.91314 7.30482 8.88981 7.34362 8.87388C7.38242 8.85794 7.42417 8.84973 7.46635 8.84973C7.50853 8.84973 7.55028 8.85794 7.58908 8.87388C7.62788 8.88981 7.66293 8.91314 7.69213 8.94245C7.72133 8.97177 7.74408 9.00646 7.759 9.04446C7.77392 9.08246 7.7807 9.12297 7.77895 9.16355C7.78 9.60106 7.8908 10.0318 8.10192 10.4192C8.31304 10.8066 8.61822 11.1392 8.9915 11.3885C9.43526 11.6885 9.95419 11.8313 10.5794 11.8313C10.7971 11.8275 11.0142 11.8066 11.2284 11.7688C11.3971 11.7375 11.5597 11.85 11.5908 12.025C11.6066 12.1058 11.5885 12.1893 11.5405 12.2572C11.4925 12.3252 11.4185 12.372 11.3347 12.3875C11.0857 12.4349 10.8327 12.46 10.5789 12.4625V12.4635ZM9.32222 13.75C9.29477 13.7489 9.26754 13.7447 9.2411 13.7375C8.24704 13.4625 7.59696 13.0938 6.91551 12.425C6.04016 11.5563 5.55909 10.4 5.55909 9.16251C5.55909 8.15001 6.42172 7.32502 7.4842 7.32502C8.54667 7.32502 9.40957 8.15001 9.40957 9.16251C9.40957 9.83126 9.99097 10.375 10.7097 10.375C11.4285 10.375 12.0099 9.83126 12.0099 9.16251C12.0099 6.80627 9.97826 4.89377 7.47798 4.89377C5.70268 4.89377 4.07747 5.88127 3.34626 7.41252C3.10289 7.91877 2.97741 8.51251 2.97741 9.16251C2.97741 9.65001 3.02095 10.4188 3.39602 11.4188C3.45876 11.5813 3.37736 11.7625 3.21484 11.8188C3.17622 11.8329 3.13502 11.8394 3.09372 11.8379C3.05242 11.8363 3.01188 11.8267 2.97452 11.8097C2.93716 11.7927 2.90377 11.7686 2.87634 11.7388C2.8489 11.709 2.828 11.6742 2.81489 11.6365C2.51329 10.844 2.35878 10.0066 2.35843 9.16251C2.35843 8.41251 2.50229 7.73022 2.78352 7.13752C3.61506 5.39273 5.45904 4.26252 7.47798 4.26252C10.3222 4.26252 12.6351 6.45627 12.6351 9.15626C12.6351 10.1688 11.7725 10.9938 10.7097 10.9938C9.647 10.9938 8.78436 10.1688 8.78436 9.15626C8.78463 8.48751 8.20324 7.94272 7.48447 7.94272C6.7657 7.94272 6.1843 8.48647 6.1843 9.15522C6.1843 10.2229 6.59696 11.224 7.35331 11.974C7.94823 12.5615 8.51611 12.8854 9.3974 13.1302C9.56614 13.174 9.65998 13.349 9.61617 13.5115C9.60252 13.5774 9.56599 13.637 9.51258 13.6803C9.45917 13.7237 9.39205 13.7482 9.32222 13.75Z" fill="white"/>
</svg>
