<svg width="12" height="11" viewBox="0 0 12 11" fill="none" xmlns="http://www.w3.org/2000/svg">
<path fill-rule="evenodd" clip-rule="evenodd" d="M3.10355 1.35353L2.39644 0.646423L0.646439 2.39642L1.35355 3.10353L3.10355 1.35353ZM8.89645 1.35355L9.60356 0.646443L11.3536 2.39644L10.6465 3.10355L8.89645 1.35355ZM6.00001 11C3.23858 11 1.00001 8.76138 1.00001 5.99996C1.00001 3.23854 3.23858 0.99996 6.00001 0.99996C8.76143 0.99996 11 3.23854 11 5.99996C11 8.76138 8.76143 11 6.00001 11ZM6.00001 9.99998C8.20915 9.99998 10 8.20912 10 5.99998C10 3.79084 8.20915 1.99998 6.00001 1.99998C3.79087 1.99998 2.00001 3.79084 2.00001 5.99998C2.00001 8.20912 3.79087 9.99998 6.00001 9.99998ZM8.5 5.49999H6.49999V2.99999H5.49999V6.49999H8.5V5.49999Z" fill="#58BF44"/>
</svg>
