<svg width="5" height="6" viewBox="0 0 5 6" fill="none" xmlns="http://www.w3.org/2000/svg">
<path fill-rule="evenodd" clip-rule="evenodd" d="M0.660249 0.819653C0.62695 0.830472 0.598074 0.859349 0.540321 0.917102L0.417087 1.04034L0.417087 1.04034C0.359333 1.09809 0.330457 1.12696 0.319638 1.16026C0.310121 1.18955 0.310121 1.2211 0.319638 1.25039C0.330457 1.28369 0.359333 1.31257 0.417087 1.37032L2.04681 3.00004L0.417132 4.62971L0.41713 4.62971C0.359378 4.68746 0.330503 4.71634 0.319683 4.74964C0.310166 4.77893 0.310166 4.81048 0.319683 4.83977C0.330503 4.87307 0.359379 4.90194 0.417132 4.9597L0.540366 5.08293C0.598119 5.14068 0.626996 5.16956 0.660294 5.18038C0.689584 5.18989 0.721135 5.18989 0.750425 5.18038C0.783723 5.16956 0.8126 5.14068 0.870353 5.08293L2.50003 3.45326L4.12965 5.08287C4.1874 5.14063 4.21628 5.1695 4.24957 5.18032C4.27886 5.18984 4.31042 5.18984 4.33971 5.18032C4.373 5.1695 4.40188 5.14063 4.45963 5.08287L4.58287 4.95964C4.64062 4.90189 4.6695 4.87301 4.68032 4.83971C4.68983 4.81042 4.68983 4.77887 4.68032 4.74958C4.6695 4.71628 4.64062 4.68741 4.58287 4.62965L2.95325 3.00004L4.58291 1.37038C4.64067 1.31262 4.66954 1.28375 4.68036 1.25045C4.68988 1.22116 4.68988 1.18961 4.68036 1.16032C4.66954 1.12702 4.64067 1.09814 4.58291 1.04039L4.45968 0.917158C4.40193 0.859405 4.37305 0.830528 4.33975 0.819709C4.31046 0.810192 4.27891 0.810192 4.24962 0.819709C4.21632 0.830528 4.18745 0.859404 4.1297 0.917155L4.12969 0.917158L2.50003 2.54682L0.870307 0.917101C0.812554 0.859349 0.783678 0.830472 0.75038 0.819653C0.72109 0.810136 0.689539 0.810136 0.660249 0.819653Z" fill="white"/>
</svg>
