<svg width="16" height="16" viewBox="0 0 16 16" fill="none" xmlns="http://www.w3.org/2000/svg">
<g clip-path="url(#clip0_124_3140)">
<path d="M7.99995 0.0283203C6.23591 0.030261 4.54467 0.731837 3.29724 1.97914C2.04981 3.22644 1.34806 4.91762 1.34595 6.68165C1.34595 8.39499 2.67261 11.0763 5.28928 14.651C5.60079 15.0777 6.00865 15.4249 6.47968 15.6643C6.95071 15.9036 7.4716 16.0283 7.99995 16.0283C8.5283 16.0283 9.04918 15.9036 9.52021 15.6643C9.99124 15.4249 10.3991 15.0777 10.7106 14.651C13.3273 11.0763 14.6539 8.39499 14.6539 6.68165C14.6518 4.91762 13.9501 3.22644 12.7027 1.97914C11.4552 0.731837 9.76399 0.030261 7.99995 0.0283203ZM7.99995 9.33365C7.47253 9.33365 6.95696 9.17726 6.51843 8.88424C6.0799 8.59122 5.7381 8.17475 5.53627 7.68748C5.33443 7.20021 5.28163 6.66403 5.38452 6.14675C5.48741 5.62946 5.74139 5.15431 6.11433 4.78137C6.48727 4.40843 6.96242 4.15445 7.47971 4.05156C7.99699 3.94867 8.53317 4.00148 9.02044 4.20331C9.50771 4.40514 9.92418 4.74694 10.2172 5.18547C10.5102 5.624 10.6666 6.13957 10.6666 6.66699C10.6666 7.37423 10.3857 8.05251 9.88557 8.55261C9.38547 9.0527 8.70719 9.33365 7.99995 9.33365Z" fill="black"/>
</g>
<defs>
<clipPath id="clip0_124_3140">
<rect width="16" height="16" fill="white"/>
</clipPath>
</defs>
</svg>
