<svg width="6" height="10" viewBox="0 0 6 10" fill="none" xmlns="http://www.w3.org/2000/svg">
<path d="M0.682123 3.35008L3.73945 0.292751C3.92705 0.105243 4.18145 -6.24843e-05 4.44669 2.78157e-08C4.71192 6.254e-05 4.96627 0.105488 5.15378 0.293085C5.34129 0.480681 5.4466 0.735081 5.44653 1.00032C5.44647 1.26556 5.34104 1.51991 5.15345 1.70742L2.09612 4.76409C2.06508 4.79505 2.04045 4.83183 2.02365 4.87233C2.00684 4.91283 1.99819 4.95624 1.99819 5.00009C1.99819 5.04393 2.00684 5.08734 2.02365 5.12784C2.04045 5.16834 2.06508 5.20512 2.09612 5.23609L5.15345 8.29275C5.34104 8.48026 5.44647 8.73461 5.44653 8.99985C5.4466 9.26509 5.34129 9.51949 5.15378 9.70709C4.96627 9.89468 4.71192 10.0001 4.44669 10.0002C4.18145 10.0002 3.92705 9.89493 3.73945 9.70742L0.682123 6.65009C0.245302 6.21206 1.88938e-07 5.61869 1.88938e-07 5.00009C1.88938e-07 4.38148 0.245302 3.78811 0.682123 3.35008V3.35008Z" fill="white"/>
</svg>
