<svg width="6" height="10" viewBox="0 0 6 10" fill="none" xmlns="http://www.w3.org/2000/svg">
<path d="M4.76441 3.35008L1.70708 0.292751C1.51949 0.105243 1.26509 -6.24843e-05 0.999848 2.78157e-08C0.734609 6.254e-05 0.480259 0.105488 0.292751 0.293085C0.105243 0.480681 -6.24842e-05 0.735081 2.78156e-08 1.00032C6.25398e-05 1.26556 0.105488 1.51991 0.293085 1.70742L3.35041 4.76409C3.38145 4.79505 3.40608 4.83183 3.42289 4.87233C3.43969 4.91283 3.44834 4.95624 3.44834 5.00009C3.44834 5.04393 3.43969 5.08734 3.42289 5.12784C3.40608 5.16834 3.38145 5.20512 3.35041 5.23609L0.293085 8.29275C0.105488 8.48026 6.25398e-05 8.73461 2.78156e-08 8.99985C-6.24842e-05 9.26509 0.105243 9.51949 0.292751 9.70709C0.480259 9.89468 0.734609 10.0001 0.999848 10.0002C1.26509 10.0002 1.51949 9.89493 1.70708 9.70742L4.76441 6.65009C5.20123 6.21206 5.44653 5.61869 5.44653 5.00009C5.44653 4.38148 5.20123 3.78811 4.76441 3.35008V3.35008Z" fill="white"/>
</svg>
