<svg width="8" height="4" viewBox="0 0 8 4" fill="none" xmlns="http://www.w3.org/2000/svg">
<path d="M0.500227 0.00264402C0.565888 0.00255598 0.630916 0.015471 0.69156 0.0406439C0.752204 0.0658168 0.807263 0.102749 0.85356 0.149311L3.41123 2.70664C3.48861 2.78405 3.58049 2.84545 3.68161 2.88734C3.78273 2.92923 3.89111 2.9508 4.00056 2.9508C4.11001 2.9508 4.2184 2.92923 4.31951 2.88734C4.42063 2.84545 4.51251 2.78405 4.58989 2.70664L7.14356 0.152644C7.18968 0.104889 7.24486 0.0667977 7.30586 0.0405932C7.36686 0.0143887 7.43247 0.000595786 7.49886 1.88785e-05C7.56525 -0.000558029 7.63109 0.0120927 7.69254 0.0372331C7.75399 0.0623735 7.80981 0.0995 7.85676 0.146446C7.9037 0.193393 7.94083 0.249218 7.96597 0.310667C7.99111 0.372115 8.00376 0.437954 8.00319 0.504344C8.00261 0.570733 7.98882 0.636344 7.96261 0.697345C7.93641 0.758347 7.89832 0.813519 7.85056 0.859643L5.29689 3.41364C4.95286 3.75703 4.48664 3.94989 4.00056 3.94989C3.51448 3.94989 3.04826 3.75703 2.70423 3.41364L0.14656 0.85631C0.0765882 0.786383 0.0289314 0.697271 0.00961999 0.600251C-0.00969138 0.50323 0.000210663 0.402662 0.0380732 0.311271C0.0759356 0.21988 0.140057 0.141774 0.222323 0.0868368C0.304589 0.0318993 0.401303 0.00259918 0.500227 0.00264402V0.00264402Z" fill="white"/>
</svg>
