<svg width="8" height="8" viewBox="0 0 8 8" fill="none" xmlns="http://www.w3.org/2000/svg">
<g clip-path="url(#clip0_124_3224)">
<path d="M0.503157 2.02633C0.568818 2.02624 0.633846 2.03915 0.69449 2.06433C0.755134 2.0895 0.810193 2.12643 0.85649 2.17299L3.41416 4.73032C3.49154 4.80773 3.58342 4.86913 3.68454 4.91102C3.78566 4.95292 3.89404 4.97448 4.00349 4.97448C4.11294 4.97448 4.22132 4.95292 4.32244 4.91102C4.42356 4.86913 4.51544 4.80773 4.59282 4.73032L7.14649 2.17633C7.19261 2.12857 7.24779 2.09048 7.30879 2.06427C7.36979 2.03807 7.4354 2.02428 7.50179 2.0237C7.56818 2.02312 7.63402 2.03577 7.69547 2.06091C7.75692 2.08606 7.81274 2.12318 7.85969 2.17013C7.90663 2.21707 7.94376 2.2729 7.9689 2.33435C7.99404 2.3958 8.00669 2.46164 8.00612 2.52803C8.00554 2.59442 7.99175 2.66003 7.96554 2.72103C7.93934 2.78203 7.90125 2.8372 7.85349 2.88332L5.29982 5.43732C4.95579 5.78071 4.48957 5.97357 4.00349 5.97357C3.51741 5.97357 3.05119 5.78071 2.70716 5.43732L0.14949 2.87999C0.0795179 2.81006 0.0318611 2.72095 0.0125497 2.62393C-0.0067617 2.52691 0.00314035 2.42634 0.0410028 2.33495C0.0788653 2.24356 0.142987 2.16546 0.225253 2.11052C0.307519 2.05558 0.404233 2.02628 0.503157 2.02633V2.02633Z" fill="black"/>
</g>
<defs>
<clipPath id="clip0_124_3224">
<rect width="8" height="8" fill="white"/>
</clipPath>
</defs>
</svg>
