<svg width="16" height="16" viewBox="0 0 16 16" fill="none" xmlns="http://www.w3.org/2000/svg">
<path d="M9.64992 10.5003L12.7072 7.44292C12.8948 7.25533 13.0001 7.00093 13 6.73569C12.9999 6.47045 12.8945 6.2161 12.7069 6.02859C12.5193 5.84108 12.2649 5.73578 11.9997 5.73584C11.7344 5.7359 11.4801 5.84133 11.2926 6.02893L8.23592 9.08625C8.20495 9.1173 8.16817 9.14192 8.12767 9.15873C8.08717 9.17553 8.04376 9.18418 7.99992 9.18418C7.95607 9.18418 7.91266 9.17553 7.87216 9.15873C7.83166 9.14192 7.79488 9.1173 7.76392 9.08625L4.70725 6.02892C4.51974 5.84133 4.26539 5.7359 4.00015 5.73584C3.73491 5.73578 3.48051 5.84108 3.29292 6.02859C3.10532 6.2161 2.99989 6.47045 2.99983 6.73569C2.99977 7.00093 3.10507 7.25533 3.29258 7.44292L6.34992 10.5003C6.78794 10.9371 7.38131 11.1824 7.99992 11.1824C8.61853 11.1824 9.21189 10.9371 9.64992 10.5003Z" fill="white"/>
</svg>
