<svg width="16" height="16" viewBox="0 0 16 16" fill="none" xmlns="http://www.w3.org/2000/svg">
<g clip-path="url(#clip0_60_898)">
<rect width="16" height="16" rx="8" fill="white"/>
<g clip-path="url(#clip1_60_898)">
<path d="M8 16C12.4183 16 16 12.4183 16 8C16 3.58172 12.4183 0 8 0C3.58172 0 0 3.58172 0 8C0 12.4183 3.58172 16 8 16Z" fill="#012169"/>
<path d="M14.1642 2.90186L7.99996 6.60052L1.8357 2.90186C1.323 3.52182 0.906927 4.2157 0.601562 4.95999L5.66823 7.99999L0.601562 11.04C0.906693 11.7844 1.32259 12.4785 1.83516 13.0987L7.99996 9.39946L14.1648 13.0981C14.6773 12.478 15.0932 11.7839 15.3984 11.0395L10.3317 7.99946L15.3984 4.95946C15.093 4.21535 14.6769 3.52166 14.1642 2.90186Z" fill="white"/>
<path d="M1.59406 12.7773L8.77753 8.46688L14.8533 12.1122C14.991 11.8831 15.1172 11.6473 15.2314 11.4055L8.77806 7.53354L14.8533 3.88874C14.715 3.65906 14.5662 3.43719 14.4069 3.22314L7.22286 7.53354L1.14713 3.88874C1.01024 4.11701 0.884376 4.35239 0.769531 4.59488L7.22286 8.46688L1.14713 12.1122C1.28491 12.3412 1.43407 12.5632 1.59406 12.7773Z" fill="#C8102E"/>
<path d="M10 0.262403C8.68962 -0.0874677 7.31039 -0.0874677 6 0.262403V6H0.262403C-0.0874677 7.31039 -0.0874677 8.68962 0.262403 10H6V15.7376C7.31039 16.0875 8.68962 16.0875 10 15.7376V10H15.7376C16.0875 8.68962 16.0875 7.31039 15.7376 6H10V0.262403Z" fill="white"/>
<path d="M9.2 0.0997333C8.80307 0.0364541 8.40193 0.00311562 8 0C7.59807 0.00311562 7.19693 0.0364541 6.8 0.0997333V6.8H0.0997333C0.0364541 7.19693 0.00311562 7.59807 0 8C0.00311562 8.40193 0.0364541 8.80307 0.0997333 9.2H6.8V15.9003C7.19693 15.9635 7.59807 15.9969 8 16C8.40193 15.9969 8.80307 15.9635 9.2 15.9003V9.2H15.9003C15.9635 8.80307 15.9969 8.40193 16 8C15.9969 7.59807 15.9635 7.19693 15.9003 6.8H9.2V0.0997333Z" fill="#C8102E"/>
</g>
</g>
<defs>
<clipPath id="clip0_60_898">
<rect width="16" height="16" rx="8" fill="white"/>
</clipPath>
<clipPath id="clip1_60_898">
<rect width="16" height="16" fill="white"/>
</clipPath>
</defs>
</svg>
