<svg width="16" height="16" viewBox="0 0 16 16" fill="none" xmlns="http://www.w3.org/2000/svg">
<path d="M6.66689 13.3331C8.2048 13.335 9.69567 12.8029 10.8849 11.8278L14.8622 15.8044C14.988 15.9259 15.1564 15.9931 15.3312 15.9915C15.506 15.99 15.6732 15.9199 15.7968 15.7963C15.9204 15.6727 15.9905 15.5055 15.992 15.3307C15.9935 15.1559 15.9263 14.9875 15.8049 14.8618L11.8276 10.8851C12.7855 9.71297 13.3159 8.24973 13.3318 6.73605C13.3476 5.22237 12.8478 3.74837 11.9145 2.55649C10.9813 1.36461 9.67025 0.525814 8.19697 0.178061C6.72369 -0.169691 5.17592 -0.00569447 3.80823 0.643079C2.44054 1.29185 1.33437 2.38677 0.671641 3.74776C0.00891292 5.10874 -0.170905 6.65474 0.161762 8.1315C0.494428 9.60826 1.31977 10.9278 2.50204 11.8732C3.68432 12.8186 5.15312 13.3334 6.66689 13.3331V13.3331ZM4.66689 5.99976H6.00022V4.66643C6.00022 4.48962 6.07046 4.32005 6.19548 4.19502C6.32051 4.07 6.49008 3.99976 6.66689 3.99976C6.8437 3.99976 7.01327 4.07 7.13829 4.19502C7.26332 4.32005 7.33356 4.48962 7.33356 4.66643V5.99976H8.66689C8.8437 5.99976 9.01327 6.07 9.13829 6.19502C9.26332 6.32005 9.33356 6.48962 9.33356 6.66643C9.33356 6.84324 9.26332 7.01281 9.13829 7.13783C9.01327 7.26286 8.8437 7.3331 8.66689 7.3331H7.33356V8.66643C7.33356 8.84324 7.26332 9.01281 7.13829 9.13783C7.01327 9.26286 6.8437 9.3331 6.66689 9.3331C6.49008 9.3331 6.32051 9.26286 6.19548 9.13783C6.07046 9.01281 6.00022 8.84324 6.00022 8.66643V7.3331H4.66689C4.49008 7.3331 4.32051 7.26286 4.19548 7.13783C4.07046 7.01281 4.00022 6.84324 4.00022 6.66643C4.00022 6.48962 4.07046 6.32005 4.19548 6.19502C4.32051 6.07 4.49008 5.99976 4.66689 5.99976Z" fill="white"/>
</svg>
