<svg width="16" height="16" viewBox="0 0 16 16" fill="none" xmlns="http://www.w3.org/2000/svg">
<g clip-path="url(#clip0_124_3143)">
<path d="M15.9693 3.69458L10.3573 9.30658C9.73158 9.93075 8.88383 10.2813 8 10.2813C7.11617 10.2813 6.26842 9.93075 5.64267 9.30658L0.0306667 3.69458C0.0213333 3.79991 0 3.89525 0 3.99991V11.9999C0.00105857 12.8836 0.352588 13.7309 0.97748 14.3558C1.60237 14.9807 2.4496 15.3322 3.33333 15.3332H12.6667C13.5504 15.3322 14.3976 14.9807 15.0225 14.3558C15.6474 13.7309 15.9989 12.8836 16 11.9999V3.99991C16 3.89525 15.9787 3.79991 15.9693 3.69458Z" fill="black"/>
<path d="M9.41476 8.36384L15.5041 2.27384C15.2091 1.78472 14.7931 1.37986 14.2961 1.09832C13.7991 0.816786 13.2379 0.668064 12.6668 0.666504H3.33343C2.76224 0.668064 2.20109 0.816786 1.70411 1.09832C1.20713 1.37986 0.791079 1.78472 0.496094 2.27384L6.58543 8.36384C6.96114 8.73805 7.46982 8.94815 8.00009 8.94815C8.53037 8.94815 9.03905 8.73805 9.41476 8.36384Z" fill="black"/>
</g>
<defs>
<clipPath id="clip0_124_3143">
<rect width="16" height="16" fill="white"/>
</clipPath>
</defs>
</svg>
