<svg width="32" height="32" viewBox="0 0 32 32" fill="none" xmlns="http://www.w3.org/2000/svg">
<g clip-path="url(#clip0_124_3155)">
<rect width="32" height="32" rx="16" fill="url(#paint0_radial_124_3155)"/>
<g clip-path="url(#clip1_124_3155)">
<path d="M15.7679 0.000244141C9.08807 0.000244141 7.13446 0.00713703 6.75472 0.0386474C5.3839 0.152626 4.53089 0.368521 3.60159 0.83133C2.88542 1.18705 2.3206 1.59939 1.76317 2.17741C0.747973 3.23153 0.132704 4.52838 -0.090023 6.06993C-0.19831 6.8183 -0.229812 6.97093 -0.236211 10.7935C-0.238672 12.0677 -0.236211 13.7447 -0.236211 15.994C-0.236211 22.6702 -0.228828 24.6224 -0.196834 25.0015C-0.0860853 26.3358 0.123106 27.1752 0.5661 28.0935C1.41271 29.8511 3.02964 31.1706 4.93451 31.663C5.59408 31.8328 6.32256 31.9264 7.25776 31.9707C7.654 31.9879 11.6926 32.0002 15.7337 32.0002C19.7748 32.0002 23.8159 31.9953 24.2023 31.9756C25.2851 31.9247 25.9139 31.8402 26.6092 31.6605C28.5264 31.1657 30.1138 29.8659 30.9776 28.0836C31.412 27.1875 31.6323 26.3161 31.7319 25.0515C31.7536 24.7758 31.7627 20.3798 31.7627 15.9898C31.7627 11.599 31.7529 7.21119 31.7312 6.93548C31.6303 5.65045 31.41 4.78637 30.9616 3.87306C30.5937 3.12543 30.1851 2.56711 29.592 1.99623C28.5335 0.984943 27.239 0.369506 25.6964 0.146964C24.949 0.0388936 24.8001 0.00689086 20.9756 0.000244141H15.7679Z" fill="url(#paint1_radial_124_3155)"/>
<path d="M15.7637 7.11157C13.3496 7.11157 13.0467 7.12213 12.0985 7.16528C11.1522 7.20861 10.5063 7.35842 9.94109 7.57824C9.35646 7.80528 8.86053 8.10898 8.36645 8.60324C7.872 9.09731 7.56829 9.59324 7.34051 10.1777C7.12014 10.7431 6.97014 11.3892 6.92754 12.3351C6.88513 13.2832 6.87402 13.5864 6.87402 16.0005C6.87402 18.4145 6.88476 18.7166 6.92773 19.6647C6.97125 20.611 7.12106 21.2569 7.3407 21.8221C7.56792 22.4068 7.87163 22.9027 8.36589 23.3968C8.85978 23.8912 9.35572 24.1956 9.93998 24.4227C10.5055 24.6425 11.1517 24.7923 12.0978 24.8356C13.0459 24.8788 13.3487 24.8894 15.7626 24.8894C18.1769 24.8894 18.479 24.8788 19.4271 24.8356C20.3734 24.7923 21.0201 24.6425 21.5857 24.4227C22.1701 24.1956 22.6653 23.8912 23.1592 23.3968C23.6536 22.9027 23.9573 22.4068 24.1851 21.8223C24.4037 21.2569 24.5537 20.6108 24.5981 19.6649C24.6407 18.7168 24.6518 18.4145 24.6518 16.0005C24.6518 13.5864 24.6407 13.2834 24.5981 12.3353C24.5537 11.389 24.4037 10.7431 24.1851 10.1779C23.9573 9.59324 23.6536 9.09731 23.1592 8.60324C22.6647 8.10879 22.1703 7.80509 21.5851 7.57824C21.0184 7.35842 20.3721 7.20861 19.4258 7.16528C18.4777 7.12213 18.1758 7.11157 15.761 7.11157H15.7637ZM14.9663 8.71342C15.203 8.71305 15.4671 8.71342 15.7637 8.71342C18.1371 8.71342 18.4184 8.72194 19.3556 8.76454C20.2223 8.80417 20.6927 8.94898 21.006 9.07065C21.4208 9.23176 21.7166 9.42435 22.0275 9.73546C22.3386 10.0466 22.5312 10.3429 22.6927 10.7577C22.8144 11.0706 22.9594 11.541 22.9988 12.4077C23.0414 13.3447 23.0507 13.6262 23.0507 15.9984C23.0507 18.3706 23.0414 18.6521 22.9988 19.5892C22.9592 20.4558 22.8144 20.9262 22.6927 21.2392C22.5316 21.654 22.3386 21.9494 22.0275 22.2603C21.7164 22.5714 21.421 22.764 21.006 22.9251C20.6931 23.0473 20.2223 23.1918 19.3556 23.2314C18.4186 23.274 18.1371 23.2832 15.7637 23.2832C13.3902 23.2832 13.1089 23.274 12.1719 23.2314C11.3052 23.1914 10.8348 23.0466 10.5213 22.9249C10.1065 22.7638 9.81016 22.5712 9.49905 22.2601C9.18794 21.949 8.99534 21.6534 8.83386 21.2384C8.71219 20.9255 8.56719 20.4551 8.52774 19.5884C8.48515 18.6514 8.47663 18.3699 8.47663 15.9962C8.47663 13.6225 8.48515 13.3425 8.52774 12.4055C8.56737 11.5388 8.71219 11.0684 8.83386 10.7551C8.99497 10.3403 9.18794 10.044 9.49905 9.73287C9.81016 9.42176 10.1065 9.22916 10.5213 9.06768C10.8346 8.94546 11.3052 8.80102 12.1719 8.7612C12.9919 8.72417 13.3096 8.71305 14.9663 8.7112V8.71342ZM20.5086 10.1893C19.9197 10.1893 19.4419 10.6666 19.4419 11.2556C19.4419 11.8445 19.9197 12.3223 20.5086 12.3223C21.0975 12.3223 21.5753 11.8445 21.5753 11.2556C21.5753 10.6668 21.0975 10.189 20.5086 10.189V10.1893ZM15.7637 11.4356C13.2428 11.4356 11.1989 13.4795 11.1989 16.0005C11.1989 18.5214 13.2428 20.5644 15.7637 20.5644C18.2847 20.5644 20.3279 18.5214 20.3279 16.0005C20.3279 13.4795 18.2847 11.4356 15.7637 11.4356ZM15.7637 13.0375C17.4001 13.0375 18.7267 14.364 18.7267 16.0005C18.7267 17.6368 17.4001 18.9634 15.7637 18.9634C14.1272 18.9634 12.8008 17.6368 12.8008 16.0005C12.8008 14.364 14.1272 13.0375 15.7637 13.0375Z" fill="white"/>
</g>
</g>
<defs>
<radialGradient id="paint0_radial_124_3155" cx="0" cy="0" r="1" gradientUnits="userSpaceOnUse" gradientTransform="translate(8.50004 34.4647) rotate(-90) scale(31.7144 29.4969)">
<stop stop-color="#FFDD55"/>
<stop offset="0.1" stop-color="#FFDD55"/>
<stop offset="0.5" stop-color="#FF543E"/>
<stop offset="1" stop-color="#C837AB"/>
</radialGradient>
<radialGradient id="paint1_radial_124_3155" cx="0" cy="0" r="1" gradientTransform="matrix(2.78252 13.9007 -57.298 11.4759 -5.59747 2.30547)" gradientUnits="userSpaceOnUse">
<stop stop-color="#3771C8"/>
<stop offset="0.128" stop-color="#3771C8"/>
<stop offset="1" stop-color="#6600FF" stop-opacity="0"/>
</radialGradient>
<clipPath id="clip0_124_3155">
<rect width="32" height="32" rx="16" fill="white"/>
</clipPath>
<clipPath id="clip1_124_3155">
<rect width="33.1852" height="33.1852" fill="white" transform="translate(-0.82959 -0.592529)"/>
</clipPath>
</defs>
</svg>
