<svg width="70" height="70" viewBox="0 0 70 70" fill="none" xmlns="http://www.w3.org/2000/svg">
<rect width="70" height="70" rx="35" fill="#CD050A"/>
<path d="M35.0804 47.7936C37.2741 47.7936 39.0524 46.0153 39.0524 43.8216C39.0524 41.6279 37.2741 39.8496 35.0804 39.8496C32.8867 39.8496 31.1084 41.6279 31.1084 43.8216C31.1084 46.0153 32.8867 47.7936 35.0804 47.7936Z" fill="white"/>
<path d="M44.5731 34.2515C44.5141 34.1909 44.4519 34.1369 44.3913 34.0812L44.2129 33.9126C44.1834 33.8815 44.1506 33.8586 44.113 33.8291C41.6486 31.5826 38.413 30.3727 35.0793 30.4511C31.7456 30.5295 28.5705 31.8901 26.2144 34.2499L25.6397 34.8262L24.844 35.6219C24.3788 36.0899 24.1182 36.7234 24.1194 37.3833C24.1206 38.0433 24.3836 38.6757 24.8505 39.142C25.0812 39.3737 25.3553 39.5576 25.657 39.6832C25.9588 39.8089 26.2824 39.8739 26.6092 39.8745C26.9361 39.8752 27.2599 39.8114 27.5622 39.6868C27.8644 39.5622 28.1391 39.3793 28.3707 39.1486L29.7427 37.7766C31.2432 36.2806 33.2754 35.4405 35.3942 35.4402C37.513 35.4399 39.5455 36.2794 41.0464 37.7749L42.0369 38.7344C42.5009 39.1955 43.129 39.4536 43.7831 39.4521C44.4373 39.4506 45.0641 39.1895 45.5259 38.7262C45.7561 38.4976 45.9387 38.2256 46.0632 37.9261C46.1877 37.6265 46.2516 37.3053 46.2513 36.9808C46.2534 36.6575 46.1909 36.337 46.0675 36.0381C45.944 35.7393 45.7622 35.4681 45.5325 35.2404L44.5731 34.2515Z" fill="white"/>
<path d="M51.34 29.3415L50.5149 28.5163C50.5116 28.513 50.51 28.5081 50.5034 28.5065L49.8518 27.8516C49.7387 27.7406 49.6148 27.6413 49.4818 27.5552C41.1104 20.2055 28.3774 20.4315 20.2729 28.2281C20.2336 28.2641 20.1894 28.2887 20.1501 28.328L18.6602 29.8196C18.45 30.0307 18.2835 30.2812 18.1702 30.5567C18.0569 30.8322 17.9991 31.1274 18 31.4253C18.0009 31.7232 18.0606 32.018 18.1755 32.2928C18.2905 32.5677 18.4585 32.8171 18.67 33.027C18.88 33.2383 19.1295 33.4062 19.4044 33.5211C19.6793 33.6359 19.9741 33.6954 20.272 33.6962C20.5699 33.6969 20.8651 33.6389 21.1406 33.5255C21.416 33.4121 21.6664 33.2454 21.8774 33.0351L23.3674 31.5469C23.3772 31.5338 23.3854 31.5223 23.3952 31.5141C29.9492 25.1828 40.3458 25.1435 46.9522 31.3848L48.1245 32.5587C48.5513 32.9827 49.129 33.22 49.7307 33.2185C50.3323 33.217 50.9088 32.9767 51.3335 32.5505C51.7591 32.1254 51.9988 31.5489 52 30.9473C52.0012 30.3458 51.7639 29.7683 51.34 29.3415Z" fill="white"/>
</svg>
