<svg width="70" height="70" viewBox="0 0 70 70" fill="none" xmlns="http://www.w3.org/2000/svg">
<rect width="70" height="70" rx="35" fill="#CD050A"/>
<path d="M31.8509 29.927C31.9498 29.9961 32.0668 30.0329 32.1864 30.0325H32.1879C32.2807 30.0325 32.3722 30.0103 32.4552 29.9678C32.5382 29.9252 32.6103 29.8635 32.666 29.7874C32.7217 29.7113 32.7593 29.623 32.7759 29.5295C32.7925 29.436 32.7877 29.3398 32.7617 29.2485C32.4176 27.7049 32.5807 26.4617 33.2462 25.5534C34.0305 24.4829 34.3779 23.1094 34.1755 21.8794C33.9967 20.7893 33.4246 19.8832 32.5216 19.2596C32.3217 19.1211 32.0469 19.1222 31.8475 19.2627C31.7483 19.3323 31.672 19.4311 31.6287 19.5461C31.5854 19.661 31.5771 19.7867 31.6049 19.9066C31.9764 21.5306 31.6386 22.5595 30.7913 24.1208C30.2637 25.093 30.0482 26.1851 30.1845 27.1959C30.3389 28.339 30.916 29.284 31.8509 29.927ZM36.7528 29.665C36.8458 29.7305 36.9561 29.7655 37.0689 29.7654H37.0697C37.2188 29.7651 37.3617 29.7044 37.4671 29.5963C37.5726 29.4883 37.6318 29.3419 37.632 29.1892C37.632 29.1353 37.6246 29.0818 37.61 29.03C37.3491 27.8553 37.4712 26.9124 37.9727 26.2277C38.6007 25.371 38.8788 24.2703 38.7165 23.2835C38.5724 22.4055 38.1115 21.6754 37.3838 21.1725C37.1965 21.043 36.9429 21.041 36.7486 21.1765C36.5595 21.3109 36.4688 21.5551 36.5221 21.7813C36.8052 23.0184 36.5458 23.8058 35.896 25.0029C35.4737 25.7809 35.3016 26.6555 35.411 27.4652C35.5352 28.3863 36.0003 29.1479 36.7528 29.665ZM52.1582 33.3754C51.7857 32.9262 51.2532 32.6788 50.6586 32.6788H47.9009C47.9296 32.1945 47.8426 31.5904 47.5055 31.1839C47.2563 30.8834 46.9013 30.7246 46.4786 30.7246H22.5775C21.9519 30.7246 21.5915 31.0005 21.3993 31.232C21.0058 31.7061 20.9516 32.416 21.032 32.9223C21.6903 37.0655 23.1125 40.8292 25.0369 43.5201C26.4611 45.5116 28.1296 46.9308 30.0241 47.7705H23.3666C22.5396 47.7705 21.8668 48.4598 21.8668 49.3069C21.8668 50.154 22.5397 50.8433 23.3666 50.8433H45.5401C46.3672 50.8433 47.0401 50.154 47.0401 49.3069C47.0401 48.4598 46.3672 47.7705 45.5401 47.7705H38.9178C40.4779 47.0824 41.8801 46.0044 43.1145 44.5416C45.2318 44.3559 47.3581 43.3201 49.1696 41.5776C51.0219 39.7959 52.2845 37.5215 52.6338 35.3379C52.6776 35.0647 52.7724 34.116 52.1582 33.3754ZM45.5653 40.6696C46.3702 38.9787 46.9339 37.2345 47.3278 35.6367H49.6029C49.0254 37.5339 47.4714 39.531 45.5653 40.6696Z" fill="white"/>
</svg>
