<svg width="70" height="70" viewBox="0 0 70 70" fill="none" xmlns="http://www.w3.org/2000/svg">
<rect width="70" height="70" rx="35" fill="#CD050A"/>
<g clip-path="url(#clip0_136_6233)">
<path fill-rule="evenodd" clip-rule="evenodd" d="M29.3896 24.2076V23.4515C29.3896 20.9241 21.3362 20.9241 21.3362 23.4515V24.0732C24.2239 22.4871 26.5024 22.7177 29.3896 24.2076ZM48.6637 24.0732V23.4515C48.6637 20.9241 40.6103 20.9241 40.6103 23.4515V24.2076C43.4976 22.7178 45.7761 22.4871 48.6637 24.0732ZM29.4213 25.2931C32.6434 27.0699 37.3566 27.0699 40.5786 25.2931C43.4688 23.6994 45.5924 23.2625 48.7632 25.2237C52.3801 27.4609 55.2027 36.2703 54.6235 42.2198C53.939 49.2523 47.6446 50.2564 43.2119 45.5828C40.9238 43.1704 38.4152 41.8663 35 41.8319C31.5848 41.8664 29.0761 43.1704 26.7881 45.5828C22.3553 50.2564 16.0609 49.2523 15.3764 42.2198C14.7972 36.2702 17.6198 27.4609 21.2367 25.2237C24.4076 23.2625 26.5312 23.6994 29.4213 25.2931ZM26.7823 33.3301V30.4877H23.8688V33.3301H20.9553V36.1725H23.8688V39.0149H26.7823V36.1725H29.6957V33.3301H26.7823ZM44.2176 30.0421C43.3975 30.0421 42.7326 30.6908 42.7326 31.4908C42.7326 32.2909 43.3975 32.9396 44.2176 32.9396C45.0377 32.9396 45.7026 32.2909 45.7026 31.4908C45.7026 30.6908 45.0377 30.0421 44.2176 30.0421ZM42.3607 34.7512C42.3607 33.9511 41.6958 33.3025 40.8757 33.3025C40.0556 33.3025 39.3907 33.9512 39.3907 34.7512C39.3907 35.5513 40.0556 36.2 40.8757 36.2C41.6958 36.2 42.3607 35.5513 42.3607 34.7512ZM44.2176 36.5629C43.3975 36.5629 42.7326 37.2116 42.7326 38.0116C42.7326 38.8117 43.3975 39.4604 44.2176 39.4604C45.0377 39.4604 45.7026 38.8117 45.7026 38.0116C45.7026 37.2116 45.0377 36.5629 44.2176 36.5629ZM49.0445 34.7512C49.0445 33.9511 48.3796 33.3025 47.5595 33.3025C46.7394 33.3025 46.0745 33.9512 46.0745 34.7512C46.0745 35.5513 46.7394 36.2 47.5595 36.2C48.3796 36.2 49.0445 35.5513 49.0445 34.7512Z" fill="white"/>
</g>
<defs>
<clipPath id="clip0_136_6233">
<rect width="41" height="40" fill="white" transform="translate(14.5 15)"/>
</clipPath>
</defs>
</svg>
