<svg width="32" height="32" viewBox="0 0 32 32" fill="none" xmlns="http://www.w3.org/2000/svg">
<g clip-path="url(#clip0_124_3164)">
<path d="M16 32C24.8366 32 32 24.8366 32 16C32 7.16344 24.8366 0 16 0C7.16344 0 0 7.16344 0 16C0 24.8366 7.16344 32 16 32Z" fill="#007AB9"/>
<path d="M25.5599 17.2878V23.8842H21.7354V17.7299C21.7354 16.1846 21.1832 15.1293 19.7985 15.1293C18.7418 15.1293 18.114 15.8397 17.8368 16.5277C17.7361 16.7735 17.7102 17.1149 17.7102 17.4598V23.8839H13.8854C13.8854 23.8839 13.9368 13.4605 13.8854 12.3815H17.7104V14.0115C17.7027 14.0243 17.6919 14.0369 17.6851 14.0492H17.7104V14.0115C18.2187 13.2294 19.1251 12.1114 21.1573 12.1114C23.6734 12.1114 25.5599 13.7554 25.5599 17.2878ZM9.88443 6.83691C8.57614 6.83691 7.72021 7.6957 7.72021 8.82401C7.72021 9.92836 8.55133 10.812 9.83423 10.812H9.85904C11.193 10.812 12.0224 9.92836 12.0224 8.82401C11.997 7.6957 11.193 6.83691 9.88443 6.83691ZM7.94753 23.8842H11.7708V12.3815H7.94753V23.8842Z" fill="#F1F2F2"/>
</g>
<defs>
<clipPath id="clip0_124_3164">
<rect width="32" height="32" fill="white"/>
</clipPath>
</defs>
</svg>
