<svg width="16" height="16" viewBox="0 0 16 16" fill="none" xmlns="http://www.w3.org/2000/svg">
<path d="M15.9693 3.69434L10.3573 9.30634C9.73158 9.93051 8.88383 10.281 8 10.281C7.11617 10.281 6.26842 9.93051 5.64267 9.30634L0.0306667 3.69434C0.0213333 3.79967 0 3.895 0 3.99967V11.9997C0.00105857 12.8834 0.352588 13.7306 0.97748 14.3555C1.60237 14.9804 2.4496 15.3319 3.33333 15.333H12.6667C13.5504 15.3319 14.3976 14.9804 15.0225 14.3555C15.6474 13.7306 15.9989 12.8834 16 11.9997V3.99967C16 3.895 15.9787 3.79967 15.9693 3.69434Z" fill="white"/>
<path d="M9.41464 8.36384L15.504 2.27384C15.209 1.78472 14.7929 1.37986 14.296 1.09832C13.799 0.816786 13.2378 0.668064 12.6666 0.666504H3.33331C2.76212 0.668064 2.20097 0.816786 1.70399 1.09832C1.20701 1.37986 0.790957 1.78472 0.495972 2.27384L6.58531 8.36384C6.96102 8.73805 7.4697 8.94815 7.99997 8.94815C8.53025 8.94815 9.03893 8.73805 9.41464 8.36384Z" fill="white"/>
</svg>
