<svg width="32" height="32" viewBox="0 0 32 32" fill="none" xmlns="http://www.w3.org/2000/svg">
<g clip-path="url(#clip0_62_2546)">
<path d="M16 31.9995C24.8366 31.9995 32 24.8361 32 15.9995C32 7.16296 24.8366 -0.000488281 16 -0.000488281C7.16344 -0.000488281 0 7.16296 0 15.9995C0 24.8361 7.16344 31.9995 16 31.9995Z" fill="white"/>
<path d="M25.5599 17.2868V23.8832H21.7354V17.7289C21.7354 16.1836 21.1832 15.1283 19.7985 15.1283C18.7418 15.1283 18.114 15.8388 17.8368 16.5267C17.7361 16.7725 17.7102 17.114 17.7102 17.4588V23.883H13.8854C13.8854 23.883 13.9368 13.4595 13.8854 12.3805H17.7104V14.0105C17.7027 14.0234 17.6919 14.0359 17.6851 14.0482H17.7104V14.0105C18.2187 13.2285 19.1251 12.1104 21.1573 12.1104C23.6734 12.1104 25.5599 13.7544 25.5599 17.2868ZM9.88443 6.83594C8.57614 6.83594 7.72021 7.69472 7.72021 8.82303C7.72021 9.92739 8.55133 10.811 9.83423 10.811H9.85904C11.193 10.811 12.0224 9.92739 12.0224 8.82303C11.997 7.69472 11.193 6.83594 9.88443 6.83594ZM7.94753 23.8832H11.7708V12.3805H7.94753V23.8832Z" fill="#007AB9"/>
</g>
<defs>
<clipPath id="clip0_62_2546">
<rect width="32" height="32" fill="white"/>
</clipPath>
</defs>
</svg>
