<svg width="32" height="32" viewBox="0 0 32 32" fill="none" xmlns="http://www.w3.org/2000/svg">
<g clip-path="url(#clip0_62_2537)">
<rect width="32" height="32" rx="16" fill="url(#paint0_radial_62_2537)"/>
<g clip-path="url(#clip1_62_2537)">
<path d="M15.768 0C9.08819 0 7.13459 0.00689289 6.75484 0.0384033C5.38402 0.152382 4.53101 0.368277 3.60171 0.831086C2.88554 1.18681 2.32072 1.59915 1.76329 2.17717C0.748096 3.23129 0.132826 4.52814 -0.0899009 6.06968C-0.198188 6.81805 -0.22969 6.97068 -0.236089 10.7933C-0.23855 12.0675 -0.236089 13.7444 -0.236089 15.9937C-0.236089 22.67 -0.228706 24.6221 -0.196712 25.0013C-0.0859632 26.3355 0.123228 27.175 0.566222 28.0932C1.41283 29.8509 3.02976 31.1704 4.93463 31.6627C5.5942 31.8326 6.32268 31.9261 7.25789 31.9705C7.65412 31.9877 11.6927 32 15.7338 32C19.7749 32 23.816 31.9951 24.2024 31.9754C25.2853 31.9244 25.9141 31.84 26.6093 31.6603C28.5265 31.1655 30.1139 29.8657 30.9777 28.0834C31.4121 27.1873 31.6324 26.3158 31.7321 25.0512C31.7537 24.7755 31.7628 20.3796 31.7628 15.9895C31.7628 11.5988 31.753 7.21095 31.7313 6.93523C31.6304 5.6502 31.4101 4.78613 30.9617 3.87282C30.5938 3.12519 30.1853 2.56686 29.5921 1.99598C28.5336 0.984699 27.2391 0.369262 25.6965 0.14672C24.9491 0.0386494 24.8002 0.00664672 20.9757 0H15.768Z" fill="white"/>
<path d="M15.7634 7.11084C13.3493 7.11084 13.0463 7.1214 12.0982 7.16454C11.1519 7.20788 10.5059 7.35769 9.94073 7.57751C9.35609 7.80454 8.86016 8.10825 8.36608 8.60251C7.87163 9.09658 7.56792 9.59251 7.34014 10.177C7.11977 10.7423 6.96977 11.3884 6.92718 12.3344C6.88477 13.2825 6.87366 13.5857 6.87366 15.9997C6.87366 18.4138 6.8844 18.7158 6.92736 19.664C6.97088 20.6103 7.1207 21.2562 7.34033 21.8214C7.56755 22.406 7.87126 22.902 8.36552 23.396C8.85942 23.8905 9.35535 24.1949 9.93962 24.422C10.5052 24.6418 11.1513 24.7916 12.0974 24.8349C13.0456 24.8781 13.3484 24.8886 15.7623 24.8886C18.1766 24.8886 18.4786 24.8781 19.4268 24.8349C20.3731 24.7916 21.0197 24.6418 21.5853 24.422C22.1697 24.1949 22.6649 23.8905 23.1588 23.396C23.6533 22.902 23.957 22.406 24.1848 21.8216C24.4033 21.2562 24.5533 20.6101 24.5977 19.6642C24.6403 18.716 24.6514 18.4138 24.6514 15.9997C24.6514 13.5857 24.6403 13.2827 24.5977 12.3345C24.5533 11.3882 24.4033 10.7423 24.1848 10.1771C23.957 9.59251 23.6533 9.09658 23.1588 8.60251C22.6644 8.10806 22.1699 7.80436 21.5847 7.57751C21.0181 7.35769 20.3718 7.20788 19.4255 7.16454C18.4773 7.1214 18.1754 7.11084 15.7606 7.11084H15.7634ZM14.966 8.71158C14.966 8.71219 14.9665 8.71269 14.9671 8.71269C15.2035 8.71232 15.4672 8.71269 15.7634 8.71269C18.1367 8.71269 18.418 8.72121 19.3553 8.7638C20.2219 8.80343 20.6923 8.94825 21.0057 9.06991C21.4205 9.23103 21.7162 9.42362 22.0271 9.73473C22.3383 10.0458 22.5309 10.3421 22.6923 10.757C22.814 11.0699 22.959 11.5403 22.9985 12.407C23.041 13.344 23.0503 13.6255 23.0503 15.9977C23.0503 18.3699 23.041 18.6514 22.9985 19.5884C22.9588 20.4551 22.814 20.9255 22.6923 21.2384C22.5312 21.6532 22.3383 21.9486 22.0271 22.2595C21.716 22.5707 21.4207 22.7632 21.0057 22.9244C20.6927 23.0466 20.2219 23.191 19.3553 23.2307C18.4182 23.2732 18.1367 23.2825 15.7634 23.2825C13.3898 23.2825 13.1085 23.2732 12.1715 23.2307C11.3048 23.1907 10.8344 23.0458 10.5209 22.9242C10.1061 22.7631 9.8098 22.5705 9.49868 22.2594C9.18757 21.9482 8.99498 21.6527 8.83349 21.2377C8.71182 20.9247 8.56682 20.4544 8.52738 19.5877C8.48479 18.6507 8.47627 18.3692 8.47627 15.9955C8.47627 13.6218 8.48479 13.3418 8.52738 12.4047C8.56701 11.5381 8.71182 11.0677 8.83349 10.7544C8.99461 10.3395 9.18757 10.0432 9.49868 9.73214C9.8098 9.42103 10.1061 9.22843 10.5209 9.06695C10.8343 8.94473 11.3048 8.80028 12.1715 8.76047C12.9913 8.72344 13.3091 8.71233 14.9648 8.71047C14.9654 8.71047 14.966 8.71097 14.966 8.71158ZM20.5082 10.1884C20.5082 10.1885 20.5082 10.1886 20.5081 10.1886C19.9192 10.1887 19.4416 10.6659 19.4416 11.2549C19.4416 11.8438 19.9193 12.3216 20.5082 12.3216C21.0971 12.3216 21.5749 11.8438 21.5749 11.2549C21.5749 10.6661 21.0972 10.1883 20.5084 10.1882C20.5083 10.1882 20.5082 10.1883 20.5082 10.1884ZM15.7634 11.4349C13.2424 11.4349 11.1985 13.4788 11.1985 15.9997C11.1985 18.5207 13.2424 20.5636 15.7634 20.5636C18.2843 20.5636 20.3275 18.5207 20.3275 15.9997C20.3275 13.4788 18.2843 11.4349 15.7634 11.4349ZM15.7634 13.0368C17.3997 13.0368 18.7264 14.3632 18.7264 15.9997C18.7264 17.636 17.3997 18.9627 15.7634 18.9627C14.1269 18.9627 12.8004 17.636 12.8004 15.9997C12.8004 14.3632 14.1269 13.0368 15.7634 13.0368Z" fill="url(#paint1_radial_62_2537)"/>
</g>
</g>
<defs>
<radialGradient id="paint0_radial_62_2537" cx="0" cy="0" r="1" gradientUnits="userSpaceOnUse" gradientTransform="translate(8.50004 34.4647) rotate(-90) scale(31.7144 29.4969)">
<stop stop-color="#FFDD55"/>
<stop offset="0.1" stop-color="#FFDD55"/>
<stop offset="0.5" stop-color="#FF543E"/>
<stop offset="1" stop-color="#C837AB"/>
</radialGradient>
<radialGradient id="paint1_radial_62_2537" cx="0" cy="0" r="1" gradientUnits="userSpaceOnUse" gradientTransform="translate(11.5959 26.2579) rotate(-90) scale(17.6191 16.3871)">
<stop stop-color="#FFDD55"/>
<stop offset="0.1" stop-color="#FFDD55"/>
<stop offset="0.5" stop-color="#FF543E"/>
<stop offset="1" stop-color="#C837AB"/>
</radialGradient>
<clipPath id="clip0_62_2537">
<rect width="32" height="32" rx="16" fill="white"/>
</clipPath>
<clipPath id="clip1_62_2537">
<rect width="33.1852" height="33.1852" fill="white" transform="translate(-0.829712 -0.592773)"/>
</clipPath>
</defs>
</svg>
