<svg width="16" height="16" viewBox="0 0 16 16" fill="none" xmlns="http://www.w3.org/2000/svg">
<path d="M5.49999 6.34996L8.55732 3.29263C8.74492 3.10512 8.99932 2.99982 9.26456 2.99988C9.5298 2.99994 9.78415 3.10537 9.97165 3.29296C10.1592 3.48056 10.2645 3.73496 10.2644 4.0002C10.2643 4.26544 10.1589 4.51979 9.97132 4.7073L6.91399 7.76396C6.88295 7.79493 6.85832 7.83171 6.84152 7.87221C6.82471 7.9127 6.81606 7.95612 6.81606 7.99996C6.81606 8.04381 6.82471 8.08722 6.84152 8.12772C6.85832 8.16822 6.88295 8.205 6.91399 8.23596L9.97132 11.2926C10.1589 11.4801 10.2643 11.7345 10.2644 11.9997C10.2645 12.265 10.1592 12.5194 9.97165 12.707C9.78415 12.8946 9.5298 13 9.26456 13C8.99932 13.0001 8.74492 12.8948 8.55732 12.7073L5.49999 9.64996C5.06317 9.21194 4.81787 8.61857 4.81787 7.99996C4.81787 7.38135 5.06317 6.78799 5.49999 6.34996V6.34996Z" fill="white"/>
</svg>
