<svg width="16" height="16" viewBox="0 0 16 16" fill="none" xmlns="http://www.w3.org/2000/svg">
<path d="M10.5 6.34996L7.44268 3.29263C7.25508 3.10512 7.00068 2.99982 6.73544 2.99988C6.4702 2.99994 6.21585 3.10537 6.02835 3.29296C5.84084 3.48056 5.73553 3.73496 5.7356 4.0002C5.73566 4.26544 5.84108 4.51979 6.02868 4.7073L9.08601 7.76396C9.11705 7.79493 9.14168 7.83171 9.15848 7.87221C9.17529 7.9127 9.18394 7.95612 9.18394 7.99996C9.18394 8.04381 9.17529 8.08722 9.15848 8.12772C9.14168 8.16822 9.11705 8.205 9.08601 8.23596L6.02868 11.2926C5.84108 11.4801 5.73566 11.7345 5.7356 11.9997C5.73553 12.265 5.84084 12.5194 6.02835 12.707C6.21585 12.8946 6.4702 13 6.73544 13C7.00068 13.0001 7.25508 12.8948 7.44268 12.7073L10.5 9.64996C10.9368 9.21194 11.1821 8.61857 11.1821 7.99996C11.1821 7.38135 10.9368 6.78799 10.5 6.34996Z" fill="white"/>
</svg>
