<svg width="16" height="15" viewBox="0 0 16 15" fill="none" xmlns="http://www.w3.org/2000/svg">
<path d="M6.78973 0.555011C7.15743 -0.185045 8.21314 -0.185047 8.58084 0.555009L10.1898 3.79333C10.3354 4.0864 10.6152 4.28968 10.9389 4.3376L14.516 4.86712C15.3334 4.98814 15.6596 5.99217 15.0694 6.57056L12.4868 9.10149C12.2531 9.33053 12.1462 9.65944 12.2007 9.98212L12.8024 13.5477C12.9399 14.3626 12.0859 14.9831 11.3534 14.6005L8.14826 12.9264C7.8582 12.7749 7.51237 12.7749 7.22231 12.9264L4.01718 14.6005C3.28471 14.9831 2.43063 14.3626 2.56815 13.5477L3.1699 9.98212C3.22436 9.65944 3.11749 9.33053 2.88377 9.10149L0.301137 6.57056C-0.289073 5.99217 0.0371565 4.98814 0.854617 4.86712L4.43165 4.3376C4.75536 4.28968 5.03515 4.0864 5.18076 3.79333L6.78973 0.555011Z" fill="#FEA500"/>
</svg>
