<svg width="10" height="15" viewBox="0 0 10 15" fill="none" xmlns="http://www.w3.org/2000/svg">
<path d="M6.91199 0.530875C7.28797 -0.177038 8.30233 -0.177037 8.67831 0.530877L10.4121 3.79525C10.5566 4.0674 10.8186 4.2577 11.1221 4.31107L14.7624 4.95124C15.5519 5.09007 15.8653 6.05478 15.3082 6.63112L12.7394 9.28878C12.5252 9.51035 12.4252 9.81827 12.4682 10.1234L12.9843 13.7834C13.0962 14.5771 12.2756 15.1734 11.5553 14.8216L8.23393 13.1998C7.95703 13.0646 7.63326 13.0646 7.35636 13.1998L4.03496 14.8216C3.31468 15.1734 2.49405 14.5771 2.60597 13.7834L3.12207 10.1234C3.1651 9.81827 3.06505 9.51035 2.85089 9.28878L0.282049 6.63112C-0.27503 6.05478 0.0384232 5.09007 0.827875 4.95124L4.46825 4.31107C4.77174 4.2577 5.03367 4.0674 5.17821 3.79525L6.91199 0.530875Z" fill="#FEA500"/>
</svg>
