<svg width="33" height="33" viewBox="0 0 33 33" fill="none" xmlns="http://www.w3.org/2000/svg">
<g clip-path="url(#clip0_25_169)">
<path d="M0.899196 4.50458C0 6.26935 0 8.57957 0 13.2V19.8C0 24.4204 0 26.7307 0.899196 28.4954C1.69015 30.0478 2.95224 31.3098 4.50458 32.1008C6.26935 33 8.57957 33 13.2 33H16.3587V20.4905H11.6791V15.2219H16.3587V11.2063C16.3587 6.63829 19.1102 4.11506 23.3202 4.11506C25.3366 4.11506 27.4458 4.47104 27.4458 4.47104V8.95648H25.1217C22.8322 8.95648 22.1182 10.3614 22.1182 11.8028V15.2219H27.2298L26.4127 20.4905H22.1182V32.9945C25.2488 32.9698 27.054 32.8352 28.4954 32.1008C30.0478 31.3098 31.3098 30.0478 32.1008 28.4954C33 26.7307 33 24.4204 33 19.8V13.2C33 8.57957 33 6.26935 32.1008 4.50458C31.3098 2.95224 30.0478 1.69015 28.4954 0.899196C26.7307 0 24.4204 0 19.8 0H13.2C8.57957 0 6.26935 0 4.50458 0.899196C2.95224 1.69015 1.69015 2.95224 0.899196 4.50458Z" fill="black"/>
</g>
<defs>
<clipPath id="clip0_25_169">
<rect width="33" height="33" fill="white"/>
</clipPath>
</defs>
</svg>
