<svg width="257" height="164" viewBox="0 0 257 164" fill="none" xmlns="http://www.w3.org/2000/svg">
<path d="M96.2091 87.2618C93.7316 86.6785 91.5099 86.2056 89.3361 85.6223C82.7509 83.841 76.1656 82.0438 69.5803 80.2152C64.9131 78.9225 60.2618 77.551 55.5946 76.2741C51.1831 75.0602 46.7556 73.9095 42.3281 72.7429C39.3392 71.9547 36.3503 71.1507 33.3613 70.3625C32.0986 70.0314 32.0347 69.1329 32.3703 68.1713C34.3683 62.5749 36.5261 57.0417 39.6269 51.934C41.2253 49.3172 42.7757 46.6845 44.3741 44.0834C45.2052 42.7435 45.9405 42.6331 47.1872 43.5632C57.8643 51.5084 68.5254 59.4536 79.2185 67.383C85.4521 72.002 91.7017 76.5894 97.9833 81.1295C99.1501 81.9808 99.4538 82.7532 98.5907 83.9671C98.0792 84.6765 97.8235 85.5435 97.328 86.2687C97.0243 86.7101 96.4968 86.9938 96.1771 87.2618H96.2091Z" fill="black"/>
<path d="M109.907 71.024C109.699 71.3551 109.571 71.8123 109.252 72.0645C108.341 72.8369 107.413 73.6725 106.359 74.2242C105.911 74.4607 104.952 74.2715 104.536 73.9247C101.196 71.1502 97.9192 68.2968 94.6425 65.4593C87.306 59.0747 79.9855 52.6902 72.649 46.3057C67.2305 41.5764 61.7961 36.8629 56.3616 32.1336C55.5145 31.4084 55.3227 30.6833 56.2018 29.7847C62.6432 23.274 69.8518 17.7408 77.8437 13.1849C78.9146 12.5701 79.7297 12.6332 80.3851 13.9258C85.2601 23.4475 90.1831 32.9533 95.122 42.4276C99.8052 51.429 104.536 60.3989 109.236 69.3846C109.491 69.8575 109.651 70.3935 109.907 71.0083V71.024Z" fill="black"/>
<path d="M124.532 41.2933C124.532 48.7656 124.532 56.2379 124.532 63.7259C124.532 65.9329 124.213 66.3112 121.943 66.7053C119.114 67.2098 118.906 67.0364 117.995 64.8609C115.421 58.7286 112.752 52.6278 110.179 46.4955C108.229 41.8766 106.391 37.2104 104.457 32.5914C102.283 27.4208 100.061 22.2658 97.8714 17.0952C96.5607 13.9738 95.314 10.8367 94.0034 7.71541C93.4599 6.40697 93.8435 5.76064 95.2021 5.28771C103.61 2.43438 112.257 0.810655 121.096 0.0224412C122.566 -0.103673 123.174 0.27467 123.222 1.8511C123.541 14.9985 123.941 28.1459 124.308 41.2776C124.388 41.2776 124.452 41.2776 124.532 41.2776V41.2933Z" fill="black"/>
<path d="M152.408 74.7133C151.321 73.8936 150.33 73.1211 149.307 72.3802C147.836 71.3083 148.588 70.2836 149.227 69.1328C153.047 62.0861 156.819 55.0238 160.575 47.9456C164.475 40.5679 168.327 33.1587 172.228 25.781C174.082 22.2656 175.984 18.7817 177.886 15.2978C178.973 13.3272 179.276 13.1065 181.13 14.3834C185.83 17.6309 190.449 20.9571 194.972 24.441C197.146 26.1121 198.968 28.1929 200.998 30.0374C202.021 30.9675 201.973 31.7084 200.95 32.5912C195.755 37.0682 190.577 41.5611 185.414 46.0696C179.916 50.862 174.433 55.6858 168.935 60.494C163.932 64.8764 158.929 69.2431 153.926 73.6098C153.479 74.0039 152.983 74.3192 152.424 74.7291L152.408 74.7133Z" fill="black"/>
<path d="M161.79 87.1197C161.518 86.9305 161.023 86.6941 160.719 86.3C160.304 85.7325 160.064 85.0388 159.68 84.4398C158.753 82.9579 159.249 82.1067 160.655 81.1293C165.339 77.8661 169.894 74.4137 174.529 71.0874C179.436 67.5562 184.407 64.1196 189.33 60.5884C194.557 56.8365 199.735 53.0216 204.946 49.2539C206.768 47.9297 208.606 46.637 210.445 45.3444C212.091 44.1778 213.034 44.367 214.025 46.1483C215.511 48.8125 217.094 51.4294 218.372 54.1881C220.53 58.7913 222.48 63.5048 224.51 68.171C224.974 69.243 224.398 69.8421 223.423 70.1416C221.265 70.7879 219.092 71.387 216.918 72.0333C213.386 73.0737 209.869 74.193 206.321 75.1704C202.82 76.132 199.288 76.9202 195.787 77.8661C191.44 79.0326 187.092 80.2938 182.761 81.5234C179.324 82.5008 175.904 83.5097 172.451 84.4555C169.271 85.3226 166.058 86.1266 162.861 86.9463C162.589 87.0094 162.318 87.0409 161.774 87.1355L161.79 87.1197Z" fill="black"/>
<path d="M134.762 61.1247C135.145 55.9697 135.577 50.6887 135.913 45.4234C136.344 38.5187 136.696 31.5982 137.111 24.6934C137.543 17.4576 137.99 10.2218 138.486 2.98598C138.646 0.747455 138.933 0.510991 141.123 0.684398C147.597 1.17309 153.846 2.76528 160 4.73582C160.991 5.0511 162.03 5.30333 163.005 5.68168C164.14 6.12308 164.619 6.78517 164.044 8.10937C161.311 14.3363 158.641 20.5947 155.988 26.8689C153.974 31.6297 152.056 36.4378 150.042 41.1986C147.581 47.0156 145.039 52.8011 142.562 58.6181C141.603 60.8724 140.612 63.1267 139.797 65.4283C139.173 67.1781 137.895 66.9259 136.552 66.7998C135.241 66.6737 134.746 65.917 134.778 64.6874C134.794 63.5366 134.778 62.4016 134.778 61.1404L134.762 61.1247Z" fill="black"/>
<path d="M60.7253 99.59C50.4319 99.59 40.1543 99.59 29.8609 99.59C27.3834 99.59 27.0957 99.2905 27.2715 96.8155C27.5113 93.505 27.6711 90.1787 28.0547 86.8682C28.3264 84.5194 28.71 84.3775 31.0916 84.8031C38.0925 86.0643 45.1253 87.2624 52.1101 88.5866C58.7753 89.8477 65.4086 91.298 72.0738 92.5749C77.2205 93.5681 82.3992 94.3878 87.5619 95.3179C89.512 95.6647 91.4779 96.0115 93.38 96.5633C93.9075 96.7209 94.4989 97.5564 94.5628 98.1397C94.6107 98.5023 93.7796 99.1644 93.2362 99.3378C92.5329 99.5743 91.7017 99.4797 90.9345 99.4797C80.8648 99.4797 70.7951 99.4797 60.7253 99.4797C60.7253 99.5112 60.7253 99.5427 60.7253 99.5743V99.59Z" fill="black"/>
<path d="M229.721 95.1442C229.721 95.5226 229.689 95.9167 229.721 96.295C229.865 97.7769 229.209 98.2971 227.707 98.3286C214.792 98.5178 201.877 98.7858 188.962 98.9907C181.386 99.1168 173.81 99.1641 166.234 99.2587C165.674 99.2587 165.083 99.3691 164.587 99.1957C164.14 99.0538 163.516 98.6281 163.5 98.2971C163.469 97.9187 163.964 97.3828 164.364 97.1463C164.875 96.8625 165.514 96.768 166.106 96.6734C171.652 95.7748 177.199 94.9078 182.729 94.0092C186.805 93.3471 190.881 92.7008 194.956 91.9599C200.359 90.9825 205.745 89.879 211.148 88.9173C216.119 88.0345 221.106 87.2936 226.077 86.4581C226.508 86.3951 226.908 86.0167 227.307 86.0482C227.707 86.0798 228.378 86.3793 228.426 86.6631C229.018 89.4533 229.497 92.2751 230.009 95.0812C229.897 95.0969 229.801 95.1127 229.689 95.1442H229.721Z" fill="black"/>
<path d="M11.9112 162.536C9.19395 162.536 6.49271 162.52 3.77548 162.536C2.52876 162.536 1.95335 162.063 1.96933 160.802C2.03326 155.505 1.42588 156.325 6.38082 156.278C10.4726 156.23 14.5645 156.293 18.6563 156.215C20.7821 156.167 22.1088 154.843 22.876 153.03C23.5633 151.407 23.0039 149.767 21.6772 148.932C20.3026 148.08 18.5444 147.655 16.8981 147.465C14.1009 147.15 11.2558 147.355 8.47469 147.008C2.40089 146.236 -1.29134 138.953 0.418912 133.814C2.16113 128.611 5.69353 125.916 11.3997 125.774C16.3706 125.648 21.3575 125.774 26.3285 125.727C27.6711 125.727 28.2785 126.247 28.2145 127.571C28.1826 128.548 28.1506 129.541 28.2145 130.519C28.3264 131.969 27.6551 132.411 26.2485 132.395C21.2776 132.348 16.2907 132.332 11.3198 132.395C8.10706 132.426 6.68451 134.019 6.86033 137.156C6.9882 139.268 8.52264 140.813 10.7124 140.86C13.3177 140.923 15.9071 140.844 18.5124 140.923C24.2026 141.097 28.2625 144.518 29.2535 149.026C30.4522 154.481 28.742 159.084 22.9079 161.811C21.9969 162.237 20.894 162.426 19.871 162.457C17.2178 162.552 14.5645 162.489 11.9112 162.489C11.9112 162.489 11.9112 162.52 11.9112 162.536Z" fill="black"/>
<path d="M110.562 135.816C110.658 136.383 110.818 136.935 110.818 137.503C110.834 145.196 110.834 152.889 110.818 160.582C110.818 161.118 110.514 161.669 110.339 162.205C109.843 161.843 109.252 161.559 108.884 161.102C107.254 158.958 106.87 158.753 104.632 160.377C100.637 163.261 96.3369 163.766 91.7336 162.379C88.2811 161.338 85.8676 159.005 84.2213 155.884C82.3352 152.305 82.2553 148.412 83.1664 144.723C84.2692 140.246 87.2422 137.03 91.7496 135.248C96.8164 133.231 101.18 134.618 105.208 137.645C106.598 138.701 107.525 138.606 108.453 137.235C108.868 136.604 109.316 135.989 109.747 135.374C110.019 135.532 110.275 135.674 110.546 135.832L110.562 135.816ZM104.537 148.932C104.68 148.884 104.808 148.821 104.952 148.774C104.329 147.198 103.865 145.511 103.034 144.045C101.643 141.617 97.3279 139.804 94.1951 140.923C88.5848 142.926 88.3291 149.405 90.0234 152.999C90.6307 154.276 91.8934 155.616 93.1881 156.168C99.4058 158.847 104.505 154.276 104.553 148.932H104.537Z" fill="black"/>
<path d="M256.925 154.181C256.925 156.419 256.909 158.658 256.925 160.896C256.925 161.953 256.557 162.457 255.406 162.567C250.643 163.025 250.643 163.056 250.659 158.28C250.659 154.89 250.787 151.501 250.595 148.143C250.515 146.63 250.036 145.006 249.285 143.682C247.974 141.428 245.257 140.671 242.572 141.443C240.19 142.121 238.432 144.486 238.4 147.323C238.336 151.627 238.384 155.946 238.368 160.25C238.368 162.363 238.256 162.457 236.146 162.567C233.44 162.715 232.081 161.469 232.07 158.831C232.07 148.19 232.07 137.55 232.07 126.924C232.07 124.292 232.23 124.166 234.899 124.15C237.222 124.15 238.379 125.274 238.368 127.523C238.368 129.762 238.336 132.001 238.4 134.239C238.432 135.863 239.087 136.273 240.638 135.737C248.422 133.072 255.662 138.101 256.653 145.715C257.021 148.506 256.717 151.375 256.717 154.212C256.781 154.212 256.861 154.212 256.925 154.212V154.181Z" fill="black"/>
<path d="M170.597 148.458C170.421 144.47 171.86 140.592 175.408 137.66C179.804 134.018 186.101 132.946 191.408 136.225C192.527 136.919 193.582 137.707 194.621 138.511C195.596 139.268 195.756 140.103 194.861 141.16C191.168 145.495 187.508 149.862 183.912 154.276C183.464 154.812 183.448 155.694 183.224 156.404C183.976 156.561 184.727 156.892 185.446 156.845C187.316 156.703 189.01 156.057 190.209 154.528C190.976 153.55 191.776 153.692 192.575 154.48C192.974 154.859 193.374 155.237 193.758 155.631C195.899 157.807 195.851 158.232 193.358 160.14C189.874 162.804 186.054 163.781 181.706 162.725C174.529 160.991 170.661 156.246 170.613 148.443L170.597 148.458ZM176.943 149.01C176.943 149.168 176.863 149.578 176.959 149.925C177.199 150.713 177.534 151.469 177.822 152.226C178.557 151.753 179.484 151.438 180.012 150.792C182.01 148.332 183.896 145.794 185.734 143.209C186.117 142.673 186.421 141.664 186.165 141.238C185.862 140.766 184.871 140.466 184.199 140.513C180.667 140.766 176.575 143.461 176.943 148.979V149.01Z" fill="black"/>
<path d="M63.2827 148.238C62.8671 154.78 60.3896 159.462 54.9232 161.89C48.258 164.838 40.3461 162.662 36.6698 155.631C33.3133 149.215 35.1034 142.326 39.2592 138.291C46.8674 130.913 59.5585 134.287 62.2597 143.808C62.7392 145.464 63.0429 147.166 63.2827 148.222V148.238ZM49.0732 156.94C53.5007 157.019 57.033 153.472 56.9691 148.648C56.9212 144.423 53.7884 140.561 49.1211 140.561C44.5178 140.561 41.401 143.666 41.2572 148.711C41.1453 152.983 44.2461 156.908 49.0732 156.94Z" fill="black"/>
<path d="M159.041 147.576C159.041 151.879 158.993 156.199 159.073 160.502C159.105 162.079 158.402 162.615 156.931 162.693C152.967 162.914 152.663 162.662 152.663 158.815C152.663 151.454 152.663 144.092 152.663 136.714C152.663 136.005 152.616 135.295 152.6 134.586C152.568 132.994 151.688 132.379 150.154 132.379C147.725 132.395 145.279 132.331 142.85 132.379C141.395 132.41 140.66 131.922 140.772 130.392C140.852 129.415 140.82 128.422 140.788 127.445C140.74 126.168 141.363 125.71 142.61 125.71C151.241 125.726 159.872 125.742 168.503 125.71C169.99 125.71 170.549 126.341 170.629 127.76C170.853 132.268 170.805 132.347 166.298 132.347C164.699 132.347 163.085 132.331 161.486 132.347C159.393 132.395 159.073 132.71 159.073 134.759C159.073 139.016 159.073 143.272 159.073 147.528L159.041 147.576Z" fill="black"/>
<path d="M213.801 134.239C218.708 134.365 222.113 136.068 224.83 139.126C225.182 139.52 225.517 140.45 225.309 140.702C224.287 141.963 223.104 143.098 221.889 144.186C221.761 144.312 220.978 143.824 220.578 143.524C219.715 142.862 218.98 142.011 218.037 141.475C215.096 139.804 212.267 140.229 209.773 142.405C207.136 144.706 206.369 147.67 207.04 151.028C208.383 157.617 216.758 158.453 220.083 154.732C221.074 153.629 221.953 153.818 222.864 154.811C223.311 155.3 223.791 155.757 224.255 156.214C225.661 157.602 225.661 158.279 224.159 159.541C219.667 163.308 214.489 164.254 209.118 162.142C203.795 160.045 200.79 155.663 200.375 150.129C199.911 143.997 203.716 137.171 210.317 135.074C211.659 134.649 213.066 134.397 213.769 134.223L213.801 134.239Z" fill="black"/>
<path d="M69.5483 143.477C69.5483 137.692 69.5643 131.906 69.5483 126.121C69.5483 124.765 70.0279 124.15 71.4664 124.103C75.9898 123.961 75.9898 123.93 75.9898 128.344C75.9898 138.937 75.9898 149.515 75.9898 160.109C75.9898 162.363 75.8139 162.552 73.5922 162.631C70.9602 162.736 69.6389 161.48 69.6283 158.863C69.6283 153.74 69.6283 148.601 69.6283 143.477C69.6123 143.477 69.5803 143.477 69.5643 143.477H69.5483Z" fill="black"/>
<path d="M119.13 149.168C119.13 145.195 119.114 141.207 119.146 137.234C119.146 136.761 119.465 136.273 119.625 135.8C120.041 136.099 120.568 136.32 120.872 136.698C122.55 138.763 122.534 138.779 124.788 137.36C128.352 135.122 132.332 135.169 136.328 135.406C136.696 135.421 137.031 136.052 137.367 136.415C137.431 136.478 137.399 136.619 137.399 136.73C137.399 142.326 137.943 141.428 133.068 141.491C128.944 141.554 126.802 142.689 125.651 145.715C125.347 146.504 125.252 147.418 125.236 148.269C125.188 152.415 125.172 156.546 125.236 160.692C125.252 162.189 124.628 162.709 123.174 162.741C119.114 162.82 119.114 162.851 119.114 158.8C119.114 155.584 119.114 152.368 119.114 149.152L119.13 149.168Z" fill="black"/>
</svg>
