<svg width="33" height="33" viewBox="0 0 33 33" fill="none" xmlns="http://www.w3.org/2000/svg">
<g clip-path="url(#clip0_25_170)">
<rect width="33" height="33" fill="white"/>
<path d="M20.5005 16.5C20.5005 14.2907 18.7095 12.5 16.5006 12.5C14.2914 12.5 12.5007 14.2907 12.5007 16.5C12.5007 18.709 14.2914 20.5 16.5006 20.5C18.7095 20.5 20.5005 18.709 20.5005 16.5Z" fill="black"/>
<path fill-rule="evenodd" clip-rule="evenodd" d="M16.1007 6.66238C15.858 6.66227 15.6332 6.66217 15.4241 6.6625V6.6595C13.1877 6.662 12.7587 6.677 11.6518 6.727C10.4818 6.78075 9.84656 6.97575 9.42357 7.14075C8.86359 7.35875 8.4636 7.61875 8.04361 8.03875C7.62362 8.45875 7.36313 8.85875 7.14564 9.41875C6.98139 9.84175 6.7859 10.4768 6.7324 11.6467C6.6749 12.9117 6.6634 13.2897 6.6634 16.4942C6.6634 19.6987 6.6749 20.0787 6.7324 21.3437C6.78565 22.5138 6.98139 23.1487 7.14564 23.5712C7.36363 24.1315 7.62362 24.5305 8.04361 24.9505C8.4636 25.3705 8.86359 25.6305 9.42357 25.848C9.84681 26.0122 10.4818 26.2077 11.6518 26.2617C12.9167 26.3192 13.2965 26.3317 16.5006 26.3317C19.7045 26.3317 20.0845 26.3192 21.3495 26.2617C22.5194 26.2082 23.1549 26.0132 23.5774 25.8482C24.1376 25.6307 24.5364 25.3707 24.9564 24.9507C25.3763 24.531 25.6368 24.1322 25.8543 23.5722C26.0186 23.1497 26.2141 22.5147 26.2676 21.3447C26.3251 20.0797 26.3376 19.6997 26.3376 16.4972C26.3376 13.2947 26.3251 12.9147 26.2676 11.6497C26.2143 10.4797 26.0186 9.84475 25.8543 9.42225C25.6363 8.86225 25.3763 8.46225 24.9564 8.04225C24.5366 7.62225 24.1374 7.36225 23.5774 7.14475C23.1544 6.9805 22.5194 6.785 21.3495 6.7315C20.0842 6.674 19.7045 6.6625 16.5006 6.6625C16.3621 6.6625 16.2289 6.66244 16.1007 6.66238ZM21.466 10.0945C21.466 9.29925 22.1109 8.655 22.9059 8.655C23.7009 8.655 24.3459 9.2995 24.3459 10.0945C24.3459 10.8895 23.7009 11.5345 22.9059 11.5345C22.1109 11.5345 21.466 10.8895 21.466 10.0945ZM10.3383 16.5C10.3383 13.0967 13.0975 10.3375 16.5006 10.3375C19.9038 10.3375 22.6619 13.0967 22.6619 16.5C22.6619 19.9032 19.9038 22.6612 16.5006 22.6612C13.0975 22.6612 10.3383 19.9032 10.3383 16.5Z" fill="black"/>
<path fill-rule="evenodd" clip-rule="evenodd" d="M0.899196 4.50471C0 6.26954 0 8.57983 0 13.2004V19.8006C0 24.4212 0 26.7315 0.899196 28.4963C1.69015 30.0487 2.95224 31.3108 4.50458 32.1018C6.26935 33.001 8.57957 33.001 13.2 33.001H19.8C24.4204 33.001 26.7307 33.001 28.4954 32.1018C30.0478 31.3108 31.3098 30.0487 32.1008 28.4963C33 26.7315 33 24.4212 33 19.8006V13.2004C33 8.57983 33 6.26954 32.1008 4.50471C31.3098 2.95233 30.0478 1.6902 28.4954 0.899223C26.7307 0 24.4204 0 19.8 0H13.2C8.57957 0 6.26935 0 4.50458 0.899223C2.95224 1.6902 1.69015 2.95233 0.899196 4.50471ZM11.5528 4.5725C12.8327 4.51425 13.2417 4.5 16.5006 4.5H16.4969C19.7568 4.5 20.1642 4.51425 21.4442 4.5725C22.7217 4.631 23.5941 4.83325 24.3591 5.13C25.1491 5.43625 25.8166 5.84625 26.4841 6.51375C27.1515 7.18075 27.5615 7.85025 27.869 8.6395C28.164 9.4025 28.3665 10.2745 28.4265 11.552C28.484 12.832 28.499 13.241 28.499 16.5C28.499 19.759 28.484 20.167 28.4265 21.447C28.3665 22.724 28.164 23.5962 27.869 24.3595C27.5615 25.1485 27.1515 25.818 26.4841 26.485C25.8173 27.1525 25.1488 27.5635 24.3599 27.87C23.5964 28.1667 22.7234 28.369 21.446 28.4275C20.166 28.4857 19.7583 28.5 16.4991 28.5C13.2405 28.5 12.8317 28.4857 11.5518 28.4275C10.2745 28.369 9.40232 28.1667 8.63884 27.87C7.85012 27.5635 7.18064 27.1525 6.51391 26.485C5.84668 25.818 5.43669 25.1485 5.12995 24.3592C4.83346 23.5962 4.63122 22.7242 4.57247 21.4467C4.51447 20.1667 4.49997 19.759 4.49997 16.5C4.49997 13.241 4.51497 12.8317 4.57222 11.5517C4.62972 10.2747 4.83221 9.4025 5.1297 8.63925C5.43719 7.85025 5.84718 7.18075 6.51466 6.51375C7.18164 5.8465 7.85112 5.4365 8.64034 5.13C9.40332 4.83325 10.2753 4.631 11.5528 4.5725Z" fill="black"/>
</g>
<defs>
<clipPath id="clip0_25_170">
<rect width="33" height="33" fill="white"/>
</clipPath>
</defs>
</svg>
