<svg width="80" height="52" viewBox="0 0 80 52" fill="none" xmlns="http://www.w3.org/2000/svg">
<g clip-path="url(#clip0_25_11)">
<path d="M29.9564 27.7952C29.185 27.6094 28.4932 27.4587 27.8163 27.2729C25.7658 26.7055 23.7153 26.133 21.6648 25.5505C20.2115 25.1387 18.7632 24.7018 17.3099 24.2951C15.9363 23.9084 14.5577 23.5418 13.179 23.1702C12.2483 22.9191 11.3176 22.663 10.3869 22.4119C9.99377 22.3064 9.97386 22.0202 10.0784 21.7139C10.7005 19.9312 11.3724 18.1685 12.3379 16.5415C12.8356 15.7079 13.3184 14.8693 13.8161 14.0407C14.0749 13.6138 14.3038 13.5787 14.692 13.875C18.0167 16.4059 21.3363 18.9369 24.6659 21.4628C26.6069 22.9342 28.5529 24.3955 30.5089 25.8417C30.8722 26.1129 30.9668 26.359 30.698 26.7457C30.5387 26.9716 30.4591 27.2478 30.3048 27.4788C30.2103 27.6194 30.046 27.7098 29.9465 27.7952H29.9564Z" fill="white"/>
<path d="M34.2217 22.6228C34.157 22.7282 34.1172 22.8739 34.0177 22.9542C33.734 23.2003 33.4453 23.4664 33.1168 23.6422C32.9775 23.7175 32.6789 23.6573 32.5495 23.5468C31.5093 22.663 30.489 21.754 29.4687 20.8501C27.1843 18.8163 24.9048 16.7825 22.6204 14.7487C20.9332 13.2422 19.241 11.7407 17.5488 10.2342C17.2851 10.0032 17.2253 9.77218 17.4991 9.48595C19.5048 7.41197 21.7494 5.64935 24.2379 4.19807C24.5714 4.00222 24.8252 4.02231 25.0292 4.43409C26.5472 7.46721 28.0801 10.4953 29.618 13.5134C31.0763 16.3808 32.5495 19.2381 34.0127 22.1005C34.0923 22.2512 34.1421 22.4219 34.2217 22.6178V22.6228Z" fill="white"/>
<path d="M38.7756 13.1518C38.7756 15.5321 38.7756 17.9124 38.7756 20.2978C38.7756 21.0008 38.6761 21.1213 37.9693 21.2469C37.0884 21.4076 37.0237 21.3523 36.74 20.6593C35.9387 18.7059 35.1076 16.7625 34.3063 14.809C33.6991 13.3376 33.1267 11.8512 32.5245 10.3798C31.8477 8.73272 31.1559 7.09061 30.474 5.44348C30.0659 4.44918 29.6777 3.44986 29.2696 2.45555C29.1004 2.03875 29.2198 1.83286 29.6429 1.68221C32.2607 0.773276 34.9533 0.256038 37.7056 0.00495142C38.1634 -0.0352224 38.3526 0.0852991 38.3675 0.587472C38.467 4.77559 38.5915 8.96372 38.7059 13.1468C38.7308 13.1468 38.7507 13.1468 38.7756 13.1468V13.1518Z" fill="white"/>
<path d="M47.4556 23.7978C47.1172 23.5367 46.8086 23.2906 46.4901 23.0546C46.0322 22.7131 46.2661 22.3867 46.4652 22.0201C47.6547 19.7754 48.8292 17.5257 49.9988 15.2709C51.2132 12.9207 52.4127 10.5605 53.627 8.21035C54.2044 7.0905 54.7966 5.9807 55.3889 4.8709C55.7273 4.24318 55.8219 4.17288 56.3992 4.57964C57.8625 5.61412 59.3008 6.6737 60.7093 7.7835C61.3862 8.31581 61.9535 8.97867 62.5856 9.56622C62.9041 9.8625 62.8892 10.0985 62.5707 10.3797C60.9532 11.8059 59.3406 13.2371 57.7331 14.6733C56.021 16.1999 54.3139 17.7366 52.6018 19.2682C51.044 20.6642 49.4862 22.0553 47.9284 23.4463C47.789 23.5718 47.6348 23.6723 47.4606 23.8028L47.4556 23.7978Z" fill="white"/>
<path d="M50.377 27.75C50.2924 27.6897 50.1381 27.6144 50.0435 27.4888C49.9141 27.3081 49.8395 27.0871 49.72 26.8963C49.4314 26.4242 49.5856 26.1531 50.0236 25.8417C51.4819 24.8022 52.9003 23.7025 54.3436 22.6429C55.8716 21.518 57.4194 20.4233 58.9523 19.2984C60.5798 18.1032 62.1923 16.888 63.8148 15.6878C64.3822 15.2659 64.9546 14.8542 65.5269 14.4424C66.0395 14.0708 66.3332 14.131 66.6418 14.6985C67.1046 15.5472 67.5973 16.3808 67.9955 17.2596C68.6674 18.7259 69.2746 20.2274 69.9067 21.7138C70.051 22.0553 69.8718 22.2462 69.5682 22.3416C68.8963 22.5475 68.2195 22.7383 67.5426 22.9442C66.4427 23.2756 65.3477 23.6321 64.2429 23.9435C63.1529 24.2498 62.053 24.5009 60.963 24.8022C59.6093 25.1738 58.2555 25.5756 56.9068 25.9673C55.8367 26.2786 54.7717 26.6 53.6966 26.9013C52.7062 27.1775 51.7058 27.4336 50.7104 27.6947C50.6258 27.7148 50.5412 27.7249 50.372 27.755L50.377 27.75Z" fill="white"/>
<path d="M41.9609 19.4691C42.0804 17.827 42.2148 16.1447 42.3193 14.4675C42.4537 12.268 42.5632 10.0634 42.6926 7.86392C42.8269 5.55895 42.9663 3.25397 43.1206 0.948999C43.1703 0.235914 43.2599 0.160588 43.9418 0.215827C45.9575 0.3715 47.9035 0.878695 49.8196 1.50641C50.1282 1.60685 50.4517 1.68719 50.7553 1.80771C51.1086 1.94832 51.2579 2.15924 51.0788 2.58106C50.2277 4.56464 49.3965 6.55827 48.5704 8.55692C47.9433 10.0735 47.346 11.6051 46.7189 13.1217C45.9525 14.9747 45.1611 16.8177 44.3897 18.6707C44.0911 19.3888 43.7825 20.1069 43.5287 20.8401C43.3346 21.3975 42.9364 21.3171 42.5184 21.277C42.1102 21.2368 41.956 20.9957 41.9659 20.604C41.9709 20.2375 41.9659 19.8759 41.9659 19.4742L41.9609 19.4691Z" fill="white"/>
<path d="M18.9076 31.7223C15.7024 31.7223 12.5022 31.7223 9.29701 31.7223C8.52558 31.7223 8.436 31.6269 8.49074 30.8385C8.5654 29.7839 8.61517 28.7243 8.73461 27.6698C8.81922 26.9215 8.93867 26.8763 9.68024 27.0119C11.8602 27.4137 14.05 27.7953 16.225 28.2171C18.3004 28.6189 20.3658 29.0809 22.4412 29.4876C24.0438 29.804 25.6564 30.0651 27.2639 30.3614C27.8711 30.4719 28.4833 30.5824 29.0755 30.7581C29.2398 30.8083 29.4239 31.0745 29.4438 31.2603C29.4588 31.3758 29.2 31.5867 29.0307 31.6419C28.8118 31.7173 28.553 31.6871 28.3141 31.6871C25.1786 31.6871 22.0431 31.6871 18.9076 31.6871C18.9076 31.6972 18.9076 31.7072 18.9076 31.7173V31.7223Z" fill="white"/>
<path d="M71.5291 30.3061C71.5291 30.4266 71.5192 30.5522 71.5291 30.6727C71.5739 31.1447 71.3699 31.3104 70.9021 31.3205C66.8807 31.3807 62.8592 31.4661 58.8378 31.5314C56.4788 31.5716 54.1197 31.5866 51.7606 31.6168C51.5864 31.6168 51.4022 31.6519 51.248 31.5967C51.1086 31.5515 50.9145 31.4159 50.9095 31.3104C50.8996 31.1899 51.0538 31.0192 51.1783 30.9438C51.3375 30.8535 51.5366 30.8233 51.7208 30.7932C53.4478 30.507 55.1748 30.2308 56.8968 29.9445C58.166 29.7336 59.4351 29.5277 60.7042 29.2917C62.3864 28.9804 64.0637 28.6288 65.7459 28.3225C67.2937 28.0413 68.8466 27.8053 70.3944 27.5391C70.5288 27.519 70.6532 27.3985 70.7776 27.4086C70.9021 27.4186 71.1111 27.514 71.126 27.6044C71.3102 28.4932 71.4595 29.3921 71.6187 30.286C71.5839 30.291 71.554 30.296 71.5192 30.3061H71.5291Z" fill="white"/>
<path d="M3.70779 51.7741C2.8617 51.7741 2.02059 51.769 1.17451 51.7741C0.786303 51.7741 0.607132 51.6234 0.612109 51.2217C0.632017 49.5344 0.442892 49.7955 1.98576 49.7804C3.25986 49.7654 4.53397 49.7855 5.80808 49.7604C6.47002 49.7453 6.88311 49.3235 7.122 48.746C7.33601 48.2287 7.16182 47.7065 6.74873 47.4403C6.32071 47.1691 5.77324 47.0336 5.26061 46.9733C4.38964 46.8729 3.50374 46.9381 2.63774 46.8277C0.746488 46.5816 -0.403195 44.2616 0.129342 42.6245C0.671833 40.9673 1.77175 40.1086 3.54853 40.0634C5.09637 40.0232 6.64919 40.0634 8.19703 40.0483C8.61509 40.0483 8.80422 40.214 8.78431 40.6359C8.77436 40.9472 8.7644 41.2636 8.78431 41.5749C8.81915 42.0369 8.61012 42.1775 8.17214 42.1725C6.6243 42.1575 5.07148 42.1524 3.52364 42.1725C2.52327 42.1826 2.08032 42.6898 2.13507 43.6891C2.17488 44.362 2.65267 44.8541 3.33452 44.8692C4.14577 44.8893 4.95204 44.8642 5.76328 44.8893C7.53509 44.9445 8.79924 46.0342 9.10781 47.4704C9.48109 49.208 8.94855 50.6743 7.13195 51.5431C6.84827 51.6787 6.50486 51.7389 6.18633 51.749C5.36015 51.7791 4.53397 51.759 3.70779 51.759C3.70779 51.759 3.70779 51.769 3.70779 51.7741Z" fill="white"/>
<path d="M34.4258 43.2624C34.4556 43.4432 34.5054 43.6189 34.5054 43.7997C34.5104 46.2503 34.5104 48.7009 34.5054 51.1515C34.5054 51.3223 34.4108 51.498 34.3561 51.6688C34.2018 51.5533 34.0176 51.4629 33.9032 51.3172C33.3955 50.6343 33.2761 50.569 32.5793 51.0862C31.335 52.0052 29.9962 52.1659 28.5629 51.724C27.4878 51.3926 26.7363 50.6494 26.2237 49.6551C25.6364 48.5151 25.6115 47.2748 25.8952 46.0997C26.2386 44.6735 27.1643 43.6491 28.5678 43.0816C30.1456 42.4388 31.5043 42.8807 32.7585 43.8449C33.1915 44.1814 33.4801 44.1512 33.7688 43.7143C33.8982 43.5135 34.0376 43.3176 34.1719 43.1218C34.2565 43.172 34.3362 43.2172 34.4208 43.2674L34.4258 43.2624ZM32.5494 47.4405C32.5942 47.4254 32.634 47.4053 32.6788 47.3903C32.4847 46.8881 32.3404 46.3508 32.0816 45.8837C31.6486 45.1104 30.3048 44.5329 29.3293 44.8894C27.5824 45.5272 27.5028 47.5911 28.0303 48.7361C28.2195 49.1428 28.6126 49.5697 29.0158 49.7454C30.9518 50.5991 32.5395 49.1428 32.5544 47.4405H32.5494Z" fill="white"/>
<path d="M79.9999 49.1125C79.9999 49.8256 79.995 50.5387 79.9999 51.2518C79.9999 51.5882 79.8855 51.7489 79.5271 51.7841C78.044 51.9297 78.044 51.9398 78.049 50.4182C78.049 49.3385 78.0888 48.2588 78.0291 47.1892C78.0042 46.7071 77.8549 46.1899 77.621 45.7681C77.2128 45.05 76.3667 44.8089 75.5306 45.055C74.789 45.2709 74.2416 46.0242 74.2316 46.9281C74.2117 48.299 74.2267 49.675 74.2217 51.0459C74.2217 51.7188 74.1868 51.7489 73.5299 51.7841C72.6871 51.831 72.2641 51.4342 72.2607 50.5939C72.2607 47.2043 72.2607 43.8146 72.2607 40.43C72.2607 39.5913 72.3105 39.5512 73.1417 39.5461C73.865 39.5461 74.225 39.9044 74.2217 40.6208C74.2217 41.3339 74.2117 42.047 74.2316 42.76C74.2416 43.2773 74.4456 43.4079 74.9284 43.2371C77.3522 42.3884 79.6068 43.9904 79.9153 46.4159C80.0298 47.3047 79.9352 48.2187 79.9352 49.1226C79.9552 49.1226 79.98 49.1226 79.9999 49.1226V49.1125Z" fill="white"/>
<path d="M53.1193 47.2898C53.0646 46.0193 53.5125 44.784 54.6174 43.85C55.9861 42.6899 57.947 42.3485 59.5993 43.393C59.9477 43.6139 60.2762 43.865 60.5997 44.1211C60.9033 44.3622 60.9531 44.6283 60.6744 44.9648C59.5247 46.3458 58.385 47.7368 57.2651 49.1429C57.1258 49.3136 57.1208 49.5948 57.0511 49.8208C57.285 49.871 57.519 49.9765 57.7429 49.9614C58.3252 49.9162 58.8528 49.7103 59.2261 49.2232C59.465 48.9119 59.7138 48.9571 59.9627 49.2081C60.0871 49.3287 60.2115 49.4492 60.331 49.5747C60.9979 50.2677 60.9829 50.4033 60.2065 51.0109C59.1216 51.8596 57.9321 52.171 56.5783 51.8345C54.3437 51.2821 53.1392 49.7706 53.1243 47.2848L53.1193 47.2898ZM55.0952 47.4656C55.0952 47.5158 55.0703 47.6464 55.1002 47.7569C55.1748 48.008 55.2793 48.249 55.3689 48.49C55.5979 48.3394 55.8865 48.239 56.0508 48.0331C56.6729 47.2497 57.2602 46.4412 57.8325 45.6176C57.952 45.4469 58.0465 45.1255 57.9669 44.9899C57.8723 44.8392 57.5638 44.7438 57.3547 44.7589C56.2548 44.8392 54.9807 45.698 55.0952 47.4556V47.4656Z" fill="white"/>
<path d="M19.7037 47.2193C19.5743 49.3034 18.8029 50.7948 17.1008 51.5682C15.0254 52.5072 12.5618 51.8142 11.4171 49.5745C10.3719 47.5307 10.9293 45.3362 12.2233 44.0506C14.5924 41.7005 18.5441 42.7751 19.3852 45.8082C19.5345 46.3355 19.6291 46.8779 19.7037 47.2143V47.2193ZM15.2792 49.9913C16.6578 50.0164 17.7578 48.8866 17.7378 47.3499C17.7229 46.0041 16.7474 44.7738 15.2941 44.7738C13.8608 44.7738 12.8903 45.763 12.8455 47.37C12.8106 48.7309 13.7762 49.9813 15.2792 49.9913Z" fill="white"/>
<path d="M49.5209 47.0086C49.5209 48.3795 49.506 49.7555 49.5308 51.1264C49.5408 51.6286 49.3218 51.7993 48.8639 51.8244C47.6296 51.8947 47.5351 51.8144 47.5351 50.5891C47.5351 48.2439 47.5351 45.8988 47.5351 43.5486C47.5351 43.3226 47.5201 43.0967 47.5152 42.8707C47.5052 42.3635 47.2315 42.1676 46.7537 42.1676C45.9972 42.1727 45.2357 42.1526 44.4792 42.1676C44.0263 42.1777 43.7974 42.022 43.8322 41.5349C43.8571 41.2236 43.8471 40.9072 43.8372 40.5958C43.8222 40.1891 44.0163 40.0435 44.4046 40.0435C47.0921 40.0485 49.7797 40.0535 52.4673 40.0435C52.9301 40.0435 53.1043 40.2443 53.1292 40.6963C53.1989 42.1325 53.1839 42.1576 51.7804 42.1576C51.2827 42.1576 50.7801 42.1526 50.2824 42.1576C49.6304 42.1727 49.5308 42.2731 49.5308 42.9259C49.5308 44.2818 49.5308 45.6377 49.5308 46.9935L49.5209 47.0086Z" fill="white"/>
<path d="M66.572 42.7601C68.0999 42.8003 69.16 43.3427 70.0061 44.3169C70.1156 44.4424 70.2201 44.7387 70.1554 44.8191C69.8369 45.2208 69.4686 45.5824 69.0904 45.9289C69.0506 45.969 68.8067 45.8134 68.6823 45.7179C68.4135 45.507 68.1846 45.2359 67.8909 45.0651C66.9751 44.5328 66.0942 44.6684 65.3178 45.3614C64.4966 46.0946 64.2577 47.0387 64.4667 48.1083C64.8848 50.2074 67.4928 50.4735 68.528 49.2884C68.8365 48.9369 69.1103 48.9971 69.394 49.3135C69.5333 49.4692 69.6826 49.6148 69.827 49.7604C70.2649 50.2023 70.2649 50.4183 69.7971 50.82C68.3986 52.0202 66.786 52.3215 65.1138 51.6486C63.4564 50.9807 62.5207 49.5847 62.3913 47.8221C62.247 45.8686 63.4315 43.6942 65.487 43.0263C65.9051 42.8907 66.3431 42.8104 66.5621 42.7551L66.572 42.7601Z" fill="white"/>
<path d="M21.6548 45.7029C21.6548 43.8599 21.6598 42.0169 21.6548 40.1739C21.6548 39.7421 21.8041 39.5462 22.252 39.5312C23.6605 39.486 23.6605 39.4759 23.6605 40.882C23.6605 44.2566 23.6605 47.6262 23.6605 51.0008C23.6605 51.7189 23.6058 51.7792 22.914 51.8043C22.0944 51.8377 21.683 51.4377 21.6797 50.6041C21.6797 48.972 21.6797 47.3349 21.6797 45.7029C21.6747 45.7029 21.6647 45.7029 21.6598 45.7029H21.6548Z" fill="white"/>
<path d="M37.0934 47.5157C37.0934 46.2502 37.0884 44.9797 37.0983 43.7142C37.0983 43.5636 37.1979 43.4079 37.2476 43.2573C37.377 43.3527 37.5413 43.423 37.6358 43.5435C38.1584 44.2014 38.1535 44.2064 38.8552 43.7544C39.9651 43.0413 41.2043 43.0564 42.4486 43.1317C42.5631 43.1367 42.6676 43.3376 42.7721 43.4531C42.792 43.4732 42.782 43.5184 42.782 43.5535C42.782 45.3363 42.9513 45.05 41.4333 45.0701C40.1492 45.0902 39.4823 45.4518 39.124 46.4159C39.0294 46.667 38.9995 46.9583 38.9946 47.2295C38.9796 48.5502 38.9747 49.8659 38.9946 51.1866C38.9995 51.6636 38.8054 51.8294 38.3525 51.8394C37.0884 51.8645 37.0884 51.8746 37.0884 50.584C37.0884 49.5595 37.0884 48.5351 37.0884 47.5107L37.0934 47.5157Z" fill="white"/>
</g>
<defs>
<clipPath id="clip0_25_11">
<rect width="80" height="52" fill="white"/>
</clipPath>
</defs>
</svg>
