<svg width="33" height="33" viewBox="0 0 33 33" fill="none" xmlns="http://www.w3.org/2000/svg">
<g clip-path="url(#clip0_25_168)">
<path fill-rule="evenodd" clip-rule="evenodd" d="M0.899196 4.50458C0 6.26935 0 8.57957 0 13.2V19.8C0 24.4204 0 26.7307 0.899196 28.4954C1.69015 30.0478 2.95224 31.3098 4.50458 32.1008C6.26935 33 8.57957 33 13.2 33H19.8C24.4204 33 26.7307 33 28.4954 32.1008C30.0478 31.3098 31.3098 30.0478 32.1008 28.4954C33 26.7307 33 24.4204 33 19.8V13.2C33 8.57957 33 6.26935 32.1008 4.50458C31.3098 2.95224 30.0478 1.69015 28.4954 0.899196C26.7307 0 24.4204 0 19.8 0H13.2C8.57957 0 6.26935 0 4.50458 0.899196C2.95224 1.69015 1.69015 2.95224 0.899196 4.50458ZM19.0663 5.50513C18.3506 5.50623 17.6335 5.50734 16.9132 5.51833C16.896 7.82135 16.8967 10.1244 16.8974 12.4296C16.8979 13.8129 16.8983 15.197 16.8949 16.5824C16.8925 17.0142 16.8932 17.4454 16.894 17.8764C16.8961 19.0827 16.8982 20.2867 16.8307 21.4956C16.8221 21.8322 16.6509 22.1282 16.4856 22.4141C16.4753 22.4319 16.4651 22.4496 16.4549 22.4673C15.9232 23.3381 14.9424 23.9339 13.9157 23.9431C12.3758 24.0806 10.9274 22.8156 10.7074 21.3123C10.706 21.2354 10.7035 21.1581 10.701 21.0806C10.6872 20.659 10.6732 20.2314 10.8358 19.8365C11.0649 19.1857 11.5049 18.6082 12.0824 18.2323C12.8799 17.6823 13.9432 17.5998 14.8507 17.8932C14.8507 17.3118 14.8608 16.7303 14.8709 16.1489C14.8844 15.3737 14.8979 14.5985 14.8874 13.8232C12.8983 13.4474 10.7716 14.0799 9.24996 15.3999C7.91165 16.5365 7.04999 18.2048 6.88499 19.9465C6.86666 20.3956 6.87583 20.854 6.89416 21.3123C7.08666 23.4573 8.38831 25.4556 10.24 26.5464C11.3583 27.2064 12.6691 27.5639 13.9799 27.4906C16.1157 27.4539 18.1965 26.3081 19.3973 24.5481C20.1398 23.4939 20.5615 22.2198 20.6348 20.9365C20.652 19.2693 20.6513 17.5986 20.6506 15.9266C20.6501 14.9233 20.6497 13.9195 20.6532 12.9157C21.1298 13.2274 21.6156 13.5299 22.1381 13.7682C23.339 14.3366 24.6681 14.6116 25.9881 14.6574V10.9633C24.5764 10.8074 23.1281 10.3399 22.1015 9.32245C21.0748 8.33246 20.5707 6.90248 20.4973 5.5C20.0205 5.50367 19.5437 5.5044 19.0663 5.50513Z" fill="black"/>
</g>
<defs>
<clipPath id="clip0_25_168">
<rect width="33" height="33" fill="white"/>
</clipPath>
</defs>
</svg>
