<svg width="76" height="65" viewBox="0 0 76 65" fill="none" xmlns="http://www.w3.org/2000/svg">
<path d="M0 3C0 1.34315 1.34315 0 3 0H62C63.6569 0 65 1.34315 65 3V7.90541V16.25V24.5946V62C65 63.6569 63.6569 65 62 65H3C1.34315 65 0 63.6569 0 62V3Z" fill="white"/>
<path d="M3 1H62C63.1046 1 64 1.89543 64 3V7.90541V16.25V24.5946V62C64 63.1046 63.1046 64 62 64H3C1.89543 64 1 63.1046 1 62V3C1 1.89543 1.89543 1 3 1Z" stroke="#FFD800" stroke-opacity="0.4" stroke-width="2"/>
<line x1="19.5" y1="27.5" x2="28.5" y2="39.5" stroke="#FAD749" stroke-width="5" stroke-linecap="round"/>
<line x1="28.6934" y1="39.5331" x2="72.5331" y2="10.3066" stroke="#FAD749" stroke-width="5" stroke-linecap="round"/>
</svg>
