<svg width="416" height="399" viewBox="0 0 416 399" fill="none" xmlns="http://www.w3.org/2000/svg">
<path d="M376.356 236.669L375.299 236.163V235.152C376.884 227.567 378.47 219.981 378.999 212.395V211.384L380.056 210.878C384.813 208.855 390.628 206.833 395.914 204.81C403.314 202.281 410.714 199.247 416 196.719C416 192.167 415.471 187.616 415.471 183.57C409.657 181.548 402.257 179.525 394.856 177.502C389.042 175.985 383.227 174.468 378.47 172.951L377.413 172.445V171.433C375.827 163.848 374.241 156.262 371.598 149.183L371.07 148.171L371.598 147.665C375.299 144.125 379.527 140.08 383.756 136.034C389.571 130.977 395.385 125.414 399.085 120.863C396.971 116.312 395.385 112.772 393.271 108.726C387.456 108.726 379.527 109.738 371.598 110.749C365.784 111.255 359.441 112.266 354.155 112.266H353.098L352.569 111.255C348.341 104.681 343.583 98.6122 338.297 92.5437V92.038L338.826 91.0266C340.412 86.4753 343.055 81.4183 345.698 76.3612C348.869 69.2814 352.569 62.2015 354.155 56.6388C352.569 55.1217 350.983 53.6046 348.869 52.0875C347.283 50.5703 345.169 49.0532 343.583 47.5361C337.769 49.5589 330.897 53.6046 324.025 57.6502C319.268 60.1787 313.982 63.2129 309.225 65.2357L308.168 65.7414L306.582 64.73C300.239 60.1787 292.839 56.1331 285.967 52.5932H285.438V51.5817C285.438 46.5247 285.438 40.4563 285.438 34.8935C285.438 27.308 285.967 20.2281 285.438 14.1597C281.21 12.6426 276.981 11.1255 272.224 9.60836C267.995 13.654 262.709 19.7224 257.952 25.7909C254.252 30.3422 250.551 34.8935 247.38 38.4335L246.851 38.9392H245.794C237.865 37.4221 229.936 35.9049 222.008 35.3992H220.95L220.422 34.3878C218.307 29.8365 216.193 24.2738 214.079 19.2167C211.436 12.1369 208.264 5.05703 205.621 0C200.864 0 196.107 0.505703 191.878 0.505703C189.764 6.06844 187.649 13.1483 185.535 20.2281C183.949 25.7909 182.363 31.3536 180.778 35.9049L179.72 37.4221H178.663C170.734 38.9392 162.806 40.4563 155.405 42.9848L154.348 43.4905L153.82 42.9848C150.119 39.4449 145.891 35.3992 141.662 31.3536C136.376 25.7909 130.562 20.2281 125.804 16.6882C121.047 18.711 117.347 20.2281 113.118 22.2509C113.118 27.8137 114.175 35.3992 115.233 42.9848C115.761 48.5475 116.818 54.616 116.818 59.673V60.6844L116.29 60.1787C109.418 64.2243 103.075 68.7757 96.7319 73.8327L96.2033 74.3384L95.1461 73.8327C90.3888 72.3156 85.1029 69.7871 79.817 67.2586C72.4168 64.2243 65.0165 60.6844 59.202 59.1673C56.0305 62.2015 52.859 65.7414 49.6874 69.2814C51.8018 74.8441 56.0305 81.4182 60.2592 87.9924C62.9022 92.5437 66.0737 97.6008 68.1881 102.152L68.7166 103.163L68.1881 104.175C63.4307 110.243 59.202 117.323 55.5019 123.897L54.9733 124.909H53.9161C48.6302 124.909 42.2872 124.909 36.4727 124.909C28.5438 124.909 21.1436 124.403 14.8005 124.909C13.2147 128.954 11.629 133 10.0432 137.551C14.2719 141.597 20.615 146.654 26.9581 151.205C31.7154 154.745 36.4727 158.285 40.1728 161.319L41.23 162.331V163.342C39.6442 170.928 38.0584 178.513 37.5299 186.099V187.11L36.4727 187.616C31.7154 189.639 25.9009 191.662 20.615 193.684C12.6862 196.213 5.2859 198.741 0 201.776C0 206.327 0.52859 210.878 0.52859 214.924C6.34308 216.947 13.7433 218.97 21.1436 220.992C26.9581 222.509 32.7726 224.027 37.5299 225.544L38.587 226.049V227.061C40.1728 234.646 41.7586 242.232 44.4015 249.312L44.9301 250.323L44.4015 250.829C40.7014 254.369 36.4727 258.414 32.244 262.46C26.4295 267.517 20.615 273.08 16.9149 277.631C19.0292 282.182 20.615 286.228 22.7294 289.768C28.5438 289.768 36.4727 288.757 44.4015 287.745C50.216 287.24 56.5591 286.228 61.845 286.228H62.9022L63.4307 287.24C67.6595 293.814 72.4168 299.882 77.7027 305.951L78.2313 306.456L77.7027 307.468C76.1169 312.019 73.474 317.076 70.831 322.133C67.6595 329.213 63.9593 336.293 62.3736 341.855C63.9593 343.373 65.5451 344.89 67.6595 346.407C69.2452 347.924 71.3596 349.441 72.9454 350.958C78.7598 348.935 85.6315 344.89 92.5032 341.35C97.2605 338.821 102.546 335.787 107.304 333.764L108.361 333.259L109.418 333.764C115.761 338.316 123.161 342.361 130.033 345.901L131.09 346.407V347.418C131.09 352.475 131.09 358.544 131.09 364.106C131.09 371.186 130.562 378.772 131.09 384.84C135.319 386.357 139.548 387.875 144.305 389.392C144.834 388.886 145.891 387.875 146.419 386.863C150.119 382.817 154.348 377.76 158.048 373.209C161.748 368.658 165.449 364.106 168.62 360.566L169.149 360.061H170.206C178.135 361.578 186.064 363.095 193.992 363.601H195.05L195.578 364.612C197.693 369.163 199.807 374.726 201.921 379.783C204.564 386.863 207.736 393.943 210.379 399C215.136 399 219.893 398.494 224.122 398.494C226.236 392.932 228.351 385.852 230.465 378.772C232.051 373.209 233.637 367.646 235.222 363.095L235.751 362.084H236.808C244.737 360.567 252.666 359.049 260.066 356.521L261.123 356.015L261.652 356.521C265.352 360.061 269.581 364.106 273.809 368.152C279.095 373.715 284.91 379.278 289.667 382.817C294.424 380.795 298.125 379.278 302.353 377.255C302.353 371.692 301.296 364.106 300.239 356.521C299.71 350.958 298.653 344.89 298.653 339.833V338.821L299.71 338.316C306.582 334.27 312.925 329.719 319.268 324.662L319.797 324.156L320.854 324.662C325.611 326.179 330.897 328.707 336.183 331.236C343.583 334.27 350.983 337.81 356.798 339.327C359.97 336.293 363.141 332.753 366.313 329.213C364.198 323.65 359.97 317.076 356.269 310.502C353.626 305.951 350.455 300.894 348.341 296.342L347.812 295.331L348.341 294.319C353.098 288.251 357.327 281.171 361.027 274.597L361.555 273.586H362.612C367.898 273.586 374.241 273.586 380.056 273.586C387.985 273.586 395.385 274.091 401.728 273.586C403.314 269.54 404.9 265.494 406.485 260.943C402.257 256.897 395.914 251.84 389.57 247.289C384.813 243.243 380.056 239.703 376.356 236.669ZM208.264 312.525C142.719 312.525 89.3316 261.449 89.3316 198.741C89.3316 136.034 142.719 85.4639 208.264 85.4639C273.809 85.4639 327.197 136.54 327.197 199.247C327.197 261.954 273.809 312.525 208.264 312.525Z" fill="#F4F4F4"/>
</svg>
