<svg width="253" height="963" viewBox="0 0 253 963" fill="none" xmlns="http://www.w3.org/2000/svg">
<path d="M910.13 571.209L907.573 569.989V567.548C911.408 549.24 915.243 530.932 916.521 512.624V510.182L919.078 508.962C930.582 504.08 944.643 499.198 957.426 494.316C975.322 488.213 993.217 480.89 1006 474.787C1006 463.802 1004.72 452.817 1004.72 443.053C990.661 438.171 972.765 433.289 954.869 428.407C940.808 424.745 926.747 421.084 915.243 417.422L912.686 416.202V413.76C908.851 395.452 905.017 377.145 898.625 360.057L897.347 357.616L898.625 356.395C907.573 347.852 917.799 338.087 928.025 328.323C942.086 316.118 956.147 302.692 965.095 291.707C959.982 280.722 956.147 272.179 951.034 262.414C936.973 262.414 917.799 264.855 898.625 267.297C884.564 268.517 869.225 270.958 856.442 270.958H853.886L852.607 268.517C842.381 252.65 830.877 238.004 818.094 223.357V222.137L819.372 219.696C823.207 208.711 829.599 196.506 835.99 184.3C843.659 167.213 852.607 150.125 856.442 136.7C852.607 133.038 848.773 129.376 843.659 125.715C839.825 122.053 834.712 118.392 830.877 114.73C816.816 119.612 800.198 129.376 783.581 139.141C772.076 145.243 759.294 152.567 747.789 157.449L745.233 158.669L741.398 156.228C726.058 145.243 708.163 135.479 691.545 126.935H690.267V124.494C690.267 112.289 690.267 97.6426 690.267 84.2167C690.267 65.9087 691.545 48.8213 690.267 34.1749C680.041 30.5133 669.815 26.8517 658.31 23.1901C648.084 32.9544 635.301 47.6008 623.797 62.2471C614.849 73.2319 605.901 84.2167 598.231 92.7605L596.953 93.981H594.396C575.222 90.3194 556.048 86.6578 536.874 85.4373H534.318L533.039 82.9962C527.926 72.0114 522.813 58.5856 517.7 46.3802C511.309 29.2928 503.639 12.2053 497.248 0C485.743 0 474.239 1.22053 464.013 1.22053C458.9 14.6464 453.787 31.7338 448.673 48.8213C444.839 62.2472 441.004 75.673 437.169 86.6578L434.612 90.3194H432.056C412.882 93.981 393.708 97.6426 375.812 103.745L373.255 104.966L371.977 103.745C363.029 95.2015 352.803 85.4373 342.577 75.673C329.794 62.2471 315.733 48.8213 304.229 40.2776C292.724 45.1597 283.776 48.8213 273.55 53.7034C273.55 67.1293 276.107 85.4373 278.663 103.745C279.942 117.171 282.498 131.817 282.498 144.023V146.464L281.22 145.243C264.602 155.008 249.263 165.992 233.924 178.198L232.646 179.418L230.089 178.198C218.585 174.536 205.802 168.433 193.019 162.331C175.123 155.008 157.227 146.464 143.166 142.802C135.497 150.125 127.827 158.669 120.158 167.213C125.271 180.639 135.497 196.506 145.723 212.373C152.114 223.357 159.784 235.563 164.897 246.548L166.175 248.989L164.897 251.43C153.393 266.076 143.166 283.164 134.219 299.03L132.94 301.471H130.384C117.601 301.471 102.262 301.471 88.2008 301.471C69.0267 301.471 51.1309 300.251 35.7916 301.471C31.9568 311.236 28.122 321 24.2872 331.985C34.5133 341.749 49.8526 353.954 65.1919 364.939C76.6963 373.483 88.2008 382.027 97.1487 389.35L99.7052 391.791V394.232C95.8704 412.54 92.0356 430.848 90.7573 449.156V451.597L88.2008 452.817C76.6963 457.7 62.6353 462.582 49.8526 467.464C30.6785 473.567 12.7827 479.669 0 486.992C0 497.977 1.27827 508.962 1.27827 518.726C15.3393 523.608 33.2351 528.49 51.1309 533.373C65.1919 537.034 79.2529 540.696 90.7573 544.357L93.3139 545.578V548.019C97.1487 566.327 100.983 584.635 107.375 601.722L108.653 604.164L107.375 605.384C98.4269 613.928 88.2008 623.692 77.9746 633.456C63.9136 645.662 49.8526 659.087 40.9047 670.072C46.0178 681.057 49.8526 690.821 54.9657 699.365C69.0267 699.365 88.2008 696.924 107.375 694.483C121.436 693.262 136.775 690.821 149.558 690.821H152.114L153.393 693.262C163.619 709.129 175.123 723.776 187.906 738.422L189.184 739.643L187.906 742.084C184.071 753.068 177.68 765.274 171.288 777.479C163.619 794.567 154.671 811.654 150.836 825.08C154.671 828.741 158.506 832.403 163.619 836.065C167.454 839.726 172.567 843.388 176.402 847.049C190.463 842.167 207.08 832.403 223.698 823.859C235.202 817.757 247.985 810.433 259.489 805.551L262.046 804.331L264.602 805.551C279.942 816.536 297.837 826.3 314.455 834.844L317.011 836.065V838.506C317.011 850.711 317.011 865.357 317.011 878.783C317.011 895.871 315.733 914.179 317.011 928.825C327.238 932.487 337.464 936.148 348.968 939.81C350.247 938.589 352.803 936.148 354.081 933.707C363.029 923.943 373.255 911.738 382.203 900.753C391.151 889.768 400.099 878.783 407.769 870.24L409.047 869.019H411.604C430.778 872.681 449.952 876.342 469.126 877.563H471.682L472.961 880.004C478.074 890.989 483.187 904.414 488.3 916.62C494.691 933.707 502.361 950.795 508.752 963C520.257 963 531.761 961.779 541.987 961.779C547.1 948.354 552.213 931.266 557.327 914.179C561.161 900.753 564.996 887.327 568.831 876.342L570.109 873.901H572.666C591.84 870.24 611.014 866.578 628.91 860.475L631.466 859.255L632.745 860.475C641.693 869.019 651.919 878.783 662.145 888.547C674.928 901.973 688.989 915.399 700.493 923.943C711.997 919.061 720.945 915.399 731.172 910.517C731.172 897.091 728.615 878.783 726.058 860.475C724.78 847.049 722.224 832.403 722.224 820.198V817.757L724.78 816.536C741.398 806.772 756.737 795.787 772.076 783.582L773.355 782.361L775.911 783.582C787.416 787.243 800.198 793.346 812.981 799.449C830.877 806.772 848.773 815.316 862.834 818.977C870.503 811.654 878.173 803.11 885.843 794.567C880.729 781.141 870.503 765.274 861.555 749.407C855.164 738.422 847.494 726.217 842.381 715.232L841.103 712.791L842.381 710.35C853.886 695.703 864.112 678.616 873.06 662.749L874.338 660.308H876.895C889.677 660.308 905.017 660.308 919.078 660.308C938.252 660.308 956.147 661.529 971.487 660.308C975.322 650.544 979.156 640.779 982.991 629.795C972.765 620.03 957.426 607.825 942.086 596.84C930.582 587.076 919.078 578.532 910.13 571.209ZM503.639 754.289C345.133 754.289 216.028 631.015 216.028 479.669C216.028 328.323 345.133 206.27 503.639 206.27C662.145 206.27 791.25 329.544 791.25 480.89C791.25 632.236 662.145 754.289 503.639 754.289Z" fill="#F4F4F4"/>
</svg>
