<svg width="783" height="751" viewBox="0 0 783 751" fill="none" xmlns="http://www.w3.org/2000/svg">
<path d="M708.381 445.46L706.391 444.508V442.605C709.376 428.327 712.361 414.049 713.356 399.772V397.868L715.346 396.916C724.3 393.109 735.244 389.302 745.193 385.494C759.122 380.735 773.051 375.024 783 370.265C783 361.698 782.005 353.132 782.005 345.517C771.061 341.71 757.132 337.902 743.203 334.095C732.259 331.24 721.315 328.384 712.361 325.528L710.371 324.577V322.673C707.386 308.395 704.402 294.118 699.427 280.792L698.432 278.888L699.427 277.937C706.391 271.274 714.351 263.659 722.31 256.044C733.254 246.526 744.198 236.056 751.163 227.489C747.183 218.923 744.198 212.26 740.219 204.645C729.275 204.645 714.351 206.549 699.427 208.452C688.483 209.404 676.544 211.308 666.595 211.308H664.605L663.61 209.404C655.651 197.03 646.696 185.608 636.747 174.186V173.234L637.742 171.331C640.727 162.764 645.701 153.246 650.676 143.728C656.646 130.402 663.61 117.076 666.595 106.606C663.61 103.75 660.625 100.895 656.646 98.0393C653.661 95.1838 649.681 92.3283 646.696 89.4728C635.752 93.2801 622.818 100.895 609.884 108.51C600.93 113.269 590.981 118.98 582.027 122.787L580.037 123.739L577.052 121.835C565.113 113.269 551.184 105.654 538.25 98.9911H537.255V97.0875C537.255 87.5691 537.255 76.147 537.255 65.6768C537.255 51.3992 538.25 38.0735 537.255 26.6515C529.296 23.7959 521.337 20.9404 512.383 18.0849C504.423 25.6996 494.474 37.1217 485.52 48.5437C478.555 57.1103 471.591 65.6768 465.621 72.3397L464.626 73.2915H462.637C447.713 70.436 432.789 67.5805 417.865 66.6286H415.876L414.881 64.725C410.901 56.1584 406.921 45.6882 402.942 36.1698C397.967 22.8441 391.998 9.51838 387.023 0C378.069 0 369.114 0.951838 361.155 0.951838C357.175 11.4221 353.196 24.7478 349.216 38.0735C346.231 48.5437 343.247 59.0139 340.262 67.5805L338.272 70.436H336.282C321.358 73.2915 306.435 76.147 292.506 80.9062L290.516 81.858L289.521 80.9062C282.557 74.2433 274.597 66.6286 266.638 59.0139C256.689 48.5437 245.745 38.0735 236.79 31.4106C227.836 35.218 220.872 38.0735 212.912 41.8809C212.912 52.3511 214.902 66.6286 216.892 80.9062C217.887 91.3764 219.877 102.798 219.877 112.317V114.221L218.882 113.269C205.948 120.883 194.009 129.45 182.07 138.968L181.075 139.92L179.085 138.968C170.131 136.113 160.182 131.354 150.233 126.594C136.304 120.883 122.375 114.221 111.431 111.365C105.461 117.076 99.4917 123.739 93.5222 130.402C97.5019 140.872 105.461 153.246 113.421 165.62C118.395 174.186 124.365 183.705 128.344 192.271L129.339 194.175L128.344 196.079C119.39 207.501 111.431 220.826 104.466 233.2L103.471 235.104H101.482C91.5324 235.104 79.5934 235.104 68.6493 235.104C53.7255 235.104 39.7967 234.152 27.8577 235.104C24.8729 242.719 21.8882 250.333 18.9034 258.9C26.8628 266.515 38.8018 276.033 50.7408 284.599C59.695 291.262 68.6493 297.925 75.6137 303.636L77.6036 305.54V307.444C74.6188 321.721 71.6341 335.999 70.6391 350.276V352.18L68.6493 353.132C59.6951 356.939 48.751 360.746 38.8018 364.554C23.878 369.313 9.94917 374.072 0 379.783C0 388.35 0.994918 396.916 0.994918 404.531C11.939 408.338 25.8679 412.146 39.7967 415.953C50.7408 418.809 61.6849 421.664 70.6391 424.52L72.629 425.471V427.375C75.6137 441.653 78.5985 455.93 83.5731 469.256L84.568 471.16L83.5731 472.111C76.6086 478.774 68.6493 486.389 60.69 494.004C49.7459 503.522 38.8018 513.992 31.8374 522.559C35.817 531.125 38.8018 538.74 42.7815 545.403C53.7255 545.403 68.6493 543.499 83.5731 541.596C94.5172 540.644 106.456 538.74 116.405 538.74H118.395L119.39 540.644C127.349 553.018 136.304 564.44 146.253 575.862L147.248 576.814L146.253 578.717C143.268 587.284 138.294 596.802 133.319 606.321C127.349 619.646 120.385 632.972 117.4 643.442C120.385 646.298 123.37 649.153 127.349 652.009C130.334 654.864 134.314 657.72 137.299 660.575C148.243 656.768 161.177 649.153 174.111 642.49C183.065 637.731 193.014 632.02 201.968 628.213L203.958 627.261L205.948 628.213C217.887 636.779 231.816 644.394 244.75 651.057L246.74 652.009V653.912C246.74 663.431 246.74 674.853 246.74 685.323C246.74 698.649 245.745 712.926 246.74 724.348C254.699 727.204 262.658 730.06 271.612 732.915C272.607 731.963 274.597 730.06 275.592 728.156C282.557 720.541 290.516 711.023 297.48 702.456C304.445 693.89 311.409 685.323 317.379 678.66L318.374 677.708H320.363C335.287 680.564 350.211 683.42 365.135 684.371H367.125L368.119 686.275C372.099 694.842 376.079 705.312 380.058 714.83C385.033 728.156 391.003 741.482 395.977 751C404.931 751 413.886 750.048 421.845 750.048C425.825 739.578 429.804 726.252 433.784 712.926C436.769 702.456 439.754 691.986 442.738 683.419L443.733 681.516H445.723C460.647 678.66 475.571 675.805 489.499 671.046L491.489 670.094L492.484 671.046C499.449 677.708 507.408 685.323 515.367 692.938C525.316 703.408 536.261 713.878 545.215 720.541C554.169 716.734 561.133 713.878 569.093 710.071C569.093 699.601 567.103 685.323 565.113 671.046C564.118 660.575 562.128 649.153 562.128 639.635V637.731L564.118 636.779C577.052 629.165 588.991 620.598 600.93 611.08L601.925 610.128L603.915 611.08C612.869 613.935 622.818 618.695 632.768 623.454C646.696 629.165 660.625 635.828 671.569 638.683C677.539 632.972 683.508 626.309 689.478 619.646C685.498 609.176 677.539 596.802 670.574 584.428C665.6 575.862 659.63 566.343 655.651 557.777L654.656 555.873L655.651 553.97C664.605 542.547 672.564 529.222 679.529 516.848L680.524 514.944H682.513C692.463 514.944 704.402 514.944 715.346 514.944C730.269 514.944 744.198 515.896 756.137 514.944C759.122 507.329 762.107 499.715 765.092 491.148C757.132 483.534 745.193 474.015 733.254 465.449C724.3 457.834 715.346 451.171 708.381 445.46ZM391.998 588.236C268.628 588.236 168.141 492.1 168.141 374.072C168.141 256.044 268.628 160.861 391.998 160.861C515.367 160.861 615.854 256.996 615.854 375.024C615.854 493.052 515.367 588.236 391.998 588.236Z" fill="#F4F4F4"/>
</svg>
