<svg width="523" height="501" viewBox="0 0 523 501" fill="none" xmlns="http://www.w3.org/2000/svg">
<path d="M473.159 297.171L471.83 296.536V295.266C473.823 285.741 475.817 276.217 476.482 266.692V265.422L477.811 264.787C483.792 262.247 491.102 259.707 497.747 257.167C507.051 253.992 516.355 250.182 523 247.008C523 241.293 522.335 235.578 522.335 230.498C515.025 227.958 505.722 225.418 496.418 222.878C489.108 220.973 481.798 219.068 475.817 217.163L474.488 216.529V215.259C472.494 205.734 470.501 196.209 467.178 187.319L466.513 186.049L467.178 185.414C471.83 180.97 477.146 175.89 482.463 170.81C489.773 164.46 497.083 157.475 501.734 151.76C499.076 146.046 497.083 141.601 494.424 136.521C487.114 136.521 477.146 137.791 467.178 139.061C459.868 139.696 451.893 140.966 445.248 140.966H443.919L443.254 139.696C437.938 131.441 431.957 123.821 425.311 116.202V115.567L425.976 114.297C427.97 108.582 431.292 102.232 434.615 95.8821C438.602 86.9924 443.254 78.1027 445.248 71.1179C443.254 69.2129 441.261 67.308 438.602 65.403C436.609 63.4981 433.95 61.5932 431.957 59.6882C424.647 62.2281 416.008 67.308 407.368 72.3878C401.388 75.5627 394.742 79.3726 388.761 81.9126L387.432 82.5475L385.438 81.2776C377.464 75.5627 368.16 70.4829 359.521 66.038H358.856V64.7681C358.856 58.4183 358.856 50.7985 358.856 43.8137C358.856 34.289 359.521 25.3992 358.856 17.7795C353.54 15.8745 348.224 13.9696 342.243 12.0646C336.926 17.1445 330.281 24.7643 324.3 32.384C319.648 38.0989 314.996 43.8137 311.009 48.2586L310.344 48.8935H309.015C299.047 46.9886 289.079 45.0836 279.111 44.4487H277.781L277.117 43.1787C274.459 37.4639 271.801 30.4791 269.142 24.1293C265.82 15.2395 261.832 6.34981 258.51 0C252.529 0 246.548 0.634981 241.231 0.634981C238.573 7.61977 235.915 16.5095 233.257 25.3992C231.263 32.384 229.269 39.3688 227.276 45.0836L225.947 46.9886H224.618C214.649 48.8935 204.681 50.7985 195.377 53.9734L194.048 54.6084L193.384 53.9734C188.732 49.5285 183.416 44.4487 178.099 39.3688C171.454 32.384 164.144 25.3992 158.163 20.9544C152.182 23.4943 147.53 25.3992 142.213 27.9392C142.213 34.924 143.543 44.4487 144.872 53.9734C145.536 60.9582 146.865 68.5779 146.865 74.9278V76.1977L146.201 75.5627C137.562 80.6426 129.587 86.3574 121.612 92.7072L120.948 93.3422L119.619 92.7072C113.638 90.8023 106.992 87.6274 100.347 84.4525C91.0432 80.6426 81.7395 76.1977 74.4295 74.2928C70.4422 78.1027 66.4549 82.5475 62.4676 86.9924C65.1258 93.9772 70.4422 102.232 75.7586 110.487C79.0813 116.202 83.0686 122.551 85.7268 128.266L86.3914 129.536L85.7268 130.806C79.7459 138.426 74.4295 147.316 69.7776 155.57L69.1131 156.84H67.784C61.1385 156.84 53.1639 156.84 45.8539 156.84C35.8856 156.84 26.582 156.205 18.6074 156.84C16.6137 161.92 14.6201 167 12.6264 172.715C17.9428 177.795 25.9174 184.144 33.892 189.859C39.8729 194.304 45.8539 198.749 50.5057 202.559L51.8348 203.829V205.099C49.8412 214.624 47.8475 224.148 47.183 233.673V234.943L45.8539 235.578C39.8729 238.118 32.5629 240.658 25.9174 243.198C15.9492 246.373 6.64549 249.548 0 253.357C0 259.072 0.664549 264.787 0.664549 269.867C7.97459 272.407 17.2783 274.947 26.582 277.487C33.892 279.392 41.202 281.297 47.183 283.202L48.5121 283.836V285.106C50.5057 294.631 52.4994 304.156 55.8221 313.046L56.4867 314.316L55.8221 314.951C51.1703 319.395 45.8539 324.475 40.5375 329.555C33.2274 335.905 25.9174 342.89 21.2656 348.605C23.9238 354.319 25.9174 359.399 28.5756 363.844C35.8856 363.844 45.8539 362.574 55.8221 361.304C63.1321 360.669 71.1067 359.399 77.7522 359.399H79.0813L79.7459 360.669C85.0623 368.924 91.0432 376.544 97.6887 384.163L98.3532 384.798L97.6887 386.068C95.6951 391.783 92.3723 398.133 89.0496 404.483C85.0623 413.373 80.4104 422.262 78.4168 429.247C80.4104 431.152 82.4041 433.057 85.0623 434.962C87.0559 436.867 89.7141 438.772 91.7078 440.677C99.0178 438.137 107.657 433.057 116.296 428.612C122.277 425.437 128.923 421.627 134.903 419.087L136.233 418.452L137.562 419.087C145.536 424.802 154.84 429.882 163.479 434.327L164.808 434.962V436.232C164.808 442.582 164.808 450.202 164.808 457.186C164.808 466.076 164.144 475.601 164.808 483.22C170.125 485.125 175.441 487.03 181.422 488.935C182.086 488.3 183.416 487.03 184.08 485.76C188.732 480.681 194.048 474.331 198.7 468.616C203.352 462.901 208.004 457.186 211.991 452.741L212.656 452.106H213.985C223.953 454.011 233.921 455.916 243.889 456.551H245.219L245.883 457.821C248.541 463.536 251.2 470.521 253.858 476.871C257.18 485.76 261.168 494.65 264.49 501C270.471 501 276.452 500.365 281.769 500.365C284.427 493.38 287.085 484.49 289.743 475.601C291.737 468.616 293.731 461.631 295.724 455.916L296.389 454.646H297.718C307.686 452.741 317.654 450.836 326.958 447.662L328.287 447.027L328.952 447.662C333.604 452.106 338.92 457.186 344.236 462.266C350.882 469.251 358.192 476.236 364.173 480.681C370.154 478.141 374.806 476.236 380.122 473.696C380.122 466.711 378.793 457.186 377.464 447.662C376.799 440.677 375.47 433.057 375.47 426.707V425.437L376.799 424.802C385.438 419.722 393.413 414.008 401.388 407.658L402.052 407.023L403.381 407.658C409.362 409.563 416.008 412.738 422.653 415.913C431.957 419.722 441.261 424.167 448.571 426.072C452.558 422.262 456.545 417.817 460.532 413.373C457.874 406.388 452.558 398.133 447.906 389.878C444.583 384.163 440.596 377.814 437.938 372.099L437.273 370.829L437.938 369.559C443.919 361.939 449.235 353.049 453.887 344.795L454.552 343.525H455.881C462.526 343.525 470.501 343.525 477.811 343.525C487.779 343.525 497.083 344.16 505.057 343.525C507.051 338.445 509.045 333.365 511.038 327.65C505.722 322.57 497.747 316.221 489.773 310.506C483.792 305.426 477.811 300.981 473.159 297.171ZM261.832 392.418C179.428 392.418 112.309 328.285 112.309 249.548C112.309 170.81 179.428 107.312 261.832 107.312C344.236 107.312 411.356 171.445 411.356 250.182C411.356 328.92 344.236 392.418 261.832 392.418Z" fill="#F4F4F4"/>
</svg>
