<svg width="99" height="67" viewBox="0 0 99 67" fill="none" xmlns="http://www.w3.org/2000/svg">
<g clip-path="url(#clip0_402_5837)">
<path d="M51.3603 67.0854C69.9006 67.0854 84.9305 52.0774 84.9305 33.5641C84.9305 15.0507 69.9006 0.0427017 51.3603 0.0427017C32.82 0.0427017 17.7901 15.0507 17.7901 33.5641C17.7901 52.0774 32.82 67.0854 51.3603 67.0854Z" fill="#FAD749"/>
<path d="M53.1564 34.4181C53.1564 34.4181 51.7451 33.0089 49.9063 31.1727C54.3965 29.6354 53.1136 27.5857 53.1136 27.5857C53.1136 27.5857 52.0872 25.963 49.2648 26.0057C46.7844 26.0484 46.87 27.8419 46.9127 28.2263C44.7745 26.0911 42.7218 24.0841 42.0376 23.3582C40.327 21.6074 38.3171 21.7782 38.3171 21.7782H16.5499C14.3261 22.0771 13.5136 23.1447 13.5136 23.1447C13.5136 23.1447 11.0333 25.6214 8.42462 28.3117C8.42462 28.3117 8.85226 26.0484 6.15809 26.0057C3.46393 25.963 2.43758 27.5857 2.43758 27.5857C2.43758 27.5857 1.1974 29.6354 5.60215 31.1727C4.91792 31.856 4.23369 32.5392 3.72051 33.0516C0.555934 36.2116 0.299347 40.0548 0.299347 40.0548C0.299347 40.0548 0.299347 46.8872 0.299347 48.5953C0.299347 50.2607 1.88164 52.0115 2.00993 52.1396C2.00993 52.1823 2.00993 52.225 2.00993 52.225V55.3423C2.00993 55.8974 2.43758 56.3244 2.99352 56.3244H10.4346C10.9905 56.3244 11.4181 55.8974 11.4181 55.3423V54.1893H43.9192V55.3423C43.9192 55.8974 44.3469 56.3244 44.9028 56.3244H52.3438C52.8998 56.3244 53.3274 55.8974 53.3274 55.3423V52.3531C53.4985 52.2677 53.6695 52.1823 53.7551 52.0969C54.9952 51.0293 55.4657 48.4245 55.4657 48.4245C55.4657 48.4245 55.4657 41.7202 55.4657 39.7132C55.4229 37.8343 53.1564 34.4181 53.1564 34.4181ZM9.75032 32.0695C9.23714 32.0695 9.02332 31.4716 9.36544 31.13L15.0104 25.4933C16.0795 24.4258 17.9611 24.4258 17.9611 24.4258C17.9611 24.4258 35.9222 24.4258 37.419 24.4258C38.7875 24.4258 40.0276 25.3652 40.1987 25.4933L40.2415 25.536L45.9292 31.1727C46.2713 31.5143 46.0147 32.1122 45.5443 32.1122H9.75032V32.0695ZM2.56587 40.7381C2.35205 40.2683 2.26652 39.7986 2.30928 39.3289C2.39481 38.304 2.86522 36.6386 5.3028 36.5105C8.8095 36.3397 12.8294 40.8235 12.6155 41.6775C12.4445 42.3607 10.3918 42.6597 9.75032 42.7024C9.62202 42.7024 9.49373 42.7024 9.36544 42.7024H4.87516C4.78963 42.7024 4.7041 42.7024 4.61857 42.6597C3.50669 42.4461 2.86522 41.4213 2.56587 40.7381ZM12.8294 51.2855H6.84233C6.79956 51.2855 6.71403 51.2855 6.67127 51.2428C6.0298 51.072 2.05269 49.8337 3.93434 46.8872C4.06263 46.6737 4.27645 46.5883 4.49028 46.5883C5.55939 46.5883 8.89503 46.5883 9.92138 46.5883C10.1352 46.5883 10.3063 46.6737 10.4346 46.8018L13.3425 50.1753C13.6847 50.6023 13.3853 51.2855 12.8294 51.2855ZM38.1888 48.2964C38.5736 48.2964 38.873 48.638 38.7875 49.0223C38.3598 51.0293 36.1361 51.2428 35.8795 51.2855H35.8367H19.2441C17.7473 51.2855 17.0203 49.9618 16.7209 49.065C16.5926 48.6807 16.892 48.2964 17.2769 48.2964H38.1888ZM39.4717 42.5742C39.0868 44.0261 38.146 45.7342 35.965 45.7342H19.073C18.9875 45.7342 18.9019 45.7342 18.8164 45.7342C18.2605 45.6488 16.3788 45.1364 15.7374 42.5742C15.4808 41.5921 16.2933 40.6099 17.2769 40.6099H37.9749C39.0013 40.6099 39.7711 41.5921 39.4717 42.5742ZM48.6233 51.2855H42.5935C42.0803 51.2855 41.781 50.645 42.1231 50.2607L45.0739 46.8018C45.2022 46.6737 45.3732 46.5883 45.5443 46.5883C46.5706 46.5883 49.949 46.5883 51.0181 46.5883C51.232 46.5883 51.4458 46.7164 51.5741 46.8872C53.4557 49.8764 49.4358 51.072 48.8371 51.2428C48.7516 51.2428 48.6661 51.2855 48.6233 51.2855ZM52.857 40.6526C52.7287 40.9516 52.5149 41.3359 52.2583 41.6775C51.7451 42.3607 50.8898 42.7451 50.0345 42.7451H46.1857C45.8864 42.7451 45.587 42.7451 45.2877 42.7024C44.4752 42.5743 42.9356 42.318 42.7646 41.6775C42.5508 40.8235 46.5706 36.3397 50.0773 36.5105C52.6004 36.6386 53.0281 38.4321 53.0708 39.4143C53.1136 39.8413 53.0281 40.2683 52.857 40.6526Z" fill="#333333"/>
<path d="M5.60216 42.318C6.90116 42.318 7.95421 41.2665 7.95421 39.9694C7.95421 38.6723 6.90116 37.6208 5.60216 37.6208C4.30316 37.6208 3.25011 38.6723 3.25011 39.9694C3.25011 41.2665 4.30316 42.318 5.60216 42.318Z" fill="#333333"/>
<path d="M9.87862 42.318C10.4691 42.318 10.9477 41.8401 10.9477 41.2505C10.9477 40.6609 10.4691 40.1829 9.87862 40.1829C9.28817 40.1829 8.80951 40.6609 8.80951 41.2505C8.80951 41.8401 9.28817 42.318 9.87862 42.318Z" fill="#333333"/>
<path d="M49.8207 37.6635C48.5378 37.6635 47.5114 38.6883 47.5114 39.9694C47.5114 41.2505 48.5378 42.2753 49.8207 42.2753C51.1037 42.2753 52.13 41.2505 52.13 39.9694C52.13 38.6883 51.1037 37.6635 49.8207 37.6635ZM49.778 41.5494C48.9227 41.5494 48.2384 40.8662 48.2384 40.0121C48.2384 39.1581 48.9227 38.4748 49.778 38.4748C50.6333 38.4748 51.3175 39.1581 51.3175 40.0121C51.3175 40.8662 50.6333 41.5494 49.778 41.5494Z" fill="#333333"/>
<path d="M5.60215 41.464C6.42879 41.464 7.09891 40.7948 7.09891 39.9694C7.09891 39.144 6.42879 38.4748 5.60215 38.4748C4.77551 38.4748 4.10539 39.144 4.10539 39.9694C4.10539 40.7948 4.77551 41.464 5.60215 41.464Z" fill="white"/>
<path d="M45.4588 40.1829C44.8173 40.1829 44.3041 40.6954 44.3041 41.3359C44.3041 41.9764 44.8173 42.4889 45.4588 42.4889C46.1002 42.4889 46.6134 41.9764 46.6134 41.3359C46.6134 40.6954 46.1002 40.1829 45.4588 40.1829ZM45.4588 41.9337C45.1166 41.9337 44.86 41.6775 44.86 41.3359C44.86 40.9943 45.1166 40.7381 45.4588 40.7381C45.8009 40.7381 46.0575 40.9943 46.0575 41.3359C46.0575 41.6775 45.8009 41.9337 45.4588 41.9337Z" fill="#333333"/>
<path d="M9.87862 41.891C10.2329 41.891 10.5201 41.6042 10.5201 41.2505C10.5201 40.8967 10.2329 40.6099 9.87862 40.6099C9.52435 40.6099 9.23715 40.8967 9.23715 41.2505C9.23715 41.6042 9.52435 41.891 9.87862 41.891Z" fill="white"/>
<path d="M60.7257 54.9579H57.775L61.7948 44.3678H64.8311L68.851 54.9579H65.8575L65.1732 53.079H61.3672L60.7257 54.9579ZM62.0942 51.072H64.5318L63.3344 47.5277L62.0942 51.072Z" fill="#333333"/>
<path d="M69.578 44.3678H75.6505C76.6341 44.3678 77.3611 44.5813 77.8315 45.051C78.3019 45.5207 78.5158 46.204 78.5158 47.1007C78.5158 47.6985 78.3875 48.211 78.1309 48.5953C77.8743 48.9796 77.5322 49.2358 77.1473 49.4066C77.9598 49.6201 78.5158 50.1753 78.8151 51.0293C78.9007 51.3282 78.9862 51.7126 78.9862 52.1396C78.9862 53.1217 78.7724 53.8477 78.302 54.3174C77.8315 54.7871 77.1045 55.0006 76.121 55.0006H69.6207V44.3678H69.578ZM75.8216 47.3569C75.8216 46.7591 75.5222 46.4602 74.9235 46.4602H72.3577V48.5953H74.9235C75.5222 48.5953 75.8216 48.2964 75.8216 47.6985V47.3569ZM76.2492 51.6272C76.2492 51.0293 75.9499 50.7304 75.3512 50.7304H72.3149V52.8655H75.3512C75.9499 52.8655 76.2492 52.5666 76.2492 51.9688V51.6272Z" fill="#333333"/>
<path d="M85.1871 54.9579H82.4501V46.5029H79.2856V44.3678H88.3944V46.5029H85.2298V54.9579H85.1871Z" fill="#333333"/>
<path d="M99 52.0542C99 53.1217 98.7434 53.8904 98.273 54.3601C97.8026 54.8298 97.0328 55.086 95.9637 55.086H92.1577C91.0886 55.086 90.3188 54.8298 89.8484 54.3601C89.378 53.8904 89.1214 53.1217 89.1214 52.0542V47.2288C89.1214 46.1613 89.378 45.3926 89.8484 44.9229C90.3188 44.4532 91.0886 44.1969 92.1577 44.1969H95.9637C97.0328 44.1969 97.8026 44.4532 98.273 44.9229C98.7434 45.3926 99 46.1613 99 47.2288V52.0542ZM96.2631 47.2288C96.2631 46.631 95.9637 46.3321 95.365 46.3321H92.7992C92.2005 46.3321 91.9011 46.631 91.9011 47.2288V52.0542C91.9011 52.652 92.2005 52.9509 92.7992 52.9509H95.365C95.9637 52.9509 96.2631 52.652 96.2631 52.0542V47.2288Z" fill="#333333"/>
<path d="M69.8346 41.891H64.1041V25.963H57.4328V21.9917H76.5486V25.963H69.8773V41.891H69.8346Z" fill="#333333"/>
<path d="M98.7862 36.5105C98.7862 38.5175 98.273 39.9694 97.2894 40.8662C96.2631 41.7629 94.6808 42.2326 92.457 42.2326H84.5028C82.279 42.2326 80.654 41.7629 79.6704 40.8662C78.6441 39.9694 78.1736 38.5175 78.1736 36.5105V27.4149C78.1736 25.4079 78.6868 23.956 79.6704 23.0593C80.6968 22.1625 82.279 21.6928 84.5028 21.6928H92.457C94.6808 21.6928 96.3058 22.1625 97.2894 23.0593C98.3158 23.956 98.7862 25.4079 98.7862 27.4149V36.5105ZM93.0557 27.4149C93.0557 26.2619 92.4143 25.7068 91.1313 25.7068H85.7002C84.4173 25.7068 83.7758 26.2619 83.7758 27.4149V36.5105C83.7758 37.6635 84.4173 38.2186 85.7002 38.2186H91.1313C92.4143 38.2186 93.0557 37.6635 93.0557 36.5105V27.4149Z" fill="#333333"/>
<path d="M7.44104 11.615C6.54298 11.5723 5.64492 11.5723 4.78963 11.5723V16.0988H2.60864V11.5723C1.75335 11.5723 0.855292 11.615 0 11.615V9.82154H7.44104V11.615Z" fill="#333333"/>
<path d="M10.1352 14.5188C12.3162 14.5188 13.8985 14.4761 14.8821 14.4334C14.8393 14.6896 14.7965 14.9031 14.7965 15.1593C14.7965 15.4155 14.7965 15.7145 14.7965 16.0988H8.12527C8.16804 14.9885 8.2108 13.921 8.2108 12.9388C8.2108 11.9567 8.16804 10.9318 8.12527 9.82154H14.8393V11.4015H10.1352V12.2129C10.3918 12.2129 10.8194 12.2129 11.3754 12.2129C12.2734 12.2129 13.257 12.2129 14.1978 12.1702V13.6648C13.2143 13.6221 12.2734 13.6221 11.3754 13.6221C10.8194 13.6221 10.4346 13.6221 10.1352 13.6221V14.5188Z" fill="#333333"/>
<path d="M20.2276 12.8961L22.7508 16.0988H20.2704L19.0302 14.3907L17.7901 16.0988H15.3097L17.8328 12.8961L15.3525 9.82154H17.8328L18.9875 11.3588L20.1421 9.82154H22.6652L20.2276 12.8961Z" fill="#333333"/>
<path d="M24.162 15.3301C23.5205 14.775 23.2212 13.9637 23.2212 12.8961C23.2212 11.8713 23.5205 11.0599 24.162 10.5048C24.7607 9.90695 25.7443 9.65073 27.07 9.65073C28.3957 9.65073 29.3793 9.94965 29.978 10.5048C30.5767 11.1026 30.9188 11.8713 30.9188 12.8961C30.9188 13.921 30.6194 14.7323 29.978 15.3301C29.3793 15.8853 28.3957 16.1842 27.0272 16.1842C25.7443 16.1842 24.7607 15.8853 24.162 15.3301ZM28.4384 14.0491C28.7378 13.7929 28.8661 13.4085 28.8661 12.8961C28.8661 12.3837 28.7378 11.9994 28.4384 11.7431C28.1391 11.4869 27.7114 11.3588 27.07 11.3588C26.4285 11.3588 25.9581 11.4869 25.7015 11.7431C25.4022 11.9994 25.2739 12.3837 25.2739 12.8961C25.2739 13.4085 25.4022 13.7929 25.7015 14.0491C26.0009 14.3053 26.4285 14.4334 27.07 14.4334C27.7114 14.4334 28.1391 14.3053 28.4384 14.0491Z" fill="#333333"/>
<path d="M33.6985 16.0988H31.603C31.6458 14.9885 31.6886 13.921 31.6886 12.9388C31.6886 11.9567 31.6458 10.9318 31.603 9.77884H37.7184C37.7184 10.2486 37.7184 10.6329 37.7184 10.8464C37.7184 11.1453 37.7184 11.4015 37.7184 11.5296H33.6985V16.0988Z" fill="#333333"/>
<path d="M45.5443 16.0988H43.3633V11.5296H41.4389V12.0421C41.4389 12.4691 41.4389 12.8534 41.3961 13.195C41.3961 13.5366 41.3533 13.8783 41.2678 14.2199C41.1395 14.8604 40.8402 15.3728 40.3698 15.7145C39.8993 16.0988 39.2579 16.2696 38.4026 16.2696V14.5615C38.6164 14.5188 38.7875 14.4334 38.9158 14.2626C39.0441 14.0918 39.1296 13.8356 39.2151 13.4939C39.2579 13.195 39.3006 12.5545 39.3006 11.5723V9.82154H45.5443V16.0988Z" fill="#333333"/>
<path d="M53.1564 9.82154C53.1136 10.8037 53.1136 11.8286 53.1136 12.9815C53.1136 14.0918 53.1136 15.1593 53.1564 16.1415H51.1037V14.0918H49.8207C49.2648 14.9458 48.8799 15.6291 48.6233 16.0988H46.2713L47.6825 14.1345C47.7253 14.0918 47.768 14.0064 47.8108 13.921C47.2121 13.7502 46.7844 13.4939 46.5706 13.1523C46.3568 12.8107 46.1857 12.3837 46.1857 11.8713C46.1857 11.2307 46.3996 10.7183 46.87 10.334C47.3404 9.94965 48.1529 9.77884 49.3076 9.77884H51.0609H53.1564V9.82154ZM51.1464 12.4691V11.4869H49.9918C49.4786 11.4869 49.1365 11.4869 48.8799 11.5296C48.6233 11.5723 48.4523 11.615 48.3667 11.6577C48.2812 11.7431 48.2384 11.8286 48.2384 11.9567C48.2384 12.0848 48.2812 12.1702 48.3667 12.2556C48.4523 12.341 48.6233 12.3837 48.8799 12.4264C49.1365 12.4691 49.5214 12.4691 49.9918 12.4691H51.1464Z" fill="#333333"/>
<path d="M61.1106 14.5615H61.4527V17.5507H59.4428V16.3123H55.594V17.5934H53.5413V14.6042H53.9689C54.2255 14.5615 54.3966 14.4761 54.5248 14.3053C54.6531 14.1345 54.7387 13.921 54.8242 13.5793C54.867 13.2804 54.9097 12.6399 54.9097 11.6577V9.90694H61.1534V14.5615H61.1106ZM56.7486 14.5615H58.9296V11.5296H57.0052V12.0421C57.0052 12.4691 57.0052 12.8534 56.9624 13.195C56.9624 13.5366 56.9197 13.8783 56.8341 14.2199C56.7914 14.348 56.7486 14.4761 56.7486 14.5615Z" fill="#333333"/>
<path d="M66.5417 14.0064H62.0942V12.2983H66.5417V14.0064Z" fill="#333333"/>
<path d="M72.5715 16.0988C72.4432 15.7572 72.3149 15.3728 72.1439 14.8604H69.4069L68.9793 16.0988H66.7983L69.2359 9.82154H72.4004L74.838 16.0988H72.5715ZM71.6307 13.4939C71.4169 12.8961 71.203 12.2983 70.9464 11.6577L70.7326 11.1026C70.5188 11.615 70.2194 12.4264 69.8346 13.4939H71.6307Z" fill="#333333"/>
<path d="M82.3218 14.2199C82.3218 14.6042 82.2363 14.9458 82.0652 15.202C81.8942 15.4583 81.552 15.6718 81.1244 15.8426C80.654 16.0134 80.0125 16.0561 79.2 16.0561H75.2657C75.3084 14.9458 75.3512 13.8783 75.3512 12.8961C75.3512 11.914 75.3084 10.8891 75.2657 9.73614H77.2756H79.1145C79.8415 9.73614 80.3974 9.77884 80.8251 9.90695C81.2527 10.0351 81.5093 10.2059 81.6803 10.4194C81.8514 10.6329 81.9369 10.9318 81.9369 11.2734C81.9369 11.615 81.8086 11.9567 81.552 12.2129C81.2955 12.4691 80.8678 12.7253 80.3119 12.8534C81.6376 12.9815 82.3218 13.4085 82.3218 14.2199ZM77.3184 11.4015V12.2129H78.9862C79.3283 12.2129 79.5849 12.1702 79.7132 12.1275C79.8415 12.0848 79.927 11.9567 79.927 11.7859C79.927 11.6577 79.8415 11.5723 79.7132 11.4869C79.5849 11.4442 79.3283 11.4015 78.9862 11.4015H77.3184ZM78.9862 14.5188C79.2855 14.5188 79.4994 14.5188 79.6704 14.4761C79.8415 14.4334 79.927 14.3907 80.0125 14.348C80.0981 14.3053 80.0981 14.1772 80.0981 14.0918C80.0981 13.921 80.0125 13.8356 79.8415 13.7502C79.6704 13.6648 79.3711 13.6648 78.9434 13.6648H77.2756V14.5188H78.9862Z" fill="#333333"/>
<path d="M90.4471 11.615C89.549 11.5723 88.651 11.5723 87.7957 11.5723V16.0988H85.6147V11.5723C84.7594 11.5723 83.8613 11.615 83.006 11.615V9.82154H90.4471V11.615Z" fill="#333333"/>
<path d="M92.0721 15.3301C91.4307 14.775 91.1313 13.9637 91.1313 12.8961C91.1313 11.8713 91.4307 11.0599 92.0721 10.5048C92.6708 9.90695 93.6544 9.65073 94.9801 9.65073C96.3058 9.65073 97.2894 9.94965 97.8881 10.5048C98.4868 11.1026 98.8289 11.8713 98.8289 12.8961C98.8289 13.921 98.5296 14.7323 97.8881 15.3301C97.2894 15.8853 96.3058 16.1842 94.9374 16.1842C93.6544 16.1842 92.6708 15.8853 92.0721 15.3301ZM96.3486 14.0491C96.6479 13.7929 96.7762 13.4085 96.7762 12.8961C96.7762 12.3837 96.6479 11.9994 96.3486 11.7431C96.0492 11.4869 95.6216 11.3588 94.9801 11.3588C94.3387 11.3588 93.8682 11.4869 93.6117 11.7431C93.3123 11.9994 93.184 12.3837 93.184 12.8961C93.184 13.4085 93.3123 13.7929 93.6117 14.0491C93.911 14.3053 94.3387 14.4334 94.9801 14.4334C95.6216 14.4334 96.0492 14.3053 96.3486 14.0491Z" fill="#333333"/>
<path d="M98.4013 18.8317H0.0427719C-0.0855219 18.8317 -0.171051 18.7463 -0.171051 18.6182C-0.171051 18.4901 -0.0855219 18.4047 0.0427719 18.4047H98.4013C98.5296 18.4047 98.6151 18.4901 98.6151 18.6182C98.6151 18.7463 98.4868 18.8317 98.4013 18.8317Z" fill="#333333"/>
</g>
<defs>
<clipPath id="clip0_402_5837">
<rect width="99" height="67" fill="white"/>
</clipPath>
</defs>
</svg>
