<svg width="24" height="24" viewBox="0 0 24 24" fill="none" xmlns="http://www.w3.org/2000/svg">
<path d="M3.64702 17.5L4.30986 17.8509L4.51786 17.458L4.27304 17.087L3.64702 17.5ZM6.72957 20.5L7.1254 19.863C6.91843 19.7344 6.66189 19.7143 6.43746 19.8092L6.72957 20.5ZM21.25 12C21.25 17.1086 17.1086 21.25 12 21.25V22.75C17.9371 22.75 22.75 17.9371 22.75 12H21.25ZM2.74999 12C2.74999 6.89137 6.89136 2.75 12 2.75V1.25C6.06293 1.25 1.24999 6.06294 1.24999 12H2.74999ZM12 2.75C17.1086 2.75 21.25 6.89137 21.25 12H22.75C22.75 6.06294 17.9371 1.25 12 1.25V2.75ZM4.27304 17.087C3.31036 15.6279 2.74999 13.8805 2.74999 12H1.24999C1.24999 14.1831 1.90155 16.2163 3.021 17.913L4.27304 17.087ZM12 21.25C10.2097 21.25 8.54031 20.7421 7.1254 19.863L6.33374 21.137C7.9794 22.1596 9.9219 22.75 12 22.75V21.25ZM3.64702 17.5C2.98417 17.1491 2.98415 17.1491 2.98412 17.1492C2.98409 17.1492 2.98405 17.1493 2.984 17.1494C2.9839 17.1496 2.98376 17.1499 2.98358 17.1502C2.98323 17.1509 2.98271 17.1519 2.98204 17.1531C2.9807 17.1557 2.97873 17.1594 2.97615 17.1643C2.97101 17.174 2.96345 17.1884 2.95366 17.207C2.93407 17.2442 2.90553 17.2986 2.86946 17.3676C2.79733 17.5058 2.69501 17.7028 2.57385 17.9391C2.33184 18.411 2.01329 19.0425 1.70971 19.6758C1.40845 20.3042 1.11296 20.9528 0.923302 21.4527C0.83181 21.6938 0.748 21.9436 0.71048 22.1527C0.694537 22.2416 0.667844 22.4174 0.709317 22.6054C0.731775 22.7072 0.787654 22.8748 0.937264 23.0214C1.1044 23.1851 1.31372 23.25 1.49999 23.25V21.75C1.65502 21.75 1.83924 21.8051 1.98706 21.9499C2.11736 22.0776 2.15972 22.2171 2.1741 22.2823C2.19942 22.397 2.17832 22.4654 2.18691 22.4176C2.19844 22.3533 2.2394 22.2124 2.32575 21.9848C2.49179 21.5472 2.7643 20.9458 3.0623 20.3242C3.35797 19.7075 3.66993 19.089 3.90862 18.6234C4.0278 18.391 4.12837 18.1974 4.19905 18.062C4.23438 17.9944 4.26222 17.9413 4.28117 17.9053C4.29064 17.8873 4.29788 17.8736 4.30272 17.8644C4.30514 17.8598 4.30696 17.8564 4.30816 17.8541C4.30876 17.853 4.3092 17.8522 4.30949 17.8516C4.30963 17.8514 4.30973 17.8512 4.30979 17.851C4.30982 17.851 4.30984 17.8509 4.30986 17.8509C4.30986 17.8509 4.30986 17.8509 3.64702 17.5ZM1.49999 23.25C1.62455 23.25 1.7448 23.2237 1.81329 23.2075C1.89829 23.1875 1.9925 23.1606 2.08946 23.1307C2.28427 23.0706 2.5236 22.9875 2.7852 22.892C3.3102 22.7004 3.95698 22.4469 4.58181 22.196C5.20795 21.9445 5.81772 21.6933 6.27056 21.5051C6.4971 21.4109 6.68463 21.3325 6.81562 21.2775C6.88112 21.25 6.9325 21.2284 6.96757 21.2136C6.98511 21.2062 6.99857 21.2005 7.00767 21.1967C7.01223 21.1948 7.0157 21.1933 7.01804 21.1923C7.01921 21.1918 7.02011 21.1914 7.02071 21.1912C7.02102 21.1911 7.02125 21.191 7.02141 21.1909C7.02149 21.1909 7.02156 21.1908 7.0216 21.1908C7.02165 21.1908 7.02168 21.1908 6.72957 20.5C6.43746 19.8092 6.43746 19.8092 6.43743 19.8092C6.4374 19.8092 6.43736 19.8093 6.4373 19.8093C6.43717 19.8093 6.43697 19.8094 6.4367 19.8095C6.43616 19.8098 6.43534 19.8101 6.43424 19.8106C6.43203 19.8115 6.42871 19.8129 6.4243 19.8148C6.41548 19.8185 6.40232 19.8241 6.38509 19.8313C6.35064 19.8458 6.29992 19.8672 6.23512 19.8944C6.10551 19.9488 5.91963 20.0266 5.69496 20.1199C5.24538 20.3067 4.6415 20.5555 4.02275 20.804C3.40269 21.0531 2.77333 21.2996 2.2709 21.483C2.0188 21.575 1.80659 21.6482 1.64706 21.6974C1.56683 21.7222 1.50816 21.7383 1.46895 21.7476C1.41323 21.7607 1.43793 21.75 1.49999 21.75V23.25Z" fill="#1D1D1D"/>
<path d="M16.9997 14.4869V15.9923C17.0003 16.1321 16.9716 16.2704 16.9155 16.3985C16.8594 16.5265 16.7771 16.6414 16.6739 16.7359C16.5707 16.8304 16.4489 16.9023 16.3163 16.9471C16.1836 16.9919 16.0431 17.0085 15.9036 16.9959C14.3564 16.8281 12.8702 16.3005 11.5645 15.4554C10.3496 14.685 9.31963 13.657 8.54767 12.4446C7.69793 11.1355 7.16912 9.64504 7.00408 8.09397C6.99152 7.95521 7.00804 7.81536 7.0526 7.68331C7.09716 7.55127 7.16878 7.42994 7.2629 7.32703C7.35703 7.22413 7.47158 7.14191 7.59929 7.08562C7.72699 7.02932 7.86504 7.00018 8.00465 7.00005H9.51304C9.75705 6.99765 9.99361 7.08389 10.1786 7.24269C10.3636 7.40148 10.4845 7.622 10.5186 7.86315C10.5823 8.34491 10.7004 8.81794 10.8706 9.27321C10.9382 9.45281 10.9529 9.64801 10.9128 9.83567C10.8727 10.0233 10.7795 10.1956 10.6443 10.332L10.0058 10.9693C10.7215 12.2256 11.7638 13.2658 13.0226 13.9801L13.6611 13.3428C13.7978 13.2079 13.9704 13.1149 14.1584 13.0749C14.3465 13.0349 14.5421 13.0495 14.722 13.117C15.1782 13.2869 15.6522 13.4047 16.1349 13.4683C16.3791 13.5027 16.6022 13.6254 16.7616 13.8132C16.9211 14.0011 17.0058 14.2408 16.9997 14.4869Z" stroke="#1D1D1D" stroke-width="1.5" stroke-linecap="round" stroke-linejoin="round"/>
</svg>
