<svg width="79" height="79" viewBox="0 0 79 79" fill="none" xmlns="http://www.w3.org/2000/svg">
<path d="M74.7679 34.0734C74.1035 30.6925 72.7507 27.4304 70.824 24.5603L72.8292 21.2416L67.002 15.4144L63.6832 17.4196C60.8132 15.4928 57.551 14.1411 54.1702 13.4756L53.2422 9.71355H45.0014L44.0734 13.4756C43.9405 13.5018 43.8098 13.5399 43.6769 13.5682L43.678 4.7392C43.6769 2.67736 42.0006 1 39.8767 1C38.8539 1 37.8922 1.39429 37.1711 2.11098C36.449 2.82985 36.0504 3.78725 36.0515 4.80673V15.2543L29.7919 15.8261C30.9725 14.4831 31.6947 12.7273 31.6947 10.8027C31.6947 6.59846 28.2746 3.17839 24.0703 3.17839C19.866 3.17839 16.446 6.59846 16.446 10.8027C16.446 13.0323 17.4143 15.0353 18.9446 16.4306C14.4255 17.302 11 21.2819 11 26.0515V38.0326C11 41.0355 13.4431 43.4785 16.446 43.4785V64.1732C16.446 66.576 18.4 68.53 20.8027 68.53C22.1098 68.53 23.2709 67.9397 24.0703 67.0247C24.8698 67.9397 26.0309 68.53 27.3379 68.53C29.7407 68.53 31.6947 66.576 31.6947 64.1732V62.632L34.5701 60.8316C37.438 62.7551 40.6969 64.1046 44.0734 64.7679L45.0014 68.53H53.2422L54.1702 64.769C57.551 64.1046 60.8143 62.7518 63.6832 60.825L67.002 62.8303L72.8292 57.0031L70.824 53.6843C72.7518 50.8143 74.1035 47.5521 74.7679 44.1702L78.53 43.2422V35.0014L74.7679 34.0734ZM42.5866 57.6152C41.0421 57.0728 39.5826 56.3354 38.2298 55.4324V32.2348L42.5866 30.4921V57.6152ZM49.1218 58.7273C47.6318 58.7273 46.1744 58.5552 44.765 58.2382V26.1353L49.1218 27.878V58.7273ZM51.3002 34.4132L55.6569 32.6705V57.5836C54.2671 58.077 52.8131 58.431 51.3002 58.5987V34.4132ZM57.8353 39.5433L62.1921 40.9963V53.693C60.884 54.8672 59.4234 55.8659 57.8353 56.6578V39.5433ZM57.8353 37.2484V30.4082H55.4478L51.3002 32.0671V26.4033L44.9741 23.8731H42.5866V28.2298H42.3775L36.0515 30.76V53.7409C34.3011 52.1714 32.8176 50.2751 31.6947 48.0989V23.7783L38.7232 23.14C40.515 22.9777 42.0224 21.9746 42.8883 20.5423C44.8913 19.8692 46.9848 19.5163 49.1218 19.5163C59.932 19.5163 68.7273 28.3115 68.7273 39.1218C68.7273 43.7759 67.0902 48.051 64.3705 51.4177V39.4257L57.8353 37.2484ZM21.8919 18.426L24.0093 18.4238C24.03 18.4238 24.0496 18.4271 24.0703 18.4271C24.091 18.4271 24.1117 18.4238 24.1335 18.4238L25.2586 18.4227L26.2487 18.3323V18.4271C26.2487 19.6285 25.2717 20.6055 24.0703 20.6055C22.8689 20.6055 21.8919 19.6285 21.8919 18.426ZM18.6244 10.8027C18.6244 7.79984 21.0674 5.35677 24.0703 5.35677C27.0732 5.35677 29.5163 7.79984 29.5163 10.8027C29.5163 13.8056 27.0732 16.2487 24.0703 16.2487C21.0674 16.2487 18.6244 13.8056 18.6244 10.8027ZM29.5163 64.1732C29.5163 65.3746 28.5393 66.3516 27.3379 66.3516C26.1365 66.3516 25.1595 65.3746 25.1595 64.1732V36.9434H22.9811V64.1732C22.9811 65.3746 22.0041 66.3516 20.8027 66.3516C19.6014 66.3516 18.6244 65.3746 18.6244 64.1732V22.7839H16.446V41.3002C14.6444 41.3002 13.1784 39.8341 13.1784 38.0326V26.0515C13.1784 22.2153 16.0288 19.0403 19.7223 18.5131C19.7691 20.8745 21.697 22.7839 24.0703 22.7839C26.4731 22.7839 28.4271 20.8299 28.4271 18.4271V18.1352L38.2298 17.2442V4.80782C38.2298 4.37214 38.3998 3.9637 38.7069 3.65763C39.0173 3.3483 39.4323 3.17839 39.9388 3.17839C40.7992 3.17839 41.4985 3.87874 41.4985 4.7392L41.4974 17.7159C41.4974 19.4172 40.2198 20.8157 38.525 20.9693L29.5163 21.7894V64.1732ZM76.3516 41.5365L72.8662 42.3959L72.7486 43.1017C72.156 46.647 70.7357 50.0736 68.6412 53.0123L68.2262 53.5939L70.0844 56.6687L66.6698 60.0833L63.595 58.2262L63.0123 58.6412C60.0322 60.7651 56.6982 62.1484 53.1028 62.7486L52.397 62.8662L51.5365 66.3516H46.707L45.8477 62.8673L45.1419 62.7497C41.5464 62.1484 38.2124 60.7662 35.2324 58.6423L34.6399 58.2197L31.6947 60.0615V52.1845C35.7639 57.6359 42.1433 60.9056 49.1218 60.9056C61.1334 60.9056 70.9056 51.1334 70.9056 39.1218C70.9056 27.1101 61.1334 17.3379 49.1218 17.3379C47.2593 17.3379 45.4261 17.5743 43.6464 18.0361C43.6529 17.9282 43.6758 17.8248 43.6758 17.7159V15.8141C44.1627 15.7008 44.6485 15.5778 45.1408 15.495L45.8466 15.3774L46.7059 11.8919H51.5354L52.3948 15.3774L53.1006 15.495C56.6971 16.0962 60.0311 17.4784 63.0101 19.6023L63.5928 20.0173L66.6676 18.1592L70.0822 21.5738L68.2241 24.6486L68.639 25.2313C70.7336 28.1699 72.1539 31.5965 72.7464 35.1408L72.864 35.8466L76.3494 36.7059V41.5365H76.3516Z" fill="#0DA9DB"/>
<path d="M51.093 22.1459L50.2217 24.1424C53.7594 25.6868 56.5575 28.4861 58.1031 32.0238L60.0996 31.1513C58.3329 27.1093 55.135 23.9115 51.093 22.1459Z" fill="#0DA9DB"/>
<path d="M60.9225 33.4751L58.8225 34.0535C59.0055 34.7179 59.1449 35.4019 59.2353 36.0859L61.3941 35.7984C61.2906 35.0174 61.1316 34.2354 60.9225 33.4751Z" fill="#0DA9DB"/>
</svg>
