<svg width="79" height="79" viewBox="0 0 79 79" fill="none" xmlns="http://www.w3.org/2000/svg">
<g clip-path="url(#clip0)">
<path d="M14.882 22.7782C17.8257 17.8685 22.0742 13.8789 27.1511 11.2566C32.2281 8.63439 37.9326 7.48329 43.625 7.93243C49.3174 8.38157 54.7726 10.4132 59.3787 13.7994C63.9848 17.1856 67.5597 21.7926 69.7025 27.1036C69.7758 27.2653 69.8157 27.4403 69.8198 27.6179C69.8239 27.7955 69.7921 27.9721 69.7263 28.1371C69.6605 28.3021 69.5622 28.452 69.4371 28.5777C69.3121 28.7035 69.1629 28.8026 68.9987 28.869C68.8345 28.9354 68.6586 28.9677 68.4816 28.9641C68.3045 28.9604 68.1301 28.9208 67.9687 28.8476C67.8074 28.7745 67.6624 28.6693 67.5427 28.5385C67.4229 28.4076 67.3308 28.2538 67.2719 28.0862C65.3112 23.2287 62.0407 19.0153 57.8272 15.9187C53.6137 12.822 48.6237 10.9646 43.417 10.5546C38.2102 10.1446 32.9927 11.1984 28.3494 13.5977C23.7061 15.997 19.8207 19.6469 17.129 24.1381C17.0401 24.2862 16.9229 24.4152 16.7842 24.5178C16.6455 24.6204 16.4881 24.6946 16.3208 24.7362C16.1536 24.7777 15.9798 24.7858 15.8095 24.76C15.6391 24.7341 15.4755 24.6749 15.3279 24.5856C15.1804 24.4963 15.0518 24.3787 14.9496 24.2395C14.8473 24.1004 14.7734 23.9424 14.7319 23.7746C14.6905 23.6067 14.6825 23.4324 14.7082 23.2614C14.734 23.0904 14.793 22.9263 14.882 22.7782ZM28.268 63.6984C23.8652 61.3991 20.1463 57.9726 17.4884 53.7662C14.8306 49.5599 13.3281 44.7232 13.1334 39.7464C13.127 39.5736 13.0869 39.4037 13.0151 39.2464C12.9434 39.0892 12.8415 38.9477 12.7152 38.8299C12.589 38.7122 12.4409 38.6206 12.2793 38.5603C12.1178 38.5 11.946 38.4723 11.7738 38.4786C11.6015 38.4849 11.4323 38.5253 11.2755 38.5973C11.1188 38.6692 10.9778 38.7715 10.8605 38.8982C10.7432 39.0249 10.6519 39.1735 10.5918 39.3356C10.5317 39.4977 10.5041 39.6701 10.5104 39.8429C10.7238 45.2848 12.3671 50.5734 15.2737 55.1726C18.1803 59.7719 22.2469 63.5183 27.0614 66.0322C27.2149 66.1215 27.3849 66.1787 27.561 66.2002C27.7371 66.2218 27.9158 66.2072 28.0861 66.1575C28.2565 66.1077 28.415 66.0238 28.5521 65.9107C28.6892 65.7977 28.8021 65.658 28.8838 65.4999C28.9655 65.3419 29.0144 65.1688 29.0275 64.9913C29.0406 64.8137 29.0177 64.6353 28.9602 64.4669C28.9026 64.2985 28.8116 64.1435 28.6926 64.0114C28.5736 63.8793 28.4292 63.7728 28.268 63.6984ZM70.6206 37.3775C70.2727 37.3775 69.9392 37.5162 69.6932 37.763C69.4473 38.0098 69.3091 38.3445 69.3091 38.6936C69.3121 43.8562 67.8992 48.9202 65.225 53.3306C62.5509 57.7411 58.7187 61.328 54.1482 63.6984C53.987 63.7728 53.8426 63.8793 53.7236 64.0114C53.6046 64.1435 53.5136 64.2985 53.456 64.4669C53.3985 64.6353 53.3756 64.8137 53.3887 64.9913C53.4018 65.1688 53.4507 65.3419 53.5324 65.4999C53.6142 65.658 53.727 65.7977 53.8641 65.9107C54.0012 66.0238 54.1597 66.1077 54.3301 66.1575C54.5004 66.2072 54.6791 66.2218 54.8552 66.2002C55.0313 66.1787 55.2013 66.1215 55.3548 66.0322C60.3672 63.4469 64.5708 59.5228 67.5021 54.6926C70.4334 49.8625 71.9785 44.3138 71.967 38.6585C71.9671 38.4826 71.9321 38.3086 71.864 38.1466C71.7959 37.9846 71.6961 37.8379 71.5706 37.7153C71.4451 37.5926 71.2964 37.4964 71.1332 37.4323C70.97 37.3683 70.7957 37.3377 70.6206 37.3424V37.3775ZM65.8205 28.288L42.3272 66.0146C42.2092 66.2032 42.0454 66.3585 41.8512 66.4662C41.657 66.5739 41.4387 66.6304 41.2168 66.6304C40.995 66.6304 40.7767 66.5739 40.5825 66.4662C40.3883 66.3585 40.2245 66.2032 40.1064 66.0146L16.6132 28.288C16.4903 28.089 16.4226 27.8607 16.4169 27.6267C16.4113 27.3927 16.468 27.1614 16.5811 26.9566C16.6943 26.7519 16.8598 26.5812 17.0606 26.462C17.2614 26.3429 17.4903 26.2797 17.7236 26.2789H64.7101C64.9434 26.2797 65.1722 26.3429 65.3731 26.462C65.5739 26.5812 65.7394 26.7519 65.8526 26.9566C65.9657 27.1614 66.0224 27.3927 66.0168 27.6267C66.0111 27.8607 65.9434 28.089 65.8205 28.288V28.288ZM62.3232 28.911H20.0843L41.2518 62.8386L62.3232 28.911ZM37.4922 45.4317C37.3456 45.5231 37.2184 45.6426 37.1179 45.7835C37.0174 45.9243 36.9456 46.0836 36.9066 46.2523C36.8676 46.4211 36.8622 46.5959 36.8907 46.7667C36.9192 46.9375 36.9809 47.101 37.0725 47.2478L40.0977 52.0997C40.2158 52.2882 40.3796 52.4435 40.5738 52.5512C40.768 52.6589 40.9862 52.7154 41.2081 52.7154C41.43 52.7154 41.6482 52.6589 41.8424 52.5512C42.0366 52.4435 42.2004 52.2882 42.3185 52.0997L43.9273 49.4676C44.0923 49.1727 44.1379 48.8254 44.0546 48.4976C43.9713 48.1699 43.7654 47.887 43.4797 47.7075C43.194 47.5281 42.8504 47.4659 42.5203 47.5339C42.1901 47.6018 41.8987 47.7947 41.7065 48.0726L41.2081 48.8797L39.3021 45.8177C39.1125 45.5264 38.8157 45.3222 38.4765 45.2499C38.1374 45.1775 37.7835 45.2429 37.4922 45.4317ZM47.2235 41.738C47.3698 41.8299 47.5327 41.8919 47.703 41.9205C47.8732 41.949 48.0474 41.9436 48.2156 41.9045C48.3837 41.8654 48.5425 41.7933 48.6828 41.6925C48.8232 41.5916 48.9423 41.464 49.0334 41.3169L52.5307 35.6667C52.6535 35.4677 52.7213 35.2394 52.7269 35.0053C52.7326 34.7713 52.6759 34.54 52.5627 34.3353C52.4496 34.1305 52.2841 33.9598 52.0833 33.8407C51.8824 33.7215 51.6536 33.6583 51.4203 33.6575H49.3219C49.1497 33.6408 48.9758 33.6583 48.8103 33.709C48.6449 33.7597 48.4909 33.8426 48.3574 33.953C48.0877 34.176 47.9172 34.4973 47.8836 34.8463C47.85 35.1954 47.9559 35.5435 48.1781 35.8142C48.4003 36.0848 48.7205 36.2558 49.0683 36.2896L46.8126 39.9306C46.6296 40.2254 46.5701 40.5807 46.6471 40.9193C46.7241 41.2578 46.9312 41.5521 47.2235 41.738V41.738ZM29.8855 35.6667L32.0014 39.0533C32.0883 39.2085 32.2057 39.3445 32.3465 39.4529C32.4874 39.5613 32.6486 39.6399 32.8206 39.6839C32.9925 39.728 33.1716 39.7365 33.347 39.7091C33.5223 39.6816 33.6903 39.6188 33.8407 39.5243C33.9912 39.4298 34.1209 39.3056 34.2221 39.1593C34.3234 39.0131 34.3939 38.8477 34.4296 38.6732C34.4653 38.4988 34.4653 38.3189 34.4296 38.1444C34.394 37.97 34.3234 37.8046 34.2222 37.6583L33.3479 36.2808H39.7217C40.0696 36.2808 40.4032 36.1422 40.6491 35.8954C40.8951 35.6485 41.0332 35.3138 41.0332 34.9648C41.0332 34.6157 40.8951 34.281 40.6491 34.0342C40.4032 33.7874 40.0696 33.6487 39.7217 33.6487H30.9784C30.7453 33.6517 30.5171 33.7169 30.3175 33.8377C30.1178 33.9586 29.9539 34.1307 29.8426 34.3362C29.7312 34.5418 29.6765 34.7735 29.6841 35.0073C29.6916 35.2412 29.7612 35.4688 29.8855 35.6667V35.6667ZM11.0787 35.1841C10.2141 35.1841 9.36884 34.9268 8.64992 34.4448C7.93101 33.9628 7.37069 33.2776 7.03981 32.4761C6.70893 31.6745 6.62235 30.7924 6.79103 29.9415C6.95971 29.0905 7.37607 28.3089 7.98746 27.6954C8.59885 27.0818 9.3778 26.664 10.2258 26.4948C11.0738 26.3255 11.9528 26.4124 12.7516 26.7444C13.5505 27.0764 14.2332 27.6387 14.7136 28.3601C15.1939 29.0815 15.4503 29.9297 15.4503 30.7973C15.4462 31.8289 15.074 32.8249 14.4011 33.6049L24.8931 50.4765C24.9943 50.6228 25.0649 50.7882 25.1005 50.9627C25.1362 51.1371 25.1362 51.317 25.1005 51.4915C25.0648 51.6659 24.9942 51.8313 24.893 51.9776C24.7918 52.1239 24.6621 52.248 24.5116 52.3425C24.3612 52.437 24.1932 52.4999 24.0179 52.5273C23.8425 52.5548 23.6634 52.5462 23.4915 52.5022C23.3195 52.4582 23.1582 52.3796 23.0174 52.2712C22.8766 52.1628 22.7592 52.0268 22.6723 51.8715L12.1803 34.9999C11.8171 35.1107 11.4407 35.1726 11.0612 35.1841H11.0787ZM11.0787 32.552C11.4245 32.552 11.7626 32.4491 12.0502 32.2563C12.3378 32.0635 12.5619 31.7894 12.6942 31.4688C12.8266 31.1482 12.8612 30.7953 12.7937 30.455C12.7263 30.1146 12.5597 29.8019 12.3152 29.5565C12.0706 29.3111 11.759 29.144 11.4198 29.0763C11.0806 29.0086 10.729 29.0433 10.4095 29.1761C10.09 29.309 9.81687 29.5339 9.62473 29.8224C9.43258 30.111 9.33002 30.4502 9.33002 30.7973C9.33 31.2597 9.51183 31.7033 9.836 32.0319C10.1602 32.3605 10.6005 32.5474 11.0612 32.552H11.0787ZM29.4396 57.8552C29.3642 57.6798 29.2517 57.5229 29.1099 57.3956C28.968 57.2682 28.8003 57.1733 28.6182 57.1176C28.4362 57.0618 28.2442 57.0465 28.0556 57.0727C27.8671 57.0988 27.6865 57.1659 27.5263 57.2691C27.3662 57.3724 27.2304 57.5094 27.1283 57.6706C27.0263 57.8318 26.9604 58.0134 26.9353 58.2027C26.9102 58.3921 26.9265 58.5846 26.983 58.767C27.0395 58.9494 27.1349 59.1173 27.2625 59.2589L38.6288 77.552C38.821 77.8298 39.1125 78.0227 39.4426 78.0907C39.7728 78.1586 40.1164 78.0964 40.4021 77.917C40.6877 77.7375 40.8936 77.4546 40.977 77.1269C41.0603 76.7992 41.0147 76.4518 40.8496 76.157L29.4396 57.8552ZM57.0859 53.7403C56.9396 53.6484 56.7767 53.5864 56.6064 53.5579C56.4362 53.5293 56.262 53.5347 56.0939 53.5739C55.9257 53.613 55.7669 53.685 55.6266 53.7859C55.4863 53.8867 55.3671 54.0143 55.2761 54.1615L45.0202 70.6383C44.919 70.7846 44.8484 70.95 44.8128 71.1245C44.7771 71.2989 44.7771 71.4788 44.8128 71.6533C44.8485 71.8277 44.919 71.9931 45.0203 72.1394C45.1215 72.2857 45.2512 72.4098 45.4017 72.5043C45.5521 72.5988 45.7201 72.6617 45.8954 72.6891C46.0708 72.7166 46.2498 72.708 46.4218 72.664C46.5938 72.62 46.755 72.5414 46.8958 72.433C47.0366 72.3246 47.1541 72.1886 47.241 72.0333L57.5056 55.5652C57.5972 55.4184 57.659 55.2549 57.6874 55.0841C57.7159 54.9133 57.7105 54.7385 57.6715 54.5697C57.6325 54.401 57.5607 54.2417 57.4602 54.1009C57.3598 53.96 57.2326 53.8405 57.0859 53.7491V53.7403ZM69.2304 31.8238L60.1373 46.3705C60.0361 46.5168 59.9656 46.6822 59.9299 46.8566C59.8943 47.0311 59.8943 47.211 59.93 47.3854C59.9656 47.5599 60.0362 47.7253 60.1374 47.8715C60.2386 48.0178 60.3684 48.142 60.5188 48.2365C60.6692 48.331 60.8372 48.3938 61.0126 48.4213C61.1879 48.4487 61.367 48.4402 61.539 48.3961C61.7109 48.3521 61.8722 48.2735 62.013 48.1651C62.1538 48.0567 62.2712 47.9208 62.3581 47.7655L71.425 33.2188C71.5557 32.9297 71.5779 32.6028 71.4874 32.2985C71.3969 31.9943 71.1998 31.7331 70.9325 31.5632C70.6652 31.3932 70.3457 31.326 70.0329 31.3739C69.72 31.4218 69.435 31.5816 69.2304 31.8238ZM79.154 19.5407C79.033 19.3372 78.8594 19.1703 78.6517 19.0575C78.4439 18.9448 78.2097 18.8905 77.9737 18.9003H69.1517C68.8039 18.9003 68.4703 19.0389 68.2243 19.2857C67.9784 19.5325 67.8402 19.8673 67.8402 20.2163C67.8402 20.5653 67.9784 20.9001 68.2243 21.1469C68.4703 21.3937 68.8039 21.5323 69.1517 21.5323H75.613L72.3343 26.7965C72.2331 26.9428 72.1625 27.1082 72.1268 27.2827C72.0912 27.4571 72.0912 27.637 72.1269 27.8115C72.1625 27.9859 72.2331 28.1513 72.3343 28.2976C72.4355 28.4439 72.5653 28.568 72.7157 28.6625C72.8662 28.757 73.0341 28.8199 73.2095 28.8473C73.3848 28.8748 73.5639 28.8662 73.7359 28.8222C73.9078 28.7782 74.0691 28.6996 74.2099 28.5912C74.3507 28.4827 74.4681 28.3468 74.5551 28.1915L79.0928 20.9094C79.2152 20.7096 79.2822 20.4807 79.2868 20.2462C79.2914 20.0117 79.2335 19.7803 79.1191 19.5758L79.154 19.5407ZM44.924 18.8652C44.5762 18.8652 44.2426 19.0038 43.9966 19.2506C43.7507 19.4974 43.6125 19.8322 43.6125 20.1812C43.6125 20.5302 43.7507 20.865 43.9966 21.1118C44.2426 21.3586 44.5762 21.4973 44.924 21.4973H56.9898C57.3376 21.4973 57.6712 21.3586 57.9171 21.1118C58.1631 20.865 58.3013 20.5302 58.3013 20.1812C58.3013 19.8322 58.1631 19.4974 57.9171 19.2506C57.6712 19.0038 57.3376 18.8652 56.9898 18.8652H44.924ZM31.9664 18.8652C31.6186 18.8652 31.285 19.0038 31.0391 19.2506C30.7931 19.4974 30.6549 19.8322 30.6549 20.1812C30.6549 20.5302 30.7931 20.865 31.0391 21.1118C31.285 21.3586 31.6186 21.4973 31.9664 21.4973H39.3195C39.6674 21.4973 40.001 21.3586 40.2469 21.1118C40.4929 20.865 40.631 20.5302 40.631 20.1812C40.631 19.8322 40.4929 19.4974 40.2469 19.2506C40.001 19.0038 39.6674 18.8652 39.3195 18.8652H31.9664Z" fill="#0DA9DB"/>
</g>
<defs>
<clipPath id="clip0">
<rect width="79" height="79" fill="white"/>
</clipPath>
</defs>
</svg>
