<?xml version="1.0" encoding="iso-8859-1"?>
<!-- Generator: Adobe Illustrator 19.0.0, SVG Export Plug-In . SVG Version: 6.00 Build 0)  -->
<svg version="1.1" id="Capa_1" xmlns="http://www.w3.org/2000/svg" xmlns:xlink="http://www.w3.org/1999/xlink" x="0px" y="0px"
	 viewBox="0 0 480 480" style="enable-background:new 0 0 480 480;" xml:space="preserve">
<g>
	<g>
		<path d="M432,337.472V272c-0.066-57.41-46.59-103.934-104-104h-65.448c-1.134-3.344-3.029-6.378-5.536-8.864
			c-4.465-4.594-10.609-7.171-17.016-7.136c-10.134,0.042-19.15,6.445-22.528,16H200c-4.418,0-8-3.582-8-8v-17.472
			c12.442-4.335,19.014-17.935,14.68-30.376c-2.396-6.877-7.802-12.284-14.68-14.68V0H48v97.448
			c-3.342,1.137-6.374,3.034-8.856,5.544C34.542,107.449,31.961,113.593,32,120c0.042,10.134,6.445,19.15,16,22.528V208
			c0.066,57.41,46.59,103.934,104,104h65.472c4.335,12.442,17.935,19.014,30.376,14.68c6.877-2.396,12.284-7.802,14.68-14.68H280
			c4.418,0,8,3.582,8,8v17.472c-12.442,4.335-19.014,17.935-14.68,30.376c2.396,6.877,7.802,12.284,14.68,14.68V480h144v-97.448
			c3.341-1.138,6.372-3.036,8.856-5.544c4.602-4.457,7.183-10.601,7.144-17.008C447.958,349.866,441.555,340.85,432,337.472z M64,16
			h112v80H64V16z M48,120c-0.004-2.157,0.885-4.219,2.456-5.696c1.455-1.495,3.458-2.328,5.544-2.304h128c4.418,0,8,3.582,8,8
			s-3.582,8-8,8H56C51.582,128,48,124.418,48,120z M216,296h-64c-48.577-0.057-87.943-39.423-88-88v-64h112v16
			c0,13.255,10.745,24,24,24h16V296z M248,304c0,4.418-3.582,8-8,8s-8-3.582-8-8V176c0-4.418,3.582-8,8-8
			c2.158-0.007,4.223,0.879,5.704,2.448c1.484,1.465,2.312,3.467,2.296,5.552V304z M280,296h-16V184h64
			c48.577,0.057,87.943,39.423,88,88v64H304v-16C304,306.745,293.255,296,280,296z M416,464H304v-80h112V464z M429.552,365.696
			c-1.459,1.493-3.465,2.325-5.552,2.304H296c-4.418,0-8-3.582-8-8s3.582-8,8-8h128c4.418,0,8,3.582,8,8
			C432.003,362.155,431.118,364.215,429.552,365.696z"/>
	</g>
</g>
<g>
</g>
<g>
</g>
<g>
</g>
<g>
</g>
<g>
</g>
<g>
</g>
<g>
</g>
<g>
</g>
<g>
</g>
<g>
</g>
<g>
</g>
<g>
</g>
<g>
</g>
<g>
</g>
<g>
</g>
</svg>
