<svg width="51" height="51" viewBox="0 0 51 51" fill="none" xmlns="http://www.w3.org/2000/svg">
<circle cx="25.5" cy="25.5" r="25.5" fill="#E80000"/>
<g clip-path="url(#clip0_211_7)">
<path d="M37.1357 31.6152L33.9043 29.749C33.8512 29.7186 33.7926 29.699 33.732 29.6912C33.6713 29.6835 33.6097 29.6877 33.5506 29.7038C33.4916 29.7198 33.4363 29.7473 33.3879 29.7848C33.3395 29.8222 33.2989 29.8688 33.2686 29.9219L32.6855 30.9326C32.5566 31.1553 32.6328 31.4424 32.8555 31.5713L36.0869 33.4375C36.14 33.4679 36.1986 33.4875 36.2592 33.4953C36.3199 33.5031 36.3816 33.4988 36.4406 33.4828C36.4996 33.4667 36.5549 33.4392 36.6033 33.4018C36.6517 33.3643 36.6923 33.3177 36.7227 33.2646L37.3057 32.2539C37.4346 32.0312 37.3555 31.7441 37.1357 31.6152ZM33.2656 20.0781C33.296 20.1312 33.3366 20.1778 33.385 20.2152C33.4334 20.2527 33.4887 20.2802 33.5477 20.2962C33.6067 20.3123 33.6683 20.3165 33.729 20.3088C33.7897 20.301 33.8483 20.2814 33.9014 20.251L37.1328 18.3848C37.3555 18.2559 37.4316 17.9687 37.3027 17.7461L36.7227 16.7383C36.6923 16.6852 36.6517 16.6386 36.6033 16.6012C36.5549 16.5637 36.4996 16.5362 36.4406 16.5202C36.3816 16.5041 36.3199 16.4999 36.2592 16.5076C36.1986 16.5154 36.14 16.535 36.0869 16.5654L32.8555 18.4316C32.7485 18.494 32.6705 18.5962 32.6387 18.7159C32.6068 18.8356 32.6237 18.963 32.6855 19.0703L33.2656 20.0781ZM38.3633 23.9453H34.6133C34.3555 23.9453 34.1445 24.1562 34.1445 24.4141V25.5859C34.1445 25.8438 34.3555 26.0547 34.6133 26.0547H38.3633C38.6211 26.0547 38.832 25.8438 38.832 25.5859V24.4141C38.832 24.1562 38.6211 23.9453 38.3633 23.9453ZM29.3369 13.3691C29.1641 13.3691 28.9883 13.416 28.8271 13.5244L18.4414 20.3125H13.6367C13.3789 20.3125 13.168 20.5234 13.168 20.7812V29.2188C13.168 29.4766 13.3789 29.6875 13.6367 29.6875H18.4414L28.8271 36.4756C28.9883 36.5811 29.167 36.6309 29.3369 36.6309C29.8262 36.6309 30.2773 36.2412 30.2773 35.6904V14.3096C30.2773 13.7588 29.8262 13.3691 29.3369 13.3691Z" fill="white"/>
</g>
<defs>
<clipPath id="clip0_211_7">
<rect width="26" height="24" fill="white" transform="translate(13 13)"/>
</clipPath>
</defs>
</svg>
