<svg width="50" height="60" viewBox="0 0 50 60" fill="none" xmlns="http://www.w3.org/2000/svg">
<g clip-path="url(#clip0_101_280)">
<path d="M17.1591 52.7586C12.2164 52.7586 8.95345 50.6577 5.45845 47.1225C1.96347 43.5873 -1.37496e-07 38.7926 0 33.7931C1.37496e-07 28.7935 1.96347 23.9988 5.45845 20.4637C8.95345 16.9286 12.2164 14.9425 17.1591 14.9425V33.7931V52.7586Z" fill="#E80000"/>
<path d="M28.8635 52.7586C33.8063 52.7586 37.0692 50.6577 40.5642 47.1225C44.0592 43.5873 46.0226 38.7926 46.0226 33.7931C46.0226 28.7935 44.0592 23.9988 40.5642 20.4637C37.0692 16.9286 33.8063 14.9425 28.8635 14.9425V33.7931V52.7586Z" fill="#1D3CE1"/>
<path d="M26.5908 10.3448H19.3181V57.4713H26.5908V10.3448Z" fill="#FF8501"/>
<path d="M22.8408 8.04598C25.0374 8.04598 26.8181 6.24482 26.8181 4.02299C26.8181 1.80115 25.0374 0 22.8408 0C20.6442 0 18.8635 1.80115 18.8635 4.02299C18.8635 6.24482 20.6442 8.04598 22.8408 8.04598Z" fill="#FF8501"/>
<path d="M31.8482 17.8711C32.0412 17.3749 32.5966 17.1286 33.0768 17.3484C36.4714 18.9014 39.3496 21.4289 41.3473 24.6265C43.345 27.8239 44.3666 31.5382 44.2966 35.3058C44.2866 35.8391 43.8284 36.2407 43.3023 36.2039C42.7764 36.1674 42.3823 35.7062 42.3893 35.1731C42.4334 31.8152 41.5143 28.5085 39.7334 25.658C37.9525 22.8076 35.3943 20.5488 32.3768 19.1478C31.8978 18.9254 31.6553 18.3673 31.8482 17.8711Z" fill="white"/>
<path d="M2.54537 32.4138C2.01819 32.4138 1.58833 32.8465 1.61468 33.3791C1.80084 37.1428 3.07255 40.777 5.28296 43.8281C7.49337 46.8791 10.5365 49.2003 14.0286 50.5136C14.5227 50.6993 15.06 50.4152 15.2188 49.9067C15.3776 49.3982 15.0976 48.8584 14.6045 48.6697C11.4991 47.4819 8.79332 45.4065 6.82285 42.6867C4.85235 39.9669 3.71073 36.732 3.52641 33.3789C3.49714 32.8465 3.07255 32.4138 2.54537 32.4138Z" fill="white"/>
</g>
<defs>
<clipPath id="clip0_101_280">
<rect width="50" height="60" fill="white"/>
</clipPath>
</defs>
</svg>
