<svg enable-background="new 0 0 288 560" viewBox="0 0 288 560" xmlns="http://www.w3.org/2000/svg"><path d="m90.6 397c108.7 0 168.1-90 168.1-168.1 0-2.6 0-5.1-.2-7.6 11.6-8.4 21.5-18.7 29.5-30.6-10.8 4.8-22.2 7.9-33.9 9.3 12.3-7.4 21.6-19 26-32.7-11.6 6.9-24.3 11.7-37.5 14.3-11.2-11.9-26.8-18.6-43.1-18.6-32.4 0-59.1 26.7-59.1 59.1 0 4.5.5 9 1.5 13.4-47.6-2.4-91.9-24.8-121.9-61.7-15.6 26.8-7.5 61.6 18.3 78.9-9.4-.3-18.6-2.8-26.8-7.4v.7c0 28 19.9 52.4 47.4 57.9-8.7 2.4-17.8 2.7-26.7 1 7.7 24 30 40.6 55.2 41-20.9 16.4-46.8 25.4-73.4 25.3-4.7 0-9.4-.3-14.1-.9 27.1 17.5 58.6 26.7 90.7 26.7" fill="#bdbdbd"/></svg>