<svg width="43" height="55" viewBox="0 0 43 55" fill="none" xmlns="http://www.w3.org/2000/svg">
<path d="M10.8551 25.9792H32.1467V22.9375H10.8551V25.9792ZM10.8551 13.8125H32.1467V10.7708H10.8551V13.8125ZM42.5235 51.6403L32.135 38.1693C31.3902 37.1983 30.5011 36.4447 29.4677 35.9085C28.4343 35.3723 27.2996 35.1042 26.0634 35.1042H0.209229V5.03843C0.209229 3.6385 0.678152 2.46962 1.616 1.53177C2.55385 0.593924 3.72273 0.125 5.12266 0.125H37.8791C39.2791 0.125 40.4479 0.593924 41.3858 1.53177C42.3236 2.46962 42.7926 3.6385 42.7926 5.03843V49.9616C42.7926 50.254 42.7702 50.5436 42.7253 50.8302C42.6805 51.1168 42.6132 51.3869 42.5235 51.6403ZM5.12266 54.875C3.72273 54.875 2.55385 54.4061 1.616 53.4682C0.678152 52.5304 0.209229 51.3615 0.209229 49.9616V38.1458H26.0634C26.8043 38.1458 27.4877 38.3086 28.1136 38.6343C28.7395 38.9599 29.2825 39.4229 29.7427 40.0235L40.4704 54.062C40.0999 54.3193 39.6973 54.5192 39.2625 54.6616C38.8277 54.8039 38.3666 54.875 37.8791 54.875H5.12266Z" fill="#C5EEFF"/>
</svg>
