<svg width="34" height="34" viewBox="0 0 34 34" fill="none" xmlns="http://www.w3.org/2000/svg">
<mask id="mask0_1_1918" style="mask-type:alpha" maskUnits="userSpaceOnUse" x="0" y="0" width="34" height="34">
<rect width="34" height="34" fill="#D9D9D9"/>
</mask>
<g mask="url(#mask0_1_1918)">
<path d="M24.1923 26.9169V22.7759H20.0513V21.3592H24.1923V17.2182H25.609V21.3592H29.75V22.7759H25.609V26.9169H24.1923ZM15.0384 22.7759H10.0256C8.42771 22.7759 7.06562 22.2129 5.93937 21.087C4.81312 19.961 4.25 18.5993 4.25 17.0018C4.25 15.4043 4.81312 14.0421 5.93937 12.9151C7.06562 11.7881 8.42771 11.2246 10.0256 11.2246H15.0384V12.6413H10.0256C8.82693 12.6413 7.80076 13.0681 6.94712 13.9217C6.09348 14.7754 5.66667 15.8015 5.66667 17.0003C5.66667 18.199 6.09348 19.2251 6.94712 20.0788C7.80076 20.9324 8.82693 21.3592 10.0256 21.3592H15.0384V22.7759ZM12.0417 17.7086V16.2919H21.9583V17.7086H12.0417ZM29.75 17.0003H28.3333C28.3333 15.8015 27.9065 14.7754 27.0529 13.9217C26.1992 13.0681 25.1731 12.6413 23.9744 12.6413H18.9616V11.2246H23.9744C25.5723 11.2246 26.9344 11.7877 28.0606 12.914C29.1869 14.0402 29.75 15.4023 29.75 17.0003Z" fill="#C5EEFF"/>
</g>
</svg>
