<svg width="38" height="38" viewBox="0 0 38 38" fill="none" xmlns="http://www.w3.org/2000/svg">
<path d="M37.6188 8.51436C37.5984 3.61598 34.0523 0.0299141 29.1783 0.0162442C22.2718 -0.00426061 15.3631 -0.00653893 8.45664 0.0162442C3.60308 0.0321924 0.032017 3.63876 0.0161557 8.53486C-0.0065033 15.4837 -0.0042374 22.4326 0.0161557 29.3814C0.0297511 34.2798 3.59175 37.8454 8.4793 37.8568C15.3858 37.8727 22.2945 37.875 29.201 37.8568C34.0908 37.8431 37.5984 34.2889 37.6188 29.3587C37.6324 25.9024 37.6211 22.4485 37.6211 18.9923C37.6211 15.4997 37.6347 12.0047 37.6188 8.51208V8.51436ZM14.1305 27.1396C14.1305 27.2337 14.0829 27.2808 13.9877 27.2808H10.4506C10.3237 27.2808 10.3237 27.2808 10.3237 27.1555V14.9688C10.3237 14.8344 10.3237 14.8344 10.4574 14.8344C11.6402 14.8344 12.8208 14.8344 14.0036 14.8344C14.1305 14.8344 14.1305 14.8344 14.1305 14.9643V27.1419V27.1396ZM12.2294 12.9434C11.0171 12.9434 10.0473 11.9728 10.0382 10.7494C10.0292 9.54188 11.0216 8.54625 12.2362 8.54853C13.4394 8.54853 14.4114 9.53276 14.4114 10.7471C14.4114 11.9706 13.4439 12.9457 12.2294 12.9457V12.9434ZM28.6186 27.192C28.6232 27.2603 28.5915 27.2808 28.5257 27.2808C27.3407 27.2808 26.1556 27.2808 24.9705 27.2808C24.9003 27.2808 24.8844 27.2535 24.8844 27.1874C24.889 26.1166 24.8935 25.0435 24.898 23.9727C24.898 23.4328 24.898 22.8951 24.898 22.3551C24.898 21.7309 24.9026 21.1089 24.898 20.4846C24.8958 20.0039 24.8142 19.5414 24.5717 19.1176C24.2432 18.5458 23.7334 18.2291 23.0989 18.1106C22.4395 17.9876 21.8051 18.0764 21.2114 18.3931C20.7197 18.6551 20.4206 19.088 20.2189 19.5961C20.0762 19.9583 20.0105 20.3365 20.0105 20.7284C20.0105 22.8609 20.0105 24.9957 20.0105 27.1282C20.0105 27.2269 19.9614 27.2763 19.8632 27.2763H16.4236C16.339 27.2763 16.2967 27.2337 16.2967 27.1487C16.2967 23.0865 16.2967 19.0242 16.2967 14.962C16.2967 14.8298 16.2967 14.8298 16.4326 14.8298C17.5089 14.8298 18.583 14.8298 19.6593 14.8298C19.7952 14.8298 19.7952 14.8298 19.7952 14.9711C19.7952 15.4814 19.7952 15.9918 19.7952 16.4998C19.7952 16.5363 19.7997 16.5728 19.8043 16.6092C19.8156 16.616 19.8269 16.6206 19.8383 16.6274C19.8473 16.6069 19.8564 16.5864 19.87 16.5682C20.4931 15.7207 21.327 15.1648 22.3126 14.8481C23.5498 14.4516 24.7847 14.4835 25.9766 15.0326C26.5703 15.306 27.1141 15.6705 27.5265 16.1923C27.9434 16.7186 28.2085 17.3292 28.417 17.9648C28.5597 18.4022 28.6232 18.8533 28.6232 19.3136C28.6209 21.9017 28.6232 24.4899 28.6232 27.0781C28.6232 27.1145 28.6232 27.1487 28.6232 27.1851L28.6186 27.192Z" fill="white"/>
</svg>
