<svg width="21" height="21" viewBox="0 0 21 21" fill="none" xmlns="http://www.w3.org/2000/svg">
<mask id="mask0_1_417" style="mask-type:alpha" maskUnits="userSpaceOnUse" x="0" y="0" width="21" height="21">
<rect width="21" height="21" fill="#D9D9D9"/>
</mask>
<g mask="url(#mask0_1_417)">
<path d="M10.5 13.125C11.2292 13.125 11.849 12.8698 12.3594 12.3594C12.8698 11.849 13.125 11.2292 13.125 10.5C13.125 9.77083 12.8698 9.15104 12.3594 8.64062C11.849 8.13021 11.2292 7.875 10.5 7.875C9.77083 7.875 9.15104 8.13021 8.64062 8.64062C8.13021 9.15104 7.875 9.77083 7.875 10.5C7.875 11.2292 8.13021 11.849 8.64062 12.3594C9.15104 12.8698 9.77083 13.125 10.5 13.125ZM10.5 19.25C9.28958 19.25 8.15208 19.0203 7.0875 18.5609C6.02292 18.1016 5.09687 17.4781 4.30938 16.6906C3.52187 15.9031 2.89844 14.9771 2.43906 13.9125C1.97969 12.8479 1.75 11.7104 1.75 10.5C1.75 9.28958 1.97969 8.15208 2.43906 7.0875C2.89844 6.02292 3.52187 5.09687 4.30938 4.30938C5.09687 3.52187 6.02292 2.89844 7.0875 2.43906C8.15208 1.97969 9.28958 1.75 10.5 1.75C11.7104 1.75 12.8479 1.97969 13.9125 2.43906C14.9771 2.89844 15.9031 3.52187 16.6906 4.30938C17.4781 5.09687 18.1016 6.02292 18.5609 7.0875C19.0203 8.15208 19.25 9.28958 19.25 10.5C19.25 11.7104 19.0203 12.8479 18.5609 13.9125C18.1016 14.9771 17.4781 15.9031 16.6906 16.6906C15.9031 17.4781 14.9771 18.1016 13.9125 18.5609C12.8479 19.0203 11.7104 19.25 10.5 19.25Z" fill="#0189A9"/>
</g>
</svg>
