<svg width="139" height="54" viewBox="0 0 139 54" fill="none" xmlns="http://www.w3.org/2000/svg">
<g clip-path="url(#clip0_3_480)">
<path d="M11.7252 18.4216C20.777 12.2815 29.8275 6.14013 38.8793 0C38.9038 0.0282446 38.9282 0.0577172 38.9514 0.0859618C27.4062 10.3744 15.861 20.6628 4.31579 30.9524L4.39038 31.0826C7.65914 30.207 10.9279 29.3302 14.1967 28.4546C14.2211 28.4914 14.2468 28.5271 14.2713 28.5639C11.1761 32.3745 8.08104 36.185 4.98348 39.9993C0.138425 34.8428 -1.97471 25.7333 2.3286 17.6995C6.77133 9.40668 15.7644 6.13645 23.4257 7.76481C21.419 9.55773 19.4722 11.2991 17.5217 13.038C15.559 14.7891 13.5926 16.5378 11.6286 18.2878C11.6604 18.3332 11.6922 18.3774 11.724 18.4228L11.7252 18.4216Z" fill="white"/>
<path d="M27.7419 35.3402C18.5874 41.5601 9.43418 47.7801 0.279691 54C0.251565 53.9656 0.223439 53.9313 0.195312 53.8969C11.7552 43.6072 23.3163 33.3188 34.8762 23.0292C34.8493 22.9801 34.8212 22.931 34.7943 22.8806C31.5243 23.7599 28.2531 24.6391 24.9831 25.5184C24.9562 25.484 24.9293 25.4496 24.9024 25.4153C27.9951 21.6108 31.0865 17.8064 34.1828 13.9971C39.0805 19.2236 41.0359 28.2925 36.8903 36.1408C32.4366 44.5725 23.3469 47.8476 15.754 46.2045C19.8177 42.5843 23.8275 39.012 27.8361 35.4396C27.8043 35.4065 27.7725 35.3721 27.7407 35.3389L27.7419 35.3402Z" fill="white"/>
<path d="M47.7519 35.2358C46.5302 34.5984 45.5923 33.7007 44.938 32.5427C44.2838 31.3847 43.9561 30.0314 43.9561 28.4816C43.9561 26.9319 44.274 25.543 44.9087 24.3763C45.5434 23.2097 46.4324 22.3071 47.5758 21.6685C48.7192 21.0312 50.0325 20.7119 51.5171 20.7119C53.0017 20.7119 54.408 21.0116 55.5612 21.6096C56.7144 22.2089 57.6169 23.0513 58.2723 24.1406C58.9266 25.2298 59.2641 26.4996 59.2836 27.9524C59.2836 28.2078 59.2788 28.4583 59.269 28.7027C59.2592 28.9483 59.2249 29.1878 59.1662 29.4235H48.2643V29.512C48.3034 30.2377 48.4746 30.8652 48.7766 31.3957C49.0799 31.925 49.4896 32.3327 50.0081 32.6176C50.5254 32.9025 51.1258 33.045 51.8106 33.045C52.6507 33.045 53.349 32.8583 53.9066 32.4862C54.463 32.1141 54.8201 31.5836 54.9767 30.8972H59.1088C58.9327 31.8784 58.5414 32.7711 57.936 33.5755C57.3307 34.3798 56.5297 35.0172 55.5331 35.4888C54.5364 35.9603 53.393 36.1949 52.1041 36.1949C50.4239 36.1949 48.9723 35.8756 47.7519 35.2382V35.2358ZM50.1255 24.1553C49.6461 24.3911 49.2511 24.7251 48.9381 25.1561C48.625 25.5884 48.4294 26.098 48.3523 26.6863H55.1515C55.0341 25.764 54.6685 25.053 54.0522 24.552C53.4371 24.0521 52.6605 23.8016 51.7226 23.8016C51.1368 23.8016 50.6036 23.9195 50.1255 24.1553Z" fill="white"/>
<path d="M65.233 20.8875L65.9655 24.7141L64.8808 23.7722C65.4666 22.8106 66.1747 22.0603 67.0062 21.5212C67.8365 20.9821 68.9164 20.7119 70.2444 20.7119C72.0225 20.7119 73.4679 21.2559 74.582 22.3452C75.696 23.4344 76.2524 25.2544 76.2524 27.805V36.0168H72.1203V28.0408C72.1203 26.7464 71.8757 25.7702 71.3878 25.1119C70.8986 24.4549 70.1368 24.1258 69.1022 24.1258C68.3991 24.1258 67.7925 24.2928 67.285 24.6256C66.7763 24.9597 66.3911 25.4349 66.127 26.0526C65.8628 26.6703 65.7307 27.412 65.7307 28.2741V36.0143H61.5986V20.8863H65.233V20.8875Z" fill="white"/>
<path d="M82.1005 35.2358C80.8788 34.5984 79.9409 33.7007 79.2867 32.5427C78.6324 31.3847 78.3047 30.0314 78.3047 28.4816C78.3047 26.9319 78.6214 25.543 79.2573 24.3763C79.892 23.2097 80.781 22.3071 81.9244 21.6685C83.0678 21.0312 84.3812 20.7119 85.867 20.7119C87.3528 20.7119 88.7579 21.0116 89.911 21.6096C91.063 22.2089 91.9667 23.0513 92.6222 24.1406C93.2764 25.2298 93.6139 26.4996 93.6335 27.9524C93.6335 28.2078 93.6286 28.4583 93.6188 28.7027C93.609 28.9483 93.5748 29.1878 93.5161 29.4235H82.6141V29.512C82.6533 30.2377 82.8232 30.8652 83.1265 31.3957C83.4298 31.925 83.8394 32.3327 84.3579 32.6176C84.8752 32.9025 85.4757 33.045 86.1605 33.045C87.0006 33.045 87.6989 32.8583 88.2565 32.4862C88.8129 32.1141 89.17 31.5836 89.3265 30.8972H93.4586C93.2825 31.8784 92.8912 32.7711 92.2859 33.5755C91.6806 34.3798 90.8796 35.0172 89.8829 35.4888C88.8863 35.9603 87.7429 36.1949 86.454 36.1949C84.7737 36.1949 83.3222 35.8756 82.1017 35.2382L82.1005 35.2358ZM84.4741 24.1553C83.9948 24.3911 83.5998 24.7251 83.2867 25.1561C82.9736 25.5884 82.778 26.098 82.7009 26.6863H89.5002C89.3828 25.764 89.0159 25.053 88.4008 24.552C87.7857 24.0521 87.0092 23.8016 86.0712 23.8016C85.4854 23.8016 84.9523 23.9195 84.4741 24.1553Z" fill="white"/>
<path d="M99.6991 20.8875L100.432 25.0959L99.523 24.3014C99.9718 23.1826 100.559 22.3341 101.281 21.7557C102.004 21.1773 103.05 20.8875 104.417 20.8875H105.12V24.6256H103.45C102.277 24.6256 101.422 24.9841 100.885 25.7001C100.347 26.416 100.079 27.3825 100.079 28.5995V36.0155H95.9473V20.8875H99.6991Z" fill="white"/>
<path d="M108.315 40.6648C107.005 39.7229 106.302 38.3881 106.206 36.6627H110.367C110.543 37.4081 110.919 37.973 111.496 38.3549C112.072 38.738 112.839 38.9284 113.796 38.9284C114.987 38.9284 115.901 38.6337 116.537 38.0454C117.171 37.4572 117.489 36.5841 117.489 35.4261V31.8058L118.134 32.7477C117.644 33.7486 116.961 34.5284 116.082 35.0871C115.202 35.6459 114.137 35.9259 112.887 35.9259C111.54 35.9259 110.333 35.6127 109.268 34.984C108.203 34.3565 107.372 33.4637 106.777 32.3056C106.18 31.1476 105.883 29.814 105.883 28.3035C105.883 26.793 106.18 25.4582 106.777 24.3014C107.372 23.1433 108.203 22.2518 109.268 21.623C110.333 20.9955 111.529 20.6812 112.858 20.6812C114.187 20.6812 115.227 20.9906 116.096 21.6083C116.966 22.226 117.664 23.0463 118.192 24.0656L117.196 25.0075L117.899 20.8875H121.563V35.544C121.563 37.5456 120.908 39.1347 119.599 40.3124C118.289 41.4901 116.258 42.0783 113.503 42.0783C111.353 42.0783 109.624 41.6079 108.315 40.6661V40.6648ZM115.729 32.0711C116.276 31.7174 116.702 31.2176 117.004 30.5704C117.307 29.9233 117.457 29.1877 117.457 28.3637C117.457 27.5397 117.306 26.7697 117.004 26.1127C116.7 25.4557 116.276 24.9498 115.729 24.5973C115.182 24.2437 114.537 24.068 113.795 24.068C113.053 24.068 112.398 24.2449 111.831 24.5973C111.263 24.951 110.829 25.4508 110.526 26.098C110.223 26.7451 110.072 27.4918 110.072 28.3342C110.072 29.1766 110.224 29.9233 110.526 30.5704C110.829 31.2176 111.263 31.7187 111.831 32.0711C112.397 32.4248 113.051 32.6004 113.795 32.6004C114.538 32.6004 115.182 32.4235 115.729 32.0711Z" fill="white"/>
<path d="M127.336 20.8875L131 31.7186L134.605 20.8875H139.001L132.319 38.1633C131.967 39.0856 131.635 39.8064 131.322 40.3271C131.009 40.8466 130.614 41.2395 130.135 41.5048C129.656 41.77 129.036 41.9027 128.274 41.9027H124.259V38.4003H126.545C126.915 38.4003 127.204 38.361 127.409 38.2824C127.615 38.2038 127.791 38.081 127.936 37.914C128.083 37.747 128.224 37.4769 128.361 37.1048L128.742 36.1334L122.91 20.8887H127.336V20.8875Z" fill="white"/>
</g>
<defs>
<clipPath id="clip0_3_480">
<rect width="139" height="54" fill="white"/>
</clipPath>
</defs>
</svg>
