<svg width="593" height="508" viewBox="0 0 593 508" fill="none" xmlns="http://www.w3.org/2000/svg">
<rect width="1.78346" height="2" fill="#A7A7A7"/>
<rect x="45.4766" width="1.78346" height="2" fill="#A7A7A7"/>
<rect x="90.957" width="1.78346" height="2" fill="#A7A7A7"/>
<rect x="136.434" width="1.78346" height="2" fill="#A7A7A7"/>
<rect x="181.914" width="1.78346" height="2" fill="#A7A7A7"/>
<rect x="227.391" width="1.78346" height="2" fill="#A7A7A7"/>
<rect x="272.871" width="1.78346" height="2" fill="#A7A7A7"/>
<rect x="318.348" width="1.78346" height="2" fill="#A7A7A7"/>
<rect x="363.824" width="1.78346" height="2" fill="#A7A7A7"/>
<rect x="409.305" width="1.78346" height="2" fill="#A7A7A7"/>
<rect x="454.781" width="1.78346" height="2" fill="#A7A7A7"/>
<rect x="500.262" width="1.78346" height="2" fill="#A7A7A7"/>
<rect x="545.738" width="1.78346" height="2" fill="#A7A7A7"/>
<rect x="591.215" width="1.78346" height="2" fill="#A7A7A7"/>
<rect y="46" width="1.78346" height="2" fill="#A7A7A7"/>
<rect x="45.4766" y="46" width="1.78346" height="2" fill="#A7A7A7"/>
<rect x="90.957" y="46" width="1.78346" height="2" fill="#A7A7A7"/>
<rect x="136.434" y="46" width="1.78346" height="2" fill="#A7A7A7"/>
<rect x="181.914" y="46" width="1.78346" height="2" fill="#A7A7A7"/>
<rect x="227.391" y="46" width="1.78346" height="2" fill="#A7A7A7"/>
<rect x="272.871" y="46" width="1.78346" height="2" fill="#A7A7A7"/>
<rect x="318.348" y="46" width="1.78346" height="2" fill="#A7A7A7"/>
<rect x="363.824" y="46" width="1.78346" height="2" fill="#A7A7A7"/>
<rect x="409.305" y="46" width="1.78346" height="2" fill="#A7A7A7"/>
<rect x="454.781" y="46" width="1.78346" height="2" fill="#A7A7A7"/>
<rect x="500.262" y="46" width="1.78346" height="2" fill="#A7A7A7"/>
<rect x="545.738" y="46" width="1.78346" height="2" fill="#A7A7A7"/>
<rect x="591.215" y="46" width="1.78346" height="2" fill="#A7A7A7"/>
<rect y="92" width="1.78346" height="2" fill="#A7A7A7"/>
<rect x="45.4766" y="92" width="1.78346" height="2" fill="#A7A7A7"/>
<rect x="90.957" y="92" width="1.78346" height="2" fill="#A7A7A7"/>
<rect x="136.434" y="92" width="1.78346" height="2" fill="#A7A7A7"/>
<rect x="181.914" y="92" width="1.78346" height="2" fill="#A7A7A7"/>
<rect x="227.391" y="92" width="1.78346" height="2" fill="#A7A7A7"/>
<rect x="272.871" y="92" width="1.78346" height="2" fill="#A7A7A7"/>
<rect x="318.348" y="92" width="1.78346" height="2" fill="#A7A7A7"/>
<rect x="363.824" y="92" width="1.78346" height="2" fill="#A7A7A7"/>
<rect x="409.305" y="92" width="1.78346" height="2" fill="#A7A7A7"/>
<rect x="454.781" y="92" width="1.78346" height="2" fill="#A7A7A7"/>
<rect x="500.262" y="92" width="1.78346" height="2" fill="#A7A7A7"/>
<rect x="545.738" y="92" width="1.78346" height="2" fill="#A7A7A7"/>
<rect x="591.215" y="92" width="1.78346" height="2" fill="#A7A7A7"/>
<rect y="138" width="1.78346" height="2" fill="#A7A7A7"/>
<rect x="45.4766" y="138" width="1.78346" height="2" fill="#A7A7A7"/>
<rect x="90.957" y="138" width="1.78346" height="2" fill="#A7A7A7"/>
<rect x="136.434" y="138" width="1.78346" height="2" fill="#A7A7A7"/>
<rect x="181.914" y="138" width="1.78346" height="2" fill="#A7A7A7"/>
<rect x="227.391" y="138" width="1.78346" height="2" fill="#A7A7A7"/>
<rect x="272.871" y="138" width="1.78346" height="2" fill="#A7A7A7"/>
<rect x="318.348" y="138" width="1.78346" height="2" fill="#A7A7A7"/>
<rect x="363.824" y="138" width="1.78346" height="2" fill="#A7A7A7"/>
<rect x="409.305" y="138" width="1.78346" height="2" fill="#A7A7A7"/>
<rect x="454.781" y="138" width="1.78346" height="2" fill="#A7A7A7"/>
<rect x="500.262" y="138" width="1.78346" height="2" fill="#A7A7A7"/>
<rect x="545.738" y="138" width="1.78346" height="2" fill="#A7A7A7"/>
<rect x="591.215" y="138" width="1.78346" height="2" fill="#A7A7A7"/>
<rect y="184" width="1.78346" height="2" fill="#A7A7A7"/>
<rect x="45.4766" y="184" width="1.78346" height="2" fill="#A7A7A7"/>
<rect x="90.957" y="184" width="1.78346" height="2" fill="#A7A7A7"/>
<rect x="136.434" y="184" width="1.78346" height="2" fill="#A7A7A7"/>
<rect x="181.914" y="184" width="1.78346" height="2" fill="#A7A7A7"/>
<rect x="227.391" y="184" width="1.78346" height="2" fill="#A7A7A7"/>
<rect x="272.871" y="184" width="1.78346" height="2" fill="#A7A7A7"/>
<rect x="318.348" y="184" width="1.78346" height="2" fill="#A7A7A7"/>
<rect x="363.824" y="184" width="1.78346" height="2" fill="#A7A7A7"/>
<rect x="409.305" y="184" width="1.78346" height="2" fill="#A7A7A7"/>
<rect x="454.781" y="184" width="1.78346" height="2" fill="#A7A7A7"/>
<rect x="500.262" y="184" width="1.78346" height="2" fill="#A7A7A7"/>
<rect x="545.738" y="184" width="1.78346" height="2" fill="#A7A7A7"/>
<rect x="591.215" y="184" width="1.78346" height="2" fill="#A7A7A7"/>
<rect y="230" width="1.78346" height="2" fill="#A7A7A7"/>
<rect x="45.4766" y="230" width="1.78346" height="2" fill="#A7A7A7"/>
<rect x="90.957" y="230" width="1.78346" height="2" fill="#A7A7A7"/>
<rect x="136.434" y="230" width="1.78346" height="2" fill="#A7A7A7"/>
<rect x="181.914" y="230" width="1.78346" height="2" fill="#A7A7A7"/>
<rect x="227.391" y="230" width="1.78346" height="2" fill="#A7A7A7"/>
<rect x="272.871" y="230" width="1.78346" height="2" fill="#A7A7A7"/>
<rect x="318.348" y="230" width="1.78346" height="2" fill="#A7A7A7"/>
<rect x="363.824" y="230" width="1.78346" height="2" fill="#A7A7A7"/>
<rect x="409.305" y="230" width="1.78346" height="2" fill="#A7A7A7"/>
<rect x="454.781" y="230" width="1.78346" height="2" fill="#A7A7A7"/>
<rect x="500.262" y="230" width="1.78346" height="2" fill="#A7A7A7"/>
<rect x="545.738" y="230" width="1.78346" height="2" fill="#A7A7A7"/>
<rect x="591.215" y="230" width="1.78346" height="2" fill="#A7A7A7"/>
<rect y="276" width="1.78346" height="2" fill="#A7A7A7"/>
<rect x="45.4766" y="276" width="1.78346" height="2" fill="#A7A7A7"/>
<rect x="90.957" y="276" width="1.78346" height="2" fill="#A7A7A7"/>
<rect x="136.434" y="276" width="1.78346" height="2" fill="#A7A7A7"/>
<rect x="181.914" y="276" width="1.78346" height="2" fill="#A7A7A7"/>
<rect x="227.391" y="276" width="1.78346" height="2" fill="#A7A7A7"/>
<rect x="272.871" y="276" width="1.78346" height="2" fill="#A7A7A7"/>
<rect x="318.348" y="276" width="1.78346" height="2" fill="#A7A7A7"/>
<rect x="363.824" y="276" width="1.78346" height="2" fill="#A7A7A7"/>
<rect x="409.305" y="276" width="1.78346" height="2" fill="#A7A7A7"/>
<rect x="454.781" y="276" width="1.78346" height="2" fill="#A7A7A7"/>
<rect x="500.262" y="276" width="1.78346" height="2" fill="#A7A7A7"/>
<rect x="545.738" y="276" width="1.78346" height="2" fill="#A7A7A7"/>
<rect x="591.215" y="276" width="1.78346" height="2" fill="#A7A7A7"/>
<rect y="322" width="1.78346" height="2" fill="#A7A7A7"/>
<rect x="45.4766" y="322" width="1.78346" height="2" fill="#A7A7A7"/>
<rect x="90.957" y="322" width="1.78346" height="2" fill="#A7A7A7"/>
<rect x="136.434" y="322" width="1.78346" height="2" fill="#A7A7A7"/>
<rect x="181.914" y="322" width="1.78346" height="2" fill="#A7A7A7"/>
<rect x="227.391" y="322" width="1.78346" height="2" fill="#A7A7A7"/>
<rect x="272.871" y="322" width="1.78346" height="2" fill="#A7A7A7"/>
<rect x="318.348" y="322" width="1.78346" height="2" fill="#A7A7A7"/>
<rect x="363.824" y="322" width="1.78346" height="2" fill="#A7A7A7"/>
<rect x="409.305" y="322" width="1.78346" height="2" fill="#A7A7A7"/>
<rect x="454.781" y="322" width="1.78346" height="2" fill="#A7A7A7"/>
<rect x="500.262" y="322" width="1.78346" height="2" fill="#A7A7A7"/>
<rect x="545.738" y="322" width="1.78346" height="2" fill="#A7A7A7"/>
<rect x="591.215" y="322" width="1.78346" height="2" fill="#A7A7A7"/>
<rect y="368" width="1.78346" height="2" fill="#A7A7A7"/>
<rect x="45.4766" y="368" width="1.78346" height="2" fill="#A7A7A7"/>
<rect x="90.957" y="368" width="1.78346" height="2" fill="#A7A7A7"/>
<rect x="136.434" y="368" width="1.78346" height="2" fill="#A7A7A7"/>
<rect x="181.914" y="368" width="1.78346" height="2" fill="#A7A7A7"/>
<rect x="227.391" y="368" width="1.78346" height="2" fill="#A7A7A7"/>
<rect x="272.871" y="368" width="1.78346" height="2" fill="#A7A7A7"/>
<rect x="318.348" y="368" width="1.78346" height="2" fill="#A7A7A7"/>
<rect x="363.824" y="368" width="1.78346" height="2" fill="#A7A7A7"/>
<rect x="409.305" y="368" width="1.78346" height="2" fill="#A7A7A7"/>
<rect x="454.781" y="368" width="1.78346" height="2" fill="#A7A7A7"/>
<rect x="500.262" y="368" width="1.78346" height="2" fill="#A7A7A7"/>
<rect x="545.738" y="368" width="1.78346" height="2" fill="#A7A7A7"/>
<rect x="591.215" y="368" width="1.78346" height="2" fill="#A7A7A7"/>
<rect y="414" width="1.78346" height="2" fill="#A7A7A7"/>
<rect x="45.4766" y="414" width="1.78346" height="2" fill="#A7A7A7"/>
<rect x="90.957" y="414" width="1.78346" height="2" fill="#A7A7A7"/>
<rect x="136.434" y="414" width="1.78346" height="2" fill="#A7A7A7"/>
<rect x="181.914" y="414" width="1.78346" height="2" fill="#A7A7A7"/>
<rect x="227.391" y="414" width="1.78346" height="2" fill="#A7A7A7"/>
<rect x="272.871" y="414" width="1.78346" height="2" fill="#A7A7A7"/>
<rect x="318.348" y="414" width="1.78346" height="2" fill="#A7A7A7"/>
<rect x="363.824" y="414" width="1.78346" height="2" fill="#A7A7A7"/>
<rect x="409.305" y="414" width="1.78346" height="2" fill="#A7A7A7"/>
<rect x="454.781" y="414" width="1.78346" height="2" fill="#A7A7A7"/>
<rect x="500.262" y="414" width="1.78346" height="2" fill="#A7A7A7"/>
<rect x="545.738" y="414" width="1.78346" height="2" fill="#A7A7A7"/>
<rect x="591.215" y="414" width="1.78346" height="2" fill="#A7A7A7"/>
<rect y="460" width="1.78346" height="2" fill="#A7A7A7"/>
<rect x="45.4766" y="460" width="1.78346" height="2" fill="#A7A7A7"/>
<rect x="90.957" y="460" width="1.78346" height="2" fill="#A7A7A7"/>
<rect x="136.434" y="460" width="1.78346" height="2" fill="#A7A7A7"/>
<rect x="181.914" y="460" width="1.78346" height="2" fill="#A7A7A7"/>
<rect x="227.391" y="460" width="1.78346" height="2" fill="#A7A7A7"/>
<rect x="272.871" y="460" width="1.78346" height="2" fill="#A7A7A7"/>
<rect x="318.348" y="460" width="1.78346" height="2" fill="#A7A7A7"/>
<rect x="363.824" y="460" width="1.78346" height="2" fill="#A7A7A7"/>
<rect x="409.305" y="460" width="1.78346" height="2" fill="#A7A7A7"/>
<rect x="454.781" y="460" width="1.78346" height="2" fill="#A7A7A7"/>
<rect x="500.262" y="460" width="1.78346" height="2" fill="#A7A7A7"/>
<rect x="545.738" y="460" width="1.78346" height="2" fill="#A7A7A7"/>
<rect x="591.215" y="460" width="1.78346" height="2" fill="#A7A7A7"/>
<rect y="506" width="1.78346" height="2" fill="#A7A7A7"/>
<rect x="45.4766" y="506" width="1.78346" height="2" fill="#A7A7A7"/>
<rect x="90.957" y="506" width="1.78346" height="2" fill="#A7A7A7"/>
<rect x="136.434" y="506" width="1.78346" height="2" fill="#A7A7A7"/>
<rect x="181.914" y="506" width="1.78346" height="2" fill="#A7A7A7"/>
<rect x="227.391" y="506" width="1.78346" height="2" fill="#A7A7A7"/>
<rect x="272.871" y="506" width="1.78346" height="2" fill="#A7A7A7"/>
<rect x="318.348" y="506" width="1.78346" height="2" fill="#A7A7A7"/>
<rect x="363.824" y="506" width="1.78346" height="2" fill="#A7A7A7"/>
<rect x="409.305" y="506" width="1.78346" height="2" fill="#A7A7A7"/>
<rect x="454.781" y="506" width="1.78346" height="2" fill="#A7A7A7"/>
<rect x="500.262" y="506" width="1.78346" height="2" fill="#A7A7A7"/>
<rect x="545.738" y="506" width="1.78346" height="2" fill="#A7A7A7"/>
<rect x="591.215" y="506" width="1.78346" height="2" fill="#A7A7A7"/>
</svg>
