<svg width="113" height="44" viewBox="0 0 113 44" fill="none" xmlns="http://www.w3.org/2000/svg">
<path d="M15.1 25.42L8.44 32.26V43H0.64V0.999997H8.44V22.54L29.2 0.999997H37.96L20.32 19.78L39.04 43H29.92L15.1 25.42ZM60.4675 43.6C56.2275 43.6 52.3875 42.68 48.9475 40.84C45.5475 38.96 42.8675 36.38 40.9075 33.1C38.9875 29.82 38.0275 26.12 38.0275 22C38.0275 17.88 39.0075 14.18 40.9675 10.9C42.9275 7.62 45.6075 5.06 49.0075 3.22C52.4475 1.34 56.2875 0.399998 60.5275 0.399998C63.9675 0.399998 67.1075 0.999998 69.9475 2.2C72.7875 3.4 75.1875 5.14 77.1475 7.42L72.1075 12.16C69.0675 8.88 65.3275 7.24 60.8875 7.24C58.0075 7.24 55.4275 7.88 53.1475 9.16C50.8675 10.4 49.0875 12.14 47.8075 14.38C46.5275 16.62 45.8875 19.16 45.8875 22C45.8875 24.84 46.5275 27.38 47.8075 29.62C49.0875 31.86 50.8675 33.62 53.1475 34.9C55.4275 36.14 58.0075 36.76 60.8875 36.76C65.3275 36.76 69.0675 35.1 72.1075 31.78L77.1475 36.58C75.1875 38.86 72.7675 40.6 69.8875 41.8C67.0475 43 63.9075 43.6 60.4675 43.6ZM95.6069 43.6C92.3669 43.6 89.2269 43.14 86.1869 42.22C83.1869 41.3 80.8069 40.08 79.0469 38.56L81.7469 32.5C83.4669 33.86 85.5669 34.98 88.0469 35.86C90.5669 36.7 93.0869 37.12 95.6069 37.12C98.7269 37.12 101.047 36.62 102.567 35.62C104.127 34.62 104.907 33.3 104.907 31.66C104.907 30.46 104.467 29.48 103.587 28.72C102.747 27.92 101.667 27.3 100.347 26.86C99.0269 26.42 97.2269 25.92 94.9469 25.36C91.7469 24.6 89.1469 23.84 87.1469 23.08C85.1869 22.32 83.4869 21.14 82.0469 19.54C80.6469 17.9 79.9469 15.7 79.9469 12.94C79.9469 10.62 80.5669 8.52 81.8069 6.64C83.0869 4.72 84.9869 3.2 87.5069 2.08C90.0669 0.959998 93.1869 0.399998 96.8669 0.399998C99.4269 0.399998 101.947 0.719998 104.427 1.36C106.907 2 109.047 2.92 110.847 4.12L108.387 10.18C106.547 9.1 104.627 8.28 102.627 7.72C100.627 7.16 98.6869 6.88 96.8069 6.88C93.7269 6.88 91.4269 7.4 89.9069 8.44C88.4269 9.48 87.6869 10.86 87.6869 12.58C87.6869 13.78 88.1069 14.76 88.9469 15.52C89.8269 16.28 90.9269 16.88 92.2469 17.32C93.5669 17.76 95.3669 18.26 97.6469 18.82C100.767 19.54 103.327 20.3 105.327 21.1C107.327 21.86 109.027 23.04 110.427 24.64C111.867 26.24 112.587 28.4 112.587 31.12C112.587 33.44 111.947 35.54 110.667 37.42C109.427 39.3 107.527 40.8 104.967 41.92C102.407 43.04 99.2869 43.6 95.6069 43.6Z" fill="#336CFF"/>
</svg>
