<svg width="67" height="16" viewBox="0 0 67 16" fill="none" xmlns="http://www.w3.org/2000/svg">
<path d="M11.4199 5.42969L9.85742 2.08984L4.87695 3.07617L5.0625 6.65039H6.53711L8.1582 4.29688V10.2344L6.45898 7.61719L5.12109 7.77344L5.38477 12.6562L8.25586 13.877L0.804688 14.668L2.92383 12.7734L3.44141 3.4082L0.775391 1.05469L11.4199 0.673828V5.42969ZM11.7715 9.57031C11.7715 8.84115 11.8854 8.16732 12.1133 7.54883C12.3477 6.92383 12.6699 6.38346 13.0801 5.92773C13.4967 5.47201 13.9883 5.11719 14.5547 4.86328C15.1276 4.60286 15.7526 4.47266 16.4297 4.47266C17.0872 4.47266 17.6895 4.59635 18.2363 4.84375C18.7832 5.08464 19.2585 5.42643 19.6621 5.86914C20.0658 6.31185 20.388 6.84245 20.6289 7.46094C20.8698 8.07943 21.013 8.76302 21.0586 9.51172C21.1042 10.3125 21.0195 11.0384 20.8047 11.6895C20.5964 12.334 20.2871 12.8841 19.877 13.3398C19.4668 13.7891 18.9753 14.1374 18.4023 14.3848C17.8359 14.6322 17.2207 14.7559 16.5566 14.7559C15.9186 14.7559 15.3099 14.6419 14.7305 14.4141C14.1576 14.1797 13.6497 13.8411 13.207 13.3984C12.7708 12.9557 12.4225 12.4154 12.1621 11.7773C11.9017 11.1328 11.7715 10.3971 11.7715 9.57031ZM14.1738 9.73633C14.1738 10.3092 14.2552 10.8268 14.418 11.2891C14.5807 11.7513 14.7988 12.1452 15.0723 12.4707C15.3457 12.7897 15.6615 13.0371 16.0195 13.2129C16.3776 13.3887 16.7552 13.4766 17.1523 13.4766C17.5495 13.4766 17.9206 13.3919 18.2656 13.2227C18.6107 13.0469 18.9102 12.8027 19.1641 12.4902C19.418 12.1712 19.6165 11.7904 19.7598 11.3477C19.903 10.9049 19.9746 10.4134 19.9746 9.87305C19.9746 9.33919 19.903 8.83789 19.7598 8.36914C19.6165 7.89388 19.4147 7.48047 19.1543 7.12891C18.9004 6.77734 18.5977 6.50065 18.2461 6.29883C17.8945 6.09701 17.5104 5.99609 17.0938 5.99609C16.7227 5.99609 16.3613 6.08073 16.0098 6.25C15.6647 6.41927 15.3555 6.66667 15.082 6.99219C14.8086 7.3112 14.5872 7.70182 14.418 8.16406C14.2552 8.6263 14.1738 9.15039 14.1738 9.73633ZM22.1816 9.57031C22.1816 8.84115 22.2956 8.16732 22.5234 7.54883C22.7578 6.92383 23.0801 6.38346 23.4902 5.92773C23.9069 5.47201 24.3984 5.11719 24.9648 4.86328C25.5378 4.60286 26.1628 4.47266 26.8398 4.47266C27.4974 4.47266 28.0996 4.59635 28.6465 4.84375C29.1934 5.08464 29.6686 5.42643 30.0723 5.86914C30.4759 6.31185 30.7982 6.84245 31.0391 7.46094C31.2799 8.07943 31.4232 8.76302 31.4688 9.51172C31.5143 10.3125 31.4297 11.0384 31.2148 11.6895C31.0065 12.334 30.6973 12.8841 30.2871 13.3398C29.877 13.7891 29.3854 14.1374 28.8125 14.3848C28.2461 14.6322 27.6309 14.7559 26.9668 14.7559C26.3288 14.7559 25.7201 14.6419 25.1406 14.4141C24.5677 14.1797 24.0599 13.8411 23.6172 13.3984C23.181 12.9557 22.8327 12.4154 22.5723 11.7773C22.3118 11.1328 22.1816 10.3971 22.1816 9.57031ZM24.584 9.73633C24.584 10.3092 24.6654 10.8268 24.8281 11.2891C24.9909 11.7513 25.209 12.1452 25.4824 12.4707C25.7559 12.7897 26.0716 13.0371 26.4297 13.2129C26.7878 13.3887 27.1654 13.4766 27.5625 13.4766C27.9596 13.4766 28.3307 13.3919 28.6758 13.2227C29.0208 13.0469 29.3203 12.8027 29.5742 12.4902C29.8281 12.1712 30.0267 11.7904 30.1699 11.3477C30.3132 10.9049 30.3848 10.4134 30.3848 9.87305C30.3848 9.33919 30.3132 8.83789 30.1699 8.36914C30.0267 7.89388 29.8249 7.48047 29.5645 7.12891C29.3105 6.77734 29.0078 6.50065 28.6562 6.29883C28.3047 6.09701 27.9206 5.99609 27.5039 5.99609C27.1328 5.99609 26.7715 6.08073 26.4199 6.25C26.0749 6.41927 25.7656 6.66667 25.4922 6.99219C25.2188 7.3112 24.9974 7.70182 24.8281 8.16406C24.6654 8.6263 24.584 9.15039 24.584 9.73633ZM40.7363 13.252L42.8945 14.0527L39.3594 14.7363L39.3984 12.832C39.2422 13.099 39.0632 13.3561 38.8613 13.6035C38.6595 13.8444 38.4316 14.0592 38.1777 14.248C37.9303 14.4368 37.6536 14.5866 37.3477 14.6973C37.0417 14.8145 36.7096 14.873 36.3516 14.873C35.8438 14.86 35.362 14.7461 34.9062 14.5312C34.457 14.3164 34.0599 14.0104 33.7148 13.6133C33.3763 13.2096 33.1061 12.7181 32.9043 12.1387C32.709 11.5527 32.6113 10.8854 32.6113 10.1367C32.6113 9.22526 32.7188 8.42773 32.9336 7.74414C33.1484 7.06055 33.4414 6.49089 33.8125 6.03516C34.1836 5.57943 34.6165 5.23763 35.1113 5.00977C35.6126 4.7819 36.1465 4.66797 36.7129 4.66797C37.2858 4.66797 37.8164 4.79167 38.3047 5.03906C38.7995 5.27995 39.2031 5.60547 39.5156 6.01562L39.5547 3.71094L37.1719 2.8125L41.9961 1.95312L40.7363 13.252ZM36.6543 13.6328C36.6738 13.6328 36.7389 13.6263 36.8496 13.6133C36.9603 13.6003 37.097 13.5677 37.2598 13.5156C37.4225 13.457 37.6016 13.3724 37.7969 13.2617C37.9987 13.151 38.1973 12.998 38.3926 12.8027C38.5944 12.6009 38.7865 12.3503 38.9688 12.0508C39.151 11.7513 39.3073 11.3867 39.4375 10.957L39.4961 7.77344C39.3984 7.53906 39.2747 7.31445 39.125 7.09961C38.9818 6.88477 38.819 6.69596 38.6367 6.5332C38.4609 6.36393 38.2624 6.23047 38.041 6.13281C37.8262 6.02865 37.5983 5.97656 37.3574 5.97656C36.9082 5.97656 36.5241 6.08724 36.2051 6.30859C35.8926 6.52995 35.6322 6.83594 35.4238 7.22656C35.222 7.61719 35.0723 8.07943 34.9746 8.61328C34.8835 9.14714 34.8379 9.72656 34.8379 10.3516C34.8379 10.8138 34.877 11.2467 34.9551 11.6504C35.0332 12.0475 35.1471 12.3926 35.2969 12.6855C35.4466 12.9785 35.6354 13.2096 35.8633 13.3789C36.0911 13.5482 36.3548 13.6328 36.6543 13.6328ZM43.0215 14.5703L44.5547 13.3691L44.2227 6.63086L42.416 5.44922L46.6152 4.73633L45.8633 12.5684L47.9629 13.877L43.0215 14.5703ZM46.7227 2.37305C46.7227 2.56836 46.6836 2.75391 46.6055 2.92969C46.5273 3.09896 46.4199 3.25195 46.2832 3.38867C46.1465 3.51888 45.9902 3.62305 45.8145 3.70117C45.6387 3.77279 45.4531 3.80859 45.2578 3.80859C45.0495 3.80859 44.8542 3.77279 44.6719 3.70117C44.4961 3.62305 44.3431 3.51888 44.2129 3.38867C44.0827 3.25195 43.9785 3.09896 43.9004 2.92969C43.8223 2.75391 43.7832 2.56836 43.7832 2.37305C43.7832 2.17122 43.8223 1.98568 43.9004 1.81641C43.9785 1.64062 44.0827 1.48763 44.2129 1.35742C44.3431 1.22721 44.4961 1.1263 44.6719 1.05469C44.8542 0.976562 45.0495 0.9375 45.2578 0.9375C45.4531 0.9375 45.6387 0.976562 45.8145 1.05469C45.9902 1.1263 46.1465 1.22721 46.2832 1.35742C46.4199 1.48763 46.5273 1.64062 46.6055 1.81641C46.6836 1.98568 46.7227 2.17122 46.7227 2.37305ZM50.4824 10.8887C50.5671 11.2533 50.681 11.6113 50.8242 11.9629C50.9674 12.3079 51.1432 12.6172 51.3516 12.8906C51.5599 13.1641 51.8008 13.3854 52.0742 13.5547C52.3477 13.724 52.6569 13.8086 53.002 13.8086C53.4577 13.8086 53.8548 13.7142 54.1934 13.5254C54.5319 13.3366 54.8086 13.099 55.0234 12.8125C55.2383 12.5195 55.388 12.2005 55.4727 11.8555C55.5573 11.5039 55.5736 11.1686 55.5215 10.8496C55.7038 10.9212 55.8535 11.0156 55.9707 11.1328C56.0944 11.25 56.1888 11.3802 56.2539 11.5234C56.3255 11.6602 56.3743 11.8034 56.4004 11.9531C56.4264 12.0964 56.4395 12.2363 56.4395 12.373C56.4395 12.6855 56.3483 12.9883 56.166 13.2812C55.9837 13.5677 55.7266 13.8249 55.3945 14.0527C55.069 14.2741 54.6816 14.4531 54.2324 14.5898C53.7832 14.7266 53.2917 14.7949 52.7578 14.7949C52.0417 14.7949 51.4004 14.6549 50.834 14.375C50.2741 14.0951 49.7988 13.7174 49.4082 13.2422C49.0176 12.7604 48.7181 12.1973 48.5098 11.5527C48.3014 10.9082 48.1973 10.2214 48.1973 9.49219C48.1973 8.75 48.3014 8.06641 48.5098 7.44141C48.7181 6.8099 49.0241 6.27279 49.4277 5.83008C49.8379 5.38737 50.3392 5.05208 50.9316 4.82422C51.5241 4.59635 52.2077 4.50521 52.9824 4.55078C53.5163 4.58984 54.0078 4.74284 54.457 5.00977C54.9062 5.27669 55.2969 5.62174 55.6289 6.04492C55.9674 6.46159 56.2376 6.9401 56.4395 7.48047C56.6478 8.02083 56.7747 8.58398 56.8203 9.16992L50.4824 10.8887ZM50.2969 9.31641C50.2969 9.40755 50.2969 9.4987 50.2969 9.58984C50.2969 9.67448 50.3034 9.76237 50.3164 9.85352L54.6035 8.29102C54.4603 7.82227 54.2975 7.42188 54.1152 7.08984C53.9395 6.7513 53.7539 6.47461 53.5586 6.25977C53.3633 6.04492 53.1647 5.88867 52.9629 5.79102C52.7676 5.68685 52.5788 5.63477 52.3965 5.63477C52.123 5.63477 51.8822 5.68685 51.6738 5.79102C51.4655 5.89518 51.2832 6.03841 51.127 6.2207C50.9772 6.39648 50.847 6.60482 50.7363 6.8457C50.6322 7.08659 50.5475 7.34375 50.4824 7.61719C50.4173 7.89062 50.3685 8.17383 50.3359 8.4668C50.3099 8.75326 50.2969 9.03646 50.2969 9.31641ZM61.625 4.53125C61.8724 4.53125 62.123 4.55404 62.377 4.59961C62.6309 4.63867 62.8783 4.70052 63.1191 4.78516C63.3665 4.86328 63.5977 4.96094 63.8125 5.07812C64.0339 5.1888 64.2324 5.3125 64.4082 5.44922L66.0098 3.47656L65.2871 8.34961C65.209 8.01107 65.0723 7.67904 64.877 7.35352C64.6816 7.02148 64.4375 6.72526 64.1445 6.46484C63.8581 6.20443 63.526 5.99609 63.1484 5.83984C62.7708 5.67708 62.3574 5.5957 61.9082 5.5957C61.6608 5.5957 61.4232 5.625 61.1953 5.68359C60.9674 5.73568 60.7656 5.82357 60.5898 5.94727C60.4206 6.07096 60.2839 6.22721 60.1797 6.41602C60.082 6.60482 60.0332 6.82943 60.0332 7.08984C60.0332 7.40234 60.1178 7.65625 60.2871 7.85156C60.4629 8.04688 60.6908 8.21289 60.9707 8.34961C61.2507 8.47982 61.5697 8.59375 61.9277 8.69141C62.2858 8.78255 62.6536 8.88021 63.0312 8.98438C63.4089 9.08854 63.7767 9.21224 64.1348 9.35547C64.4928 9.49219 64.8118 9.67122 65.0918 9.89258C65.3717 10.1139 65.5964 10.3906 65.7656 10.7227C65.9414 11.0482 66.0293 11.4518 66.0293 11.9336C66.0293 12.474 65.9219 12.9362 65.707 13.3203C65.4987 13.6979 65.2285 14.0104 64.8965 14.2578C64.5645 14.4987 64.1966 14.6745 63.793 14.7852C63.3893 14.8958 62.9954 14.9512 62.6113 14.9512C62.2988 14.9512 61.9863 14.9186 61.6738 14.8535C61.3613 14.7884 61.0586 14.6973 60.7656 14.5801C60.4727 14.4629 60.1927 14.3229 59.9258 14.1602C59.6654 13.9974 59.4277 13.8216 59.2129 13.6328L57.7285 15.6152L58.1875 10.7715C58.3958 11.2142 58.6465 11.6276 58.9395 12.0117C59.2324 12.3958 59.5579 12.7311 59.916 13.0176C60.2741 13.2975 60.6582 13.5189 61.0684 13.6816C61.4785 13.8379 61.9049 13.916 62.3477 13.916C62.862 13.916 63.2721 13.8086 63.5781 13.5938C63.8906 13.3724 64.0469 13.0599 64.0469 12.6562C64.0469 12.3958 63.959 12.181 63.7832 12.0117C63.6139 11.8359 63.3861 11.6829 63.0996 11.5527C62.8197 11.4225 62.5007 11.3053 62.1426 11.2012C61.7845 11.097 61.4167 10.9831 61.0391 10.8594C60.6615 10.7357 60.2936 10.5924 59.9355 10.4297C59.5775 10.2604 59.2552 10.0521 58.9688 9.80469C58.6888 9.55078 58.4609 9.24479 58.2852 8.88672C58.1159 8.52214 58.0312 8.08268 58.0312 7.56836C58.0312 7.12565 58.0964 6.74154 58.2266 6.41602C58.3568 6.09049 58.526 5.81706 58.7344 5.5957C58.9492 5.36784 59.1868 5.18555 59.4473 5.04883C59.7142 4.9056 59.9811 4.79818 60.248 4.72656C60.515 4.64844 60.7689 4.59635 61.0098 4.57031C61.2507 4.54427 61.4557 4.53125 61.625 4.53125Z" fill="#111111"/>
</svg>
