<svg width="40" height="41" viewBox="0 0 40 41" fill="none" xmlns="http://www.w3.org/2000/svg">
<rect y="0.56958" width="40" height="39.5695" rx="5" fill="url(#paint0_linear_514_14)"/>
<g clip-path="url(#clip0_514_14)">
<path d="M13.3194 18.3073C15.1502 18.3073 16.6397 16.8182 16.6397 14.9879C16.6397 13.5853 16.4499 11.2707 16.4418 11.1729C16.4067 10.7475 16.029 10.431 15.5995 10.4655C15.1695 10.5003 14.8493 10.8733 14.8844 11.2987C14.8864 11.3221 15.0772 13.6486 15.0772 14.9879C15.0772 15.9659 14.2886 16.7616 13.3194 16.7616C12.3501 16.7616 11.5616 15.9659 11.5616 14.9879C11.5616 13.6477 11.7524 11.3221 11.7543 11.2987C11.7894 10.8733 11.4693 10.5003 11.0393 10.4655C10.6097 10.4306 10.2321 10.7474 10.197 11.1729C10.1889 11.2707 9.99908 13.5853 9.99908 14.9879C9.99908 16.8182 11.4886 18.3073 13.3194 18.3073ZM12.5381 14.2112V11.2358C12.5381 10.8089 12.8879 10.4629 13.3194 10.4629C13.7509 10.4629 14.1006 10.8089 14.1006 11.2358V14.2112C14.1006 14.638 13.7509 14.984 13.3194 14.984C12.8879 14.984 12.5381 14.638 12.5381 14.2112ZM15.848 29.367C15.4551 29.1906 15.2812 28.7324 15.4596 28.3438C15.6379 27.9552 16.101 27.7831 16.4939 27.9596C17.5752 28.4453 18.7872 28.702 19.999 28.702C24.6515 28.702 28.4365 24.9577 28.4365 20.3553C28.4365 15.7529 24.6515 12.0087 19.999 12.0087C19.6158 12.0087 19.2306 12.0343 18.854 12.0848C18.4267 12.142 18.0329 11.8457 17.9749 11.4228C17.9169 10.9999 18.2165 10.6105 18.644 10.5531C19.0899 10.4933 19.5458 10.463 19.999 10.463C22.6701 10.463 25.1813 11.492 27.0701 13.3603C28.9588 15.2288 29.999 17.713 29.999 20.3553C29.999 22.9977 28.9588 25.4818 27.0701 27.3503C25.1813 29.2187 22.6701 30.2477 19.999 30.2477C18.5661 30.2476 17.1306 29.9431 15.848 29.367ZM19.832 26.4976C19.4007 26.4875 19.0593 26.1333 19.0695 25.7067C19.0797 25.2799 19.4366 24.9427 19.8691 24.9523C19.9063 24.9532 19.9433 24.9536 19.9804 24.9536C22.4826 24.9536 24.5475 22.9704 24.6071 20.483C24.6364 19.2602 24.1825 18.0992 23.3291 17.2141C22.4757 16.3289 21.3249 15.8254 20.0886 15.7964C19.7138 15.7878 19.2994 15.8336 18.8896 15.9293C18.4694 16.0275 18.0488 15.7702 17.9496 15.3549C17.8505 14.9395 18.1104 14.5232 18.5304 14.4251C19.0681 14.2994 19.6199 14.2391 20.1256 14.2512C21.7791 14.2899 23.3183 14.9633 24.4598 16.1472C25.6013 17.3312 26.2083 18.884 26.1691 20.5196C26.0893 23.8468 23.3278 26.4993 19.9809 26.4993C19.9316 26.4994 19.8816 26.4987 19.832 26.4976ZM12.5381 29.4748V20.6258C12.5381 20.1989 12.8879 19.8529 13.3194 19.8529C13.7509 19.8529 14.1006 20.1989 14.1006 20.6258V29.4748C14.1006 29.9016 13.7509 30.2476 13.3194 30.2476C12.8879 30.2476 12.5381 29.9016 12.5381 29.4748Z" fill="white"/>
</g>
<defs>
<linearGradient id="paint0_linear_514_14" x1="20" y1="0.56958" x2="20" y2="40.1391" gradientUnits="userSpaceOnUse">
<stop stop-color="#314ED8"/>
<stop offset="1" stop-color="#D531D8" stop-opacity="0.61"/>
</linearGradient>
<clipPath id="clip0_514_14">
<rect width="20" height="19.7848" fill="white" transform="matrix(-1 0 0 1 30 10.4619)"/>
</clipPath>
</defs>
</svg>
