<svg width="1316" height="342" viewBox="0 0 1316 342" fill="none" xmlns="http://www.w3.org/2000/svg">
<path d="M-514.476 339.307C-514.987 339.516 -515.232 340.099 -515.024 340.611C-514.815 341.122 -514.231 341.367 -513.72 341.159L-514.476 339.307ZM-387.895 267.253L-388.308 266.343L-387.895 267.253ZM-309.956 245.357L-309.729 246.331L-309.956 245.357ZM-228.017 224.626L-228.254 223.655L-228.017 224.626ZM-152.926 210.07L-153.033 209.076L-152.926 210.07ZM-75.3383 207.95L-75.329 206.95L-75.3383 207.95ZM233.516 224.134L233.508 225.134L233.516 224.134ZM391.485 202.51L391.745 203.476L391.485 202.51ZM448.091 181.842L447.699 180.922L448.091 181.842ZM526.792 141.596L526.445 140.658L526.792 141.596ZM652.651 122.22L652.607 121.221L652.651 122.22ZM792.63 130.152L792.714 129.155L792.63 130.152ZM976.434 139.435L976.416 140.435L976.434 139.435ZM1126.32 137.736L1126.4 138.733L1126.32 137.736ZM1310.36 0.562327L1304.24 10.353L1315.78 10.7592L1310.36 0.562327ZM-514.098 340.233L-513.72 341.159C-489.337 331.21 -469.343 318.2 -449.677 305.075C-429.995 291.939 -410.654 278.697 -387.481 268.164L-387.895 267.253L-388.308 266.343C-411.658 276.957 -431.139 290.298 -450.787 303.411C-470.451 316.535 -490.297 329.442 -514.476 339.307L-514.098 340.233ZM-387.895 267.253L-387.481 268.164C-364.764 257.838 -336.1 252.486 -309.729 246.331L-309.956 245.357L-310.183 244.384C-336.4 250.502 -365.357 255.911 -388.308 266.343L-387.895 267.253ZM-309.956 245.357L-309.729 246.331C-282.083 239.879 -255.173 232.295 -227.779 225.597L-228.017 224.626L-228.254 223.655C-255.791 230.388 -282.498 237.922 -310.183 244.384L-309.956 245.357ZM-228.017 224.626L-227.779 225.597C-203.571 219.678 -178.626 213.843 -152.819 211.064L-152.926 210.07L-153.033 209.076C-178.986 211.87 -204.046 217.735 -228.254 223.655L-228.017 224.626ZM-152.926 210.07L-152.819 211.064C-127.748 208.365 -100.97 208.712 -75.3476 208.95L-75.3383 207.95L-75.329 206.95C-100.92 206.713 -127.824 206.361 -153.033 209.076L-152.926 210.07ZM-75.3383 207.95L-75.3476 208.95C-23.8149 209.429 27.5724 213.268 79.0022 217.092C130.421 220.916 181.882 224.725 233.508 225.134L233.516 224.134L233.524 223.134C181.975 222.726 130.58 218.922 79.1505 215.098C27.7322 211.274 -23.7203 207.43 -75.329 206.95L-75.3383 207.95ZM233.516 224.134L233.508 225.134C290.672 225.586 340.085 217.398 391.745 203.476L391.485 202.51L391.224 201.545C339.698 215.431 290.468 223.585 233.524 223.134L233.516 224.134ZM391.485 202.51L391.745 203.476C411.868 198.053 430.546 190.396 448.482 182.762L448.091 181.842L447.699 180.922C429.769 188.553 411.201 196.161 391.224 201.545L391.485 202.51ZM448.091 181.842L448.482 182.762C462.779 176.676 474.987 169.364 487.324 162.22C499.673 155.068 512.171 148.072 527.139 142.534L526.792 141.596L526.445 140.658C511.305 146.26 498.681 153.331 486.321 160.489C473.948 167.655 461.858 174.895 447.699 180.922L448.091 181.842ZM526.792 141.596L527.139 142.534C565.842 128.211 607.479 125.194 652.694 123.219L652.651 122.22L652.607 121.221C607.401 123.195 565.474 126.215 526.445 140.658L526.792 141.596ZM652.651 122.22L652.694 123.219C700.124 121.147 745.095 127.136 792.545 131.148L792.63 130.152L792.714 129.155C745.387 125.154 700.206 119.142 652.607 121.221L652.651 122.22ZM792.63 130.152L792.545 131.148C853.747 136.322 914.937 139.325 976.416 140.435L976.434 139.435L976.452 138.435C915.014 137.326 853.869 134.326 792.714 129.155L792.63 130.152ZM976.434 139.435L976.416 140.435C1025.79 141.326 1077.38 142.479 1126.4 138.733L1126.32 137.736L1126.25 136.739C1077.34 140.476 1025.86 139.327 976.452 138.435L976.434 139.435ZM1126.32 137.736L1126.4 138.733C1173.74 135.116 1218.41 123.238 1251.99 102.08C1285.6 80.9053 1308.14 50.407 1311.04 9.63803L1310.05 9.56689L1309.05 9.49575C1306.2 49.4988 1284.11 79.4758 1250.92 100.388C1217.7 121.317 1173.39 133.137 1126.25 136.739L1126.32 137.736Z" fill="url(#paint0_linear_1919_8449)"/>
<defs>
<linearGradient id="paint0_linear_1919_8449" x1="1533.96" y1="49.0273" x2="-162.719" y2="721.222" gradientUnits="userSpaceOnUse">
<stop stop-color="#00B989"/>
<stop offset="1" stop-color="white" stop-opacity="0.14"/>
</linearGradient>
</defs>
</svg>
