<svg width="44" height="45" viewBox="0 0 44 45" fill="none" xmlns="http://www.w3.org/2000/svg">
<g clip-path="url(#clip0_1919_8723)">
<mask id="mask0_1919_8723" style="mask-type:luminance" maskUnits="userSpaceOnUse" x="0" y="0" width="44" height="45">
<path d="M0.351562 0.956059H43.5308V44.1353H0.351562V0.956059Z" fill="white"/>
</mask>
<g mask="url(#mask0_1919_8723)">
<path d="M7.875 9.29346C8.5883 8.4771 9.36637 7.71944 10.2011 7.02849" stroke="#00C998" stroke-width="1.26502" stroke-miterlimit="10" stroke-linecap="round" stroke-linejoin="round"/>
<path d="M3.42188 18.0029C3.92544 15.8134 4.78514 13.7607 5.93622 11.91" stroke="#00C998" stroke-width="1.26502" stroke-miterlimit="10" stroke-linecap="round" stroke-linejoin="round"/>
<path d="M10.072 37.9578C5.69181 34.2718 2.90625 28.7355 2.90625 22.5452C2.90625 22.3101 2.9103 22.0759 2.91823 21.8428" stroke="#00C998" stroke-width="1.26502" stroke-miterlimit="10" stroke-linecap="round" stroke-linejoin="round"/>
<path d="M32.5916 40.1262C29.7213 41.727 26.4177 42.6387 22.9022 42.6387C19.3987 42.6387 16.1057 41.7333 13.2422 40.1425" stroke="#00C998" stroke-width="1.26502" stroke-miterlimit="10" stroke-linecap="round" stroke-linejoin="round"/>
<path d="M39.8561 11.8888C41.7827 14.9777 42.8966 18.6308 42.8966 22.5452C42.8966 28.7264 40.1192 34.2557 35.75 37.9417" stroke="#00C998" stroke-width="1.26502" stroke-miterlimit="10" stroke-linecap="round" stroke-linejoin="round"/>
<path d="M35.4297 6.88335C36.1696 7.48178 36.8664 8.13217 37.5143 8.82886" stroke="#00C998" stroke-width="1.26502" stroke-miterlimit="10" stroke-linecap="round" stroke-linejoin="round"/>
<path d="M13.3672 4.87915C16.2013 3.33119 19.4496 2.45184 22.9023 2.45184C26.2663 2.45184 29.4363 3.28666 32.2184 4.76134" stroke="#00C998" stroke-width="1.26502" stroke-miterlimit="10" stroke-linecap="round" stroke-linejoin="round"/>
<path d="M24.5781 9.47632C26.8303 8.07477 29.3112 6.97319 31.9774 6.23788" stroke="#00C998" stroke-width="1.26502" stroke-miterlimit="10" stroke-linecap="round" stroke-linejoin="round"/>
<path d="M16.3828 17.2241C17.8235 15.1796 19.5326 13.3237 21.4717 11.7146" stroke="#00C998" stroke-width="1.26502" stroke-miterlimit="10" stroke-linecap="round" stroke-linejoin="round"/>
<path d="M11.3842 37.1199C10.6644 31.2351 11.8024 25.491 14.373 20.5341" stroke="#00C998" stroke-width="1.26502" stroke-miterlimit="10" stroke-linecap="round" stroke-linejoin="round"/>
<path d="M21.225 9.47632C18.8967 8.02737 16.3239 6.89906 13.5547 6.16451" stroke="#00C998" stroke-width="1.26502" stroke-miterlimit="10" stroke-linecap="round" stroke-linejoin="round"/>
<path d="M32.1725 22.063C30.3938 18.0699 27.7139 14.5177 24.3359 11.7147" stroke="#00C998" stroke-width="1.26502" stroke-miterlimit="10" stroke-linecap="round" stroke-linejoin="round"/>
<path d="M34.3311 29.4868C34.1413 28.2028 33.8631 26.9322 33.5 25.6861" stroke="#00C998" stroke-width="1.26502" stroke-miterlimit="10" stroke-linecap="round" stroke-linejoin="round"/>
<path d="M34.4141 37.2156C34.5813 35.8833 34.6557 34.5397 34.6348 33.1971" stroke="#00C998" stroke-width="1.26502" stroke-miterlimit="10" stroke-linecap="round" stroke-linejoin="round"/>
<path d="M13.5001 18.4766C10.6196 18.4619 7.69562 18.771 4.77344 19.4304" stroke="#00C998" stroke-width="1.26502" stroke-miterlimit="10" stroke-linecap="round" stroke-linejoin="round"/>
<path d="M31.2296 22.9045C26.9411 20.6564 22.2296 19.2051 17.3281 18.688" stroke="#00C998" stroke-width="1.26502" stroke-miterlimit="10" stroke-linecap="round" stroke-linejoin="round"/>
<path d="M41.2849 30.4663C39.249 28.3404 36.986 26.4607 34.5469 24.8571" stroke="#00C998" stroke-width="1.26502" stroke-miterlimit="10" stroke-linecap="round" stroke-linejoin="round"/>
<path d="M33.8672 22.1738C35.7534 19.1375 37.2406 15.8103 38.2478 12.2588" stroke="#00C998" stroke-width="1.26502" stroke-miterlimit="10" stroke-linecap="round" stroke-linejoin="round"/>
<path d="M13.5 38.4512C20.729 35.9581 27.055 31.3678 31.6852 25.3342" stroke="#00C998" stroke-width="1.26502" stroke-miterlimit="10" stroke-linecap="round" stroke-linejoin="round"/>
<path d="M22.8995 12.3567C21.8391 12.3567 20.9766 11.4899 20.9766 10.4243C20.9766 9.35886 21.8391 8.49207 22.8995 8.49207C23.9598 8.49207 24.8224 9.35886 24.8224 10.4243C24.8224 11.4899 23.9598 12.3567 22.8995 12.3567Z" stroke="#00C998" stroke-width="1.26502" stroke-miterlimit="10" stroke-linecap="round" stroke-linejoin="round"/>
<path d="M15.4229 20.8469C14.3626 20.8469 13.5 19.9801 13.5 18.9146C13.5 17.8491 14.3626 16.9822 15.4229 16.9822C16.4832 16.9822 17.3458 17.8491 17.3458 18.9146C17.3458 19.9801 16.4832 20.8469 15.4229 20.8469Z" stroke="#00C998" stroke-width="1.26502" stroke-miterlimit="10" stroke-linecap="round" stroke-linejoin="round"/>
<path d="M32.9073 25.7793C31.8469 25.7793 30.9844 24.9124 30.9844 23.8469C30.9844 22.7815 31.8469 21.9146 32.9073 21.9146C33.9676 21.9146 34.8302 22.7815 34.8302 23.8469C34.8302 24.9124 33.9676 25.7793 32.9073 25.7793Z" stroke="#00C998" stroke-width="1.26502" stroke-miterlimit="10" stroke-linecap="round" stroke-linejoin="round"/>
<path d="M11.6729 40.9624C10.6126 40.9624 9.75 40.0956 9.75 39.03C9.75 37.9646 10.6126 37.0978 11.6729 37.0978C12.7332 37.0978 13.5959 37.9646 13.5959 39.03C13.5959 40.0956 12.7332 40.9624 11.6729 40.9624Z" stroke="#00C998" stroke-width="1.26502" stroke-miterlimit="10" stroke-linecap="round" stroke-linejoin="round"/>
<path d="M34.2432 41.0728C33.1829 41.0728 32.3203 40.2059 32.3203 39.1404C32.3203 38.0749 33.1829 37.208 34.2432 37.208C35.3036 37.208 36.1662 38.0749 36.1662 39.1404C36.1662 40.2059 35.3036 41.0728 34.2432 41.0728Z" stroke="#00C998" stroke-width="1.26502" stroke-miterlimit="10" stroke-linecap="round" stroke-linejoin="round"/>
<path d="M38.7277 12.2588C37.6673 12.2588 36.8047 11.3919 36.8047 10.3264C36.8047 9.26096 37.6673 8.39408 38.7277 8.39408C39.788 8.39408 40.6506 9.26096 40.6506 10.3264C40.6506 11.3919 39.788 12.2588 38.7277 12.2588Z" stroke="#00C998" stroke-width="1.26502" stroke-miterlimit="10" stroke-linecap="round" stroke-linejoin="round"/>
<path d="M33.8448 7.72119C32.7844 7.72119 31.9219 6.8544 31.9219 5.78884C31.9219 4.72336 32.7844 3.85657 33.8448 3.85657C34.9051 3.85657 35.7678 4.72336 35.7678 5.78884C35.7678 6.8544 34.9051 7.72119 33.8448 7.72119Z" stroke="#00C998" stroke-width="1.26502" stroke-miterlimit="10" stroke-linecap="round" stroke-linejoin="round"/>
<path d="M11.6729 7.72119C10.6126 7.72119 9.75 6.8544 9.75 5.78884C9.75 4.72336 10.6126 3.85657 11.6729 3.85657C12.7332 3.85657 13.5959 4.72336 13.5959 5.78884C13.5959 6.8544 12.7332 7.72119 11.6729 7.72119Z" stroke="#00C998" stroke-width="1.26502" stroke-miterlimit="10" stroke-linecap="round" stroke-linejoin="round"/>
<path d="M2.90728 21.8425C1.84695 21.8425 0.984375 20.9757 0.984375 19.9102C0.984375 18.8447 1.84695 17.9779 2.90728 17.9779C3.96762 17.9779 4.83019 18.8447 4.83019 19.9102C4.83019 20.9757 3.96762 21.8425 2.90728 21.8425Z" stroke="#00C998" stroke-width="1.26502" stroke-miterlimit="10" stroke-linecap="round" stroke-linejoin="round"/>
</g>
</g>
<defs>
<clipPath id="clip0_1919_8723">
<rect width="43.1792" height="43.1792" fill="white" transform="translate(0.351562 0.956299)"/>
</clipPath>
</defs>
</svg>
