<svg width="45" height="45" viewBox="0 0 45 45" fill="none" xmlns="http://www.w3.org/2000/svg">
<g clip-path="url(#clip0_1919_8792)">
<path d="M41.5391 36.5799H36.5391C36.1391 36.5799 35.8724 36.3132 35.8724 35.9132V35.7799C35.8724 32.7132 34.8057 29.7799 32.8724 27.5799C32.3391 26.9132 31.7391 26.3132 31.0724 25.7799C30.2057 25.1132 29.4057 24.5132 28.6057 24.1132C26.7391 23.1799 24.8057 22.7132 22.7391 22.7132C15.5391 22.7132 9.6724 28.5799 9.6724 35.7799V35.9132C9.6724 36.3132 9.40573 36.5799 9.00573 36.5799H4.20573C3.80573 36.5799 3.53906 36.3132 3.53906 35.9132V35.7799C3.53906 31.1132 5.20573 26.5799 8.20573 23.1132C11.8724 18.8465 17.2057 16.3799 22.9391 16.3799C26.3391 16.3799 29.6724 17.3132 32.6057 18.9799C33.1391 19.3132 33.7391 19.6465 34.2724 20.1132C39.2057 23.6465 42.2057 29.5132 42.2057 35.7799V35.9132C42.2057 36.3132 41.9391 36.5799 41.5391 36.5799ZM37.2057 35.2465H40.8724C40.7391 29.6465 38.0057 24.3799 33.4724 21.1799C32.9391 20.7799 32.4724 20.4465 31.9391 20.1132C29.2057 18.5132 26.1391 17.7132 22.9391 17.7132C17.6724 17.7132 12.6724 19.9799 9.2724 23.9799C6.53906 27.0465 5.00573 31.0465 4.8724 35.2465H8.40573C8.6724 27.5799 15.0057 21.3799 22.8057 21.3799C25.0057 21.3799 27.2057 21.9132 29.2057 22.9132C30.1391 23.3799 31.0057 23.9799 31.9391 24.7132C32.6057 25.2465 33.3391 25.9799 33.8724 26.6465C35.9391 29.0465 37.0724 32.0465 37.2057 35.2465Z" fill="#00C998"/>
<path d="M22.8698 22.6465C22.4698 22.6465 22.2031 22.3799 22.2031 21.9799V17.0465C22.2031 16.6465 22.4698 16.3799 22.8698 16.3799C23.2698 16.3799 23.5365 16.6465 23.5365 17.0465V21.9799C23.5365 22.3799 23.2698 22.6465 22.8698 22.6465Z" fill="#00C998"/>
<path d="M12.2078 27.78C12.0078 27.78 11.8745 27.7133 11.7411 27.58L8.20781 24.0467C7.94115 23.78 7.94115 23.38 8.20781 23.1133C8.47448 22.8467 8.87448 22.8467 9.14115 23.1133L12.6745 26.6467C12.9411 26.9133 12.9411 27.3133 12.6745 27.58C12.5411 27.7133 12.4078 27.78 12.2078 27.78Z" fill="#00C998"/>
<path d="M33.4714 27.78C33.2714 27.78 33.138 27.7133 33.0047 27.58C32.738 27.3133 32.738 26.9133 33.0047 26.6467L36.4714 23.1133C36.738 22.8467 37.138 22.8467 37.4047 23.1133C37.6714 23.38 37.6714 23.78 37.4047 24.0467L33.938 27.58C33.8047 27.7133 33.6714 27.78 33.4714 27.78Z" fill="#00C998"/>
<path d="M21.606 40.8464C20.8727 40.8464 20.1393 40.6464 19.4727 40.2464C17.7393 38.9797 17.2727 36.6464 18.4727 34.9797C18.7393 34.6464 18.9393 34.3797 19.2727 34.1797L26.9393 28.3797C27.1393 28.1797 27.4727 28.1797 27.7393 28.3797C28.006 28.5131 28.0727 28.8464 28.006 29.1131L25.206 38.2464C25.0727 38.6464 24.9393 39.0464 24.6727 39.3131C24.006 40.2464 22.806 40.8464 21.606 40.8464ZM26.1393 30.6464L20.1393 35.1797C19.9393 35.3131 19.7393 35.5131 19.606 35.7131C18.8727 36.7797 19.1393 38.3131 20.2727 39.1131C21.3393 39.8464 22.8727 39.5797 23.6727 38.4464C23.806 38.2464 23.9393 38.0464 23.9393 37.7797C23.9393 37.7797 23.9393 37.7797 23.9393 37.7131L26.1393 30.6464Z" fill="#00C998"/>
<path d="M21.6052 38.8464C20.5385 38.8464 19.6719 37.9797 19.6719 36.9131C19.6719 35.8464 20.5385 34.9797 21.6052 34.9797C22.6719 34.9797 23.5385 35.8464 23.5385 36.9131C23.5385 37.9797 22.6719 38.8464 21.6052 38.8464ZM21.6052 36.3131C21.2719 36.3131 21.0052 36.5797 21.0052 36.9131C21.0052 37.2464 21.2719 37.5131 21.6052 37.5131C21.9385 37.5131 22.2052 37.2464 22.2052 36.9131C22.2052 36.5797 21.9385 36.3131 21.6052 36.3131Z" fill="#00C998"/>
<path d="M34.2068 36.5797C33.8068 36.5797 33.5401 36.3131 33.5401 35.9131C33.5401 30.0464 28.8068 25.3131 22.9401 25.3131C22.5401 25.3131 22.2734 25.0464 22.2734 24.6464C22.2734 24.2464 22.5401 23.9797 22.9401 23.9797C29.5401 23.9797 34.8734 29.3131 34.8734 35.9131C34.8734 36.3131 34.6068 36.5797 34.2068 36.5797Z" fill="#00C998"/>
<path d="M20.9385 11.1132C20.8052 11.1132 20.6719 11.0465 20.5385 10.9799C20.3385 10.8465 20.2052 10.5799 20.2719 10.3132L20.6052 8.44652L19.2719 7.17985C19.0719 6.97985 19.0052 6.71318 19.0719 6.51318C19.1385 6.24652 19.3385 6.11318 19.6052 6.04652L21.4719 5.77985L22.3385 4.11318C22.5385 3.64652 23.2719 3.64652 23.5385 4.11318L24.4052 5.77985L26.2719 6.04652C26.5385 6.11318 26.7385 6.24652 26.8052 6.51318C26.8719 6.77985 26.8052 7.04652 26.6052 7.17985L25.2719 8.44652L25.6052 10.3132C25.6719 10.5799 25.5385 10.8465 25.3385 10.9799C25.1385 11.1132 24.8719 11.1799 24.6052 11.0465L22.9385 10.1132L21.2719 10.9799C21.1385 11.1132 21.0719 11.1132 20.9385 11.1132ZM22.9385 8.71318C23.0719 8.71318 23.1385 8.71318 23.2719 8.77985L24.0719 9.17985L23.9385 8.31318C23.8719 8.11318 23.9385 7.84652 24.1385 7.71318L24.7385 7.11318L23.8719 6.97985C23.6719 6.97985 23.4719 6.77985 23.4052 6.64652L22.9385 5.84652L22.5385 6.64652C22.4719 6.84652 22.2719 6.97985 22.0719 6.97985L21.2052 7.11318L21.8052 7.71318C21.9385 7.84652 22.0719 8.11318 22.0052 8.31318L21.8719 9.17985L22.6719 8.77985C22.7385 8.71318 22.8052 8.71318 22.9385 8.71318Z" fill="#00C998"/>
<path d="M16.2053 14.8466C16.072 14.8466 16.0053 14.8466 15.872 14.7799L14.2053 13.9133L12.5386 14.7799C12.3386 14.9133 12.0053 14.9133 11.8053 14.7133C11.6053 14.5799 11.472 14.3133 11.5386 14.0466L11.872 12.1799L10.5386 10.8466C10.3386 10.6466 10.272 10.3799 10.4053 10.1799C10.5386 9.97993 10.672 9.77993 10.9386 9.71326L12.8053 9.51326L13.672 7.77993C13.872 7.31326 14.672 7.31326 14.872 7.77993L15.7386 9.51326L17.6053 9.71326C17.872 9.71326 18.072 9.91326 18.1386 10.1799C18.2053 10.4466 18.1386 10.7133 18.0053 10.8466L16.672 12.1799L17.0053 14.0466C17.072 14.3133 16.9386 14.5799 16.7386 14.7133C16.472 14.7799 16.3386 14.8466 16.2053 14.8466ZM14.2053 12.4466C14.3386 12.4466 14.4053 12.4466 14.5386 12.5133L15.3386 12.9133L15.2053 12.0466C15.1386 11.8466 15.2053 11.5799 15.4053 11.4466L16.0053 10.8466L15.1386 10.7133C14.9386 10.7133 14.7386 10.5133 14.6053 10.3133L14.2053 9.57993L13.8053 10.3799C13.7386 10.5799 13.5386 10.7133 13.272 10.7799L12.4053 10.9133L13.0053 11.5133C13.1386 11.6466 13.2053 11.9133 13.2053 12.1133L13.1386 12.9133L13.9386 12.5133C14.0053 12.4466 14.072 12.4466 14.2053 12.4466Z" fill="#00C998"/>
<path d="M3.46979 19.7799C3.33646 19.7799 3.20312 19.7133 3.06979 19.6466C2.86979 19.5133 2.73646 19.2466 2.80313 18.9799L3.13646 17.1133L1.80312 15.8466C1.60312 15.6466 1.53646 15.3799 1.60313 15.1799C1.66979 14.9133 1.86979 14.7799 2.13646 14.7133L4.00312 14.4466L4.86979 12.7799C5.06979 12.3133 5.86979 12.3133 6.06979 12.7799L6.93646 14.4466L8.86979 14.7133C9.13646 14.7799 9.33646 14.9133 9.40313 15.1799C9.46979 15.4466 9.40313 15.7133 9.20312 15.8466L7.80313 17.1133L8.13646 18.9799C8.20313 19.2466 8.06979 19.5133 7.86979 19.6466C7.66979 19.7799 7.40313 19.8466 7.20312 19.7133L5.46979 18.8466L3.73646 19.7133C3.66979 19.7799 3.60312 19.7799 3.46979 19.7799ZM5.46979 17.4466C5.60313 17.4466 5.66979 17.4466 5.73646 17.5133L6.53646 17.9133L6.40312 17.0466C6.33646 16.8466 6.46979 16.5799 6.60313 16.4466L7.26979 15.8466L6.40312 15.7133C6.20312 15.7133 6.00313 15.5799 5.93646 15.3799L5.53646 14.5799L5.13646 15.3799C5.06979 15.5799 4.86979 15.7133 4.66979 15.7133L3.80313 15.8466L4.40312 16.4466C4.53646 16.5799 4.66979 16.8466 4.60313 17.0466L4.46979 17.9133L5.26979 17.5133C5.26979 17.4466 5.33646 17.4466 5.46979 17.4466Z" fill="#00C998"/>
<path d="M33.6662 14.8466C33.5329 14.8466 33.4662 14.8466 33.3329 14.7799L31.6662 13.9133L29.9996 14.7799C29.7996 14.9133 29.4662 14.9133 29.2662 14.7133C29.0662 14.5133 28.9329 14.3133 28.9996 14.0466L29.3329 12.1799L27.9996 10.8466C27.7996 10.6466 27.7329 10.3799 27.8662 10.1799C27.9996 9.97993 28.1329 9.77993 28.3996 9.71326L30.2662 9.51326L31.1329 7.77993C31.3329 7.31326 32.1329 7.31326 32.3329 7.77993L33.1996 9.51326L35.0662 9.71326C35.3329 9.71326 35.5329 9.91326 35.5996 10.1799C35.6662 10.4466 35.5996 10.7133 35.4662 10.8466L34.1329 12.1799L34.4662 14.0466C34.5329 14.3133 34.3996 14.5799 34.1996 14.7133C33.9329 14.7799 33.7996 14.8466 33.6662 14.8466ZM31.6662 12.4466C31.7996 12.4466 31.8662 12.4466 31.9996 12.5133L32.7996 12.9133L32.6662 12.0466C32.5996 11.8466 32.6662 11.5799 32.8662 11.4466L33.4662 10.8466L32.5996 10.7133C32.3996 10.7133 32.1996 10.5133 32.0662 10.3133L31.6662 9.57993L31.2662 10.3799C31.1996 10.5799 30.9996 10.7133 30.7329 10.7799L29.8662 10.9133L30.4662 11.5133C30.5996 11.6466 30.6662 11.9133 30.6662 12.1133L30.5996 12.9133L31.3996 12.5133C31.4662 12.4466 31.5329 12.4466 31.6662 12.4466Z" fill="#00C998"/>
<path d="M38.4036 19.7799C38.2703 19.7799 38.137 19.7133 38.0036 19.6466C37.8036 19.5133 37.6703 19.2466 37.737 18.9799L38.0703 17.1133L36.6703 15.8466C36.4703 15.6466 36.4036 15.3799 36.4703 15.1799C36.537 14.9133 36.737 14.7799 37.0036 14.7133L38.937 14.4466L39.8036 12.7799C40.0036 12.3133 40.737 12.3133 41.0036 12.7799L41.8703 14.4466L43.737 14.7133C44.0036 14.7799 44.2036 14.9133 44.2703 15.1799C44.337 15.4466 44.2703 15.7133 44.0703 15.8466L42.737 17.1133L43.0703 18.9799C43.137 19.2466 43.0036 19.5133 42.8036 19.6466C42.6036 19.7799 42.337 19.8466 42.137 19.7133L40.4036 18.8466L38.6703 19.7133C38.6036 19.7799 38.537 19.7799 38.4036 19.7799ZM38.6036 15.8466L39.2703 16.4466C39.4703 16.5799 39.537 16.8466 39.4703 17.0466L39.337 17.9133L40.137 17.5133C40.337 17.4466 40.537 17.4466 40.737 17.5133L41.537 17.9133L41.4036 17.0466C41.337 16.8466 41.4036 16.5799 41.6036 16.4466L42.2036 15.8466L41.337 15.7133C41.137 15.7133 40.937 15.5133 40.8703 15.3799L40.4703 14.5799L40.0703 15.3799C40.0036 15.5799 39.8036 15.7133 39.6036 15.7133L38.6036 15.8466Z" fill="#00C998"/>
</g>
<defs>
<clipPath id="clip0_1919_8792">
<rect width="44" height="44" fill="white" transform="translate(0.9375 0.246582)"/>
</clipPath>
</defs>
</svg>
