<svg width="45" height="45" viewBox="0 0 45 45" fill="none" xmlns="http://www.w3.org/2000/svg">
<g clip-path="url(#clip0_1919_8788)">
<path d="M7.18565 23.8625C9.07898 23.8625 10.6123 22.3225 10.6123 20.4358C10.6123 19.7092 10.379 19.0358 9.99231 18.4758L15.759 12.6892C16.3056 13.0625 16.9723 13.2825 17.6856 13.2825C18.579 13.2825 19.3856 12.9292 19.999 12.3692L25.1123 16.1625C24.8923 16.6158 24.759 17.1158 24.759 17.6492C24.759 19.5425 26.299 21.0758 28.1856 21.0758C30.079 21.0758 31.6123 19.5358 31.6123 17.6492C31.6123 16.8758 31.3456 16.1758 30.919 15.6025L37.759 8.07582L37.4056 10.6225C37.359 10.9758 37.599 11.3025 37.9523 11.3492C37.9856 11.3558 38.0123 11.3558 38.0456 11.3558C38.359 11.3558 38.639 11.1225 38.6856 10.8025L39.3323 6.18916C39.3323 6.17582 39.3256 6.16249 39.3256 6.14249C39.3323 6.07582 39.3256 6.01582 39.3056 5.95582C39.299 5.92916 39.2923 5.89582 39.2856 5.86916C39.2656 5.80916 39.2256 5.75582 39.1856 5.70249C39.1723 5.68249 39.1656 5.65582 39.1456 5.64249C39.139 5.63582 39.1323 5.63582 39.1256 5.62916C39.1256 5.62916 39.1256 5.62249 39.119 5.62249C39.1123 5.62249 39.1123 5.61582 39.1056 5.61582C38.979 5.50916 38.819 5.44916 38.659 5.45582H38.6523C38.6323 5.45582 38.6123 5.45582 38.599 5.45582L33.9856 6.10249C33.6323 6.14916 33.3856 6.47582 33.439 6.82916C33.4856 7.18249 33.8123 7.42916 34.1656 7.37582L37.019 6.97583L29.9723 14.7358C29.4523 14.4158 28.8456 14.2225 28.1923 14.2225C27.299 14.2225 26.4923 14.5758 25.8856 15.1358L20.7723 11.3425C20.9923 10.8958 21.119 10.3958 21.119 9.86249C21.119 7.96916 19.579 6.43582 17.6923 6.43582C15.8056 6.43582 14.2656 7.97583 14.2656 9.86249C14.2656 10.5758 14.4856 11.2358 14.859 11.7892L9.07898 17.5825C8.53898 17.2225 7.88565 17.0092 7.19231 17.0092C5.29898 17.0092 3.76565 18.5492 3.76565 20.4358C3.75898 22.3292 5.29231 23.8625 7.18565 23.8625ZM28.1923 15.5092C29.3723 15.5092 30.3323 16.4692 30.3323 17.6492C30.3323 18.8292 29.3723 19.7892 28.1923 19.7892C27.0123 19.7892 26.0523 18.8292 26.0523 17.6492C26.0523 16.4692 27.0123 15.5092 28.1923 15.5092ZM17.6856 7.71582C18.8656 7.71582 19.8256 8.67582 19.8256 9.85582C19.8256 11.0358 18.8656 11.9958 17.6856 11.9958C16.5056 11.9958 15.5456 11.0358 15.5456 9.85582C15.5456 8.67582 16.5056 7.71582 17.6856 7.71582ZM7.18565 18.2958C8.36565 18.2958 9.32565 19.2558 9.32565 20.4358C9.32565 21.6158 8.36565 22.5758 7.18565 22.5758C6.00565 22.5758 5.04565 21.6158 5.04565 20.4358C5.04565 19.2558 6.00565 18.2958 7.18565 18.2958Z" fill="#00C998"/>
<path d="M43.5696 38.6891H42.3562V17.1557C42.3562 16.0891 41.4896 15.2224 40.4229 15.2224H36.9696C35.9029 15.2224 35.0362 16.0891 35.0362 17.1557V38.6891H31.8562V26.8224C31.8562 25.7557 30.9896 24.8891 29.9229 24.8891H26.4696C25.4029 24.8891 24.5362 25.7557 24.5362 26.8224V38.6824H21.3562V21.6691C21.3562 20.6024 20.4896 19.7357 19.4229 19.7357H15.9696C14.9029 19.7357 14.0362 20.6024 14.0362 21.6691V38.6891H10.8562V32.6291C10.8562 31.5624 9.98958 30.6957 8.92292 30.6957H5.45625C4.38958 30.6957 3.52292 31.5624 3.52292 32.6291V38.6891H2.30292C1.94958 38.6891 1.65625 38.9757 1.65625 39.3357C1.65625 39.6957 1.94292 39.9824 2.30292 39.9824H43.5629C43.9162 39.9824 44.2096 39.6957 44.2096 39.3357C44.2096 38.9757 43.9229 38.6891 43.5696 38.6891ZM4.80958 38.6891V32.6291C4.80958 32.2757 5.09625 31.9824 5.45625 31.9824H8.90958C9.26292 31.9824 9.55625 32.2691 9.55625 32.6291V38.6891H4.80958ZM15.3096 38.6891V21.6691C15.3096 21.3157 15.5962 21.0224 15.9562 21.0224H19.4096C19.7629 21.0224 20.0562 21.3091 20.0562 21.6691V38.6891H15.3096ZM25.8162 38.6891V26.8224C25.8162 26.4691 26.1029 26.1757 26.4629 26.1757H29.9162C30.2696 26.1757 30.5629 26.4624 30.5629 26.8224V38.6824H25.8162V38.6891ZM36.3162 38.6891V17.1557C36.3162 16.8024 36.6029 16.5091 36.9629 16.5091H40.4162C40.7696 16.5091 41.0629 16.7957 41.0629 17.1557V38.6891H36.3162Z" fill="#00C998"/>
</g>
<defs>
<clipPath id="clip0_1919_8788">
<rect width="44" height="44" fill="white" transform="translate(0.9375 0.71582)"/>
</clipPath>
</defs>
</svg>
