<svg width="45" height="45" viewBox="0 0 45 45" fill="none" xmlns="http://www.w3.org/2000/svg">
<g clip-path="url(#clip0_1919_8824)">
<path d="M28.7615 30.3471L25.7748 33.8679L23.9694 31.8396C25.429 31.0349 26.6295 30.373 28.2025 29.5059C28.3009 29.6539 28.7265 30.2947 28.7615 30.3471ZM19.2781 26.8203C20.2124 27.3309 21.3648 27.7901 22.436 27.912C22.8435 27.9587 23.2524 27.96 23.7989 27.8653C24.7513 27.7005 25.7728 27.2879 26.6281 26.8203C26.6281 28.8774 26.6224 28.6562 26.6446 28.8049C26.6486 28.8328 26.652 28.8607 26.6577 28.8882L22.953 30.9302L19.2482 28.8882C19.2543 28.8593 19.258 28.8301 19.262 28.8009C19.2828 28.6586 19.2781 28.9073 19.2781 26.8203ZM33.7838 13.9263C34.1869 13.9263 34.5149 14.2543 34.5149 14.6578V18.6771C34.5149 19.0802 34.1869 19.4082 33.7838 19.4082H31.545C31.6078 18.5569 31.8602 15.1258 31.9489 13.9263H33.7838ZM30.7682 12.4365L30.4977 16.1107C29.4936 15.3691 28.8873 14.1392 29.0374 12.796C29.0881 12.3395 28.9088 11.8856 28.558 11.5818C27.8923 11.0061 27.3475 10.3253 26.9329 9.55627C27.4825 8.30917 27.7218 6.95028 27.6261 5.56622C29.7306 7.13995 30.9727 9.66067 30.7682 12.4365ZM17.2119 6.52697C19.6417 3.91192 23.3242 3.40334 26.2179 4.72933C27.1928 9.56265 23.1117 13.9122 18.2475 13.2687C17.5691 13.1791 16.934 13.5866 16.7393 14.2382C16.5137 14.9932 16.0373 15.6531 15.4089 16.1161L15.1377 12.4362C14.9762 10.2394 15.7127 8.14099 17.2119 6.52697ZM11.3913 18.6771V14.6578C11.3913 14.2543 11.7193 13.9263 12.1225 13.9263H13.9574C13.9899 14.3704 14.2645 18.0966 14.3612 19.4082H12.1225C11.7193 19.4082 11.3913 19.0802 11.3913 18.6771ZM14.182 22.4744C13.8301 22.4744 13.5441 22.1884 13.5441 21.8366V20.6953H14.4659C14.5455 21.2985 14.7194 21.8947 14.9809 22.4744H14.182ZM17.3861 23.7611H19.308C19.3197 24.6504 20.0458 25.3705 20.9378 25.3705H23.4243C24.3233 25.3705 25.0551 24.639 25.0551 23.7397V22.4959C25.0551 21.5969 24.3236 20.8651 23.4243 20.8651H20.9378C20.0458 20.8651 19.3197 21.5852 19.308 22.4744H16.424C16.0508 21.8306 15.7752 21.09 15.7144 20.2656L15.5153 17.5595C16.6892 16.9529 17.5919 15.8787 17.9723 14.6064C17.984 14.5662 18.032 14.5383 18.0787 14.5447C21.2886 14.9697 24.4266 13.5265 26.2172 10.8574C26.6372 11.4852 27.1374 12.0542 27.7161 12.555C27.747 12.5819 27.7624 12.6178 27.7584 12.6534C27.5321 14.683 28.5671 16.6213 30.3913 17.5582L30.1918 20.2656C30.0203 22.5912 28.0978 24.5349 26.0564 25.6652C24.8291 26.3416 23.6633 26.6572 22.953 26.6572C22.2433 26.6572 21.0781 26.342 19.8515 25.6662C18.9518 25.1687 18.0988 24.5302 17.3861 23.7611ZM20.5937 22.4959C20.5937 22.3062 20.7481 22.1518 20.9378 22.1518H23.4243C23.6139 22.1518 23.7684 22.3062 23.7684 22.4959V23.7397C23.7684 23.9297 23.6139 24.0837 23.4243 24.0837H20.9378C20.7481 24.0837 20.5937 23.9297 20.5937 23.7397V22.4959ZM17.1444 30.3471C17.3502 30.0376 16.9763 30.6006 17.7034 29.5059C19.1294 30.2917 20.544 31.0715 21.9365 31.8393L20.1314 33.8675L17.1444 30.3471ZM22.953 32.6329L24.1393 33.9656L23.9721 35.2781H21.9338L21.7666 33.9659L22.953 32.6329ZM39.8148 43.3066H34.9812V38.0318C34.9812 37.6763 34.6932 37.3883 34.3377 37.3883C33.9825 37.3883 33.6945 37.6763 33.6945 38.0318V43.3066H25.663L25.4297 40.9956C25.3941 40.6422 25.0792 40.3843 24.7251 40.4203C24.3716 40.4559 24.1138 40.7714 24.1497 41.1249L24.3696 43.3066H21.5363L22.2161 36.5645H23.6898L23.8482 38.1372C23.8842 38.4904 24.1994 38.7485 24.5532 38.7126C24.9067 38.677 25.1642 38.3615 25.1286 38.008L24.9537 36.2734C25.0906 36.1311 25.184 35.9458 25.2105 35.738L25.2739 35.2405L25.3058 35.2761C25.5657 35.5682 26.0242 35.5624 26.277 35.2647L30.0556 30.8104C30.2412 30.5918 30.2597 30.277 30.1009 30.0383L30.0599 29.9765H35.3699C37.8205 29.9765 39.8145 31.9705 39.8145 34.4214V43.3066H39.8148ZM32.0516 12.5308C32.2372 10.0105 31.357 7.50283 29.6369 5.65148C27.8749 3.75481 25.4381 2.739 22.953 2.739C20.4681 2.739 18.0313 3.75481 16.2693 5.65148C14.5489 7.50283 13.669 10.0105 13.8547 12.5308L13.8627 12.6396H13.0023C12.7905 9.7644 13.7979 7.05099 15.6409 5.06738C18.6537 1.82458 23.4669 0.93868 27.461 2.95922C27.7782 3.11968 28.1653 2.99279 28.3257 2.67556C28.4859 2.35866 28.359 1.97161 28.0421 1.81115C23.4293 -0.522258 18.0169 0.619771 14.6982 4.19155C12.5753 6.47662 11.4883 9.57037 11.7153 12.6809C10.7972 12.8699 10.1043 13.6843 10.1043 14.6578V18.6774C10.1043 19.7899 11.0096 20.6953 12.1225 20.6953H12.2571V21.8366C12.2571 22.8977 13.1205 23.7611 14.182 23.7611H15.7258C16.3465 24.6306 17.1243 25.3725 17.9911 26.0036V28.2057C17.5523 28.0325 17.0353 28.1863 16.7685 28.5877L16.7007 28.6898H15.3314C14.9759 28.6898 14.6878 28.9778 14.6878 29.3333C14.6878 29.6885 14.9759 29.9765 15.3314 29.9765H15.846L15.8047 30.0383C15.6462 30.277 15.6647 30.5922 15.85 30.8107L19.6289 35.2647C19.881 35.5621 20.3396 35.5692 20.6001 35.2764L20.632 35.2405L20.6954 35.7377C20.7216 35.9458 20.8153 36.1308 20.9522 36.2731L20.2429 43.3066H12.2114V38.0318C12.2114 37.6763 11.9234 37.3883 11.5682 37.3883C11.2127 37.3883 10.9247 37.6763 10.9247 38.0318V43.3066H6.0914V34.4214C6.0914 31.9705 8.08542 29.9765 10.5363 29.9765H12.3289C12.6844 29.9765 12.9724 29.6885 12.9724 29.3333C12.9724 28.9778 12.6844 28.6898 12.3289 28.6898H10.5363C7.37576 28.6898 4.80469 31.2609 4.80469 34.4214V43.9497C4.80469 44.3052 5.09271 44.5933 5.44788 44.5933H40.458C40.8135 44.5933 41.1016 44.3052 41.1016 43.9497V34.4214C41.1016 31.2609 38.5301 28.6898 35.3699 28.6898H29.2052L29.1374 28.5877C28.8709 28.1863 28.3539 28.0328 27.9148 28.2057V26.0032C30.1573 24.3711 31.2117 22.4271 31.44 20.6953H33.7838C34.8966 20.6953 35.8016 19.7899 35.8016 18.6774V14.6578C35.8016 13.6843 35.1091 12.8699 34.1906 12.6809C34.4307 9.39614 33.2034 6.06741 30.736 3.71352C30.4789 3.46813 30.0717 3.47753 29.8263 3.73467C29.5812 3.99181 29.5906 4.39901 29.8478 4.6444C31.917 6.61828 33.1345 9.50457 32.9036 12.6396H32.0435L32.0516 12.5308Z" fill="#00C998"/>
</g>
<defs>
<clipPath id="clip0_1919_8824">
<rect width="44" height="44" fill="white" transform="translate(0.9375 0.593262)"/>
</clipPath>
</defs>
</svg>
