<svg width="82" height="15" viewBox="0 0 82 15" fill="none" xmlns="http://www.w3.org/2000/svg">
<path d="M0.125 8.28918V0.55481H2.46875V8.28918C2.46875 9.26575 2.80078 10.0665 3.46484 10.6915C4.14193 11.3686 4.94922 11.7072 5.88672 11.7072H17.2637V14.0704H5.88672C5.08594 14.0704 4.33398 13.9174 3.63086 13.6115C2.93424 13.3055 2.32552 12.892 1.80469 12.3712C1.28385 11.8634 0.873698 11.2612 0.574219 10.5646C0.27474 9.86145 0.125 9.10299 0.125 8.28918ZM18.6077 8.30872V5.97473C18.6077 5.17395 18.7607 4.42525 19.0666 3.72864C19.3791 3.02551 19.7926 2.41353 20.3069 1.8927C20.8277 1.37187 21.4364 0.958455 22.133 0.652466C22.8362 0.346476 23.5881 0.193481 24.3889 0.193481H33.9885C34.7893 0.193481 35.538 0.346476 36.2346 0.652466C36.9377 0.958455 37.5497 1.37187 38.0705 1.8927C38.5914 2.41353 39.0048 3.02551 39.3108 3.72864C39.6168 4.42525 39.7698 5.17395 39.7698 5.97473V8.30872C39.7698 9.09648 39.6168 9.84192 39.3108 10.545C39.0048 11.2417 38.5914 11.8504 38.0705 12.3712C37.5497 12.892 36.9377 13.3055 36.2346 13.6115C35.538 13.9174 34.7893 14.0704 33.9885 14.0704H24.3889C23.5881 14.0704 22.8362 13.9174 22.133 13.6115C21.4364 13.3055 20.8277 12.892 20.3069 12.3712C19.7926 11.8504 19.3791 11.2417 19.0666 10.545C18.7607 9.84192 18.6077 9.09648 18.6077 8.30872ZM20.9709 8.30872C20.9709 8.77747 21.0588 9.22017 21.2346 9.63684C21.4169 10.047 21.661 10.4051 21.967 10.7111C22.2795 11.017 22.6441 11.2612 23.0608 11.4435C23.484 11.6193 23.9267 11.7072 24.3889 11.7072H33.9885C34.4573 11.7072 34.8967 11.6193 35.3069 11.4435C35.7235 11.2612 36.0881 11.017 36.4006 10.7111C36.7131 10.4051 36.9573 10.047 37.133 9.63684C37.3153 9.22017 37.4065 8.77747 37.4065 8.30872V5.97473C37.4065 5.50598 37.3153 5.06653 37.133 4.65637C36.9573 4.23971 36.7131 3.87512 36.4006 3.56262C36.0881 3.25012 35.7235 3.00273 35.3069 2.82043C34.8967 2.63814 34.4573 2.547 33.9885 2.547H24.3889C23.9202 2.547 23.4774 2.63814 23.0608 2.82043C22.6441 3.00273 22.2795 3.25012 21.967 3.56262C21.661 3.87512 21.4169 4.23971 21.2346 4.65637C21.0588 5.06653 20.9709 5.50598 20.9709 5.97473V8.30872ZM41.27 8.4552V6.11145C41.27 5.32369 41.423 4.5815 41.729 3.88489C42.035 3.18176 42.4484 2.56653 42.9692 2.03918C43.4901 1.51184 44.0988 1.09517 44.7954 0.789185C45.4985 0.483195 46.2505 0.3302 47.0513 0.3302H55.352V2.69348H47.0513C46.5825 2.69348 46.1398 2.78463 45.7231 2.96692C45.313 3.1427 44.9516 3.38684 44.6391 3.69934C44.3266 4.01184 44.0792 4.37317 43.897 4.78333C43.7212 5.18697 43.6333 5.61666 43.6333 6.07239V8.4552C43.6333 8.92395 43.7212 9.35364 43.897 9.74426C44.0792 10.1349 44.3266 10.4767 44.6391 10.7697C44.9516 11.0626 45.3097 11.2937 45.7134 11.463C46.1235 11.6258 46.5565 11.7072 47.0122 11.7072H53.3501C53.8188 11.7072 54.2583 11.6258 54.6684 11.463C55.0851 11.2937 55.4497 11.0659 55.7622 10.7794C56.0747 10.493 56.3188 10.1544 56.4946 9.76379C56.6769 9.36666 56.768 8.93697 56.768 8.47473V8.40637H50.8696V6.05286H59.1313V8.4552C59.1313 9.24296 58.9783 9.97538 58.6723 10.6525C58.3664 11.3295 57.9529 11.922 57.4321 12.4298C56.9113 12.9376 56.2993 13.338 55.5962 13.631C54.8996 13.924 54.1509 14.0704 53.3501 14.0704H47.0513C46.2635 14.0704 45.518 13.9272 44.8149 13.6407C44.1183 13.3543 43.5063 12.9572 42.979 12.4493C42.4516 11.9415 42.035 11.3458 41.729 10.6622C41.423 9.97213 41.27 9.23645 41.27 8.4552ZM60.5144 8.30872V5.97473C60.5144 5.17395 60.6674 4.42525 60.9734 3.72864C61.2859 3.02551 61.6993 2.41353 62.2136 1.8927C62.7344 1.37187 63.3431 0.958455 64.0398 0.652466C64.7429 0.346476 65.4948 0.193481 66.2956 0.193481H75.8952C76.696 0.193481 77.4447 0.346476 78.1413 0.652466C78.8445 0.958455 79.4564 1.37187 79.9773 1.8927C80.4981 2.41353 80.9115 3.02551 81.2175 3.72864C81.5235 4.42525 81.6765 5.17395 81.6765 5.97473V8.30872C81.6765 9.09648 81.5235 9.84192 81.2175 10.545C80.9115 11.2417 80.4981 11.8504 79.9773 12.3712C79.4564 12.892 78.8445 13.3055 78.1413 13.6115C77.4447 13.9174 76.696 14.0704 75.8952 14.0704H66.2956C65.4948 14.0704 64.7429 13.9174 64.0398 13.6115C63.3431 13.3055 62.7344 12.892 62.2136 12.3712C61.6993 11.8504 61.2859 11.2417 60.9734 10.545C60.6674 9.84192 60.5144 9.09648 60.5144 8.30872ZM62.8777 8.30872C62.8777 8.77747 62.9655 9.22017 63.1413 9.63684C63.3236 10.047 63.5678 10.4051 63.8737 10.7111C64.1862 11.017 64.5508 11.2612 64.9675 11.4435C65.3907 11.6193 65.8334 11.7072 66.2956 11.7072H75.8952C76.364 11.7072 76.8034 11.6193 77.2136 11.4435C77.6303 11.2612 77.9948 11.017 78.3073 10.7111C78.6198 10.4051 78.864 10.047 79.0398 9.63684C79.2221 9.22017 79.3132 8.77747 79.3132 8.30872V5.97473C79.3132 5.50598 79.2221 5.06653 79.0398 4.65637C78.864 4.23971 78.6198 3.87512 78.3073 3.56262C77.9948 3.25012 77.6303 3.00273 77.2136 2.82043C76.8034 2.63814 76.364 2.547 75.8952 2.547H66.2956C65.8269 2.547 65.3842 2.63814 64.9675 2.82043C64.5508 3.00273 64.1862 3.25012 63.8737 3.56262C63.5678 3.87512 63.3236 4.23971 63.1413 4.65637C62.9655 5.06653 62.8777 5.50598 62.8777 5.97473V8.30872Z" fill="white"/>
</svg>
