<svg width="100" height="101" viewBox="0 0 100 101" fill="none" xmlns="http://www.w3.org/2000/svg">
<g filter="url(#filter0_di_1919_8546)">
<circle cx="49.9512" cy="50.9151" r="13.4512" fill="#00B484"/>
</g>
<path d="M80.6557 57.888C80.8196 57.7796 80.9693 57.6474 81.1049 57.4913C81.249 57.3364 81.3789 57.1576 81.4947 56.955C81.6105 56.7524 81.7115 56.5302 81.7978 56.2885C81.8828 56.0553 81.9445 55.8014 81.9828 55.5268C82.0943 54.7285 82.0218 54.119 81.7655 53.6982C81.5166 53.2872 81.1304 53.0451 80.6068 52.972C80.2463 52.9217 79.951 52.968 79.7211 53.1109C79.4899 53.2624 79.2836 53.518 79.1021 53.8777C78.9207 54.2374 78.7205 54.6995 78.5017 55.264C78.2734 55.8972 78.0318 56.4367 77.7771 56.8824C77.5223 57.3281 77.2139 57.657 76.8518 57.869C76.4983 58.0822 76.0468 58.1504 75.4975 58.0737C75.0769 58.015 74.7235 57.8826 74.4373 57.6764C74.151 57.4701 73.9253 57.2067 73.76 56.8861C73.5947 56.5656 73.4887 56.1964 73.442 55.7786C73.4039 55.362 73.4184 54.9133 73.4855 54.4327C73.5514 53.9606 73.6621 53.5122 73.8176 53.0876C73.9805 52.6729 74.1833 52.2855 74.4261 51.9256C74.6774 51.5669 74.9767 51.2411 75.3238 50.9483L75.9948 51.5014C75.8004 51.6405 75.6103 51.8109 75.4247 52.0125C75.2464 52.2239 75.078 52.4585 74.9195 52.7164C74.7598 52.9829 74.6235 53.2701 74.5105 53.5781C74.4049 53.8959 74.3281 54.2265 74.2802 54.5698C74.1783 55.2994 74.2323 55.8845 74.4421 56.3251C74.6507 56.7742 75.0168 57.0353 75.5404 57.1084C75.918 57.1611 76.2328 57.1 76.4848 56.9252C76.7453 56.7515 76.9772 56.4689 77.1806 56.0772C77.3841 55.6856 77.5964 55.1989 77.8176 54.6173C78.0522 54.0024 78.2901 53.4887 78.5315 53.0761C78.7728 52.6635 79.055 52.366 79.378 52.1836C79.7083 52.0109 80.1182 51.9588 80.6074 52.027C81.1739 52.1061 81.6311 52.3099 81.9791 52.6385C82.3344 52.9769 82.5766 53.4045 82.7057 53.9213C82.8434 54.4393 82.868 55.0159 82.7793 55.6511C82.723 56.0545 82.628 56.4219 82.4942 56.7532C82.3678 57.0944 82.207 57.4001 82.0118 57.6704C81.8154 57.9492 81.5833 58.2012 81.3156 58.4264L80.6557 57.888Z" fill="white"/>
<path d="M77.7557 67.811L79.1267 64.8214L71.4694 61.3099L71.8488 60.4827L79.506 63.9942L80.877 61.0046L81.6096 61.3406L78.4883 68.147L77.7557 67.811Z" fill="white"/>
<path d="M74.8228 72.8171L74.3087 73.3863L64.8883 70.0462L65.5331 69.3323L68.4765 70.3789L71.256 67.3012L69.907 64.489L70.5605 63.7654L74.8228 72.8171ZM69.1465 70.7038L73.7789 72.3824L71.6559 67.9252L69.1465 70.7038Z" fill="white"/>
<path d="M64.5586 70.1464L69.106 78.1785L65.7121 80.0999C65.3652 80.2963 65.0079 80.404 64.6402 80.423C64.2725 80.4419 63.9126 80.3868 63.5605 80.2574C63.2051 80.1399 62.8855 79.9624 62.6016 79.7247C62.3144 79.4989 62.0833 79.2314 61.9082 78.9222C61.6904 78.5375 61.5609 78.1328 61.5196 77.7081C61.4707 77.2876 61.5159 76.8835 61.655 76.496C61.7866 76.1128 62.0121 75.781 62.3314 75.5006L58.608 73.5153L59.5018 73.0094L63.069 74.9037L65.4447 73.5587L63.7667 70.5948L64.5586 70.1464ZM65.8418 74.2601L63.2173 75.746C62.9005 75.9253 62.6743 76.1679 62.5387 76.4737C62.4031 76.7796 62.3502 77.1083 62.38 77.4599C62.4141 77.8191 62.5207 78.1571 62.7001 78.4738C62.8837 78.7981 63.1278 79.0533 63.4323 79.2395C63.7336 79.4374 64.0556 79.5488 64.3985 79.5739C64.738 79.6107 65.0586 79.5437 65.3603 79.3729L67.917 77.9254L65.8418 74.2601Z" fill="white"/>
<path d="M53.0015 83.3714L56.2173 82.6813L54.4498 74.4448L55.3396 74.2539L57.107 82.4904L60.3228 81.8003L60.4919 82.5884L53.1706 84.1594L53.0015 83.3714Z" fill="white"/>
<path d="M28.7654 74.3206C28.7789 74.5167 28.8201 74.7121 28.889 74.907C28.9527 75.1088 29.0441 75.31 29.1632 75.5107C29.2824 75.7113 29.4258 75.9087 29.5936 76.103C29.7545 76.292 29.9449 76.4709 30.165 76.6397C30.8044 77.1303 31.3704 77.3679 31.8629 77.3525C32.3432 77.3387 32.7442 77.1221 33.066 76.7026C33.2876 76.4138 33.3929 76.1342 33.382 75.8636C33.3643 75.5878 33.2437 75.2823 33.0202 74.947C32.7968 74.6117 32.4935 74.2097 32.1104 73.741C31.6722 73.23 31.3221 72.7538 31.0599 72.3124C30.7978 71.871 30.6639 71.4405 30.658 71.0209C30.647 70.6083 30.8102 70.1819 31.1479 69.7418C31.4064 69.4049 31.6959 69.1628 32.0165 69.0155C32.337 68.8682 32.6775 68.8017 33.0379 68.816C33.3983 68.8304 33.7717 68.9203 34.1582 69.0857C34.5394 69.258 34.9226 69.4919 35.3076 69.7873C35.6858 70.0775 36.0212 70.3949 36.3139 70.7396C36.5944 71.0859 36.8313 71.4533 37.0246 71.842C37.2127 72.2376 37.3485 72.6585 37.4321 73.105L36.62 73.4159C36.5949 73.1781 36.5404 72.9288 36.4566 72.6679C36.3606 72.4085 36.2395 72.1463 36.0934 71.8812C35.9403 71.6109 35.7577 71.3506 35.5455 71.1004C35.3211 70.8518 35.0714 70.622 34.7964 70.411C34.2119 69.9625 33.6763 69.7209 33.1896 69.6861C32.696 69.6461 32.2883 69.8358 31.9665 70.2552C31.7344 70.5577 31.6322 70.8617 31.6601 71.1671C31.6827 71.4794 31.8142 71.8206 32.0545 72.1907C32.2949 72.5608 32.6135 72.9855 33.0105 73.4648C33.4296 73.9721 33.7591 74.4325 33.999 74.8459C34.2389 75.2594 34.3586 75.6516 34.358 76.0225C34.3452 76.3951 34.1885 76.7773 33.8878 77.1692C33.5396 77.623 33.1368 77.9203 32.6794 78.0609C32.2098 78.2031 31.7184 78.2029 31.2051 78.0603C30.6865 77.9247 30.1728 77.6616 29.664 77.2712C29.3408 77.0233 29.0681 76.7594 28.8458 76.4796C28.6114 76.2015 28.4248 75.9108 28.2859 75.6077C28.1402 75.2993 28.0355 74.9731 27.9716 74.6292L28.7654 74.3206Z" fill="white"/>
<path d="M21.6101 67.0307L23.5546 69.6834L30.3488 64.7031L30.8868 65.4371L24.0926 70.4173L26.037 73.07L25.387 73.5465L20.9601 67.5072L21.6101 67.0307Z" fill="white"/>
<path d="M18.663 62.0066L18.418 61.2797L25.9394 54.6973L26.2467 55.6089L23.8939 57.6641L25.2186 61.5939L28.3313 61.793L28.6427 62.717L18.663 62.0066ZM23.2828 58.0896L19.5527 61.3088L24.4788 61.6375L23.2828 58.0896Z" fill="white"/>
<path d="M26.0156 54.3149H16.7856V50.4149C16.7856 50.0163 16.868 49.6523 17.0326 49.3229C17.1973 48.9936 17.4226 48.7076 17.7086 48.4649C17.986 48.2136 18.298 48.0229 18.6446 47.8929C18.9826 47.7543 19.3293 47.6849 19.6846 47.6849C20.1266 47.6849 20.5426 47.7716 20.9326 47.9449C21.3226 48.1096 21.652 48.3479 21.9206 48.6599C22.1893 48.9633 22.367 49.3229 22.4536 49.7389L26.0156 47.4769V48.5039L22.6096 50.6749V53.4049H26.0156V54.3149ZM21.8036 53.4049V50.3889C21.8036 50.0249 21.704 49.7086 21.5046 49.4399C21.3053 49.1713 21.0453 48.9633 20.7246 48.8159C20.3953 48.6686 20.0486 48.5949 19.6846 48.5949C19.312 48.5949 18.9696 48.6816 18.6576 48.8549C18.337 49.0196 18.0813 49.2449 17.8906 49.5309C17.6913 49.8083 17.5916 50.1203 17.5916 50.4669V53.4049H21.8036Z" fill="white"/>
<path d="M20.2074 37.6862L19.2157 40.8222L27.2477 43.3621L26.9734 44.2297L18.9414 41.6898L17.9497 44.8258L17.1812 44.5828L19.4389 37.4432L20.2074 37.6862Z" fill="white"/>
<path d="M39.7313 21.1605C39.5536 21.0767 39.3628 21.0175 39.159 20.9828C38.9518 20.9401 38.7315 20.9219 38.4983 20.9283C38.265 20.9346 38.0227 20.9637 37.7713 21.0156C37.5279 21.064 37.2789 21.1432 37.0243 21.2532C36.2843 21.5727 35.8011 21.9513 35.5747 22.3889C35.3528 22.8151 35.3467 23.2709 35.5563 23.7562C35.7006 24.0904 35.8935 24.3186 36.1351 24.4408C36.3846 24.5597 36.7102 24.6032 37.1118 24.5713C37.5135 24.5395 38.0123 24.4705 38.6083 24.3641C39.268 24.2303 39.8544 24.1565 40.3676 24.1426C40.8808 24.1287 41.322 24.2213 41.6913 24.4206C42.0571 24.6119 42.3499 24.9622 42.5698 25.4714C42.7382 25.8613 42.8086 26.2321 42.7811 26.5838C42.7536 26.9355 42.6458 27.2653 42.4578 27.5731C42.2697 27.8808 42.0093 28.1632 41.6766 28.4201C41.3404 28.6691 40.9495 28.8898 40.5039 29.0822C40.0663 29.2712 39.6257 29.4095 39.1822 29.4972C38.7431 29.5735 38.3068 29.6014 37.8731 29.581C37.4361 29.5526 37.0022 29.4661 36.5717 29.3217L36.6957 28.461C36.9156 28.5548 37.1599 28.6287 37.4286 28.6826C37.7018 28.7251 37.9898 28.7471 38.2925 28.7485C38.6032 28.7466 38.9194 28.7138 39.2413 28.6504C39.5677 28.5755 39.89 28.4694 40.2083 28.332C40.8846 28.0399 41.3565 27.6898 41.624 27.2817C41.8994 26.8702 41.9323 26.4217 41.7227 25.9363C41.5716 25.5862 41.3558 25.349 41.0755 25.2246C40.7918 25.0922 40.4298 25.0408 39.9895 25.0705C39.5492 25.1001 39.023 25.1716 38.4111 25.2847C37.7639 25.4037 37.2013 25.4673 36.7234 25.4754C36.2455 25.4835 35.8447 25.397 35.521 25.2158C35.2018 25.0232 34.9443 24.7001 34.7485 24.2466C34.5217 23.7215 34.4584 23.2249 34.5584 22.7569C34.6629 22.2775 34.9024 21.8484 35.2769 21.4696C35.648 21.0828 36.1279 20.7623 36.7167 20.5081C37.0907 20.3466 37.454 20.2369 37.8066 20.1791C38.1637 20.1098 38.5085 20.0884 38.8409 20.1148C39.1812 20.1378 39.5171 20.2051 39.8485 20.3169L39.7313 21.1605Z" fill="white"/>
<path d="M49.8259 18.4415L46.5589 18.821L47.5308 27.1887L46.6269 27.2937L45.655 18.926L42.3879 19.3054L42.295 18.5048L49.7329 17.6409L49.8259 18.4415Z" fill="white"/>
<path d="M55.6164 18.3306L56.3698 18.4743L58.4075 28.2594L57.4626 28.0792L56.8285 25.0202L52.7549 24.2432L51.0521 26.8565L50.0944 26.6738L55.6164 18.3306ZM56.7581 24.2789L55.787 19.4484L53.0804 23.5774L56.7581 24.2789Z" fill="white"/>
<path d="M58.7519 28.511L63.2993 20.4789L66.6932 22.4004C67.0401 22.5968 67.3163 22.8478 67.5217 23.1533C67.7272 23.4589 67.8651 23.7958 67.9353 24.1643C68.0174 24.5294 68.0296 24.8949 67.9719 25.2606C67.9261 25.6231 67.8156 25.9589 67.6406 26.2681C67.4228 26.6527 67.1424 26.9721 66.7994 27.226C66.464 27.4843 66.0943 27.6535 65.6905 27.7335C65.2941 27.8179 64.8936 27.7953 64.4889 27.6658L64.7024 31.8799L63.8087 31.3739L63.5975 27.3404L61.2219 25.9954L59.5438 28.9593L58.7519 28.511ZM61.619 25.294L64.2435 26.7799C64.5603 26.9592 64.8847 27.0283 65.2167 26.9872C65.5487 26.9462 65.8578 26.8224 66.144 26.6159C66.4344 26.4019 66.6693 26.1365 66.8487 25.8198C67.0323 25.4955 67.1255 25.1549 67.1284 24.798C67.1431 24.4378 67.073 24.1043 66.918 23.7975C66.7749 23.4874 66.5525 23.2469 66.2508 23.0761L63.6941 21.6286L61.619 25.294Z" fill="white"/>
<path d="M76.0281 31.5776L73.7797 29.1771L67.6314 34.9358L67.0094 34.2716L73.1576 28.5129L70.9092 26.1125L71.4975 25.5615L76.6163 31.0266L76.0281 31.5776Z" fill="white"/>
<path d="M80.6557 57.888C80.8196 57.7796 80.9693 57.6474 81.1049 57.4913C81.249 57.3364 81.3789 57.1576 81.4947 56.955C81.6105 56.7524 81.7115 56.5302 81.7978 56.2885C81.8828 56.0553 81.9445 55.8014 81.9828 55.5268C82.0943 54.7285 82.0218 54.119 81.7655 53.6982C81.5166 53.2872 81.1304 53.0451 80.6068 52.972C80.2463 52.9217 79.951 52.968 79.7211 53.1109C79.4899 53.2624 79.2836 53.518 79.1021 53.8777C78.9207 54.2374 78.7205 54.6995 78.5017 55.264C78.2734 55.8972 78.0318 56.4367 77.7771 56.8824C77.5223 57.3281 77.2139 57.657 76.8518 57.869C76.4983 58.0822 76.0468 58.1504 75.4975 58.0737C75.0769 58.015 74.7235 57.8826 74.4373 57.6764C74.151 57.4701 73.9253 57.2067 73.76 56.8861C73.5947 56.5656 73.4887 56.1964 73.442 55.7786C73.4039 55.362 73.4184 54.9133 73.4855 54.4327C73.5514 53.9606 73.6621 53.5122 73.8176 53.0876C73.9805 52.6729 74.1833 52.2855 74.4261 51.9256C74.6774 51.5669 74.9767 51.2411 75.3238 50.9483L75.9948 51.5014C75.8004 51.6405 75.6103 51.8109 75.4247 52.0125C75.2464 52.2239 75.078 52.4585 74.9195 52.7164C74.7598 52.9829 74.6235 53.2701 74.5105 53.5781C74.4049 53.8959 74.3281 54.2265 74.2802 54.5698C74.1783 55.2994 74.2323 55.8845 74.4421 56.3251C74.6507 56.7742 75.0168 57.0353 75.5404 57.1084C75.918 57.1611 76.2328 57.1 76.4848 56.9252C76.7453 56.7515 76.9772 56.4689 77.1806 56.0772C77.3841 55.6856 77.5964 55.1989 77.8176 54.6173C78.0522 54.0024 78.2901 53.4887 78.5315 53.0761C78.7728 52.6635 79.055 52.366 79.378 52.1836C79.7083 52.0109 80.1182 51.9588 80.6074 52.027C81.1739 52.1061 81.6311 52.3099 81.9791 52.6385C82.3344 52.9769 82.5766 53.4045 82.7057 53.9213C82.8434 54.4393 82.868 55.0159 82.7793 55.6511C82.723 56.0545 82.628 56.4219 82.4942 56.7532C82.3678 57.0944 82.207 57.4001 82.0118 57.6704C81.8154 57.9492 81.5833 58.2012 81.3156 58.4264L80.6557 57.888Z" fill="white"/>
<path d="M77.7557 67.811L79.1267 64.8214L71.4694 61.3099L71.8488 60.4827L79.506 63.9942L80.877 61.0046L81.6096 61.3406L78.4883 68.147L77.7557 67.811Z" fill="white"/>
<path d="M74.8228 72.8171L74.3087 73.3863L64.8883 70.0462L65.5331 69.3323L68.4765 70.3789L71.256 67.3012L69.907 64.489L70.5605 63.7654L74.8228 72.8171ZM69.1465 70.7038L73.7789 72.3824L71.6559 67.9252L69.1465 70.7038Z" fill="white"/>
<path d="M64.5586 70.1464L69.106 78.1785L65.7121 80.0999C65.3652 80.2963 65.0079 80.404 64.6402 80.423C64.2725 80.4419 63.9126 80.3868 63.5605 80.2574C63.2051 80.1399 62.8855 79.9624 62.6016 79.7247C62.3144 79.4989 62.0833 79.2314 61.9082 78.9222C61.6904 78.5375 61.5609 78.1328 61.5196 77.7081C61.4707 77.2876 61.5159 76.8835 61.655 76.496C61.7866 76.1128 62.0121 75.781 62.3314 75.5006L58.608 73.5153L59.5018 73.0094L63.069 74.9037L65.4447 73.5587L63.7667 70.5948L64.5586 70.1464ZM65.8418 74.2601L63.2173 75.746C62.9005 75.9253 62.6743 76.1679 62.5387 76.4737C62.4031 76.7796 62.3502 77.1083 62.38 77.4599C62.4141 77.8191 62.5207 78.1571 62.7001 78.4738C62.8837 78.7981 63.1278 79.0533 63.4323 79.2395C63.7336 79.4374 64.0556 79.5488 64.3985 79.5739C64.738 79.6107 65.0586 79.5437 65.3603 79.3729L67.917 77.9254L65.8418 74.2601Z" fill="white"/>
<path d="M53.0015 83.3714L56.2173 82.6813L54.4498 74.4448L55.3396 74.2539L57.107 82.4904L60.3228 81.8003L60.4919 82.5884L53.1706 84.1594L53.0015 83.3714Z" fill="white"/>
<path d="M28.7654 74.3206C28.7789 74.5167 28.8201 74.7121 28.889 74.907C28.9527 75.1088 29.0441 75.31 29.1632 75.5107C29.2824 75.7113 29.4258 75.9087 29.5936 76.103C29.7545 76.292 29.9449 76.4709 30.165 76.6397C30.8044 77.1303 31.3704 77.3679 31.8629 77.3525C32.3432 77.3387 32.7442 77.1221 33.066 76.7026C33.2876 76.4138 33.3929 76.1342 33.382 75.8636C33.3643 75.5878 33.2437 75.2823 33.0202 74.947C32.7968 74.6117 32.4935 74.2097 32.1104 73.741C31.6722 73.23 31.3221 72.7538 31.0599 72.3124C30.7978 71.871 30.6639 71.4405 30.658 71.0209C30.647 70.6083 30.8102 70.1819 31.1479 69.7418C31.4064 69.4049 31.6959 69.1628 32.0165 69.0155C32.337 68.8682 32.6775 68.8017 33.0379 68.816C33.3983 68.8304 33.7717 68.9203 34.1582 69.0857C34.5394 69.258 34.9226 69.4919 35.3076 69.7873C35.6858 70.0775 36.0212 70.3949 36.3139 70.7396C36.5944 71.0859 36.8313 71.4533 37.0246 71.842C37.2127 72.2376 37.3485 72.6585 37.4321 73.105L36.62 73.4159C36.5949 73.1781 36.5404 72.9288 36.4566 72.6679C36.3606 72.4085 36.2395 72.1463 36.0934 71.8812C35.9403 71.6109 35.7577 71.3506 35.5455 71.1004C35.3211 70.8518 35.0714 70.622 34.7964 70.411C34.2119 69.9625 33.6763 69.7209 33.1896 69.6861C32.696 69.6461 32.2883 69.8358 31.9665 70.2552C31.7344 70.5577 31.6322 70.8617 31.6601 71.1671C31.6827 71.4794 31.8142 71.8206 32.0545 72.1907C32.2949 72.5608 32.6135 72.9855 33.0105 73.4648C33.4296 73.9721 33.7591 74.4325 33.999 74.8459C34.2389 75.2594 34.3586 75.6516 34.358 76.0225C34.3452 76.3951 34.1885 76.7773 33.8878 77.1692C33.5396 77.623 33.1368 77.9203 32.6794 78.0609C32.2098 78.2031 31.7184 78.2029 31.2051 78.0603C30.6865 77.9247 30.1728 77.6616 29.664 77.2712C29.3408 77.0233 29.0681 76.7594 28.8458 76.4796C28.6114 76.2015 28.4248 75.9108 28.2859 75.6077C28.1402 75.2993 28.0355 74.9731 27.9716 74.6292L28.7654 74.3206Z" fill="white"/>
<path d="M21.6101 67.0307L23.5546 69.6834L30.3488 64.7031L30.8868 65.4371L24.0926 70.4173L26.037 73.07L25.387 73.5465L20.9601 67.5072L21.6101 67.0307Z" fill="white"/>
<path d="M18.663 62.0066L18.418 61.2797L25.9394 54.6973L26.2467 55.6089L23.8939 57.6641L25.2186 61.5939L28.3313 61.793L28.6427 62.717L18.663 62.0066ZM23.2828 58.0896L19.5527 61.3088L24.4788 61.6375L23.2828 58.0896Z" fill="white"/>
<path d="M26.0156 54.3149H16.7856V50.4149C16.7856 50.0163 16.868 49.6523 17.0326 49.3229C17.1973 48.9936 17.4226 48.7076 17.7086 48.4649C17.986 48.2136 18.298 48.0229 18.6446 47.8929C18.9826 47.7543 19.3293 47.6849 19.6846 47.6849C20.1266 47.6849 20.5426 47.7716 20.9326 47.9449C21.3226 48.1096 21.652 48.3479 21.9206 48.6599C22.1893 48.9633 22.367 49.3229 22.4536 49.7389L26.0156 47.4769V48.5039L22.6096 50.6749V53.4049H26.0156V54.3149ZM21.8036 53.4049V50.3889C21.8036 50.0249 21.704 49.7086 21.5046 49.4399C21.3053 49.1713 21.0453 48.9633 20.7246 48.8159C20.3953 48.6686 20.0486 48.5949 19.6846 48.5949C19.312 48.5949 18.9696 48.6816 18.6576 48.8549C18.337 49.0196 18.0813 49.2449 17.8906 49.5309C17.6913 49.8083 17.5916 50.1203 17.5916 50.4669V53.4049H21.8036Z" fill="white"/>
<path d="M20.2074 37.6862L19.2157 40.8222L27.2477 43.3621L26.9734 44.2297L18.9414 41.6898L17.9497 44.8258L17.1812 44.5828L19.4389 37.4432L20.2074 37.6862Z" fill="white"/>
<path d="M39.7313 21.1605C39.5536 21.0767 39.3628 21.0175 39.159 20.9828C38.9518 20.9401 38.7315 20.9219 38.4983 20.9283C38.265 20.9346 38.0227 20.9637 37.7713 21.0156C37.5279 21.064 37.2789 21.1432 37.0243 21.2532C36.2843 21.5727 35.8011 21.9513 35.5747 22.3889C35.3528 22.8151 35.3467 23.2709 35.5563 23.7562C35.7006 24.0904 35.8935 24.3186 36.1351 24.4408C36.3846 24.5597 36.7102 24.6032 37.1118 24.5713C37.5135 24.5395 38.0123 24.4705 38.6083 24.3641C39.268 24.2303 39.8544 24.1565 40.3676 24.1426C40.8808 24.1287 41.322 24.2213 41.6913 24.4206C42.0571 24.6119 42.3499 24.9622 42.5698 25.4714C42.7382 25.8613 42.8086 26.2321 42.7811 26.5838C42.7536 26.9355 42.6458 27.2653 42.4578 27.5731C42.2697 27.8808 42.0093 28.1632 41.6766 28.4201C41.3404 28.6691 40.9495 28.8898 40.5039 29.0822C40.0663 29.2712 39.6257 29.4095 39.1822 29.4972C38.7431 29.5735 38.3068 29.6014 37.8731 29.581C37.4361 29.5526 37.0022 29.4661 36.5717 29.3217L36.6957 28.461C36.9156 28.5548 37.1599 28.6287 37.4286 28.6826C37.7018 28.7251 37.9898 28.7471 38.2925 28.7485C38.6032 28.7466 38.9194 28.7138 39.2413 28.6504C39.5677 28.5755 39.89 28.4694 40.2083 28.332C40.8846 28.0399 41.3565 27.6898 41.624 27.2817C41.8994 26.8702 41.9323 26.4217 41.7227 25.9363C41.5716 25.5862 41.3558 25.349 41.0755 25.2246C40.7918 25.0922 40.4298 25.0408 39.9895 25.0705C39.5492 25.1001 39.023 25.1716 38.4111 25.2847C37.7639 25.4037 37.2013 25.4673 36.7234 25.4754C36.2455 25.4835 35.8447 25.397 35.521 25.2158C35.2018 25.0232 34.9443 24.7001 34.7485 24.2466C34.5217 23.7215 34.4584 23.2249 34.5584 22.7569C34.6629 22.2775 34.9024 21.8484 35.2769 21.4696C35.648 21.0828 36.1279 20.7623 36.7167 20.5081C37.0907 20.3466 37.454 20.2369 37.8066 20.1791C38.1637 20.1098 38.5085 20.0884 38.8409 20.1148C39.1812 20.1378 39.5171 20.2051 39.8485 20.3169L39.7313 21.1605Z" fill="white"/>
<path d="M49.8259 18.4415L46.5589 18.821L47.5308 27.1887L46.6269 27.2937L45.655 18.926L42.3879 19.3054L42.295 18.5048L49.7329 17.6409L49.8259 18.4415Z" fill="white"/>
<path d="M55.6164 18.3306L56.3698 18.4743L58.4075 28.2594L57.4626 28.0792L56.8285 25.0202L52.7549 24.2432L51.0521 26.8565L50.0944 26.6738L55.6164 18.3306ZM56.7581 24.2789L55.787 19.4484L53.0804 23.5774L56.7581 24.2789Z" fill="white"/>
<path d="M58.7519 28.511L63.2993 20.4789L66.6932 22.4004C67.0401 22.5968 67.3163 22.8478 67.5217 23.1533C67.7272 23.4589 67.8651 23.7958 67.9353 24.1643C68.0174 24.5294 68.0296 24.8949 67.9719 25.2606C67.9261 25.6231 67.8156 25.9589 67.6406 26.2681C67.4228 26.6527 67.1424 26.9721 66.7994 27.226C66.464 27.4843 66.0943 27.6535 65.6905 27.7335C65.2941 27.8179 64.8936 27.7953 64.4889 27.6658L64.7024 31.8799L63.8087 31.3739L63.5975 27.3404L61.2219 25.9954L59.5438 28.9593L58.7519 28.511ZM61.619 25.294L64.2435 26.7799C64.5603 26.9592 64.8847 27.0283 65.2167 26.9872C65.5487 26.9462 65.8578 26.8224 66.144 26.6159C66.4344 26.4019 66.6693 26.1365 66.8487 25.8198C67.0323 25.4955 67.1255 25.1549 67.1284 24.798C67.1431 24.4378 67.073 24.1043 66.918 23.7975C66.7749 23.4874 66.5525 23.2469 66.2508 23.0761L63.6941 21.6286L61.619 25.294Z" fill="white"/>
<path d="M76.0281 31.5776L73.7797 29.1771L67.6314 34.9358L67.0094 34.2716L73.1576 28.5129L70.9092 26.1125L71.4975 25.5615L76.6163 31.0266L76.0281 31.5776Z" fill="white"/>
<defs>
<filter id="filter0_di_1919_8546" x="32.5" y="37.4639" width="34.9062" height="34.9023" filterUnits="userSpaceOnUse" color-interpolation-filters="sRGB">
<feFlood flood-opacity="0" result="BackgroundImageFix"/>
<feColorMatrix in="SourceAlpha" type="matrix" values="0 0 0 0 0 0 0 0 0 0 0 0 0 0 0 0 0 0 127 0" result="hardAlpha"/>
<feOffset dy="4"/>
<feGaussianBlur stdDeviation="2"/>
<feComposite in2="hardAlpha" operator="out"/>
<feColorMatrix type="matrix" values="0 0 0 0 0 0 0 0 0 0 0 0 0 0 0 0 0 0 0.25 0"/>
<feBlend mode="normal" in2="BackgroundImageFix" result="effect1_dropShadow_1919_8546"/>
<feBlend mode="normal" in="SourceGraphic" in2="effect1_dropShadow_1919_8546" result="shape"/>
<feColorMatrix in="SourceAlpha" type="matrix" values="0 0 0 0 0 0 0 0 0 0 0 0 0 0 0 0 0 0 127 0" result="hardAlpha"/>
<feOffset dy="4"/>
<feGaussianBlur stdDeviation="2"/>
<feComposite in2="hardAlpha" operator="arithmetic" k2="-1" k3="1"/>
<feColorMatrix type="matrix" values="0 0 0 0 0 0 0 0 0 0 0 0 0 0 0 0 0 0 0.25 0"/>
<feBlend mode="normal" in2="shape" result="effect2_innerShadow_1919_8546"/>
</filter>
</defs>
</svg>
