<svg width="36" height="36" viewBox="0 0 36 36" fill="none" xmlns="http://www.w3.org/2000/svg">
<g filter="url(#filter0_i_1919_8689)">
<circle cx="17.9766" cy="17.8523" r="17.5" fill="url(#paint0_linear_1919_8689)"/>
</g>
<g clip-path="url(#clip0_1919_8689)">
<path d="M15.4608 20.391L15.144 24.8474C15.5973 24.8474 15.7936 24.6526 16.0291 24.4188L18.1543 22.3877L22.558 25.6127C23.3657 26.0628 23.9347 25.8258 24.1526 24.8697L27.0432 11.3249L27.044 11.3241C27.3001 10.1302 26.6122 9.66337 25.8253 9.95626L8.8345 16.4613C7.67491 16.9114 7.69247 17.5578 8.63738 17.8507L12.9812 19.2018L23.0712 12.8884C23.546 12.5739 23.9778 12.7479 23.6227 13.0623L15.4608 20.391Z" fill="white"/>
</g>
<defs>
<filter id="filter0_i_1919_8689" x="0.476562" y="0.352295" width="35" height="56" filterUnits="userSpaceOnUse" color-interpolation-filters="sRGB">
<feFlood flood-opacity="0" result="BackgroundImageFix"/>
<feBlend mode="normal" in="SourceGraphic" in2="BackgroundImageFix" result="shape"/>
<feColorMatrix in="SourceAlpha" type="matrix" values="0 0 0 0 0 0 0 0 0 0 0 0 0 0 0 0 0 0 127 0" result="hardAlpha"/>
<feOffset dy="27"/>
<feGaussianBlur stdDeviation="10.5"/>
<feComposite in2="hardAlpha" operator="arithmetic" k2="-1" k3="1"/>
<feColorMatrix type="matrix" values="0 0 0 0 0.027451 0 0 0 0 0.0352941 0 0 0 0 0.101961 0 0 0 1 0"/>
<feBlend mode="normal" in2="shape" result="effect1_innerShadow_1919_8689"/>
</filter>
<linearGradient id="paint0_linear_1919_8689" x1="17.9766" y1="0.352295" x2="17.9766" y2="50.8469" gradientUnits="userSpaceOnUse">
<stop stop-color="#0D0F1F"/>
<stop offset="1" stop-color="#0E2328"/>
</linearGradient>
<clipPath id="clip0_1919_8689">
<rect width="19.1536" height="19.1536" fill="white" transform="translate(7.94531 8.27539)"/>
</clipPath>
</defs>
</svg>
