<svg width="36" height="36" viewBox="0 0 36 36" fill="none" xmlns="http://www.w3.org/2000/svg">
<g clip-path="url(#clip0_2017_1950)">
<path d="M18.2327 14.5154C16.5069 14.5154 15.1016 15.9199 15.1016 17.6458C15.1016 19.3725 16.5069 20.7773 18.2327 20.7773C19.9594 20.7773 21.3636 19.3725 21.3636 17.6458C21.3636 15.9203 19.959 14.5154 18.2327 14.5154Z" fill="black"/>
<path d="M18.2344 0.0993652C8.56976 0.0993652 0.734375 7.93475 0.734375 17.5994C0.734375 27.264 8.56976 35.0994 18.2344 35.0994C27.899 35.0994 35.7344 27.264 35.7344 17.5994C35.7344 7.93475 27.899 0.0993652 18.2344 0.0993652Z" fill="black"/>
<path fill-rule="evenodd" clip-rule="evenodd" d="M18.2327 9.12573C14.8221 9.12573 10.3953 9.9841 10.3953 9.9841L10.3841 9.99689C8.83074 10.2464 7.64062 11.5872 7.64062 13.2178V18.1282V21.9795C7.64376 23.5898 8.81008 24.9578 10.3921 25.2083L10.3953 25.2131C10.3953 25.2131 14.8221 26.0731 18.2327 26.0731C21.6434 26.0731 26.0702 25.2131 26.0702 25.2131C27.6556 24.9615 28.8231 23.5915 28.8248 21.9811V18.1298V13.2178C28.8225 11.6085 27.656 10.2396 26.0734 9.9889C26.0702 9.9841 21.6434 9.12573 18.2327 9.12573ZM16.1143 13.8922L22.4696 17.5994L16.1143 21.3067V13.8922Z" fill="white"/>
</g>
<defs>
<clipPath id="clip0_2017_1950">
<rect width="35" height="35" fill="white" transform="translate(0.734375 0.0993652)"/>
</clipPath>
</defs>
</svg>
