<svg width="319" height="499" viewBox="0 0 319 499" fill="none" xmlns="http://www.w3.org/2000/svg">
<path d="M105.257 326.056V423.997V461.087L131.04 434.424L299.783 259.926L304 255.565V249.499V176.322V161.322H289H214.004V74.9999V37.9103L188.221 64.5727L19.4778 239.071L15.2607 243.432V249.499V322.675V337.675H30.2607H69.6684C82.7097 337.675 95.114 333.469 105.257 326.056ZM139.006 223.377V236.354H154.006H218.226L180.255 275.62V262.643H165.255H144.637H120.269H105.269H101.035L139.006 223.377Z" fill="#013D31" stroke="#F9F9F9" stroke-width="30"/>
<path d="M285.816 324.577C283.693 326.674 281.077 327.722 277.969 327.722C274.861 327.722 272.246 326.674 270.122 324.577C267.999 322.48 266.938 319.851 266.938 316.691C266.938 313.53 267.999 310.901 270.122 308.805C272.246 306.708 274.861 305.659 277.969 305.659C281.077 305.659 283.693 306.708 285.816 308.805C287.939 310.901 289.001 313.53 289.001 316.691C289.001 319.851 287.939 322.48 285.816 324.577ZM277.969 326.036C280.585 326.036 282.739 325.154 284.431 323.392C286.123 321.629 286.97 319.395 286.97 316.691C286.97 314.016 286.123 311.798 284.431 310.035C282.739 308.273 280.585 307.391 277.969 307.391C275.384 307.391 273.23 308.273 271.507 310.035C269.815 311.798 268.968 314.016 268.968 316.691C268.968 319.365 269.815 321.599 271.507 323.392C273.23 325.154 275.384 326.036 277.969 326.036ZM273.261 322.434V310.765H278.984C280.185 310.765 281.185 311.069 281.985 311.676C282.816 312.284 283.231 313.12 283.231 314.184C283.231 315.581 282.554 316.508 281.2 316.964V317.055C282.123 317.329 282.708 318.028 282.954 319.152C283.016 319.517 283.062 319.973 283.092 320.52C283.123 321.036 283.169 321.432 283.231 321.705C283.292 321.979 283.385 322.146 283.508 322.206V322.434H280.369C280.246 322.374 280.077 321.477 279.861 319.745C279.769 318.712 279.154 318.195 278.015 318.195H276.446V322.434H273.261ZM276.446 313.272V315.916H278.431C279.538 315.916 280.092 315.475 280.092 314.594C280.092 313.712 279.538 313.272 278.431 313.272H276.446Z" fill="#013D31"/>
</svg>
