<svg width="319" height="499" viewBox="0 0 319 499" fill="none" xmlns="http://www.w3.org/2000/svg">
<path d="M104.996 326.056V423.997V461.087L130.779 434.424L299.522 259.926L303.739 255.565V249.499V176.322V161.322H288.739H213.743V74.9999V37.9103L187.96 64.5727L19.2171 239.071L15 243.432V249.499V322.675V337.675H30H69.4076C82.4489 337.675 94.8532 333.469 104.996 326.056ZM138.745 223.377V236.354H153.745H217.965L179.994 275.62V262.643H164.994H144.376H120.008H105.008H100.774L138.745 223.377Z" fill="#F1FF46" stroke="#013D31" stroke-width="30"/>
<path d="M119.996 323.724V425L288.739 250.501V177.325H198.743V76.0029L30 250.501V323.678H69.4076C86.5582 323.678 102.237 313.997 109.907 298.67L120.008 278.646H74.9981V268.723L153.745 187.291V222.357H243.741V232.28L164.994 313.712V278.646H120.008V323.724H119.996Z" fill="#F1FF46"/>
<path d="M285.554 324.577C283.431 326.674 280.815 327.722 277.707 327.722C274.599 327.722 271.984 326.674 269.861 324.577C267.737 322.48 266.676 319.851 266.676 316.691C266.676 313.53 267.737 310.901 269.861 308.805C271.984 306.708 274.599 305.659 277.707 305.659C280.815 305.659 283.431 306.708 285.554 308.805C287.677 310.901 288.739 313.53 288.739 316.691C288.739 319.851 287.677 322.48 285.554 324.577ZM277.707 326.036C280.323 326.036 282.477 325.154 284.169 323.392C285.862 321.629 286.708 319.395 286.708 316.691C286.708 314.016 285.862 311.798 284.169 310.035C282.477 308.273 280.323 307.391 277.707 307.391C275.123 307.391 272.969 308.273 271.245 310.035C269.553 311.798 268.707 314.016 268.707 316.691C268.707 319.365 269.553 321.599 271.245 323.392C272.969 325.154 275.123 326.036 277.707 326.036ZM272.999 322.434V310.765H278.723C279.923 310.765 280.923 311.069 281.723 311.676C282.554 312.284 282.969 313.12 282.969 314.184C282.969 315.581 282.292 316.508 280.938 316.964V317.055C281.861 317.329 282.446 318.028 282.692 319.152C282.754 319.517 282.8 319.973 282.831 320.52C282.861 321.036 282.908 321.432 282.969 321.705C283.031 321.979 283.123 322.146 283.246 322.206V322.434H280.107C279.984 322.374 279.815 321.477 279.6 319.745C279.507 318.712 278.892 318.195 277.753 318.195H276.184V322.434H272.999ZM276.184 313.272V315.916H278.169C279.277 315.916 279.831 315.475 279.831 314.594C279.831 313.712 279.277 313.272 278.169 313.272H276.184Z" fill="#F1FF46"/>
</svg>
