<svg width="452" height="681" viewBox="0 0 452 681" fill="none" xmlns="http://www.w3.org/2000/svg">
<rect x="6" width="440" height="600" rx="30" fill="#013D31"/>
<g opacity="0.5" filter="url(#filter0_f_98_710)">
<rect x="60" y="220" width="332" height="401" rx="30" fill="#013D31"/>
</g>
<mask id="mask0_98_710" style="mask-type:alpha" maskUnits="userSpaceOnUse" x="6" y="0" width="440" height="600">
<rect x="6" width="440" height="600" rx="30" fill="#013D31"/>
</mask>
<g mask="url(#mask0_98_710)">
<path opacity="0.2" d="M307.69 331.284V518.757L620 195.739V60.2795H453.435V-127.28L141.125 195.739V331.198H214.061C245.803 331.198 274.821 313.277 289.016 284.905L307.713 247.839H224.408V229.47L370.152 78.7278V143.639H536.717V162.008L390.973 312.75V247.839H307.713V331.284H307.69Z" fill="url(#paint0_linear_98_710)"/>
</g>
<path d="M44.4263 560.424V570L60.2256 553.5V546.581H51.7993V537L36 553.5V560.419H39.6897C41.2955 560.419 42.7635 559.504 43.4816 558.055L44.4274 556.161H40.2132V555.223L47.5862 547.523V550.839H56.0124V551.777L48.6395 559.477V556.161H44.4274V560.424H44.4263Z" fill="#F1FF46"/>
<path d="M138.082 564.292C137.47 564.902 136.716 565.207 135.82 565.207C134.924 565.207 134.17 564.902 133.558 564.292C132.947 563.682 132.641 562.918 132.641 561.998C132.641 561.079 132.947 560.315 133.558 559.705C134.17 559.095 134.924 558.79 135.82 558.79C136.716 558.79 137.47 559.095 138.082 559.705C138.694 560.315 139 561.079 139 561.998C139 562.918 138.694 563.682 138.082 564.292ZM135.82 564.716C136.574 564.716 137.195 564.46 137.683 563.947C138.17 563.435 138.414 562.785 138.414 561.998C138.414 561.221 138.17 560.576 137.683 560.063C137.195 559.55 136.574 559.294 135.82 559.294C135.075 559.294 134.454 559.55 133.958 560.063C133.47 560.576 133.226 561.221 133.226 561.998C133.226 562.776 133.47 563.426 133.958 563.947C134.454 564.46 135.075 564.716 135.82 564.716ZM134.463 563.669V560.275H136.113C136.459 560.275 136.747 560.363 136.978 560.54C137.217 560.717 137.337 560.96 137.337 561.269C137.337 561.676 137.142 561.945 136.751 562.078V562.105C137.017 562.184 137.186 562.387 137.257 562.714C137.275 562.82 137.288 562.953 137.297 563.112C137.306 563.262 137.319 563.377 137.337 563.457C137.354 563.536 137.381 563.585 137.417 563.603V563.669H136.512C136.476 563.651 136.428 563.391 136.366 562.887C136.339 562.586 136.162 562.436 135.833 562.436H135.381V563.669H134.463ZM135.381 561.004V561.773H135.953C136.272 561.773 136.432 561.645 136.432 561.389C136.432 561.132 136.272 561.004 135.953 561.004H135.381Z" fill="white"/>
<path d="M85.542 546.58V557.573C85.542 561.455 82.4237 564.601 78.5771 564.601H66.5201C65.2325 564.521 64.076 563.756 63.494 562.581L62.3965 560.366V560.323H78.5771C79.9921 560.323 81.1553 559.235 81.2895 557.843H70.5816C66.0661 557.843 62.4055 554.149 62.4055 549.593L62.4055 546.58H66.6449L66.6449 549.593C66.645 551.787 68.4075 553.565 70.5816 553.565H77.0453C78.3861 553.599 79.6028 554.376 80.2048 555.591L81.2895 557.843L81.3025 546.58H85.542Z" fill="white"/>
<path fill-rule="evenodd" clip-rule="evenodd" d="M87.5655 564.608H91.805V559.435H110.779V553.62C110.779 549.739 107.661 546.593 103.814 546.593H87.5655V564.608ZM96.0726 555.157H106.54V553.62C106.54 552.102 105.32 550.87 103.814 550.87H91.805V556.074H91.8063L91.805 559.435L92.9039 557.183C93.5073 555.965 94.7282 555.187 96.0726 555.157Z" fill="white"/>
<path d="M117.04 564.608H112.8V553.62C112.8 549.739 115.919 546.593 119.765 546.593H131.77C133.028 546.697 134.151 547.455 134.722 548.607L135.82 550.822V550.87H119.765C118.26 550.87 117.04 552.102 117.04 553.62V564.608Z" fill="white"/>
<g clip-path="url(#clip0_98_710)">
<path d="M361 41V36L356 43H359V48L364 41H361ZM360 52C354.477 52 350 47.523 350 42C350 36.477 354.477 32 360 32C365.523 32 370 36.477 370 42C370 47.523 365.523 52 360 52Z" fill="#F1FF46"/>
</g>
<g clip-path="url(#clip1_98_710)">
<path d="M401.33 41.5H403.5C404.693 41.5 405.838 41.9741 406.682 42.818C407.526 43.6619 408 44.8065 408 46H400.999L401 47H409V46C408.997 44.936 408.689 43.895 408.114 43H411C411.945 42.9997 412.871 43.2674 413.671 43.772C414.47 44.2767 415.11 44.9975 415.516 45.851C413.151 48.972 409.322 51 405 51C402.239 51 399.9 50.41 398 49.375V40.071C399.217 40.2453 400.365 40.7383 401.33 41.5ZM397 49C397 49.2652 396.895 49.5196 396.707 49.7071C396.52 49.8946 396.265 50 396 50H394C393.735 50 393.48 49.8946 393.293 49.7071C393.105 49.5196 393 49.2652 393 49V40C393 39.7348 393.105 39.4804 393.293 39.2929C393.48 39.1054 393.735 39 394 39H396C396.265 39 396.52 39.1054 396.707 39.2929C396.895 39.4804 397 39.7348 397 40V49ZM410 35C410.796 35 411.559 35.3161 412.121 35.8787C412.684 36.4413 413 37.2044 413 38C413 38.7956 412.684 39.5587 412.121 40.1213C411.559 40.6839 410.796 41 410 41C409.204 41 408.441 40.6839 407.879 40.1213C407.316 39.5587 407 38.7956 407 38C407 37.2044 407.316 36.4413 407.879 35.8787C408.441 35.3161 409.204 35 410 35ZM403 32C403.796 32 404.559 32.3161 405.121 32.8787C405.684 33.4413 406 34.2044 406 35C406 35.7956 405.684 36.5587 405.121 37.1213C404.559 37.6839 403.796 38 403 38C402.204 38 401.441 37.6839 400.879 37.1213C400.316 36.5587 400 35.7956 400 35C400 34.2044 400.316 33.4413 400.879 32.8787C401.441 32.3161 402.204 32 403 32Z" fill="#F1FF46"/>
</g>
<defs>
<filter id="filter0_f_98_710" x="0" y="160" width="452" height="521" filterUnits="userSpaceOnUse" color-interpolation-filters="sRGB">
<feFlood flood-opacity="0" result="BackgroundImageFix"/>
<feBlend mode="normal" in="SourceGraphic" in2="BackgroundImageFix" result="shape"/>
<feGaussianBlur stdDeviation="30" result="effect1_foregroundBlur_98_710"/>
</filter>
<linearGradient id="paint0_linear_98_710" x1="380.562" y1="518.757" x2="380.562" y2="-127.28" gradientUnits="userSpaceOnUse">
<stop stop-color="#F1FF46"/>
<stop offset="0.71" stop-color="#F1FF46" stop-opacity="0"/>
</linearGradient>
<clipPath id="clip0_98_710">
<rect width="24" height="24" fill="white" transform="translate(348 30)"/>
</clipPath>
<clipPath id="clip1_98_710">
<rect width="24" height="24" fill="white" transform="translate(392 30)"/>
</clipPath>
</defs>
</svg>
