<svg width="46" height="46" viewBox="0 0 46 46" fill="none" xmlns="http://www.w3.org/2000/svg">
<circle cx="23" cy="23" r="23" fill="#013D31"/>
<g clip-path="url(#clip0_54_299)">
<path d="M20.33 22.5H22.5C23.6935 22.5 24.8381 22.9741 25.682 23.818C26.5259 24.6619 27 25.8065 27 27H19.999L20 28H28V27C27.9968 25.936 27.6894 24.895 27.114 24H30C30.9453 23.9997 31.8712 24.2674 32.6705 24.772C33.4698 25.2767 34.1097 25.9975 34.516 26.851C32.151 29.972 28.322 32 24 32C21.239 32 18.9 31.41 17 30.375V21.071C18.2166 21.2453 19.3655 21.7383 20.33 22.5ZM16 30C16 30.2652 15.8946 30.5196 15.7071 30.7071C15.5196 30.8946 15.2652 31 15 31H13C12.7348 31 12.4804 30.8946 12.2929 30.7071C12.1054 30.5196 12 30.2652 12 30V21C12 20.7348 12.1054 20.4804 12.2929 20.2929C12.4804 20.1054 12.7348 20 13 20H15C15.2652 20 15.5196 20.1054 15.7071 20.2929C15.8946 20.4804 16 20.7348 16 21V30ZM29 16C29.7956 16 30.5587 16.3161 31.1213 16.8787C31.6839 17.4413 32 18.2044 32 19C32 19.7956 31.6839 20.5587 31.1213 21.1213C30.5587 21.6839 29.7956 22 29 22C28.2044 22 27.4413 21.6839 26.8787 21.1213C26.3161 20.5587 26 19.7956 26 19C26 18.2044 26.3161 17.4413 26.8787 16.8787C27.4413 16.3161 28.2044 16 29 16ZM22 13C22.7956 13 23.5587 13.3161 24.1213 13.8787C24.6839 14.4413 25 15.2044 25 16C25 16.7956 24.6839 17.5587 24.1213 18.1213C23.5587 18.6839 22.7956 19 22 19C21.2044 19 20.4413 18.6839 19.8787 18.1213C19.3161 17.5587 19 16.7956 19 16C19 15.2044 19.3161 14.4413 19.8787 13.8787C20.4413 13.3161 21.2044 13 22 13Z" fill="#F1FF46"/>
</g>
<defs>
<clipPath id="clip0_54_299">
<rect width="24" height="24" fill="white" transform="translate(11 11)"/>
</clipPath>
</defs>
</svg>
