<svg width="62" height="64" viewBox="0 0 62 64" fill="none" xmlns="http://www.w3.org/2000/svg">
<path d="M25.1629 21.1264C25.7544 20.0802 26.3434 19.0958 28.306 17.6799L30.8596 19.5086L28.1106 21.4773H24.9372C25.0146 21.3461 25.0911 21.2284 25.1629 21.1264Z" fill="#013D31"/>
<path d="M24.3481 24.0175V25.8083H30.6315L33.3805 23.8396L30.6315 21.871H24.8892C24.5997 22.4594 24.3481 23.2153 24.3481 24.0175Z" fill="#013D31"/>
<path d="M32.2023 26.202L34.9513 28.1707L32.2023 30.1393H24.3481V26.202H32.2023Z" fill="#013D31"/>
<path d="M24.3481 30.533H34.1659L36.9149 32.5017L34.1659 34.4703H24.3481V30.533Z" fill="#013D31"/>
<path d="M24.3481 34.8641H36.5222L39.2712 36.8327L36.5222 38.8013H24.3481V34.8641Z" fill="#013D31"/>
<path d="M24.3481 43.1324V39.1951H37.7003L40.4493 41.1637L37.7003 43.1324H24.3481Z" fill="#013D31"/>
<path d="M39.2712 43.5261H24.3481V47.4634H39.2712L42.0201 45.4947L39.2712 43.5261Z" fill="#013D31"/>
<path d="M9.81779 20.493H11.3886C11.5195 18.6556 12.4097 14.9808 14.923 14.9808C17.4364 14.9808 17.672 17.7369 17.4757 19.1149V47.4443H23.9554V23.6237V18.1306C23.8245 15.8338 22.3453 11.2403 17.4757 11.2403C11.3886 11.2403 9.81779 17.3431 9.81779 20.493Z" fill="#013D31"/>
<path d="M24.3481 17.5922C24.3615 17.5749 24.375 17.5575 24.3886 17.54H24.4062H27.9222C26.3327 18.5935 25.1186 20.0445 24.4733 21.4773H24.3481V17.6161V17.5922Z" fill="#013D31"/>
<path d="M28.4746 17.1989L28.4011 17.1463H24.7067C26.7269 14.7294 30.8677 11.2403 35.9331 11.2403C43.1983 11.2403 44.5728 18.7212 44.5728 22.2647V52.9756C44.5728 55.2723 44.8869 60.6927 46.1436 64H39.8602C39.3366 62.7532 38.2894 58.8028 38.2894 52.9756V47.8571H39.397L42.6958 45.4947L39.397 43.1324H38.376L41.1249 41.1637L38.2894 39.1331V38.0196L39.9468 36.8327L38.2894 35.6458V21.2804C38.2239 19.5086 37.072 15.9651 32.9878 15.9651C31.3272 15.9651 29.7913 16.4441 28.4746 17.1989Z" fill="#013D31"/>
<path d="M24.4733 21.4773H24.3481V17.6161L23.9554 18.1306V23.6237C23.9554 22.8363 24.3007 21.8647 24.4733 21.4773Z" fill="#013D31"/>
<path d="M24.4062 17.54H27.9222L28.4746 17.1989L28.4011 17.1463H24.7067L24.4062 17.54Z" fill="#013D31"/>
<path d="M9.81779 20.493H11.3886C11.5195 18.6556 12.4097 14.9808 14.923 14.9808C17.4364 14.9808 17.672 17.7369 17.4757 19.1149V47.4443H23.9554V23.6237V18.1306C23.8245 15.8338 22.3453 11.2403 17.4757 11.2403C11.3886 11.2403 9.81779 17.3431 9.81779 20.493Z" fill="#013D31"/>
<path d="M24.3481 17.5922C24.3615 17.5749 24.375 17.5575 24.3886 17.54H24.4062H27.9222C26.3327 18.5935 25.1186 20.0445 24.4733 21.4773H24.3481V17.6161V17.5922Z" fill="#013D31"/>
<path d="M28.4746 17.1989L28.4011 17.1463H24.7067C26.7269 14.7294 30.8677 11.2403 35.9331 11.2403C43.1983 11.2403 44.5728 18.7212 44.5728 22.2647V52.9756C44.5728 55.2723 44.8869 60.6927 46.1436 64H39.8602C39.3366 62.7532 38.2894 58.8028 38.2894 52.9756V47.8571H39.397L42.6958 45.4947L39.397 43.1324H38.376L41.1249 41.1637L38.2894 39.1331V38.0196L39.9468 36.8327L38.2894 35.6458V21.2804C38.2239 19.5086 37.072 15.9651 32.9878 15.9651C31.3272 15.9651 29.7913 16.4441 28.4746 17.1989Z" fill="#013D31"/>
<path d="M24.4733 21.4773H24.3481V17.6161L23.9554 18.1306V23.6237C23.9554 22.8363 24.3007 21.8647 24.4733 21.4773Z" fill="#013D31"/>
<path d="M24.4062 17.54H27.9222L28.4746 17.1989L28.4011 17.1463H24.7067L24.4062 17.54Z" fill="#013D31"/>
<path d="M22.1549 12.7832L29.3893 3.3119L58.6967 25.8139L44.9655 43.7906V47.6761L62 25.3747L28.9512 0L20.2375 11.408C20.9974 11.7506 21.6314 12.229 22.1549 12.7832Z" fill="#013D31"/>
<path d="M21.9129 13.0999C21.3955 12.5407 20.7617 12.0616 19.9916 11.7298L16.8376 15.859C17.4879 16.7052 17.5874 17.9842 17.5042 18.8718L21.9129 13.0999Z" fill="#013D31"/>
<path d="M17.083 19.4233L3.81724 36.7906L17.083 46.9759V47.8381H18.2058L33.1246 59.2926L37.8967 53.0449C37.8986 54.3743 37.9545 55.6075 38.0462 56.7347L33.5627 62.6045L0.5139 37.2298L16.5888 16.1847C16.692 16.3339 16.7791 16.4999 16.8516 16.6791C17.1653 17.4542 17.1792 18.4116 17.0869 19.0592L17.083 19.0869V19.4233Z" fill="#013D31"/>
<path d="M44.5728 48.1902L38.4043 56.2659C38.332 55.25 38.2894 54.151 38.2894 52.9756V52.5309L44.5728 44.3047V48.1902Z" fill="#013D31"/>
<path d="M17.693 47.4443L17.4757 47.2774V47.4443H17.693Z" fill="#013D31"/>
<path d="M13.7449 62.4251H10.7362L9.54014 58.5794H4.0646L2.93399 62.4251H0L5.33538 45.4947H8.26002L13.7449 62.4251ZM8.65247 55.7269L6.765 49.4444L4.9149 55.7269H8.65247Z" fill="#013D31"/>
<path d="M15.3158 62.4251V53.3693H20.6756V54.9013H16.8866V56.9088H20.4044V58.4346H16.8866V60.8993H20.8137V62.4251H15.3158Z" fill="#013D31"/>
<path d="M21.9918 62.4251V56.9129H25.0546V57.8454H22.9736V59.0674H24.8997V59.9961H22.9736V61.4964H25.1335V62.4251H21.9918Z" fill="#013D31"/>
</svg>
