<svg width="132" height="42" viewBox="0 0 132 42" fill="none" xmlns="http://www.w3.org/2000/svg">
<path d="M10.7318 29.5649V41.6519L30.8535 20.826V12.0925H20.1219V-1.52588e-05L0.000234604 20.826V29.5594H4.69938C6.7445 29.5594 8.61408 28.4039 9.52869 26.5747L10.7333 24.185H5.36602V23.0007L14.7562 13.2819V17.4669H25.4877V18.6512L16.0976 28.37V24.185H10.7333V29.5649H10.7318Z" fill="#013D31"/>
<path d="M130.146 34.4475C129.366 35.2172 128.406 35.6021 127.265 35.6021C126.124 35.6021 125.164 35.2172 124.385 34.4475C123.605 33.6778 123.216 32.7128 123.216 31.5526C123.216 30.3924 123.605 29.4275 124.385 28.6577C125.164 27.888 126.124 27.5031 127.265 27.5031C128.406 27.5031 129.366 27.888 130.146 28.6577C130.925 29.4275 131.315 30.3924 131.315 31.5526C131.315 32.7128 130.925 33.6778 130.146 34.4475ZM127.265 34.983C128.225 34.983 129.016 34.6595 129.637 34.0124C130.258 33.3654 130.569 32.5455 130.569 31.5526C130.569 30.5709 130.258 29.7566 129.637 29.1095C129.016 28.4625 128.225 28.139 127.265 28.139C126.316 28.139 125.526 28.4625 124.893 29.1095C124.272 29.7566 123.961 30.5709 123.961 31.5526C123.961 32.5343 124.272 33.3542 124.893 34.0124C125.526 34.6595 126.316 34.983 127.265 34.983ZM125.537 33.661V29.3773H127.638C128.078 29.3773 128.446 29.4888 128.739 29.7119C129.044 29.935 129.197 30.2418 129.197 30.6323C129.197 31.1454 128.948 31.4857 128.451 31.653V31.6865C128.79 31.7869 129.005 32.0435 129.095 32.4562C129.118 32.5901 129.135 32.7574 129.146 32.9582C129.157 33.1479 129.174 33.2929 129.197 33.3933C129.219 33.4937 129.253 33.555 129.298 33.5774V33.661H128.146C128.101 33.6387 128.039 33.3096 127.96 32.6737C127.926 32.2945 127.7 32.1048 127.282 32.1048H126.706V33.661H125.537ZM126.706 30.2976V31.2681H127.435C127.841 31.2681 128.045 31.1064 128.045 30.7829C128.045 30.4594 127.841 30.2976 127.435 30.2976H126.706Z" fill="#013D31"/>
<path d="M63.2316 12.0921V25.9673C63.2316 30.8663 59.2602 34.8376 54.3613 34.8376H39.0057C37.3658 34.7366 35.8929 33.7705 35.1517 32.2881L33.7539 29.4925V29.4383H54.3613C56.1634 29.4383 57.6448 28.0649 57.8158 26.3077H44.1783C38.4274 26.3077 33.7654 21.6457 33.7654 15.8948L33.7653 12.0921H39.1647L39.1647 15.8947C39.1647 18.6637 41.4094 20.9083 44.1783 20.9083H52.4105C54.118 20.9508 55.6677 21.9318 56.4343 23.4652L57.8158 26.3077L57.8323 12.0921H63.2316Z" fill="#013D31"/>
<path fill-rule="evenodd" clip-rule="evenodd" d="M65.8088 34.8464H71.2081V28.3166H95.3735V20.9779C95.3735 16.079 91.4021 12.1076 86.5032 12.1076H65.8088V34.8464ZM76.6433 22.9173H89.9741V20.9779C89.9741 19.0609 88.4201 17.5069 86.5032 17.5069H71.2081V24.0743H71.2098L71.2081 28.3166L72.6077 25.4744C73.3761 23.9376 74.9311 22.9555 76.6433 22.9173Z" fill="#013D31"/>
<path d="M103.347 34.8464H97.9475V20.9779C97.9475 16.079 101.919 12.1076 106.818 12.1076H122.106C123.709 12.2388 125.14 13.1962 125.867 14.6504L127.265 17.4458V17.5069H106.818C104.901 17.5069 103.347 19.0609 103.347 20.9779V34.8464Z" fill="#013D31"/>
</svg>
