<svg width="99" height="52" viewBox="0 0 99 52" fill="none" xmlns="http://www.w3.org/2000/svg">
<path d="M0.0287108 40.557H7.86867L8.27501 39.4897L8.68134 38.4461L9.44622 38.9916C11.6691 40.6519 14.4896 41.5057 17.7881 41.5057C20.7759 41.5057 22.1383 41.1974 24.8632 39.9403C28.8549 38.0904 31.771 34.5327 32.8944 30.145C33.7788 26.7534 33.5397 22.6265 32.2968 19.3772C31.6037 17.551 29.6437 14.6812 28.4007 13.6613C23.6203 9.77162 16.9276 8.70434 11.8364 11.0049C11.0955 11.337 10.4501 11.6216 10.4023 11.6216C10.3545 11.6216 10.3067 9.01266 10.3067 5.8108V0H0.0287108V40.557ZM19.2701 19.7093C21.6125 20.8951 22.8076 22.8637 22.8315 25.4963C22.8554 27.7021 22.3057 29.0777 20.8715 30.4059C19.3179 31.8526 17.9315 32.3507 15.8281 32.2084C12.195 31.9475 9.82866 29.3149 9.82866 25.4963C9.82866 23.6938 10.8565 21.4407 12.1472 20.4682C14.155 18.9503 17.1428 18.6183 19.2701 19.7093Z" fill="#013D31"/>
<path d="M53.8089 0.853836C53.6416 1.25703 53.6416 1.96856 53.8328 2.98841C54.2869 5.57363 55.1235 5.43132 55.4103 2.72752C55.6016 0.948706 55.3864 0.23718 54.6455 0.23718C54.2152 0.23718 53.9762 0.42692 53.8089 0.853836Z" fill="#013D31"/>
<path d="M85.8141 5.50247C84.0453 7.37615 81.0097 10.578 79.0736 12.6177L75.56 16.3414V18.7369H81.0575V24.9508C81.0575 29.4097 81.1531 31.6392 81.3922 32.7539C82.2287 36.6436 84.4994 39.1102 88.1804 40.1301C89.4711 40.4858 90.6423 40.557 94.3711 40.557H98.9842V31.3071H96.2594C93.8453 31.3071 93.4867 31.2597 92.8892 30.7854C91.694 29.8604 91.5745 29.1726 91.5745 23.7175V18.7369H98.9842L98.9364 14.7523L98.8647 10.7915L91.3355 10.6492V2.13458H89.017L85.8141 5.50247Z" fill="#013D31"/>
<path d="M42.9812 3.2493C42.527 3.69994 42.8616 4.55377 43.7938 5.19414C44.7977 5.92939 46.3275 6.54604 46.5665 6.33258C47.0445 5.83452 44.6065 3.08328 43.6982 3.08328C43.3875 3.08328 43.0529 3.15443 42.9812 3.2493Z" fill="#013D31"/>
<path d="M64.2303 4.67236C63.1547 5.76336 62.5332 6.85437 62.8201 7.13898C63.0591 7.37616 64.4215 6.73578 65.6644 5.8108C66.3098 5.31273 66.4771 5.02812 66.4293 4.55377C66.3098 3.5102 65.3298 3.58135 64.2303 4.67236Z" fill="#013D31"/>
<path d="M36.5275 9.10754C36.0973 9.55817 36.2168 10.1037 36.8622 10.4357C37.5314 10.7915 40.2563 10.7203 40.806 10.3408C41.2363 10.0088 41.1885 9.96137 40.1368 9.51073C38.5353 8.77549 37.0295 8.63319 36.5275 9.10754Z" fill="#013D31"/>
<path d="M52.0162 9.86649C46.6382 10.7203 42.1685 13.851 39.9695 18.2862C37.627 22.9823 37.6987 28.6508 40.1129 33.2757C41.4753 35.9083 44.2241 38.5173 47.0206 39.8692L49.2197 40.9127L49.3153 42.2884C49.4348 43.7589 49.9606 44.7313 50.9645 45.2293C51.7533 45.6325 58.2547 45.6325 59.0435 45.2293C60.0952 44.7076 60.5971 43.7589 60.6928 42.1223L60.7884 40.6044L62.6288 39.7032C65.3059 38.3513 68.0069 35.6237 69.3215 32.9437C69.8473 31.8289 70.3015 30.7854 70.3015 30.6431C70.3015 30.4296 68.939 30.3584 65.1625 30.3584H59.9996L59.2825 31.1648C58.183 32.4219 56.6772 33.0385 54.6694 33.0622C51.8011 33.0622 49.9606 31.8764 49.0284 29.4572L48.5504 28.2239H70.7078L70.8751 27.3226C71.3054 24.6188 70.7317 21.2035 69.3215 18.3099C67.4571 14.4914 63.6088 11.4556 59.1869 10.2934C57.7528 9.91393 53.3547 9.67675 52.0162 9.86649ZM56.6533 18.2625C58.2308 18.7131 59.904 20.3022 60.3581 21.749L60.5254 22.2945H54.6694C51.4426 22.2945 48.7894 22.247 48.7894 22.1759C48.7894 21.6304 50.0084 19.8516 50.8689 19.1401C52.0401 18.1439 54.7889 17.717 56.6533 18.2625Z" fill="#013D31"/>
<path d="M69.3932 10.2223C67.5049 10.9575 68.0547 11.5504 70.66 11.5979C71.9985 11.6216 72.9307 11.1472 72.9307 10.4594C72.9307 9.58189 71.3532 9.48702 69.3932 10.2223Z" fill="#013D31"/>
<path d="M97.7966 52C97.5801 52 97.3709 51.9735 97.1691 51.9206C96.9673 51.8677 96.8012 51.7989 96.6708 51.7143L96.9513 51.0318C97.0744 51.1085 97.211 51.1707 97.3611 51.2183C97.5136 51.2632 97.6613 51.2857 97.804 51.2857C97.8877 51.2857 97.9529 51.2804 97.9997 51.2699C98.0489 51.2566 98.0846 51.2394 98.1067 51.2183C98.1289 51.1945 98.1399 51.1667 98.1399 51.1349C98.1399 51.0847 98.1141 51.045 98.0624 51.0159C98.0107 50.9868 97.9418 50.963 97.8557 50.9445C97.772 50.9233 97.6798 50.9021 97.5789 50.881C97.478 50.8572 97.3758 50.8267 97.2725 50.7897C97.1716 50.7527 97.0781 50.7037 96.9919 50.6429C96.9083 50.582 96.8406 50.5027 96.7889 50.4048C96.7373 50.3043 96.7114 50.1799 96.7114 50.0318C96.7114 49.8598 96.7557 49.7038 96.8443 49.5635C96.9353 49.4207 97.0695 49.3069 97.2466 49.2223C97.4263 49.1376 97.649 49.0953 97.9148 49.0953C98.0895 49.0953 98.2617 49.1151 98.4315 49.1548C98.6013 49.1945 98.7539 49.2553 98.8893 49.3374L98.6272 50.0159C98.4992 49.9471 98.3749 49.8955 98.2544 49.8612C98.1362 49.8268 98.0206 49.8096 97.9074 49.8096C97.8237 49.8096 97.7573 49.8175 97.7081 49.8334C97.6588 49.8492 97.6232 49.8704 97.601 49.8969C97.5813 49.9233 97.5715 49.9524 97.5715 49.9842C97.5715 50.0318 97.5973 50.0701 97.649 50.0992C97.7007 50.1257 97.7683 50.1482 97.852 50.1667C97.9381 50.1852 98.0317 50.2051 98.1326 50.2262C98.2359 50.2474 98.338 50.2765 98.4389 50.3135C98.5398 50.3506 98.6321 50.3995 98.7158 50.4603C98.8019 50.5212 98.8708 50.6006 98.9225 50.6984C98.9742 50.7963 99 50.918 99 51.0635C99 51.2328 98.9545 51.3889 98.8634 51.5318C98.7748 51.672 98.6419 51.7857 98.4648 51.873C98.2876 51.9577 98.0649 52 97.7966 52Z" fill="#013D31"/>
<path d="M89.0678 51.9365V49.1588H89.7839L91.098 50.8492H90.7658V49.1588H91.6148V51.9365H90.8987L89.5846 50.2461H89.9168V51.9365H89.0678Z" fill="#013D31"/>
<path d="M81.0148 51.9365L82.1443 49.1588H83.0007L84.1302 51.9365H83.2296L82.3953 49.6032H82.7349L81.9007 51.9365H81.0148ZM81.6866 51.4524L81.9081 50.7778H83.0967L83.3182 51.4524H81.6866Z" fill="#013D31"/>
<path d="M73.7461 51.9365V49.1588H74.99C75.2312 49.1588 75.4391 49.2011 75.6139 49.2858C75.791 49.3704 75.9276 49.4921 76.0236 49.6509C76.1196 49.8069 76.1675 49.9921 76.1675 50.2064C76.1675 50.4207 76.1196 50.6059 76.0236 50.7619C75.9276 50.9154 75.791 51.0331 75.6139 51.1151C75.4391 51.1971 75.2312 51.2381 74.99 51.2381H74.2296L74.6172 50.8532V51.9365H73.7461ZM75.2927 51.9365L74.6578 50.9246H75.5806L76.2229 51.9365H75.2927ZM74.6172 50.9564L74.2296 50.5318H74.9347C75.0553 50.5318 75.1438 50.5027 75.2004 50.4445C75.2595 50.3863 75.289 50.3069 75.289 50.2064C75.289 50.1059 75.2595 50.0265 75.2004 49.9683C75.1438 49.9101 75.0553 49.881 74.9347 49.881H74.2296L74.6172 49.4564V50.9564Z" fill="#013D31"/>
<path d="M67.0933 51.9365V49.885H66.3366V49.1588H68.7212V49.885H67.9644V51.9365H67.0933Z" fill="#013D31"/>
<path d="M59.8496 51.9365V50.7183L60.0489 51.2778L58.8751 49.1588H59.7942L60.5878 50.6072H60.0526L60.8536 49.1588H61.6952L60.5287 51.2778L60.7207 50.7183V51.9365H59.8496Z" fill="#013D31"/>
<path d="M52.8895 52C52.6803 52 52.4871 51.9656 52.31 51.8968C52.1352 51.8254 51.9827 51.7249 51.8522 51.5952C51.7243 51.4656 51.6246 51.3122 51.5533 51.1349C51.4819 50.9577 51.4462 50.7619 51.4462 50.5476C51.4462 50.3334 51.4819 50.1376 51.5533 49.9604C51.6246 49.7831 51.7255 49.6297 51.8559 49.5C51.9864 49.3704 52.1402 49.2712 52.3173 49.2024C52.497 49.131 52.6939 49.0953 52.908 49.0953C53.1639 49.0953 53.3915 49.1416 53.5908 49.2342C53.7926 49.3268 53.9587 49.459 54.0892 49.631L53.5318 50.1588C53.4506 50.0582 53.362 49.9828 53.266 49.9326C53.1725 49.8797 53.0679 49.8532 52.9522 49.8532C52.8563 49.8532 52.7689 49.8691 52.6902 49.9008C52.6139 49.9326 52.5487 49.9789 52.4945 50.0397C52.4404 50.1006 52.3986 50.1733 52.369 50.258C52.3395 50.3426 52.3247 50.4392 52.3247 50.5476C52.3247 50.6508 52.3395 50.7461 52.369 50.8334C52.3986 50.918 52.4404 50.9908 52.4945 51.0516C52.5487 51.1125 52.6126 51.1601 52.6865 51.1945C52.7628 51.2262 52.8477 51.2421 52.9412 51.2421C53.0396 51.2421 53.1356 51.2249 53.2291 51.1905C53.3226 51.1535 53.4223 51.0913 53.5281 51.004L54.0153 51.6468C53.8578 51.7606 53.6782 51.8479 53.4764 51.9087C53.2746 51.9696 53.079 52 52.8895 52ZM53.2586 51.5278V50.4723H54.0153V51.6468L53.2586 51.5278Z" fill="#013D31"/>
<path d="M44.0005 51.9365V49.1588H45.2445C45.4857 49.1588 45.6936 49.2011 45.8683 49.2858C46.0455 49.3704 46.1821 49.4921 46.2781 49.6509C46.374 49.8069 46.422 49.9921 46.422 50.2064C46.422 50.4207 46.374 50.6059 46.2781 50.7619C46.1821 50.9154 46.0455 51.0331 45.8683 51.1151C45.6936 51.1971 45.4857 51.2381 45.2445 51.2381H44.4841L44.8717 50.8532V51.9365H44.0005ZM45.5472 51.9365L44.9123 50.9246H45.8351L46.4774 51.9365H45.5472ZM44.8717 50.9564L44.4841 50.5318H45.1891C45.3097 50.5318 45.3983 50.5027 45.4549 50.4445C45.514 50.3863 45.5435 50.3069 45.5435 50.2064C45.5435 50.1059 45.514 50.0265 45.4549 49.9683C45.3983 49.9101 45.3097 49.881 45.1891 49.881H44.4841L44.8717 49.4564V50.9564Z" fill="#013D31"/>
<path d="M37.5154 50.1905H38.667V50.8651H37.5154V50.1905ZM37.5744 51.2302H38.8664V51.9365H36.718V49.1588H38.8184V49.8651H37.5744V51.2302Z" fill="#013D31"/>
<path d="M28.9528 51.9365V49.1588H29.6689L30.983 50.8492H30.6508V49.1588H31.4998V51.9365H30.7837L29.4696 50.2461H29.8018V51.9365H28.9528Z" fill="#013D31"/>
<path d="M22.4676 50.1905H23.6193V50.8651H22.4676V50.1905ZM22.5267 51.2302H23.8187V51.9365H21.6703V49.1588H23.7707V49.8651H22.5267V51.2302Z" fill="#013D31"/>
<path d="M15.0975 52C14.8884 52 14.694 51.9643 14.5143 51.8929C14.3371 51.8214 14.1833 51.7209 14.0529 51.5913C13.9225 51.459 13.8204 51.3042 13.7465 51.127C13.6752 50.9498 13.6395 50.7566 13.6395 50.5476C13.6395 50.336 13.6752 50.1429 13.7465 49.9683C13.8204 49.791 13.9225 49.6376 14.0529 49.508C14.1833 49.3757 14.3371 49.2739 14.5143 49.2024C14.694 49.131 14.8884 49.0953 15.0975 49.0953C15.3092 49.0953 15.5036 49.131 15.6808 49.2024C15.8579 49.2739 16.0117 49.3757 16.1422 49.508C16.2726 49.6376 16.3735 49.791 16.4448 49.9683C16.5187 50.1429 16.5556 50.336 16.5556 50.5476C16.5556 50.7566 16.5187 50.9498 16.4448 51.127C16.3735 51.3042 16.2726 51.459 16.1422 51.5913C16.0117 51.7209 15.8579 51.8214 15.6808 51.8929C15.5036 51.9643 15.3092 52 15.0975 52ZM15.0975 51.2421C15.1787 51.2421 15.2538 51.2262 15.3227 51.1945C15.3941 51.1627 15.4556 51.1177 15.5073 51.0595C15.5614 50.9987 15.6032 50.9259 15.6328 50.8413C15.6623 50.754 15.6771 50.6561 15.6771 50.5476C15.6771 50.4392 15.6623 50.3426 15.6328 50.258C15.6032 50.1707 15.5614 50.0979 15.5073 50.0397C15.4556 49.9789 15.3941 49.9326 15.3227 49.9008C15.2538 49.8691 15.1787 49.8532 15.0975 49.8532C15.0163 49.8532 14.94 49.8691 14.8687 49.9008C14.7998 49.9326 14.7383 49.9789 14.6841 50.0397C14.6324 50.0979 14.5918 50.1707 14.5623 50.258C14.5328 50.3426 14.518 50.4392 14.518 50.5476C14.518 50.6561 14.5328 50.754 14.5623 50.8413C14.5918 50.9259 14.6324 50.9987 14.6841 51.0595C14.7383 51.1177 14.7998 51.1627 14.8687 51.1945C14.94 51.2262 15.0163 51.2421 15.0975 51.2421Z" fill="#013D31"/>
<path d="M7.65364 51.9365V49.1588H8.52478V51.9365H7.65364Z" fill="#013D31"/>
<path d="M0 51.9365V49.1588H1.38053C1.73736 49.1588 2.00067 49.2276 2.17047 49.3651C2.34027 49.5001 2.42516 49.6733 2.42516 49.885C2.42516 50.0252 2.38825 50.1508 2.31443 50.2619C2.24306 50.3704 2.13848 50.4564 2.00067 50.5199C1.86286 50.5834 1.69306 50.6151 1.49127 50.6151L1.5651 50.4008C1.76689 50.4008 1.94038 50.4313 2.08557 50.4921C2.23322 50.5529 2.34642 50.6416 2.42516 50.758C2.50637 50.8717 2.54698 51.0093 2.54698 51.1707C2.54698 51.4114 2.45346 51.5992 2.26644 51.7341C2.08188 51.8691 1.81118 51.9365 1.45436 51.9365H0ZM0.856375 51.2818H1.38053C1.47651 51.2818 1.54787 51.2633 1.59463 51.2262C1.64385 51.1892 1.66845 51.135 1.66845 51.0635C1.66845 50.9921 1.64385 50.9379 1.59463 50.9008C1.54787 50.8638 1.47651 50.8453 1.38053 50.8453H0.797314V50.2262H1.26241C1.36085 50.2262 1.43221 50.209 1.47651 50.1747C1.52326 50.1376 1.54664 50.086 1.54664 50.0199C1.54664 49.9511 1.52326 49.8995 1.47651 49.8651C1.43221 49.8307 1.36085 49.8135 1.26241 49.8135H0.856375V51.2818Z" fill="#013D31"/>
</svg>
