<svg width="98" height="24" viewBox="0 0 98 24" fill="none" xmlns="http://www.w3.org/2000/svg">
<path d="M96.3916 22.3554C95.6122 23.1251 94.6521 23.51 93.5112 23.51C92.3703 23.51 91.4102 23.1251 90.6308 22.3554C89.8514 21.5857 89.4617 20.6207 89.4617 19.4605C89.4617 18.3003 89.8514 17.3354 90.6308 16.5656C91.4102 15.7959 92.3703 15.411 93.5112 15.411C94.6521 15.411 95.6122 15.7959 96.3916 16.5656C97.171 17.3354 97.5607 18.3003 97.5607 19.4605C97.5607 20.6207 97.171 21.5857 96.3916 22.3554ZM93.5112 22.8909C94.4713 22.8909 95.262 22.5673 95.8833 21.9203C96.5045 21.2733 96.8152 20.4534 96.8152 19.4605C96.8152 18.4788 96.5045 17.6644 95.8833 17.0174C95.262 16.3704 94.4713 16.0469 93.5112 16.0469C92.5624 16.0469 91.7717 16.3704 91.1391 17.0174C90.5179 17.6644 90.2072 18.4788 90.2072 19.4605C90.2072 20.4422 90.5179 21.2621 91.1391 21.9203C91.7717 22.5673 92.5624 22.8909 93.5112 22.8909ZM91.783 21.5689V17.2852H93.884C94.3245 17.2852 94.6916 17.3967 94.9853 17.6198C95.2903 17.8429 95.4428 18.1497 95.4428 18.5402C95.4428 19.0533 95.1943 19.3936 94.6973 19.5609V19.5944C95.0361 19.6948 95.2507 19.9514 95.3411 20.3641C95.3637 20.498 95.3806 20.6653 95.3919 20.8661C95.4032 21.0558 95.4202 21.2008 95.4428 21.3012C95.4653 21.4016 95.4992 21.4629 95.5444 21.4853V21.5689H94.3923C94.3471 21.5466 94.285 21.2175 94.2059 20.5816C94.172 20.2024 93.9461 20.0127 93.5281 20.0127H92.9521V21.5689H91.783ZM92.9521 18.2055V19.176H93.6806C94.0873 19.176 94.2906 19.0143 94.2906 18.6908C94.2906 18.3673 94.0873 18.2055 93.6806 18.2055H92.9521Z" fill="#013D31"/>
<path d="M29.4777 0V13.8752C29.4777 18.7742 25.5063 22.7455 20.6074 22.7455H5.25177C3.61185 22.6445 2.139 21.6784 1.39783 20.196L0 17.4004V17.3462H20.6074C22.4095 17.3462 23.8909 15.9728 24.0619 14.2156H10.4244C4.67353 14.2156 0.0114891 9.55356 0.0114474 3.80266L0.0114199 0H5.41074L5.41077 3.80262C5.41079 6.57157 7.65548 8.81624 10.4244 8.81624H18.6566C20.3641 8.85868 21.9137 9.83972 22.6804 11.3731L24.0619 14.2156L24.0784 0H29.4777Z" fill="#013D31"/>
<path fill-rule="evenodd" clip-rule="evenodd" d="M32.0549 22.7543H37.4542V16.2245H61.6196V8.88579C61.6196 3.98685 57.6482 0.0154763 52.7492 0.0154763H32.0549V22.7543ZM42.8894 10.8252H56.2202V8.88579C56.2202 6.96882 54.6662 5.4148 52.7492 5.4148H37.4542V11.9822H37.4559L37.4542 16.2245L38.8538 13.3823C39.6222 11.8455 41.1772 10.8634 42.8894 10.8252Z" fill="#013D31"/>
<path d="M69.5929 22.7543H64.1936V8.88579C64.1936 3.98685 68.1649 0.0154763 73.0639 0.0154763H88.3526C89.9549 0.146723 91.386 1.10414 92.1131 2.55829L93.5108 5.35369V5.4148H73.0639C71.1469 5.4148 69.5929 6.96882 69.5929 8.88579V22.7543Z" fill="#013D31"/>
</svg>
