<svg width="46" height="46" viewBox="0 0 46 46" fill="none" xmlns="http://www.w3.org/2000/svg">
<g clip-path="url(#clip0_99_3210)">
<path d="M35.1977 33.281L23 45.4787L10.8023 33.281C8.38991 30.8685 6.74702 27.7949 6.08145 24.4487C5.41587 21.1026 5.75749 17.6342 7.06311 14.4822C8.36872 11.3301 10.5797 8.63608 13.4164 6.74063C16.2532 4.84519 19.5883 3.8335 23 3.8335C26.4117 3.8335 29.7468 4.84519 32.5836 6.74063C35.4203 8.63608 37.6313 11.3301 38.9369 14.4822C40.2425 17.6342 40.5841 21.1026 39.9186 24.4487C39.253 27.7949 37.6101 30.8685 35.1977 33.281ZM23 24.9167C24.0167 24.9167 24.9917 24.5128 25.7106 23.7939C26.4295 23.075 26.8333 22.1 26.8333 21.0833C26.8333 20.0667 26.4295 19.0917 25.7106 18.3728C24.9917 17.6539 24.0167 17.25 23 17.25C21.9833 17.25 21.0083 17.6539 20.2894 18.3728C19.5705 19.0917 19.1667 20.0667 19.1667 21.0833C19.1667 22.1 19.5705 23.075 20.2894 23.7939C21.0083 24.5128 21.9833 24.9167 23 24.9167Z" fill="#013D31"/>
</g>
<defs>
<clipPath id="clip0_99_3210">
<rect width="46" height="46" fill="white"/>
</clipPath>
</defs>
</svg>
