<svg width="56" height="56" viewBox="0 0 56 56" fill="none" xmlns="http://www.w3.org/2000/svg">
<circle cx="28" cy="28" r="22" stroke="#F1FF46" stroke-width="2"/>
<mask id="path-2-inside-1_54_217" fill="white">
<path d="M0.954078 35.2469C1.90576 38.7987 3.54768 42.1282 5.78611 45.0453C8.02453 47.9625 10.8156 50.4102 14 52.2487L15.0085 50.502C12.0534 48.796 9.46341 46.5246 7.38622 43.8175C5.30904 41.1105 3.78538 38.0208 2.90225 34.7249L0.954078 35.2469Z"/>
</mask>
<path d="M0.954078 35.2469C1.90576 38.7987 3.54768 42.1282 5.78611 45.0453C8.02453 47.9625 10.8156 50.4102 14 52.2487L15.0085 50.502C12.0534 48.796 9.46341 46.5246 7.38622 43.8175C5.30904 41.1105 3.78538 38.0208 2.90225 34.7249L0.954078 35.2469Z" fill="#F1FF46" stroke="#F1FF46" stroke-width="4" mask="url(#path-2-inside-1_54_217)"/>
</svg>
