<svg width="44" height="50" viewBox="0 0 44 50" fill="none" xmlns="http://www.w3.org/2000/svg">
<path d="M3.24997 0H29.8015L43.8749 14.0188V46.875C43.8749 48.6015 42.475 50 40.7499 50H3.24997C1.52492 50 0.125 48.6015 0.125 46.875V3.12497C0.125 1.39847 1.52508 0 3.24997 0Z" fill="#E2574C"/>
<path d="M43.8297 14.0625H32.9375C31.2124 14.0625 29.8125 12.6626 29.8125 10.9375V0.03125L43.8297 14.0625Z" fill="#B53629"/>
<path d="M32.1531 23.6922C32.6766 23.6922 32.9329 23.236 32.9329 22.7938C32.9329 22.336 32.6656 21.8938 32.1531 21.8938H29.1719C28.589 21.8938 28.2641 22.3766 28.2641 22.9094V30.2359C28.2641 30.8891 28.6359 31.2516 29.1391 31.2516C29.6391 31.2516 30.0126 30.8891 30.0126 30.2359V28.2251H31.8157C32.3751 28.2251 32.6548 27.7672 32.6548 27.3126C32.6548 26.8673 32.3751 26.425 31.8157 26.425H30.0126V23.6922H32.1531ZM22.0765 21.8938H19.8953C19.3031 21.8938 18.8827 22.3001 18.8827 22.9031V30.2422C18.8827 30.9906 19.4874 31.2251 19.9202 31.2251H22.2093C24.9186 31.2251 26.7077 29.4423 26.7077 26.6906C26.7062 23.7813 25.0219 21.8938 22.0765 21.8938ZM22.1813 29.4158H20.8516V23.7032H22.05C23.8642 23.7032 24.6531 24.9205 24.6531 26.6001C24.6531 28.172 23.8781 29.4158 22.1813 29.4158ZM14.1906 21.8938H12.0297C11.4188 21.8938 11.0781 22.2968 11.0781 22.9094V30.2359C11.0781 30.8891 11.4687 31.2516 11.9937 31.2516C12.5186 31.2516 12.9092 30.8891 12.9092 30.2359V28.0969H14.2639C15.9357 28.0969 17.3155 26.9124 17.3155 25.0078C17.3156 23.1439 15.9844 21.8938 14.1906 21.8938ZM14.1548 26.3783H12.9094V23.6142H14.1548C14.9235 23.6142 15.4126 24.2141 15.4126 24.9969C15.411 25.7783 14.9235 26.3783 14.1548 26.3783Z" fill="white"/>
</svg>
