<svg width="71" height="50" viewBox="0 0 71 50" fill="none" xmlns="http://www.w3.org/2000/svg">
<g clip-path="url(#clip0_99_2223)">
<path d="M69.5156 7.8081C68.6975 4.73308 66.2952 2.31656 63.2385 1.49341C57.7038 4.47035e-07 35.5 0 35.5 0C35.5 0 13.2965 4.47035e-07 7.76161 1.49341C4.70491 2.31656 2.30277 4.73308 1.48453 7.8081C4.44375e-07 13.376 0 25 0 25C0 25 4.44375e-07 36.624 1.48453 42.192C2.30277 45.267 4.70491 47.6835 7.76161 48.5065C13.2965 50 35.5 50 35.5 50C35.5 50 57.7038 50 63.2385 48.5065C66.2952 47.6835 68.6975 45.267 69.5156 42.192C71.0003 36.624 71.0003 25 71.0003 25C71.0003 25 70.9943 13.376 69.5156 7.8081Z" fill="#FF0000"/>
<path d="M28.3926 35.7135L46.8382 25.001L28.3926 14.2883V35.7135Z" fill="white"/>
</g>
<defs>
<clipPath id="clip0_99_2223">
<rect width="71" height="50" fill="white"/>
</clipPath>
</defs>
</svg>
