<svg width="319" height="499" viewBox="0 0 319 499" fill="none" xmlns="http://www.w3.org/2000/svg">
<path d="M105.259 326.056V423.997V461.087L131.042 434.424L299.785 259.926L304.002 255.565V249.499V176.322V161.322H289.002H214.006V74.9999V37.9103L188.223 64.5727L19.4798 239.071L15.2627 243.432V249.499V322.675V337.675H30.2627H69.6703C82.7116 337.675 95.1159 333.469 105.259 326.056ZM139.008 223.377V236.354H154.008H218.228L180.257 275.62V262.643H165.257H144.639H120.271H105.271H101.037L139.008 223.377Z" fill="#F1FF46" stroke="#013D31" stroke-width="30"/>
<path d="M285.817 324.577C283.693 326.674 281.078 327.722 277.97 327.722C274.862 327.722 272.246 326.674 270.123 324.577C268 322.48 266.938 319.851 266.938 316.691C266.938 313.53 268 310.901 270.123 308.804C272.246 306.708 274.862 305.659 277.97 305.659C281.078 305.659 283.693 306.708 285.817 308.804C287.94 310.901 289.002 313.53 289.002 316.691C289.002 319.851 287.94 322.48 285.817 324.577ZM277.97 326.035C280.586 326.035 282.74 325.154 284.432 323.392C286.124 321.629 286.971 319.395 286.971 316.691C286.971 314.016 286.124 311.798 284.432 310.035C282.74 308.273 280.586 307.391 277.97 307.391C275.385 307.391 273.231 308.273 271.508 310.035C269.816 311.798 268.969 314.016 268.969 316.691C268.969 319.365 269.816 321.599 271.508 323.392C273.231 325.154 275.385 326.035 277.97 326.035ZM273.262 322.434V310.765H278.985C280.186 310.765 281.186 311.068 281.986 311.676C282.816 312.284 283.232 313.12 283.232 314.183C283.232 315.581 282.555 316.508 281.201 316.964V317.055C282.124 317.329 282.709 318.028 282.955 319.152C283.016 319.517 283.063 319.973 283.093 320.52C283.124 321.036 283.17 321.431 283.232 321.705C283.293 321.978 283.386 322.146 283.509 322.206V322.434H280.37C280.247 322.373 280.078 321.477 279.862 319.745C279.77 318.712 279.155 318.195 278.016 318.195H276.447V322.434H273.262ZM276.447 313.272V315.916H278.432C279.539 315.916 280.093 315.475 280.093 314.594C280.093 313.712 279.539 313.272 278.432 313.272H276.447Z" fill="#F1FF46"/>
</svg>
