<svg width="15" height="19" viewBox="0 0 15 19" fill="none" xmlns="http://www.w3.org/2000/svg">
<mask id="path-1-inside-1_54_190" fill="white">
<path d="M0.954078 1.24694C1.90576 4.79866 3.54768 8.12815 5.78611 11.0453C8.02453 13.9625 10.8156 16.4102 14 18.2487L15.0085 16.502C12.0534 14.796 9.46341 12.5246 7.38622 9.81751C5.30904 7.11047 3.78538 4.02081 2.90225 0.724926L0.954078 1.24694Z"/>
</mask>
<path d="M0.954078 1.24694C1.90576 4.79866 3.54768 8.12815 5.78611 11.0453C8.02453 13.9625 10.8156 16.4102 14 18.2487L15.0085 16.502C12.0534 14.796 9.46341 12.5246 7.38622 9.81751C5.30904 7.11047 3.78538 4.02081 2.90225 0.724926L0.954078 1.24694Z" stroke="#013D31" stroke-width="4" mask="url(#path-1-inside-1_54_190)"/>
</svg>
