<svg width="440" height="594" viewBox="0 0 440 594" fill="none" xmlns="http://www.w3.org/2000/svg">
<g opacity="0.02">
<path d="M153.043 421.264V593.488L440 296.744V172.303H286.957V6.10352e-05L0 296.744V421.185H67.0148C96.1802 421.185 122.842 404.721 135.886 378.657L153.064 344.606H76.5218V327.732L210.435 189.251V248.882H363.478V265.757L229.565 404.238V344.606H153.064V421.264H153.043Z" fill="black"/>
<path d="M434.584 424.419C430.973 427.984 426.525 429.767 421.24 429.767C415.955 429.767 411.507 427.984 407.896 424.419C404.286 420.853 402.48 416.382 402.48 411.008C402.48 405.633 404.286 401.163 407.896 397.597C411.507 394.031 415.955 392.248 421.24 392.248C426.525 392.248 430.973 394.031 434.584 397.597C438.195 401.163 440 405.633 440 411.008C440 416.382 438.195 420.853 434.584 424.419ZM421.24 426.899C425.688 426.899 429.351 425.4 432.229 422.403C435.107 419.406 436.546 415.607 436.546 411.008C436.546 406.46 435.107 402.687 432.229 399.69C429.351 396.692 425.688 395.194 421.24 395.194C416.845 395.194 413.182 396.692 410.251 399.69C407.373 402.687 405.934 406.46 405.934 411.008C405.934 415.555 407.373 419.354 410.251 422.403C413.182 425.4 416.845 426.899 421.24 426.899ZM413.234 420.775V400.93H422.967C425.008 400.93 426.708 401.447 428.069 402.481C429.482 403.514 430.188 404.935 430.188 406.744C430.188 409.121 429.037 410.698 426.735 411.473V411.628C428.304 412.093 429.299 413.282 429.717 415.194C429.822 415.814 429.9 416.589 429.953 417.519C430.005 418.398 430.084 419.07 430.188 419.535C430.293 420 430.45 420.284 430.659 420.388V420.775H425.322C425.112 420.672 424.825 419.147 424.458 416.201C424.301 414.444 423.255 413.566 421.319 413.566H418.65V420.775H413.234ZM418.65 405.194V409.69H422.025C423.909 409.69 424.851 408.941 424.851 407.442C424.851 405.943 423.909 405.194 422.025 405.194H418.65Z" fill="black"/>
</g>
</svg>
