<svg width="444" height="444" viewBox="0 0 444 444" fill="none" xmlns="http://www.w3.org/2000/svg">
<rect x="0.5" y="0.5" width="88.4309" height="88.4309" rx="11.5" stroke="#D9D9D9"/>
<rect x="0.5" y="88.9309" width="88.4309" height="88.4309" rx="11.5" stroke="#D9D9D9"/>
<rect x="0.5" y="177.362" width="88.4309" height="88.4309" rx="11.5" stroke="#D9D9D9"/>
<rect x="0.5" y="265.793" width="88.4309" height="88.4309" rx="11.5" stroke="#D9D9D9"/>
<rect x="0.5" y="354.224" width="88.4309" height="88.4309" rx="11.5" stroke="#D9D9D9"/>
<rect x="88.9307" y="0.5" width="88.4309" height="88.4309" rx="11.5" stroke="#D9D9D9"/>
<rect x="88.9307" y="88.9309" width="88.4309" height="88.4309" rx="11.5" stroke="#D9D9D9"/>
<rect x="88.9307" y="177.362" width="88.4309" height="88.4309" rx="11.5" stroke="#D9D9D9"/>
<rect x="88.9307" y="265.793" width="88.4309" height="88.4309" rx="11.5" stroke="#D9D9D9"/>
<rect x="88.9307" y="354.224" width="88.4309" height="88.4309" rx="11.5" stroke="#D9D9D9"/>
<rect x="177.361" y="0.5" width="88.4309" height="88.4309" rx="11.5" stroke="#D9D9D9"/>
<rect x="177.361" y="88.9309" width="88.4309" height="88.4309" rx="11.5" stroke="#D9D9D9"/>
<rect x="177.361" y="177.362" width="88.4309" height="88.4309" rx="11.5" stroke="#D9D9D9"/>
<rect x="177.361" y="265.793" width="88.4309" height="88.4309" rx="11.5" stroke="#D9D9D9"/>
<rect x="177.361" y="354.224" width="88.4309" height="88.4309" rx="11.5" stroke="#D9D9D9"/>
<rect x="265.792" y="0.5" width="88.4309" height="88.4309" rx="11.5" stroke="#D9D9D9"/>
<rect x="265.792" y="88.9309" width="88.4309" height="88.4309" rx="11.5" stroke="#D9D9D9"/>
<rect x="265.792" y="177.362" width="88.4309" height="88.4309" rx="11.5" stroke="#D9D9D9"/>
<rect x="265.792" y="265.793" width="88.4309" height="88.4309" rx="11.5" stroke="#D9D9D9"/>
<rect x="265.792" y="354.224" width="88.4309" height="88.4309" rx="11.5" stroke="#D9D9D9"/>
<rect x="354.223" y="0.5" width="88.4309" height="88.4309" rx="11.5" stroke="#D9D9D9"/>
<rect x="354.223" y="88.9309" width="88.4309" height="88.4309" rx="11.5" stroke="#D9D9D9"/>
<rect x="354.223" y="177.362" width="88.4309" height="88.4309" rx="11.5" stroke="#D9D9D9"/>
<rect x="354.223" y="265.793" width="88.4309" height="88.4309" rx="11.5" stroke="#D9D9D9"/>
<rect x="354.223" y="354.224" width="88.4309" height="88.4309" rx="11.5" stroke="#D9D9D9"/>
<line x1="45.2148" y1="2.18557e-08" x2="45.2148" y2="440" stroke="#D9D9D9" stroke-dasharray="2 2"/>
<line x1="132.858" y1="2.18557e-08" x2="132.858" y2="440" stroke="#D9D9D9" stroke-dasharray="2 2"/>
<line x1="220.5" y1="2.18557e-08" x2="220.5" y2="440" stroke="#D9D9D9" stroke-dasharray="2 2"/>
<line x1="308.142" y1="2.18557e-08" x2="308.142" y2="440" stroke="#D9D9D9" stroke-dasharray="2 2"/>
<line x1="395.784" y1="2.18557e-08" x2="395.784" y2="440" stroke="#D9D9D9" stroke-dasharray="2 2"/>
<line x1="63.1016" y1="2.18557e-08" x2="63.1015" y2="440" stroke="#D9D9D9" stroke-dasharray="2 2"/>
<line x1="150.744" y1="2.18557e-08" x2="150.744" y2="440" stroke="#D9D9D9" stroke-dasharray="2 2"/>
<line x1="238.386" y1="2.18557e-08" x2="238.386" y2="440" stroke="#D9D9D9" stroke-dasharray="2 2"/>
<line x1="326.029" y1="2.18557e-08" x2="326.029" y2="440" stroke="#D9D9D9" stroke-dasharray="2 2"/>
<line x1="413.671" y1="2.18557e-08" x2="413.671" y2="440" stroke="#D9D9D9" stroke-dasharray="2 2"/>
<line x1="80.9873" y1="2.18557e-08" x2="80.9873" y2="440" stroke="#D9D9D9" stroke-dasharray="2 2"/>
<line x1="168.631" y1="2.18557e-08" x2="168.631" y2="440" stroke="#D9D9D9" stroke-dasharray="2 2"/>
<line x1="256.272" y1="2.18557e-08" x2="256.272" y2="440" stroke="#D9D9D9" stroke-dasharray="2 2"/>
<line x1="343.915" y1="2.18557e-08" x2="343.915" y2="440" stroke="#D9D9D9" stroke-dasharray="2 2"/>
<line x1="431.557" y1="2.18557e-08" x2="431.557" y2="440" stroke="#D9D9D9" stroke-dasharray="2 2"/>
<line x1="27.3291" y1="2.18557e-08" x2="27.3291" y2="440" stroke="#D9D9D9" stroke-dasharray="2 2"/>
<line x1="114.971" y1="2.18557e-08" x2="114.971" y2="440" stroke="#D9D9D9" stroke-dasharray="2 2"/>
<line x1="202.614" y1="2.18557e-08" x2="202.614" y2="440" stroke="#D9D9D9" stroke-dasharray="2 2"/>
<line x1="290.256" y1="2.18557e-08" x2="290.256" y2="440" stroke="#D9D9D9" stroke-dasharray="2 2"/>
<line x1="377.898" y1="2.18557e-08" x2="377.898" y2="440" stroke="#D9D9D9" stroke-dasharray="2 2"/>
<line x1="9.44336" y1="2.18557e-08" x2="9.44334" y2="440" stroke="#D9D9D9" stroke-dasharray="2 2"/>
<line x1="97.085" y1="2.18557e-08" x2="97.0849" y2="440" stroke="#D9D9D9" stroke-dasharray="2 2"/>
<line x1="184.728" y1="2.18557e-08" x2="184.728" y2="440" stroke="#D9D9D9" stroke-dasharray="2 2"/>
<line x1="272.369" y1="2.18557e-08" x2="272.369" y2="440" stroke="#D9D9D9" stroke-dasharray="2 2"/>
<line x1="360.013" y1="2.18557e-08" x2="360.013" y2="440" stroke="#D9D9D9" stroke-dasharray="2 2"/>
<rect width="443" height="440" transform="matrix(1 0 0 -1 0 440)" fill="url(#paint0_radial_54_74)"/>
<defs>
<radialGradient id="paint0_radial_54_74" cx="0" cy="0" r="1" gradientUnits="userSpaceOnUse" gradientTransform="translate(221.5) rotate(90) scale(276.5 278.385)">
<stop stop-color="white" stop-opacity="0"/>
<stop offset="1" stop-color="white"/>
</radialGradient>
</defs>
</svg>
