<svg width="99" height="99" viewBox="0 0 99 99" fill="none" xmlns="http://www.w3.org/2000/svg">
<circle cx="49.5" cy="49.5" r="43.5" stroke="#F1FF46" stroke-width="2"/>
<mask id="path-2-inside-1_2117_138" fill="white">
<path d="M1.68667 62.3115C3.36911 68.5905 6.2718 74.4766 10.229 79.6337C14.1862 84.7908 19.1205 89.118 24.75 92.3683L25.6487 90.8117C20.2236 87.6795 15.4685 83.5094 11.655 78.5395C7.84146 73.5696 5.04417 67.8973 3.42283 61.8463L1.68667 62.3115Z"/>
</mask>
<path d="M1.68667 62.3115C3.36911 68.5905 6.2718 74.4766 10.229 79.6337C14.1862 84.7908 19.1205 89.118 24.75 92.3683L25.6487 90.8117C20.2236 87.6795 15.4685 83.5094 11.655 78.5395C7.84146 73.5696 5.04417 67.8973 3.42283 61.8463L1.68667 62.3115Z" fill="#F1FF46" stroke="#F1FF46" stroke-width="4" mask="url(#path-2-inside-1_2117_138)"/>
<path d="M50.0607 38.9393C49.4749 38.3536 48.5251 38.3536 47.9393 38.9393L38.3934 48.4853C37.8076 49.0711 37.8076 50.0208 38.3934 50.6066C38.9792 51.1924 39.9289 51.1924 40.5147 50.6066L49 42.1213L57.4853 50.6066C58.0711 51.1924 59.0208 51.1924 59.6066 50.6066C60.1924 50.0208 60.1924 49.0711 59.6066 48.4853L50.0607 38.9393ZM50.5 60L50.5 40L47.5 40L47.5 60L50.5 60Z" fill="#F1FF46"/>
</svg>
