<svg width="25" height="32" viewBox="0 0 25 32" fill="none" xmlns="http://www.w3.org/2000/svg">
<mask id="path-1-inside-1_131_841" fill="white">
<path d="M0.686673 1.31155C2.36911 7.59048 5.2718 13.4766 9.22901 18.6337C13.1862 23.7908 18.1205 28.118 23.75 31.3683L24.6487 29.8117C19.2236 26.6795 14.4685 22.5094 10.655 17.5395C6.84146 12.5696 4.04417 6.89729 2.42283 0.846348L0.686673 1.31155Z"/>
</mask>
<path d="M0.686673 1.31155C2.36911 7.59048 5.2718 13.4766 9.22901 18.6337C13.1862 23.7908 18.1205 28.118 23.75 31.3683L24.6487 29.8117C19.2236 26.6795 14.4685 22.5094 10.655 17.5395C6.84146 12.5696 4.04417 6.89729 2.42283 0.846348L0.686673 1.31155Z" fill="#F1FF46" stroke="#F1FF46" stroke-width="4" mask="url(#path-1-inside-1_131_841)"/>
</svg>
