<svg id="Capa_1" enable-background="new 0 0 512 512" height="512" viewBox="0 0 512 512" width="512" xmlns="http://www.w3.org/2000/svg"><g><path d="m496.171 231.909c-9.138-2.804-19.554-5.439-30.772-7.91-.121-1.545.325-3.047 1.212-4.166.018-.022.073-.091.091-.113 28.075-35.364 37.597-67.248 29.965-100.342-1.44-6.244-3.31-12.254-5.557-17.865-11.313-28.241-35.435-45.786-62.951-45.786-13.948 0-27.261 4.332-38.498 12.527-9.461 6.899-22.173 6.899-31.634 0-11.238-8.196-24.551-12.528-38.498-12.528-4.443 0-8.853.447-13.108 1.329-4.042.837-6.64 4.793-5.802 8.835.837 4.043 4.794 6.639 8.835 5.802 3.258-.675 6.648-1.017 10.074-1.017 10.76 0 21.027 3.339 29.691 9.657 14.729 10.74 34.521 10.741 49.249 0 8.662-6.318 18.929-9.657 29.69-9.657 21.6 0 39.945 13.606 49.074 36.396 1.963 4.898 3.6 10.169 4.868 15.665 1.836 7.962 2.474 15.89 1.888 23.871h-78.078c-3.395-14.569-16.479-25.459-32.067-25.459s-28.672 10.89-32.067 25.459h-78.077c-.118-1.602-.179-3.2-.199-4.798.046-6.437.635-12.785 2.085-19.073 1.268-5.496 2.906-10.767 4.868-15.665 3.148-7.859 7.475-14.736 12.859-20.439 2.834-3.002 2.697-7.733-.305-10.566-3.001-2.833-7.732-2.696-10.566.305-6.677 7.074-12.015 15.533-15.864 25.142-.201.501-.382 1.021-.576 1.529-.195-.507-.376-1.028-.576-1.529-11.314-28.241-35.435-45.786-62.951-45.786-13.948 0-27.261 4.332-38.498 12.527-9.46 6.899-22.172 6.899-31.634 0-11.238-8.196-24.55-12.528-38.498-12.528-27.516 0-51.638 17.544-62.951 45.786-2.248 5.611-4.118 11.621-5.558 17.865-7.632 33.093 1.89 64.978 30 100.385.943 1.189 1.389 2.694 1.267 4.241-11.222 2.469-21.634 5.103-30.769 7.904-9.471 2.907-15.833 11.521-15.833 21.438v82.293c0 4.128 3.346 7.474 7.474 7.474s7.474-3.346 7.474-7.474v-82.293c0-3.307 2.117-6.178 5.267-7.144 7.534-2.311 15.995-4.506 25.086-6.59-.677 7.954-1.438 16.011-2.527 23.831-1.936 13.906-3.384 32.016 2.65 48.77 3.75 10.414 14.765 27.849 29.738 33.198 2.926 1.045 5.853 1.565 8.732 1.565 4.362 0 8.615-1.194 12.581-3.566 15.248-9.119 14.281-29.019 13.573-43.549-.124-2.546-.241-4.95-.252-7-.043-7.922 1.003-15.136 3.11-21.442 4.517-13.52 16.004-18.337 25.248-18.338 9.243 0 20.73 4.816 25.248 18.334 2.108 6.306 3.155 13.521 3.112 21.446-.011 2.05-.128 4.453-.252 6.998-.707 14.531-1.675 34.432 13.573 43.551 6.585 3.938 13.955 4.63 21.314 2.002 14.974-5.348 25.988-22.783 29.739-33.198 6.034-16.756 4.585-34.865 2.649-48.77-1.403-10.079-2.265-20.56-3.099-30.695-.238-2.899-.477-5.797-.727-8.693-.136-1.564.314-3.088 1.303-4.333 1.323-1.666 2.6-3.324 3.841-4.976 14.088-.459 28.192-.462 42.277-.013 1.254 1.67 2.547 3.347 3.885 5.033.953 1.201 1.403 2.725 1.267 4.29-.251 2.895-.489 5.793-.727 8.692-.834 10.136-1.696 20.616-3.099 30.695-1.936 13.904-3.384 32.014 2.65 48.77 3.75 10.414 14.765 27.849 29.738 33.198 2.925 1.045 5.853 1.565 8.732 1.565 4.362 0 8.614-1.194 12.581-3.566 15.249-9.119 14.281-29.02 13.574-43.551-.124-2.545-.24-4.949-.252-6.998-.043-7.923 1.004-15.137 3.11-21.442 4.518-13.52 16.005-18.338 25.248-18.338s20.73 4.816 25.248 18.334c2.108 6.307 3.155 13.522 3.112 21.446-.011 2.051-.128 4.455-.252 7-.707 14.53-1.674 34.431 13.573 43.549 6.586 3.938 13.955 4.63 21.314 2.002 14.974-5.348 25.988-22.783 29.738-33.198 6.034-16.755 4.586-34.865 2.65-48.77-1.089-7.822-1.85-15.883-2.527-23.839 9.089 2.086 17.549 4.284 25.088 6.598 3.149.966 5.266 3.837 5.266 7.144v180.505c0 4.121-3.353 7.474-7.474 7.474h-467.152c-4.122 0-7.474-3.353-7.474-7.474v-63.68c0-4.128-3.346-7.474-7.474-7.474s-7.475 3.343-7.475 7.471v63.68c0 12.364 10.059 22.423 22.423 22.423h467.154c12.364 0 22.423-10.059 22.423-22.423v-180.505c0-9.915-6.361-18.529-15.829-21.435zm-122.329-95.81c9.917 0 17.984 8.068 17.984 17.985s-8.068 17.984-17.984 17.984c-9.917 0-17.984-8.068-17.984-17.984 0-9.917 8.068-17.985 17.984-17.985zm-343.942-13.361c1.268-5.496 2.906-10.767 4.868-15.665 9.129-22.79 27.475-36.396 49.074-36.396 10.76 0 21.027 3.339 29.691 9.657 14.729 10.74 34.521 10.741 49.249 0 8.662-6.318 18.929-9.657 29.69-9.657 21.599 0 39.945 13.606 49.074 36.396 1.963 4.899 3.6 10.17 4.868 15.665 1.441 6.248 2.164 12.674 2.086 19.077-.019 1.596-.081 3.194-.198 4.794h-78.078c-3.395-14.569-16.479-25.459-32.067-25.459s-28.672 10.89-32.067 25.459h-78.076c-.588-7.982.05-15.909 1.886-23.871zm126.242 31.346c0 9.917-8.068 17.984-17.984 17.984-9.917 0-17.984-8.068-17.984-17.984 0-9.917 8.068-17.985 17.984-17.985s17.984 8.068 17.984 17.985zm60.684 153.063c-2.909 8.078-11.722 20.977-20.702 24.185-3.141 1.122-5.878.882-8.613-.754-7.554-4.517-6.867-18.644-6.315-29.995.132-2.71.256-5.271.27-7.644.051-9.566-1.255-18.403-3.883-26.265-5.796-17.341-21.272-28.545-39.427-28.544s-33.631 11.208-39.425 28.55c-2.627 7.862-3.933 16.697-3.881 26.26.013 2.373.137 4.934.269 7.646.552 11.35 1.239 25.476-6.315 29.994-2.735 1.635-5.472 1.875-8.613.753-8.98-3.208-17.793-16.107-20.702-24.185-4.925-13.678-3.607-29.44-1.909-41.644 1.462-10.499 2.342-21.196 3.193-31.54.237-2.875.473-5.748.722-8.619.466-5.383-1.114-10.663-4.488-14.919-13.616-17.151-22.362-33.219-26.465-48.867h75.548c3.395 14.569 16.479 25.458 32.067 25.458s28.672-10.89 32.067-25.458h75.552c-4.097 15.638-12.829 31.688-26.415 48.801-.018.023-.074.093-.092.116-3.335 4.205-4.915 9.486-4.449 14.869.249 2.873.486 5.75.722 8.628.851 10.342 1.73 21.036 3.192 31.531 1.699 12.202 3.018 27.964-1.908 41.643zm28.412-107.61c4.382-7.156 7.97-14.2 10.764-21.173 2.795 6.974 6.384 14.019 10.767 21.177-7.176-.117-14.354-.117-21.531-.004zm207.273 107.61c-2.909 8.078-11.722 20.977-20.702 24.185-3.141 1.122-5.877.882-8.613-.754-7.554-4.517-6.867-18.643-6.314-29.993.132-2.711.256-5.272.269-7.646.052-9.564-1.255-18.402-3.883-26.265-5.796-17.34-21.271-28.545-39.426-28.544-18.156.001-33.632 11.208-39.426 28.55-2.627 7.861-3.932 16.696-3.881 26.26.013 2.373.138 4.933.27 7.644.552 11.351 1.239 25.478-6.315 29.996-2.735 1.635-5.471 1.875-8.613.753-8.98-3.208-17.793-16.107-20.702-24.185-4.926-13.679-3.607-29.44-1.909-41.644 1.461-10.496 2.341-21.19 3.192-31.531.237-2.877.473-5.754.722-8.628.466-5.384-1.114-10.665-4.414-14.826-.012-.016-.061-.078-.073-.093-13.616-17.151-22.362-33.219-26.465-48.867h75.548c3.395 14.569 16.479 25.458 32.067 25.458s28.672-10.89 32.067-25.458h75.552c-4.097 15.638-12.829 31.688-26.415 48.801-.018.023-.075.093-.093.116-3.334 4.205-4.914 9.486-4.448 14.868.249 2.871.485 5.747.722 8.622.851 10.343 1.731 21.039 3.192 31.537 1.698 12.204 3.016 27.966-1.909 41.644z"/></g></svg>