<svg id="_x31_" height="512" viewBox="0 0 24 24" width="512" xmlns="http://www.w3.org/2000/svg"><path d="m15.95 24c-.979 0-1.824-.704-2.012-1.675l-.85-4.604c-.097-.534-.554-.921-1.088-.921s-.991.387-1.088.919l-.851 4.603c-.187.974-1.033 1.678-2.011 1.678-1.051 0-1.922-.796-2.027-1.851l-.329-3.138c-.128-1.14-.363-2.266-.701-3.343l-.648-2.048c-.103-.327-.194-.653-.286-.99-.041-.149-.01-.311.085-.435s.24-.195.396-.195h14.92c.156 0 .303.072.397.196s.126.285.085.435c-.092.337-.184.663-.286.989l-.649 2.051c-.337 1.075-.572 2.201-.7 3.345l-.329 3.136c-.106 1.052-.977 1.848-2.028 1.848zm-3.95-8.2c1.018 0 1.889.732 2.072 1.741l.849 4.599c.097.497.529.86 1.029.86.534 0 .979-.408 1.033-.95l.329-3.142c.135-1.21.384-2.399.74-3.538l.65-2.052c.033-.105.065-.212.097-.318h-13.599c.031.106.063.213.097.319l.649 2.049c.357 1.141.606 2.33.741 3.536l.329 3.144c.055.544.5.952 1.034.952.5 0 .933-.363 1.029-.864l.85-4.597c.182-1.007 1.053-1.739 2.071-1.739z"/><path d="m19.69 7h-2.572c-.571 0-1.085-.317-1.342-.828l-.447-.896c-.085-.171-.256-.276-.447-.276h-5.764c-.19 0-.362.106-.447.277l-.447.894c-.255.511-.77.829-1.342.829h-2.562c-.239 0-.445-.17-.491-.405-.219-1.135-.329-2.277-.329-3.395 0-1.764 1.422-3.2 3.17-3.2 1.234 0 2.483.323 3.771.962 1.049.52 2.068.52 3.117 0 1.289-.639 2.538-.962 3.712-.962.916 0 1.715.334 2.308.94.594.608.922 1.411.922 2.26 0 1.096-.106 2.236-.317 3.39-.044.237-.251.41-.493.41zm-10.572-3h5.764c.572 0 1.087.318 1.342.83l.447.894c.085.17.257.276.447.276h2.15c.155-.954.232-1.894.232-2.8 0-.587-.227-1.141-.638-1.561-.403-.411-.947-.639-1.532-.639-1.079 0-2.179.289-3.328.858-1.328.658-2.676.658-4.004 0-1.149-.569-2.249-.858-3.268-.858-1.256 0-2.23.987-2.23 2.2 0 .922.08 1.861.238 2.8h2.144c.191 0 .362-.105.447-.275l.447-.896c.257-.512.771-.829 1.342-.829z"/><path d="m16.5 13c-.209 0-.404-.133-.475-.342l-.772-2.316c-.067-.205-.258-.342-.474-.342h-5.558c-.216 0-.406.137-.474.342l-.772 2.316c-.088.263-.37.406-.633.316-.262-.088-.403-.371-.316-.633l.772-2.316c.204-.613.776-1.025 1.423-1.025h5.559c.646 0 1.219.412 1.423 1.025l.772 2.316c.087.262-.055.545-.316.633-.054.018-.106.026-.159.026z"/></svg>