<svg id="_x31_" height="512" viewBox="0 0 24 24" width="512" xmlns="http://www.w3.org/2000/svg"><path d="m15.528 21c-.906 0-1.683-.68-1.848-1.617l-.763-5.128c-.083-.474-.469-.827-.917-.827s-.833.353-.918.839l-.759 5.104c-.168.949-.945 1.629-1.851 1.629-.964 0-1.768-.76-1.868-1.768l-.296-2.958c-.012-.123-.122-.852-.872-4.952-.29-1.579-.436-3.199-.436-4.815 0-1.934 1.359-3.507 3.029-3.507.576 0 1.139.185 1.628.533 1.445 1.03 3.241 1.03 4.685 0 .49-.348 1.053-.533 1.629-.533 1.67 0 3.029 1.573 3.029 3.507 0 1.614-.146 3.235-.436 4.816-.75 4.1-.86 4.828-.872 4.951l-.296 2.958c-.101 1.008-.904 1.768-1.868 1.768zm-3.528-8.573c.935 0 1.735.701 1.904 1.667l.763 5.128c.078.445.441.778.861.778.448 0 .824-.373.873-.868l.296-2.958c.03-.298.327-1.99.884-5.031.278-1.522.419-3.081.419-4.635 0-1.383-.91-2.508-2.029-2.508-.366 0-.729.12-1.048.348-1.803 1.285-4.042 1.286-5.846 0-.319-.228-.681-.348-1.048-.348-1.119 0-2.029 1.125-2.029 2.507 0 1.556.141 3.115.419 4.635.556 3.041.854 4.734.884 5.032l.296 2.959c.049.494.425.867.873.867.419 0 .783-.333.863-.79l.759-5.103c.171-.979.971-1.68 1.906-1.68z"/><path d="m2.351 18.997c-1.081 0-1.798-.27-2.143-.807-.15-.234-.298-.637-.143-1.219.534-2.007 4.55-5.26 9.993-8.094 5.849-3.045 12.442-5.076 13.733-3.067.609.941-.071 2.324-2.023 4.109-.204.185-.52.172-.707-.032-.186-.204-.172-.52.032-.707 1.83-1.672 2.029-2.565 1.858-2.829-.615-.96-5.641-.124-12.43 3.411-5.718 2.977-9.102 6.009-9.489 7.465-.049.184-.043.326.019.422.184.289 1.047.51 2.862.188.276-.046.532.133.58.405s-.133.532-.405.58c-.657.116-1.236.175-1.737.175z"/><path d="m21.649 18.997c-.501 0-1.08-.058-1.736-.174-.272-.048-.453-.308-.405-.58.048-.271.303-.454.58-.405 1.817.322 2.677.1 2.861-.188.062-.096.068-.238.019-.422-.387-1.456-3.771-4.488-9.489-7.465-6.79-3.535-11.813-4.368-12.428-3.413-.177.275.038 1.197 1.962 2.918.206.184.224.5.04.706-.184.207-.5.223-.706.04-2.04-1.825-2.759-3.239-2.138-4.204 1.289-2.01 7.883.021 13.731 3.067 5.443 2.834 9.459 6.087 9.993 8.094.155.582.008.984-.143 1.219-.343.537-1.061.807-2.141.807z"/></svg>