<svg id="Capa_1" enable-background="new 0 0 512 512" height="512" viewBox="0 0 512 512" width="512" xmlns="http://www.w3.org/2000/svg"><g><path d="m489.5 18h-147c-12.407 0-22.5 10.093-22.5 22.5v29.5h-57.5c-37.22 0-67.5 30.28-67.5 67.5v44.5h-32.5c-6.893 0-12.5 5.607-12.5 12.5v20c0 6.893 5.607 12.5 12.5 12.5h32.5v15h-84.06c-.914 0-1.756-.5-2.196-1.3l-52.818-96.198c-.606-1.103-.926-2.351-.926-3.609v-43.393c0-7.409-2.906-14.358-8.182-19.566-5.274-5.208-12.235-8.013-19.671-7.931-14.969.188-27.147 12.755-27.147 28.014v49.263c0 6.292 1.599 12.532 4.626 18.049l55.909 101.839c8.973 16.352 25.225 27.191 43.465 29.405v12.179c0 37.495 30.505 68 68 68 12.536 0 24.281-3.424 34.375-9.364l65.207 57.779-207.11 19.381c-16.802 1.572-29.472 15.483-29.472 32.359v4.593c0 6.893 5.607 12.5 12.5 12.5h23.513c4.142 0 7.5-3.358 7.5-7.5s-3.358-7.5-7.5-7.5h-21.013v-2.093c0-9.087 6.822-16.577 15.869-17.424l216.131-20.227v39.744h-175.987c-4.142 0-7.5 3.358-7.5 7.5s3.358 7.5 7.5 7.5h324.487c9.649 0 17.5-7.851 17.5-17.5v-24.711c0-55.024-44.765-99.789-99.789-99.789h-55.867l-52.344-46.382v-8.618h61.19c5.41 0 10.769 1.359 15.502 3.932l81.158 44.044c4.03 2.182 8.557 3.334 13.09 3.334 10.296 0 19.649-5.677 24.411-14.814.001-.002.002-.004.003-.006 6.873-13.217 1.62-29.853-11.707-37.082l-80.717-43.808c-12.764-6.934-27.198-10.6-41.74-10.6h-61.19v-15h81.5c6.893 0 12.5-5.607 12.5-12.5v-20c0-6.893-5.607-12.5-12.5-12.5h-54c-4.142 0-7.5 3.358-7.5 7.5s3.358 7.5 7.5 7.5h51.5v15h-154v-15h67.5c4.142 0 7.5-3.358 7.5-7.5v-52c0-12.407 10.093-22.5 22.5-22.5h57.5v29.5c0 12.407 10.093 22.5 22.5 22.5h147c12.407 0 22.5-10.093 22.5-22.5v-104c0-12.407-10.093-22.5-22.5-22.5zm-251.267 306.094 43.767 38.781v51.479l-63.385-56.164c9.586-9.043 16.545-20.829 19.618-34.096zm109.978 42.906c46.753 0 84.789 38.036 84.789 84.789v24.711c0 1.378-1.122 2.5-2.5 2.5h-133.5v-47.906c0-.003 0-.007 0-.01v-64.084zm-123.211-58.249c0 29.224-23.776 53-53 53s-53-23.775-53-53v-11.751h15v12c0 20.953 17.047 38 38 38s38-17.047 38-38v-12h15zm-76-11.751h46v12c0 12.682-10.318 23-23 23s-23-10.318-23-23zm186.772-31.218 80.722 43.811c6.183 3.354 8.674 10.965 5.555 16.971-2.168 4.161-6.425 6.746-11.109 6.746-2.077 0-4.079-.514-5.942-1.522l-81.146-44.038c-6.921-3.762-14.757-5.75-22.662-5.75h-190.25c-15.517 0-29.792-8.448-37.256-22.049l-55.908-101.839c-1.816-3.31-2.776-7.055-2.776-10.832v-49.263c0-7.091 5.534-12.93 12.337-13.016 6.768-.232 12.808 5.725 12.663 12.499v43.393c0 3.775.96 7.52 2.777 10.829l52.821 96.203c3.08 5.597 8.958 9.075 15.341 9.075h190.25c12.05 0 24.008 3.036 34.583 8.782zm-110.772-23.782h-15v-15h15zm37.5-142c-20.678 0-37.5 16.822-37.5 37.5v44.5h-15v-44.5c0-28.949 23.551-52.5 52.5-52.5h57.5v15zm234.5 44.5c0 4.136-3.364 7.5-7.5 7.5h-147c-4.136 0-7.5-3.364-7.5-7.5v-104c0-4.136 3.364-7.5 7.5-7.5h147c4.136 0 7.5 3.364 7.5 7.5z"/><path d="m471.5 48h-111c-5.79 0-10.5 4.71-10.5 10.5v68c0 5.79 4.71 10.5 10.5 10.5h111c5.79 0 10.5-4.71 10.5-10.5v-68c0-5.79-4.71-10.5-10.5-10.5zm-4.5 74h-102v-59h102z"/></g></svg>