<svg id="_x31_" height="512" viewBox="0 0 24 24" width="512" xmlns="http://www.w3.org/2000/svg"><path d="m23.5 6.25c-.276 0-.5-.224-.5-.5v-.798c0-.654-.422-1.24-1.026-1.425-6.618-2.026-13.33-2.026-19.947 0-.605.185-1.027.771-1.027 1.425v.798c0 .276-.224.5-.5.5s-.5-.224-.5-.5v-.798c0-1.089.713-2.068 1.733-2.381 6.813-2.085 13.721-2.085 20.533 0 1.021.312 1.734 1.291 1.734 2.381v.798c0 .276-.224.5-.5.5z"/><path d="m14.5 11h-5c-.276 0-.5-.224-.5-.5v-2.5c0-1.654 1.346-3 3-3s3 1.346 3 3v2.5c0 .276-.224.5-.5.5zm-4.5-1h4v-2c0-1.103-.897-2-2-2s-2 .897-2 2z"/><path d="m19.5 11h-5c-.276 0-.5-.224-.5-.5v-2.5c0-1.654 1.346-3 3-3s3 1.346 3 3v2.5c0 .276-.224.5-.5.5zm-4.5-1h4v-2c0-1.103-.897-2-2-2s-2 .897-2 2z"/><path d="m22.5 11h-3c-.276 0-.5-.224-.5-.5v-2.358c0-1.205.646-2.311 1.645-2.816 1.015-.515 2.255-.407 3.157.275.125.095.198.242.198.399v3.5c0 .827-.673 1.5-1.5 1.5zm-2.5-1h2.5c.276 0 .5-.224.5-.5v-3.231c-.474-.27-1.189-.412-1.904-.05-.666.336-1.096 1.092-1.096 1.923z"/><path d="m9.5 11h-5c-.276 0-.5-.224-.5-.5v-2.5c0-1.654 1.346-3 3-3s3 1.346 3 3v2.5c0 .276-.224.5-.5.5zm-4.5-1h4v-2c0-1.103-.897-2-2-2s-2 .897-2 2z"/><path d="m4.5 11h-3c-.827 0-1.5-.673-1.5-1.5v-3.5c0-.157.073-.304.198-.399 1.15-.868 2.905-.746 3.925.275.566.565.877 1.32.877 2.124v2.5c0 .276-.224.5-.5.5zm-3.5-4.732v3.232c0 .276.224.5.5.5h2.5v-2c0-.537-.207-1.04-.583-1.417-.623-.622-1.657-.753-2.417-.315z"/><path d="m12 22.993c-3.43 0-6.86-.521-10.267-1.564-1.02-.312-1.733-1.291-1.733-2.381v-.798c0-.276.224-.5.5-.5s.5.224.5.5v.798c0 .654.422 1.24 1.026 1.425 6.617 2.025 13.329 2.024 19.947 0 .605-.185 1.027-.771 1.027-1.425v-.798c0-.276.224-.5.5-.5s.5.224.5.5v.798c0 1.089-.713 2.068-1.733 2.381-3.407 1.043-6.837 1.564-10.267 1.564z"/><path d="m12 19c-1.654 0-3-1.346-3-3v-2.5c0-.276.224-.5.5-.5h5c.276 0 .5.224.5.5v2.5c0 1.654-1.346 3-3 3zm-2-5v2c0 1.103.897 2 2 2s2-.897 2-2v-2z"/><path d="m17 19c-1.654 0-3-1.346-3-3v-2.5c0-.276.224-.5.5-.5h5c.276 0 .5.224.5.5v2.5c0 1.654-1.346 3-3 3zm-2-5v2c0 1.103.897 2 2 2s2-.897 2-2v-2z"/><path d="m22.002 18.997c-.464 0-.931-.106-1.358-.323-.998-.506-1.644-1.611-1.644-2.816v-2.358c0-.276.224-.5.5-.5h3c.827 0 1.5.673 1.5 1.5v3.5c0 .157-.073.304-.198.399-.523.395-1.159.598-1.8.598zm1.498-.997h.01zm-3.5-4v1.858c0 .832.43 1.587 1.096 1.923.715.362 1.43.219 1.904-.05v-3.231c0-.276-.224-.5-.5-.5z"/><path d="m7 19c-1.654 0-3-1.346-3-3v-2.5c0-.276.224-.5.5-.5h5c.276 0 .5.224.5.5v2.5c0 1.654-1.346 3-3 3zm-2-5v2c0 1.103.897 2 2 2s2-.897 2-2v-2z"/><path d="m2 19c-.649 0-1.289-.213-1.802-.601-.125-.095-.198-.242-.198-.399v-3.5c0-.827.673-1.5 1.5-1.5h3c.276 0 .5.224.5.5v2.5c0 .804-.311 1.559-.876 2.124s-1.32.876-2.124.876zm-1-1.268c.759.439 1.793.307 2.417-.316.376-.376.583-.879.583-1.416v-2h-2.5c-.276 0-.5.224-.5.5z"/></svg>