<svg id="_x31_" height="512" viewBox="0 0 24 24" width="512" xmlns="http://www.w3.org/2000/svg"><path d="m3.5 22h-3c-.276 0-.5-.224-.5-.5v-9c0-.276.224-.5.5-.5 3.401 0 5.198 1.146 5.273 1.195.179.117.264.335.211.542l-2 7.886c-.055.222-.255.377-.484.377zm-2.5-1h2.111l1.808-7.13c-.562-.27-1.888-.786-3.919-.861z"/><path d="m13 24c-2.36 0-6.923-1.984-9.433-3.168-.25-.117-.357-.416-.239-.665.117-.251.417-.357.665-.239 1.96.924 6.761 3.072 9.007 3.072 2.433 0 8.165-2.857 9.814-3.706-.26-.34-.797-.794-1.814-.794-.923 0-2.093.369-3.225.727-1.203.379-2.448.773-3.525.773-2.064 0-4.806-.988-4.921-1.03-.26-.094-.394-.381-.299-.641.094-.26.38-.393.641-.299.026.01 2.692.97 4.579.97.923 0 2.093-.369 3.225-.727 1.203-.379 2.448-.773 3.525-.773 2.334 0 2.949 1.767 2.975 1.842.077.231-.024.484-.239.6-.311.164-7.646 4.058-10.736 4.058z"/><path d="m16.5 19.59c-.276 0-.5-.224-.5-.5v-.5c0-.698-.471-1.296-1.144-1.452l-9.653-2.331c-.269-.065-.434-.335-.369-.604s.335-.428.604-.369l9.649 2.33c1.125.263 1.913 1.261 1.913 2.426v.5c0 .276-.224.5-.5.5z"/><path d="m19.214 12c-.745 0-1.39-.495-1.532-1.176l-.588-3.326c-.047-.22-.303-.398-.594-.398s-.547.178-.597.413l-.582 3.295c-.145.697-.79 1.192-1.535 1.192-.797 0-1.464-.556-1.551-1.294l-.228-1.914c-.014-.108-.14-.749-.667-3.183-.226-1.038-.34-2.102-.34-3.163 0-1.349 1.097-2.446 2.445-2.446.453 0 .898.123 1.287.356 1.09.653 2.444.653 3.536 0 .388-.233.834-.356 1.287-.356 1.348 0 2.445 1.097 2.445 2.446 0 1.062-.114 2.126-.341 3.165-.59 2.713-.659 3.12-.667 3.181l-.228 1.915c-.086.737-.753 1.293-1.55 1.293zm-2.714-5.9c.766 0 1.429.508 1.575 1.208l.588 3.326c.043.202.281.366.551.366.285 0 .53-.181.559-.412l.227-1.914c.023-.202.253-1.304.683-3.276.211-.969.317-1.961.317-2.952 0-.797-.648-1.446-1.445-1.446-.272 0-.539.074-.771.214-1.408.844-3.157.844-4.565 0-.235-.14-.501-.214-.774-.214-.797 0-1.445.648-1.445 1.446 0 .99.106 1.982.317 2.951.455 2.098.66 3.078.683 3.277l.228 1.914c.028.231.273.412.558.412.27 0 .508-.164.554-.381l.582-3.295c.149-.716.812-1.224 1.578-1.224z"/></svg>