<svg id="Capa_1" enable-background="new 0 0 509.152 509.152" height="512" viewBox="0 0 509.152 509.152" width="512" xmlns="http://www.w3.org/2000/svg"><g><path d="m402.386 0h-295.62c-15.89 0-28.817 12.927-28.817 28.817v88.379c0 4.142 3.358 7.5 7.5 7.5s7.5-3.358 7.5-7.5v-88.379c0-7.619 6.198-13.817 13.817-13.817h295.62c7.619 0 13.817 6.198 13.817 13.817v365.737c0 4.142 3.358 7.5 7.5 7.5s7.5-3.358 7.5-7.5v-365.737c.001-15.89-12.927-28.817-28.817-28.817z"/><path d="m423.704 417.054c-4.142 0-7.5 3.358-7.5 7.5v54.924c0 8.091-6.583 14.674-14.674 14.674h-293.907c-8.091 0-14.674-6.583-14.674-14.674v-332.281c0-4.142-3.358-7.5-7.5-7.5s-7.5 3.358-7.5 7.5v332.281c0 16.362 13.312 29.674 29.674 29.674h293.906c16.362 0 29.674-13.312 29.674-29.674v-54.924c.001-4.142-3.357-7.5-7.499-7.5z"/><path d="m341.293 343.675c-5.233-5.233-13.748-5.233-18.98 0l-24.516 24.516c-18.75 18.751-18.75 49.261 0 68.012 9.376 9.375 21.69 14.063 34.006 14.063 12.315 0 24.63-4.688 34.006-14.063 18.751-18.751 18.751-49.261 0-68.012zm19.212 87.225-5.303-5.303c-12.903 12.902-33.897 12.901-46.799-.001s-12.902-33.896 0-46.799l23.4-23.399 23.399 23.399c12.902 12.902 12.902 33.897 0 46.799z"/><path d="m339.633 388.419-10.443 10.497-3.786-4.427c-2.693-3.148-7.426-3.516-10.575-.825-3.148 2.692-3.517 7.427-.825 10.575l9.069 10.604c1.361 1.591 3.325 2.541 5.417 2.62.094.003.188.005.283.005 1.991 0 3.906-.793 5.316-2.21l16.177-16.259c2.921-2.936 2.909-7.685-.027-10.607-2.936-2.921-7.684-2.909-10.606.027z"/><path d="m153.576 80.697h50c4.142 0 7.5-3.358 7.5-7.5s-3.358-7.5-7.5-7.5h-50c-4.142 0-7.5 3.358-7.5 7.5s3.358 7.5 7.5 7.5z"/><path d="m153.576 344.697h50c4.142 0 7.5-3.358 7.5-7.5s-3.358-7.5-7.5-7.5h-50c-4.142 0-7.5 3.358-7.5 7.5s3.358 7.5 7.5 7.5z"/><path d="m153.576 124.697h208.715c4.142 0 7.5-3.358 7.5-7.5s-3.358-7.5-7.5-7.5h-208.715c-4.142 0-7.5 3.358-7.5 7.5s3.358 7.5 7.5 7.5z"/><path d="m153.576 168.749h208.715c4.142 0 7.5-3.358 7.5-7.5s-3.358-7.5-7.5-7.5h-208.715c-4.142 0-7.5 3.358-7.5 7.5s3.358 7.5 7.5 7.5z"/><path d="m153.576 212.801h208.715c4.142 0 7.5-3.358 7.5-7.5s-3.358-7.5-7.5-7.5h-208.715c-4.142 0-7.5 3.358-7.5 7.5s3.358 7.5 7.5 7.5z"/><path d="m153.576 256.853h208.715c4.142 0 7.5-3.358 7.5-7.5s-3.358-7.5-7.5-7.5h-208.715c-4.142 0-7.5 3.358-7.5 7.5s3.358 7.5 7.5 7.5z"/><path d="m153.576 300.905h208.715c4.142 0 7.5-3.358 7.5-7.5s-3.358-7.5-7.5-7.5h-208.715c-4.142 0-7.5 3.358-7.5 7.5s3.358 7.5 7.5 7.5z"/><path d="m223.88 401.468c-8.833 0-17.132 4.309-22.199 11.527-.454.646-.895 1.273-1.325 1.88-.347-1.703-.683-3.41-.989-4.964-3.475-17.648-6.167-29.631-11.708-35.171-3.046-3.046-6.949-4.075-10.714-2.82-5.813 1.938-9.612 8.648-13.116 23.162-2.038 8.446-3.195 16.472-3.243 16.81-.585 4.101 2.264 7.9 6.364 8.485 4.106.586 7.899-2.264 8.485-6.364 1.116-7.81 2.889-15.852 4.617-21.495 1.851 6.343 3.581 15.129 4.598 20.292 3.221 16.356 4.554 23.126 11.077 24.776.663.167 1.332.249 1.997.249 2.495 0 4.919-1.151 6.638-3.234 2.131-2.582 5.36-6.953 9.597-12.988 2.261-3.222 5.971-5.145 9.922-5.145h21.761c4.142 0 7.5-3.358 7.5-7.5s-3.358-7.5-7.5-7.5z"/></g></svg>