<svg height="480pt" viewBox="0 0 480 480" width="480pt" xmlns="http://www.w3.org/2000/svg"><path d="m375.296875 172.71875c-3.574219-27.800781-20.1875-52.234375-44.730469-65.777344-24.539062-13.542968-54.066406-14.574218-79.496094-2.773437-7.003906 3.335937-15.144531 3.335937-22.148437 0-36-16.695313-78.71875-7.210938-104.273437 23.148437-25.554688 30.359375-27.609376 74.070313-5.015626 106.691406 13.675782 19.851563 22.898438 42.425782 27.03125 66.175782l11.152344 64c2.003906 11.480468 11.988282 19.847656 23.640625 19.816406h12.480469c12.050781-.023438 22.222656-8.964844 23.796875-20.910156l8.839844-68.121094c.519531-3.984375 3.914062-6.964844 7.929687-6.96875h10.992188c4.019531 0 7.417968 2.980469 7.9375 6.96875l8.796875 68.121094c1.585937 11.953125 11.773437 20.894531 23.832031 20.910156h12.480469c11.664062.027344 21.648437-8.355469 23.640625-19.847656l11.152344-64c4.132812-23.75 13.355468-46.324219 27.03125-66.175782 12.363281-17.886718 17.679687-39.710937 14.929687-61.28125zm-28.097656 52.167969c-14.980469 21.769531-25.078125 46.519531-29.597657 72.554687l-11.203124 63.957032c-.675782 3.820312-4 6.601562-7.878907 6.601562h-12.480469c-4.019531 0-7.417968-2.980469-7.933593-6.96875l-8.800781-68.121094c-1.578126-11.949218-11.753907-20.886718-23.808594-20.910156h-10.992188c-12.050781.023438-22.21875 8.964844-23.792968 20.910156l-8.847657 68.121094c-.515625 3.984375-3.910156 6.964844-7.925781 6.96875h-12.480469c-3.878906 0-7.203125-2.78125-7.882812-6.601562l-11.175781-63.957032c-4.519532-26.035156-14.617188-50.785156-29.597657-72.554687-18.460937-26.679688-16.777343-62.417969 4.109375-87.242188 20.890625-24.828125 55.8125-32.597656 85.257813-18.972656 11.300781 5.285156 24.363281 5.285156 35.664062 0 29.445313-13.625 64.367188-5.855469 85.257813 18.972656 20.886718 24.824219 22.570312 60.5625 4.109375 87.242188zm0 0"/><path d="m240 144c-12.558594.226562-24.882812-3.429688-35.289062-10.472656l-9.421876 12.929687c13.117188 9.085938 28.757813 13.820313 44.710938 13.542969 15.953125.277344 31.59375-4.457031 44.710938-13.542969l-9.421876-12.929687c-10.40625 7.042968-22.730468 10.699218-35.289062 10.472656zm0 0"/><path d="m232 0h16v32h-16zm0 0"/><path d="m286.109375 37.019531 8.28125-30.910156 15.453125 4.140625-8.28125 30.910156zm0 0"/><path d="m337.074219 55.871094 16-27.714844 13.855469 8-15.996094 27.714844zm0 0"/><path d="m381.421875 87.265625 22.625-22.628906 11.3125 11.3125-22.625 22.628906zm0 0"/><path d="m416.136719 129.0625 27.714843-15.996094 8 13.855469-27.714843 15.996094zm0 0"/><path d="m438.839844 178.441406 30.910156-8.285156 4.140625 15.457031-30.910156 8.28125zm0 0"/><path d="m448 232h32v16h-32zm0 0"/><path d="m438.84375 301.5625 4.140625-15.457031 30.910156 8.28125-4.144531 15.457031zm0 0"/><path d="m416.128906 350.9375 8-13.855469 27.710938 16-8 13.855469zm0 0"/><path d="m381.421875 392.738281 11.3125-11.3125 22.625 22.628907-11.3125 11.3125zm0 0"/><path d="m337.070312 424.136719 13.855469-7.996094 16 27.710937-13.855469 8zm0 0"/><path d="m286.105469 442.984375 15.457031-4.140625 8.28125 30.910156-15.453125 4.140625zm0 0"/><path d="m232 448h16v32h-16zm0 0"/><path d="m170.152344 469.75 8.28125-30.910156 15.457031 4.140625-8.285156 30.910156zm0 0"/><path d="m113.074219 443.851562 15.996093-27.714843 13.859376 7.996093-16 27.714844zm0 0"/><path d="m64.636719 404.050781 22.625-22.628906 11.316406 11.3125-22.628906 22.628906zm0 0"/><path d="m28.160156 353.066406 27.714844-15.996094 8 13.859376-27.714844 15.996093zm0 0"/><path d="m6.105469 294.394531 30.910156-8.28125 4.140625 15.453125-30.90625 8.28125zm0 0"/><path d="m0 232h32v16h-32zm0 0"/><path d="m6.105469 185.613281 4.140625-15.453125 30.910156 8.28125-4.140625 15.453125zm0 0"/><path d="m28.152344 126.929688 8-13.855469 27.710937 16-8 13.855469zm0 0"/><path d="m64.636719 75.953125 11.316406-11.3125 22.625 22.628906-11.316406 11.3125zm0 0"/><path d="m113.074219 36.152344 13.855469-8 16 27.714844-13.859376 8zm0 0"/><path d="m170.152344 10.246094 15.457031-4.140625 8.28125 30.90625-15.453125 4.144531zm0 0"/></svg>