<svg id="Icons" height="512" viewBox="0 0 74 74" width="512" xmlns="http://www.w3.org/2000/svg"><path d="m67.988 36.98a1 1 0 0 1 -1-1v-14.667a2.363 2.363 0 0 0 -2.361-2.361h-22.409a1 1 0 0 1 0-2h22.409a4.366 4.366 0 0 1 4.361 4.361v14.667a1 1 0 0 1 -1 1z"/><path d="m38.94 69.37h-2.94a1 1 0 0 1 0-2h2.94a1 1 0 0 1 0 2z"/><path d="m19.06 69.37h-7.1a9.971 9.971 0 0 1 -9.96-9.96v-47.62a1 1 0 0 1 2 0v47.62a7.969 7.969 0 0 0 7.96 7.96h7.1a1 1 0 1 1 0 2z"/><path d="m29 69.37h-2.93a1 1 0 1 1 0-2h2.93a1 1 0 0 1 0 2z"/><path d="m64.63 69.37h-18.69a1 1 0 0 1 0-2h18.69a2.362 2.362 0 0 0 2.36-2.36v-14.94a1 1 0 0 1 2-.01v14.95a4.365 4.365 0 0 1 -4.36 4.36z"/><path d="m42.218 18.952h-33.055a7.163 7.163 0 0 1 0-14.326h33.055a1 1 0 0 1 1 1v12.326a1 1 0 0 1 -1 1zm-33.055-12.326a5.163 5.163 0 0 0 0 10.326h32.055v-10.326z"/><path d="m69.826 51.065h-13.844a8.043 8.043 0 0 1 0-16.085h13.844a2.177 2.177 0 0 1 2.174 2.174v11.738a2.177 2.177 0 0 1 -2.174 2.173zm-13.844-14.085a6.043 6.043 0 0 0 0 12.085h13.844a.174.174 0 0 0 .174-.173v-11.738a.174.174 0 0 0 -.174-.174z"/><path d="m56.784 46.754a3.731 3.731 0 1 1 3.731-3.732 3.736 3.736 0 0 1 -3.731 3.732zm0-5.462a1.731 1.731 0 1 0 1.731 1.73 1.732 1.732 0 0 0 -1.731-1.73z"/></svg>