<?xml version="1.0" encoding="UTF-8"?>
<svg xmlns="http://www.w3.org/2000/svg" id="Outline" viewBox="0 0 512 512" width="512" height="512"><path d="M32,496H184a8,8,0,0,0,5.657-2.343c1.836-1.837,18.175-19.813,26.281-84.665,4.029-32.227,18.6-64.624,32.187-88.992H464a24.027,24.027,0,0,0,24-24V40a24.027,24.027,0,0,0-24-24H176a24.027,24.027,0,0,0-24,24V249.754L94.06,264.239a7.994,7.994,0,0,0-3.717,2.1l-64,64A8,8,0,0,0,24,336V488A8,8,0,0,0,32,496ZM464,304H257.068a40.234,40.234,0,0,0-13.463-48.4l-1-.715c3.545-9.479,5.4-22.684,5.4-38.86,0-.16.446-16.026,8-16.026s8,15.866,8,16c0,17.159,2,30.72,5.933,40.308C275.539,269.961,283.659,272,288,272c5.628,0,13.336-2.509,18.1-14.462,3.97-9.966,5.9-26.17,5.9-49.538,0-24.336,4.009-40.733,8-54.854,3.991,14.121,8,30.518,8,54.854,0,31.647,2.852,64,24,64,4.341,0,12.461-2.039,18.067-15.692C374,246.72,376,233.159,376,216.026c0-.16.446-16.026,8-16.026s8,15.866,8,16c0,17.159,2,30.72,5.933,40.308C403.539,269.961,411.659,272,416,272c5.628,0,13.336-2.509,18.1-14.462,3.97-9.966,5.9-26.17,5.9-49.538,0-25,4.229-41.619,8.325-56H472V296A8.009,8.009,0,0,1,464,304ZM168,152h23.675c4.1,14.381,8.325,31,8.325,56,0,17.777,1.121,31.4,3.4,41.292a40.091,40.091,0,0,0-19.969,17.171L168,293.124Zm32-40c0-22.283,26.879-31.713,31.894-32,2.838.487,11.805,6.286,18.967,12.28a8,8,0,0,0,10.276,0c7.16-5.993,16.12-11.788,18.965-12.282,5.088.307,31.9,9.741,31.9,32,0,8.354-1.6,15.941-3.772,24H203.772C201.6,127.941,200,120.354,200,112Zm236.228,24H331.772C329.6,127.941,328,120.354,328,112c0-22.283,26.879-31.713,31.894-32,2.838.487,11.805,6.286,18.967,12.28a8,8,0,0,0,10.276,0c7.16-5.993,16.12-11.788,18.965-12.282,5.088.307,31.9,9.741,31.9,32C440,120.354,438.4,127.941,436.228,136Zm-4.518,16A200.743,200.743,0,0,0,424,208c0,37.426-5.4,47.149-7.7,47.945-2.1-1.48-8.3-11.174-8.3-39.945,0-11.068-5.016-32-24-32s-24,20.932-24,32c0,28.771-6.2,38.465-8.3,39.945-2.293-.8-7.7-10.519-7.7-47.945a200.743,200.743,0,0,0-7.71-56ZM219.192,246.539C217.51,239.685,216,227.973,216,208a200.743,200.743,0,0,0-7.71-56h95.42A200.743,200.743,0,0,0,296,208c0,37.426-5.4,47.149-7.7,47.945-2.1-1.48-8.3-11.174-8.3-39.945,0-11.068-5.016-32-24-32s-24,20.932-24,32c0,16.212-1.937,26.043-3.852,31.808A40.123,40.123,0,0,0,219.192,246.539ZM176,32H464a8.009,8.009,0,0,1,8,8v96H452.754A97.927,97.927,0,0,0,456,112c0-33.038-36.82-48-48-48-6.91,0-16.687,6.307-24,11.9C376.687,70.307,366.91,64,360,64c-7.887,0-28.521,7.459-40,23.444C308.521,71.459,287.887,64,280,64c-6.91,0-16.687,6.307-24,11.9C248.687,70.307,238.91,64,232,64c-11.18,0-48,14.962-48,48a97.927,97.927,0,0,0,3.246,24H168V40A8.009,8.009,0,0,1,176,32ZM40,339.313l60.09-60.089L152,266.246v35.8A48.5,48.5,0,0,1,112,328a8,8,0,0,0-7.59,10.53C111.894,360.978,112,391.7,112,392a8,8,0,0,0,14.924,4.008L197.281,274.48a24,24,0,0,1,34.72-7.5l2.305,1.646a24.12,24.12,0,0,1,6.613,31.9c-15.862,26.363-35.826,66.236-40.857,106.485-5.835,46.683-16,66.607-20.074,72.992H40Zm104.718-5.974-18.479,31.917a189.007,189.007,0,0,0-3.993-22.538A66.022,66.022,0,0,0,144.718,333.339Z"/></svg>
