<svg width="420" height="280" fill="none" xmlns="http://www.w3.org/2000/svg"><rect x="154" y="227" width="111.741" height="37.224" rx="8" fill="#151618" fill-opacity=".8"/><g clip-path="url(#clip0)" fill="#fff"><path d="M172.623 247.236a2.433 2.433 0 0 0 2.437-2.436v-4.87a2.432 2.432 0 0 0-2.437-2.435 2.433 2.433 0 0 0-2.437 2.435v4.87a2.433 2.433 0 0 0 2.437 2.436Z"/><path d="M176.628 245.49a.811.811 0 0 1 .797-.69c.495 0 .893.439.812.926a5.679 5.679 0 0 1-4.801 4.692v1.688a.815.815 0 0 1-.813.812.814.814 0 0 1-.812-.812v-1.688a5.679 5.679 0 0 1-4.802-4.692.816.816 0 0 1 .813-.926c.398 0 .731.293.796.69a4.074 4.074 0 0 0 4.005 3.369 4.073 4.073 0 0 0 4.005-3.369Z"/></g><path d="M214.384 244.191v-3.315c0-.521-.407-.947-.903-.947h-10.832c-.497 0-.903.426-.903.947v9.471c0 .521.406.947.903.947h10.832c.496 0 .903-.426.903-.947v-3.315l2.067 2.169c.568.597 1.543.171 1.543-.672v-5.844c0-.843-.975-1.269-1.543-.672l-2.067 2.178Z" fill="#fff"/><rect x="232.494" y="231" width="29.247" height="29.224" rx="4" fill="#F44"/><g clip-path="url(#clip1)"><path d="m241.093 248.894 1.625-1.293c.391-.31.615-.775.615-1.269l.001-2.113a12.218 12.218 0 0 1 7.568-.003l-.001 2.125c0 .493.224.958.614 1.268l1.614 1.28a1.625 1.625 0 0 0 2.159-.127l.994-.994c.649-.649.649-1.728-.04-2.337-5.206-4.597-13.045-4.589-18.249.007-.689.609-.69 1.689-.041 2.337l.993.994a1.61 1.61 0 0 0 2.148.125Z" fill="#fff"/></g><defs><clipPath id="clip0"><path fill="#fff" transform="translate(162.874 235.871)" d="M0 0h19.498v19.483H0z"/></clipPath><clipPath id="clip1"><path fill="#fff" transform="rotate(135 79.376 177.337)" d="M0 0h19.498v19.483H0z"/></clipPath></defs></svg>