<svg width="94" height="180" fill="none" xmlns="http://www.w3.org/2000/svg"><path fill-rule="evenodd" clip-rule="evenodd" d="M0 16C0 7.163 7.163 0 16 0h62c8.837 0 16 7.163 16 16v148c0 8.837-7.163 16-16 16H16c-8.837 0-16-7.163-16-16V16ZM69 3h9c7.18 0 13 5.82 13 13v148c0 7.18-5.82 13-13 13H16c-7.18 0-13-5.82-13-13V16C3 8.82 8.82 3 16 3h9v3a3 3 0 0 0 3 3h38a3 3 0 0 0 3-3V3Z" fill="#787F8A"/><rect x="33" y="153" width="28" height="10" rx="4" fill="#151618" fill-opacity=".8"/><circle cx="39" cy="158" r="2" fill="#fff"/><circle cx="47" cy="158" r="2" fill="#fff"/><circle cx="55" cy="158" r="2" fill="#F44"/></svg>