<?xml version="1.0" standalone="no"?>
<!DOCTYPE svg PUBLIC "-//W3C//DTD SVG 20010904//EN"
 "http://www.w3.org/TR/2001/REC-SVG-20010904/DTD/svg10.dtd">
<svg version="1.0" xmlns="http://www.w3.org/2000/svg"
 width="1808.000000pt" height="1808.000000pt" viewBox="0 0 1808.000000 1808.000000"
 preserveAspectRatio="xMidYMid meet">
<metadata>
Created by potrace 1.14, written by Peter Selinger 2001-2017
</metadata>
<g transform="translate(0.000000,1808.000000) scale(0.100000,-0.100000)"
fill="#000000" stroke="none">
<path d="M9487 12493 c-1 0 -42 -4 -92 -7 -114 -7 -190 -14 -235 -22 -19 -3
-51 -8 -70 -10 -56 -7 -132 -19 -185 -31 -16 -4 -39 -7 -50 -8 -11 -1 -30 -5
-42 -9 -13 -4 -35 -9 -50 -12 -16 -3 -86 -21 -158 -41 -175 -47 -364 -116
-505 -181 -19 -9 -37 -17 -40 -17 -8 -1 -200 -100 -260 -134 -30 -18 -63 -35
-72 -38 -10 -3 -18 -9 -18 -14 0 -5 -5 -9 -11 -9 -27 0 -345 -227 -468 -335
-50 -43 -191 -177 -210 -198 -9 -10 -37 -41 -64 -69 -26 -28 -64 -71 -85 -97
-20 -25 -40 -48 -43 -51 -27 -23 -249 -343 -249 -360 0 -5 -4 -10 -10 -10 -5
0 -10 -4 -10 -10 0 -5 -15 -33 -33 -62 -53 -84 -191 -374 -196 -411 0 -4 -7
-20 -15 -35 -13 -26 -83 -223 -91 -260 -3 -9 -16 -60 -29 -112 -14 -52 -27
-107 -30 -122 -18 -86 -23 -115 -32 -167 -3 -18 -7 -43 -10 -54 -2 -12 -6 -51
-10 -87 -3 -36 -8 -74 -10 -85 -16 -84 -23 -494 -11 -655 11 -146 18 -214 23
-240 2 -14 7 -43 9 -65 5 -40 29 -177 40 -225 10 -52 22 -102 25 -110 1 -3 3
-9 4 -15 11 -61 94 -324 108 -340 4 -5 8 -19 8 -32 0 -13 5 -23 12 -23 6 0 9
-2 6 -6 -7 -6 116 -288 132 -304 3 -3 16 -27 30 -54 44 -87 51 -99 145 -241
51 -77 116 -168 144 -203 28 -34 51 -65 51 -68 0 -3 10 -15 23 -27 12 -12 37
-40 56 -62 72 -85 215 -227 341 -338 73 -65 300 -230 401 -293 52 -32 104 -65
115 -71 22 -15 307 -158 314 -158 3 -1 15 -6 26 -13 12 -6 24 -8 28 -5 3 3 6
1 6 -5 0 -7 7 -12 15 -12 8 0 34 -9 58 -19 23 -11 53 -23 67 -26 14 -4 39 -13
55 -21 32 -14 283 -90 325 -98 14 -3 40 -9 58 -15 17 -5 32 -8 32 -6 0 3 12 0
26 -5 15 -6 41 -12 58 -14 17 -3 43 -7 56 -10 42 -10 83 -17 130 -22 54 -7 85
-12 85 -14 0 -1 25 -3 55 -6 30 -2 69 -7 85 -9 144 -24 635 -24 860 0 107 11
217 25 235 30 8 2 33 7 55 10 42 6 72 11 115 20 14 3 34 7 45 9 94 20 356 92
405 113 8 3 17 7 20 8 36 9 121 42 140 54 13 9 25 15 27 13 2 -1 19 5 39 13
20 8 38 15 40 15 20 0 339 168 422 222 15 10 34 21 42 25 8 3 17 9 20 12 12
14 70 51 80 51 5 0 10 3 10 8 0 4 17 18 38 32 20 14 42 29 48 35 6 5 26 21 44
35 35 27 46 36 130 109 84 74 280 274 280 286 0 5 -44 48 -440 425 -26 25
-116 110 -199 190 -84 80 -156 145 -161 145 -4 0 -55 -45 -112 -100 -168 -162
-356 -307 -482 -372 -17 -9 -33 -19 -36 -22 -12 -15 -223 -112 -329 -151 -78
-28 -246 -77 -300 -86 -14 -3 -37 -7 -51 -10 -243 -48 -517 -57 -805 -29 -58
6 -124 14 -145 19 -8 1 -37 7 -65 11 -27 5 -52 10 -55 10 -3 1 -18 5 -35 9
-112 27 -242 65 -282 82 -17 8 -33 14 -36 14 -3 0 -18 5 -34 12 -15 6 -33 12
-38 13 -22 5 -312 152 -325 165 -3 3 -32 23 -65 44 -172 113 -390 314 -513
475 -118 155 -243 366 -296 501 -10 25 -24 59 -31 75 -27 59 -91 279 -111 379
-37 192 -48 320 -48 556 0 160 4 219 20 350 7 58 51 275 65 320 5 19 12 42 14
50 8 34 66 195 91 253 59 132 204 392 234 417 3 3 19 23 35 45 183 252 475
491 790 646 50 24 93 49 97 54 4 6 8 7 8 3 0 -3 36 9 80 28 44 18 80 31 80 27
0 -3 6 -1 13 5 7 6 24 13 37 16 14 2 45 12 69 20 24 9 53 18 65 20 12 2 39 9
61 14 22 6 54 14 72 17 18 3 43 9 56 14 14 6 27 8 29 5 3 -2 29 0 59 6 186 33
542 41 721 14 18 -2 53 -7 78 -9 25 -2 56 -7 70 -10 29 -7 114 -24 150 -31 66
-13 207 -58 330 -106 169 -67 500 -263 570 -338 8 -9 23 -21 32 -26 10 -5 73
-61 139 -124 67 -63 125 -116 128 -118 4 -1 41 31 82 70 42 40 131 125 199
188 68 63 155 146 194 183 39 38 105 99 146 137 41 38 99 92 128 120 l53 51
-34 42 c-74 89 -237 245 -357 341 -119 95 -125 100 -142 111 -9 6 -40 26 -69
46 -76 51 -173 113 -179 114 -8 1 -55 28 -60 34 -9 11 -199 102 -335 161 -40
17 -160 62 -170 64 -5 1 -14 4 -20 7 -11 7 -150 49 -178 54 -9 2 -21 6 -25 9
-5 3 -21 7 -36 10 -15 3 -42 10 -59 15 -35 11 -271 60 -327 67 -19 3 -51 7
-70 9 -19 2 -51 6 -70 9 -118 19 -268 28 -508 30 -117 1 -214 0 -215 -1z"/>
<path d="M15307 12494 c-1 -1 -61 -5 -132 -8 -72 -4 -141 -8 -155 -10 -14 -3
-50 -7 -80 -10 -30 -4 -66 -8 -80 -10 -14 -2 -47 -7 -73 -11 -27 -4 -57 -8
-67 -10 -9 -2 -35 -6 -56 -9 -22 -4 -55 -11 -74 -16 -32 -8 -83 -19 -120 -25
-8 -1 -22 -5 -30 -8 -8 -4 -24 -8 -35 -10 -11 -2 -27 -7 -35 -10 -17 -7 -97
-29 -120 -33 -8 -2 -23 -7 -35 -12 -11 -5 -47 -19 -80 -32 -92 -33 -97 -36
-143 -59 -24 -11 -50 -21 -57 -21 -7 0 -15 -3 -17 -7 -2 -5 -46 -30 -98 -57
-91 -47 -277 -163 -312 -195 -9 -9 -23 -21 -30 -26 -82 -63 -173 -150 -243
-230 -27 -32 -55 -63 -61 -69 -7 -7 -42 -57 -79 -112 -83 -123 -172 -299 -190
-374 0 -3 -6 -15 -13 -27 -7 -13 -11 -23 -8 -23 3 0 -1 -15 -9 -32 -21 -52
-65 -259 -69 -331 -2 -37 -6 -70 -9 -74 -6 -12 -1 -351 7 -403 7 -44 29 -180
31 -190 1 -3 4 -18 8 -35 4 -16 9 -39 11 -50 17 -80 106 -299 129 -316 5 -3 9
-10 9 -15 0 -5 24 -47 55 -92 93 -140 296 -333 485 -460 89 -60 255 -152 274
-152 8 0 14 -4 14 -8 0 -5 15 -14 33 -20 17 -5 75 -27 127 -47 52 -20 102 -38
110 -41 8 -2 69 -22 135 -45 66 -22 127 -42 135 -44 8 -2 15 -4 15 -5 0 -1 7
-3 16 -5 8 -1 94 -25 190 -53 95 -27 188 -53 204 -57 17 -5 35 -9 40 -11 6 -1
156 -39 335 -84 179 -45 332 -83 340 -85 8 -3 47 -13 85 -24 39 -10 97 -27
130 -35 33 -9 92 -26 130 -37 39 -12 75 -22 80 -24 22 -6 34 -10 140 -47 61
-21 132 -50 159 -63 28 -14 56 -25 63 -25 7 0 13 -4 13 -9 0 -5 8 -11 18 -14
24 -9 107 -58 134 -82 13 -11 41 -33 62 -49 79 -59 160 -150 199 -223 65 -121
86 -262 61 -416 -29 -182 -121 -330 -284 -460 -59 -46 -196 -127 -204 -120 -3
4 -6 2 -6 -4 0 -6 -10 -14 -22 -18 -13 -4 -27 -8 -33 -10 -5 -2 -41 -15 -80
-29 -69 -25 -161 -50 -220 -60 -16 -3 -41 -7 -55 -10 -14 -4 -47 -9 -75 -12
-27 -3 -61 -8 -75 -10 -101 -19 -557 -25 -720 -11 -134 13 -245 26 -270 32 -8
2 -35 7 -60 10 -24 4 -47 8 -50 10 -3 2 -24 6 -46 9 -41 6 -71 12 -101 21 -10
2 -49 12 -88 20 -38 9 -77 19 -85 22 -8 3 -20 7 -26 8 -6 2 -38 11 -70 21 -33
9 -63 18 -69 20 -12 2 -121 42 -150 54 -11 4 -45 18 -75 30 -185 74 -528 248
-538 272 -2 4 -8 8 -13 8 -12 0 -174 107 -189 125 -7 8 -17 15 -22 15 -5 0
-18 9 -30 20 -30 28 -44 25 -58 -12 -8 -18 -31 -71 -52 -116 -21 -46 -38 -86
-38 -87 0 -2 -18 -43 -40 -90 -22 -47 -40 -88 -40 -90 0 -2 -18 -43 -40 -90
-22 -47 -40 -88 -40 -91 0 -2 -18 -43 -40 -90 -22 -47 -40 -88 -40 -90 0 -2
-18 -42 -40 -89 -45 -97 -44 -92 -27 -108 39 -36 291 -217 302 -217 3 0 42
-23 89 -50 47 -28 91 -50 100 -50 8 0 16 -5 18 -11 2 -5 10 -11 18 -12 8 -2
22 -7 30 -12 8 -5 17 -10 20 -11 3 0 32 -13 65 -28 84 -39 280 -116 294 -116
6 0 19 -4 29 -9 16 -9 47 -20 57 -21 3 0 22 -7 42 -15 70 -26 317 -93 413
-111 14 -3 43 -10 65 -16 22 -5 49 -12 60 -13 11 -2 58 -10 105 -19 47 -8 105
-18 130 -22 25 -3 56 -8 70 -10 37 -6 149 -19 260 -30 243 -23 706 -23 930 1
147 15 243 27 262 31 13 3 41 7 63 10 71 9 327 71 430 104 55 18 106 32 113
33 6 0 12 4 12 9 0 4 7 8 16 8 8 0 34 8 57 18 23 10 62 27 87 37 90 38 270
135 371 200 168 109 305 229 423 370 87 104 86 103 86 114 0 5 4 11 8 13 15 6
103 153 151 253 41 84 104 250 115 305 2 8 6 22 9 30 5 13 12 48 22 115 2 11
6 38 9 61 14 90 17 135 16 269 0 174 -5 239 -25 350 -11 59 -16 82 -20 100 -2
11 -4 23 -5 27 -2 26 -77 224 -105 279 -35 69 -94 166 -123 201 -213 257 -421
425 -701 563 -82 40 -132 62 -288 121 -38 14 -77 29 -88 33 -11 5 -40 15 -65
22 -25 7 -49 16 -55 19 -5 4 -21 10 -35 13 -14 2 -79 22 -144 42 -66 21 -124
38 -130 39 -14 3 -97 27 -116 34 -14 4 -25 7 -70 15 -9 2 -20 6 -25 9 -6 3
-26 9 -45 14 -19 4 -39 9 -45 10 -231 55 -316 76 -345 85 -19 6 -44 12 -55 14
-11 2 -20 4 -20 5 0 1 -11 3 -25 6 -95 17 -533 141 -705 200 -55 19 -107 36
-116 38 -9 3 -25 9 -35 15 -11 5 -55 27 -99 49 -81 39 -126 63 -135 72 -3 3
-32 23 -65 45 -61 41 -195 169 -195 187 0 5 -8 22 -18 36 -74 107 -100 319
-62 494 19 88 48 169 63 179 5 3 8 9 8 13 -3 13 73 122 118 169 53 57 196 167
216 167 7 0 15 3 17 8 4 8 102 56 138 67 14 4 39 13 55 20 39 17 167 52 225
60 24 4 48 9 52 11 4 2 28 7 55 9 26 3 62 8 78 10 158 26 641 26 795 1 14 -2
46 -7 71 -10 59 -9 93 -14 155 -27 28 -5 64 -12 80 -15 53 -9 198 -45 264 -66
36 -11 72 -21 80 -23 120 -27 646 -249 658 -277 2 -4 12 -8 23 -8 10 0 19 -4
19 -8 0 -5 16 -15 35 -22 20 -8 41 -20 47 -27 26 -32 44 -13 87 95 24 59 49
121 56 137 7 17 22 55 34 85 12 30 26 64 31 75 5 11 44 106 86 210 71 178 84
210 120 293 8 18 14 38 14 45 0 13 -59 57 -77 57 -6 0 -13 4 -15 8 -9 24 -240
139 -483 242 -34 14 -90 35 -97 36 -5 1 -10 3 -13 4 -3 1 -9 4 -15 5 -5 1 -12
4 -15 5 -3 1 -8 3 -12 5 -5 1 -15 4 -23 8 -74 28 -472 134 -535 141 -16 2 -57
9 -90 15 -97 17 -128 22 -165 27 -19 2 -46 6 -60 9 -30 5 -105 14 -178 20 -29
2 -57 7 -62 10 -5 3 -11 1 -15 -5 -4 -6 -12 -7 -18 -3 -7 4 -32 9 -57 10 -65
4 -490 10 -493 7z"/>
<path d="M204 12401 c-2 -2 -25 -4 -52 -4 l-49 0 0 -3358 c0 -3072 1 -3359 16
-3360 20 -1 88 1 121 4 14 1 37 -1 52 -5 17 -4 28 -3 28 3 0 6 5 7 11 3 6 -4
34 -6 63 -5 52 1 85 1 238 -2 49 -1 84 2 81 7 -4 5 0 6 6 1 12 -7 87 -8 156
-2 17 1 42 -1 58 -5 16 -4 27 -3 27 3 0 6 5 7 11 3 6 -4 34 -6 63 -5 28 1 74
1 101 0 69 -1 112 -1 168 0 l47 1 0 859 0 860 118 120 c64 66 221 226 347 356
127 130 313 322 415 426 l185 190 42 -48 c23 -26 74 -86 114 -133 39 -47 92
-109 117 -138 25 -29 54 -65 66 -80 19 -24 54 -65 81 -96 6 -6 44 -51 85 -101
41 -49 77 -92 80 -95 3 -3 30 -34 59 -69 29 -35 58 -70 64 -77 7 -6 28 -31 46
-54 19 -23 40 -48 45 -54 6 -6 29 -33 51 -60 21 -27 48 -60 60 -72 25 -28 44
-50 125 -148 36 -43 80 -94 98 -113 17 -19 32 -37 32 -39 0 -3 28 -37 62 -77
35 -40 86 -99 113 -132 28 -32 56 -64 62 -71 7 -7 13 -16 13 -20 0 -3 8 -14
18 -23 9 -9 64 -72 122 -141 57 -69 109 -130 115 -136 5 -6 24 -28 40 -48 41
-50 62 -75 93 -111 15 -17 47 -55 72 -85 25 -30 49 -60 55 -66 19 -21 199
-236 220 -262 5 -7 19 -23 31 -35 11 -12 40 -47 65 -77 24 -30 46 -57 49 -60
3 -3 20 -23 39 -45 29 -34 42 -41 82 -45 28 -3 45 -2 42 4 -4 5 -1 6 6 1 12
-7 87 -8 156 -2 17 1 42 -1 58 -5 16 -4 27 -3 27 3 0 6 5 7 11 3 10 -6 35 -6
134 -3 6 0 49 -1 98 -2 48 -1 90 1 93 4 3 3 17 2 30 -3 14 -6 26 -6 29 0 3 5
16 6 28 1 12 -4 36 -4 52 -1 17 3 40 3 52 -1 13 -5 25 -4 28 2 4 5 11 6 17 3
5 -4 36 -6 67 -5 110 3 126 3 153 -2 15 -3 30 -1 34 4 3 5 10 6 16 3 5 -4 45
-6 87 -5 155 3 171 2 181 -4 30 -18 -2 29 -117 172 -70 87 -130 160 -133 163
-3 3 -37 44 -74 93 -38 48 -73 87 -78 87 -5 0 -7 4 -4 9 4 5 3 11 -1 13 -5 1
-35 37 -68 78 -33 41 -62 77 -65 80 -3 3 -41 50 -84 105 -44 55 -82 102 -85
105 -4 3 -19 23 -36 45 -16 22 -36 47 -45 55 -9 8 -29 33 -45 55 -16 22 -34
45 -39 50 -6 6 -29 34 -51 63 -21 28 -43 52 -47 52 -4 0 -8 6 -8 14 0 8 -3 16
-8 18 -4 2 -36 39 -72 83 -35 44 -67 82 -70 85 -3 3 -17 21 -30 40 -13 19 -29
40 -35 45 -6 6 -29 33 -50 60 -44 55 -61 76 -88 108 -10 12 -31 37 -45 56 -70
88 -165 207 -171 211 -3 3 -25 30 -48 60 -23 30 -53 67 -65 82 -13 15 -34 41
-48 59 -14 18 -31 38 -37 45 -7 7 -13 17 -13 23 0 6 -4 11 -8 11 -5 0 -30 29
-57 65 -27 36 -53 65 -57 65 -3 0 -9 8 -12 18 -3 9 -18 31 -34 47 -15 17 -129
156 -253 310 -433 539 -482 600 -488 605 -3 3 -20 23 -36 45 -30 40 -53 69
-90 111 -11 12 -29 35 -40 50 -11 16 -31 42 -46 59 -14 16 -42 51 -62 76 l-37
45 83 86 c45 47 123 130 172 183 50 53 115 123 145 155 30 32 102 108 160 170
58 62 125 134 150 160 57 60 268 284 310 330 43 46 156 166 302 321 64 68 138
147 163 174 52 55 240 255 325 345 78 83 262 279 300 320 18 19 87 94 155 165
67 72 139 148 159 170 44 47 243 258 301 320 74 79 94 102 90 107 -2 2 -29 1
-60 -2 -30 -3 -61 -2 -70 2 -9 6 -15 5 -15 -2 0 -6 -5 -8 -11 -4 -7 4 -37 6
-68 5 -71 -2 -25 -2 -404 0 -180 1 -331 -1 -334 -4 -3 -3 -16 -2 -29 3 -14 6
-26 6 -29 -1 -4 -5 -11 -6 -17 -3 -9 6 -54 6 -151 2 -18 -1 -45 2 -60 6 -15 3
-27 2 -27 -3 0 -5 -12 -6 -26 -2 -68 18 -86 7 -231 -144 -178 -183 -521 -539
-613 -635 -65 -67 -317 -329 -490 -509 -36 -37 -162 -168 -280 -291 -118 -122
-262 -272 -320 -331 -58 -60 -177 -183 -265 -275 -88 -91 -196 -203 -240 -249
-347 -360 -463 -481 -553 -574 -57 -58 -174 -180 -260 -270 l-157 -163 -5
1718 -5 1718 -25 6 c-14 4 -34 4 -45 0 -11 -4 -30 -4 -42 1 -13 5 -25 4 -28
-2 -4 -5 -11 -6 -17 -3 -10 6 -79 7 -143 1 -16 -1 -42 1 -57 5 -17 4 -28 3
-28 -3 0 -6 -5 -7 -11 -3 -11 6 -75 7 -144 1 -16 -1 -40 1 -52 5 -12 4 -25 3
-28 -2 -3 -5 -16 -6 -28 -1 -12 4 -35 4 -52 1 -16 -3 -40 -3 -52 1 -13 5 -25
4 -28 -2 -4 -5 -11 -6 -17 -3 -10 6 -79 7 -143 1 -16 -1 -42 1 -57 5 -17 4
-28 3 -28 -3 0 -6 -5 -7 -11 -4 -11 8 -98 12 -105 6z"/>
</g>
</svg>
